<?xml version="1.0" encoding="UTF-8" standalone="no"?><!DOCTYPE svg PUBLIC "-//W3C//DTD SVG 1.1//EN" "http://www.w3.org/Graphics/SVG/1.1/DTD/svg11.dtd"><svg width="100%" height="100%" viewBox="0 0 64 64" version="1.1" xmlns="http://www.w3.org/2000/svg" xmlns:xlink="http://www.w3.org/1999/xlink" xml:space="preserve" xmlns:serif="http://www.serif.com/" style="fill-rule:evenodd;clip-rule:evenodd;stroke-miterlimit:10;"><g id="Habitats"><g id="Terrestrial"><g id="acorn"><path d="M23.564,10.159c0.055,-0.046 0.124,-0.075 0.209,-0.082c0.06,-0.006 0.122,0 0.184,0.015c0.235,0.004 0.492,0.075 0.78,0.374c0.304,0.315 0.599,0.724 0.86,1.085c0.029,0.04 0.058,0.08 0.086,0.119c0.037,0.051 0.072,0.067 0.084,0.067c0.004,-0.004 0.01,-0.018 0.012,-0.043c0.036,-0.418 0.198,-0.688 0.445,-0.74c0.419,-0.088 0.837,0.499 1.114,1.007c0.204,0.373 0.334,0.601 0.438,0.761c0.098,0.153 0.158,0.22 0.19,0.25c0.017,-0.055 0.041,-0.187 0.044,-0.502c0.003,-0.229 0.101,-0.408 0.278,-0.506c0.23,-0.127 0.562,-0.089 0.867,0.098c0.195,0.119 0.472,0.355 0.681,0.799c0.194,0.413 0.283,0.907 0.264,1.468c-0.036,1.031 0.151,1.375 0.268,1.415c0.084,0.03 0.228,-0.077 0.382,-0.286c0.57,-0.768 1.142,-1.07 1.571,-0.828c0.336,0.189 0.515,0.684 0.505,1.393c-0.011,0.756 -0.235,1.688 -0.646,2.696c-0.186,0.456 -0.309,0.765 -0.385,0.995c-0.081,0.247 -0.084,0.337 -0.08,0.367c0.028,0 0.103,-0.015 0.288,-0.106c0.176,-0.088 0.411,-0.224 0.724,-0.407c0.459,-0.268 0.872,-0.408 1.227,-0.415c0.347,-0.007 0.631,0.115 0.822,0.353c0.333,0.414 0.361,1.148 0.077,2.015c-0.216,0.659 -0.708,1.699 -1.827,2.911c-0.539,0.585 -0.902,1.017 -1.142,1.361c-0.365,0.525 -0.336,0.699 -0.306,0.749c0.022,0.039 0.146,0.154 0.778,0.003c0.487,-0.117 0.895,-0.094 1.213,0.069c0.295,0.15 0.496,0.414 0.581,0.764c0.146,0.596 -0.054,1.358 -0.536,2.036c-0.543,0.764 -1.369,1.317 -2.326,1.557c-0.968,0.243 -1.648,1.017 -1.797,1.377c-0.041,0.099 -0.037,0.148 -0.032,0.16c0.008,0.004 0.043,0.01 0.116,-0.008l0.055,-0.013l0.044,0.034c0.291,0.224 0.446,0.517 0.461,0.872c0.044,1.03 -1.093,2.592 -3.475,4.773c-0.016,0.017 -0.035,0.036 -0.056,0.055c-0.138,0.481 -0.281,0.913 -0.429,1.294l0.005,-0.003c0.484,-0.297 1.095,-0.597 1.816,-0.893c0.106,-0.043 0.211,-0.085 0.315,-0.126c0.078,-0.043 0.153,-0.085 0.224,-0.126c0.484,-0.278 0.578,-0.383 0.595,-0.415c0.94,-1.666 1.815,-3.027 2.531,-3.936c0.748,-0.949 1.285,-1.368 1.64,-1.28c0.23,0.057 0.352,0.299 0.364,0.72c0.002,0.035 0.005,0.06 0.009,0.077c0.078,-0.06 0.24,-0.257 0.439,-0.666c0.224,-0.465 0.405,-1.019 0.494,-1.521c0.141,-0.797 0.354,-1.543 0.63,-2.215c0.251,-0.613 0.55,-1.152 0.887,-1.602c0.634,-0.844 1.359,-1.298 1.941,-1.212c0.34,0.05 0.602,0.276 0.757,0.653c0.159,0.385 0.2,0.912 0.124,1.564c-0.096,0.817 0.067,0.881 0.074,0.883c0.05,0.016 0.207,-0.039 0.485,-0.352c0.254,-0.285 0.55,-0.717 0.858,-1.251c0.8,-1.385 1.674,-2.457 2.528,-3.101c0.383,-0.288 0.749,-0.481 1.088,-0.573c0.333,-0.09 0.637,-0.077 0.877,0.037c0.319,0.153 0.514,0.468 0.565,0.913c0.049,0.443 -0.052,1.007 -0.293,1.631c-0.31,0.806 -0.191,0.904 -0.19,0.905c0.001,0.001 0.079,0.052 0.43,-0.15c0.262,-0.152 0.617,-0.41 1.085,-0.789c0.848,-0.686 1.678,-1.17 2.4,-1.4c0.68,-0.217 1.211,-0.187 1.493,0.084c0.361,0.346 0.238,0.989 -0.337,1.762c-0.304,0.408 -0.263,0.54 -0.243,0.571c0.03,0.046 0.2,0.182 1.138,-0.02c0.855,-0.184 1.6,-0.225 2.156,-0.12c0.509,0.095 0.842,0.311 0.94,0.606c0.095,0.288 -0.04,0.703 -0.703,1.003c-0.245,0.111 -0.371,0.179 -0.433,0.221c0.141,0.055 0.478,0.125 0.832,0.198c0.084,0.017 0.173,0.035 0.267,0.055c0.591,0.124 1.588,0.401 1.629,0.87c0.012,0.137 -0.053,0.333 -0.429,0.482c-0.011,0.005 -0.019,0.009 -0.024,0.013c0.009,0.011 0.031,0.029 0.074,0.044c0.416,0.145 0.775,0.284 1.082,0.42c0.009,0.095 0.017,0.193 0.025,0.296l0,0c0.026,0.347 0.048,0.742 0.06,1.191l0,0c0.002,0.085 0.004,0.172 0.006,0.261c-0.328,-0.006 -0.634,-0.041 -0.801,-0.064c0.017,0.019 0.039,0.039 0.066,0.061c0.409,0.332 0.565,0.607 0.464,0.817c-0.134,0.282 -0.665,0.32 -1.623,0.116c-0.212,-0.046 -0.397,-0.089 -0.545,-0.124c-0.182,-0.043 -0.369,-0.087 -0.468,-0.097c0.042,0.103 0.158,0.301 0.28,0.509l0.053,0.09c0.186,0.319 0.245,0.658 0.169,0.98c-0.07,0.3 -0.254,0.563 -0.518,0.739c-0.341,0.227 -0.77,0.287 -1.206,0.17c-0.494,-0.133 -0.972,-0.49 -1.381,-1.031c-0.258,-0.342 -0.516,-0.496 -0.725,-0.434c-0.265,0.077 -0.465,0.496 -0.509,1.066c-0.143,1.843 -0.669,2.322 -1.086,2.399c-0.043,0.008 -0.088,0.012 -0.133,0.012c-0.648,0 -1.397,-0.833 -2.127,-2.373c-0.331,-0.698 -0.692,-0.956 -0.903,-0.903c-0.182,0.046 -0.38,0.375 -0.34,1.15c0.042,0.819 -0.022,1.49 -0.188,1.996c-0.169,0.512 -0.448,0.845 -0.808,0.963c-0.097,0.032 -0.2,0.047 -0.308,0.047c-0.339,0 -0.724,-0.158 -1.131,-0.467c-0.55,-0.418 -1.136,-1.097 -1.742,-2.019c-0.225,-0.343 -0.48,-0.601 -0.738,-0.748c-0.223,-0.126 -0.437,-0.16 -0.602,-0.095c-0.145,0.057 -0.255,0.192 -0.317,0.389c-0.075,0.236 -0.081,0.558 -0.017,0.931c0.137,0.79 0.061,1.556 -0.212,2.154c-0.259,0.566 -0.681,0.953 -1.159,1.06c-0.088,0.02 -0.18,0.031 -0.273,0.031c-0.729,0 -1.595,-0.634 -2.102,-2.45c-0.204,-0.733 -0.831,-0.999 -1.096,-0.93c-0.069,0.018 -0.155,0.063 -0.111,0.246l0.002,0.008c0.09,0.509 -0.04,0.938 -0.375,1.24c-0.369,0.332 -0.965,0.505 -1.772,0.514c-0.719,0.007 -1.573,-0.117 -2.545,-0.368c-0.378,0.128 -0.83,0.292 -1.294,0.482c-1.482,0.608 -2.451,1.229 -2.73,1.747c-0.182,0.339 -0.281,0.966 0.271,2.027c0.176,-0.09 0.36,-0.173 0.553,-0.248c2.912,-1.121 4.52,-0.117 5.521,0.92c0.855,0.887 0.584,2.266 0.42,2.84c0.103,0.217 0.196,0.431 0.268,0.599c0.915,2.131 1.266,4.512 -0.131,6.554c-0.066,0.097 -0.134,0.192 -0.204,0.287c-0.369,0.502 -0.475,0.613 -0.339,1.309c0.017,0.084 -0.015,0.145 -0.064,0.166c-0.049,0.022 -0.115,0.005 -0.167,-0.064c-0.424,-0.568 -0.577,-0.563 -1.197,-0.627c-0.118,-0.012 -0.234,-0.025 -0.35,-0.041c-2.451,-0.335 -3.981,-2.192 -4.947,-4.302c-0.082,-0.179 -0.189,-0.413 -0.287,-0.655c-0.391,-0.102 -1.431,-0.513 -1.745,-2.035c-0.272,-1.321 0.408,-3.181 2.048,-4.328l-0.003,-0.007c-0.244,-0.462 -0.404,-0.902 -0.474,-1.306c-0.028,-0.16 -0.042,-0.315 -0.042,-0.463c-0.454,0.297 -0.988,0.507 -1.498,0.654c0.413,1.793 -0.275,2.913 -0.996,3.666c-0.74,0.773 -1.947,0.585 -2.45,0.462c-0.185,0.097 -0.367,0.184 -0.51,0.252c-1.819,0.868 -3.873,1.253 -5.693,0.111c-0.086,-0.054 -0.17,-0.11 -0.256,-0.167c-0.448,-0.303 -0.548,-0.391 -1.147,-0.249c-0.073,0.017 -0.126,-0.009 -0.147,-0.05c-0.02,-0.042 -0.008,-0.1 0.05,-0.147c0.479,-0.388 0.47,-0.521 0.504,-1.061c0.006,-0.102 0.013,-0.204 0.023,-0.305c0.207,-2.139 1.767,-3.529 3.564,-4.44c0.153,-0.077 0.352,-0.177 0.559,-0.271c0.075,-0.343 0.396,-1.259 1.706,-1.583c1.378,-0.342 3.492,0.505 4.406,2.626c0.068,0.158 0.129,0.312 0.182,0.462c0.816,-0.234 1.427,-0.565 1.778,-0.967c0.375,-0.428 0.751,-1.251 1.096,-2.394c-0.624,-0.976 -1.054,-1.862 -1.278,-2.633c-0.224,-0.772 -0.231,-1.389 -0.021,-1.835c0.19,-0.403 0.559,-0.648 1.067,-0.709l0.008,0c0.216,-0.012 0.209,-0.212 0.206,-0.278c-0.008,-0.228 -0.148,-0.515 -0.356,-0.732c-0.249,-0.26 -0.569,-0.399 -0.901,-0.392c-0.055,0.001 -0.109,0.002 -0.163,0.002c-1.996,0 -2.769,-0.799 -2.824,-1.562c-0.035,-0.484 0.211,-0.996 0.675,-1.405c0.492,-0.432 1.199,-0.724 1.993,-0.822c0.862,-0.106 1.186,-0.353 1.202,-0.548c0.019,-0.222 -0.339,-0.557 -1.181,-0.806c-1.057,-0.313 -1.875,-0.677 -2.432,-1.081c-0.541,-0.393 -0.822,-0.823 -0.812,-1.245c0.008,-0.374 0.244,-0.733 0.682,-1.04c0.434,-0.304 1.057,-0.558 1.851,-0.754c0.345,-0.085 0.621,-0.201 0.799,-0.336c0.102,-0.076 0.222,-0.197 0.215,-0.337c-0.01,-0.223 -0.366,-0.501 -1.138,-0.617c-1.795,-0.271 -2.825,-0.793 -2.901,-1.469c-0.046,-0.416 0.259,-1.052 1.974,-1.718c0.5,-0.194 0.79,-0.44 0.838,-0.71c0.048,-0.271 -0.131,-0.587 -0.533,-0.94c-1.156,-1.016 -1.681,-1.943 -1.403,-2.478c0.178,-0.344 0.655,-0.451 1.31,-0.294l0.102,0.025c0.251,0.06 0.49,0.118 0.593,0.123c-0.031,-0.086 -0.132,-0.261 -0.237,-0.443c-0.076,-0.132 -0.171,-0.296 -0.276,-0.486c-0.193,-0.351 -0.319,-0.611 -0.387,-0.795c-0.061,-0.165 -0.108,-0.347 0.002,-0.448c0.108,-0.098 0.277,-0.034 0.412,0.032c0.134,0.067 0.308,0.174 0.565,0.348c0.047,0.032 0.085,0.051 0.115,0.064c-0.268,-0.582 -0.449,-1.202 -0.223,-1.599c0.047,-0.082 0.109,-0.144 0.184,-0.186Zm15.586,25.796c-0.077,0.091 -0.137,0.205 -0.18,0.339c-0.088,0.28 -0.097,0.635 -0.024,1.054c0.127,0.739 0.058,1.451 -0.193,2.002c-0.179,0.391 -0.442,0.683 -0.743,0.83c0.301,-0.147 0.564,-0.439 0.743,-0.83c0.252,-0.551 0.32,-1.263 0.193,-2.002c-0.073,-0.419 -0.064,-0.774 0.024,-1.054c0.043,-0.134 0.103,-0.248 0.18,-0.339Zm-3.374,2.306c0.136,0.428 0.299,0.799 0.486,1.102c-0.187,-0.303 -0.35,-0.674 -0.486,-1.102Zm9.207,-3.08c-0.125,0.204 -0.221,0.55 -0.191,1.14c0.04,0.786 -0.018,1.426 -0.175,1.901c-0.128,0.388 -0.313,0.643 -0.551,0.759c0.238,-0.116 0.423,-0.371 0.551,-0.759c0.157,-0.475 0.215,-1.115 0.175,-1.901c-0.03,-0.59 0.066,-0.936 0.191,-1.14Zm-2.736,2.983c0.18,0.186 0.356,0.344 0.528,0.475c0.206,0.156 0.401,0.268 0.583,0.336c-0.182,-0.068 -0.377,-0.18 -0.583,-0.336c-0.172,-0.131 -0.348,-0.289 -0.528,-0.475Zm-8.049,-1.211c-0.18,0.091 -0.259,0.285 -0.203,0.519c0.073,0.42 -0.026,0.756 -0.293,0.997c-0.079,0.071 -0.173,0.134 -0.281,0.189c0.108,-0.055 0.202,-0.118 0.281,-0.189c0.267,-0.241 0.366,-0.576 0.293,-0.997c-0.056,-0.234 0.023,-0.428 0.203,-0.519Zm12.449,-0.768c0.191,0.382 0.382,0.714 0.572,0.993c-0.19,-0.279 -0.381,-0.611 -0.572,-0.993Zm2.751,-0.333c-0.007,0.049 -0.012,0.099 -0.016,0.15c-0.028,0.372 -0.076,0.703 -0.139,0.987c0.063,-0.284 0.111,-0.615 0.139,-0.987c0.004,-0.051 0.009,-0.101 0.016,-0.15Zm4.031,0.097c-0.035,0.03 -0.072,0.059 -0.111,0.085c-0.038,0.025 -0.077,0.048 -0.119,0.068c0.042,-0.02 0.081,-0.043 0.119,-0.068c0.039,-0.026 0.076,-0.055 0.111,-0.085Zm-13.365,-0.191c0.067,0.025 0.135,0.056 0.202,0.095c0.093,0.053 0.186,0.118 0.277,0.194c-0.091,-0.076 -0.183,-0.141 -0.277,-0.194c-0.067,-0.039 -0.135,-0.07 -0.202,-0.095Zm13.367,0.189l-0.002,0.002l0,0l0.002,-0.002Zm-20.206,-2.961c-0.106,-0.014 -0.468,0.06 -1.359,1.191c-0.345,0.438 -0.727,0.981 -1.136,1.615c0.409,-0.634 0.791,-1.177 1.136,-1.615c0.891,-1.131 1.252,-1.205 1.359,-1.191Zm19.997,1c0.012,0.038 0.029,0.076 0.047,0.114c0.055,0.114 0.143,0.265 0.265,0.473l0.053,0.091c0.152,0.26 0.201,0.533 0.141,0.789c-0.004,0.015 -0.008,0.031 -0.012,0.046c0.004,-0.015 0.008,-0.031 0.012,-0.046c0.06,-0.256 0.011,-0.529 -0.141,-0.789l-0.053,-0.091c-0.122,-0.208 -0.21,-0.359 -0.265,-0.473c-0.018,-0.038 -0.035,-0.076 -0.047,-0.114Zm2.536,-0.308c0.118,0.136 0.137,0.218 0.122,0.248c-0.002,0.004 -0.012,0.022 -0.052,0.041c0.04,-0.019 0.05,-0.037 0.052,-0.041c0.015,-0.03 -0.004,-0.112 -0.122,-0.248Zm-21.784,-0.081c-0.127,0.154 -0.236,0.223 -0.342,0.216c-0.005,0 -0.009,-0.001 -0.014,-0.001c0.005,0 0.01,0.001 0.014,0.001c0.106,0.007 0.215,-0.062 0.342,-0.216Zm19.6,0.086l0.002,0l-0.002,0l0,0Zm-0.021,-0.003l0.016,0.002l-0.016,-0.002l-0.008,-0.001l0.008,0.001Zm-20.223,-0.606c0.044,0.081 0.07,0.215 0.074,0.391l0.001,0.003c0.004,0.088 0.019,0.154 0.04,0.204c-0.021,-0.05 -0.036,-0.116 -0.04,-0.204l-0.001,-0.003c-0.004,-0.176 -0.03,-0.31 -0.074,-0.391Zm0.971,-0.001c-0.05,0.098 -0.1,0.188 -0.149,0.269c0.049,-0.081 0.099,-0.171 0.149,-0.269Zm21.065,-0.163c-0.051,0.027 -0.075,0.067 -0.086,0.091c-0.034,0.077 -0.015,0.169 0.053,0.264c-0.068,-0.095 -0.087,-0.187 -0.053,-0.264c0.011,-0.024 0.035,-0.064 0.086,-0.091Zm-0.321,-1.644c0.025,0.014 0.053,0.026 0.083,0.037c0.245,0.085 0.563,0.199 0.886,0.335c-0.323,-0.136 -0.641,-0.25 -0.886,-0.336c-0.03,-0.01 -0.058,-0.022 -0.083,-0.036Zm-0.131,-0.121l0,0.001l0,-0.001l0,0Zm0.119,-0.373c-0.103,0.052 -0.162,0.14 -0.16,0.241c0.001,0.046 0.015,0.091 0.041,0.132c-0.026,-0.041 -0.04,-0.086 -0.041,-0.132c-0.002,-0.101 0.057,-0.189 0.16,-0.241Zm-2.473,-1.382c-0.001,0.012 0,0.025 0.001,0.038c0.022,0.2 0.289,0.255 1.082,0.419c0.084,0.017 0.173,0.036 0.266,0.055c1.102,0.231 1.413,0.518 1.423,0.637c0.005,0.055 -0.061,0.12 -0.177,0.178c0.116,-0.058 0.182,-0.123 0.177,-0.178c-0.01,-0.119 -0.321,-0.406 -1.423,-0.637c-0.093,-0.019 -0.182,-0.038 -0.266,-0.055c-0.792,-0.164 -1.06,-0.219 -1.082,-0.419c-0.001,-0.013 -0.002,-0.026 -0.001,-0.038Zm-13.319,0.237c-0.112,0.055 -0.213,0.067 -0.303,0.037c-0.255,-0.084 -0.334,-0.453 -0.251,-1.16c0.132,-1.127 -0.114,-1.849 -0.66,-1.929c-0.183,-0.027 -0.391,0.018 -0.61,0.128c0.219,-0.11 0.427,-0.155 0.61,-0.128c0.546,0.08 0.792,0.802 0.66,1.929c-0.083,0.707 -0.004,1.076 0.251,1.16c0.09,0.03 0.191,0.018 0.303,-0.037Zm14.025,-0.728c0.367,-0.185 0.556,-0.435 0.486,-0.647c-0.113,-0.343 -0.95,-0.709 -2.793,-0.313c-0.616,0.133 -1.015,0.149 -1.241,0.048c0.226,0.101 0.625,0.085 1.241,-0.048c1.843,-0.396 2.68,-0.03 2.793,0.313c0.07,0.212 -0.119,0.462 -0.486,0.647Zm-3.555,-0.916l0.001,0.001l-0.001,-0.001l0,0Zm-0.059,-0.032l0,0l0,0l0,0Zm-0.006,-0.004l0.003,0.002l-0.003,-0.002l0,0Zm-0.152,-0.354c-0.01,0.09 0.004,0.176 0.053,0.252c0.025,0.039 0.058,0.073 0.099,0.101c-0.041,-0.028 -0.074,-0.062 -0.099,-0.101c-0.049,-0.076 -0.063,-0.162 -0.053,-0.252Zm-4.832,0.027c0.016,0.098 0.057,0.169 0.122,0.217c0.187,0.135 0.475,0.002 0.708,-0.132c-0.233,0.134 -0.521,0.267 -0.707,0.132c-0.066,-0.048 -0.107,-0.119 -0.123,-0.217Zm5.111,-0.606c0.009,-0.013 0.018,-0.025 0.027,-0.037c0.481,-0.646 0.618,-1.176 0.366,-1.418c-0.204,-0.196 -0.666,-0.205 -1.234,-0.024c-0.409,0.13 -1.04,0.408 -1.855,1.001c0.815,-0.593 1.446,-0.871 1.855,-1.001c0.568,-0.181 1.03,-0.172 1.234,0.024c0.252,0.242 0.115,0.772 -0.366,1.418c-0.009,0.012 -0.018,0.024 -0.027,0.037Zm-4.822,-2.442c0.113,0.131 0.184,0.316 0.211,0.547c0.045,0.401 -0.051,0.923 -0.277,1.509c-0.017,0.043 -0.032,0.085 -0.047,0.126c0.015,-0.041 0.03,-0.083 0.047,-0.126c0.226,-0.586 0.322,-1.108 0.277,-1.509c-0.026,-0.231 -0.098,-0.416 -0.211,-0.547Zm-0.366,-0.213c-0.281,-0.06 -0.641,0.023 -1.041,0.24c0.4,-0.217 0.76,-0.3 1.041,-0.24Z" style="fill:#1b1b1a;"/><path id="Outline" d="M61.409,31.99c0,-16.178 -13.135,-29.313 -29.313,-29.313c-16.179,0 -29.314,13.135 -29.314,29.313c0,16.179 13.135,29.313 29.314,29.313c16.178,0 29.313,-13.134 29.313,-29.313Z" style="fill:none;stroke:#000;stroke-width:3px;"/></g></g></g></svg>