<?xml version="1.0" encoding="UTF-8" standalone="no"?><!DOCTYPE svg PUBLIC "-//W3C//DTD SVG 1.1//EN" "http://www.w3.org/Graphics/SVG/1.1/DTD/svg11.dtd"><svg width="100%" height="100%" viewBox="0 0 64 64" version="1.1" xmlns="http://www.w3.org/2000/svg" xmlns:xlink="http://www.w3.org/1999/xlink" xml:space="preserve" xmlns:serif="http://www.serif.com/" style="fill-rule:evenodd;clip-rule:evenodd;stroke-miterlimit:10;"><g id="Changes-in-air-chemistry" serif:id="Changes in air chemistry"><path d="M23.385,54.945l0.995,-14.265l7.62,0l1.124,16.156c-2.763,-0.422 -7.461,-0.507 -9.739,-1.891Zm-2.669,-30.879c-0.061,-0.039 -0.135,-0.088 -0.173,-0.119c-0.152,-0.129 -0.304,-0.288 -0.427,-0.473c-0.368,-0.554 -0.459,-1.225 -0.344,-1.733c0.108,-0.479 0.387,-0.814 0.764,-0.919c0.015,-0.004 0.202,-0.028 0.342,-0.017c0.093,0.102 0.158,0.146 0.156,0.073c-0.001,-0.046 -0.069,-0.066 -0.156,-0.073c-0.225,-0.246 -0.618,-0.835 -0.653,-0.953c-0.251,-0.832 -0.038,-1.576 0.276,-2.059c0.201,-0.31 0.469,-0.576 0.795,-0.688c0.216,0.34 0.232,-0.054 0.157,-0.041c-0.054,0.01 -0.106,0.024 -0.157,0.041c-0.076,-0.118 -0.133,-0.244 -0.151,-0.354c-0.076,-0.457 -0.186,-1.436 0.151,-2.283c0.089,-0.227 0.761,-0.219 0.817,-0.458c0.283,-1.219 0.043,-2.533 0.346,-2.75c0.201,-0.144 0.417,-0.261 0.649,-0.334c0.173,-0.693 1.263,-0.88 2.589,-0.873c0.866,0.005 1.389,-0.731 2.266,-0.647c0.995,0.095 2.318,1.009 2.811,0.969c0.8,-0.065 2.229,-1.957 2.92,-1.239c0.031,0.032 0.072,0.087 0.118,0.159c0.215,-0.013 0.449,-1.006 0.652,0.111c0.632,-0.579 1.112,1.333 1.972,1.313c0.476,-0.011 1.214,-0.013 1.647,0.438c0.198,0.207 0.615,0.156 0.946,0.048c0.763,-0.249 1.946,0.163 2.747,0.529c0.801,0.366 1.06,0.982 1.043,1.653c0.123,-0.03 0.242,-0.059 0.346,-0.093c0.911,-0.301 1.785,-0.825 2.777,-0.88c0.384,-0.021 0.914,0.004 1.25,0.388c0.389,0.446 0.26,1.243 0.104,1.666c-0.088,0.238 -0.201,0.451 -0.331,0.649c0.092,0.049 0.137,0.106 0.15,0.164c0.511,0.448 2.001,1.637 2.552,1.989c0.508,0.325 0.055,1.24 -0.034,1.585c-0.143,0.549 1.056,1.088 1.607,1.075c0.553,-0.013 1.366,0.614 1.255,1.343c-0.09,0.585 -0.534,1.048 -0.871,1.419c-0.361,0.397 -0.758,0.753 -1.172,1.077c-0.059,0.047 -0.119,0.093 -0.18,0.138c0.367,0.263 0.7,0.703 0.928,1.228c0.415,0.959 1.517,3.19 1.007,4.083c-0.099,0.174 -0.224,0.319 -0.357,0.446c-0.226,0.214 -0.479,0.383 -0.744,0.526c-0.392,0.211 -0.812,0.364 -1.249,0.471c-1.266,0.311 -2.846,0.354 -4.327,-0.675c-0.498,-0.346 -1.05,-0.919 -1.238,-1.637c-0.018,-0.067 -0.034,-0.315 -0.021,-0.547c0.194,-0.177 -0.686,0.537 -0.719,0.554c-1.052,0.561 -2.397,0.92 -3.75,0.531c-0.863,-0.248 -1.608,-1.061 -1.289,-2.105c0.179,-0.585 0.566,-1.013 1.003,-1.25c0.008,-0.004 -1.239,-0.975 -1.289,-0.936c-0.597,0.459 -1.452,0.662 -2.292,0.408c-0.046,-0.014 -0.315,0.155 -0.384,0.231c-0.515,0.571 -1.264,0.87 -2.042,0.864c-0.009,-0.001 0.162,1.053 0.047,1.423c-0.118,0.381 -0.467,0.962 -0.905,1.387c0.223,0.163 0.401,0.418 0.473,0.797c0.117,0.627 1.068,1.622 1.34,2.337c0.304,0.797 -1.145,1.583 -1.16,1.771c-0.081,1.016 -1.236,3.185 -1.904,3.161c0,0 -0.069,0.125 -0.113,0.197c-0.034,0.055 -0.094,0.118 -0.138,0.157c-0.544,0.487 -1.58,-1.524 -2.316,-1.507c-0.052,0.001 -0.362,2 -0.706,1.925c0.026,-0.053 -0.148,-1.944 -0.164,-1.871c-0.108,0.491 -0.669,0.715 -1.041,0.772c-0.224,0.035 -0.756,0.015 -0.999,-0.334c0.116,-0.095 -0.009,-0.013 0,0c-0.462,0.377 -1.556,0.31 -1.972,-0.068c-0.769,-0.699 0.154,-2.118 0.367,-2.481c0.095,-0.162 0.193,-0.323 0.295,-0.48c-0.459,-0.367 -0.965,-0.963 -1.228,-1.472c-0.677,-1.305 0.142,-2.345 0.631,-2.944c0.281,-0.345 0.596,-0.706 0.978,-0.904c-0.967,-1.116 -3.696,-2.885 -3.102,-3.497c0.132,-0.135 -1.159,-0.441 -1.176,-0.402c0.013,0.008 0.025,0.016 0.036,0.023c0.018,0.007 0.035,0.016 0.051,0.027c0.04,0.026 0.006,0.007 -0.051,-0.027c-0.026,-0.012 -0.037,-0.019 -0.036,-0.023Zm7.411,13.681c-0.001,0.001 -0.002,0.001 -0.004,-0.001c-0.19,-0.049 -0.08,-0.143 0,0l0.004,0.001Zm18.828,-22.615l0.01,-0.015c-0.031,-0.017 -0.033,-0.01 -0.01,0.015l0.16,0.149c-0.079,-0.069 -0.134,-0.121 -0.16,-0.149Z" style="fill:#1b1b1a;"/><path id="Outline" d="M61.5,32.174c0,-16.178 -13.135,-29.313 -29.313,-29.313c-16.178,0 -29.313,13.135 -29.313,29.313c0,16.178 13.135,29.313 29.313,29.313c16.178,0 29.313,-13.135 29.313,-29.313Z" style="fill:none;stroke:#1b1b1a;stroke-width:3px;"/></g></svg>