<?xml version="1.0" encoding="UTF-8" standalone="no"?><!DOCTYPE svg PUBLIC "-//W3C//DTD SVG 1.1//EN" "http://www.w3.org/Graphics/SVG/1.1/DTD/svg11.dtd"><svg width="100%" height="100%" viewBox="0 0 64 64" version="1.1" xmlns="http://www.w3.org/2000/svg" xmlns:xlink="http://www.w3.org/1999/xlink" xml:space="preserve" xmlns:serif="http://www.serif.com/" style="fill-rule:evenodd;clip-rule:evenodd;stroke-miterlimit:10;"><g id="Species"><g id="Amphibians"><g id="frog2"><path id="Outline" d="M58.626,31.687c0,-16.179 -13.135,-29.313 -29.313,-29.313c-16.178,0 -29.313,13.134 -29.313,29.313c0,16.178 13.135,29.313 29.313,29.313c16.178,0 29.313,-13.135 29.313,-29.313Z" style="fill:none;stroke:#000;stroke-width:3px;"/><path d="M24.402,13.35c0.052,-0.011 0.103,-0.02 0.155,-0.025c0.604,-0.626 1.118,-1.082 1.345,-1.367c0.898,-1.131 2.091,-0.43 2.091,-0.43c0.469,0.582 2.108,2.009 2.108,2.009c0.144,0.098 0.28,0.198 0.408,0.299c0.028,-0.021 0.058,-0.042 0.09,-0.061c0.565,-0.343 1.35,-0.096 1.811,0.55c0.027,0.038 0.053,0.077 0.078,0.119c0.049,0.081 0.092,0.164 0.127,0.248l0.005,0.013c0.268,0.648 0.129,1.352 -0.357,1.689c0.508,1.873 0.738,3.747 0.277,4.635c0.848,0.563 1.736,1.422 2.523,2.729c0.642,0.105 1.414,-0.059 1.824,-1.209c0.548,-1.539 -1.318,-2.56 -1.758,-2.741c-0.238,0.007 -0.473,-0.112 -0.603,-0.332c-0.191,-0.322 -0.085,-0.737 0.237,-0.928c0.321,-0.192 0.737,-0.086 0.928,0.236c0.045,0.075 0.073,0.155 0.087,0.237c0.38,0.429 2.097,2.18 3.15,1.145c1.458,-1.431 1.237,-2.952 1.196,-3.17c-0.12,-0.056 -0.225,-0.147 -0.297,-0.269c-0.192,-0.322 -0.086,-0.737 0.236,-0.929c0.322,-0.191 0.738,-0.085 0.929,0.237c0.151,0.253 0.117,0.566 -0.062,0.78c0.136,0.716 0.254,2.501 -1.312,4.414c-0.015,0.005 -0.017,0.007 -0.004,0.005l0.004,-0.005c0.208,-0.076 2.894,-0.882 3.131,-2.394c-0.048,-0.045 -0.091,-0.097 -0.127,-0.156c-0.191,-0.322 -0.085,-0.738 0.237,-0.929c0.321,-0.191 0.737,-0.085 0.928,0.236c0.192,0.322 0.086,0.738 -0.236,0.929c-0.035,0.021 -0.07,0.038 -0.106,0.052c0.061,0.479 -0.062,1.407 -3.139,3.432c0,0 2.299,0.086 3.707,-0.724c0.049,-0.152 0.151,-0.288 0.3,-0.376c0.322,-0.191 0.737,-0.085 0.929,0.236c0.191,0.322 0.085,0.738 -0.237,0.929c-0.2,0.119 -0.437,0.123 -0.633,0.031c-0.766,0.442 -3.345,1.336 -4.469,1.365c-0.913,0.023 -1.631,1.876 -3.679,2.427c0.242,0.7 0.459,1.477 0.641,2.339c0,0 0.696,1.843 -1.331,5.208c0.137,-0.039 0.291,-0.084 0.459,-0.134l0,0c0.307,-0.092 0.658,-0.201 1.038,-0.326l0.001,0c0.408,-0.134 0.847,-0.286 1.296,-0.454c0.16,-0.063 0.321,-0.129 0.482,-0.196c0.003,0.002 0.006,0.005 0.009,0.007c1.038,-0.41 2.079,-0.898 2.848,-1.434l-0.001,-0.001c0.285,-0.199 0.534,-0.403 0.73,-0.613c0.046,-0.05 0.09,-0.1 0.13,-0.15c0,0 2.559,-0.74 1.775,1.687c-0.095,0.296 -0.416,0.712 -0.905,1.208c-1.362,2.187 -4.18,5.907 -8.999,9.473c0,0 -0.338,0.651 -0.807,1.377c1.751,-0.789 3.006,-1.626 3.834,-2.275l-0.001,-0.001c0.261,-0.204 0.48,-0.391 0.658,-0.551c0.415,-0.375 0.609,-0.609 0.609,-0.609c3.219,-2.96 4.017,-3.84 4.017,-3.84l0.072,0.002c-0.199,-0.232 -0.222,-0.579 -0.034,-0.838c0.219,-0.303 0.642,-0.371 0.946,-0.152c0.303,0.219 0.371,0.642 0.152,0.946c-0.17,0.235 -0.462,0.329 -0.727,0.257c-0.333,0.636 -1.871,2.181 -1.871,2.181c1.728,-0.338 4.625,-3.232 4.916,-3.527c-0.111,-0.219 -0.098,-0.49 0.055,-0.702c0.219,-0.304 0.643,-0.372 0.947,-0.153c0.303,0.22 0.371,0.643 0.152,0.947c-0.185,0.256 -0.516,0.344 -0.797,0.234c-0.676,1.134 -3.791,3.463 -3.791,3.463c1.639,-0.149 5.887,-3.158 6.594,-3.666c-0.07,-0.202 -0.043,-0.433 0.091,-0.619c0.219,-0.304 0.643,-0.372 0.946,-0.153c0.304,0.219 0.372,0.643 0.152,0.946c-0.204,0.284 -0.588,0.362 -0.885,0.192c-0.685,1.137 -5.687,4.013 -5.687,4.013c0.814,0.347 3.856,-1.429 4.475,-1.799c-0.044,-0.184 -0.01,-0.386 0.11,-0.551c0.219,-0.304 0.643,-0.372 0.946,-0.153c0.304,0.219 0.372,0.643 0.153,0.946c-0.22,0.304 -0.643,0.372 -0.947,0.153c-0.004,-0.004 -0.009,-0.007 -0.014,-0.011c-1.035,1.101 -2.764,1.991 -4.413,2.651c0.361,0.008 0.904,-0.007 1.578,-0.109c0.66,-0.099 1.153,-0.185 1.473,-0.254c0.02,-0.087 0.057,-0.171 0.112,-0.247c0.219,-0.304 0.643,-0.372 0.946,-0.153c0.304,0.22 0.372,0.643 0.152,0.946c-0.219,0.304 -0.642,0.372 -0.946,0.153c-0.044,-0.032 -0.084,-0.069 -0.118,-0.109c-1.011,0.298 -3.59,1.033 -4.775,1.156c-0.928,0.096 -2.146,0.09 -2.935,0.072c-3.592,1.647 -6.154,2.472 -7.448,2.836c-0.356,0.303 -0.696,0.438 -0.963,0.246l0,0l0,0l0,0c-1.01,-0.73 2.254,-4.238 2.254,-4.238l1.186,-2.285c-0.025,0.014 -0.05,0.028 -0.075,0.042l0,0c-0.351,0.196 -0.696,0.383 -1.035,0.558l-0.015,0.008l-0.002,0.001l-0.002,0.001l-0.004,0.002l-0.014,0.007l-0.007,0.004l-0.001,0.001l-0.002,0.001c-2.695,1.391 -3.955,1.857 -6.009,1.588c-2.128,-0.279 -6.222,-3.914 -6.762,-3.262c-0.858,1.036 2.349,3.799 1.354,7.341c0,0 0.072,1.617 0.46,2.275c0.388,0.657 0.17,3.197 -1.814,1.763l0,0l0,0c0,0 -0.281,-0.711 -1.031,-1.598l0,0.001c-0.178,-0.21 -0.381,-0.429 -0.614,-0.651l0,-0.001c-0.521,-0.498 -1.186,-1.009 -2.023,-1.454l0,0.001c-0.104,-0.055 -0.21,-0.109 -0.318,-0.162c-0.018,-0.009 -0.036,-0.017 -0.054,-0.026c-0.08,-0.039 -0.16,-0.078 -0.24,-0.118l-0.004,-0.002l-0.004,-0.002l-0.002,-0.002l-0.001,0c-0.065,-0.033 -0.129,-0.067 -0.193,-0.101c-0.426,-0.1 -0.853,-0.212 -1.225,-0.331c-1.02,-0.326 -3.039,-1.365 -4.113,-1.934c-0.224,0.128 -0.51,0.121 -0.732,-0.039c-0.304,-0.22 -0.372,-0.643 -0.153,-0.947c0.22,-0.303 0.643,-0.371 0.947,-0.152c0.194,0.14 0.291,0.364 0.279,0.587c0.265,0.107 0.594,0.234 0.987,0.38c0.353,0.13 0.672,0.228 0.946,0.299l-0.022,-0.018l-0.024,-0.019l0,0c-0.378,-0.304 -0.748,-0.601 -1.117,-0.878l0,0c-0.889,-0.668 -1.778,-1.22 -2.794,-1.471c0,0 0.001,-0.003 0.003,-0.009c-0.221,0.118 -0.5,0.109 -0.717,-0.048c-0.303,-0.22 -0.371,-0.643 -0.152,-0.946c0.219,-0.304 0.643,-0.372 0.946,-0.153c0.119,0.086 0.202,0.203 0.245,0.332c0.928,0.368 3.112,1.287 3.719,2.021c0,0 -1.503,-2.316 -4.577,-3.053c-0.232,0.224 -0.597,0.257 -0.868,0.062c-0.303,-0.22 -0.371,-0.643 -0.152,-0.947c0.22,-0.303 0.643,-0.371 0.946,-0.152c0.153,0.11 0.246,0.271 0.273,0.443c0.852,0.172 3.458,0.87 5.859,3.314c0,0 -2.835,-3.019 -4.205,-3.362c0,0 0.001,-0.007 0.004,-0.02c-0.124,-0.007 -0.248,-0.049 -0.356,-0.127c-0.304,-0.219 -0.372,-0.643 -0.153,-0.946c0.22,-0.304 0.643,-0.372 0.947,-0.153c0.264,0.192 0.35,0.538 0.222,0.825c0.796,0.415 2.966,1.914 4.079,3.039c0,0 -0.153,-1.242 -0.659,-2.191c-0.068,-0.021 -0.134,-0.054 -0.195,-0.098c-0.303,-0.219 -0.372,-0.643 -0.152,-0.946c0.219,-0.304 0.642,-0.372 0.946,-0.153c0.303,0.22 0.371,0.643 0.152,0.947c-0.036,0.049 -0.077,0.093 -0.123,0.13c0.146,0.366 0.603,1.515 0.96,2.443c0,0 0.203,0.429 0.499,0.992c0.093,0.165 0.194,0.342 0.301,0.523c-0.008,-0.003 -0.015,-0.006 -0.023,-0.008c0.335,0.603 0.73,1.253 1.081,1.67c0.601,0.713 2.068,2.348 2.793,3.152l0,0c0.453,-1.075 -0.318,-2.172 -0.71,-3.049c-0.334,-0.748 -0.448,-1.692 -2.038,-3.28c-0.262,-0.261 -0.559,-3.2 -3.121,-4.35c-0.886,-0.398 -1.034,-1.34 -1.077,-1.577c-0.164,-0.923 5.124,-0.204 7.82,-1.51c0.053,-0.026 0.108,-0.052 0.164,-0.077c0.012,-0.006 0.606,-0.626 0.962,-0.995c-0.214,-0.814 -2.466,-1.77 -2.542,-4.4c-3.609,0.105 -4.183,-2.895 -5.327,-3.027c-1.244,-0.144 -4.19,-1.518 -4.503,-1.905c-0.002,-0.003 -0.004,-0.006 -0.006,-0.008c-0.098,-0.017 -0.194,-0.056 -0.28,-0.119c-0.303,-0.219 -0.372,-0.643 -0.153,-0.946c0.22,-0.303 0.643,-0.371 0.947,-0.152c0.226,0.163 0.322,0.441 0.264,0.697c1.347,0.832 3.46,0.942 3.46,0.942c-2.805,-2.23 -3.083,-3.493 -3.011,-4.015c-0.026,-0.014 -0.052,-0.03 -0.076,-0.048c-0.304,-0.219 -0.372,-0.643 -0.153,-0.946c0.22,-0.304 0.643,-0.372 0.947,-0.152c0.303,0.219 0.371,0.642 0.152,0.945c-0.045,0.063 -0.099,0.115 -0.158,0.157c0.141,1.706 2.973,2.905 3.092,2.96c-1.324,-1.948 -1.139,-3.579 -0.947,-4.309c-0.136,-0.226 -0.133,-0.521 0.031,-0.748c0.219,-0.303 0.643,-0.371 0.946,-0.152c0.304,0.219 0.372,0.643 0.153,0.946c-0.09,0.123 -0.213,0.208 -0.348,0.25c-0.089,0.426 -0.208,1.657 0.944,3.012c0.86,1.011 2.831,-0.541 3.246,-0.88c0.021,-0.072 0.055,-0.143 0.102,-0.207c0.219,-0.304 0.643,-0.372 0.946,-0.153c0.303,0.22 0.372,0.643 0.152,0.947c-0.139,0.193 -0.361,0.29 -0.583,0.28c-0.348,0.123 -2.532,0.673 -2.043,2.569c0.519,2.009 2.336,1.274 2.726,1.089c0.382,-0.955 0.99,-1.908 1.884,-2.839c-0.929,-2.81 -1.057,-5.106 -0.263,-6.874c-0.262,-0.299 -0.422,-0.703 -0.422,-1.148c0,-0.921 0.687,-1.668 1.533,-1.668c0.26,0 0.504,0.07 0.718,0.194Zm-1.428,19.708c0.001,0.004 0.002,0.008 0.003,0.012l-0.965,0.983c0.025,-0.011 2.692,-2.811 0.074,-0.037l0.002,0.001c0.742,-0.351 0.963,-0.64 0.889,-0.947l-0.003,-0.012Zm-7.347,-10.017l0.001,0.001c0.004,0.001 0.004,0.001 -0.001,-0.001Z" style="fill:#171714;fill-rule:nonzero;"/></g></g></g></svg>