<?xml version="1.0" encoding="UTF-8" standalone="no"?><!DOCTYPE svg PUBLIC "-//W3C//DTD SVG 1.1//EN" "http://www.w3.org/Graphics/SVG/1.1/DTD/svg11.dtd"><svg width="100%" height="100%" viewBox="0 0 64 64" version="1.1" xmlns="http://www.w3.org/2000/svg" xmlns:xlink="http://www.w3.org/1999/xlink" xml:space="preserve" xmlns:serif="http://www.serif.com/" style="fill-rule:evenodd;clip-rule:evenodd;stroke-miterlimit:10;"><g id="Species"><g id="Amphibians"><g id="frog2"><path id="Outline" d="M61.409,32.047c0,-16.178 -13.135,-29.313 -29.313,-29.313c-16.179,0 -29.314,13.135 -29.314,29.313c0,16.178 13.135,29.313 29.314,29.313c16.178,0 29.313,-13.135 29.313,-29.313Z" style="fill:none;stroke:#000;stroke-width:3px;"/><path d="M27.185,13.71c0.051,-0.011 0.103,-0.02 0.154,-0.025c0.604,-0.625 1.119,-1.082 1.345,-1.367c0.898,-1.131 2.091,-0.43 2.091,-0.43c0.47,0.582 2.109,2.009 2.109,2.009c0.143,0.098 0.279,0.198 0.407,0.299c0.029,-0.021 0.059,-0.042 0.09,-0.061c0.565,-0.343 1.35,-0.095 1.811,0.55c0.027,0.038 0.053,0.078 0.078,0.119c0.05,0.081 0.092,0.164 0.128,0.249l0.005,0.012c0.267,0.648 0.129,1.352 -0.358,1.689c0.508,1.873 0.738,3.747 0.277,4.635c0.849,0.563 1.737,1.422 2.523,2.73c0.642,0.104 1.414,-0.06 1.824,-1.209c0.548,-1.539 -1.318,-2.561 -1.758,-2.742c-0.238,0.007 -0.472,-0.112 -0.602,-0.331c-0.192,-0.322 -0.086,-0.738 0.236,-0.929c0.322,-0.192 0.738,-0.086 0.929,0.236c0.044,0.075 0.073,0.156 0.086,0.237c0.381,0.429 2.098,2.18 3.151,1.145c1.457,-1.43 1.236,-2.952 1.195,-3.17c-0.119,-0.055 -0.224,-0.146 -0.297,-0.269c-0.191,-0.321 -0.085,-0.737 0.236,-0.928c0.322,-0.192 0.738,-0.086 0.929,0.236c0.151,0.254 0.117,0.566 -0.062,0.78c0.136,0.716 0.254,2.502 -1.312,4.414c-0.015,0.006 -0.017,0.007 -0.004,0.005l0.004,-0.005c0.208,-0.076 2.895,-0.881 3.132,-2.394c-0.049,-0.044 -0.092,-0.096 -0.127,-0.156c-0.192,-0.321 -0.086,-0.737 0.236,-0.929c0.322,-0.191 0.737,-0.085 0.929,0.237c0.191,0.321 0.085,0.737 -0.237,0.929c-0.034,0.02 -0.07,0.037 -0.106,0.051c0.061,0.479 -0.061,1.407 -3.138,3.432c0,0 2.298,0.086 3.707,-0.724c0.048,-0.152 0.151,-0.288 0.299,-0.376c0.322,-0.191 0.738,-0.085 0.929,0.237c0.191,0.321 0.085,0.737 -0.236,0.928c-0.201,0.119 -0.437,0.123 -0.634,0.032c-0.765,0.441 -3.344,1.335 -4.469,1.364c-0.913,0.023 -1.63,1.877 -3.679,2.428c0.243,0.699 0.459,1.476 0.642,2.338c0,0 0.695,1.843 -1.332,5.208c0.137,-0.039 0.292,-0.084 0.459,-0.134l0,0c0.307,-0.092 0.659,-0.201 1.039,-0.326l0,0.001c0.408,-0.135 0.848,-0.287 1.296,-0.454c0.16,-0.064 0.321,-0.13 0.482,-0.197c0.003,0.002 0.006,0.005 0.009,0.008c1.038,-0.411 2.079,-0.899 2.848,-1.435l0,-0.001c0.284,-0.198 0.533,-0.403 0.729,-0.613c0.047,-0.05 0.09,-0.1 0.131,-0.15c0,0 2.558,-0.74 1.775,1.687c-0.096,0.296 -0.417,0.713 -0.905,1.208c-1.363,2.187 -4.18,5.907 -8.999,9.474c0,0 -0.338,0.65 -0.807,1.376c1.75,-0.789 3.006,-1.625 3.833,-2.275l0,0c0.261,-0.205 0.48,-0.392 0.657,-0.552c0.415,-0.375 0.61,-0.608 0.61,-0.608c3.218,-2.961 4.016,-3.841 4.016,-3.841l0.073,0.003c-0.2,-0.233 -0.223,-0.58 -0.035,-0.839c0.219,-0.303 0.643,-0.371 0.946,-0.152c0.303,0.219 0.372,0.643 0.152,0.946c-0.17,0.235 -0.462,0.329 -0.726,0.257c-0.334,0.636 -1.872,2.181 -1.872,2.181c1.729,-0.338 4.625,-3.232 4.916,-3.526c-0.11,-0.219 -0.098,-0.491 0.056,-0.703c0.219,-0.304 0.643,-0.371 0.946,-0.152c0.303,0.219 0.372,0.643 0.152,0.946c-0.185,0.256 -0.515,0.345 -0.797,0.234c-0.676,1.134 -3.79,3.463 -3.79,3.463c1.638,-0.149 5.886,-3.158 6.593,-3.666c-0.069,-0.202 -0.043,-0.433 0.092,-0.619c0.219,-0.304 0.642,-0.372 0.946,-0.152c0.303,0.219 0.371,0.642 0.152,0.946c-0.205,0.283 -0.588,0.361 -0.885,0.191c-0.686,1.138 -5.687,4.014 -5.687,4.014c0.814,0.346 3.856,-1.43 4.474,-1.799c-0.043,-0.185 -0.009,-0.386 0.111,-0.552c0.219,-0.304 0.642,-0.372 0.946,-0.152c0.303,0.219 0.371,0.642 0.152,0.946c-0.219,0.303 -0.643,0.371 -0.946,0.152c-0.005,-0.003 -0.01,-0.007 -0.014,-0.01c-1.035,1.1 -2.765,1.991 -4.414,2.651c0.361,0.007 0.905,-0.008 1.578,-0.11c0.661,-0.099 1.154,-0.185 1.473,-0.254c0.02,-0.087 0.057,-0.171 0.112,-0.247c0.22,-0.304 0.643,-0.372 0.947,-0.152c0.303,0.219 0.371,0.642 0.152,0.946c-0.22,0.303 -0.643,0.371 -0.946,0.152c-0.045,-0.032 -0.084,-0.069 -0.118,-0.108c-1.011,0.297 -3.591,1.032 -4.776,1.155c-0.928,0.096 -2.146,0.09 -2.934,0.072c-3.592,1.647 -6.154,2.472 -7.449,2.836c-0.356,0.303 -0.696,0.438 -0.962,0.246l0,0l0,0l0,0c-1.01,-0.73 2.253,-4.238 2.253,-4.238l1.186,-2.285c-0.025,0.014 -0.05,0.028 -0.075,0.042l0,0c-0.35,0.196 -0.696,0.383 -1.034,0.558l-0.015,0.008l-0.003,0.001l-0.001,0.001l-0.005,0.002l-0.013,0.008l-0.007,0.003l-0.002,0.001l-0.002,0.001c-2.695,1.392 -3.954,1.858 -6.008,1.589c-2.129,-0.279 -6.223,-3.915 -6.763,-3.262c-0.857,1.035 2.35,3.798 1.354,7.34c0,0 0.073,1.617 0.46,2.275c0.388,0.658 0.17,3.198 -1.814,1.764l0,0l0,0c0,0 -0.281,-0.712 -1.031,-1.598l0,0.001c-0.177,-0.21 -0.381,-0.429 -0.613,-0.652l-0.001,-0.001c-0.52,-0.497 -1.185,-1.008 -2.023,-1.453l0,0.001c-0.104,-0.055 -0.209,-0.11 -0.318,-0.163c-0.018,-0.009 -0.035,-0.017 -0.053,-0.026c-0.081,-0.038 -0.161,-0.078 -0.24,-0.118l-0.004,-0.002l-0.004,-0.002l-0.003,-0.001l-0.001,-0.001c-0.064,-0.033 -0.129,-0.066 -0.192,-0.1c-0.427,-0.101 -0.853,-0.213 -1.226,-0.332c-1.02,-0.325 -3.039,-1.365 -4.113,-1.933c-0.223,0.127 -0.51,0.121 -0.732,-0.04c-0.303,-0.219 -0.372,-0.643 -0.152,-0.946c0.219,-0.304 0.643,-0.372 0.946,-0.153c0.194,0.141 0.292,0.364 0.28,0.587c0.264,0.107 0.594,0.234 0.986,0.38c0.353,0.131 0.672,0.228 0.947,0.3l-0.023,-0.019l-0.024,-0.019l0,0c-0.378,-0.303 -0.748,-0.6 -1.117,-0.878l0,0c-0.889,-0.668 -1.777,-1.22 -2.794,-1.471c0,0 0.001,-0.003 0.003,-0.009c-0.221,0.119 -0.499,0.109 -0.717,-0.048c-0.303,-0.219 -0.371,-0.643 -0.152,-0.946c0.22,-0.304 0.643,-0.372 0.947,-0.153c0.118,0.086 0.201,0.203 0.245,0.332c0.927,0.368 3.111,1.287 3.718,2.021c0,0 -1.502,-2.316 -4.577,-3.052c-0.231,0.223 -0.597,0.256 -0.867,0.061c-0.303,-0.219 -0.372,-0.643 -0.152,-0.946c0.219,-0.304 0.643,-0.372 0.946,-0.153c0.152,0.11 0.245,0.272 0.272,0.444c0.853,0.171 3.459,0.869 5.859,3.314c0,0 -2.834,-3.02 -4.205,-3.363c0,0 0.002,-0.007 0.005,-0.02c-0.125,-0.007 -0.249,-0.048 -0.357,-0.127c-0.303,-0.219 -0.372,-0.643 -0.152,-0.946c0.219,-0.304 0.642,-0.371 0.946,-0.152c0.265,0.191 0.35,0.537 0.222,0.824c0.797,0.415 2.966,1.914 4.079,3.039c0,0 -0.153,-1.241 -0.658,-2.191c-0.069,-0.021 -0.135,-0.054 -0.196,-0.098c-0.303,-0.219 -0.371,-0.643 -0.152,-0.946c0.219,-0.304 0.643,-0.372 0.946,-0.152c0.304,0.219 0.372,0.643 0.152,0.946c-0.036,0.05 -0.077,0.093 -0.123,0.13c0.147,0.367 0.604,1.515 0.96,2.444c0,0 0.203,0.429 0.499,0.991c0.093,0.166 0.194,0.343 0.301,0.523c-0.008,-0.003 -0.015,-0.005 -0.023,-0.008c0.335,0.603 0.73,1.253 1.081,1.671c0.601,0.713 2.069,2.347 2.793,3.151l0.001,0c0.453,-1.075 -0.319,-2.172 -0.71,-3.048c-0.335,-0.748 -0.448,-1.693 -2.038,-3.28c-0.262,-0.262 -0.56,-3.201 -3.121,-4.351c-0.887,-0.397 -1.035,-1.34 -1.077,-1.577c-0.165,-0.923 5.123,-0.204 7.819,-1.51c0.054,-0.026 0.109,-0.052 0.165,-0.077c0.011,-0.005 0.606,-0.625 0.962,-0.995c-0.214,-0.814 -2.466,-1.769 -2.543,-4.4c-3.609,0.105 -4.183,-2.894 -5.326,-3.027c-1.245,-0.144 -4.19,-1.517 -4.503,-1.905c-0.002,-0.003 -0.004,-0.005 -0.006,-0.008c-0.099,-0.017 -0.195,-0.056 -0.281,-0.118c-0.303,-0.22 -0.371,-0.643 -0.152,-0.947c0.219,-0.303 0.643,-0.371 0.946,-0.152c0.227,0.164 0.322,0.441 0.265,0.697c1.346,0.832 3.459,0.942 3.459,0.942c-2.805,-2.23 -3.082,-3.493 -3.01,-4.015c-0.027,-0.014 -0.052,-0.03 -0.077,-0.048c-0.303,-0.219 -0.371,-0.643 -0.152,-0.946c0.219,-0.303 0.643,-0.372 0.946,-0.152c0.304,0.219 0.372,0.643 0.152,0.946c-0.045,0.062 -0.098,0.115 -0.158,0.157c0.142,1.706 2.974,2.904 3.093,2.959c-1.325,-1.947 -1.139,-3.579 -0.947,-4.309c-0.137,-0.226 -0.134,-0.52 0.031,-0.748c0.219,-0.303 0.643,-0.371 0.946,-0.152c0.303,0.219 0.371,0.643 0.152,0.946c-0.089,0.124 -0.212,0.208 -0.347,0.25c-0.09,0.426 -0.209,1.657 0.943,3.012c0.861,1.011 2.831,-0.541 3.247,-0.88c0.021,-0.072 0.054,-0.142 0.101,-0.207c0.219,-0.303 0.643,-0.372 0.946,-0.152c0.304,0.219 0.372,0.643 0.153,0.946c-0.14,0.193 -0.362,0.291 -0.583,0.28c-0.348,0.123 -2.532,0.674 -2.043,2.57c0.519,2.009 2.336,1.273 2.726,1.089c0.381,-0.956 0.99,-1.909 1.883,-2.84c-0.929,-2.81 -1.057,-5.106 -0.263,-6.874c-0.261,-0.299 -0.422,-0.703 -0.422,-1.148c0,-0.92 0.687,-1.668 1.534,-1.668c0.259,0 0.503,0.07 0.718,0.194Zm-1.428,19.708c0.001,0.004 0.002,0.008 0.003,0.012l-0.965,0.983c0.024,-0.011 2.691,-2.811 0.074,-0.036l0.002,0.001c0.741,-0.352 0.962,-0.64 0.889,-0.948l-0.003,-0.012Zm-7.347,-10.017l0,0.001c0.005,0.002 0.004,0.001 0,-0.001Z" style="fill:#171714;fill-rule:nonzero;"/></g></g></g></svg>