<?xml version="1.0" encoding="UTF-8" standalone="no"?><!DOCTYPE svg PUBLIC "-//W3C//DTD SVG 1.1//EN" "http://www.w3.org/Graphics/SVG/1.1/DTD/svg11.dtd"><svg width="100%" height="100%" viewBox="0 0 64 64" version="1.1" xmlns="http://www.w3.org/2000/svg" xmlns:xlink="http://www.w3.org/1999/xlink" xml:space="preserve" xmlns:serif="http://www.serif.com/" style="fill-rule:evenodd;clip-rule:evenodd;stroke-miterlimit:10;"><g id="Species"><g id="frog"><path id="Outline" d="M61.409,32.062c0,-16.178 -13.135,-29.313 -29.313,-29.313c-16.179,0 -29.314,13.135 -29.314,29.313c0,16.179 13.135,29.314 29.314,29.314c16.178,0 29.313,-13.135 29.313,-29.314Z" style="fill:none;stroke:#000;stroke-width:3px;"/><path d="M29.393,8.07c-0.061,0.011 -0.124,0.014 -0.189,0.007c-0.35,-0.038 -0.602,-0.353 -0.564,-0.703c0.039,-0.35 0.354,-0.602 0.704,-0.564c0.349,0.039 0.601,0.354 0.563,0.703c-0.004,0.038 -0.011,0.074 -0.022,0.109c0.395,0.226 1.022,0.842 0.802,4.299c0,0 1.364,-1.678 1.554,-3.193c-0.087,-0.123 -0.131,-0.277 -0.113,-0.438c0.038,-0.35 0.353,-0.602 0.703,-0.563c0.349,0.038 0.601,0.353 0.563,0.703c-0.024,0.217 -0.155,0.397 -0.335,0.493c-0.101,0.825 -0.89,3.266 -1.504,4.127c-0.499,0.699 0.486,2.286 -0.259,4.135c0.662,0.214 1.368,0.491 2.118,0.842c0,0 1.777,0.521 3.156,3.946c0.049,-0.125 0.102,-0.266 0.16,-0.42l-0.001,0c0.105,-0.282 0.222,-0.608 0.344,-0.964l0,0c0.13,-0.382 0.265,-0.798 0.393,-1.23c0.042,-0.156 0.084,-0.314 0.125,-0.473c0.003,-0.001 0.007,-0.002 0.011,-0.003c0.279,-1.011 0.501,-2.069 0.534,-2.949l-0.001,-0.001c0.012,-0.326 -0.001,-0.628 -0.047,-0.894c-0.011,-0.063 -0.024,-0.124 -0.039,-0.183c0,0 0.892,-2.339 2.271,-0.378c0.168,0.239 0.299,0.716 0.395,1.363c0.871,2.261 2.069,6.481 2.02,12.116c0,0 0.297,0.622 0.577,1.385c0.397,-1.761 0.48,-3.177 0.46,-4.165l0,0c-0.006,-0.312 -0.022,-0.582 -0.042,-0.806c-0.046,-0.524 -0.112,-0.802 -0.112,-0.802c-0.402,-4.091 -0.611,-5.188 -0.611,-5.188l0.043,-0.053c-0.287,0.019 -0.56,-0.161 -0.649,-0.448c-0.103,-0.337 0.085,-0.693 0.421,-0.797c0.336,-0.103 0.693,0.085 0.797,0.421c0.08,0.261 -0.015,0.533 -0.218,0.691c0.288,0.611 0.578,2.639 0.578,2.639c0.724,-1.489 0.19,-5.3 0.134,-5.686c-0.227,-0.041 -0.423,-0.204 -0.496,-0.439c-0.104,-0.336 0.085,-0.693 0.421,-0.797c0.336,-0.103 0.693,0.085 0.797,0.422c0.087,0.283 -0.033,0.582 -0.275,0.73c0.468,1.149 0.455,4.805 0.455,4.805c0.815,-1.314 0.959,-6.206 0.978,-7.024c-0.191,-0.062 -0.35,-0.212 -0.413,-0.419c-0.104,-0.336 0.085,-0.693 0.421,-0.796c0.336,-0.104 0.693,0.085 0.796,0.421c0.097,0.314 -0.061,0.646 -0.357,0.773c0.466,1.158 -0.205,6.54 -0.205,6.54c0.721,-0.415 1.109,-3.703 1.182,-4.377c-0.163,-0.072 -0.296,-0.211 -0.352,-0.395c-0.104,-0.336 0.085,-0.693 0.421,-0.797c0.336,-0.103 0.693,0.085 0.796,0.422c0.104,0.336 -0.084,0.692 -0.421,0.796c-0.005,0.002 -0.01,0.003 -0.015,0.005c0.24,1.4 -0.07,3.202 -0.508,4.813c0.21,-0.266 0.506,-0.683 0.811,-1.246c0.299,-0.552 0.514,-0.971 0.643,-1.25c-0.054,-0.064 -0.096,-0.139 -0.122,-0.224c-0.104,-0.336 0.084,-0.693 0.421,-0.797c0.336,-0.103 0.693,0.085 0.796,0.421c0.104,0.337 -0.084,0.693 -0.421,0.797c-0.049,0.015 -0.099,0.024 -0.148,0.027c-0.349,0.927 -1.257,3.28 -1.835,4.239c-0.453,0.751 -1.146,1.662 -1.606,2.244c-0.796,3.628 -1.626,6.018 -2.085,7.196c0.026,0.439 -0.065,0.771 -0.36,0.862l-0.001,0l0,0l0,0c-1.119,0.345 -1.906,-4.09 -1.906,-4.09l-1.044,-2.183c-0.004,0.027 -0.007,0.053 -0.011,0.08l0,0c-0.051,0.374 -0.107,0.739 -0.166,1.092l-0.003,0.016l0,0.003l-0.001,0.001l0,0.005l-0.003,0.014l-0.001,0.008l0,0.001l-0.001,0.002c-0.48,2.811 -1.233,4.839 -2.234,4.359c-0.006,0.016 -0.013,0.032 -0.02,0.047l-0.001,0c-0.049,0.104 -0.119,0.19 -0.216,0.245c0.003,0.022 0.898,6.977 -1.96,11.637c0,0 -1.238,1.844 2.776,2.585c0,0 2.841,1.403 4.937,4.155c0,0 1.255,0.86 1.968,0.942c0.713,0.081 2.497,1.681 0.298,2.359l0,0l0,0c0,0 -0.693,-0.191 -1.783,-0.13l0.001,0.001c-0.258,0.014 -0.538,0.043 -0.837,0.092l-0.001,-0.001c-0.668,0.11 -1.428,0.32 -2.236,0.697l0.001,0c-0.1,0.047 -0.201,0.096 -0.302,0.147c-0.016,0.009 -0.033,0.017 -0.049,0.026c-0.075,0.038 -0.15,0.076 -0.225,0.113l-0.004,0.002l-0.004,0.002l-0.002,0.001l-0.001,0c-0.061,0.03 -0.123,0.059 -0.184,0.088c-0.317,0.263 -0.642,0.52 -0.943,0.733c-0.821,0.581 -2.744,1.509 -3.778,1.993c-0.031,0.24 -0.198,0.451 -0.444,0.527c-0.337,0.104 -0.693,-0.084 -0.797,-0.421c-0.104,-0.336 0.085,-0.693 0.421,-0.796c0.215,-0.067 0.438,-0.013 0.599,0.121c0.23,-0.138 0.512,-0.313 0.843,-0.525c0.298,-0.191 0.551,-0.375 0.761,-0.541l-0.027,0.007l-0.027,0.007l0,0c-0.443,0.112 -0.875,0.221 -1.292,0.342l0,-0.001c-1.004,0.29 -1.921,0.645 -2.685,1.266c0,0 -0.002,-0.003 -0.005,-0.008c-0.036,0.233 -0.201,0.437 -0.442,0.511c-0.336,0.104 -0.693,-0.085 -0.796,-0.421c-0.104,-0.336 0.084,-0.693 0.421,-0.797c0.131,-0.04 0.266,-0.036 0.388,0.004c0.8,-0.488 2.726,-1.608 3.621,-1.648c0,0 -2.589,-0.182 -4.882,1.709c0.037,0.3 -0.145,0.593 -0.445,0.686c-0.336,0.103 -0.692,-0.085 -0.796,-0.421c-0.104,-0.337 0.085,-0.693 0.421,-0.797c0.169,-0.052 0.343,-0.03 0.487,0.046c0.611,-0.543 2.61,-2.104 5.803,-2.523c0,0 -3.871,0.419 -4.904,1.254c0,0 -0.004,-0.005 -0.012,-0.014c-0.076,0.089 -0.177,0.159 -0.297,0.196c-0.336,0.103 -0.693,-0.085 -0.797,-0.422c-0.104,-0.336 0.085,-0.692 0.421,-0.796c0.294,-0.091 0.602,0.041 0.745,0.299c0.762,-0.363 3.115,-1.143 4.59,-1.342c0,0 -1.019,-0.588 -2.018,-0.745c-0.054,0.039 -0.116,0.07 -0.184,0.091c-0.336,0.103 -0.693,-0.085 -0.797,-0.421c-0.103,-0.337 0.085,-0.693 0.422,-0.797c0.336,-0.104 0.692,0.085 0.796,0.421c0.017,0.056 0.026,0.111 0.028,0.166c0.358,0.098 1.479,0.405 2.378,0.662c0,0 0.436,0.091 1.026,0.187c0.177,0.024 0.367,0.048 0.563,0.07c-0.006,0.004 -0.013,0.008 -0.019,0.012c0.643,0.09 1.354,0.162 1.866,0.134c0.875,-0.048 2.933,-0.224 3.947,-0.313l-0.001,-0.001c-0.55,-0.948 -1.81,-0.99 -2.69,-1.192c-0.879,-0.202 -4.256,-1.526 -5.81,-3.498c0,0 -0.526,-0.311 -1.067,-0.532c-0.531,-0.216 -2.305,-0.71 -1.76,-3.473c0.011,-0.055 0.022,-0.11 0.035,-0.167c0.006,-0.025 0.01,-0.051 0.015,-0.076l0.002,-0.001c0.569,-2.766 -0.9,-8.105 0.421,-10.922c-2.575,0.096 -6.592,0.112 -9.382,-1.867c-1.963,2.769 -4.54,1.503 -5.287,2.286c-0.812,0.853 -3.51,2.287 -3.978,2.303c-0.003,0 -0.006,0 -0.009,0c-0.069,0.064 -0.152,0.114 -0.248,0.143c-0.336,0.104 -0.692,-0.084 -0.796,-0.421c-0.104,-0.336 0.085,-0.693 0.421,-0.796c0.251,-0.078 0.513,0.008 0.673,0.196c1.386,-0.541 2.665,-2.064 2.665,-2.064c-3.261,0.844 -4.367,0.337 -4.718,-0.012c-0.025,0.012 -0.052,0.022 -0.079,0.03c-0.337,0.104 -0.693,-0.085 -0.797,-0.421c-0.104,-0.336 0.085,-0.693 0.421,-0.796c0.337,-0.104 0.693,0.084 0.797,0.421c0.021,0.069 0.03,0.139 0.028,0.207c1.361,0.859 3.863,-0.589 3.971,-0.647c-2.211,-0.108 -3.331,-1.17 -3.77,-1.727c-0.247,-0.026 -0.466,-0.195 -0.544,-0.446c-0.104,-0.337 0.085,-0.693 0.421,-0.797c0.336,-0.104 0.693,0.085 0.796,0.421c0.042,0.137 0.036,0.277 -0.009,0.402c0.27,0.309 1.127,1.094 2.795,0.996c1.247,-0.074 1.196,-2.431 1.177,-2.935c-0.043,-0.057 -0.076,-0.122 -0.098,-0.193c-0.104,-0.337 0.084,-0.693 0.421,-0.797c0.336,-0.104 0.693,0.085 0.796,0.421c0.066,0.214 0.014,0.436 -0.119,0.596c-0.105,0.331 -0.927,2.282 0.773,2.988c1.802,0.747 2.277,-1.033 2.36,-1.43c-0.502,-0.828 -0.873,-1.823 -1.067,-3.021c-3.083,-1.044 -4.452,-3.265 -5.111,-5.293c-0.134,-0.093 -0.257,-0.213 -0.361,-0.356l0,0l0,0c-0.002,-0.002 -0.003,-0.003 -0.004,-0.005l0,-0.001l-0.001,-0.001l-0.001,0l-0.001,-0.002l-0.002,-0.002l-0.002,-0.003l0,0l0,0c-0.08,-0.112 -0.148,-0.238 -0.201,-0.374l0,-0.001l0,-0.001l-0.001,-0.001l-0.001,-0.002c-0.015,-0.038 -0.028,-0.078 -0.041,-0.119c-0.007,-0.022 -0.013,-0.044 -0.019,-0.067c-0.009,-0.034 -0.018,-0.069 -0.025,-0.103l0,-0.001l0,0l0,-0.001l0,-0.001c-0.082,-0.403 -0.016,-0.798 0.163,-1.096c-0.127,-0.807 -0.179,-1.452 -0.264,-1.783c-0.341,-1.314 0.86,-1.814 0.86,-1.814c0.702,-0.022 2.701,-0.445 2.701,-0.445c0.155,-0.053 0.307,-0.098 0.455,-0.137c0,-0.034 0.002,-0.068 0.005,-0.102c0.062,-0.618 0.692,-1.068 1.437,-1.049c0.045,0.002 0.089,0.004 0.134,0.009c0.089,0.009 0.176,0.024 0.259,0.045l0.012,0.003c0.638,0.166 1.088,0.669 1.066,1.225c1.693,0.678 2.665,2.316 3.07,3.164c0.903,-0.317 2.051,-0.498 3.477,-0.349c0.442,-0.423 0.756,-1.095 0.124,-2.053c-0.845,-1.282 -2.668,-0.46 -3.052,-0.232c-0.13,0.183 -0.352,0.291 -0.59,0.265c-0.35,-0.038 -0.602,-0.353 -0.564,-0.703c0.039,-0.35 0.353,-0.602 0.703,-0.563c0.082,0.009 0.158,0.033 0.227,0.069c0.538,-0.043 2.823,-0.341 2.643,-1.717c-0.25,-1.904 -1.517,-2.599 -1.704,-2.692c-0.11,0.059 -0.237,0.086 -0.37,0.071c-0.35,-0.038 -0.602,-0.353 -0.564,-0.702c0.039,-0.35 0.354,-0.603 0.704,-0.564c0.275,0.03 0.49,0.232 0.55,0.488c0.615,0.303 2.022,1.224 2.572,3.482c-0.005,0.015 -0.005,0.017 0.001,0.006l-0.001,-0.006c0.06,-0.199 0.976,-2.671 -0.026,-3.705Zm-12.189,22.741l0.001,0c0.004,-0.002 0.004,-0.002 -0.001,0Z" style="fill:#171714;fill-rule:nonzero;"/></g></g></svg>