<?xml version="1.0" encoding="UTF-8" standalone="no"?><!DOCTYPE svg PUBLIC "-//W3C//DTD SVG 1.1//EN" "http://www.w3.org/Graphics/SVG/1.1/DTD/svg11.dtd"><svg width="100%" height="100%" viewBox="0 0 64 64" version="1.1" xmlns="http://www.w3.org/2000/svg" xmlns:xlink="http://www.w3.org/1999/xlink" xml:space="preserve" xmlns:serif="http://www.serif.com/" style="fill-rule:evenodd;clip-rule:evenodd;stroke-miterlimit:10;"><g id="Species"><g id="Mammals"><g id="bat"><path id="Outline" d="M61.126,31.687c0,-16.179 -13.135,-29.313 -29.313,-29.313c-16.178,0 -29.313,13.134 -29.313,29.313c0,16.178 13.135,29.313 29.313,29.313c16.178,0 29.313,-13.135 29.313,-29.313Z" style="fill:none;stroke:#000;stroke-width:3px;"/><path d="M53.881,46.889c-0.052,-0.902 -2.315,-4.902 -2.315,-4.902c-0.102,-0.55 -4.915,-9.578 -4.915,-9.578c1.846,-0.987 1.164,-0.932 1.164,-0.932l-1.848,0.236c-0.599,-0.769 -0.997,0.033 -0.997,0.033c-0.302,0.325 -4.791,3.009 -5.57,3.474c-0.038,0.066 -0.078,0.097 -0.114,0.068c0,0 0.041,-0.024 0.114,-0.068c0.145,-0.247 0.284,-0.984 0.284,-0.984c-0.774,0.067 -0.063,-0.243 -0.063,-0.243l0.053,-0.57c0.677,-0.086 0.995,-1.285 0.995,-1.285c0.016,-1.098 -2.148,-0.634 -2.148,-0.634c-0.637,-0.827 -3.478,-1.748 -3.478,-1.748c-0.37,-1.925 -0.566,-0.022 -0.566,-0.022c-0.392,0.613 -0.198,1.152 -0.198,1.152c-0.77,-0.152 -1.862,0.864 -1.862,0.864c-1.829,-1.332 -1.513,-2.781 -1.513,-2.781c-0.129,-0.766 0.049,-6.737 0.049,-6.737c0.385,-0.174 0.119,-1.768 0.119,-1.768c1.205,-2.095 -0.459,-0.411 -0.459,-0.411c-0.485,0.124 -0.509,-0.061 -0.509,-0.061c-0.078,-0.365 -4.364,-3.294 -4.364,-3.294c-3.666,-2.976 -7.4,-5.004 -7.4,-5.004c-0.059,-0.462 -0.359,-0.361 -0.359,-0.361c-0.167,0.021 -1.598,-0.702 -2.703,-1.276c-0.206,0.174 -0.418,0.355 -0.643,0.554c-0.012,0.011 -0.022,0.02 -0.034,0.031c0.471,1.282 0.585,2.581 0.585,2.581c-0.153,0.771 -0.032,1.225 -0.032,1.225c-0.661,0.46 0.013,0.593 0.013,0.593c0.408,0.01 1.476,1.753 1.476,1.753c3.875,4.859 4.01,8.129 4.01,8.129c0.1,1.521 -0.464,2.5 -0.464,2.5c2.123,0.199 2.788,2.713 2.788,2.713c0.295,1.089 0.647,1.639 0.647,1.639c0.858,1.08 0.525,5.349 0.525,5.349c0.161,1.263 0.088,2.9 0.088,2.9l-0.365,0.078l-0.421,-0.354c-1.441,-0.254 -0.824,0.168 -0.824,0.168c1.129,0.263 0.868,0.422 0.868,0.422c-1.914,0.212 -0.665,0.429 -0.665,0.429c-0.52,0.098 -0.269,0.347 -0.269,0.347l0.951,-0.153c-1.233,0.998 -0.299,0.607 0.147,0.398c0.018,-0.025 0.036,-0.042 0.054,-0.048l0.15,-0.05c0,0 -0.085,0.043 -0.204,0.098c-0.135,0.187 -0.272,0.839 -0.272,0.839c0.24,0.408 -0.55,1.823 -0.55,1.823c0.122,0.705 -0.067,2.169 -0.067,2.169c0.609,0.361 0.368,0.924 0.368,0.924c3.225,-0.68 3.973,-1.385 4.036,-1.45c-0.674,0.871 -0.953,1.165 -0.97,1.183l2.003,-1.225c-0.571,1.419 0.002,0.751 0.002,0.751c0.016,0.374 0.443,0.038 0.443,0.038c-0.115,0.327 0.293,0.338 0.293,0.338l0.566,-1.7l0.64,-1.365l0.316,0.022c0.191,-0.713 0.958,-0.341 0.958,-0.341c0.91,0.26 1.977,-1.191 1.977,-1.191c1.6,-0.955 1.826,-1.391 1.826,-1.391c0.836,0.175 3.395,0.6 3.395,0.6c0.508,-0.19 0.81,0.711 0.81,0.711c-0.308,1.26 0.748,-0.033 0.748,-0.033c2.14,-0.648 4.724,0.963 4.724,0.963c1.352,0.297 3.808,2.614 3.808,2.614c1.319,0.771 1.196,1.037 1.196,1.037c0.246,1.189 0.65,1.169 0.65,1.169c1.143,-0.615 2.569,-0.233 2.569,-0.233c0.406,0.041 1.817,0.59 1.86,0.607c-2.251,-1.716 -1.107,-1.329 -1.107,-1.329" style="fill:#1b1b1a;fill-rule:nonzero;"/></g></g></g></svg>