<?xml version="1.0" encoding="UTF-8" standalone="no"?><!DOCTYPE svg PUBLIC "-//W3C//DTD SVG 1.1//EN" "http://www.w3.org/Graphics/SVG/1.1/DTD/svg11.dtd"><svg width="100%" height="100%" viewBox="0 0 64 64" version="1.1" xmlns="http://www.w3.org/2000/svg" xmlns:xlink="http://www.w3.org/1999/xlink" xml:space="preserve" xmlns:serif="http://www.serif.com/" style="fill-rule:evenodd;clip-rule:evenodd;stroke-miterlimit:10;"><g id="Species"><g id="Mammals"><g id="bat"><path id="Outline" d="M61.409,32.047c0,-16.178 -13.135,-29.313 -29.313,-29.313c-16.179,0 -29.314,13.135 -29.314,29.313c0,16.178 13.135,29.313 29.314,29.313c16.178,0 29.313,-13.135 29.313,-29.313Z" style="fill:none;stroke:#000;stroke-width:3px;"/><path d="M54.163,47.249c-0.052,-0.901 -2.315,-4.902 -2.315,-4.902c-0.101,-0.55 -4.915,-9.578 -4.915,-9.578c1.846,-0.987 1.165,-0.931 1.165,-0.931l-1.848,0.235c-0.599,-0.769 -0.998,0.033 -0.998,0.033c-0.302,0.325 -4.791,3.01 -5.569,3.474c-0.039,0.066 -0.078,0.097 -0.115,0.068c0,0 0.041,-0.024 0.115,-0.068c0.144,-0.247 0.283,-0.984 0.283,-0.984c-0.774,0.067 -0.062,-0.242 -0.062,-0.242l0.052,-0.571c0.678,-0.086 0.995,-1.285 0.995,-1.285c0.016,-1.098 -2.147,-0.634 -2.147,-0.634c-0.637,-0.826 -3.479,-1.748 -3.479,-1.748c-0.37,-1.925 -0.566,-0.022 -0.566,-0.022c-0.391,0.614 -0.197,1.152 -0.197,1.152c-0.771,-0.151 -1.862,0.864 -1.862,0.864c-1.829,-1.332 -1.513,-2.781 -1.513,-2.781c-0.129,-0.766 0.049,-6.737 0.049,-6.737c0.385,-0.174 0.119,-1.768 0.119,-1.768c1.204,-2.094 -0.46,-0.411 -0.46,-0.411c-0.485,0.125 -0.508,-0.06 -0.508,-0.06c-0.078,-0.366 -4.364,-3.294 -4.364,-3.294c-3.667,-2.977 -7.4,-5.005 -7.4,-5.005c-0.059,-0.462 -0.359,-0.361 -0.359,-0.361c-0.168,0.021 -1.599,-0.701 -2.703,-1.276c-0.206,0.174 -0.418,0.355 -0.644,0.555c-0.012,0.01 -0.022,0.02 -0.034,0.03c0.471,1.283 0.585,2.581 0.585,2.581c-0.152,0.771 -0.031,1.225 -0.031,1.225c-0.662,0.46 0.012,0.593 0.012,0.593c0.409,0.011 1.476,1.753 1.476,1.753c3.875,4.859 4.01,8.129 4.01,8.129c0.1,1.521 -0.463,2.501 -0.463,2.501c2.122,0.199 2.787,2.712 2.787,2.712c0.296,1.089 0.648,1.64 0.648,1.64c0.857,1.08 0.525,5.348 0.525,5.348c0.161,1.263 0.088,2.9 0.088,2.9l-0.366,0.078l-0.421,-0.353c-1.441,-0.255 -0.824,0.167 -0.824,0.167c1.13,0.263 0.868,0.422 0.868,0.422c-1.914,0.213 -0.665,0.429 -0.665,0.429c-0.52,0.098 -0.269,0.347 -0.269,0.347l0.951,-0.152c-1.233,0.998 -0.299,0.606 0.148,0.397c0.018,-0.025 0.036,-0.041 0.053,-0.047l0.15,-0.05c0,0 -0.084,0.042 -0.203,0.097c-0.135,0.187 -0.272,0.84 -0.272,0.84c0.24,0.407 -0.55,1.823 -0.55,1.823c0.121,0.704 -0.068,2.168 -0.068,2.168c0.609,0.361 0.368,0.924 0.368,0.924c3.225,-0.68 3.973,-1.385 4.037,-1.449c-0.675,0.871 -0.954,1.165 -0.971,1.183l2.003,-1.226c-0.57,1.419 0.002,0.752 0.002,0.752c0.016,0.373 0.443,0.037 0.443,0.037c-0.115,0.328 0.294,0.338 0.294,0.338l0.565,-1.7l0.64,-1.365l0.316,0.023c0.191,-0.713 0.958,-0.341 0.958,-0.341c0.91,0.259 1.977,-1.192 1.977,-1.192c1.6,-0.955 1.827,-1.391 1.827,-1.391c0.836,0.175 3.394,0.6 3.394,0.6c0.508,-0.189 0.811,0.711 0.811,0.711c-0.309,1.26 0.747,-0.033 0.747,-0.033c2.14,-0.648 4.724,0.963 4.724,0.963c1.353,0.297 3.808,2.614 3.808,2.614c1.32,0.771 1.197,1.037 1.197,1.037c0.245,1.19 0.65,1.169 0.65,1.169c1.142,-0.615 2.568,-0.233 2.568,-0.233c0.406,0.041 1.817,0.59 1.861,0.607c-2.252,-1.715 -1.108,-1.329 -1.108,-1.329" style="fill:#1b1b1a;fill-rule:nonzero;"/></g></g></g></svg>