<?xml version="1.0" encoding="UTF-8" standalone="no"?><!DOCTYPE svg PUBLIC "-//W3C//DTD SVG 1.1//EN" "http://www.w3.org/Graphics/SVG/1.1/DTD/svg11.dtd"><svg width="100%" height="100%" viewBox="0 0 64 64" version="1.1" xmlns="http://www.w3.org/2000/svg" xmlns:xlink="http://www.w3.org/1999/xlink" xml:space="preserve" xmlns:serif="http://www.serif.com/" style="fill-rule:evenodd;clip-rule:evenodd;stroke-miterlimit:10;"><g id="Species"><g id="Birds"><g id="raptor"><path id="Outline" d="M61.126,31.687c0,-16.179 -13.135,-29.313 -29.313,-29.313c-16.178,0 -29.313,13.134 -29.313,29.313c0,16.178 13.135,29.313 29.313,29.313c16.178,0 29.313,-13.135 29.313,-29.313Z" style="fill:none;stroke:#000;stroke-width:3px;"/><path d="M29.892,27.696l0.199,0.13l0.548,0.067l0.575,-0.262l0.521,-0.166l0.438,-0.344l0.424,-0.207l0.534,-0.152l0.383,-0.207l0.287,-0.193l0.273,-0.261l0.329,-0.166l0.452,-0.056l0.343,0.054l0.411,0.095l0.356,0.027l0.452,-0.056l0.398,-0.098l0.328,-0.069l0.301,-0.083l0.288,-0.056l-0.068,0.261l-0.287,0.317l-0.314,0.289l-0.178,0.178l-0.218,0.261l-0.109,0.275l-0.164,0.385l-0.259,0.426l-0.342,0.385l-0.191,0.261l-0.314,0.495l-0.232,0.343l-0.177,0.357l-0.15,0.316l-0.218,0.426l-0.095,0.481l-0.067,0.425l0.046,0.259l0.126,0.2l0.117,0.144l0.412,0.314l0.837,0.519l0.626,0.703l-0.013,0.005c0.364,0.225 0.732,0.442 1.112,0.638c0.831,0.43 1.679,0.827 2.531,1.214c0.155,0.07 0.331,0.086 0.486,0.156c0.216,0.098 0.416,0.231 0.624,0.347c0,0 0.797,0.381 0.901,0.468c0.104,0.086 0.954,0.433 0.954,0.433c0,0 0.641,0.277 0.745,0.347c0.104,0.069 0.399,0.329 0.399,0.329c0.133,0.099 0.252,0.218 0.399,0.295c0.364,0.19 0.736,0.374 1.127,0.503c0.647,0.213 1.306,0.4 1.976,0.52c0.462,0.083 0.935,0.081 1.405,0.087c0.462,0.005 0.926,-0.005 1.386,-0.052c0.162,-0.017 0.306,-0.131 0.468,-0.139c0.083,-0.004 0.248,0.024 0.226,0.104c-0.033,0.12 -0.208,0.139 -0.312,0.208c0,0 -0.607,0.208 -0.763,0.26c-0.156,0.052 -0.867,0.121 -1.127,0.121c-0.26,0 -1.179,-0.069 -1.179,-0.069c-0.555,-0.203 -1.109,-0.405 -1.664,-0.607c0.532,0.301 1.049,0.628 1.595,0.902c0.345,0.172 0.708,0.311 1.075,0.433c0.432,0.144 0.867,0.297 1.317,0.364c0.492,0.073 0.995,0.082 1.492,0.052c0.455,-0.028 0.912,-0.101 1.352,-0.225c0.261,-0.074 0.493,-0.228 0.728,-0.364c0.085,-0.05 0.128,-0.206 0.225,-0.191c0.075,0.011 0.044,0.164 0,0.225c-0.163,0.225 -0.359,0.433 -0.589,0.59c-0.286,0.195 -0.604,0.352 -0.937,0.451c-0.449,0.134 -0.918,0.221 -1.386,0.242c-0.527,0.025 -1.065,0.017 -1.578,-0.104c-0.586,-0.137 -1.121,-0.439 -1.682,-0.659c0.127,0.128 0.232,0.282 0.382,0.382c0.334,0.221 0.698,0.394 1.057,0.572c0.352,0.175 0.703,0.358 1.075,0.485c0.44,0.151 0.893,0.271 1.353,0.347c0.555,0.092 1.118,0.168 1.681,0.156c0.256,-0.005 0.491,-0.151 0.741,-0.208c0.058,-0.013 0.178,-0.059 0.178,0c0,0.105 -0.1,0.19 -0.178,0.26c-0.15,0.135 -0.332,0.231 -0.498,0.347c0,0 -0.676,0.312 -0.798,0.329c-0.121,0.018 -1.387,0.104 -1.387,0.104c0,0 -1.473,-0.277 -1.629,-0.277c-0.156,0 -2.037,-1.28 -1.89,-1.127c0.147,0.153 0.546,0.661 0.884,0.919c0.358,0.273 0.776,0.457 1.179,0.659c0.546,0.273 1.084,0.572 1.665,0.763c0.554,0.182 1.137,0.273 1.716,0.346c0.251,0.032 0.532,-0.148 0.758,-0.034c0.124,0.062 0,0.277 0,0.416c0,0 -1.088,0.416 -1.174,0.416l-1.248,0c0,0 -1.266,-0.191 -1.388,-0.208c-0.121,-0.017 -1.785,-0.988 -1.785,-0.988c-0.428,-0.26 -0.856,-0.52 -1.283,-0.781c0.167,0.249 0.307,0.518 0.502,0.746c0.57,0.664 1.129,1.347 1.786,1.924c0.581,0.51 1.263,0.891 1.907,1.318c0.333,0.221 0.733,0.349 1.023,0.624c0.08,0.076 0.087,0.295 -0.017,0.33c-0.324,0.107 -0.687,0.072 -1.023,0.017c-0.614,-0.102 -1.228,-0.247 -1.803,-0.485c-0.619,-0.257 -1.187,-0.627 -1.751,-0.989c-0.466,-0.298 -0.89,-0.658 -1.335,-0.988c0.318,0.508 0.643,1.012 0.953,1.526c0.28,0.463 0.528,0.945 0.815,1.404c0.216,0.345 0.527,0.634 0.694,1.005c0.049,0.109 0.031,0.332 -0.087,0.347c-0.243,0.033 -0.468,-0.146 -0.693,-0.243c-0.314,-0.134 -0.643,-0.25 -0.919,-0.45c-0.407,-0.296 -0.743,-0.679 -1.11,-1.023c-0.361,-0.338 -0.716,-0.682 -1.075,-1.023c0.129,0.247 0.327,0.469 0.387,0.742c0.055,0.244 -0.048,0.624 -0.057,0.749c-0.01,0.125 -0.139,0.434 -0.226,0.468c-0.086,0.035 -0.427,0.113 -0.624,0c-0.196,-0.113 -0.713,-0.155 -1.179,-0.676c-0.465,-0.521 -1.028,-1.583 -1.543,-2.375c-0.161,0.214 -0.285,0.463 -0.485,0.641c-0.139,0.124 -0.322,0.202 -0.503,0.243c-0.209,0.047 -0.429,0.035 -0.642,0.017c-0.263,-0.022 -0.568,0.019 -0.779,-0.139c-0.235,-0.174 -0.346,-0.483 -0.434,-0.762c-0.123,-0.391 -0.127,-0.809 -0.191,-1.214c-0.173,0.341 -0.347,0.682 -0.52,1.023c-0.105,0.208 -0.16,0.448 -0.312,0.624c-0.108,0.126 -0.269,0.22 -0.433,0.243c-0.225,0.032 -0.463,-0.01 -0.676,-0.087c-0.247,-0.088 -0.464,-0.246 -0.677,-0.399c-0.159,-0.114 -0.289,-0.265 -0.433,-0.398c-0.139,0.098 -0.256,0.239 -0.416,0.294c-0.187,0.065 -0.394,0.078 -0.59,0.053c-0.212,-0.028 -0.418,-0.109 -0.606,-0.209c-0.22,-0.116 -0.442,-0.247 -0.607,-0.433c-0.084,-0.094 -0.07,-0.243 -0.104,-0.364c-0.197,0.075 -0.383,0.185 -0.59,0.225c-0.187,0.037 -0.388,0.049 -0.572,0c-0.22,-0.058 -0.404,-0.208 -0.607,-0.312c-0.132,-0.098 -0.31,-0.155 -0.398,-0.295c-0.081,-0.128 -0.047,-0.3 -0.07,-0.45c-0.289,0 -0.581,0.044 -0.867,0c-0.168,-0.026 -0.331,-0.106 -0.468,-0.208c-0.141,-0.105 -0.257,-0.248 -0.347,-0.399c-0.114,-0.194 -0.296,-0.402 -0.26,-0.624c0.038,-0.231 0.301,-0.358 0.451,-0.538c-0.312,0.116 -0.616,0.254 -0.936,0.347c-0.1,0.029 -0.216,0.058 -0.312,0.017c-0.087,-0.037 -0.091,-0.178 -0.173,-0.225c-0.119,-0.069 -0.293,-0.016 -0.399,-0.104c-0.116,-0.095 -0.189,-0.25 -0.208,-0.399c-0.023,-0.174 0.011,-0.361 0.086,-0.52c0.092,-0.193 0.266,-0.335 0.399,-0.502c-0.271,-0.006 -0.547,0.03 -0.815,-0.018c-0.072,-0.013 -0.128,-0.088 -0.155,-0.156c-0.046,-0.114 -0.053,-0.241 -0.053,-0.364c0,-0.134 -0.006,-0.278 0.053,-0.399c0.051,-0.107 0.154,-0.189 0.259,-0.243c0.219,-0.111 0.463,-0.161 0.694,-0.242c-0.185,0.006 -0.37,0.013 -0.555,0.017c-0.081,0.002 -0.164,0.021 -0.243,0c-0.077,-0.021 -0.161,-0.056 -0.208,-0.121c-0.098,-0.14 -0.138,-0.312 -0.208,-0.468c0.012,1.664 0.051,3.329 0.035,4.993c-0.008,0.815 -0.055,1.63 -0.104,2.444c-0.014,0.233 0.051,0.506 -0.087,0.694c-0.119,0.164 -0.369,0.198 -0.572,0.208c-0.159,0.008 -0.34,-0.043 -0.451,-0.156c-0.125,-0.129 -0.127,-0.335 -0.19,-0.503c-0.046,0.081 -0.094,0.161 -0.139,0.243c-0.1,0.184 -0.166,0.389 -0.295,0.554c-0.041,0.054 -0.123,0.065 -0.19,0.07c-0.105,0.007 -0.225,0.023 -0.312,-0.035c-0.089,-0.059 -0.052,-0.262 -0.156,-0.277c-0.102,-0.015 -0.112,0.191 -0.208,0.225c-0.121,0.043 -0.26,0.02 -0.382,-0.017c-0.129,-0.04 -0.305,-0.08 -0.347,-0.208c-0.061,-0.189 0.058,-0.393 0.087,-0.59c-0.225,0.214 -0.419,0.468 -0.676,0.642c-0.113,0.076 -0.265,0.108 -0.399,0.087c-0.138,-0.022 -0.379,-0.07 -0.364,-0.209c0.032,-0.296 0.312,-0.508 0.468,-0.762c-0.197,0.167 -0.387,0.343 -0.589,0.502c-0.098,0.078 -0.188,0.195 -0.313,0.209c-0.118,0.012 -0.327,-0.02 -0.329,-0.139c-0.005,-0.307 0.216,-0.456 0.312,-0.867c-0.341,0.348 -0.346,0.572 -0.555,0.832c-0.077,0.097 -0.178,0.183 -0.294,0.225c-0.087,0.032 -0.193,0.022 -0.278,-0.017c-0.078,-0.036 -0.156,-0.106 -0.173,-0.191c-0.027,-0.131 0.178,-0.353 0.052,-0.398c-0.17,-0.062 -0.305,0.251 -0.486,0.242c-0.122,-0.006 -0.213,-0.158 -0.242,-0.277c-0.03,-0.121 0.037,-0.25 0.086,-0.364c0.16,-0.368 0.359,-0.717 0.538,-1.075c-0.214,0.272 -0.399,0.568 -0.642,0.815c-0.098,0.099 -0.229,0.171 -0.364,0.208c-0.106,0.029 -0.248,0.056 -0.329,-0.018c-0.082,-0.074 -0.075,-0.22 -0.052,-0.329c0.026,-0.119 0.127,-0.208 0.191,-0.312c-0.162,0.052 -0.319,0.123 -0.486,0.156c-0.096,0.019 -0.198,0.019 -0.294,0c-0.139,-0.027 -0.309,-0.031 -0.399,-0.139c-0.117,-0.138 -0.104,-0.346 -0.156,-0.52c-0.139,-0.006 -0.288,0.036 -0.417,-0.017c-0.098,-0.041 -0.166,-0.145 -0.207,-0.243c-0.055,-0.13 -0.075,-0.275 -0.07,-0.416c0.007,-0.16 0.053,-0.316 0.104,-0.468c0.077,-0.226 0.185,-0.439 0.277,-0.659c-0.213,0.07 -0.427,0.139 -0.641,0.208c0,0 -0.312,-0.017 -0.433,-0.034c-0.122,-0.018 -0.295,-0.243 -0.295,-0.243c-0.017,-0.156 -0.071,-0.312 -0.052,-0.468c0.022,-0.182 0.115,-0.347 0.173,-0.52c-0.15,-0.041 -0.321,-0.035 -0.45,-0.122c-0.102,-0.068 -0.148,-0.198 -0.191,-0.312c-0.063,-0.166 -0.124,-0.342 -0.121,-0.52c0.003,-0.23 0.092,-0.451 0.138,-0.676c-0.063,-0.191 -0.175,-0.372 -0.19,-0.572c-0.015,-0.182 0.015,-0.378 0.104,-0.538c0.155,-0.28 0.489,-0.447 0.606,-0.745c0.045,-0.113 -0.14,-0.201 -0.19,-0.312c-0.077,-0.168 -0.195,-0.336 -0.191,-0.52c0.003,-0.145 0.107,-0.278 0.208,-0.382c0.131,-0.134 0.307,-0.215 0.468,-0.312c0.187,-0.111 0.533,-0.098 0.572,-0.312c0.045,-0.248 -0.311,-0.405 -0.399,-0.641c-0.05,-0.136 -0.044,-0.296 0,-0.434c0.047,-0.142 0.132,-0.288 0.26,-0.364c0.241,-0.142 0.523,-0.212 0.798,-0.26c0.29,-0.051 0.59,-0.021 0.884,-0.034c0.567,-0.027 1.133,-0.055 1.699,-0.087c0.451,-0.026 0.904,-0.032 1.352,-0.087c0.311,-0.038 0.623,-0.091 0.919,-0.191c0.241,-0.081 0.477,-0.19 0.676,-0.346c0.134,-0.105 0.197,-0.278 0.295,-0.416c-0.202,0.138 -0.391,0.299 -0.607,0.416c-0.128,0.069 -0.272,0.113 -0.416,0.139c-0.125,0.021 -0.289,0.087 -0.381,0c-0.077,-0.073 0.035,-0.209 0.052,-0.313c-0.191,0.145 -0.363,0.318 -0.572,0.434c-0.082,0.045 -0.184,0.032 -0.278,0.034c-0.121,0.003 -0.253,0.032 -0.363,-0.017c-0.102,-0.044 -0.17,-0.147 -0.226,-0.243c-0.045,-0.077 -0.046,-0.173 -0.069,-0.26c-0.157,0.087 -0.291,0.244 -0.468,0.26c-0.117,0.011 -0.22,-0.101 -0.295,-0.191c-0.115,-0.136 -0.198,-0.3 -0.26,-0.468c-0.061,-0.165 -0.07,-0.346 -0.104,-0.52c-0.104,0.029 -0.205,0.097 -0.312,0.087c-0.098,-0.009 -0.19,-0.071 -0.26,-0.139c-0.079,-0.075 -0.155,-0.17 -0.174,-0.277c-0.019,-0.111 0.046,-0.22 0.07,-0.33c-0.076,-0.069 -0.187,-0.113 -0.226,-0.207c-0.043,-0.108 -0.031,-0.236 0,-0.347c0.035,-0.122 0.127,-0.22 0.191,-0.33c-0.185,-0.098 -0.384,-0.174 -0.555,-0.294c-0.087,-0.062 -0.153,-0.152 -0.208,-0.243c-0.085,-0.142 -0.189,-0.286 -0.208,-0.451c-0.018,-0.153 0.016,-0.324 0.104,-0.451c0.12,-0.172 0.313,-0.28 0.486,-0.398c0.163,-0.113 0.346,-0.197 0.52,-0.295c-0.312,0.011 -0.629,0.09 -0.937,0.035c-0.159,-0.029 -0.293,-0.155 -0.399,-0.278c-0.098,-0.116 -0.145,-0.27 -0.19,-0.416c-0.026,-0.083 -0.012,-0.173 -0.018,-0.26c-0.074,-0.046 -0.194,-0.056 -0.225,-0.139c-0.06,-0.162 -0.026,-0.347 -0.017,-0.52c0.008,-0.169 0.046,-0.335 0.069,-0.503c-0.087,-0.034 -0.193,-0.039 -0.26,-0.104c-0.075,-0.071 -0.123,-0.175 -0.138,-0.277c-0.021,-0.132 -0.012,-0.273 0.034,-0.399c0.067,-0.182 0.291,-0.308 0.295,-0.503c0.003,-0.176 -0.248,-0.276 -0.278,-0.45c-0.021,-0.128 0.051,-0.269 0.139,-0.364c0.125,-0.136 0.305,-0.209 0.468,-0.295c0.145,-0.076 0.301,-0.127 0.451,-0.191c-0.306,-0.063 -0.62,-0.097 -0.919,-0.191c-0.128,-0.04 -0.281,-0.09 -0.347,-0.208c-0.082,-0.146 -0.075,-0.335 -0.052,-0.502c0.019,-0.134 0.058,-0.297 0.174,-0.364c0.193,-0.113 0.439,-0.081 0.659,-0.122c-0.087,-0.063 -0.173,-0.128 -0.26,-0.19c-0.109,-0.077 -0.268,-0.108 -0.33,-0.226c-0.03,-0.058 0.085,-0.101 0.139,-0.139c0.08,-0.055 0.164,-0.117 0.26,-0.138c0.319,-0.072 0.646,-0.102 0.971,-0.139c0.432,-0.05 0.867,-0.079 1.3,-0.121c0.272,-0.027 0.543,-0.058 0.815,-0.087c-0.116,-0.196 -0.194,-0.421 -0.347,-0.59c-0.142,-0.156 -0.328,-0.274 -0.52,-0.364c-0.235,-0.109 -0.494,-0.161 -0.745,-0.225c-0.16,-0.04 -0.352,0.009 -0.486,-0.087c-0.07,-0.05 -0.068,-0.206 0,-0.26c0.153,-0.119 0.37,-0.115 0.555,-0.173c-0.162,-0.006 -0.324,-0.017 -0.486,-0.017c-0.213,0 -0.428,0.037 -0.641,0.017c-0.166,-0.015 -0.335,-0.051 -0.485,-0.121c-0.139,-0.065 -0.239,-0.191 -0.364,-0.278c-0.199,-0.138 -0.398,-0.277 -0.607,-0.398c-0.121,-0.07 -0.271,-0.089 -0.382,-0.174c-0.114,-0.087 -0.207,-0.204 -0.277,-0.329c-0.037,-0.067 -0.09,-0.174 -0.035,-0.226c0.086,-0.081 0.231,-0.046 0.347,-0.069c-0.04,-0.098 -0.114,-0.189 -0.121,-0.295c-0.005,-0.064 0.057,-0.115 0.086,-0.173c-0.144,-0.006 -0.292,0.012 -0.433,-0.017c-0.084,-0.018 -0.187,-0.045 -0.225,-0.122c-0.04,-0.078 0.051,-0.174 0.034,-0.26c-0.014,-0.074 -0.115,-0.116 -0.121,-0.191c-0.007,-0.074 0.022,-0.17 0.087,-0.208c0.122,-0.071 0.276,-0.113 0.416,-0.086c0.264,0.051 0.528,0.152 0.745,0.312c0.212,0.156 0.335,0.404 0.503,0.607c0.011,-0.145 0.085,-0.298 0.034,-0.434c-0.073,-0.197 -0.255,-0.334 -0.381,-0.503c-0.251,-0.338 -0.514,-0.669 -0.75,-1.017c-0.347,-0.513 -0.689,-1.031 -1.001,-1.566c-0.132,-0.225 -0.22,-0.474 -0.33,-0.711c0.012,-0.133 0.024,-0.266 0.035,-0.398c0.069,-0.017 0.142,-0.08 0.205,-0.05c0.204,0.1 0.367,0.268 0.541,0.414c0.354,0.298 0.695,0.61 1.04,0.918c0.21,0.189 0.396,0.406 0.624,0.573c0.456,0.332 0.928,0.645 1.422,0.918c0.198,0.11 0.415,0.222 0.641,0.226c0.192,0.003 0.361,-0.133 0.538,-0.208c0.066,-0.029 0.127,-0.07 0.19,-0.104c-0.173,-0.087 -0.354,-0.161 -0.52,-0.26c-0.152,-0.092 -0.314,-0.18 -0.433,-0.312c-0.26,-0.289 -0.475,-0.616 -0.694,-0.937c-0.33,-0.483 -0.687,-0.952 -0.953,-1.473c-0.251,-0.49 -0.425,-1.018 -0.59,-1.543c-0.096,-0.31 -0.159,-0.631 -0.19,-0.954c-0.027,-0.276 -0.037,-0.56 0.017,-0.832c0.019,-0.097 0.096,-0.251 0.191,-0.225c0.173,0.047 0.284,0.229 0.381,0.381c0.294,0.46 0.495,0.974 0.78,1.439c0.473,0.772 0.961,1.537 1.491,2.271c0.281,0.389 0.596,0.755 0.936,1.092c0.212,0.21 0.462,0.376 0.711,0.538c0.117,0.076 0.244,0.149 0.382,0.173c0.072,0.013 0.138,-0.046 0.208,-0.069c-0.156,-0.156 -0.335,-0.293 -0.468,-0.468c-0.163,-0.215 -0.289,-0.456 -0.417,-0.694c-0.213,-0.398 -0.437,-0.794 -0.606,-1.213c-0.254,-0.629 -0.502,-1.265 -0.659,-1.925c-0.128,-0.537 -0.18,-1.094 -0.191,-1.647c-0.007,-0.384 0.07,-0.766 0.139,-1.144c0.03,-0.167 0.067,-0.34 0.156,-0.485c0.062,-0.102 0.158,-0.226 0.277,-0.226c0.106,0 0.192,0.125 0.226,0.226c0.115,0.346 0.111,0.723 0.208,1.074c0.175,0.633 0.397,1.251 0.607,1.873c0.183,0.546 0.339,1.103 0.572,1.629c0.277,0.627 0.595,1.237 0.953,1.821c0.205,0.333 0.486,0.613 0.728,0.919c-0.104,-0.237 -0.202,-0.477 -0.312,-0.711c-0.156,-0.332 -0.375,-0.638 -0.485,-0.988c-0.181,-0.575 -0.278,-1.175 -0.382,-1.768c-0.122,-0.702 -0.268,-1.404 -0.294,-2.116c-0.02,-0.533 0.059,-1.069 0.156,-1.595c0.026,-0.142 0.165,-0.243 0.208,-0.381c0.045,-0.146 -0.019,-0.32 0.052,-0.455c0.077,-0.146 0.217,-0.409 0.364,-0.335c0.2,0.102 0.195,0.412 0.225,0.634c0.041,0.298 -0.065,0.605 -0.017,0.901c0.132,0.808 0.379,1.593 0.555,2.393c0.113,0.512 0.161,1.04 0.312,1.543c0.232,0.772 0.547,1.517 0.832,2.271c0.126,0.332 0.224,0.679 0.399,0.988c0.057,0.101 0.185,0.139 0.277,0.208c-0.011,-0.104 -0.014,-0.209 -0.034,-0.312c-0.131,-0.655 -0.341,-1.295 -0.416,-1.959c-0.099,-0.868 -0.194,-1.749 -0.104,-2.618c0.073,-0.717 0.358,-1.397 0.589,-2.08c0.088,-0.262 0.196,-0.526 0.364,-0.746c0.055,-0.071 0.228,-0.153 0.26,-0.069c0.128,0.337 0.128,0.715 0.121,1.075c-0.016,0.892 -0.202,1.778 -0.19,2.67c0.011,0.877 0.127,1.751 0.26,2.618c0.087,0.569 0.243,1.127 0.398,1.681c0.145,0.516 0.336,1.018 0.503,1.526c-0.098,-0.549 -0.264,-1.09 -0.295,-1.647c-0.027,-0.504 0.042,-1.01 0.122,-1.508c0.048,-0.298 0.125,-0.597 0.26,-0.867c0.037,-0.074 0.212,-0.186 0.225,-0.104c0.149,0.874 0.131,1.769 0.209,2.652c0.078,0.903 0.092,1.815 0.259,2.705c0.072,0.382 0.301,0.717 0.451,1.075c0.168,0.399 0.335,0.797 0.503,1.196c0.041,0.364 0.081,0.728 0.121,1.093c-0.011,0.317 -0.023,0.635 -0.034,0.953c0.144,0.41 0.289,0.821 0.433,1.231c0.058,0.173 0.116,0.347 0.173,0.52c0.139,0.243 0.278,0.485 0.416,0.728l0.481,0.951Z" style="fill:#1b1b1a;"/></g></g></g></svg>