<?xml version="1.0" encoding="UTF-8" standalone="no"?><!DOCTYPE svg PUBLIC "-//W3C//DTD SVG 1.1//EN" "http://www.w3.org/Graphics/SVG/1.1/DTD/svg11.dtd"><svg width="100%" height="100%" viewBox="0 0 64 64" version="1.1" xmlns="http://www.w3.org/2000/svg" xmlns:xlink="http://www.w3.org/1999/xlink" xml:space="preserve" xmlns:serif="http://www.serif.com/" style="fill-rule:evenodd;clip-rule:evenodd;stroke-miterlimit:10;"><g id="Species"><g id="bird"><path id="Outline" d="M61.409,32.062c0,-16.178 -13.135,-29.313 -29.313,-29.313c-16.179,0 -29.314,13.135 -29.314,29.313c0,16.179 13.135,29.314 29.314,29.314c16.178,0 29.313,-13.135 29.313,-29.314Z" style="fill:none;stroke:#000;stroke-width:3px;"/><path d="M30.174,28.071l0.2,0.13l0.548,0.068l0.575,-0.262l0.52,-0.166l0.438,-0.345l0.424,-0.206l0.534,-0.153l0.383,-0.207l0.287,-0.192l0.274,-0.261l0.328,-0.166l0.452,-0.056l0.343,0.054l0.411,0.095l0.357,0.026l0.451,-0.056l0.398,-0.097l0.329,-0.069l0.301,-0.083l0.287,-0.056l-0.067,0.261l-0.287,0.316l-0.315,0.289l-0.177,0.179l-0.219,0.261l-0.109,0.275l-0.163,0.384l-0.26,0.426l-0.341,0.385l-0.192,0.261l-0.314,0.495l-0.232,0.344l-0.177,0.357l-0.149,0.316l-0.219,0.426l-0.095,0.48l-0.067,0.425l0.046,0.26l0.127,0.2l0.116,0.143l0.412,0.315l0.838,0.519l0.626,0.703l-0.013,0.004c0.363,0.225 0.732,0.442 1.111,0.639c0.831,0.43 1.679,0.826 2.532,1.213c0.154,0.07 0.33,0.086 0.485,0.156c0.217,0.098 0.416,0.232 0.624,0.347c0,0 0.797,0.381 0.902,0.468c0.103,0.087 0.953,0.433 0.953,0.433c0,0 0.642,0.278 0.746,0.348c0.104,0.069 0.398,0.329 0.398,0.329c0.133,0.098 0.253,0.218 0.399,0.294c0.365,0.191 0.737,0.375 1.127,0.503c0.647,0.214 1.306,0.4 1.976,0.52c0.462,0.083 0.936,0.081 1.405,0.087c0.462,0.006 0.927,-0.005 1.387,-0.052c0.162,-0.017 0.305,-0.131 0.468,-0.139c0.082,-0.004 0.247,0.025 0.225,0.104c-0.033,0.121 -0.208,0.139 -0.312,0.208c0,0 -0.607,0.208 -0.763,0.261c-0.156,0.051 -0.866,0.121 -1.126,0.121c-0.261,0 -1.179,-0.07 -1.179,-0.07c-0.555,-0.202 -1.11,-0.404 -1.665,-0.606c0.532,0.3 1.049,0.628 1.595,0.901c0.346,0.173 0.709,0.311 1.075,0.434c0.432,0.144 0.867,0.297 1.318,0.364c0.492,0.073 0.994,0.082 1.491,0.052c0.456,-0.028 0.912,-0.101 1.352,-0.226c0.261,-0.074 0.494,-0.227 0.728,-0.364c0.085,-0.049 0.128,-0.205 0.225,-0.191c0.075,0.012 0.044,0.165 0,0.226c-0.162,0.225 -0.359,0.433 -0.589,0.589c-0.286,0.195 -0.604,0.352 -0.936,0.451c-0.45,0.135 -0.918,0.221 -1.387,0.243c-0.527,0.025 -1.065,0.016 -1.578,-0.104c-0.586,-0.137 -1.121,-0.439 -1.682,-0.659c0.128,0.127 0.232,0.282 0.382,0.382c0.334,0.221 0.698,0.394 1.058,0.572c0.352,0.174 0.702,0.358 1.074,0.485c0.441,0.151 0.894,0.271 1.353,0.347c0.555,0.092 1.119,0.168 1.681,0.156c0.257,-0.006 0.491,-0.152 0.741,-0.208c0.058,-0.013 0.179,-0.059 0.179,0c0,0.105 -0.1,0.19 -0.179,0.26c-0.15,0.135 -0.332,0.231 -0.498,0.347c0,0 -0.676,0.312 -0.797,0.329c-0.122,0.017 -1.387,0.104 -1.387,0.104c0,0 -1.474,-0.277 -1.63,-0.277c-0.156,0 -2.037,-1.28 -1.89,-1.127c0.147,0.153 0.547,0.66 0.884,0.918c0.358,0.274 0.777,0.458 1.179,0.659c0.546,0.273 1.085,0.573 1.665,0.763c0.554,0.182 1.137,0.274 1.716,0.347c0.251,0.032 0.532,-0.148 0.758,-0.035c0.125,0.063 0,0.278 0,0.416c0,0 -1.087,0.416 -1.174,0.416l-1.248,0c0,0 -1.266,-0.19 -1.387,-0.208c-0.122,-0.017 -1.786,-0.988 -1.786,-0.988c-0.428,-0.26 -0.855,-0.52 -1.283,-0.78c0.168,0.249 0.308,0.518 0.503,0.746c0.569,0.664 1.128,1.347 1.786,1.924c0.58,0.51 1.262,0.891 1.907,1.318c0.333,0.22 0.733,0.349 1.023,0.624c0.079,0.075 0.087,0.294 -0.018,0.329c-0.323,0.108 -0.686,0.073 -1.023,0.017c-0.614,-0.101 -1.228,-0.246 -1.803,-0.485c-0.619,-0.257 -1.186,-0.627 -1.751,-0.988c-0.466,-0.299 -0.89,-0.659 -1.335,-0.989c0.318,0.509 0.644,1.013 0.954,1.526c0.28,0.464 0.528,0.946 0.815,1.404c0.216,0.346 0.526,0.635 0.693,1.006c0.049,0.109 0.031,0.331 -0.086,0.347c-0.244,0.032 -0.469,-0.146 -0.694,-0.243c-0.313,-0.135 -0.643,-0.25 -0.919,-0.45c-0.407,-0.296 -0.742,-0.68 -1.11,-1.024c-0.361,-0.338 -0.716,-0.682 -1.075,-1.022c0.13,0.247 0.328,0.469 0.388,0.741c0.054,0.245 -0.048,0.625 -0.058,0.75c-0.01,0.125 -0.139,0.433 -0.226,0.468c-0.086,0.034 -0.427,0.112 -0.624,0c-0.196,-0.113 -0.713,-0.155 -1.178,-0.676c-0.466,-0.522 -1.029,-1.584 -1.544,-2.376c-0.161,0.214 -0.285,0.463 -0.485,0.642c-0.139,0.124 -0.321,0.201 -0.503,0.243c-0.208,0.047 -0.428,0.035 -0.641,0.017c-0.263,-0.022 -0.568,0.019 -0.78,-0.139c-0.235,-0.174 -0.346,-0.484 -0.434,-0.763c-0.123,-0.39 -0.127,-0.809 -0.191,-1.213c-0.173,0.341 -0.347,0.681 -0.52,1.023c-0.104,0.207 -0.16,0.447 -0.312,0.624c-0.107,0.125 -0.269,0.22 -0.433,0.242c-0.225,0.032 -0.462,-0.009 -0.676,-0.086c-0.247,-0.089 -0.464,-0.247 -0.676,-0.399c-0.16,-0.114 -0.289,-0.266 -0.434,-0.399c-0.138,0.099 -0.255,0.24 -0.416,0.295c-0.186,0.064 -0.394,0.078 -0.589,0.052c-0.212,-0.028 -0.418,-0.108 -0.607,-0.208c-0.22,-0.116 -0.442,-0.248 -0.607,-0.434c-0.084,-0.094 -0.069,-0.242 -0.104,-0.364c-0.196,0.076 -0.383,0.186 -0.589,0.226c-0.188,0.036 -0.388,0.049 -0.573,0c-0.219,-0.058 -0.404,-0.208 -0.606,-0.312c-0.133,-0.098 -0.311,-0.155 -0.399,-0.295c-0.081,-0.129 -0.046,-0.3 -0.069,-0.451c-0.289,0 -0.582,0.045 -0.868,0c-0.168,-0.026 -0.33,-0.106 -0.467,-0.208c-0.142,-0.105 -0.257,-0.247 -0.347,-0.398c-0.115,-0.194 -0.297,-0.402 -0.26,-0.624c0.038,-0.231 0.3,-0.359 0.45,-0.538c-0.311,0.116 -0.616,0.254 -0.936,0.347c-0.1,0.029 -0.216,0.058 -0.312,0.017c-0.087,-0.037 -0.091,-0.178 -0.173,-0.225c-0.119,-0.069 -0.293,-0.017 -0.399,-0.105c-0.115,-0.095 -0.188,-0.25 -0.208,-0.398c-0.023,-0.174 0.012,-0.362 0.087,-0.52c0.091,-0.194 0.266,-0.335 0.399,-0.503c-0.272,-0.006 -0.548,0.03 -0.815,-0.017c-0.073,-0.013 -0.129,-0.088 -0.156,-0.156c-0.046,-0.114 -0.052,-0.242 -0.052,-0.364c0,-0.135 -0.007,-0.279 0.052,-0.399c0.051,-0.107 0.154,-0.189 0.26,-0.243c0.218,-0.111 0.462,-0.162 0.693,-0.243c-0.184,0.006 -0.369,0.014 -0.554,0.018c-0.081,0.001 -0.165,0.021 -0.243,0c-0.078,-0.021 -0.162,-0.056 -0.208,-0.122c-0.099,-0.139 -0.139,-0.312 -0.208,-0.468c0.011,1.664 0.05,3.329 0.034,4.993c-0.007,0.816 -0.054,1.631 -0.104,2.445c-0.014,0.232 0.051,0.505 -0.087,0.693c-0.119,0.164 -0.369,0.198 -0.572,0.208c-0.158,0.008 -0.339,-0.042 -0.45,-0.156c-0.125,-0.128 -0.127,-0.335 -0.191,-0.502c-0.046,0.08 -0.094,0.16 -0.139,0.242c-0.1,0.184 -0.166,0.39 -0.294,0.555c-0.042,0.054 -0.124,0.065 -0.191,0.069c-0.104,0.007 -0.225,0.024 -0.312,-0.034c-0.089,-0.059 -0.051,-0.263 -0.156,-0.278c-0.102,-0.014 -0.112,0.192 -0.208,0.226c-0.12,0.042 -0.26,0.02 -0.382,-0.018c-0.129,-0.039 -0.305,-0.079 -0.346,-0.208c-0.062,-0.188 0.057,-0.393 0.086,-0.589c-0.225,0.213 -0.419,0.467 -0.676,0.641c-0.113,0.077 -0.264,0.108 -0.399,0.087c-0.138,-0.022 -0.379,-0.069 -0.364,-0.208c0.032,-0.297 0.312,-0.509 0.468,-0.763c-0.196,0.168 -0.386,0.343 -0.589,0.503c-0.098,0.077 -0.188,0.194 -0.312,0.208c-0.119,0.013 -0.327,-0.02 -0.329,-0.139c-0.006,-0.307 0.215,-0.455 0.311,-0.867c-0.34,0.349 -0.345,0.573 -0.554,0.833c-0.077,0.096 -0.179,0.183 -0.295,0.225c-0.087,0.032 -0.193,0.022 -0.277,-0.017c-0.078,-0.036 -0.157,-0.107 -0.174,-0.191c-0.027,-0.131 0.178,-0.353 0.052,-0.399c-0.17,-0.061 -0.305,0.252 -0.485,0.243c-0.123,-0.006 -0.214,-0.158 -0.243,-0.277c-0.029,-0.122 0.037,-0.25 0.087,-0.365c0.159,-0.367 0.358,-0.716 0.537,-1.074c-0.214,0.271 -0.399,0.568 -0.641,0.814c-0.098,0.1 -0.23,0.171 -0.364,0.208c-0.106,0.03 -0.248,0.057 -0.33,-0.017c-0.082,-0.075 -0.075,-0.221 -0.052,-0.329c0.026,-0.119 0.128,-0.208 0.191,-0.312c-0.162,0.051 -0.319,0.122 -0.485,0.156c-0.097,0.019 -0.199,0.019 -0.295,0c-0.138,-0.028 -0.308,-0.031 -0.399,-0.139c-0.116,-0.138 -0.104,-0.347 -0.156,-0.52c-0.139,-0.006 -0.288,0.036 -0.416,-0.017c-0.098,-0.041 -0.167,-0.145 -0.208,-0.243c-0.055,-0.13 -0.075,-0.276 -0.07,-0.416c0.007,-0.16 0.053,-0.317 0.104,-0.468c0.077,-0.226 0.185,-0.44 0.278,-0.659c-0.214,0.069 -0.428,0.139 -0.642,0.208c0,0 -0.312,-0.017 -0.433,-0.035c-0.121,-0.017 -0.295,-0.242 -0.295,-0.242c-0.017,-0.156 -0.071,-0.313 -0.052,-0.468c0.023,-0.182 0.116,-0.348 0.174,-0.521c-0.15,-0.04 -0.322,-0.034 -0.451,-0.121c-0.101,-0.068 -0.148,-0.198 -0.191,-0.312c-0.062,-0.167 -0.124,-0.342 -0.121,-0.52c0.003,-0.23 0.092,-0.451 0.139,-0.676c-0.064,-0.191 -0.176,-0.372 -0.191,-0.572c-0.014,-0.183 0.015,-0.379 0.104,-0.538c0.155,-0.28 0.489,-0.447 0.607,-0.746c0.044,-0.113 -0.14,-0.201 -0.191,-0.312c-0.077,-0.168 -0.194,-0.335 -0.191,-0.52c0.003,-0.144 0.107,-0.277 0.208,-0.381c0.131,-0.134 0.308,-0.216 0.468,-0.312c0.187,-0.112 0.534,-0.099 0.572,-0.312c0.046,-0.248 -0.311,-0.406 -0.398,-0.642c-0.05,-0.135 -0.045,-0.296 0,-0.433c0.046,-0.142 0.131,-0.288 0.26,-0.364c0.24,-0.142 0.522,-0.212 0.797,-0.26c0.291,-0.051 0.59,-0.021 0.884,-0.035c0.567,-0.027 1.133,-0.055 1.7,-0.087c0.45,-0.025 0.903,-0.032 1.352,-0.086c0.31,-0.038 0.622,-0.092 0.919,-0.191c0.24,-0.081 0.477,-0.19 0.676,-0.347c0.134,-0.105 0.196,-0.277 0.295,-0.416c-0.203,0.139 -0.392,0.299 -0.607,0.416c-0.129,0.07 -0.272,0.114 -0.416,0.139c-0.126,0.022 -0.289,0.087 -0.382,0c-0.076,-0.073 0.035,-0.208 0.052,-0.312c-0.19,0.145 -0.362,0.318 -0.572,0.433c-0.082,0.045 -0.184,0.032 -0.277,0.035c-0.122,0.003 -0.253,0.031 -0.364,-0.017c-0.101,-0.045 -0.17,-0.148 -0.226,-0.243c-0.045,-0.078 -0.046,-0.173 -0.069,-0.26c-0.156,0.087 -0.29,0.244 -0.468,0.26c-0.117,0.011 -0.22,-0.101 -0.295,-0.191c-0.115,-0.136 -0.198,-0.3 -0.26,-0.468c-0.061,-0.166 -0.069,-0.347 -0.104,-0.52c-0.104,0.029 -0.205,0.096 -0.312,0.087c-0.098,-0.009 -0.189,-0.071 -0.26,-0.139c-0.079,-0.076 -0.155,-0.17 -0.173,-0.277c-0.02,-0.111 0.046,-0.22 0.069,-0.33c-0.075,-0.069 -0.187,-0.113 -0.225,-0.208c-0.044,-0.107 -0.032,-0.235 0,-0.347c0.034,-0.122 0.126,-0.219 0.19,-0.329c-0.184,-0.099 -0.383,-0.174 -0.555,-0.295c-0.087,-0.061 -0.153,-0.151 -0.208,-0.242c-0.085,-0.142 -0.189,-0.287 -0.208,-0.451c-0.017,-0.153 0.016,-0.324 0.105,-0.451c0.119,-0.172 0.312,-0.28 0.485,-0.399c0.164,-0.113 0.347,-0.196 0.52,-0.295c-0.312,0.012 -0.629,0.091 -0.936,0.035c-0.16,-0.029 -0.294,-0.154 -0.399,-0.277c-0.099,-0.117 -0.146,-0.27 -0.191,-0.416c-0.025,-0.084 -0.011,-0.174 -0.017,-0.26c-0.075,-0.047 -0.195,-0.056 -0.225,-0.139c-0.06,-0.163 -0.027,-0.347 -0.018,-0.52c0.009,-0.169 0.046,-0.335 0.069,-0.503c-0.086,-0.035 -0.192,-0.039 -0.26,-0.104c-0.074,-0.071 -0.122,-0.175 -0.138,-0.277c-0.021,-0.132 -0.011,-0.274 0.034,-0.399c0.067,-0.183 0.292,-0.309 0.295,-0.503c0.003,-0.176 -0.248,-0.277 -0.277,-0.451c-0.022,-0.128 0.05,-0.268 0.138,-0.364c0.126,-0.136 0.305,-0.209 0.468,-0.295c0.145,-0.076 0.301,-0.127 0.452,-0.19c-0.307,-0.064 -0.621,-0.097 -0.92,-0.191c-0.128,-0.04 -0.28,-0.09 -0.346,-0.208c-0.083,-0.147 -0.076,-0.336 -0.052,-0.503c0.018,-0.133 0.057,-0.296 0.173,-0.364c0.193,-0.112 0.439,-0.081 0.659,-0.121c-0.087,-0.064 -0.172,-0.129 -0.26,-0.191c-0.109,-0.077 -0.268,-0.107 -0.33,-0.225c-0.03,-0.058 0.085,-0.102 0.139,-0.139c0.081,-0.056 0.165,-0.117 0.26,-0.139c0.319,-0.072 0.646,-0.101 0.971,-0.138c0.432,-0.05 0.867,-0.079 1.3,-0.122c0.272,-0.026 0.544,-0.058 0.815,-0.086c-0.115,-0.197 -0.193,-0.421 -0.347,-0.59c-0.142,-0.156 -0.328,-0.275 -0.52,-0.364c-0.235,-0.11 -0.494,-0.162 -0.745,-0.225c-0.159,-0.041 -0.352,0.008 -0.486,-0.087c-0.07,-0.05 -0.068,-0.207 0,-0.26c0.153,-0.119 0.371,-0.116 0.555,-0.174c-0.162,-0.005 -0.323,-0.017 -0.485,-0.017c-0.214,0 -0.429,0.037 -0.642,0.017c-0.166,-0.015 -0.334,-0.05 -0.485,-0.121c-0.138,-0.065 -0.239,-0.19 -0.364,-0.277c-0.199,-0.139 -0.398,-0.278 -0.607,-0.399c-0.121,-0.07 -0.271,-0.089 -0.381,-0.173c-0.114,-0.087 -0.208,-0.205 -0.278,-0.33c-0.037,-0.066 -0.09,-0.173 -0.035,-0.225c0.086,-0.081 0.232,-0.047 0.347,-0.069c-0.04,-0.099 -0.113,-0.189 -0.121,-0.295c-0.005,-0.065 0.058,-0.116 0.087,-0.173c-0.145,-0.006 -0.292,0.012 -0.434,-0.018c-0.083,-0.018 -0.187,-0.045 -0.225,-0.121c-0.039,-0.078 0.051,-0.175 0.034,-0.26c-0.014,-0.074 -0.114,-0.116 -0.121,-0.191c-0.006,-0.075 0.022,-0.17 0.087,-0.208c0.122,-0.072 0.277,-0.114 0.416,-0.087c0.264,0.051 0.529,0.153 0.745,0.312c0.212,0.156 0.336,0.405 0.503,0.607c0.012,-0.144 0.085,-0.298 0.035,-0.433c-0.073,-0.198 -0.256,-0.334 -0.382,-0.503c-0.251,-0.338 -0.513,-0.669 -0.75,-1.018c-0.347,-0.513 -0.688,-1.031 -1.001,-1.565c-0.131,-0.226 -0.219,-0.474 -0.329,-0.711c0.012,-0.133 0.023,-0.266 0.035,-0.399c0.068,-0.017 0.141,-0.08 0.205,-0.049c0.203,0.1 0.367,0.267 0.54,0.413c0.354,0.298 0.696,0.61 1.04,0.919c0.21,0.188 0.396,0.406 0.624,0.572c0.456,0.332 0.928,0.645 1.422,0.919c0.198,0.11 0.415,0.222 0.642,0.225c0.192,0.003 0.36,-0.132 0.537,-0.208c0.067,-0.028 0.127,-0.069 0.191,-0.104c-0.174,-0.086 -0.354,-0.16 -0.52,-0.26c-0.153,-0.091 -0.314,-0.18 -0.434,-0.312c-0.26,-0.288 -0.474,-0.615 -0.693,-0.936c-0.33,-0.483 -0.687,-0.953 -0.954,-1.474c-0.251,-0.49 -0.425,-1.017 -0.589,-1.543c-0.097,-0.309 -0.16,-0.631 -0.191,-0.953c-0.027,-0.276 -0.036,-0.56 0.017,-0.832c0.019,-0.097 0.096,-0.252 0.191,-0.226c0.174,0.048 0.285,0.23 0.381,0.382c0.294,0.46 0.496,0.973 0.781,1.439c0.472,0.772 0.961,1.537 1.491,2.271c0.28,0.389 0.595,0.755 0.936,1.092c0.211,0.209 0.462,0.375 0.711,0.538c0.117,0.076 0.243,0.148 0.381,0.173c0.072,0.013 0.139,-0.046 0.208,-0.069c-0.156,-0.157 -0.334,-0.293 -0.468,-0.469c-0.163,-0.214 -0.289,-0.456 -0.416,-0.693c-0.214,-0.399 -0.438,-0.794 -0.607,-1.214c-0.253,-0.629 -0.502,-1.265 -0.659,-1.924c-0.128,-0.538 -0.18,-1.095 -0.19,-1.647c-0.008,-0.384 0.07,-0.766 0.138,-1.145c0.03,-0.167 0.068,-0.34 0.156,-0.485c0.062,-0.101 0.159,-0.225 0.278,-0.225c0.106,0 0.192,0.124 0.225,0.225c0.115,0.346 0.111,0.723 0.208,1.075c0.175,0.632 0.398,1.251 0.607,1.872c0.184,0.546 0.339,1.104 0.572,1.63c0.277,0.626 0.595,1.237 0.954,1.82c0.204,0.334 0.485,0.613 0.728,0.919c-0.104,-0.237 -0.202,-0.476 -0.312,-0.711c-0.156,-0.332 -0.376,-0.638 -0.486,-0.988c-0.181,-0.575 -0.278,-1.174 -0.381,-1.768c-0.122,-0.701 -0.268,-1.404 -0.295,-2.115c-0.02,-0.534 0.059,-1.07 0.156,-1.595c0.026,-0.142 0.165,-0.243 0.208,-0.382c0.046,-0.145 -0.019,-0.319 0.052,-0.454c0.077,-0.146 0.217,-0.41 0.364,-0.335c0.2,0.101 0.196,0.411 0.226,0.633c0.04,0.298 -0.066,0.606 -0.018,0.902c0.132,0.808 0.379,1.593 0.555,2.393c0.113,0.512 0.161,1.04 0.312,1.542c0.232,0.773 0.547,1.517 0.832,2.272c0.126,0.332 0.224,0.679 0.399,0.988c0.057,0.1 0.185,0.138 0.278,0.208c-0.012,-0.104 -0.015,-0.209 -0.035,-0.312c-0.13,-0.655 -0.341,-1.296 -0.416,-1.959c-0.099,-0.868 -0.194,-1.75 -0.104,-2.618c0.074,-0.717 0.359,-1.398 0.589,-2.08c0.089,-0.263 0.196,-0.526 0.364,-0.746c0.055,-0.071 0.228,-0.153 0.26,-0.07c0.128,0.338 0.128,0.715 0.122,1.075c-0.017,0.892 -0.203,1.778 -0.191,2.671c0.011,0.876 0.127,1.751 0.26,2.617c0.087,0.57 0.243,1.127 0.399,1.682c0.144,0.515 0.335,1.017 0.503,1.526c-0.099,-0.549 -0.265,-1.091 -0.295,-1.647c-0.028,-0.504 0.041,-1.011 0.121,-1.509c0.048,-0.297 0.125,-0.597 0.26,-0.867c0.037,-0.074 0.212,-0.185 0.226,-0.104c0.148,0.875 0.131,1.769 0.208,2.653c0.079,0.902 0.092,1.814 0.26,2.705c0.071,0.381 0.3,0.716 0.451,1.074c0.167,0.399 0.335,0.798 0.502,1.197c0.041,0.364 0.081,0.728 0.122,1.092c-0.012,0.318 -0.023,0.636 -0.035,0.953c0.145,0.411 0.289,0.821 0.433,1.231c0.058,0.174 0.116,0.347 0.174,0.521c0.138,0.242 0.277,0.485 0.416,0.728l0.48,0.95Z" style="fill:#1b1b1a;"/></g></g></svg>