<?xml version="1.0" encoding="UTF-8" standalone="no"?><!DOCTYPE svg PUBLIC "-//W3C//DTD SVG 1.1//EN" "http://www.w3.org/Graphics/SVG/1.1/DTD/svg11.dtd"><svg width="100%" height="100%" viewBox="0 0 64 64" version="1.1" xmlns="http://www.w3.org/2000/svg" xmlns:xlink="http://www.w3.org/1999/xlink" xml:space="preserve" xmlns:serif="http://www.serif.com/" style="fill-rule:evenodd;clip-rule:evenodd;stroke-miterlimit:10;"><g id="Climate-models" serif:id="Climate models"><path d="M52.641,46.6l-38.508,0l0,-29.2l3.565,0l0,24.637l34.943,0l0,4.563Zm-6.494,-13.134c0.293,-0.438 0.791,-0.727 1.357,-0.727c0.9,0 1.631,0.731 1.631,1.631c0,0.899 -0.731,1.63 -1.631,1.63c-0.849,0 -1.548,-0.651 -1.623,-1.482l-8.979,0.147c0.011,0.075 0.016,0.153 0.016,0.231c0,0.9 -0.73,1.631 -1.63,1.631c-0.711,0 -1.316,-0.456 -1.539,-1.091l-9.383,2.688c-0.099,0.806 -0.786,1.431 -1.618,1.431c-0.9,0 -1.631,-0.731 -1.631,-1.631c0,-0.9 0.731,-1.63 1.631,-1.63c0.616,0 1.153,0.343 1.43,0.848l9.556,-2.741c0.21,-0.658 0.827,-1.135 1.554,-1.135c0.413,0 0.79,0.154 1.077,0.407c3.261,-0.054 6.525,-0.306 9.782,-0.207Zm-0.896,-12.896c-0.086,-0.198 -0.134,-0.416 -0.134,-0.646c0,-0.9 0.731,-1.63 1.631,-1.63c0.9,0 1.63,0.73 1.63,1.63c0,0.9 -0.73,1.631 -1.63,1.631c-0.305,0 -0.59,-0.084 -0.834,-0.23l-9.08,6.053c0.055,0.163 0.084,0.337 0.084,0.518c0,0.9 -0.73,1.631 -1.63,1.631c-0.536,0 -1.012,-0.259 -1.309,-0.659l-9.607,3.202c-0.074,0.832 -0.773,1.485 -1.624,1.485c-0.9,0 -1.631,-0.731 -1.631,-1.631c0,-0.9 0.731,-1.63 1.631,-1.63c0.595,0 1.116,0.319 1.401,0.796l9.509,-3.17c0,-0.008 0,-0.016 0,-0.024c0,-0.899 0.73,-1.63 1.63,-1.63c0.355,0 0.684,0.114 0.952,0.307l9.011,-6.003Z" style="fill:#1b1b1a;"/><path id="Outline" d="M61.5,32.174c0,-16.178 -13.135,-29.313 -29.313,-29.313c-16.178,0 -29.313,13.135 -29.313,29.313c0,16.178 13.135,29.313 29.313,29.313c16.178,0 29.313,-13.135 29.313,-29.313Z" style="fill:none;stroke:#1b1b1a;stroke-width:3px;"/></g></svg>