<?xml version="1.0" encoding="UTF-8" standalone="no"?><!DOCTYPE svg PUBLIC "-//W3C//DTD SVG 1.1//EN" "http://www.w3.org/Graphics/SVG/1.1/DTD/svg11.dtd"><svg width="100%" height="100%" viewBox="0 0 64 64" version="1.1" xmlns="http://www.w3.org/2000/svg" xmlns:xlink="http://www.w3.org/1999/xlink" xml:space="preserve" xmlns:serif="http://www.serif.com/" style="fill-rule:evenodd;clip-rule:evenodd;stroke-miterlimit:10;"><g id="Climate-101" serif:id="Climate 101"><path d="M25.854,45.651c0.13,-1.286 -0.395,-2.551 -1.398,-3.367c-2.717,-2.202 -4.456,-5.566 -4.456,-9.332c0,-6.623 5.377,-12 12,-12c6.623,0 12,5.377 12,12c0,3.436 -1.448,6.537 -3.766,8.725c-1.188,1.141 -1.831,2.736 -1.768,4.382c-0.007,0.098 -0.004,0.197 -0.004,0.296c0,3.49 -2.834,6.323 -6.323,6.323c-3.49,0 -6.323,-2.833 -6.323,-6.323c0,-0.238 0.013,-0.473 0.038,-0.704Zm6.536,-16.488c0.177,0.031 0.208,0.07 0.283,0.133l1.748,1.654l5.53,-1.154c0.342,-0.016 0.604,0.287 0.532,0.628l-2.496,9.237c-0.178,0.539 -1.109,0.41 -0.966,-0.261l2.284,-8.45c0,0 -4.988,1.041 -4.988,1.041c-0.226,0.01 -0.287,-0.045 -0.393,-0.134l-1.606,-1.519l-1.762,1.562c-0.189,0.121 -0.269,0.104 -0.405,0.08l-4.266,-1.004l2.427,8.469c0.105,0.891 -0.803,0.714 -0.973,0.223l-2.651,-9.237c-0.084,-0.362 0.223,-0.692 0.596,-0.624l4.843,1.14l1.911,-1.694c0.22,-0.141 0.202,-0.1 0.352,-0.09Zm15.287,-11.408c0.724,0.031 1.21,0.937 0.802,1.561c-1.138,1.613 -2.391,3.613 -3.311,3.689c-0.749,0.061 -1.365,-0.912 -0.889,-1.588c1.218,-1.602 2.459,-3.669 3.398,-3.662Zm-31.463,-1c1.288,0.083 3.344,3.133 3.506,4.086c0.139,0.824 -1.085,1.57 -1.749,0.814c-1.656,-2.025 -4.148,-4.968 -1.757,-4.9Zm25.46,-3.279c0.646,0.037 1.12,0.74 0.896,1.358c-0.997,2.45 -2.503,5.899 -3.472,3.881c-0.454,-0.947 0.854,-2.945 1.635,-4.67c0.175,-0.348 0.534,-0.576 0.941,-0.569Zm-19.45,-1c1.196,0.072 1.766,2.572 2.529,4.448c0.325,0.896 -1.201,2.058 -1.836,0.789c-1.046,-2.31 -2.746,-5.279 -0.693,-5.237Zm9.448,-1.71c1.377,0.082 1.006,2.958 0.963,5.182c-0.06,1.016 -1.927,1.161 -1.998,0.002c-0.05,-2.352 -0.727,-5.218 1.035,-5.184Z" style="fill:#1b1b1a;"/><path id="Outline" d="M61.5,32.174c0,-16.178 -13.135,-29.313 -29.313,-29.313c-16.178,0 -29.313,13.135 -29.313,29.313c0,16.178 13.135,29.313 29.313,29.313c16.178,0 29.313,-13.135 29.313,-29.313Z" style="fill:none;stroke:#1b1b1a;stroke-width:3px;"/></g></svg>