<?xml version="1.0" encoding="UTF-8" standalone="no"?><!DOCTYPE svg PUBLIC "-//W3C//DTD SVG 1.1//EN" "http://www.w3.org/Graphics/SVG/1.1/DTD/svg11.dtd"><svg width="100%" height="100%" viewBox="0 0 64 64" version="1.1" xmlns="http://www.w3.org/2000/svg" xmlns:xlink="http://www.w3.org/1999/xlink" xml:space="preserve" xmlns:serif="http://www.serif.com/" style="fill-rule:evenodd;clip-rule:evenodd;stroke-miterlimit:10;"><g id="Habitats"><g id="Coastal"><g id="coastal-ecosystem" serif:id="coastal ecosystem"><path d="M40.212,18.951c-0.192,-0.173 -0.288,-0.483 -0.288,-0.483c0,0 0.527,0.064 0.639,0.505c0.153,-0.03 0.33,0.015 0.394,0.134c1.782,0.448 3.764,1.524 5.038,3.892c1.498,2.786 2.365,8.06 2.778,11.297c0.054,0.121 0.16,0.362 0.287,0.682c-0.029,-0.157 -0.057,-0.306 -0.085,-0.445c-0.128,-0.629 -0.227,-1.046 -0.227,-1.046c0,0 0.186,0.385 0.446,0.977c0.113,0.258 0.239,0.557 0.367,0.883c-0.071,-0.542 -0.134,-0.9 -0.134,-0.9c0,0 0.106,0.235 0.261,0.614c-0.144,-0.962 -0.266,-1.67 -0.266,-1.67c0,0 0.162,0.397 0.397,0.998c-0.212,-0.755 -0.461,-1.458 -0.68,-2.024c-0.16,-0.411 -0.297,-0.753 -0.398,-0.99c-0.098,-0.238 -0.155,-0.374 -0.155,-0.374c0,0 0.077,0.126 0.212,0.345c0.137,0.219 0.325,0.536 0.549,0.92c0.318,0.549 0.696,1.247 1.043,2.018c-0.093,-0.296 -0.19,-0.572 -0.28,-0.817c-0.132,-0.352 -0.244,-0.646 -0.327,-0.848c-0.082,-0.204 -0.129,-0.32 -0.129,-0.32c0,0 0.067,0.105 0.185,0.291c0.12,0.185 0.283,0.453 0.479,0.778c0.122,0.206 0.254,0.437 0.39,0.687c-0.186,-0.695 -0.392,-1.339 -0.579,-1.865c-0.147,-0.411 -0.276,-0.751 -0.374,-0.985c-0.097,-0.236 -0.152,-0.37 -0.152,-0.37c0,0 0.075,0.124 0.208,0.341c0.135,0.217 0.317,0.534 0.529,0.92c0.213,0.391 0.452,0.858 0.69,1.369c0.013,-0.111 0.025,-0.221 0.038,-0.332c-0.023,-0.098 -0.046,-0.193 -0.068,-0.283c-0.09,-0.36 -0.21,-0.645 -0.306,-0.841c-0.096,-0.196 -0.16,-0.304 -0.16,-0.304c0,0 0.082,0.094 0.214,0.271c0.108,0.144 0.246,0.351 0.38,0.613c0.212,-1.952 0.37,-3.892 0.412,-5.445c-0.051,0.003 -0.091,-0.04 -0.091,-0.04c0,0 -0.05,0.101 -0.163,0.131c-0.013,0.031 -0.055,0.04 -0.055,0.04c0,0 -0.037,0.107 -0.114,0.122c-0.008,-0.024 -0.004,-0.078 -0.004,-0.078c0,0 -0.017,0.034 -0.052,0.06c-0.018,0.146 -0.128,0.195 -0.128,0.195c0,0 -0.006,-0.029 0,-0.061c-0.233,0.145 -0.299,0.071 -0.299,0.071c0,0 0.027,-0.037 0.054,-0.06c-0.014,-0.008 -0.019,-0.017 -0.019,-0.017c0,0 0.044,-0.094 0.108,-0.096c0.039,-0.044 0.08,-0.079 0.08,-0.079c0,0 0.021,-0.043 0.053,-0.055c-0.021,-0.006 -0.067,-0.047 -0.067,-0.047c0,0 0.025,-0.064 0.075,-0.068c-0.024,-0.021 -0.032,-0.049 -0.032,-0.049c0,0 0.084,-0.066 0.197,-0.002c0.083,-0.118 0.161,-0.055 0.161,-0.055c0,0 0.05,-0.077 0.101,-0.054c0.101,-0.092 0.186,-0.024 0.186,-0.024c0,0 0.005,-0.004 0.013,-0.009c0.003,-0.107 0.005,-0.212 0.006,-0.315c-0.007,-0.008 -0.013,-0.016 -0.018,-0.025c-0.05,0.051 -0.137,0.02 -0.137,0.02c0,0 -0.053,0.058 -0.162,0.017c-0.068,0.064 -0.175,0.078 -0.175,0.078c0,0 -0.012,-0.065 0.046,-0.14c-0.094,0.048 -0.209,-0.053 -0.209,-0.053c0,0 0.007,-0.036 0.039,-0.046c-0.026,-0.016 -0.038,-0.06 -0.038,-0.06c0,0 0.194,-0.026 0.339,0.063c0.032,-0.016 0.247,0.027 0.247,0.027c0,0 -0.038,-0.06 -0.068,-0.128c-0.08,0.06 -0.184,0.012 -0.25,-0.082c-0.084,0.018 -0.145,-0.048 -0.145,-0.048c0,0 -0.083,0.166 -0.258,0.229c-0.023,0.051 -0.087,0.071 -0.087,0.071c0,0 -0.065,0.175 -0.183,0.21c-0.01,-0.038 0,-0.124 0,-0.124c0,0 -0.029,0.056 -0.084,0.102c-0.038,0.234 -0.209,0.326 -0.209,0.326c0,0 -0.008,-0.044 0.004,-0.096c-0.367,0.262 -0.463,0.153 -0.463,0.153c0,0 0.044,-0.062 0.088,-0.103c-0.021,-0.011 -0.029,-0.024 -0.029,-0.024c0,0 0.073,-0.156 0.172,-0.168c0.062,-0.075 0.128,-0.136 0.128,-0.136c0,0 0.034,-0.072 0.085,-0.095c-0.032,-0.006 -0.1,-0.065 -0.1,-0.065c0,0 0.043,-0.105 0.119,-0.119c-0.034,-0.029 -0.045,-0.073 -0.045,-0.073c0,0 0.001,-0.001 0.004,-0.004c-0.009,-0.046 -0.006,-0.11 -0.006,-0.11c0,0 -0.105,0.208 -0.236,0.208c0.007,-0.035 0.016,-0.074 0.016,-0.074c0,0 -0.092,0.103 -0.167,0.092c0.048,-0.31 0.224,-0.414 0.224,-0.414c0,0 -0.024,0.002 -0.026,-0.022c0.153,-0.292 0.316,-0.282 0.316,-0.282c0,0 0.007,-0.035 0.023,-0.051c-0.023,-0.001 -0.033,-0.033 -0.033,-0.033c0,0 0.02,-0.026 0.053,-0.06c-0.003,-0.018 -0.005,-0.039 -0.002,-0.059c-0.087,0.108 -0.178,0.106 -0.178,0.106c0,0 0.045,-0.232 0.124,-0.274c-0.023,-0.007 -0.043,-0.034 -0.043,-0.034c0,0 0.155,-0.216 0.303,-0.198c0.008,-0.03 0.039,-0.061 0.039,-0.061c0,0 -0.039,0.002 -0.092,-0.058c0.109,-0.252 0.265,-0.162 0.265,-0.162c0,0 0.045,-0.115 0.141,-0.173c-0.038,-0.001 -0.065,-0.039 -0.065,-0.039c0,0 -0.021,0.011 -0.047,0.032c-0.049,0.159 -0.119,0.147 -0.266,0.194c-0.139,0.185 -0.269,0.191 -0.269,0.191c0,0 0.001,-0.046 0.057,-0.108c-0.058,0.043 -0.097,0.046 -0.097,0.046c0,0 -0.132,0.251 -0.263,0.283c0.006,-0.048 0.024,-0.104 0.024,-0.104c0,0 -0.059,0.09 -0.208,0.14c-0.007,-0.038 0.007,-0.072 0.007,-0.072c0,0 -0.03,0.006 -0.063,-0.027c0.208,-0.505 0.478,-0.545 0.478,-0.545c0,0 0.04,-0.077 0.126,-0.096c0.142,-0.241 0.356,-0.182 0.356,-0.182c0,0 0.016,-0.022 0.064,-0.042c-0.038,0.008 -0.064,-0.017 -0.064,-0.017c0,0 0.01,-0.033 0.037,-0.048c-0.047,-0.011 -0.085,-0.071 -0.085,-0.071c0,0 0.138,-0.169 0.298,-0.049c-0.023,-0.023 -0.035,-0.052 -0.035,-0.052c0,0 0.088,-0.087 0.267,-0.027c0.16,-0.152 0.218,0.104 0.218,0.104c0,0 0.004,0.002 0.011,0.005c-0.037,-0.165 -0.079,-0.325 -0.125,-0.48c-0.059,-0.137 -0.168,-0.163 -0.168,-0.163c0,0 -0.27,0.002 -0.339,-0.144c-0.066,0.024 0.011,-0.028 0.011,-0.028c0,0 -0.196,0.02 -0.376,-0.047c-0.032,0.018 -0.052,0.031 -0.052,0.031c0,0 -0.123,0.276 -0.301,0.29c-0.042,0.201 -0.286,0.28 -0.286,0.28c0,0 0.124,-0.22 0.199,-0.338c-0.033,0.011 -0.046,0.003 -0.046,0.003c0,0 -0.099,0.138 -0.256,0.135c-0.156,-0.002 -0.249,0.073 -0.249,0.073c0.068,-0.111 0.14,-0.177 0.206,-0.215c-0.098,0.041 -0.205,0.039 -0.302,0.072c0.009,-0.053 0.036,-0.12 0.036,-0.12c0,0 -0.037,0.019 -0.099,-0.026c0.068,-0.181 0.259,-0.339 0.425,-0.372c0.023,-0.15 0.098,-0.194 0.11,-0.293c-0.086,0.1 -0.224,0.13 -0.224,0.13c0,0 0.018,-0.058 0.121,-0.141c-0.141,0.064 -0.236,0.052 -0.236,0.052c0,0 0.249,-0.179 0.437,-0.177c0.149,-0.168 0.293,-0.199 0.293,-0.199c0,0 -0.038,-0.03 -0.066,-0.068c0.013,-0.024 0.031,-0.044 0.031,-0.044c0,0 -0.094,0.036 -0.166,0.019c-0.118,0.135 -0.327,0.147 -0.327,0.147c0,0 -0.035,0.068 -0.112,0.112c-0.002,-0.049 0.017,-0.097 0.017,-0.097c0,0 -0.065,0.085 -0.126,0.137c-0.051,0.277 -0.313,0.509 -0.313,0.509c0,0 -0.058,-0.2 0.056,-0.405c-0.046,0.01 -0.053,-0.026 -0.053,-0.026c0,0 0.033,-0.116 0.139,-0.177c-0.065,0.008 -0.116,-0.035 -0.116,-0.035c0,0 0.06,-0.121 0.18,-0.229c-0.124,0.1 -0.251,0.2 -0.41,0.165c0.047,-0.179 0.142,-0.271 0.142,-0.271c0,0 -0.19,0.118 -0.306,0.056c0.12,-0.358 0.346,-0.326 0.346,-0.326c0,0 -0.109,-0.036 -0.182,-0.091c0.061,-0.117 0.273,-0.353 0.43,-0.343c0.257,-0.247 0.422,-0.177 0.391,-0.194c-0.027,-0.015 -0.179,-0.07 -0.179,-0.07c0,0 0.265,-0.069 0.401,-0.044c0,0 0.025,0.019 0.068,0.058c-0.154,-0.191 -0.313,-0.364 -0.474,-0.522c-0.006,0.004 -0.013,0.007 -0.021,0.009c-0.11,0.196 -0.223,0.074 -0.223,0.074c0,0 -0.061,0.121 -0.188,0.167c-0.017,0.037 -0.064,0.052 -0.064,0.052c0,0 -0.047,0.127 -0.133,0.153c-0.008,-0.028 0,-0.09 0,-0.09c0,0 -0.021,0.04 -0.061,0.074c-0.028,0.17 -0.153,0.238 -0.153,0.238c0,0 -0.005,-0.032 0.003,-0.07c-0.267,0.191 -0.338,0.111 -0.338,0.111c0,0 0.032,-0.045 0.065,-0.075c-0.016,-0.007 -0.022,-0.017 -0.022,-0.017c0,0 0.054,-0.114 0.126,-0.122c0.045,-0.055 0.093,-0.1 0.093,-0.1c0,0 0.025,-0.052 0.062,-0.069c-0.023,-0.004 -0.073,-0.048 -0.073,-0.048c0,0 0.032,-0.076 0.087,-0.086c-0.025,-0.022 -0.033,-0.054 -0.033,-0.054c0,0 0.097,-0.084 0.221,-0.021c0.098,-0.145 0.181,-0.08 0.181,-0.08c0,0 0.061,-0.094 0.117,-0.072c0.116,-0.116 0.208,-0.045 0.208,-0.045c0,0 0.016,-0.018 0.045,-0.027c-0.16,-0.151 -0.321,-0.286 -0.479,-0.407c-0.034,0.013 -0.102,0.033 -0.168,0.02c-0.08,0.056 -0.206,0.066 -0.206,0.066c0,0 -0.14,0.034 -0.212,-0.013c-0.08,0.044 -0.162,0.041 -0.162,0.041c0,0 -0.168,0.197 -0.446,0.164c0.053,-0.152 0.159,-0.205 0.159,-0.205c0,0 -0.019,-0.038 0.011,-0.07c0.042,0.016 0.208,-0.092 0.208,-0.092c0,0 -0.044,-0.001 -0.065,-0.022c0.056,-0.059 0.191,-0.12 0.191,-0.12c0,0 -0.135,-0.012 -0.198,-0.138c-0.255,0.045 -0.361,-0.109 -0.361,-0.109c0,0 0.016,-0.055 0.098,-0.088c-0.036,0.007 -0.076,-0.015 -0.076,-0.015c0,0 -0.063,0.071 -0.148,0.074c-0.104,0.162 -0.255,0.143 -0.373,0.013c0.059,-0.065 0.176,-0.079 0.176,-0.079c0,0 -0.12,-0.052 -0.188,-0.094c0.017,-0.046 0.066,-0.103 0.066,-0.103c0,0 -0.187,0.123 -0.361,-0.01c0.007,-0.038 0.032,-0.074 0.032,-0.074c0,0 -0.031,-0.014 -0.032,-0.061c0.029,-0.032 0.073,-0.042 0.073,-0.042c0,0 -0.011,-0.028 0.023,-0.056c0.147,-0.048 0.378,0.052 0.378,0.052c0,0 0.069,-0.009 0.133,-0.008c0,0 0.404,0.125 1.032,0.461c0.184,-0.081 0.215,0.166 0.215,0.166c0,0 0.038,0.039 0.101,0.077c-0.07,-0.162 -0.063,-0.407 -0.063,-0.407c0,0 0.241,0.166 0.221,0.487c0.093,0.018 0.185,0.116 0.164,0.238c0.115,0.094 0.231,0.195 0.347,0.305c0.025,0.006 0.057,0.018 0.097,0.043c-0.025,-0.037 -0.04,-0.084 -0.04,-0.084c0,0 0.101,0.017 0.153,0.093l0.004,0.083c0,0 -0.034,0.005 -0.071,-0.03c-0.012,0.004 -0.024,0.003 -0.035,0.001c0.398,0.398 0.786,0.897 1.118,1.517c0.064,0.112 0.128,0.234 0.19,0.366c-0.002,0.002 -0.004,0.003 -0.005,0.004c0.06,0.13 0.117,0.265 0.172,0.404c0.022,0.025 0.044,0.053 0.066,0.084c-0.007,0.006 -0.017,0.011 -0.028,0.016c0.235,0.623 0.414,1.34 0.508,2.165c0.054,0.477 0.082,1.011 0.088,1.581c0.029,0.011 0.086,0.036 0.121,0.086l0.007,0.072c0,0 -0.03,0.002 -0.065,-0.031c-0.023,0.004 -0.047,-0.007 -0.062,-0.017c0.011,1.82 -0.188,4 -0.426,5.937c0.297,0.672 0.656,1.528 0.973,2.423c0.035,0.096 0.068,0.192 0.101,0.289c0.016,-0.003 0.032,-0.006 0.049,-0.008c-0.001,-0.029 -0.002,-0.056 -0.004,-0.081c-0.005,-0.124 -0.008,-0.194 -0.008,-0.194c0,0 0.021,0.055 0.059,0.153c-0.033,-0.253 -0.072,-0.488 -0.115,-0.695c-0.062,-0.274 -0.112,-0.507 -0.169,-0.662c-0.05,-0.158 -0.08,-0.248 -0.08,-0.248c0,0 0.051,0.08 0.138,0.222c0.009,0.013 0.017,0.026 0.026,0.039c-0.101,-0.334 -0.21,-0.642 -0.323,-0.907c-0.146,-0.324 -0.269,-0.6 -0.384,-0.775c-0.108,-0.181 -0.17,-0.284 -0.17,-0.284c0,0 0.08,0.09 0.221,0.247c0.15,0.153 0.324,0.402 0.536,0.703c0.27,0.4 0.552,0.919 0.816,1.49c-0.127,-0.631 -0.277,-1.216 -0.455,-1.675c-0.133,-0.353 -0.283,-0.632 -0.398,-0.822c-0.117,-0.188 -0.195,-0.29 -0.195,-0.29c0,0 0.095,0.086 0.246,0.253c0.149,0.168 0.352,0.422 0.554,0.758c0.237,0.387 0.467,0.873 0.686,1.405c-0.014,-0.051 -0.029,-0.101 -0.043,-0.15c-0.038,-0.146 -0.089,-0.272 -0.129,-0.388c-0.038,-0.117 -0.08,-0.215 -0.116,-0.295c-0.071,-0.162 -0.112,-0.254 -0.112,-0.254c0,0 0.061,0.081 0.167,0.223c0.055,0.07 0.118,0.158 0.183,0.265c0.066,0.105 0.147,0.222 0.218,0.359c0.068,0.117 0.136,0.246 0.203,0.384c-0.034,-0.266 -0.066,-0.512 -0.094,-0.727c-0.027,-0.065 -0.053,-0.128 -0.078,-0.19c-0.263,-0.635 -0.438,-1.057 -0.438,-1.057c0,0 0.169,0.249 0.438,0.649c-0.024,-0.189 -0.038,-0.297 -0.038,-0.297c0,0 0.07,0.194 0.187,0.517l0.053,0.079c0.295,0.436 0.67,0.996 1.002,1.632c-0.072,-0.481 -0.151,-0.93 -0.237,-1.291c-0.074,-0.299 -0.163,-0.542 -0.239,-0.706c-0.076,-0.164 -0.13,-0.254 -0.13,-0.254c0,0 0.072,0.075 0.184,0.222c0.113,0.146 0.257,0.371 0.401,0.658c0.106,0.219 0.215,0.466 0.325,0.734c0.007,-0.026 0.014,-0.051 0.021,-0.076c-0.03,-0.113 -0.059,-0.22 -0.088,-0.322c-0.081,-0.284 -0.15,-0.52 -0.203,-0.685c-0.051,-0.165 -0.08,-0.259 -0.08,-0.259c0,0 0.05,0.085 0.138,0.234c0.088,0.145 0.207,0.354 0.35,0.608c0.028,-0.106 0.057,-0.211 0.085,-0.316c-0.068,-0.243 -0.145,-0.478 -0.233,-0.702c-0.186,-0.478 -0.423,-0.906 -0.629,-1.276c-0.417,-0.737 -0.67,-1.239 -0.67,-1.239c0,0 0.331,0.452 0.862,1.111c0.262,0.331 0.575,0.725 0.856,1.199c0.012,0.02 0.024,0.04 0.036,0.061c0.035,-0.14 0.07,-0.278 0.105,-0.416c-0.037,-0.139 -0.074,-0.272 -0.11,-0.397c-0.108,-0.368 -0.2,-0.674 -0.27,-0.886c-0.068,-0.213 -0.107,-0.335 -0.107,-0.335c0,0 0.06,0.113 0.166,0.31c0.107,0.197 0.253,0.482 0.426,0.828c0.003,0.005 0.006,0.011 0.008,0.016c0.197,-0.815 0.369,-1.599 0.501,-2.31c-0.057,0.034 -0.149,0.006 -0.149,0.006c0,0 -0.061,0.043 -0.182,0.005c-0.078,0.047 -0.198,0.053 -0.198,0.053c0,0 -0.012,-0.053 0.054,-0.109c-0.106,0.034 -0.234,-0.054 -0.234,-0.054c0,0 0.008,-0.028 0.044,-0.034c-0.029,-0.014 -0.041,-0.05 -0.041,-0.05c0,0 0.218,-0.011 0.379,0.068c0.036,-0.011 0.276,0.034 0.276,0.034c0,0 -0.041,-0.049 -0.074,-0.105c-0.155,0.073 -0.379,-0.102 -0.349,-0.277c0.084,0.018 0.231,0.098 0.291,0.192c0.073,0.027 0.1,0.083 0.1,0.083c0,0 -0.007,-0.031 0.008,-0.05c0.038,0.026 0.073,0.064 0.1,0.1c0.05,-0.273 0.093,-0.535 0.13,-0.782c-0.02,-0.008 -0.033,-0.016 -0.033,-0.016c0,0 -0.034,0.067 -0.104,0.077c-0.174,0.206 -0.344,0.064 -0.344,0.064c0,0 -0.096,0.128 -0.293,0.169c-0.026,0.04 -0.099,0.052 -0.099,0.052c0,0 -0.074,0.136 -0.207,0.158c-0.012,-0.031 0.001,-0.099 0.001,-0.099c0,0 -0.034,0.043 -0.095,0.077c-0.046,0.184 -0.24,0.249 -0.24,0.249c0,0 -0.007,-0.036 0.007,-0.077c-0.415,0.19 -0.522,0.098 -0.522,0.098c0,0 0.05,-0.047 0.1,-0.077c-0.023,-0.01 -0.032,-0.021 -0.032,-0.021c0,0 0.084,-0.12 0.195,-0.124c0.071,-0.057 0.146,-0.102 0.146,-0.102c0,0 0.039,-0.056 0.096,-0.072c-0.035,-0.006 -0.111,-0.056 -0.111,-0.056c0,0 0.05,-0.082 0.135,-0.089c-0.038,-0.025 -0.05,-0.061 -0.05,-0.061c0,0 0.151,-0.085 0.339,-0.007c0.154,-0.151 0.281,-0.074 0.281,-0.074c0,0 0.095,-0.099 0.18,-0.071c0.181,-0.118 0.321,-0.034 0.321,-0.034c0,0 0.061,-0.044 0.165,-0.023c-0.045,-0.022 -0.057,-0.053 -0.057,-0.053c0,0 0.07,-0.025 0.23,0.048l0,-0.002l0.002,-0.011c-0.027,-0.037 -0.042,-0.072 -0.042,-0.072c0,0 0.02,0.003 0.051,0.012c0.027,-0.195 0.049,-0.38 0.067,-0.554c-0.044,-0.012 -0.084,-0.029 -0.084,-0.029c0,0 -0.08,0.045 -0.159,0.01c-0.014,0.028 -0.055,0.052 -0.16,0.073c-0.061,0.044 -0.197,0.093 -0.197,0.093c0,0 -0.027,0.103 -0.083,0.134c-0.054,0.03 -0.182,0.086 -0.182,0.086c0,0 -0.012,-0.031 0.007,-0.089c-0.062,0.073 -0.141,0.088 -0.141,0.088c0,0 -0.038,0.078 -0.147,0.11c-0.048,0.066 -0.113,0.115 -0.113,0.115c0,0 -0.029,0.089 -0.161,0.15c-0.015,-0.038 -0.01,-0.102 -0.01,-0.102c0,0 -0.12,0.16 -0.267,0.154c0.008,-0.028 0.019,-0.059 0.019,-0.059c0,0 -0.105,0.078 -0.188,0.065c0.057,-0.245 0.257,-0.318 0.257,-0.318c0,0 -0.028,0.001 -0.03,-0.019c0.176,-0.225 0.358,-0.208 0.358,-0.208c0,0 0.008,-0.028 0.027,-0.04c-0.025,-0.002 -0.036,-0.028 -0.036,-0.028c0,0 0.129,-0.114 0.289,-0.136c0.084,-0.125 0.275,-0.101 0.275,-0.101c0,0 0.108,-0.054 0.277,-0.047c-0.078,-0.026 -0.132,-0.111 -0.132,-0.111c0,0 0.189,-0.082 0.313,0.05c0.126,-0.019 0.27,0.059 0.27,0.059c0,0 -0.087,-0.059 -0.138,-0.142c0.046,0.004 0.104,0.036 0.152,0.07c0.008,-0.092 0.014,-0.18 0.019,-0.264c-0.041,-0.033 -0.074,-0.083 -0.085,-0.128c-0.064,-0.032 -0.137,0.067 -0.29,-0.057c-0.04,0.046 -0.146,0.084 -0.235,0.05c-0.045,0.098 -0.099,0.104 -0.214,0.16c-0.018,-0.057 0.01,-0.121 0.01,-0.121c0,0 -0.028,0.03 -0.057,0.045c0.087,0.22 -0.181,0.352 -0.181,0.352c0,0 -0.017,-0.036 -0.014,-0.085c-0.054,0.148 -0.1,0.156 -0.152,0.223c0,0 -0.042,-0.055 -0.029,-0.105c-0.1,0.082 -0.202,0.075 -0.202,0.075c0,0 0.054,-0.182 0.143,-0.212c-0.025,-0.007 -0.048,-0.029 -0.048,-0.029c0,0 0.177,-0.164 0.343,-0.142c0.009,-0.023 0.045,-0.047 0.045,-0.047c0,0 -0.045,0 -0.103,-0.05c0.125,-0.196 0.299,-0.116 0.299,-0.116c0,0 0.052,-0.089 0.16,-0.13c-0.043,-0.003 -0.072,-0.034 -0.072,-0.034c0,0 -0.023,0.007 -0.053,0.023c-0.057,0.124 -0.135,0.11 -0.301,0.14c-0.159,0.14 -0.304,0.138 -0.304,0.138c0,0 0.002,-0.037 0.065,-0.083c-0.065,0.032 -0.11,0.032 -0.11,0.032c0,0 -0.15,0.193 -0.298,0.211c0.007,-0.038 0.028,-0.082 0.028,-0.082c0,0 -0.067,0.069 -0.235,0.102c-0.007,-0.031 0.009,-0.058 0.009,-0.058c0,0 -0.034,0.004 -0.07,-0.024c0.239,-0.392 0.543,-0.41 0.543,-0.41c0,0 0.046,-0.059 0.143,-0.069c0.162,-0.185 0.402,-0.127 0.402,-0.127c0,0 0.017,-0.017 0.072,-0.03c-0.044,0.005 -0.071,-0.017 -0.071,-0.017c0,0 0.011,-0.026 0.041,-0.036c-0.053,-0.012 -0.095,-0.061 -0.095,-0.061c0,0 0.158,-0.128 0.335,-0.024c-0.025,-0.019 -0.038,-0.042 -0.038,-0.042c0,0 0.1,-0.065 0.3,-0.008c0.182,-0.113 0.243,0.094 0.243,0.094c0,0 0.036,0.009 0.075,0.04c-0.003,-0.029 -0.005,-0.057 -0.009,-0.085c-0.025,-0.217 -0.058,-0.425 -0.1,-0.624c-0.037,0.079 -0.123,0.176 -0.19,0.173c-0.087,-0.003 -0.321,0.098 -0.321,0.098c0,0 -0.157,0.03 -0.328,0.031c-0.042,0.135 -0.276,0.177 -0.276,0.177c0,0 0.121,-0.143 0.194,-0.22c-0.031,0.006 -0.092,-0.037 -0.092,-0.037c0,0 -0.049,0.126 -0.198,0.117c-0.149,-0.008 -0.239,0.038 -0.239,0.038c0.204,-0.221 0.437,-0.155 0.437,-0.155c0,0 0.14,-0.081 0.32,-0.078c-0.197,-0.13 -0.068,-0.222 -0.068,-0.222c0,0 0.173,0.105 0.294,0.109c0.09,0.003 0.242,-0.05 0.366,-0.077c-0.058,-0.026 -0.125,-0.058 -0.193,-0.091c-0.011,0.062 -0.022,0.095 -0.037,0.066c-0.036,0.054 -0.23,-0.111 -0.396,-0.267c-0.041,0.01 -0.146,0.023 -0.302,-0.057c0.038,-0.054 0.119,-0.084 0.149,-0.093c-0.003,-0.003 -0.006,-0.006 -0.009,-0.009c-0.023,-0.006 -0.067,-0.021 -0.12,-0.051c-0.031,0.024 -0.083,0.052 -0.159,0.055c-0.17,0.269 -0.479,0.18 -0.479,0.18c0,0 0.01,-0.034 0.054,-0.062c-0.048,0.011 -0.066,-0.009 -0.066,-0.009c0,0 -0.114,0.146 -0.366,0.15c-0.211,0.279 -0.467,0.245 -0.7,0.32c0.02,-0.054 0.063,-0.125 0.063,-0.125c0,0 -0.051,0.023 -0.128,-0.016c0.153,-0.255 0.601,-0.488 0.823,-0.411c0.138,-0.155 0.312,-0.082 0.312,-0.082c0,0 -0.046,-0.05 -0.054,-0.133c0.045,0.036 0.149,0.048 0.149,0.048c0,0 0.078,-0.064 0.113,-0.009c0.312,-0.255 0.528,-0.141 0.528,-0.141c0,0 0.093,-0.046 0.179,-0.027c-0.052,-0.027 -0.084,-0.066 -0.084,-0.066c0,0 0.35,-0.108 0.65,0.237c-0.029,0.019 -0.051,0.086 -0.068,0.168c0.052,0.011 0.079,0.017 0.089,0.019c0.006,0.008 0.035,0.048 0.07,0.102c-0.125,-0.462 -0.292,-0.865 -0.486,-1.215c-0.012,-0.001 -0.019,-0.002 -0.019,-0.002c0,0 -0.17,0.058 -0.216,0.007c-0.113,0.02 -0.214,-0.033 -0.214,-0.033c0,0 0.077,-0.06 0.19,-0.087c-0.028,0.004 -0.052,0.002 -0.069,-0.002c-0.018,-0.003 -0.037,-0.001 -0.053,0.006c-0.02,0.01 -0.054,0.022 -0.111,0.029c-0.081,0.052 -0.16,0.081 -0.208,0.095c-0.026,0.008 -0.047,0.027 -0.057,0.054c-0.02,0.054 -0.066,0.142 -0.154,0.15c-0.013,-0.032 -0.011,-0.087 -0.011,-0.087c0,0 -0.056,0.067 -0.215,0.043c0.032,-0.103 0.108,-0.122 0.127,-0.189c-0.089,0.057 -0.221,0.059 -0.221,0.059c0,0 0.02,-0.037 0.124,-0.079c-0.138,0.024 -0.227,0.003 -0.227,0.003c0,0 0.224,-0.079 0.398,-0.064c0.019,0.001 0.037,-0.003 0.053,-0.012c0.144,-0.08 0.268,-0.082 0.268,-0.082c0,0 -0.034,-0.025 -0.057,-0.054c0.014,-0.014 0.031,-0.026 0.031,-0.026c0,0 -0.068,0.01 -0.13,-0.002c-0.02,-0.003 -0.039,0.001 -0.057,0.01c-0.09,0.041 -0.204,0.044 -0.259,0.042c-0.02,-0.001 -0.038,0.005 -0.054,0.016c-0.019,0.014 -0.05,0.032 -0.093,0.042c0.002,-0.033 0.023,-0.062 0.023,-0.062c0,0 -0.049,0.036 -0.102,0.062c-0.018,0.01 -0.031,0.025 -0.039,0.042c-0.028,0.054 -0.072,0.102 -0.118,0.142c-0.084,0.072 -0.202,-0.05 -0.125,-0.13c0.002,-0.002 0.003,-0.003 0.004,-0.004c-0.044,0.001 -0.049,-0.025 -0.049,-0.025c0,0 0.041,-0.074 0.146,-0.101c-0.063,-0.003 -0.108,-0.039 -0.108,-0.039c0,0 0.066,-0.073 0.187,-0.131c-0.063,0.026 -0.128,0.052 -0.195,0.066c-0.096,0.018 -0.146,-0.114 -0.063,-0.165c0.007,-0.005 0.012,-0.007 0.012,-0.007c0,0 -0.03,0.008 -0.073,0.015c-0.102,0.017 -0.148,-0.129 -0.053,-0.17c0.098,-0.043 0.183,-0.022 0.183,-0.022c0,0 -0.014,-0.005 -0.035,-0.015c-0.067,-0.029 -0.074,-0.122 -0.012,-0.159c0.086,-0.051 0.198,-0.096 0.289,-0.09c0.016,0.001 0.033,-0.001 0.048,-0.008c0.248,-0.117 0.389,-0.053 0.362,-0.068c-0.025,-0.014 -0.165,-0.071 -0.165,-0.071c0,0 0.139,-0.006 0.263,0.005c-0.263,-0.244 -0.536,-0.431 -0.797,-0.567c-0.024,0.001 -0.051,0 -0.077,-0.004c-0.082,0.035 -0.207,0.036 -0.207,0.036c0,0 -0.141,0.018 -0.213,-0.018c-0.081,0.027 -0.163,0.021 -0.163,0.021c0,0 -0.171,0.133 -0.45,0.096c0.056,-0.105 0.163,-0.139 0.163,-0.139c0,0 -0.019,-0.027 0.011,-0.049c0.043,0.014 0.211,-0.056 0.211,-0.056c0,0 -0.045,-0.002 -0.066,-0.019c0.058,-0.039 0.193,-0.076 0.193,-0.076c0,0 -0.084,-0.009 -0.149,-0.058c-0.021,-0.004 -0.041,-0.007 -0.061,-0.01c-0.033,-0.004 -0.048,-0.021 -0.047,-0.037c-0.212,0 -0.3,-0.097 -0.3,-0.097c0,0 0.016,-0.038 0.099,-0.058c-0.037,0.004 -0.076,-0.014 -0.076,-0.014c0,0 -0.064,0.047 -0.149,0.046c-0.107,0.11 -0.258,0.09 -0.375,-0.008c0.061,-0.044 0.178,-0.049 0.178,-0.049c0,0 -0.12,-0.042 -0.188,-0.075c0.018,-0.032 0.068,-0.07 0.068,-0.07c0,0 -0.189,0.079 -0.362,-0.024c0.007,-0.027 0.033,-0.052 0.033,-0.052c0,0 -0.031,-0.011 -0.032,-0.044c0.03,-0.022 0.074,-0.027 0.074,-0.027c0,0 -0.01,-0.021 0.024,-0.039c0.148,-0.027 0.378,0.055 0.378,0.055c0,0 0.07,-0.004 0.133,0.001c0,0 0.404,0.108 1.03,0.376c0.185,-0.05 0.214,0.128 0.214,0.128c0,0 0.037,0.029 0.101,0.059c-0.069,-0.118 -0.06,-0.292 -0.06,-0.292c0,0 0.24,0.129 0.217,0.357c0.098,0.018 0.195,0.1 0.156,0.193c-0.002,0 -0.005,0.001 -0.007,0.001c1.007,0.59 2.078,1.876 2.154,4.341c0.005,0.008 0.008,0.013 0.008,0.013l-0.002,0.025c-0.001,-0.004 -0.003,-0.007 -0.005,-0.01c0.001,0.012 0.001,0.025 0.001,0.037c0.001,0.037 0.002,0.075 0.002,0.113c0.006,0.006 0.013,0.013 0.02,0.02c-0.007,0.006 -0.013,0.011 -0.02,0.014c0,0.109 -0.002,0.221 -0.006,0.336c0.014,0.007 0.031,0.015 0.046,0.024l-0.009,0.023c0,0 -0.017,-0.014 -0.038,-0.028c-0.009,0.222 -0.027,0.456 -0.052,0.699c0.003,0.003 0.006,0.007 0.01,0.01l0.005,0.091c0,0 -0.01,0 -0.026,-0.002c-0.105,0.944 -0.318,2.019 -0.577,3.096c0.026,0.049 0.216,0.415 0.475,0.96c0.094,0.201 0.196,0.427 0.301,0.671c-0.029,-0.216 -0.05,-0.343 -0.05,-0.343c0,0 0.143,0.307 0.333,0.785c0.05,0.127 0.103,0.265 0.158,0.413c-0.048,-0.296 -0.1,-0.572 -0.146,-0.811c-0.103,-0.515 -0.171,-0.858 -0.171,-0.858c0,0 0.155,0.314 0.39,0.785c0.076,0.158 0.161,0.333 0.249,0.523c-0.1,-1.013 -0.239,-1.809 -0.239,-1.809c0,0 0.146,0.325 0.348,0.83c-0.062,-0.429 -0.101,-0.704 -0.101,-0.704c0,0 0.137,0.317 0.344,0.793c0.07,0.162 0.147,0.342 0.23,0.535c-0.016,-0.074 -0.032,-0.148 -0.049,-0.222c-0.224,-0.973 -0.604,-1.93 -0.883,-2.643c-0.288,-0.712 -0.478,-1.185 -0.478,-1.185c0,0 0.272,0.431 0.684,1.081c0.325,0.529 0.746,1.2 1.119,1.958c-0.047,-0.329 -0.094,-0.634 -0.137,-0.899c-0.096,-0.581 -0.169,-0.965 -0.169,-0.965c0,0 0.161,0.356 0.39,0.901c0.155,0.37 0.34,0.829 0.528,1.32c-0.063,-0.53 -0.148,-1.029 -0.229,-1.434c-0.062,-0.3 -0.114,-0.55 -0.156,-0.724c-0.04,-0.174 -0.063,-0.273 -0.063,-0.273c0,0 0.045,0.092 0.123,0.253c0.079,0.16 0.187,0.392 0.316,0.674c0.175,0.389 0.378,0.879 0.567,1.413c-0.001,-0.094 -0.002,-0.184 -0.004,-0.269c-0.013,-0.421 -0.021,-0.701 -0.021,-0.701c0,0 0.059,0.158 0.155,0.414c-0.003,-0.029 -0.007,-0.057 -0.01,-0.085c-0.05,-0.37 -0.092,-0.712 -0.189,-0.973c-0.097,-0.263 -0.251,-0.465 -0.35,-0.606c-0.104,-0.14 -0.163,-0.22 -0.163,-0.22c0,0 0.076,0.064 0.21,0.177c0.13,0.116 0.328,0.276 0.508,0.543c0.178,0.272 0.301,0.613 0.436,0.967c0.037,0.097 0.073,0.198 0.108,0.3c-0.015,-0.162 -0.032,-0.317 -0.045,-0.452c-0.02,-0.238 -0.116,-0.428 -0.172,-0.568c-0.058,-0.137 -0.091,-0.215 -0.091,-0.215c0,0 0.053,0.067 0.146,0.183c0.087,0.117 0.241,0.282 0.34,0.541c0.095,0.248 0.203,0.512 0.311,0.836c0.105,0.318 0.182,0.675 0.228,1.039c0.041,0.33 0.053,0.66 0.051,0.973c0.002,0.003 0.004,0.007 0.006,0.01c0.066,0.096 0.043,0.416 -0.048,0.901c-0.003,0.043 -0.006,0.085 -0.009,0.125c-0.026,0.326 -0.046,0.584 -0.059,0.748c0.002,0.097 0.002,0.157 0.001,0.173c-0.008,0.097 -0.096,0.178 -0.231,0.23c-0.504,1.904 -1.44,4.734 -2.439,7.233c-0.924,2.314 -5.3,7.981 -5.3,8.304c-2.076,1.852 -3.55,3.397 -5.667,4.592c-2.392,1.349 -8.345,3.501 -8.68,3.501l-13.055,0c-0.334,0 -7.216,-2.301 -10.468,-4.736l-1.251,-0.981c-0.029,-0.002 -0.058,-0.004 -0.087,-0.005c-0.327,-0.018 -0.219,-0.206 -0.219,-0.206l0.035,-0.002l-0.379,-0.297c-0.1,-0.007 -0.159,-0.012 -0.159,-0.012l-0.189,-0.261l-0.569,-0.446c-0.04,0 -0.078,-0.001 -0.115,-0.001c0,0 -0.798,-0.664 -0.721,-0.655l-0.033,-0.025c-0.05,-0.074 -0.105,-0.148 -0.163,-0.223c-0.14,-0.023 -0.245,-0.161 -0.194,-0.164c0.02,-0.001 0.04,-0.001 0.06,-0.002c-0.061,-0.073 -0.122,-0.147 -0.183,-0.22c-0.133,-0.046 -0.233,-0.14 -0.155,-0.19c-0.019,-0.024 -0.037,-0.048 -0.056,-0.072c-0.142,-0.187 -0.287,-0.372 -0.433,-0.554c-0.048,-0.004 -0.093,-0.008 -0.137,-0.012c-0.079,-0.007 -0.267,-0.145 -0.149,-0.165c0.04,-0.006 0.082,-0.013 0.127,-0.02c-0.02,-0.024 -0.039,-0.047 -0.058,-0.07c-0.055,0.008 -0.166,0.008 -0.275,-0.075c-0.076,-0.058 -0.134,-0.144 -0.174,-0.259c-0.022,0.001 -0.043,0.002 -0.065,0.003c0,0 -0.419,-0.434 -0.127,-0.408c0.009,0.001 0.017,0.002 0.026,0.003c-0.198,-0.234 -0.388,-0.454 -0.561,-0.655c-0.064,-0.004 -0.13,-0.008 -0.198,-0.013c0.052,-0.006 0.109,-0.012 0.17,-0.019c-0.186,-0.216 -0.352,-0.41 -0.489,-0.575c-0.25,-0.007 -0.114,-0.118 -0.114,-0.118l0.016,-0.001c-0.243,-0.302 -0.357,-0.48 -0.263,-0.48l17.504,0c0.827,-0.34 1.639,-1.215 2.603,-2.26c0.972,-1.054 2.073,-2.248 3.55,-3.335c1.724,-1.269 3.63,-2.396 5.326,-3.279c-0.245,-0.248 -0.53,-0.533 -0.861,-0.744c-0.377,-0.241 -0.842,-0.417 -1.181,-0.55c-0.344,-0.131 -0.572,-0.218 -0.572,-0.218c0,0 0.245,-0.003 0.613,-0.009c0.37,0.001 0.864,-0.013 1.401,0.089c0.104,0.02 0.206,0.044 0.306,0.072c-0.463,-0.299 -0.962,-0.548 -1.341,-0.753c-0.477,-0.255 -0.793,-0.424 -0.793,-0.424c0,0 0.349,0.083 0.874,0.208c0.47,0.118 1.084,0.238 1.726,0.471c-0.026,-0.033 -0.052,-0.067 -0.079,-0.101c-0.419,-0.537 -0.854,-1.056 -1.2,-1.428c-0.174,-0.183 -0.319,-0.339 -0.428,-0.439c-0.108,-0.103 -0.169,-0.161 -0.169,-0.161c0,0 0.075,0.04 0.206,0.11c0.134,0.068 0.316,0.179 0.538,0.312c0.385,0.238 0.871,0.569 1.361,0.927c-0.288,-0.411 -0.571,-0.794 -0.807,-1.093c-0.156,-0.191 -0.286,-0.353 -0.383,-0.459c-0.095,-0.109 -0.15,-0.172 -0.15,-0.172c0,0 0.07,0.045 0.192,0.124c0.12,0.074 0.281,0.188 0.478,0.326c-0.612,-0.634 -1.241,-1.236 -1.731,-1.663c-0.284,-0.233 -0.556,-0.379 -0.764,-0.436c-0.103,-0.031 -0.188,-0.045 -0.246,-0.051c-0.058,-0.005 -0.089,-0.008 -0.089,-0.008c0,0 0.031,-0.003 0.09,-0.009c0.059,-0.004 0.146,-0.006 0.258,0.005c0.223,0.019 0.539,0.119 0.879,0.308c0.337,0.199 0.717,0.439 1.119,0.707c-0.43,-0.441 -0.849,-0.837 -1.212,-1.161c-0.326,-0.289 -0.603,-0.525 -0.802,-0.684c-0.197,-0.16 -0.31,-0.251 -0.31,-0.251c0,0 0.126,0.072 0.346,0.199c0.223,0.126 0.534,0.316 0.905,0.553c0.677,0.435 1.544,1.044 2.381,1.744c-0.519,-0.614 -1.08,-1.16 -1.535,-1.575c-0.286,-0.257 -0.526,-0.47 -0.697,-0.615c-0.17,-0.146 -0.267,-0.23 -0.267,-0.23c0,0 0.11,0.065 0.304,0.179c0.195,0.111 0.469,0.279 0.799,0.482c0.518,0.326 1.168,0.761 1.808,1.288c-0.41,-0.57 -0.827,-1.085 -1.184,-1.502c-0.288,-0.334 -0.53,-0.612 -0.704,-0.802c-0.172,-0.191 -0.27,-0.301 -0.27,-0.301c0,0 0.113,0.093 0.314,0.255c0.201,0.162 0.484,0.398 0.823,0.686c0.436,0.372 0.957,0.842 1.483,1.38c-0.328,-0.579 -0.555,-0.964 -0.555,-0.964c0,0 1.006,1.08 2.047,2.297c-0.154,-0.385 -0.3,-0.743 -0.427,-1.047c-0.252,-0.603 -0.43,-1 -0.43,-1c0,0 0.257,0.35 0.632,0.889c0.188,0.271 0.406,0.59 0.636,0.935c-0.251,-0.717 -0.534,-1.396 -0.771,-1.919c-0.281,-0.616 -0.486,-1.018 -0.486,-1.018c0,0 0.069,0.089 0.19,0.245c0.123,0.156 0.292,0.382 0.494,0.657c0.351,0.482 0.788,1.123 1.2,1.815c-0.022,-0.094 -0.043,-0.183 -0.064,-0.267c-0.104,-0.408 -0.174,-0.679 -0.174,-0.679c0,0 0.056,0.084 0.15,0.228c-0.199,-0.509 -0.418,-0.972 -0.649,-1.325c-0.186,-0.287 -0.374,-0.508 -0.519,-0.649c-0.073,-0.071 -0.131,-0.126 -0.173,-0.16c-0.042,-0.036 -0.064,-0.055 -0.064,-0.055c0,0 0.026,0.014 0.073,0.041c0.049,0.026 0.117,0.069 0.204,0.124c0.173,0.113 0.408,0.298 0.659,0.556c0.292,0.298 0.589,0.692 0.877,1.134c-0.078,-0.166 -0.161,-0.319 -0.246,-0.456c-0.175,-0.281 -0.362,-0.488 -0.508,-0.619c-0.146,-0.13 -0.242,-0.192 -0.242,-0.192c0,0 0.025,0.012 0.074,0.034c0.049,0.021 0.118,0.057 0.205,0.107c0.174,0.101 0.41,0.274 0.653,0.529c0.343,0.36 0.689,0.871 0.996,1.445c-0.06,-0.24 -0.124,-0.463 -0.188,-0.66c-0.087,-0.269 -0.17,-0.492 -0.235,-0.644c-0.064,-0.153 -0.1,-0.241 -0.1,-0.241c0,0 0.056,0.076 0.156,0.21c0.1,0.134 0.236,0.332 0.388,0.578c0.148,0.239 0.31,0.527 0.47,0.845c-0.009,-0.037 -0.018,-0.072 -0.026,-0.107c-0.052,-0.204 -0.101,-0.382 -0.142,-0.521c-0.785,-1.436 -1.614,-2.853 -2.365,-3.988c-0.018,0.064 -0.103,0.108 -0.103,0.108c0,0 -0.013,0.074 -0.127,0.13c-0.023,0.088 -0.105,0.175 -0.105,0.175c0,0 -0.046,-0.029 -0.037,-0.115c-0.053,0.098 -0.206,0.124 -0.206,0.124c0,0 -0.013,-0.026 0.008,-0.056c-0.031,0.01 -0.064,-0.007 -0.064,-0.007c0,0 0.149,-0.159 0.32,-0.215c0.017,-0.032 0.222,-0.167 0.222,-0.167c0,0 -0.064,-0.007 -0.126,-0.024c-0.061,0.16 -0.344,0.19 -0.444,0.043c0.073,-0.045 0.234,-0.09 0.343,-0.063c0.071,-0.032 0.129,-0.011 0.129,-0.011c0,0 -0.026,-0.017 -0.029,-0.041c0.046,-0.008 0.097,-0.004 0.142,0.002c-0.154,-0.231 -0.305,-0.449 -0.45,-0.652c-0.02,0.007 -0.035,0.01 -0.035,0.01c0,0 0.022,0.073 -0.022,0.129c0.018,0.269 -0.203,0.285 -0.203,0.285c0,0 0.021,0.159 -0.093,0.325c0.009,0.047 -0.034,0.106 -0.034,0.106c0,0 0.04,0.15 -0.04,0.257c-0.03,-0.014 -0.068,-0.071 -0.068,-0.071c0,0 0.006,0.054 -0.015,0.121c0.095,0.165 0.001,0.346 0.001,0.346c0,0 -0.03,-0.021 -0.049,-0.06c-0.167,0.425 -0.307,0.433 -0.307,0.433c0,0 0.003,-0.069 0.018,-0.126c-0.023,0.01 -0.038,0.008 -0.038,0.008c0,0 -0.022,-0.145 0.054,-0.225c0.012,-0.09 0.035,-0.174 0.035,-0.174c0,0 -0.011,-0.068 0.019,-0.119c-0.029,0.02 -0.12,0.037 -0.12,0.037c0,0 -0.02,-0.094 0.037,-0.158c-0.045,0.008 -0.079,-0.009 -0.079,-0.009c0,0 0.05,-0.166 0.24,-0.241c0.005,-0.216 0.15,-0.248 0.15,-0.248c0,0 0,-0.137 0.08,-0.176c0.048,-0.211 0.207,-0.248 0.207,-0.248c0,0 0.013,-0.073 0.103,-0.131c-0.048,0.016 -0.078,0.002 -0.078,0.002c0,0 0.033,-0.067 0.199,-0.126l-0.001,-0.001l-0.007,-0.009c-0.044,-0.008 -0.08,-0.023 -0.08,-0.023c0,0 0.017,-0.012 0.044,-0.027c-0.115,-0.158 -0.227,-0.307 -0.336,-0.445c-0.04,0.022 -0.08,0.038 -0.08,0.038c0,0 -0.026,0.088 -0.108,0.117c0.01,0.03 -0.003,0.076 -0.064,0.164c-0.013,0.074 -0.077,0.204 -0.077,0.204c0,0 0.052,0.093 0.034,0.153c-0.019,0.061 -0.072,0.189 -0.072,0.189c0,0 -0.03,-0.014 -0.057,-0.069c0.006,0.095 -0.04,0.162 -0.04,0.162c0,0 0.027,0.082 -0.03,0.181c0.012,0.08 0,0.161 0,0.161c0,0 0.04,0.084 -0.013,0.22c-0.036,-0.017 -0.077,-0.067 -0.077,-0.067c0,0 0.025,0.199 -0.085,0.296c-0.014,-0.026 -0.028,-0.055 -0.028,-0.055c0,0 -0.021,0.129 -0.09,0.177c-0.129,-0.216 -0.036,-0.407 -0.036,-0.407c0,0 -0.019,0.019 -0.035,0.007c-0.03,-0.284 0.114,-0.398 0.114,-0.398c0,0 -0.014,-0.026 -0.009,-0.047c-0.019,0.016 -0.046,0.005 -0.046,0.005c0,0 0.014,-0.173 0.114,-0.3c-0.026,-0.148 0.127,-0.263 0.127,-0.263c0,0 0.041,-0.114 0.167,-0.226c-0.074,0.035 -0.172,0.011 -0.172,0.011c0,0 0.079,-0.19 0.26,-0.182c0.078,-0.1 0.236,-0.144 0.236,-0.144c0,0 -0.104,0.018 -0.199,-0.006c0.037,-0.03 0.101,-0.047 0.158,-0.056c-0.057,-0.071 -0.114,-0.139 -0.169,-0.203c-0.053,0.005 -0.112,-0.008 -0.15,-0.032c-0.069,0.021 -0.053,0.142 -0.248,0.159c0.002,0.062 -0.047,0.163 -0.135,0.199c0.036,0.103 0.001,0.144 -0.042,0.265c-0.053,-0.029 -0.078,-0.095 -0.078,-0.095c0,0 0.001,0.041 -0.01,0.073c0.216,0.097 0.115,0.378 0.115,0.378c0,0 -0.037,-0.013 -0.069,-0.051c0.064,0.144 0.036,0.181 0.045,0.266c0,0 -0.068,-0.01 -0.094,-0.055c-0.015,0.128 -0.092,0.194 -0.092,0.194c0,0 -0.089,-0.168 -0.045,-0.252c-0.023,0.013 -0.055,0.013 -0.055,0.013c0,0 0.014,-0.241 0.148,-0.341c-0.01,-0.022 0,-0.065 0,-0.065c0,0 -0.032,0.031 -0.109,0.036c-0.045,-0.228 0.135,-0.292 0.135,-0.292c0,0 -0.025,-0.1 0.024,-0.204c-0.032,0.027 -0.075,0.025 -0.075,0.025c0,0 -0.012,0.022 -0.022,0.054c0.045,0.128 -0.021,0.173 -0.119,0.31c-0.017,0.21 -0.123,0.311 -0.123,0.311c0,0 -0.024,-0.029 -0.011,-0.105c-0.025,0.067 -0.057,0.098 -0.057,0.098c0,0 0.026,0.244 -0.068,0.36c-0.021,-0.032 -0.036,-0.078 -0.036,-0.078c0,0 -0.001,0.095 -0.099,0.236c-0.026,-0.018 -0.033,-0.048 -0.033,-0.048c0,0 -0.022,0.026 -0.067,0.031c-0.101,-0.448 0.105,-0.672 0.105,-0.672c0,0 -0.008,-0.074 0.055,-0.149c-0.012,-0.245 0.201,-0.37 0.201,-0.37c0,0 0.001,-0.024 0.031,-0.072c-0.028,0.034 -0.063,0.037 -0.063,0.037c0,0 -0.01,-0.026 0.005,-0.055c-0.047,0.029 -0.111,0.022 -0.111,0.022c0,0 0.025,-0.201 0.225,-0.249c-0.032,0.003 -0.057,-0.005 -0.057,-0.005c0,0 0.026,-0.115 0.21,-0.214c0.052,-0.207 0.24,-0.1 0.24,-0.1c0,0 0.033,-0.019 0.082,-0.023c-0.022,-0.02 -0.043,-0.038 -0.065,-0.056c-0.165,-0.136 -0.332,-0.255 -0.5,-0.36c0.022,0.082 0.024,0.196 -0.023,0.238c-0.064,0.058 -0.162,0.293 -0.162,0.293c0,0 -0.093,0.131 -0.214,0.25c0.062,0.127 -0.076,0.319 -0.076,0.319c0,0 -0.013,-0.187 -0.014,-0.293c-0.018,0.026 -0.091,0.037 -0.091,0.037c0,0 0.052,0.125 -0.061,0.222c-0.113,0.098 -0.146,0.194 -0.146,0.194c-0.007,-0.301 0.207,-0.416 0.207,-0.416c0,0 0.044,-0.155 0.175,-0.278c-0.231,0.043 -0.203,-0.112 -0.203,-0.112c0,0 0.197,-0.045 0.288,-0.126c0.066,-0.06 0.139,-0.204 0.21,-0.31c-0.061,0.022 -0.131,0.045 -0.203,0.068c0.036,0.052 0.051,0.084 0.02,0.074c0.011,0.063 -0.243,0.08 -0.471,0.083c-0.022,0.036 -0.089,0.117 -0.257,0.168c-0.01,-0.065 0.028,-0.142 0.043,-0.17c-0.004,0 -0.008,0 -0.012,0c-0.022,0.012 -0.063,0.031 -0.123,0.047c-0.006,0.038 -0.024,0.095 -0.076,0.149c0.065,0.312 -0.219,0.463 -0.219,0.463c0,0 -0.017,-0.031 -0.004,-0.082c-0.027,0.041 -0.054,0.039 -0.054,0.039c0,0 0.019,0.184 -0.159,0.362c0.042,0.347 -0.166,0.501 -0.282,0.717c-0.023,-0.053 -0.04,-0.133 -0.04,-0.133c0,0 -0.022,0.051 -0.104,0.076c-0.066,-0.289 0.093,-0.767 0.306,-0.867c-0.008,-0.208 0.168,-0.276 0.168,-0.276c0,0 -0.068,-0.003 -0.132,-0.057c0.058,-0.006 0.141,-0.07 0.141,-0.07c0,0 0.011,-0.1 0.076,-0.085c0.047,-0.4 0.281,-0.469 0.281,-0.469c0,0 0.034,-0.097 0.11,-0.143c-0.056,0.017 -0.106,0.011 -0.106,0.011c0,0 0.141,-0.257 0.498,-0.282c-0.299,-0.118 -0.597,-0.195 -0.889,-0.24c-0.025,0.055 -0.063,0.087 -0.063,0.087c0,0 -0.067,0.166 -0.136,0.168c-0.058,0.099 -0.165,0.141 -0.165,0.141c0,0 0.005,-0.098 0.058,-0.202c-0.032,0.05 -0.072,0.07 -0.072,0.07c0,0 0.004,0.04 -0.055,0.129c-0.021,0.151 -0.084,0.26 -0.084,0.26c0,0 0.111,0.147 0.037,0.253c-0.033,-0.012 -0.074,-0.049 -0.074,-0.049c0,0 0.015,0.086 -0.107,0.191c-0.057,-0.092 -0.022,-0.162 -0.06,-0.22c-0.015,0.105 -0.1,0.206 -0.1,0.206c0,0 -0.015,-0.04 0.022,-0.146c-0.072,0.121 -0.146,0.175 -0.146,0.175c0,0 0.096,-0.247 0.232,-0.364c0.028,-0.177 0.118,-0.284 0.118,-0.284c0,0 -0.042,0.009 -0.079,0.008c-0.002,-0.02 0.001,-0.041 0.001,-0.041c0,0 -0.05,0.077 -0.11,0.114c-0.022,0.141 -0.166,0.28 -0.166,0.28c0,0 0.006,0.056 -0.029,0.126c-0.024,-0.023 -0.033,-0.058 -0.033,-0.058c0,0 -0.007,0.083 -0.026,0.146c0.092,0.17 0.01,0.451 0.01,0.451c0,0 -0.134,-0.063 -0.147,-0.236c-0.028,0.034 -0.051,0.021 -0.051,0.021c0,0 -0.029,-0.079 0.019,-0.177c-0.043,0.046 -0.1,0.057 -0.1,0.057c0,0 -0.012,-0.098 0.023,-0.228c-0.042,0.128 -0.088,0.258 -0.218,0.341c-0.049,-0.118 -0.023,-0.223 -0.023,-0.223c0,0 -0.082,0.178 -0.194,0.22c-0.08,-0.253 0.097,-0.38 0.097,-0.38c0,0 -0.095,0.052 -0.172,0.07c-0.011,-0.097 0.032,-0.347 0.149,-0.442c0.07,-0.284 0.221,-0.354 0.191,-0.343c-0.026,0.009 -0.161,0.078 -0.161,0.078c0,0 0.078,-0.098 0.162,-0.183c-0.354,0.06 -0.682,0.155 -0.972,0.264c-0.049,0.062 -0.182,0.076 -0.182,0.076c0,0 -0.05,0.089 -0.129,0.142c-0.034,0.083 -0.124,0.171 -0.124,0.171c0,0 -0.088,0.111 -0.166,0.134c-0.039,0.076 -0.102,0.129 -0.102,0.129c0,0 -0.031,0.214 -0.257,0.381c-0.033,-0.114 0.02,-0.212 0.02,-0.212c0,0 -0.032,-0.007 -0.025,-0.044c0.04,-0.02 0.112,-0.186 0.112,-0.186c0,0 -0.034,0.029 -0.06,0.032c0.014,-0.068 0.086,-0.189 0.086,-0.189c0,0 -0.067,0.052 -0.148,0.062c-0.018,0.012 -0.034,0.023 -0.05,0.035c-0.028,0.02 -0.05,0.018 -0.06,0.006c-0.153,0.147 -0.283,0.139 -0.283,0.139c0,0 -0.015,-0.039 0.03,-0.111c-0.023,0.028 -0.064,0.043 -0.064,0.043c0,0 -0.013,0.078 -0.076,0.136c0.001,0.154 -0.122,0.244 -0.275,0.255c0.014,-0.073 0.095,-0.159 0.095,-0.159c0,0 -0.116,0.053 -0.188,0.077c-0.009,-0.036 0,-0.098 0,-0.098c0,0 -0.081,0.188 -0.277,0.234c-0.013,-0.024 -0.012,-0.06 -0.012,-0.06c0,0 -0.03,0.014 -0.054,-0.01c0.007,-0.036 0.035,-0.07 0.035,-0.07c0,0 -0.022,-0.008 -0.01,-0.045c0.088,-0.122 0.31,-0.223 0.31,-0.223c0,0 0.048,-0.051 0.097,-0.092c0,0 0.365,-0.203 1.002,-0.445c0.099,-0.164 0.242,-0.056 0.242,-0.056c0,0 0.048,-0.005 0.114,-0.027c-0.131,-0.038 -0.246,-0.17 -0.246,-0.17c0,0 0.263,-0.074 0.404,0.107c0.055,-0.036 0.128,-0.052 0.182,-0.033c1.051,-0.42 2.598,-0.651 4.153,0.331l0.01,0.007c0.298,0.189 0.596,0.422 0.891,0.707c0.009,0.003 0.014,0.004 0.014,0.004l0.016,0.019c-0.004,-0.001 -0.007,-0.002 -0.011,-0.003c0.009,0.008 0.018,0.017 0.027,0.026c0.027,0.026 0.053,0.053 0.08,0.08c0.009,0 0.018,0 0.028,0c-0.001,0.009 -0.002,0.017 -0.004,0.024c0.075,0.078 0.152,0.16 0.228,0.246c0.016,-0.005 0.033,-0.01 0.05,-0.015l0.01,0.023c0,0 -0.022,0.002 -0.047,0.007c0.148,0.166 0.298,0.346 0.448,0.539c0.005,0 0.01,0 0.014,0l0.067,0.061c0,0 -0.007,0.008 -0.02,0.017c0.952,1.232 1.935,2.915 2.76,4.46c-0.177,-0.619 -0.38,-1.189 -0.573,-1.656c-0.076,-0.197 -0.159,-0.371 -0.229,-0.527c-0.068,-0.157 -0.133,-0.292 -0.19,-0.401c-0.11,-0.22 -0.173,-0.346 -0.173,-0.346c0,0 0.082,0.114 0.228,0.314c0.074,0.099 0.16,0.222 0.254,0.366c0.095,0.144 0.207,0.305 0.315,0.489c0.31,0.5 0.66,1.141 0.978,1.851c-0.004,-0.012 -0.008,-0.024 -0.012,-0.036c-0.097,-0.28 -0.186,-0.511 -0.252,-0.671c-0.066,-0.161 -0.103,-0.253 -0.103,-0.253c0,0 0.057,0.081 0.158,0.222c0.036,0.05 0.077,0.108 0.122,0.173c-0.177,-0.398 -0.355,-0.765 -0.516,-1.084c-0.385,-0.756 -0.669,-1.246 -0.669,-1.246c0,0 0.359,0.436 0.866,1.126c0.313,0.429 0.681,0.961 1.043,1.554c-0.037,-0.097 -0.074,-0.191 -0.112,-0.279c-0.146,-0.325 -0.269,-0.601 -0.385,-0.775c-0.108,-0.181 -0.169,-0.284 -0.169,-0.284c0,0 0.08,0.089 0.221,0.247c0.15,0.153 0.324,0.402 0.536,0.703c0.214,0.317 0.435,0.709 0.649,1.142c-0.111,-0.507 -0.24,-0.974 -0.387,-1.353c-0.133,-0.353 -0.283,-0.633 -0.398,-0.822c-0.116,-0.189 -0.194,-0.29 -0.194,-0.29c0,0 0.094,0.085 0.245,0.252c0.15,0.168 0.352,0.423 0.554,0.758c0.146,0.238 0.289,0.514 0.429,0.815c0.028,0.038 0.07,0.094 0.123,0.165c0.047,0.061 0.102,0.136 0.158,0.224c-0.858,-2.401 -1.87,-4.895 -2.793,-6.667c-0.041,0.023 -0.095,0.021 -0.095,0.021c0,0 0.005,0.058 -0.041,0.092c-0.033,0.203 -0.217,0.176 -0.217,0.176c0,0 -0.012,0.122 -0.134,0.225c-0.002,0.037 -0.048,0.074 -0.048,0.074c0,0 0.007,0.118 -0.078,0.184c-0.022,-0.015 -0.043,-0.065 -0.043,-0.065c0,0 -0.005,0.041 -0.035,0.088c0.05,0.139 -0.06,0.257 -0.06,0.257c0,0 -0.021,-0.021 -0.029,-0.053c-0.213,0.287 -0.33,0.267 -0.33,0.267c0,0 0.015,-0.05 0.038,-0.089c-0.021,0.002 -0.033,-0.002 -0.033,-0.002c0,0 0.007,-0.111 0.084,-0.157c0.026,-0.066 0.06,-0.124 0.06,-0.124c0,0 0.003,-0.052 0.037,-0.085c-0.028,0.01 -0.105,0.006 -0.105,0.006c0,0 -0.001,-0.074 0.058,-0.111c-0.039,-0.002 -0.064,-0.021 -0.064,-0.021c0,0 0.071,-0.115 0.24,-0.137c0.043,-0.16 0.168,-0.158 0.168,-0.158c0,0 0.024,-0.102 0.097,-0.117c0.077,-0.148 0.214,-0.148 0.214,-0.148c0,0 0.024,-0.052 0.108,-0.079c-0.042,0.003 -0.064,-0.012 -0.064,-0.012c0,0 0.041,-0.048 0.203,-0.06c-0.046,-0.014 -0.084,-0.039 -0.084,-0.039c0,0 0.047,-0.017 0.106,-0.023c-0.042,-0.081 -0.085,-0.161 -0.127,-0.239c-0.012,-0.001 -0.024,-0.005 -0.034,-0.009c-0.035,0.078 -0.157,0.112 -0.157,0.112c0,0 -0.036,0.086 -0.188,0.125c-0.052,0.103 -0.175,0.188 -0.175,0.188c0,0 -0.047,-0.049 -0.012,-0.154c-0.091,0.107 -0.282,0.097 -0.282,0.097c0,0 -0.008,-0.035 0.026,-0.066c-0.04,0.004 -0.076,-0.026 -0.076,-0.026c0,0 0.223,-0.157 0.444,-0.178c0.03,-0.036 0.313,-0.146 0.313,-0.146c0,0 -0.076,-0.026 -0.145,-0.065c-0.069,0.107 -0.218,0.137 -0.345,0.1c-0.092,0.073 -0.2,0.057 -0.2,0.057c0,0 -0.019,0.202 -0.201,0.376c-0.003,0.061 -0.071,0.122 -0.071,0.122c0,0 0.007,0.197 -0.119,0.308c-0.032,-0.025 -0.062,-0.107 -0.062,-0.107c0,0 -0.008,0.069 -0.052,0.146c0.069,0.23 -0.094,0.428 -0.094,0.428c0,0 -0.031,-0.034 -0.042,-0.087c-0.318,0.48 -0.488,0.451 -0.488,0.451c0,0 0.023,-0.085 0.057,-0.15c-0.031,0.005 -0.048,-0.002 -0.048,-0.002c0,0 0.013,-0.185 0.127,-0.263c0.039,-0.108 0.09,-0.207 0.09,-0.207c0,0 0.006,-0.086 0.056,-0.141c-0.042,0.017 -0.154,0.012 -0.154,0.012c0,0 0.001,-0.121 0.087,-0.185c-0.056,-0.003 -0.092,-0.033 -0.092,-0.033c0,0 0.001,-0.002 0.004,-0.005c-0.034,-0.035 -0.062,-0.093 -0.062,-0.093c0,0 -0.025,0.254 -0.184,0.344c-0.009,-0.036 -0.017,-0.076 -0.017,-0.076c0,0 -0.062,0.153 -0.158,0.194c-0.095,-0.303 0.07,-0.514 0.07,-0.514c0,0 -0.029,0.018 -0.044,-0.001c0.043,-0.36 0.247,-0.462 0.247,-0.462c0,0 -0.009,-0.036 0.002,-0.061c-0.027,0.015 -0.055,-0.006 -0.055,-0.006c0,0 0.011,-0.036 0.035,-0.088c-0.014,-0.014 -0.026,-0.031 -0.032,-0.051c-0.053,0.155 -0.165,0.215 -0.165,0.215c0,0 -0.059,-0.233 0.017,-0.324c-0.032,0.01 -0.07,0.001 -0.07,0.001c0,0 0.083,-0.295 0.272,-0.381c-0.005,-0.032 0.018,-0.081 0.018,-0.081c0,0 -0.047,0.029 -0.141,0.014c0.009,-0.295 0.243,-0.324 0.243,-0.324c0,0 -0.002,-0.13 0.086,-0.246c-0.047,0.025 -0.097,0.01 -0.097,0.01c0,0 -0.02,0.024 -0.042,0.06c0.019,0.172 -0.073,0.209 -0.229,0.352c-0.078,0.256 -0.233,0.35 -0.233,0.35c0,0 -0.021,-0.041 0.016,-0.133c-0.048,0.077 -0.095,0.107 -0.095,0.107c0,0 -0.037,0.309 -0.181,0.426c-0.017,-0.045 -0.023,-0.107 -0.023,-0.107c0,0 -0.027,0.119 -0.183,0.266c-0.027,-0.03 -0.027,-0.069 -0.027,-0.069c0,0 -0.033,0.027 -0.089,0.02c0.004,-0.583 0.313,-0.803 0.313,-0.803c0,0 0.011,-0.094 0.107,-0.17c0.054,-0.306 0.343,-0.402 0.343,-0.402c0,0 0.008,-0.03 0.058,-0.081c-0.044,0.034 -0.086,0.029 -0.086,0.029c0,0 -0.005,-0.035 0.02,-0.067c-0.063,0.023 -0.138,-0.003 -0.138,-0.003c0,0 0.085,-0.242 0.338,-0.247c-0.039,-0.005 -0.067,-0.021 -0.067,-0.021c0,0 0.064,-0.136 0.311,-0.207c0.12,-0.242 0.316,-0.058 0.316,-0.058c0,0 0.006,-0.002 0.017,-0.004c-0.127,-0.118 -0.256,-0.229 -0.388,-0.332c-0.14,-0.08 -0.285,-0.027 -0.285,-0.027c0,0 -0.328,0.187 -0.483,0.107c-0.069,0.065 -0.001,-0.032 -0.001,-0.032c0,0 -0.228,0.152 -0.48,0.217c-0.03,0.037 -0.049,0.062 -0.049,0.062c0,0 -0.013,0.325 -0.223,0.459c0.048,0.204 -0.21,0.44 -0.21,0.44c0,0 0.043,-0.276 0.076,-0.431c-0.034,0.032 -0.055,0.035 -0.055,0.035c0,0 -0.053,0.188 -0.244,0.292c-0.191,0.105 -0.268,0.234 -0.268,0.234c0.029,-0.143 0.084,-0.249 0.146,-0.328c-0.1,0.103 -0.231,0.174 -0.333,0.27c-0.014,-0.053 -0.015,-0.129 -0.015,-0.129c0,0 -0.036,0.042 -0.133,0.045c-0.006,-0.204 0.149,-0.473 0.335,-0.616c-0.046,-0.147 0.023,-0.236 -0.011,-0.33c-0.056,0.146 -0.208,0.266 -0.208,0.266c0,0 -0.007,-0.062 0.078,-0.205c-0.14,0.152 -0.261,0.206 -0.261,0.206c0,0 0.215,-0.327 0.444,-0.453c0.098,-0.248 0.259,-0.375 0.259,-0.375c0,0 -0.062,0.001 -0.113,-0.013c0.003,-0.03 0.014,-0.06 0.014,-0.06c0,0 -0.095,0.096 -0.191,0.131c-0.078,0.197 -0.326,0.352 -0.326,0.352c0,0 -0.009,0.083 -0.082,0.174c-0.025,-0.041 -0.026,-0.095 -0.026,-0.095c0,0 -0.037,0.118 -0.086,0.204c0.074,0.277 -0.132,0.658 -0.132,0.658c0,0 -0.167,-0.134 -0.129,-0.39c-0.051,0.04 -0.079,0.014 -0.079,0.014c0,0 -0.016,-0.125 0.084,-0.251c-0.076,0.052 -0.16,0.05 -0.16,0.05c0,0 0.015,-0.147 0.108,-0.323c-0.102,0.172 -0.208,0.346 -0.418,0.424c-0.032,-0.188 0.039,-0.332 0.039,-0.332c0,0 -0.173,0.232 -0.344,0.257c-0.03,-0.394 0.26,-0.52 0.26,-0.52c0,0 -0.15,0.043 -0.265,0.045c0.017,-0.144 0.158,-0.494 0.354,-0.594c0.191,-0.39 0.426,-0.443 0.381,-0.437c-0.041,0.005 -0.253,0.062 -0.253,0.062c0,0 0.29,-0.242 0.466,-0.312c0,0 0.04,-0.001 0.112,0.003c-0.289,-0.062 -0.575,-0.105 -0.854,-0.133c-0.017,0.008 -0.046,0.016 -0.083,0.013c-0.046,0.039 -0.115,0.037 -0.115,0.037c0,0 0.004,0.071 -0.045,0.112c-0.039,0.247 -0.235,0.217 -0.235,0.217c0,0 -0.015,0.147 -0.147,0.275c-0.002,0.044 -0.052,0.089 -0.052,0.089c0,0 0.005,0.143 -0.087,0.224c-0.023,-0.018 -0.045,-0.078 -0.045,-0.078c0,0 -0.006,0.05 -0.038,0.107c0.05,0.167 -0.068,0.312 -0.068,0.312c0,0 -0.023,-0.025 -0.031,-0.064c-0.232,0.35 -0.356,0.329 -0.356,0.329c0,0 0.016,-0.061 0.041,-0.109c-0.022,0.003 -0.035,-0.001 -0.035,-0.001c0,0 0.01,-0.136 0.093,-0.192c0.028,-0.08 0.066,-0.151 0.066,-0.151c0,0 0.004,-0.063 0.04,-0.103c-0.03,0.012 -0.112,0.009 -0.112,0.009c0,0 0.001,-0.089 0.064,-0.136c-0.041,-0.001 -0.067,-0.024 -0.067,-0.024c0,0 0.077,-0.14 0.258,-0.169c0.048,-0.194 0.181,-0.194 0.181,-0.194c0,0 0.028,-0.124 0.106,-0.143c0.085,-0.18 0.232,-0.182 0.232,-0.182c0,0 0.026,-0.064 0.116,-0.098c-0.045,0.005 -0.068,-0.014 -0.068,-0.014c0,0 0.045,-0.058 0.218,-0.076c-0.006,-0.001 -0.012,-0.004 -0.018,-0.006c-0.256,-0.02 -0.505,-0.027 -0.745,-0.024c-0.036,0.035 -0.109,0.099 -0.195,0.133c-0.071,0.104 -0.218,0.198 -0.218,0.198c0,0 -0.153,0.126 -0.264,0.135c-0.077,0.093 -0.178,0.147 -0.178,0.147c0,0 -0.107,0.286 -0.462,0.448c-0.009,-0.169 0.093,-0.288 0.093,-0.288c0,0 -0.042,-0.019 -0.021,-0.068c0.06,-0.015 0.209,-0.223 0.209,-0.223c0,0 -0.055,0.03 -0.091,0.025c0.04,-0.09 0.174,-0.235 0.174,-0.235c0,0 -0.171,0.082 -0.309,0.015c-0.288,0.214 -0.492,0.153 -0.492,0.153c0,0 -0.008,-0.059 0.075,-0.144c-0.04,0.032 -0.099,0.039 -0.099,0.039c0,0 -0.042,0.105 -0.144,0.166c-0.047,0.213 -0.24,0.3 -0.448,0.268c0.041,-0.098 0.176,-0.191 0.176,-0.191c0,0 -0.172,0.038 -0.276,0.047c-0.001,-0.051 0.031,-0.135 0.031,-0.135c0,0 -0.166,0.236 -0.444,0.24c-0.01,-0.038 0.003,-0.088 0.003,-0.088c0,0 -0.045,0.01 -0.07,-0.03c0.021,-0.048 0.069,-0.086 0.069,-0.086c0,0 -0.027,-0.018 0.001,-0.066c0.155,-0.142 0.485,-0.213 0.485,-0.213c0,0 0.079,-0.056 0.157,-0.098c0,0 0.553,-0.168 1.482,-0.306c0.184,-0.197 0.343,-0.003 0.343,-0.003c0,0 0.065,0.008 0.161,-0.002c-0.164,-0.093 -0.277,-0.311 -0.277,-0.311c0,0 0.375,-0.021 0.508,0.272c0.122,-0.047 0.282,-0.025 0.317,0.095c0.885,0.013 1.879,0.17 2.855,0.6c0.134,0.054 0.273,0.117 0.415,0.191c-0.001,0.002 -0.003,0.005 -0.004,0.007c0.137,0.072 0.273,0.15 0.408,0.234c0.039,0.007 0.079,0.016 0.121,0.028c-0.006,0.01 -0.015,0.021 -0.026,0.032c0.592,0.382 1.162,0.884 1.681,1.539c1.573,1.985 3.013,5.82 3.916,8.579c-0.048,-0.37 -0.088,-0.678 -0.116,-0.89c-0.078,-0.24 -0.156,-0.465 -0.231,-0.67c-0.136,-0.377 -0.259,-0.687 -0.347,-0.903c-0.09,-0.216 -0.141,-0.34 -0.141,-0.34c0,0 0.072,0.113 0.198,0.311c0.123,0.198 0.299,0.484 0.499,0.835c0.348,0.606 0.765,1.411 1.144,2.275c-0.05,-0.289 -0.102,-0.557 -0.157,-0.789c-0.074,-0.299 -0.163,-0.542 -0.239,-0.706c-0.076,-0.165 -0.13,-0.254 -0.13,-0.254c0,0 0.072,0.075 0.184,0.221c0.113,0.147 0.257,0.372 0.401,0.659c0.101,0.208 0.204,0.442 0.309,0.694c-0.086,-0.415 -0.18,-0.8 -0.27,-1.13c-0.094,-0.341 -0.178,-0.624 -0.243,-0.82c-0.064,-0.197 -0.1,-0.309 -0.1,-0.309c0,0 0.058,0.103 0.158,0.284c0.087,0.153 0.198,0.364 0.328,0.619c-0.243,-0.762 -0.513,-1.467 -0.761,-2.035c-0.19,-0.439 -0.362,-0.799 -0.486,-1.049c-0.126,-0.249 -0.198,-0.391 -0.198,-0.391c0,0 0.091,0.131 0.252,0.359c0.16,0.23 0.383,0.563 0.636,0.974c0.44,0.71 0.959,1.663 1.412,2.696c-0.147,-0.8 -0.327,-1.55 -0.494,-2.151c-0.119,-0.425 -0.225,-0.778 -0.307,-1.022c-0.081,-0.245 -0.127,-0.385 -0.127,-0.385c0,0 0.067,0.131 0.185,0.36c0.12,0.23 0.28,0.563 0.466,0.968c0.236,0.521 0.504,1.165 0.757,1.868c-0.044,-0.222 -0.088,-0.43 -0.132,-0.622c-0.085,-0.371 -0.161,-0.679 -0.221,-0.893c-0.059,-0.214 -0.092,-0.336 -0.092,-0.336c0,0 0.055,0.114 0.151,0.314c0.098,0.201 0.229,0.491 0.381,0.844c0.059,0.136 0.119,0.282 0.181,0.437c-0.446,-2.839 -1.062,-5.933 -1.736,-8.279c-0.005,-0.002 -0.01,-0.005 -0.014,-0.009c-0.077,0.113 -0.276,0.131 -0.276,0.131c0,0 -0.08,0.126 -0.328,0.143c-0.109,0.145 -0.325,0.244 -0.325,0.244c0,0 -0.059,-0.089 0.024,-0.243c-0.171,0.141 -0.465,0.074 -0.465,0.074c0,0 -0.004,-0.059 0.058,-0.097c-0.063,-0.005 -0.11,-0.062 -0.11,-0.062c0,0 0.391,-0.181 0.74,-0.154c0.057,-0.047 0.528,-0.14 0.528,-0.14c0,0 -0.11,-0.061 -0.207,-0.141c-0.138,0.148 -0.378,0.152 -0.566,0.06c-0.164,0.088 -0.327,0.033 -0.327,0.033c0,0 -0.087,0.31 -0.418,0.53c-0.022,0.094 -0.145,0.171 -0.145,0.171c0,0 -0.044,0.308 -0.271,0.446c-0.043,-0.049 -0.066,-0.184 -0.066,-0.184c0,0 -0.031,0.104 -0.121,0.213c0.042,0.377 -0.266,0.64 -0.266,0.64c0,0 -0.039,-0.061 -0.041,-0.148c-0.629,0.659 -0.887,0.567 -0.887,0.567c0,0 0.06,-0.125 0.131,-0.218c-0.05,-0.001 -0.074,-0.015 -0.074,-0.015c0,0 0.072,-0.285 0.271,-0.375c0.091,-0.158 0.197,-0.297 0.197,-0.297c0,0 0.033,-0.133 0.127,-0.205c-0.069,0.015 -0.243,-0.023 -0.243,-0.023c0,0 0.036,-0.19 0.187,-0.265c-0.087,-0.019 -0.134,-0.076 -0.134,-0.076c0,0 0.003,-0.003 0.007,-0.008c-0.043,-0.064 -0.069,-0.161 -0.069,-0.161c0,0 -0.111,0.388 -0.383,0.483c-0.004,-0.058 -0.006,-0.123 -0.006,-0.123c0,0 -0.139,0.222 -0.3,0.259c-0.063,-0.497 0.252,-0.781 0.252,-0.781c0,0 -0.05,0.021 -0.068,-0.013c0.167,-0.549 0.513,-0.652 0.513,-0.652c0,0 -0.004,-0.058 0.021,-0.093c-0.047,0.014 -0.085,-0.026 -0.085,-0.026c0,0 0.027,-0.054 0.079,-0.127c-0.017,-0.025 -0.032,-0.055 -0.035,-0.088c-0.126,0.226 -0.317,0.289 -0.317,0.289c0,0 -0.027,-0.379 0.117,-0.5c-0.052,0.006 -0.109,-0.019 -0.109,-0.019c0,0 0.211,-0.436 0.529,-0.518c0,-0.05 0.05,-0.12 0.05,-0.12c0,0 -0.081,0.032 -0.223,-0.018c0.096,-0.456 0.469,-0.436 0.469,-0.436c0,0 0.033,-0.204 0.202,-0.36c-0.08,0.026 -0.154,-0.011 -0.154,-0.011c0,0 -0.038,0.031 -0.082,0.082c-0.019,0.273 -0.171,0.305 -0.454,0.483c-0.193,0.378 -0.461,0.482 -0.461,0.482c0,0 -0.021,-0.071 0.062,-0.203c-0.097,0.107 -0.178,0.139 -0.178,0.139c0,0 -0.143,0.471 -0.401,0.614c-0.013,-0.075 -0.005,-0.173 -0.005,-0.173c0,0 -0.075,0.177 -0.36,0.362c-0.033,-0.053 -0.022,-0.114 -0.022,-0.114c0,0 -0.06,0.032 -0.145,0.007c0.168,-0.907 0.711,-1.164 0.711,-1.164c0,0 0.043,-0.143 0.214,-0.234c0.169,-0.463 0.647,-0.532 0.647,-0.532c0,0 0.021,-0.044 0.112,-0.109c-0.077,0.041 -0.142,0.021 -0.142,0.021c0,0 0.003,-0.056 0.051,-0.099c-0.105,0.018 -0.215,-0.044 -0.215,-0.044c0,0 0.2,-0.353 0.596,-0.291c-0.06,-0.017 -0.099,-0.051 -0.099,-0.051c0,0 0.137,-0.194 0.543,-0.235c0.254,-0.344 0.508,-0.003 0.508,-0.003c0,0 0.112,-0.016 0.235,0.05l0.008,0.008c-0.15,-0.21 -0.307,-0.407 -0.471,-0.592c-0.14,-0.116 -0.312,-0.087 -0.312,-0.087c0,0 -0.401,0.143 -0.557,0.024c-0.089,0.058 -0.306,0.043 -0.306,0.043c0,0 -0.127,0.111 -0.477,0.062c0.01,-0.04 0.037,-0.076 0.066,-0.105c-0.161,0.106 -0.357,0.288 -0.357,0.288c0,0 -0.094,0.428 -0.404,0.556c0.014,0.282 -0.384,0.533 -0.384,0.533c0,0 0.122,-0.355 0.204,-0.552c-0.054,0.034 -0.082,0.032 -0.082,0.032c0,0 -0.114,0.237 -0.393,0.331c-0.278,0.094 -0.411,0.246 -0.411,0.246c0.072,-0.182 0.17,-0.31 0.27,-0.4c-0.156,0.113 -0.346,0.176 -0.504,0.279c-0.007,-0.073 0.01,-0.175 0.01,-0.175c0,0 -0.057,0.047 -0.187,0.029c0.041,-0.273 0.31,-0.593 0.591,-0.738c-0.026,-0.206 0.086,-0.308 0.064,-0.441c-0.109,0.181 -0.339,0.304 -0.339,0.304c0,0 0.004,-0.085 0.152,-0.254c-0.223,0.168 -0.397,0.212 -0.397,0.212c0,0 0.363,-0.383 0.697,-0.496c0.19,-0.306 0.433,-0.436 0.433,-0.436c0,0 -0.081,-0.014 -0.147,-0.045c0.012,-0.039 0.033,-0.075 0.033,-0.075c0,0 -0.149,0.104 -0.285,0.127c-0.149,0.244 -0.515,0.39 -0.515,0.39c0,0 -0.032,0.108 -0.15,0.212c-0.024,-0.061 -0.013,-0.133 -0.013,-0.133c0,0 -0.077,0.148 -0.162,0.251c0.033,0.385 -0.331,0.842 -0.331,0.842c0,0 -0.19,-0.218 -0.079,-0.549c-0.077,0.041 -0.107,0 -0.107,0c0,0 0.008,-0.169 0.17,-0.313c-0.113,0.052 -0.224,0.029 -0.224,0.029c0,0 0.055,-0.192 0.22,-0.404c-0.177,0.204 -0.359,0.411 -0.656,0.464c0.003,-0.256 0.131,-0.432 0.131,-0.432c0,0 -0.284,0.268 -0.518,0.261c0.054,-0.53 0.47,-0.629 0.47,-0.629c0,0 -0.211,0.022 -0.364,-0.003c0.057,-0.187 0.327,-0.619 0.611,-0.704c0.347,-0.473 0.671,-0.487 0.609,-0.49c-0.055,-0.002 -0.349,0.023 -0.349,0.023c0,0 0.404,-0.232 0.659,-0.297c-0.083,-0.024 -0.167,-0.047 -0.25,-0.069c-0.137,0.068 -0.372,-0.004 -0.372,-0.004c0,0 -0.161,0.128 -0.343,0.165c-0.125,0.127 -0.353,0.221 -0.353,0.221c0,0 -0.245,0.137 -0.402,0.122c-0.13,0.111 -0.284,0.16 -0.284,0.16c0,0 -0.22,0.373 -0.755,0.51c0.029,-0.237 0.201,-0.378 0.201,-0.378c0,0 -0.053,-0.038 -0.013,-0.1c0.088,-0.006 0.347,-0.259 0.347,-0.259c0,0 -0.083,0.028 -0.133,0.013c0.078,-0.116 0.301,-0.284 0.301,-0.284c0,0 -0.258,0.072 -0.433,-0.056c-0.455,0.226 -0.724,0.09 -0.724,0.09c0,0 0.004,-0.084 0.141,-0.182c-0.064,0.034 -0.149,0.03 -0.149,0.03c0,0 -0.083,0.136 -0.241,0.195c-0.119,0.285 -0.409,0.358 -0.69,0.262c0.081,-0.126 0.292,-0.222 0.292,-0.222c0,0 -0.249,0.01 -0.395,-0.003c0.011,-0.071 0.076,-0.18 0.076,-0.18c0,0 -0.291,0.287 -0.678,0.222c-0.005,-0.055 0.026,-0.12 0.026,-0.12c0,0 -0.065,0.002 -0.09,-0.06c0.041,-0.062 0.118,-0.103 0.118,-0.103c0,0 -0.034,-0.032 0.017,-0.091c0.252,-0.16 0.728,-0.176 0.728,-0.176c0,0 0.125,-0.058 0.244,-0.097c0,0 0.06,-0.007 0.176,-0.017c0.009,-0.003 0.021,-0.006 0.034,-0.008c0.421,-0.056 1.028,-0.089 1.736,-0.037c0.063,0.001 0.127,0.003 0.193,0.005c0.264,-0.199 0.43,0.008 0.47,0.066c0.07,0.011 0.141,0.022 0.213,0.033Zm15.223,15.048c-0.016,0.055 -0.032,0.11 -0.047,0.164c0.046,0.088 0.095,0.179 0.143,0.274c-0.03,-0.147 -0.061,-0.294 -0.096,-0.438Zm-4.238,-0.297c-0.004,0.033 -0.008,0.067 -0.013,0.1c0.023,0.051 0.046,0.102 0.068,0.153c-0.018,-0.085 -0.036,-0.17 -0.055,-0.253Zm4.576,-0.92c-0.022,0.081 -0.043,0.162 -0.065,0.243c0.078,0.149 0.152,0.304 0.224,0.461c-0.05,-0.243 -0.104,-0.479 -0.159,-0.704Zm0.254,-1.004c-0.033,0.136 -0.066,0.272 -0.1,0.408c0.141,0.299 0.291,0.633 0.438,0.989c-0.027,-0.128 -0.054,-0.25 -0.08,-0.364c-0.134,-0.575 -0.241,-0.971 -0.258,-1.033Zm-33.424,-16.824c-0.055,0 -0.377,0.341 -0.402,0.414c-0.024,0.066 0.021,0.157 0,0.223c-0.02,0.059 -0.097,0.153 -0.135,0.213c-0.042,0.066 -0.108,0.108 -0.134,0.19c-0.03,0.094 0.007,0.177 0,0.256c-0.008,0.097 -0.093,0.209 -0.145,0.302c-0.07,0.126 -0.187,0.267 -0.207,0.426c-0.021,0.153 -0.009,0.213 -0.089,0.368c-0.116,0.223 -0.256,0.405 -0.308,0.687c-0.043,0.237 -0.14,0.445 -0.273,0.665c-0.084,0.138 -0.172,0.245 -0.229,0.38c-0.054,0.126 -0.076,0.292 -0.151,0.413c-0.083,0.134 -0.201,0.265 -0.274,0.403c-0.07,0.133 -0.078,0.308 -0.145,0.436c-0.059,0.11 -0.165,0.221 -0.235,0.335c-0.113,0.183 -0.202,0.465 -0.313,0.637c-0.037,0.058 -0.105,0.099 -0.134,0.156c-0.062,0.122 -0.068,0.276 -0.145,0.391c-0.096,0.143 -0.257,0.301 -0.302,0.447c-0.059,0.191 -0.141,0.298 -0.246,0.475c-0.095,0.163 -0.094,0.349 -0.167,0.498c-0.037,0.074 -0.084,0.106 -0.101,0.179c-0.035,0.147 0.025,0.24 -0.006,0.38c-0.03,0.141 -0.072,0.278 -0.095,0.413c0.002,-0.009 0.034,0.094 0.034,0.101c-0.002,0.04 -0.079,0.167 -0.09,0.223c-0.022,0.113 -0.002,0.183 0.01,0.29c0.018,0.165 0.019,0.296 0.024,0.448c0.006,0.189 -0.085,0.406 -0.05,0.592c0.01,0.058 0.049,0.131 0.05,0.179c0,0.029 -0.057,0.106 -0.059,0.151c-0.002,0.057 0.04,0.112 0.048,0.139c0.048,0.172 0.024,0.345 0.061,0.492c0.048,0.193 0,0.435 0.05,0.615c0.014,0.049 0.055,0.121 0.068,0.167c0.032,0.12 -0.024,0.166 -0.023,0.313c0.001,0.127 0.089,0.292 0.145,0.414c0.024,0.049 0.084,0.117 0.075,0.184c-0.019,0.138 -0.04,0.049 -0.117,0.121c-0.059,0.055 -0.097,-0.031 -0.103,0.052c-0.002,0.035 0.045,0.018 0.056,0.034c0.094,0.135 0.293,0.23 0.419,0.324c0.415,0.309 0.914,0.539 1.392,0.743c0.203,0.087 0.436,0.146 0.659,0.196c0.563,0.124 1.407,0.29 2.045,0.439c0.074,0.017 0.458,0.092 0.458,0.195c-0.22,0.004 -0.506,-0.085 -0.682,-0.123c-0.312,-0.067 -0.626,-0.122 -0.938,-0.183c-0.191,-0.037 -0.455,-0.083 -0.693,-0.083c-0.016,0.044 1.883,0.322 2.067,0.593c-0.602,-0.113 -1.245,-0.255 -1.933,-0.403c-0.527,-0.112 -1.283,-0.318 -1.833,-0.318c-0.246,0 -0.557,0.097 -0.872,0.095c-0.246,-0.002 -0.506,-0.043 -0.756,-0.053c-0.248,-0.009 -0.651,-0.017 -0.875,-0.036c-0.496,-0.044 -0.995,-0.128 -1.565,-0.235c-0.497,-0.093 -1.07,-0.414 -1.52,-0.615c-0.23,-0.103 -0.411,-0.19 -0.648,-0.285c-0.231,-0.093 -0.389,-0.044 -0.57,0.095c-0.122,0.094 -0.272,0.245 -0.402,0.369c-0.185,0.177 -0.405,0.5 -0.648,0.615c0,-0.317 0.358,-0.742 0.536,-1.006c0.096,-0.143 0.244,-0.31 0.313,-0.469c0.081,-0.185 -0.019,-0.519 0.067,-0.738c0.18,-0.46 0.64,-0.698 1.062,-0.76c0.233,-0.034 0.299,-0.035 0.224,-0.302c-0.021,-0.072 -0.077,-0.186 -0.112,-0.268c-0.073,-0.171 -0.212,-0.361 -0.324,-0.525c-0.323,-0.47 -0.857,-0.948 -1.118,-1.42c-0.238,-0.43 -0.506,-0.949 -0.548,-1.452c-0.038,-0.465 0.037,-0.918 0.063,-1.361c0.027,-0.454 0.103,-0.862 0.228,-1.288c0.121,-0.412 0.282,-0.828 0.548,-1.207c0.105,-0.151 0.253,-0.308 0.391,-0.424c0.09,-0.077 0.469,-0.486 0.436,-0.202c-0.011,0.093 -0.195,0.219 -0.246,0.291c-0.026,0.035 -0.039,0.069 -0.045,0.112c-0.024,0.171 -0.005,0.06 0.134,0.056c0.036,0.094 -0.041,0.172 -0.025,0.268c0.009,0.059 0.049,0.075 0.07,0.123c0.04,0.092 0.083,0.145 0.089,0.246c0.013,0.204 -0.013,0.274 0.056,0.502c0.03,0.1 0.024,0.238 0.034,0.302c0.025,0.168 0.071,0.24 0.123,0.369c0.068,0.171 0.096,0.421 0.178,0.643c0.102,0.272 0.106,0.472 0.202,0.72c0.116,0.305 0.198,0.666 0.29,1.006c0.056,0.208 0.192,0.526 0.307,0.738c0.087,0.158 0.124,0.369 0.229,0.536c0.106,0.168 0.255,0.346 0.325,0.537c0.041,0.114 0.201,0.503 0.324,0.536c0.055,-0.496 -0.146,-1.039 -0.179,-1.497c-0.018,-0.248 0.098,-0.541 0.201,-0.76c0.25,-0.535 0.597,-1.095 0.916,-1.632c0.225,-0.377 0.573,-0.774 0.883,-1.106c0.385,-0.413 0.676,-0.77 1.017,-1.174c0.633,-0.748 1.224,-1.575 1.923,-2.324c0.463,-0.498 0.917,-1.118 1.441,-1.57c0.237,-0.204 0.463,-0.416 0.682,-0.598c0.115,-0.096 0.331,-0.279 0.257,-0.034Zm15.185,14.966c0.023,-0.047 0.008,-0.093 0.008,-0.093c0,0 0.042,-0.005 0.1,-0.124c-0.023,0.115 -0.049,0.176 -0.108,0.217Zm0.165,-0.312c0.025,-0.064 0.028,-0.137 0.054,-0.122c0.026,0.014 -0.012,0.056 -0.054,0.122Zm0.921,-0.039c0,0 -0.002,-0.024 -0.023,-0.025c0.033,-0.014 0.097,-0.079 0.111,-0.115c-0.009,0.053 -0.088,0.14 -0.088,0.14Zm-0.746,-0.24c0,0 0.002,-0.123 -0.015,-0.176c0,0 0.028,0.062 0.054,0.104c-0.023,0.023 -0.039,0.072 -0.039,0.072Zm0.494,-0.99c-0.025,0.001 -0.054,0.007 -0.08,0.023c0.018,0.07 -0.09,0.15 -0.18,0.135c0,0.137 -0.136,0.353 -0.136,0.353c0,0 0.038,-0.011 0.083,-0.015c0.069,-0.083 0.139,-0.063 0.139,-0.063c0,0 0.016,-0.012 0.038,-0.035c-0.067,0.031 -0.132,0.024 -0.132,0.024c0,0 0.189,-0.153 0.339,-0.134c0.051,-0.039 0.107,-0.058 0.158,-0.066c-0.079,-0.083 -0.156,-0.158 -0.229,-0.222Zm0.155,0.34c0,0 -0.049,-0.024 -0.103,0.069c-0.02,0.037 -0.031,0.069 -0.031,0.069c0,0 -0.004,-0.034 -0.013,-0.05c0.044,-0.019 0.052,-0.081 0.052,-0.081c0,0 0.071,-0.028 0.124,-0.068c-0.016,0.025 -0.029,0.061 -0.029,0.061Zm0.12,-0.07c0,0.009 0,0.018 -0.001,0.027c0.003,-0.004 0.008,-0.008 0.014,-0.012c-0.004,-0.005 -0.009,-0.01 -0.013,-0.015Zm2.661,-2.287c-0.005,0.012 -0.012,0.026 -0.023,0.042c-0.048,0.042 -0.203,0.067 -0.203,0.067c0,0 -0.056,0.102 -0.162,0.116c0.004,0.039 -0.024,0.092 -0.122,0.185c-0.037,0.087 -0.149,0.23 -0.149,0.23c0,0 0.036,0.131 -0.002,0.2c-0.039,0.07 -0.139,0.214 -0.139,0.214c0,0 -0.031,-0.025 -0.049,-0.101c-0.018,0.119 -0.092,0.189 -0.092,0.189c0,0 0.009,0.11 -0.086,0.216c-0.008,0.103 -0.046,0.199 -0.046,0.199c0,0 0.017,0.074 -0.028,0.182c0.056,-0.057 0.15,-0.128 0.29,-0.151c0.067,-0.266 0.249,-0.266 0.249,-0.266c0,0 0.038,-0.17 0.145,-0.196c0.117,-0.247 0.317,-0.25 0.317,-0.25c0,0 0.036,-0.087 0.159,-0.133c-0.061,0.006 -0.093,-0.02 -0.093,-0.02c0,0 0.062,-0.079 0.299,-0.103c-0.067,-0.021 -0.123,-0.063 -0.123,-0.063c0,0 0.087,-0.036 0.186,-0.044c-0.112,-0.186 -0.221,-0.357 -0.328,-0.513Zm-6.555,1.731c-0.007,-0.037 -0.025,-0.074 -0.025,-0.074c0,0 0.054,-0.072 0.07,-0.124c0,0.068 -0.05,0.126 -0.045,0.198Zm-2.031,-0.11c-0.08,-0.022 -0.18,0.043 -0.18,0.043c0.065,-0.058 0.093,-0.123 0.093,-0.123l0.291,-0.092c0,0 -0.16,0.061 -0.204,0.172Zm22.901,-0.011c0,0 0.014,-0.019 0,-0.034c0.034,0.013 0.125,0.011 0.16,-0.005c-0.043,0.031 -0.16,0.039 -0.16,0.039Zm-18.017,-0.132c-0.042,0.013 -0.068,0.033 -0.068,0.033c0,0 0.073,0.008 0.151,0.015c-0.028,-0.016 -0.056,-0.032 -0.083,-0.048Zm-2.853,-0.292c-0.024,0.076 -0.051,0.101 -0.051,0.101c0,0 0,0.066 -0.034,0.168c0.027,-0.078 0.098,-0.134 0.105,-0.168c-0.026,0.03 -0.052,0.039 -0.052,0.039c0,0 0.006,-0.058 0.032,-0.14c0.001,-0.001 0.001,-0.001 0.001,-0.002l-0.001,0.002Zm2.478,0.106c0.012,0.032 0.033,0.07 0.059,0.11c0.044,-0.028 0.067,-0.042 0.076,-0.048l0,0l-0.001,0l0,0c-0.044,-0.022 -0.089,-0.042 -0.134,-0.062Zm-1.803,-0.02c0.029,-0.012 0.037,-0.022 0.037,-0.022c0,0 -0.055,0.086 -0.127,0.114c0.061,-0.099 0.112,-0.237 0.12,-0.289c0.004,0.1 -0.027,0.119 -0.03,0.197Zm-0.522,-0.015c-0.001,0.03 0.036,0.042 0.036,0.042c-0.041,-0.008 -0.057,0.01 -0.057,0.01c0,0 0.015,-0.035 -0.001,-0.075c0.076,-0.022 0.101,-0.117 0.111,-0.152c-0.009,0.054 0.05,0.021 0.065,0.012c0.002,-0.002 0.004,-0.002 0.004,-0.002c0,0 -0.002,0.001 -0.004,0.002c-0.018,0.011 -0.096,0.066 -0.154,0.163Zm19.692,-0.149c0.049,-0.018 0.07,-0.062 0.07,-0.062c0,0 0.033,0.026 0.158,-0.019c-0.097,0.067 -0.158,0.093 -0.228,0.081Zm-18.949,-0.164c-0.029,0.064 -0.089,0.105 -0.089,0.105c0,0 0,0.024 -0.022,0.058c0.062,-0.079 0.193,-0.082 0.193,-0.082c0,0 0.047,-0.07 0.145,-0.067c-0.017,-0.001 -0.031,-0.003 -0.041,-0.006c-0.062,-0.004 -0.125,-0.007 -0.186,-0.008Zm19.284,0.054c0.062,-0.029 0.114,-0.079 0.123,-0.05c0.009,0.029 -0.047,0.032 -0.123,0.05Zm-13.215,-0.347c-0.009,0.001 -0.018,0.001 -0.027,0c-0.063,0.053 -0.158,0.051 -0.158,0.051c0,0 0.006,0.096 -0.062,0.153c-0.002,0.018 -0.006,0.035 -0.01,0.051c0.043,0.007 0.083,0.019 0.118,0.036c0.093,-0.019 0.158,0.023 0.158,0.023c0,0 -0.027,-0.029 -0.024,-0.059c0.059,0.003 0.122,0.022 0.174,0.043c-0.057,-0.102 -0.113,-0.202 -0.169,-0.298Zm14.587,0.285c-0.005,0.006 -0.012,0.012 -0.019,0.018c0.005,-0.001 0.012,0 0.019,0.001c0,-0.007 0,-0.013 0,-0.019Zm-1.053,-0.016c0,0 0.087,-0.088 0.112,-0.138c0,0 -0.023,0.064 -0.034,0.112c-0.032,0.001 -0.078,0.026 -0.078,0.026Zm0.918,-0.018c0,0 -0.019,-0.051 -0.121,-0.021c-0.041,0.012 -0.07,0.027 -0.07,0.027c0,0 0.02,-0.027 0.026,-0.044c0.044,0.017 0.093,-0.023 0.093,-0.023c0,0 0.07,0.03 0.135,0.037c-0.028,0.008 -0.063,0.024 -0.063,0.024Zm-16.041,-0.069c-0.011,-0.009 -0.041,-0.035 -0.064,-0.079c0.011,0.055 0.015,0.098 0.015,0.134c0.015,-0.019 0.032,-0.038 0.049,-0.055Zm16.167,-0.283c-0.02,-0.017 -0.045,-0.033 -0.074,-0.039c-0.036,0.063 -0.169,0.045 -0.224,-0.028c-0.094,0.099 -0.343,0.16 -0.343,0.16c0,0 0.035,0.018 0.071,0.046c0.107,-0.011 0.143,0.051 0.143,0.051c0,0 0.02,0.003 0.052,0.002c-0.07,-0.024 -0.112,-0.074 -0.112,-0.074c0,0 0.243,0.021 0.338,0.139c0.064,0.007 0.117,0.032 0.159,0.062c0.001,-0.115 -0.003,-0.222 -0.01,-0.319Zm-17.079,0.312c0.041,-0.052 0.036,-0.113 0.036,-0.113c0,0 0.051,0.006 0.154,-0.125c-0.06,0.136 -0.107,0.204 -0.19,0.238Zm0.951,-0.094c-0.009,0.022 -0.018,0.039 -0.024,0.051c0.006,-0.007 0.013,-0.013 0.02,-0.019c0.001,-0.011 0.002,-0.021 0.004,-0.032Zm0.997,-0.969c-0.079,0.045 -0.218,0.001 -0.282,-0.066c-0.088,0.007 -0.102,0.162 -0.342,0.129c-0.013,0.077 -0.101,0.188 -0.216,0.209c0.014,0.137 -0.039,0.178 -0.125,0.316c-0.055,-0.05 -0.066,-0.138 -0.066,-0.138c0,0 -0.01,0.051 -0.032,0.087c0.129,0.1 0.124,0.244 0.094,0.352c0.063,-0.117 0.194,-0.178 0.194,-0.178c0,0 0.081,-0.13 0.263,-0.234c-0.099,0.023 -0.21,-0.034 -0.21,-0.034c0,0 0.148,-0.213 0.362,-0.153c0.121,-0.103 0.323,-0.114 0.323,-0.114c0,0 -0.13,-0.007 -0.236,-0.063c0.1,-0.05 0.309,-0.014 0.35,-0.006c-0.026,-0.037 -0.051,-0.073 -0.077,-0.107Zm10.304,0.822l0,0.012c0.007,0.004 0.013,0.008 0.02,0.012c-0.008,-0.01 -0.014,-0.021 -0.02,-0.032l0,0.008Zm-11.968,-0.099c0.048,-0.073 0.072,-0.162 0.099,-0.136c0.028,0.024 -0.029,0.066 -0.099,0.136Zm1.012,-0.02c0,0 0.003,-0.03 -0.022,-0.037c0.045,-0.008 0.139,-0.07 0.165,-0.111c-0.024,0.062 -0.143,0.148 -0.143,0.148Zm-0.724,-0.277c0,0 0.035,-0.152 0.031,-0.222c0,0 0.016,0.084 0.035,0.143c-0.033,0.022 -0.066,0.079 -0.066,0.079Zm11.511,-0.428c-0.005,-0.003 -0.011,-0.008 -0.016,-0.013c-0.058,0.016 -0.117,-0.033 -0.117,-0.033c0,0 -0.03,0.086 -0.093,0.103c-0.008,0.014 -0.016,0.027 -0.024,0.039c0.024,0.027 0.046,0.057 0.061,0.089c0.065,0.03 0.09,0.098 0.09,0.098c0,0 -0.006,-0.039 0.007,-0.063c0.035,0.031 0.068,0.079 0.093,0.123c0.001,-0.117 0,-0.232 -0.001,-0.343Zm-0.027,-0.769c-0.007,0.009 -0.016,0.017 -0.029,0.026c-0.045,0.013 -0.15,-0.042 -0.15,-0.042c0,0 -0.071,0.062 -0.142,0.022c-0.011,0.036 -0.048,0.069 -0.141,0.102c-0.054,0.057 -0.174,0.127 -0.174,0.127c0,0 -0.023,0.132 -0.072,0.173c-0.048,0.042 -0.162,0.119 -0.162,0.119c0,0 -0.011,-0.038 0.006,-0.113c-0.054,0.095 -0.124,0.12 -0.124,0.12c0,0 -0.033,0.1 -0.13,0.145c-0.041,0.087 -0.098,0.152 -0.098,0.152c0,0 -0.016,0.072 -0.082,0.144c0.055,-0.023 0.139,-0.038 0.234,0.011c0.135,-0.199 0.249,-0.109 0.249,-0.109c0,0 0.083,-0.13 0.159,-0.1c0.16,-0.158 0.286,-0.062 0.286,-0.062c0,0 0.053,-0.058 0.146,-0.038c-0.04,-0.025 -0.051,-0.063 -0.051,-0.063c0,0 0.066,-0.039 0.223,0.057c-0.034,-0.052 -0.055,-0.115 -0.055,-0.115c0,0 0.067,0.011 0.131,0.053c-0.004,-0.217 -0.012,-0.421 -0.024,-0.609Zm-10.016,0.899c-0.005,0.001 -0.011,0.003 -0.015,0.005c0.006,-0.001 0.012,-0.001 0.018,0l0,-0.001l-0.003,-0.004Zm-2.588,-0.698c-0.064,0.03 -0.116,0.04 -0.116,0.04c0,0 -0.012,-0.032 0.014,-0.075c-0.039,0.031 -0.069,0.023 -0.069,0.023c0,0 -0.02,0.171 -0.259,0.291c-0.011,0.109 -0.049,0.191 -0.101,0.259c0.116,-0.122 0.237,-0.156 0.237,-0.156c0,0 0.112,-0.212 0.337,-0.348c-0.037,0.015 -0.068,0.017 -0.068,0.017c0,0 0.009,-0.02 0.025,-0.051Zm17.477,0.418c-0.049,-0.035 -0.099,-0.04 -0.099,-0.04c0,0 0.063,0.075 0.123,0.144c-0.008,-0.035 -0.016,-0.07 -0.024,-0.104Zm-15.4,-0.048c0,0 -0.052,-0.043 -0.142,0.057c-0.035,0.04 -0.056,0.076 -0.056,0.076c0,0 0.005,-0.043 -0.001,-0.065c0.057,-0.011 0.084,-0.086 0.084,-0.086c0,0 0.093,-0.015 0.167,-0.05c-0.025,0.028 -0.052,0.068 -0.052,0.068Zm5.028,-2.413c-0.037,-0.006 -0.075,-0.009 -0.105,-0.001c0.091,0.006 0.151,0.067 0.037,0.182c-0.087,0.052 -0.336,0.048 -0.336,0.048c0,0 -0.115,0.144 -0.284,0.136c-0.005,0.062 -0.063,0.137 -0.242,0.254c-0.081,0.126 -0.296,0.318 -0.296,0.318c0,0 0.021,0.213 -0.059,0.31c-0.079,0.098 -0.275,0.296 -0.275,0.296c0,0 -0.042,-0.049 -0.048,-0.172c-0.062,0.181 -0.196,0.269 -0.196,0.269c0,0 -0.017,0.173 -0.195,0.312c-0.041,0.159 -0.126,0.297 -0.126,0.297c0,0 0.005,0.12 -0.095,0.276c0.103,-0.074 0.27,-0.158 0.494,-0.154c0.177,-0.396 0.462,-0.346 0.462,-0.346c0,0 0.106,-0.253 0.28,-0.265c0.25,-0.352 0.564,-0.3 0.564,-0.3c0,0 0.08,-0.125 0.285,-0.163c-0.098,-0.009 -0.14,-0.057 -0.14,-0.057c0,0 0.118,-0.107 0.495,-0.078c-0.099,-0.052 -0.174,-0.132 -0.174,-0.132c0,0 0.157,-0.035 0.321,-0.014c-0.122,-0.368 -0.244,-0.709 -0.367,-1.016Zm-4.742,2.439c-0.007,0.023 -0.028,0.035 -0.028,0.035c0,0 0.027,0.013 0.079,0.031c-0.017,-0.023 -0.034,-0.045 -0.051,-0.066Zm-0.461,-0.489c-0.006,0.001 -0.012,0.003 -0.018,0.005c0.002,0.092 -0.15,0.161 -0.254,0.118c-0.037,0.17 -0.26,0.4 -0.26,0.4c0,0 0.048,-0.003 0.104,0.003c0.105,-0.083 0.183,-0.039 0.183,-0.039c0,0 0.023,-0.01 0.056,-0.032c-0.09,0.02 -0.165,-0.007 -0.165,-0.007c0,0 0.269,-0.137 0.444,-0.073c0.087,-0.042 0.175,-0.044 0.247,-0.033c-0.028,-0.032 -0.056,-0.062 -0.084,-0.092c-0.083,-0.087 -0.167,-0.17 -0.253,-0.25Zm0.358,0.366c-0.01,-0.001 -0.015,0 -0.015,0c0,0 0,0.039 -0.013,0.076c0.015,-0.012 0.048,-0.021 0.076,-0.019c-0.016,-0.02 -0.032,-0.039 -0.048,-0.057Zm15.104,-0.127c-0.001,-0.001 -0.001,-0.002 -0.001,-0.002c0.007,0.003 0.008,0.004 0.001,0.002Zm-17.838,-0.18c-0.019,-0.022 -0.032,-0.041 -0.032,-0.041c0,0 -0.004,0.079 -0.103,0.167c0.03,-0.013 0.061,-0.023 0.092,-0.028c0.008,-0.039 0.023,-0.072 0.043,-0.098Zm12.05,-0.02c-0.004,-0.013 -0.014,-0.05 -0.012,-0.1c-0.013,0.054 -0.025,0.093 -0.038,0.124c0.016,-0.009 0.033,-0.017 0.05,-0.024Zm0.047,-0.037c-0.013,0.014 -0.025,0.025 -0.033,0.032c0.006,-0.002 0.013,-0.004 0.019,-0.005c0.004,-0.01 0.009,-0.019 0.014,-0.027Zm-11.971,-0.093c0.001,0.019 0.001,0.039 -0.001,0.059c0.045,-0.018 0.082,-0.021 0.082,-0.021c0,0 -0.038,-0.01 -0.081,-0.038Zm12.934,-0.262c-0.065,0 -0.136,-0.105 -0.153,-0.196c-0.058,-0.037 -0.121,0.091 -0.259,-0.055c-0.035,0.06 -0.129,0.114 -0.208,0.076c-0.039,0.126 -0.087,0.136 -0.189,0.214c-0.017,-0.071 0.007,-0.153 0.007,-0.153c0,0 -0.024,0.039 -0.051,0.06c0.046,0.151 -0.008,0.273 -0.064,0.353c0.08,-0.071 0.183,-0.06 0.183,-0.06c0,0 0.096,-0.073 0.247,-0.075c-0.07,-0.028 -0.119,-0.132 -0.119,-0.132c0,0 0.167,-0.113 0.279,0.045c0.112,-0.031 0.242,0.059 0.242,0.059c0,0 -0.079,-0.07 -0.126,-0.171c0.08,0.005 0.198,0.139 0.221,0.166c-0.003,-0.045 -0.006,-0.088 -0.01,-0.131Zm-0.655,0.293c0,0 0.013,-0.024 0,-0.043c0.03,0.015 0.112,0.007 0.142,-0.016c-0.037,0.043 -0.142,0.059 -0.142,0.059Zm-11.431,-0.93c-0.036,0.032 -0.064,0.048 -0.064,0.048c0,0 -0.149,0.22 -0.246,0.2c-0.115,0.125 -0.279,0.151 -0.279,0.151c0,0 0.04,-0.141 0.148,-0.273c-0.061,0.061 -0.125,0.077 -0.125,0.077c0,0 -0.007,0.06 -0.119,0.17c-0.079,0.212 -0.203,0.351 -0.203,0.351c0,0 0.025,0.056 0.036,0.13c0.059,-0.007 0.123,-0.03 0.123,-0.03c0,0 0.015,-0.037 0.044,-0.055c-0.005,0 -0.01,-0.001 -0.015,-0.002c0.03,-0.01 0.058,-0.019 0.087,-0.028c0.146,-0.325 0.409,-0.333 0.409,-0.333c0,0 0.06,-0.08 0.155,-0.104c-0.066,0.002 -0.121,-0.014 -0.121,-0.014c0,0 0.146,-0.135 0.422,-0.15c-0.084,-0.048 -0.168,-0.094 -0.252,-0.138Zm12.098,0.794c-0.004,-0.001 -0.008,-0.003 -0.011,-0.003c0.004,0.003 0.008,0.005 0.012,0.009l0,-0.001l-0.001,-0.005Zm-5.05,-0.501c-0.015,-0.002 -0.031,-0.005 -0.048,-0.01c-0.113,0.066 -0.26,0.036 -0.26,0.036c0,0 -0.018,0.151 -0.139,0.222c-0.01,0.027 -0.02,0.052 -0.03,0.076c0.064,0.023 0.124,0.052 0.173,0.089c0.151,-0.005 0.24,0.08 0.24,0.08c0,0 -0.034,-0.054 -0.02,-0.099c0.081,0.019 0.165,0.06 0.237,0.103c-0.051,-0.171 -0.102,-0.336 -0.153,-0.497Zm-6.871,0.084c-0.02,-0.003 -0.038,-0.009 -0.054,-0.019c-0.01,0.172 -0.257,0.235 -0.257,0.235c0,0 -0.001,0.008 -0.004,0.02c0.035,-0.007 0.07,-0.013 0.103,-0.019c0.071,-0.076 0.144,-0.156 0.212,-0.217Zm10.32,0.23c0.043,-0.025 0.061,-0.081 0.061,-0.081c0,0 0.03,0.031 0.141,-0.033c-0.086,0.089 -0.139,0.126 -0.202,0.114Zm-10.008,-0.326c-0.063,0.041 -0.142,0.078 -0.215,0.093c-0.021,0.063 -0.089,0.139 -0.158,0.198c0.407,-0.05 0.597,0.015 0.597,0.015c0,0 0.11,-0.027 0.228,0.01c-0.149,-0.114 -0.3,-0.219 -0.452,-0.316Zm-2.711,0.265c0.001,-0.056 -0.012,-0.115 -0.012,-0.115c0,0 0.1,-0.087 0.14,-0.159c-0.022,0.099 -0.112,0.167 -0.128,0.274Zm14.286,-0.126c-0.013,0.017 -0.03,0.018 -0.03,0.018c0,0 0.012,0.024 0.039,0.065c-0.003,-0.028 -0.006,-0.056 -0.009,-0.083Zm-1.271,0.03c0.056,-0.04 0.102,-0.105 0.11,-0.07c0.008,0.035 -0.042,0.043 -0.11,0.07Zm1.25,-0.188c-0.006,-0.005 -0.009,-0.007 -0.009,-0.007c0,0 -0.014,0.034 -0.035,0.06c0.014,-0.003 0.037,0.005 0.054,0.021c-0.003,-0.025 -0.007,-0.05 -0.01,-0.074Zm-0.966,0.071c0,0 0.076,-0.115 0.098,-0.179c0,0 -0.02,0.082 -0.029,0.143c-0.028,0.002 -0.069,0.036 -0.069,0.036Zm0.818,-0.075c0,0 -0.018,-0.063 -0.109,-0.02c-0.036,0.017 -0.062,0.038 -0.062,0.038c0,0 0.018,-0.035 0.022,-0.057c0.04,0.019 0.083,-0.034 0.083,-0.034c0,0 0.063,0.033 0.122,0.039c-0.026,0.011 -0.056,0.034 -0.056,0.034Zm0.053,-0.49c-0.004,-0.002 -0.009,-0.003 -0.013,-0.004c-0.031,0.081 -0.15,0.066 -0.2,-0.022c-0.083,0.129 -0.303,0.22 -0.303,0.22c0,0 0.031,0.021 0.064,0.055c0.095,-0.021 0.128,0.055 0.128,0.055c0,0 0.018,0.003 0.046,-0.001c-0.063,-0.026 -0.1,-0.086 -0.1,-0.086c0,0 0.216,0.012 0.302,0.154c0.07,0.006 0.125,0.047 0.166,0.093c-0.006,-0.042 -0.013,-0.082 -0.02,-0.122c-0.021,-0.116 -0.044,-0.23 -0.07,-0.342Zm-7.432,0.363c-0.015,-0.016 -0.055,-0.065 -0.077,-0.14c0.001,0.09 -0.005,0.158 -0.014,0.213c0.028,-0.025 0.059,-0.05 0.091,-0.073Zm-5.64,-0.033c0.045,-0.009 0.06,-0.021 0.06,-0.021c0,0 -0.106,0.107 -0.215,0.125c0.117,-0.124 0.233,-0.308 0.263,-0.381c-0.028,0.146 -0.078,0.164 -0.108,0.277Zm-0.921,-0.345c0.001,-0.001 0.001,-0.002 0.002,-0.003c-0.001,0.001 -0.001,0.002 -0.002,0.003c-0.059,0.103 -0.105,0.131 -0.105,0.131c0,0 -0.022,0.096 -0.103,0.233c0.063,-0.105 0.183,-0.162 0.204,-0.211c-0.047,0.035 -0.087,0.041 -0.087,0.041c0,0 0.028,-0.084 0.091,-0.194Zm6.639,0.289c-0.02,0.031 -0.038,0.055 -0.051,0.072c0.012,-0.008 0.024,-0.016 0.037,-0.023c0.004,-0.017 0.009,-0.033 0.014,-0.049Zm-6.448,-0.137c-0.01,0.045 0.038,0.075 0.038,0.075c-0.055,-0.025 -0.083,-0.005 -0.083,-0.005c0,0 0.032,-0.046 0.023,-0.11c0.113,-0.006 0.18,-0.136 0.206,-0.185c-0.032,0.077 0.062,0.048 0.086,0.039c0.004,-0.001 0.006,-0.002 0.006,-0.002c0,0 -0.002,0.001 -0.006,0.002c-0.028,0.011 -0.156,0.065 -0.27,0.186Zm8.343,-1.143c-0.121,0.136 -0.394,0.014 -0.493,-0.134c-0.139,-0.013 -0.204,0.224 -0.568,0.106c-0.043,0.116 -0.209,0.265 -0.395,0.266c-0.016,0.217 -0.11,0.267 -0.282,0.457c-0.072,-0.093 -0.065,-0.234 -0.065,-0.234c0,0 -0.03,0.077 -0.074,0.128c0.172,0.191 0.125,0.413 0.05,0.573c0.129,-0.165 0.351,-0.223 0.351,-0.223c0,0 0.161,-0.179 0.474,-0.292c-0.16,0.009 -0.316,-0.11 -0.316,-0.11c0,0 0.288,-0.291 0.605,-0.137c0.218,-0.127 0.534,-0.088 0.534,-0.088c0,0 -0.2,-0.047 -0.35,-0.164c0.189,-0.057 0.558,0.091 0.558,0.091c0,0 0.031,0.001 0.073,0.004c-0.034,-0.083 -0.068,-0.165 -0.102,-0.243Zm-3.401,1.162c0.078,-0.07 0.086,-0.167 0.086,-0.167c0,0 0.079,0.024 0.275,-0.152c-0.131,0.196 -0.224,0.289 -0.361,0.319Zm-3.792,-0.235c-0.061,0.086 -0.16,0.128 -0.16,0.128c0,0 -0.01,0.035 -0.05,0.076c0.111,-0.094 0.298,-0.057 0.298,-0.057c0,0 0.051,-0.051 0.137,-0.058c-0.075,-0.031 -0.15,-0.061 -0.225,-0.089Zm16.868,-0.024c-0.048,0.004 -0.088,-0.006 -0.088,-0.006c0,0 -0.018,0.015 -0.057,0.02c0.069,-0.003 0.133,0.043 0.165,0.071c0.015,0.013 0.031,0.02 0.05,0.022c0.001,0 0.003,0 0.004,0.001c-0.024,-0.037 -0.049,-0.072 -0.074,-0.108Zm-10.958,0.059c0,0 0.014,-0.046 -0.024,-0.064c0.072,0 0.236,-0.071 0.289,-0.127c-0.056,0.09 -0.265,0.191 -0.265,0.191Zm10.615,-0.021c0.028,0.015 0.041,0.014 0.041,0.014c0,0 -0.101,0.014 -0.169,-0.021c0.114,-0.019 0.252,-0.07 0.297,-0.098c-0.073,0.068 -0.108,0.057 -0.169,0.105Zm-0.788,-0.211c0.023,-0.029 0.039,-0.067 0.039,-0.067c0,0 0.09,-0.005 0.141,-0.028c-0.052,0.045 -0.129,0.044 -0.18,0.095Zm-11.408,-0.02c0.094,-0.099 0.156,-0.231 0.192,-0.184c0.036,0.046 -0.065,0.094 -0.192,0.184Zm11.867,-0.174c-0.024,0.02 -0.009,0.055 -0.009,0.055c-0.021,-0.036 -0.044,-0.036 -0.044,-0.036c0,0 0.036,-0.012 0.056,-0.05c0.066,0.043 0.154,0 0.188,-0.015c-0.048,0.028 0.016,0.051 0.033,0.057l0.004,0.001c0,0 -0.002,-0.001 -0.004,-0.001c-0.02,-0.006 -0.113,-0.03 -0.224,-0.011Zm-20.117,-0.079c0.105,-0.066 0.23,-0.085 0.23,-0.085l-0.418,0.038c0,0 -0.034,0.047 -0.096,0.096c0.091,-0.018 0.186,-0.034 0.284,-0.049Zm19.811,0.028c0.099,-0.04 0.15,-0.084 0.15,-0.084c0,0 0.037,0.005 0.112,-0.027c-0.08,0.033 -0.129,0.068 -0.129,0.068c0,0 0.024,0.013 0.064,0.013c-0.031,0.018 -0.12,0 -0.197,0.03Zm-3.725,-0.569c-0.035,0.045 -0.104,0.077 -0.168,0.094c0.271,0.157 0.367,0.307 0.367,0.307c0,0 0.078,0.03 0.138,0.121c-0.052,-0.173 -0.109,-0.338 -0.17,-0.498c-0.054,0.005 -0.116,-0.001 -0.167,-0.024Zm-0.732,0.237c-0.05,-0.005 -0.087,-0.022 -0.087,-0.022c0,0 0.004,-0.033 0.035,-0.058c-0.035,0.008 -0.051,-0.014 -0.051,-0.014c0,0 -0.073,0.139 -0.264,0.126c-0.045,0.089 -0.098,0.143 -0.154,0.176c0.115,-0.049 0.203,-0.02 0.203,-0.02c0,0 0.144,-0.129 0.333,-0.137c-0.029,-0.005 -0.049,-0.019 -0.049,-0.019c0,0 0.013,-0.013 0.034,-0.032Zm-6.574,0.175c0,0 0.098,-0.227 0.11,-0.338c0,0 0.002,0.137 0.015,0.234c-0.058,0.025 -0.125,0.104 -0.125,0.104Zm7.244,-0.457c-0.011,-0.012 -0.02,-0.027 -0.027,-0.043c-0.066,0.145 -0.243,0.078 -0.243,0.078c0,0 -0.003,0.006 -0.009,0.016c0.024,0.011 0.048,0.022 0.071,0.034c0.071,-0.031 0.145,-0.065 0.208,-0.085Zm-0.954,0.02c-0.004,-0.028 -0.006,-0.051 -0.006,-0.051c0,0 -0.03,0.066 -0.123,0.095c0.024,0.003 0.047,0.01 0.068,0.02c0.018,-0.03 0.039,-0.051 0.061,-0.064Zm-4.136,-0.282c-0.119,-0.09 -0.199,-0.094 -0.199,-0.094c0,0 -0.012,0.061 -0.043,0.116c0.052,-0.028 0.186,-0.023 0.198,0.053c0.013,0.075 -0.06,0.103 -0.06,0.103c0,0 0.085,0.06 0.251,0.138c-0.049,-0.111 -0.098,-0.216 -0.147,-0.316Zm4.267,0.213c-0.006,0.018 -0.013,0.035 -0.021,0.051c0.034,0.007 0.058,0.022 0.058,0.022c0,0 -0.02,-0.027 -0.037,-0.073Zm0.845,-0.366c-0.033,0.01 -0.057,0.009 -0.057,0.009c0,0 -0.17,0.119 -0.224,0.054c-0.115,0.053 -0.226,-0.005 -0.226,-0.005c0,0 0.074,-0.103 0.188,-0.166c-0.06,0.024 -0.105,0.006 -0.105,0.006c0,0 -0.025,0.05 -0.134,0.09c-0.124,0.146 -0.25,0.206 -0.25,0.206c0,0 -0.005,0.062 -0.024,0.131c0.04,0.023 0.088,0.034 0.088,0.034c0,0 0.022,-0.024 0.047,-0.026c-0.003,-0.003 -0.006,-0.006 -0.009,-0.009c0.022,0.006 0.043,0.012 0.064,0.018c0.206,-0.211 0.372,-0.089 0.372,-0.089c0,0 0.066,-0.04 0.134,-0.014c-0.043,-0.031 -0.071,-0.072 -0.071,-0.072c0,0 0.139,-0.046 0.316,0.076c-0.035,-0.083 -0.072,-0.164 -0.109,-0.243Zm-5.6,0.164c0,0 -0.07,-0.081 -0.237,0.05c-0.066,0.051 -0.11,0.102 -0.11,0.102c0,0 0.02,-0.065 0.017,-0.102c0.093,0 0.155,-0.11 0.155,-0.11c0,0 0.149,0.002 0.274,-0.031c-0.047,0.035 -0.099,0.091 -0.099,0.091Zm0.075,-0.706c-0.051,-0.032 -0.147,-0.079 -0.249,-0.061c-0.023,0.143 -0.278,0.208 -0.428,0.113c-0.106,0.254 -0.517,0.55 -0.517,0.55c0,0 0.076,0.009 0.161,0.035c0.188,-0.101 0.296,-0.011 0.296,-0.011c0,0 0.038,-0.009 0.096,-0.034c-0.144,0.006 -0.254,-0.056 -0.254,-0.056c0,0 0.456,-0.14 0.712,0.009c0.248,-0.068 0.464,0.036 0.574,0.106c-0.092,-0.182 -0.183,-0.343 -0.275,-0.481c-0.038,-0.058 -0.077,-0.115 -0.116,-0.17Zm8.2,0.348c-0.042,-0.071 -0.159,-0.093 -0.159,-0.093c0.087,0.003 0.153,-0.024 0.153,-0.024l0.272,0.136c0,0 -0.157,-0.067 -0.266,-0.019Zm-10.929,-0.645c-0.092,0.024 -0.164,0.026 -0.164,0.026c0,0 -0.008,-0.046 0.036,-0.096c-0.06,0.032 -0.097,0.013 -0.097,0.013c0,0 -0.067,0.222 -0.413,0.325c-0.04,0.141 -0.11,0.242 -0.195,0.32c0.183,-0.134 0.351,-0.152 0.351,-0.152c0,0 0.199,-0.254 0.531,-0.381c-0.054,0.012 -0.096,0.006 -0.096,0.006c0,0 0.017,-0.024 0.047,-0.061Zm7.924,0.222c-0.068,0.045 -0.145,0.033 -0.145,0.033c0,0 -0.018,0.025 -0.057,0.041c0.102,-0.027 0.205,0.097 0.205,0.097c0,0 0.051,-0.019 0.107,0.017c-0.036,-0.064 -0.073,-0.127 -0.11,-0.188Zm-0.405,0.15c0.031,0.015 0.044,0.012 0.044,0.012c0,0 -0.103,0.04 -0.178,0.002c0.117,-0.051 0.254,-0.153 0.298,-0.202c-0.069,0.114 -0.106,0.105 -0.164,0.188Zm-0.844,-0.149c0.021,-0.048 0.034,-0.106 0.034,-0.106c0,0 0.093,-0.026 0.143,-0.07c-0.049,0.076 -0.129,0.091 -0.177,0.176Zm-7.297,-0.38c-0.019,-0.034 -0.032,-0.062 -0.032,-0.062c0,0 -0.025,0.103 -0.177,0.197c0.044,-0.011 0.087,-0.017 0.129,-0.016c0.02,-0.05 0.048,-0.089 0.08,-0.119Zm7.943,-0.1c-0.035,0.031 -0.119,0.105 -0.19,0.057c-0.017,0.061 -0.053,0.084 -0.053,0.084c0,0 0.025,-0.004 0.05,0.045c0,0 -0.019,-0.049 0.003,-0.083c0.114,-0.05 0.213,-0.034 0.234,-0.03l-0.001,0c-0.019,-0.005 -0.085,-0.026 -0.04,-0.076l-0.003,0.003Zm-0.256,-0.123c0.001,-0.001 0.002,-0.001 0.002,-0.002c0,0.001 -0.001,0.001 -0.002,0.002c-0.073,0.06 -0.112,0.061 -0.112,0.061c0,0 -0.047,0.074 -0.146,0.153c0.077,-0.06 0.171,-0.051 0.201,-0.083c-0.041,0.007 -0.068,-0.007 -0.068,-0.007c0,0 0.047,-0.059 0.125,-0.124Zm-7.484,0.053c-0.003,0.026 -0.008,0.052 -0.016,0.078c0.065,-0.012 0.114,-0.009 0.114,-0.009c0,0 -0.047,-0.021 -0.098,-0.069Zm0.963,-0.145c-0.032,0.033 -0.081,0.069 -0.157,0.094c-0.003,0.021 -0.008,0.041 -0.014,0.06c0.004,-0.001 0.008,-0.003 0.012,-0.004c0.069,-0.025 0.153,-0.078 0.242,-0.14c-0.024,-0.002 -0.052,-0.005 -0.083,-0.01Zm0.482,-0.933c-0.094,0.099 -0.203,0.135 -0.203,0.135c0,0 -0.25,0.256 -0.374,0.208c-0.182,0.137 -0.406,0.134 -0.406,0.134c0,0 0.087,-0.178 0.261,-0.328c-0.095,0.067 -0.183,0.073 -0.183,0.073c0,0 -0.024,0.078 -0.199,0.196c-0.155,0.264 -0.352,0.418 -0.352,0.418c0,0 0.019,0.081 0.016,0.181c0.081,0.005 0.172,-0.01 0.172,-0.01c0,0 0.068,-0.108 0.151,-0.054c0.274,-0.431 0.643,-0.376 0.643,-0.376c0,0 0.1,-0.092 0.231,-0.101c-0.089,-0.013 -0.157,-0.048 -0.157,-0.048c0,0 0.371,-0.237 0.94,-0.008c-0.176,-0.151 -0.356,-0.291 -0.54,-0.42Zm0.621,0.49c-0.088,0.074 -0.288,0.154 -0.452,0.157c-0.032,0.059 -0.098,0.119 -0.173,0.172c0.639,-0.008 0.907,0.14 0.907,0.14c0,0 0.128,-0.008 0.251,0.057c-0.171,-0.188 -0.349,-0.363 -0.533,-0.526Zm-0.582,0.139c-0.025,-0.009 -0.048,-0.021 -0.067,-0.038c-0.054,0.226 -0.397,0.251 -0.397,0.251c0,0 0,0 -0.001,0.002c0.064,-0.007 0.125,-0.012 0.183,-0.016c0.096,-0.071 0.193,-0.144 0.282,-0.199Zm-3.224,-0.345c0.015,-0.074 0.012,-0.156 0.012,-0.156c0,0 0.154,-0.091 0.223,-0.178c-0.053,0.127 -0.188,0.196 -0.235,0.334Zm1.564,-0.334c0.062,-0.001 0.084,-0.013 0.084,-0.013c0,0 -0.166,0.116 -0.315,0.114c0.184,-0.137 0.383,-0.353 0.439,-0.443c-0.071,0.188 -0.142,0.2 -0.208,0.342Zm0.703,-0.503c-0.094,0.147 -0.292,0.192 -0.292,0.192c0,0 -0.021,0.043 -0.084,0.089c0.17,-0.099 0.408,-0.005 0.408,-0.005c0,0 0.138,-0.094 0.311,-0.013c-0.163,-0.083 -0.102,-0.131 -0.102,-0.131l-0.124,-0.071c-0.039,-0.021 -0.078,-0.041 -0.117,-0.061Zm-1.844,-0.172c0.002,-0.001 0.003,-0.003 0.004,-0.004c-0.001,0.001 -0.002,0.003 -0.004,0.004c-0.102,0.122 -0.171,0.147 -0.171,0.147c0,0 -0.051,0.123 -0.191,0.285c0.109,-0.124 0.281,-0.171 0.32,-0.231c-0.07,0.036 -0.124,0.034 -0.124,0.034c0,0 0.057,-0.104 0.166,-0.235Zm0.218,0.247c-0.024,0.057 0.032,0.107 0.032,0.107c-0.067,-0.047 -0.109,-0.026 -0.109,-0.026c0,0 0.054,-0.053 0.057,-0.14c0.152,0.018 0.271,-0.139 0.317,-0.197c-0.06,0.094 0.071,0.078 0.106,0.072c0.005,-0.001 0.008,-0.001 0.008,-0.001c0,0 -0.003,0.001 -0.008,0.001c-0.04,0.008 -0.223,0.049 -0.403,0.184Zm7.161,-0.229c0.088,-0.007 0.173,0.039 0.173,0.039l-0.274,-0.173c0,0 -0.037,0.024 -0.093,0.037c0.063,0.029 0.128,0.062 0.194,0.097Zm-9.602,-0.812c-0.044,0.029 -0.102,0.062 -0.172,0.087c0,0 0.228,-0.045 0.354,0.058c0.066,-0.068 0.157,-0.107 0.244,-0.13c-0.148,-0.009 -0.29,-0.013 -0.426,-0.015Zm-3.945,-1.368c-0.001,0 0.001,-0.004 0.005,0.029c0.003,0.028 0.082,0.089 0.106,0.116c0.005,0.006 0.057,0.065 0.059,0.068c0.054,0.101 0.025,0.101 -0.039,0.097c-0.064,-0.003 -0.233,-0.142 -0.291,-0.194c-0.118,-0.105 -0.248,-0.19 -0.369,-0.291c-0.234,-0.194 -0.462,-0.498 -0.698,-0.736c-0.065,-0.066 -0.525,-0.629 -0.533,-0.621c0,-0.025 -0.01,-0.035 -0.01,-0.058c-0.003,0 -0.02,0.014 -0.02,0.005c-0.001,-0.017 0.002,-0.014 0.01,-0.025c-0.018,0.009 -0.048,-0.041 -0.048,-0.068c-0.01,-0.003 -0.013,0 -0.01,0.01c-0.044,-0.022 0.016,-0.06 -0.048,-0.039c0,-0.083 -0.117,-0.215 -0.156,-0.31c-0.004,0 -0.016,0.012 -0.017,0.007c-0.007,-0.037 -0.08,-0.157 -0.099,-0.191c-0.054,-0.098 -0.183,-0.238 -0.204,-0.34c-0.003,0 -0.019,0.015 -0.02,0.006c0,-0.022 -0.05,-0.134 -0.057,-0.122c-0.046,-0.05 -0.17,-0.446 -0.243,-0.446c0.022,-0.064 -0.087,-0.158 -0.087,-0.214c-0.003,0 -0.019,0.015 -0.02,0.006c-0.003,-0.079 -0.147,-0.242 -0.125,-0.306c-0.003,0.001 -0.239,-0.407 -0.252,-0.475c-0.005,0 -0.017,0.012 -0.018,0.007c-0.007,-0.036 -0.016,-0.133 -0.079,-0.133c0,-0.04 -0.02,-0.037 -0.02,-0.068c-0.005,0 -0.016,0.012 -0.017,0.007c-0.004,-0.021 0.013,-0.019 0.008,-0.036c-0.059,0 -0.162,-0.365 -0.214,-0.34c0.009,-0.031 0.002,-0.037 -0.019,-0.019c0.018,-0.054 -0.085,-0.146 -0.086,-0.148c-0.005,-0.026 0.008,-0.009 0.008,-0.046c-0.014,0 -0.017,0.011 -0.029,0.019c0,-0.027 0.007,-0.018 0.02,-0.038c-0.073,0 -0.201,-0.325 -0.224,-0.427c-0.004,0 -0.016,0.012 -0.017,0.007c-0.013,-0.065 -0.027,-0.138 -0.046,-0.201c-0.014,-0.049 -0.061,-0.481 -0.13,-0.446c0.011,-0.036 -0.018,-0.089 -0.03,-0.126c-0.021,-0.069 -0.029,-0.098 -0.046,-0.18c-0.029,-0.15 -0.06,-0.283 -0.07,-0.46c-0.004,-0.066 0.001,-0.123 0,-0.214c0,-0.015 0.006,0.004 -0.004,-0.045c-0.025,-0.121 -0.072,-0.117 -0.19,-0.158c-0.134,-0.048 -0.222,-0.079 -0.349,-0.131c-0.345,-0.143 -0.715,-0.383 -1.067,-0.514c-0.245,-0.091 -0.599,-0.08 -0.863,-0.02c-0.16,0.037 -0.911,0.148 -1.076,0.17c-0.038,0.005 -0.157,0.019 -0.165,-0.019c-0.005,-0.028 0.117,-0.107 0.15,-0.126c0.089,-0.052 0.166,-0.082 0.257,-0.126c0.149,-0.072 0.32,-0.181 0.475,-0.243c0.187,-0.074 0.375,-0.148 0.553,-0.223c0.127,-0.053 0.183,-0.098 0.272,-0.184c0.08,-0.078 0.142,-0.165 0.218,-0.248c0.148,-0.162 0.35,-0.278 0.538,-0.329c0.289,-0.078 0.609,-0.131 0.975,-0.102c0.329,0.026 0.665,0.053 1.044,0.029c0.454,-0.03 0.866,0.057 1.239,0.116c0.461,0.074 0.854,0.202 1.261,0.292c0.808,0.178 1.534,0.413 2.25,0.795c0.083,0.044 0.181,0.129 0.291,0.155c0,0.06 0.309,0.176 0.368,0.213c0.04,0.025 0.08,0.066 0.117,0.087c0.103,0.061 0.243,0.114 0.368,0.175c0.208,0.102 0.413,0.258 0.621,0.368c0.197,0.105 0.464,0.154 0.717,0.204c0.292,0.058 0.653,0.127 0.935,0.156c0.097,0.01 0.222,0.021 0.346,0.038c0.075,0.01 0.614,0.033 0.64,0.116c-0.178,0 -0.372,-0.003 -0.589,-0.036c-0.172,-0.027 -0.305,-0.028 -0.43,-0.043c-0.057,-0.007 -0.845,-0.147 -0.902,-0.095c0.033,-0.013 -0.013,0.009 -0.038,0.019c0.234,0.004 0.427,0.089 0.653,0.133c0.198,0.038 0.323,0.059 0.481,0.076c0.046,0.005 0.786,0.074 0.786,0.15c-0.669,0 -1.219,-0.121 -1.867,-0.24c-0.248,-0.045 -0.56,-0.099 -0.79,-0.153c-0.143,-0.033 -0.495,-0.077 -0.67,-0.063c-0.108,0.009 -0.271,0.011 -0.441,0.039c-0.079,0.013 -0.171,0.032 -0.247,0.044c-0.079,0.012 -0.475,0.014 -0.475,0.121c-0.206,0.001 -0.313,-0.096 -0.505,-0.094c-0.11,0.001 -0.148,-0.001 -0.256,0.007c-0.139,0.009 -0.288,0.032 -0.442,0.038c-0.086,0.004 -0.204,0.007 -0.305,0.004c-0.05,-0.001 -0.161,-0.018 -0.209,0.006c-0.032,0.016 0.007,0.068 -0.058,0.068c0,0.051 0.206,0.218 0.248,0.262c0.125,0.131 0.299,0.256 0.373,0.446c-0.054,0 -0.093,-0.017 -0.165,-0.029c0,0.075 0.122,0.132 0.175,0.184c0.045,0.045 0.279,0.313 0.223,0.388c-0.034,-0.015 -0.038,-0.01 -0.058,-0.01c0,0.043 0.094,0.116 0.116,0.146c0.026,0.036 0.061,0.091 0.077,0.126c0.044,0.093 0.034,0.162 0.049,0.274c0.007,0.048 -0.003,0.035 0.019,0.088c0.009,0.021 0.029,0.039 0.039,0.055c0.027,0.042 0.056,0.079 0.082,0.126c0.029,0.051 0.054,0.094 0.068,0.145c0.034,0.121 -0.019,0.211 0.054,0.33c0.036,0.059 0.086,0.116 0.105,0.202c0.025,0.115 -0.025,0.189 -0.018,0.283c0.004,0.046 0.078,0.129 0.097,0.184c0.012,0.035 0.054,0.144 0.029,0.184c-0.039,0.065 -0.152,0.02 -0.204,0.02c0.003,0.062 0.044,0.087 0.071,0.129c0.049,0.077 0.075,0.146 0.104,0.239c-0.06,0 -0.132,-0.019 -0.175,-0.019c0.034,0.116 0.202,0.16 0.243,0.281c-0.265,0.004 -0.52,-0.261 -0.708,-0.388c-0.097,-0.065 -0.2,-0.131 -0.291,-0.194c-0.102,-0.07 -0.225,-0.173 -0.32,-0.232c0,0.074 0.079,0.19 0.107,0.242c0.036,0.069 0.096,0.167 0.126,0.242c0.066,0.17 0.164,0.469 0.068,0.64c-0.04,0.071 -0.053,0.078 -0.03,0.156c0.029,0.094 0.074,0.162 0.098,0.232c0.028,0.085 0.049,0.168 0.058,0.243c0.007,0.062 0.02,0.159 0,0.203c-0.036,0.077 -0.086,0.075 -0.068,0.165c0.022,0.117 0.284,0.67 0.019,0.601c-0.027,-0.006 -0.051,-0.081 -0.09,-0.035c-0.013,0.015 0.026,0.12 0.032,0.142c0.02,0.078 0.081,0.219 0.068,0.311c0.001,0.019 0.003,0.039 0.005,0.058c0.01,0.049 -0.011,0.068 -0.063,0.058c-0.003,0.025 -0.005,0.029 -0.005,0.029Z" style="fill:#1b1b1a;fill-rule:nonzero;"/><path id="Inner-Outline" serif:id="Inner Outline" d="M59,32c0,-14.902 -12.098,-27 -27,-27c-14.902,0 -27,12.098 -27,27c0,14.902 12.098,27 27,27c14.902,0 27,-12.098 27,-27Z" style="fill:none;stroke:#fff;stroke-width:3px;"/><path id="Outline" d="M61.409,31.99c0,-16.178 -13.135,-29.313 -29.313,-29.313c-16.179,0 -29.314,13.135 -29.314,29.313c0,16.179 13.135,29.313 29.314,29.313c16.178,0 29.313,-13.134 29.313,-29.313Z" style="fill:none;stroke:#000;stroke-width:3px;"/></g></g></g></svg>