<?xml version="1.0" encoding="UTF-8" standalone="no"?><!DOCTYPE svg PUBLIC "-//W3C//DTD SVG 1.1//EN" "http://www.w3.org/Graphics/SVG/1.1/DTD/svg11.dtd"><svg width="100%" height="100%" viewBox="0 0 64 64" version="1.1" xmlns="http://www.w3.org/2000/svg" xmlns:xlink="http://www.w3.org/1999/xlink" xml:space="preserve" xmlns:serif="http://www.serif.com/" style="fill-rule:evenodd;clip-rule:evenodd;stroke-miterlimit:10;"><g id="Competition"><path d="M36.4,10.869c0.486,0.309 0.974,0.616 1.463,0.918c0.705,0.509 -0.65,2.104 -1.141,1.847l-14.406,-8.901c-0.243,-0.177 -0.331,-0.324 0.576,-0.629c0.659,-0.215 1.639,-0.488 1.639,-0.488c0.034,-0.002 0.034,-0.003 0.068,0c0.034,0.007 0.034,0.007 0.066,0.019c2.441,1.287 4.036,3.232 6.678,3.231c0.323,0 0.417,0.188 0.885,0.201c1.005,0.075 1.972,0.751 2.965,1.259c0.296,0.151 0.595,0.301 0.894,0.451l0.299,-0.494l1.156,0.7l-0.242,0.4c2.272,1.142 4.511,2.348 6.201,4.062c1.709,1.734 0.985,4.764 1.833,7.115c0.252,0.699 0.465,1.38 0.629,2.098c0.684,-0.752 1.227,-1.655 1.581,-2.658c1.026,2.901 3.626,4.964 6.669,4.964c2.224,0 4.211,-1.102 5.52,-2.829c1.143,3.132 1.767,6.513 1.767,10.039c0,16.178 -13.135,29.313 -29.313,29.313c-16.178,0 -29.313,-13.135 -29.313,-29.313c0,-2.766 0.384,-5.443 1.101,-7.98c1.627,-0.853 2.91,-2.355 3.56,-4.194c1.025,2.901 3.625,4.964 6.668,4.964c3.043,0 5.643,-2.063 6.668,-4.964c1.026,2.901 3.626,4.964 6.669,4.964c3.042,0 5.643,-2.063 6.668,-4.964c1.025,2.901 3.625,4.964 6.668,4.964c1.649,0 3.168,-0.606 4.377,-1.623c-0.266,-1.382 -1.132,-2.612 -1.196,-4.121c-0.017,-0.406 -0.027,-0.812 -0.045,-1.219c-0.009,-0.192 -0.009,-0.191 -0.021,-0.383c-0.091,-1.329 -0.393,-2.697 -1.316,-3.583c-1.223,-1.174 -2.768,-1.938 -4.285,-2.827c-0.54,-0.314 -1.082,-0.629 -1.627,-0.939l-0.363,0.6Zm10.046,17.159c-0.012,0.032 -0.058,0.095 -0.17,0.257c-0.178,0.256 -0.593,0.273 -0.797,0.037c-0.043,-0.049 -0.074,-0.103 -0.098,-0.159c-1.228,0.575 -1.212,2.51 -0.2,3.206c-0.001,2.458 0.018,4.917 0.018,7.372c-0.031,3.78 -5.322,6.384 -5.927,5.246c-1.824,-3.435 -0.296,-4.51 0.728,-2.358c0.424,0.891 -0.071,-3.122 0,-3.73c0.599,-5.154 -2.226,2.69 -2.575,4.078c-2.036,8.477 9.56,2.724 9.768,-2.866c0.051,-2.004 0.747,-5.909 0.244,-7.998c0.232,-0.212 0.409,-0.481 0.499,-0.788c0.298,-1.027 -0.482,-2.108 -1.49,-2.297Zm-24.559,7.837l-1.884,-1.002c-0.436,-0.232 -0.947,-0.054 -1.141,0.396c-0.193,0.451 0.003,1.005 0.439,1.236l0.831,0.442c-0.446,0.25 -0.923,0.488 -1.427,0.707l-0.071,0.047l-0.008,-0.012c-0.127,0.054 -0.255,0.107 -0.384,0.159c-0.794,0.318 -1.715,0.671 -2.462,0.844c-1.365,0.315 -2.469,0.28 -3.413,0.114c-0.096,-0.022 -0.194,0.004 -0.265,0.069c-0.071,0.066 -0.109,0.164 -0.101,0.268c0.086,0.662 0.282,1.931 0.581,2.675c0.34,0.85 0.786,1.605 1.293,2.231c0.067,0.08 0.163,0.125 0.26,0.122c0.098,-0.003 0.186,-0.054 0.239,-0.138c0.498,-0.75 1.051,-1.371 2.087,-2.071c0.562,-0.381 1.383,-0.831 2.149,-1.234c0.319,-0.167 1.943,-0.756 2.829,-0.983l-0.198,1.448c-0.05,0.368 0.193,0.728 0.543,0.802l1.269,0.271c0.35,0.075 0.675,-0.163 0.725,-0.532l0.331,-2.423c0.053,-0.013 0.105,-0.026 0.158,-0.041c1.851,-0.501 4.06,-1.212 4.364,-1.334c3.32,-1.331 4.684,-2.327 5.727,-3.332c0.674,-0.649 1.697,-1.524 1.506,-2.001c-0.055,-0.136 -0.586,0.267 -0.745,0.181c-0.054,-0.029 0.281,-0.418 0.324,-0.513c0.012,-0.026 -0.038,-0.054 -0.066,-0.057c-0.414,-0.038 -1.17,-0.06 -2.61,0.063c-1.968,0.167 -5.081,1.137 -7.731,2.2c-1.118,0.448 -2.177,0.92 -3.149,1.398Zm11.479,-2.88c-0.29,0.116 -0.422,0.467 -0.296,0.782c0.126,0.315 0.464,0.476 0.754,0.36c0.29,-0.116 0.423,-0.466 0.297,-0.781c-0.127,-0.316 -0.465,-0.477 -0.755,-0.361Zm0.058,0.143c-0.218,0.087 -0.317,0.35 -0.223,0.586c0.095,0.237 0.349,0.358 0.566,0.27c0.218,-0.087 0.317,-0.349 0.222,-0.586c-0.094,-0.236 -0.348,-0.357 -0.565,-0.27Zm13.828,-2.574c0.242,-0.26 0.349,-0.636 0.194,-1.122c-0.049,-0.153 -0.126,-0.297 -0.227,-0.423c-0.261,-0.325 -0.674,-0.514 -1.104,-0.509c-0.817,0.031 -1.505,0.88 -1.27,1.686c0.06,0.207 0.18,0.374 0.338,0.5c0.033,-0.562 0.344,-0.991 1.075,-0.962c0.465,0.053 0.783,0.357 0.994,0.83Zm-11.672,-20.94c-0.984,-0.529 -1.985,-1.019 -3.015,-1.421c-0.245,-0.096 -0.408,-0.119 -0.523,-0.139c1.074,0.694 2.145,1.394 3.22,2.087l0.318,-0.527Z" style="fill:#1b1b1a;"/><path id="Inner-Outline" serif:id="Inner Outline" d="M58.976,32.17c0,-14.902 -12.099,-27 -27,-27c-14.902,0 -27,12.098 -27,27c0,14.902 12.098,27 27,27c14.901,0 27,-12.098 27,-27Z" style="fill:none;stroke:#fff;stroke-width:3px;"/><path id="Outline" d="M61.5,32.174c0,-16.178 -13.135,-29.313 -29.313,-29.313c-16.178,0 -29.313,13.135 -29.313,29.313c0,16.178 13.135,29.313 29.313,29.313c16.178,0 29.313,-13.135 29.313,-29.313Z" style="fill:none;stroke:#1b1b1a;stroke-width:3px;"/></g></svg>