<?xml version="1.0" encoding="UTF-8" standalone="no"?><!DOCTYPE svg PUBLIC "-//W3C//DTD SVG 1.1//EN" "http://www.w3.org/Graphics/SVG/1.1/DTD/svg11.dtd"><svg width="100%" height="100%" viewBox="0 0 64 64" version="1.1" xmlns="http://www.w3.org/2000/svg" xmlns:xlink="http://www.w3.org/1999/xlink" xml:space="preserve" xmlns:serif="http://www.serif.com/" style="fill-rule:evenodd;clip-rule:evenodd;stroke-miterlimit:10;"><g id="Habitats"><g id="Marine"><g id="coral"><path d="M20.277,34.343c0.002,0.005 0.004,0.011 0.005,0.016c-0.024,-0.033 -0.047,-0.068 -0.072,-0.101c-0.958,-1.261 -1.849,-2.51 -2.853,-3.713c-0.113,0.101 -0.258,0.162 -0.413,0.164c0,0 0,0 -0.001,0c-0.122,0.038 -0.231,0.024 -0.353,0c-0.131,-0.026 -0.25,-0.054 -0.376,-0.105c-0.185,-0.074 -0.534,-0.397 -0.381,-0.653c0.083,-0.137 0.217,-0.258 0.369,-0.298c0.033,-0.008 0.066,-0.017 0.098,-0.028c-0.074,0.042 -0.043,0.028 0.094,-0.044c0.021,-0.009 0.041,-0.018 0.062,-0.026c0.006,-0.005 0.012,-0.01 0.018,-0.015c-0.412,-0.428 -0.915,-0.921 -1.23,-1.469c0.027,0.024 0.053,0.047 0.08,0.071c-0.004,-0.007 -0.007,-0.014 -0.012,-0.02c-0.024,-0.041 -0.048,-0.081 -0.07,-0.122c-0.013,-0.022 -0.024,-0.045 -0.036,-0.068c-0.019,-0.038 -0.038,-0.076 -0.055,-0.114c-0.011,-0.024 -0.022,-0.049 -0.032,-0.074c-0.015,-0.038 -0.03,-0.075 -0.043,-0.113c-0.009,-0.025 -0.017,-0.051 -0.025,-0.076c-0.012,-0.039 -0.022,-0.078 -0.031,-0.118c-0.006,-0.025 -0.012,-0.049 -0.017,-0.074c-0.008,-0.043 -0.013,-0.087 -0.018,-0.13c-0.003,-0.022 -0.006,-0.043 -0.008,-0.064c-0.004,-0.066 -0.006,-0.132 -0.002,-0.198c0.015,-0.257 0.2,-0.455 0.447,-0.4c0.08,0.018 0.159,0.04 0.238,0.066c0.033,0.011 0.066,0.025 0.099,0.037c0.045,0.017 0.09,0.032 0.134,0.051c0.046,0.02 0.091,0.043 0.137,0.065c0.03,0.015 0.061,0.028 0.091,0.043c0.053,0.028 0.106,0.059 0.158,0.09c0.022,0.013 0.044,0.024 0.066,0.037c0.035,0.022 0.07,0.046 0.105,0.068c0.001,-0.006 0.003,-0.013 0.004,-0.02c0.021,-0.151 0.047,-0.303 0.083,-0.452c0.021,-0.088 0,-0.184 0.019,-0.274c0.016,-0.078 0.056,-0.134 0.057,-0.217c0,-0.084 0.082,-0.146 0.153,-0.104c0.075,0.043 0.167,0.051 0.242,0.094c0.105,0.06 0.177,0.18 0.245,0.281c0.12,0.179 0.222,0.465 0.236,0.686c0.017,0.255 0.004,0.538 -0.074,0.783c0.47,0.446 0.905,0.935 1.303,1.344c0.89,0.914 1.672,1.922 2.439,2.946c0.058,-0.251 0.111,-0.498 0.186,-0.678c0.293,-0.705 0.421,-1.64 0.565,-2.404c0.122,-0.644 0.199,-1.252 0.392,-1.866c-0.001,-0.093 0.027,-0.186 0.091,-0.265c0.001,-0.003 0.002,-0.007 0.004,-0.01c0.046,-0.124 0.083,-0.249 0.117,-0.375c-0.146,-0.007 -0.284,-0.098 -0.384,-0.235c-0.096,-0.132 -0.126,-0.34 -0.169,-0.502c-0.048,-0.185 -0.052,-0.405 0.045,-0.571c0.069,-0.119 0.202,-0.183 0.325,-0.111c0.123,0.072 0.208,0.174 0.296,0.29c0.029,0.039 0.063,0.074 0.097,0.109c0.009,-0.049 0.018,-0.098 0.028,-0.147c0.008,-0.042 0.016,-0.083 0.025,-0.124c0.011,-0.052 0.022,-0.105 0.034,-0.157c0.013,-0.056 0.028,-0.112 0.042,-0.167c0.01,-0.039 0.019,-0.077 0.03,-0.115c0.028,-0.095 0.058,-0.188 0.093,-0.281c0.082,-0.221 0.365,-0.19 0.472,-0.02c0.044,0.069 0.082,0.143 0.119,0.219c0.011,0.023 0.021,0.045 0.031,0.069c0.027,0.059 0.051,0.12 0.074,0.183c0.008,0.023 0.017,0.046 0.025,0.07c0.023,0.07 0.043,0.142 0.062,0.215c0.011,0.044 0.021,0.089 0.031,0.134c0.007,0.034 0.014,0.068 0.021,0.103c0.086,0.455 0.103,0.955 0.081,1.462c0.074,-0.037 0.168,-0.119 0.241,-0.181c0.168,-0.142 0.403,-0.254 0.562,-0.036c0.141,0.192 0.059,0.513 -0.063,0.688c-0.14,0.2 -0.314,0.352 -0.468,0.532c-0.101,0.117 -0.238,0.172 -0.374,0.173c-0.058,0.484 -0.125,0.945 -0.171,1.342c-0.096,0.832 -0.24,1.743 -0.508,2.528c-0.224,0.655 -0.299,1.356 -0.606,1.95c0.586,0.875 1.036,1.83 1.387,2.842c0.689,-1.46 1.525,-2.879 2.037,-4.276c0.011,-0.031 0.022,-0.06 0.033,-0.091c-0.212,0.012 -0.423,0.024 -0.633,0.04c-0.072,0.005 -0.171,0.001 -0.283,-0.012c-0.197,0.142 -0.465,0.137 -0.696,0.046c-0.139,-0.011 -0.279,-0.029 -0.409,-0.078c-0.148,-0.056 -0.336,-0.142 -0.412,-0.307c-0.099,-0.217 -0.137,-0.435 -0.021,-0.657c0.091,-0.172 0.237,-0.28 0.409,-0.337c-0.188,0.063 0.209,-0.099 0.114,-0.07c0.04,-0.012 0.079,-0.027 0.118,-0.042c-0.016,-0.054 -0.032,-0.108 -0.047,-0.161c-0.05,-0.179 -0.183,-0.308 -0.227,-0.496c-0.068,-0.287 0.141,-0.534 0.409,-0.485c0.386,0.071 0.678,0.448 0.84,0.846c0.458,-0.14 0.936,-0.22 1.217,-0.269c0.109,-0.02 0.222,-0.046 0.336,-0.075c0.219,-0.693 0.41,-1.397 0.558,-2.153c0.075,-0.381 0.15,-0.76 0.226,-1.137c-0.089,-0.09 -0.154,-0.192 -0.199,-0.323c-0.073,-0.214 0.078,-0.412 0.265,-0.442c0.03,-0.005 0.062,-0.004 0.093,0c0.025,-0.118 0.049,-0.237 0.074,-0.354c-0.209,-0.221 -0.414,-0.447 -0.62,-0.67c0.001,0.018 0.003,0.036 0.004,0.054c-0.682,-0.738 -1.384,-1.446 -2.379,-1.833c-0.641,-0.25 -1.26,-0.573 -1.899,-0.825c-0.61,-0.241 -1.112,-0.136 -1.713,-0.466c-0.144,-0.079 -0.213,-0.279 -0.178,-0.447c0.008,-0.001 0.015,-0.002 0.023,-0.003c0.016,-0.098 0.067,-0.188 0.159,-0.237c0.002,-0.001 0.003,-0.002 0.005,-0.003c0.064,-0.034 0.128,-0.066 0.192,-0.094c0.051,-0.023 0.102,-0.042 0.153,-0.061c0.012,-0.004 0.023,-0.009 0.035,-0.013c0.108,-0.039 0.217,-0.067 0.325,-0.089c0.001,-0.025 0.001,-0.05 -0.001,-0.075c0.014,0.071 0.01,0.04 -0.012,-0.094c0.007,-0.085 0.011,-0.17 0.032,-0.253c0.049,-0.197 0.215,-0.31 0.399,-0.273c0.209,0.042 0.36,0.173 0.459,0.376c0.045,0.091 0.081,0.193 0.105,0.298c0.93,0.108 1.848,0.295 2.786,0.404c0.859,0.101 1.913,0.752 2.781,1.597c0.008,-0.031 0.015,-0.062 0.024,-0.093c0.442,-1.569 0.368,-3.2 0.888,-4.752c0.162,-0.483 0.189,-0.986 0.27,-1.481c-0.119,-0.094 -0.206,-0.247 -0.228,-0.422c-0.017,-0.136 -0.12,-0.236 -0.146,-0.368c-0.025,-0.133 -0.056,-0.265 -0.075,-0.399c-0.016,-0.111 -0.063,-0.261 -0.037,-0.374c0.016,-0.067 0.063,-0.178 0.064,-0.242c0.002,-0.062 0.061,-0.085 0.104,-0.052c0.039,0.03 0.085,0.026 0.122,0.063c0.077,0.077 0.128,0.189 0.198,0.273c0.091,0.108 0.183,0.178 0.251,0.309c0.012,0.021 0.023,0.042 0.035,0.063c0.076,-0.322 0.132,-0.647 0.17,-0.975c-0.002,0 -0.003,0 -0.006,0.001c0.039,-0.33 0.065,-0.663 0.072,-1.001c0.004,-0.181 0.102,-0.319 0.228,-0.393c0.191,-0.11 0.445,-0.078 0.545,0.163c0.011,0.027 0.02,0.056 0.027,0.088c0.192,0.895 0.235,1.85 0.279,2.787c0.034,-0.044 0.069,-0.089 0.103,-0.133c-0.05,-0.173 -0.078,-0.354 -0.075,-0.533c0.005,-0.21 0.159,-1.089 0.522,-0.862c0.176,0.11 0.289,0.297 0.379,0.491c0.071,-0.071 0.141,-0.144 0.207,-0.219c0.004,-0.004 0.008,-0.009 0.012,-0.013c0.029,-0.033 0.056,-0.067 0.082,-0.101c0.002,-0.002 0.004,-0.004 0.005,-0.006l0.01,-0.013c0.002,-0.002 0.004,-0.004 0.005,-0.006c0.025,-0.033 0.048,-0.066 0.07,-0.1c0.006,-0.009 0.014,-0.019 0.02,-0.028c0.027,-0.043 0.051,-0.086 0.073,-0.13c0,-0.001 0,-0.001 0,-0.002c0.004,-0.007 0.009,-0.012 0.014,-0.018c0.1,-0.164 0.378,-0.156 0.418,0.063c0.013,0.071 0.025,0.141 0.037,0.209c0.003,0.013 0.005,0.027 0.007,0.04c0.01,0.059 0.019,0.117 0.028,0.174c0.001,0.011 0.003,0.022 0.005,0.033c0.048,0.324 0.072,0.627 0.051,0.926c0.147,-0.077 0.289,-0.167 0.447,-0.211c0.156,-0.044 0.308,0.071 0.317,0.249c0.015,0.292 -0.106,0.516 -0.279,0.73c-0.092,0.115 -0.223,0.209 -0.334,0.302c-0.113,0.094 -0.289,0.128 -0.388,0.227c-0.085,0.085 -0.186,0.141 -0.29,0.171c-0.421,0.696 -1.001,1.467 -1.587,2.013c-0.116,0.742 -0.238,1.487 -0.233,2.251c0.004,0.541 -0.185,1.128 -0.349,1.678c0.388,-0.452 0.778,-0.901 1.154,-1.357c0.41,-0.497 0.814,-0.985 1.211,-1.475c-0.091,-0.096 -0.147,-0.227 -0.133,-0.386c0.038,-0.45 0.05,-0.878 0.181,-1.311c0.046,-0.152 0.1,-0.335 0.236,-0.425c0.052,-0.033 0.165,-0.103 0.22,-0.033c0.122,0.154 0.146,0.327 0.164,0.524c0.014,0.165 0.013,0.294 0.064,0.455l0.038,0.196c0.001,0.004 0.001,0.007 0.002,0.011c0.13,-0.166 0.259,-0.333 0.387,-0.501c0.158,-0.208 0.314,-0.417 0.47,-0.629c0.02,-0.028 0.041,-0.056 0.062,-0.085c0.164,-0.223 0.325,-0.449 0.486,-0.68c0.015,-0.022 0.035,-0.034 0.055,-0.038c0.061,-0.013 0.131,0.043 0.134,0.115l0,0c0.005,0.101 0.005,0.203 0.003,0.306c0,0.032 -0.001,0.065 -0.003,0.097c-0.002,0.074 -0.007,0.147 -0.012,0.221c-0.003,0.035 -0.005,0.069 -0.008,0.103c-0.009,0.093 -0.02,0.186 -0.033,0.279c-0.008,0.054 -0.017,0.107 -0.026,0.161c-0.007,0.043 -0.015,0.087 -0.023,0.13c-0.012,0.064 -0.024,0.127 -0.038,0.191c-0.004,0.018 -0.008,0.036 -0.013,0.054c-0.034,0.153 -0.073,0.307 -0.117,0.46c0,0 0,0.001 0,0.001c-0.113,0.394 -0.254,0.785 -0.416,1.166c0.363,-0.084 0.638,-0.381 1.013,-0.407c0.038,-0.002 0.074,0.034 0.074,0.076c0.001,0.288 -0.072,0.522 -0.229,0.757c-0.091,0.135 -0.175,0.257 -0.287,0.373c-0.08,0.083 -0.17,0.155 -0.262,0.221c-0.134,0.097 -0.156,0.107 -0.14,0.09c-0.213,0.169 -0.503,0.152 -0.698,-0.017c-0.207,0.385 -0.424,0.749 -0.639,1.082c-0.22,0.341 -0.467,0.724 -0.735,1.117c0.003,0.003 0.008,0.003 0.011,0.006c0.063,0.063 0.15,0.095 0.213,0.158c0.088,0.086 0.131,0.222 0.173,0.338c0.075,0.207 0.109,0.511 0.073,0.729c-0.042,0.251 -0.12,0.521 -0.251,0.737c0.354,0.561 0.663,1.154 0.956,1.659c0.25,0.43 0.481,0.87 0.699,1.316c0.075,-0.116 0.167,-0.213 0.272,-0.269c0.115,-0.061 0.19,-0.173 0.295,-0.25c0.039,-0.029 0.091,-0.039 0.135,-0.053c0.041,-0.013 0.114,0.021 0.144,0.006c0.029,-0.014 0.06,0.013 0.069,0.041c0.024,0.074 0.059,0.127 0.041,0.212c-0.027,0.128 -0.082,0.2 -0.072,0.341c0.009,0.119 -0.036,0.245 -0.058,0.36c-0.02,0.107 -0.046,0.223 -0.083,0.33c0.447,-0.162 0.889,-0.322 1.323,-0.475c0.125,-0.279 0.243,-0.557 0.358,-0.812c0.265,-0.589 0.478,-1.156 0.806,-1.696c0.02,-0.091 0.069,-0.172 0.148,-0.232c0.002,-0.003 0.004,-0.005 0.006,-0.009c0.073,-0.106 0.138,-0.217 0.199,-0.329c-0.14,-0.048 -0.252,-0.174 -0.318,-0.333c-0.064,-0.154 -0.045,-0.364 -0.049,-0.532c-0.004,-0.193 0.042,-0.406 0.173,-0.54c0.095,-0.096 0.239,-0.121 0.341,-0.018c0.102,0.104 0.162,0.225 0.221,0.362c0.019,0.045 0.044,0.089 0.069,0.132c0.02,-0.045 0.04,-0.09 0.06,-0.135c0.017,-0.037 0.035,-0.075 0.053,-0.112c0.023,-0.048 0.045,-0.096 0.069,-0.143c0.025,-0.05 0.052,-0.1 0.079,-0.15c0.019,-0.034 0.036,-0.069 0.056,-0.103c0.048,-0.083 0.098,-0.166 0.153,-0.246c0.13,-0.191 0.398,-0.083 0.462,0.11c0.027,0.08 0.047,0.162 0.065,0.245c0.006,0.025 0.011,0.05 0.015,0.075c0.012,0.065 0.022,0.132 0.03,0.199c0.002,0.024 0.006,0.047 0.008,0.072c0.007,0.074 0.01,0.15 0.011,0.226c0.001,0.046 0.001,0.093 0,0.139c-0.001,0.035 -0.002,0.07 -0.004,0.105c-0.02,0.464 -0.118,0.952 -0.255,1.436c0.08,-0.015 0.19,-0.069 0.275,-0.109c0.196,-0.091 0.449,-0.134 0.553,0.121c0.092,0.224 -0.06,0.512 -0.218,0.647c-0.181,0.155 -0.385,0.254 -0.575,0.385c-0.125,0.086 -0.27,0.102 -0.402,0.065c-0.167,0.452 -0.337,0.879 -0.473,1.25c-0.283,0.778 -0.63,1.62 -1.069,2.304c-0.366,0.573 -0.6,1.229 -1.032,1.719c0.368,1.008 0.586,2.055 0.695,3.131c1.001,-1.222 2.134,-2.364 2.95,-3.574c0.844,-1.252 1.607,-2.4 2.248,-3.799c0.319,-0.694 0.635,-1.377 0.96,-2.055c-0.152,-0.272 -0.299,-0.546 -0.448,-0.819c-0.003,0.018 -0.005,0.036 -0.008,0.054c-0.492,-0.901 -1.011,-1.779 -1.887,-2.428c-0.565,-0.418 -1.09,-0.901 -1.652,-1.321c-0.536,-0.401 -1.046,-0.437 -1.554,-0.922c-0.122,-0.116 -0.142,-0.328 -0.07,-0.481c0.007,0.001 0.015,0.002 0.022,0.003c0.038,-0.091 0.108,-0.163 0.209,-0.185c0.002,-0.001 0.004,-0.001 0.006,-0.002c0.07,-0.015 0.139,-0.028 0.206,-0.038c0.056,-0.008 0.111,-0.012 0.165,-0.016c0.011,-0.001 0.023,-0.003 0.035,-0.004c0.114,-0.007 0.225,-0.005 0.336,0.004c0.005,-0.024 0.011,-0.048 0.016,-0.073c-0.003,0.073 0,0.041 0.009,-0.094c0.026,-0.081 0.05,-0.162 0.089,-0.236c0.093,-0.177 0.279,-0.24 0.449,-0.154c0.193,0.099 0.309,0.266 0.359,0.491c0.023,0.099 0.035,0.208 0.034,0.316c0.876,0.36 1.723,0.794 2.607,1.159c0.81,0.334 1.683,1.253 2.331,2.309c0.015,-0.027 0.029,-0.055 0.045,-0.083c0.786,-1.395 1.087,-2.993 1.946,-4.35c0.267,-0.422 0.408,-0.901 0.599,-1.357c-0.094,-0.124 -0.143,-0.296 -0.124,-0.472c0.014,-0.135 -0.063,-0.261 -0.058,-0.395c0.006,-0.135 0.006,-0.272 0.018,-0.407c0.011,-0.111 -0.001,-0.269 0.05,-0.371c0.031,-0.061 0.102,-0.155 0.118,-0.216c0.015,-0.061 0.078,-0.067 0.112,-0.022c0.031,0.039 0.077,0.048 0.104,0.094c0.057,0.095 0.081,0.218 0.13,0.318c0.063,0.13 0.136,0.222 0.172,0.369c0.007,0.023 0.013,0.046 0.02,0.07c0.147,-0.291 0.275,-0.589 0.387,-0.897c-0.002,0 -0.003,0 -0.005,0c0.112,-0.308 0.213,-0.623 0.297,-0.948c0.026,-0.099 0.079,-0.175 0.145,-0.23c0.073,-0.06 0.162,-0.092 0.251,-0.098c0.128,0.147 0.264,0.309 0.409,0.487c-0.026,0.894 -0.196,1.803 -0.363,2.696c0.044,-0.034 0.087,-0.067 0.13,-0.1c-0.008,-0.181 0.005,-0.364 0.05,-0.537c0.052,-0.201 0.402,-1.009 0.702,-0.689c0.145,0.155 0.212,0.366 0.255,0.579c0.085,-0.049 0.169,-0.1 0.25,-0.154c0.005,-0.003 0.011,-0.007 0.016,-0.01c0.035,-0.024 0.069,-0.049 0.102,-0.074c0.008,-0.007 0.017,-0.013 0.025,-0.019c0.024,-0.019 0.046,-0.039 0.068,-0.058c0.182,0.259 0.348,0.507 0.5,0.741c-0.029,0.226 -0.07,0.439 -0.134,0.644c0.16,-0.034 0.319,-0.082 0.481,-0.081c0.003,0 0.005,0.001 0.007,0.001c0.082,0.136 0.158,0.265 0.229,0.388c-0.063,0.252 -0.221,0.42 -0.421,0.568c-0.116,0.086 -0.264,0.141 -0.393,0.2c-0.131,0.06 -0.31,0.044 -0.429,0.113c-0.101,0.059 -0.212,0.085 -0.319,0.085c-0.568,0.557 -1.306,1.143 -1.998,1.509c-0.282,0.686 -0.571,1.373 -0.74,2.113c-0.12,0.525 -0.437,1.04 -0.722,1.526c0.479,-0.33 0.96,-0.656 1.429,-0.994c0.511,-0.368 1.013,-0.728 1.51,-1.092c-0.066,-0.119 -0.091,-0.261 -0.041,-0.41c0.14,-0.425 0.25,-0.836 0.475,-1.218c0.08,-0.135 0.174,-0.297 0.326,-0.346c0.058,-0.018 0.183,-0.054 0.221,0.028c0.083,0.184 0.067,0.357 0.039,0.552c-0.024,0.164 -0.054,0.288 -0.043,0.458l-0.007,0.2c0,0.004 0,0.007 0,0.011c0.164,-0.125 0.327,-0.251 0.49,-0.378c0.199,-0.157 0.398,-0.316 0.597,-0.477c0.027,-0.022 0.054,-0.044 0.081,-0.066c0.209,-0.171 0.418,-0.345 0.626,-0.524c0.01,-0.008 0.02,-0.014 0.03,-0.018c0.021,-0.007 0.042,-0.005 0.061,0.003c0.01,0.004 0.019,0.01 0.028,0.017c0.019,0.016 0.033,0.038 0.041,0.063c0.007,0.019 0.009,0.04 0.006,0.061c-0.019,0.099 -0.042,0.199 -0.067,0.297c-0.008,0.031 -0.016,0.062 -0.025,0.093c-0.019,0.071 -0.04,0.141 -0.063,0.211c-0.01,0.033 -0.02,0.065 -0.031,0.097c-0.03,0.087 -0.061,0.174 -0.096,0.26c-0.019,0.05 -0.04,0.099 -0.061,0.148c-0.017,0.041 -0.035,0.081 -0.053,0.121c-0.026,0.058 -0.052,0.116 -0.08,0.173c-0.008,0.017 -0.017,0.034 -0.025,0.051c-0.068,0.138 -0.14,0.274 -0.217,0.409c-0.001,0.001 -0.001,0.002 -0.002,0.003c-0.199,0.35 -0.425,0.689 -0.669,1.012c0.371,0.019 0.706,-0.191 1.075,-0.114c0.038,0.008 0.064,0.054 0.054,0.094c-0.065,0.278 -0.188,0.485 -0.395,0.669c-0.118,0.105 -0.228,0.201 -0.363,0.282c-0.096,0.057 -0.2,0.103 -0.304,0.141c-0.153,0.056 -0.176,0.061 -0.157,0.048c-0.245,0.105 -0.522,0.008 -0.672,-0.208c-0.289,0.314 -0.582,0.607 -0.866,0.87c-1.098,1.015 -2.694,2.488 -4.169,2.942c-0.098,0.031 -0.194,0.057 -0.29,0.079c-0.506,1.249 -0.99,2.51 -1.718,3.628c-0.035,0.053 -0.071,0.104 -0.106,0.157c1.677,0.508 3.722,0.452 5.734,0.322c-0.074,-0.106 -0.107,-0.244 -0.068,-0.402c0.076,-0.303 0.358,-0.672 0.662,-0.738c0.125,-0.028 0.223,-0.115 0.343,-0.161c0.044,-0.016 0.097,-0.012 0.143,-0.013c0.042,-0.001 0.105,0.051 0.138,0.045c0.031,-0.005 0.055,0.029 0.058,0.058c0.006,0.079 0.028,0.14 -0.009,0.217c-0.056,0.116 -0.126,0.171 -0.148,0.31c-0.018,0.117 -0.092,0.227 -0.138,0.332c-0.044,0.098 -0.096,0.203 -0.157,0.296c0.616,-0.044 1.222,-0.087 1.809,-0.118c0.056,-0.003 0.111,-0.006 0.165,-0.008c0.247,-0.012 0.491,-0.022 0.73,-0.027c0.073,-0.002 0.125,0.049 0.143,0.112c0.018,0.063 0.003,0.138 -0.057,0.182c-0.082,0.06 -0.163,0.123 -0.244,0.189c-0.006,0.005 -0.013,0.011 -0.02,0.016c-0.51,0.419 -0.993,0.915 -1.583,1.193c-0.022,0.011 -0.045,0.021 -0.067,0.031c-0.037,0.016 -0.072,0.035 -0.109,0.049c-0.009,0.004 -0.019,0.006 -0.029,0.01c-0.001,0 -0.001,0 -0.002,0.001c-0.201,0.075 -0.404,0.135 -0.607,0.187c0.254,0.238 0.549,0.415 0.784,0.677c0.146,0.162 0.088,0.389 -0.094,0.475c-0.335,0.159 -0.692,-0.02 -1.012,-0.145c-0.338,-0.133 -0.589,-0.436 -0.866,-0.631c-0.058,-0.041 -0.108,-0.089 -0.151,-0.142c-0.382,0.044 -0.767,0.077 -1.154,0.12c-1.927,0.212 -3.716,-0.392 -5.586,-0.453c-1.256,1.704 -2.579,3.334 -3.808,5.079c0.001,0.023 0.002,0.046 0.004,0.069c0.037,-0.03 0.073,-0.061 0.11,-0.091c0.031,-0.025 0.062,-0.049 0.093,-0.074c0.04,-0.032 0.08,-0.064 0.12,-0.094c0.044,-0.033 0.089,-0.065 0.134,-0.096c0.031,-0.022 0.061,-0.044 0.092,-0.065c0.077,-0.051 0.156,-0.1 0.239,-0.145c0.195,-0.107 0.391,0.118 0.37,0.322c-0.009,0.084 -0.024,0.167 -0.042,0.25c-0.005,0.025 -0.011,0.049 -0.018,0.074c-0.015,0.064 -0.034,0.127 -0.054,0.191c-0.008,0.023 -0.014,0.046 -0.022,0.068c-0.025,0.07 -0.053,0.139 -0.084,0.208c-0.018,0.041 -0.037,0.082 -0.057,0.124c-0.015,0.03 -0.03,0.06 -0.046,0.091c-0.209,0.404 -0.496,0.792 -0.818,1.158c0.078,0.025 0.199,0.03 0.292,0.035c0.213,0.014 0.458,0.098 0.447,0.376c-0.009,0.244 -0.264,0.427 -0.462,0.471c-0.226,0.051 -0.45,0.041 -0.675,0.065c-0.147,0.017 -0.284,-0.04 -0.387,-0.136c-0.043,0.041 -0.086,0.083 -0.129,0.123c-0.015,0.372 -0.013,0.749 -0.01,1.125c0.007,0.017 0.015,0.032 0.021,0.049c-0.023,0.11 -0.042,0.222 -0.061,0.334c-0.009,0.053 -0.019,0.105 -0.028,0.158c-0.017,0.111 -0.033,0.223 -0.049,0.336c-0.014,0.095 -0.028,0.189 -0.042,0.284c-0.012,0.084 -0.023,0.168 -0.036,0.251c-0.023,0.147 -0.047,0.293 -0.076,0.436c-0.285,1.442 -0.579,2.878 -1.035,4.269c-0.37,1.128 -0.822,2.221 -1.287,3.308c-0.05,0.096 -0.102,0.192 -0.154,0.287c4.009,0.234 6.955,1.009 6.955,1.927c0,1.104 -4.257,2 -9.5,2c-5.243,0 -9.5,-0.896 -9.5,-2c0,-0.782 2.135,-1.459 5.243,-1.788c-0.491,-0.705 -1.055,-1.361 -1.53,-2.077c-0.12,-0.182 -0.222,-0.374 -0.318,-0.567c-0.246,-0.698 -0.383,-1.454 -0.722,-2.106c-0.481,-0.922 -0.928,-1.938 -1.112,-2.981c-0.007,-0.042 -0.009,-0.082 -0.007,-0.121c-0.156,-0.433 -0.319,-0.868 -0.405,-1.288c-0.228,-1.107 -0.381,-2.19 -0.418,-3.306c-0.152,-0.554 -0.278,-1.118 -0.398,-1.684c-1.111,-0.49 -2.02,-1.546 -3.063,-2.179c-1.367,-0.829 -2.523,-1.93 -3.692,-3.067c-0.229,-0.223 -0.403,-0.344 -0.558,-0.394c0.017,0.017 0.033,0.034 0.05,0.05c-0.378,-0.173 -0.619,0.067 -1.167,0.33c-0.744,0.356 -1.539,0.592 -2.31,0.874c-0.068,0.024 -0.164,0.048 -0.276,0.067c-0.158,0.191 -0.419,0.26 -0.662,0.236c-0.137,0.027 -0.277,0.049 -0.413,0.037c-0.157,-0.014 -0.358,-0.045 -0.469,-0.185c-0.145,-0.183 -0.232,-0.383 -0.17,-0.63c0.048,-0.192 0.165,-0.337 0.318,-0.44c-0.168,0.113 0.179,-0.153 0.094,-0.099c0.036,-0.023 0.07,-0.048 0.104,-0.073c-0.027,-0.048 -0.055,-0.096 -0.081,-0.143c-0.089,-0.16 -0.247,-0.248 -0.333,-0.418c-0.132,-0.26 0.014,-0.557 0.285,-0.583c0.388,-0.038 0.757,0.247 1.005,0.589c0.411,-0.262 0.855,-0.471 1.115,-0.597c0.49,-0.236 1.005,-0.619 1.518,-0.887c-0.123,-0.377 -0.212,-0.801 -0.293,-1.125c-0.099,-0.395 -0.112,-0.82 -0.172,-1.235c-0.088,-0.024 -0.18,-0.074 -0.265,-0.108c-0.136,-0.055 -0.271,-0.114 -0.405,-0.177c-0.141,-0.067 -0.247,-0.157 -0.334,-0.295c-0.12,-0.188 -0.019,-0.421 0.155,-0.502c0.147,-0.068 0.342,-0.011 0.498,-0.003c0.037,0.002 0.075,0.007 0.112,0.01c-0.028,-0.162 -0.042,-0.327 -0.027,-0.504c0.019,-0.235 0.195,-0.358 0.398,-0.273c0.063,0.027 0.124,0.059 0.184,0.094c0.019,0.011 0.037,0.023 0.055,0.035c0.042,0.026 0.083,0.054 0.124,0.084c0.019,0.015 0.038,0.029 0.057,0.045c0.041,0.033 0.081,0.068 0.12,0.105c0.015,0.013 0.03,0.026 0.044,0.04c0.107,0.105 0.208,0.223 0.302,0.351c0.008,0.01 0.015,0.021 0.023,0.031c0.101,-0.204 0.297,-0.417 0.529,-0.345c0.152,0.047 0.252,0.157 0.307,0.316c-0.015,-0.045 -0.001,-0.013 0.047,0.108c0.03,0.109 0.016,0.208 0.003,0.319c-0.031,0.268 -0.111,0.591 -0.289,0.788c0.068,0.201 0.121,0.399 0.157,0.586c0.094,0.49 0.376,0.978 0.429,1.454c0.228,0.083 0.468,0.197 0.768,0.313c1.119,0.436 2.234,1.999 3.164,2.827c0.639,0.569 1.5,0.889 2.181,1.424c0.033,0.026 0.066,0.053 0.099,0.079c-0.306,-0.981 -0.715,-1.916 -1.349,-2.755c0.004,0.012 0.008,0.023 0.012,0.035c0.001,0.006 0.003,0.012 0.005,0.017l0.01,0.034Zm11.641,19.659c0.315,-0.493 0.598,-1.014 0.859,-1.506c0.613,-1.15 1.057,-2.393 1.361,-3.68c0.194,-0.822 0.152,-1.701 0.374,-2.509c-0.033,-0.325 -0.074,-0.655 -0.101,-0.977c-0.108,0.073 -0.216,0.143 -0.324,0.207c-0.056,0.033 -0.111,0.068 -0.166,0.104c-0.27,0.658 -1.122,0.86 -1.374,1.638c-0.176,0.544 -0.156,1.141 -0.281,1.698c-0.146,0.65 -0.132,1.409 -0.109,2.073c0.033,0.962 -0.078,1.989 -0.35,2.951l0.06,0l0.051,0.001Zm-4.364,-2.874c-0.739,-1.023 -1.064,-2.231 -1.255,-3.493c-0.132,-0.872 -0.583,-1.654 -0.668,-2.52c-0.008,-0.08 -0.031,-0.144 -0.063,-0.197c-0.02,-0.09 -0.041,-0.181 -0.063,-0.271c-0.287,-1.388 -0.484,-2.677 -0.41,-3.647c0.097,0.037 0.195,0.073 0.294,0.106c0.574,0.194 0.9,0.185 1.083,0.587c-0.003,-0.025 -0.005,-0.05 -0.008,-0.074c0.087,0.148 0.147,0.363 0.186,0.695c0.202,1.69 0.416,3.343 0.953,4.943c0.346,1.029 0.44,2.214 0.788,3.257c-0.001,0.051 -0.002,0.101 0,0.153c-0.062,0.67 0.051,1.312 0.221,1.95c-0.344,-0.504 -0.704,-0.997 -1.058,-1.489Zm2.262,-17.512c-0.65,0.085 -1.299,0.178 -1.942,0.339c-0.702,1.697 -1.463,3.357 -2.16,5.063c0.277,0.06 0.557,0.12 0.822,0.199c0.133,-0.372 0.321,-0.755 0.454,-1.056c0.163,-0.367 0.41,-0.696 0.614,-1.051c-0.052,-0.081 -0.093,-0.184 -0.136,-0.271c-0.071,-0.138 -0.137,-0.279 -0.201,-0.422c-0.067,-0.151 -0.092,-0.294 -0.076,-0.461c0.023,-0.226 0.239,-0.329 0.42,-0.266c0.152,0.054 0.266,0.236 0.379,0.354c0.027,0.028 0.053,0.058 0.079,0.088c0.077,-0.142 0.165,-0.277 0.283,-0.399c0.02,-0.021 0.04,-0.038 0.061,-0.052c0.041,-0.029 0.085,-0.045 0.128,-0.05c0.108,-0.011 0.213,0.051 0.277,0.182c0.032,0.064 0.059,0.132 0.084,0.202c0.007,0.021 0.013,0.043 0.02,0.064c0.016,0.05 0.03,0.101 0.043,0.153c0.006,0.024 0.011,0.049 0.016,0.073c0.011,0.055 0.021,0.11 0.028,0.166c0.003,0.02 0.007,0.041 0.009,0.061c0.018,0.156 0.024,0.317 0.018,0.479c0,0.014 -0.001,0.027 -0.001,0.041c0.199,-0.082 0.476,-0.101 0.609,0.119c0.087,0.143 0.096,0.297 0.042,0.457c0.016,-0.046 0.007,-0.011 -0.029,0.113c-0.043,0.104 -0.114,0.169 -0.19,0.243c-0.185,0.179 -0.439,0.365 -0.694,0.386c-0.069,0.199 -0.148,0.386 -0.233,0.552c-0.223,0.437 -0.303,1.005 -0.55,1.401c0.123,0.225 0.237,0.482 0.394,0.784c0.587,1.127 0.491,3.098 0.698,4.385c0.142,0.885 0.601,1.74 0.796,2.628c0.009,0.043 0.018,0.087 0.027,0.13c0.358,-0.954 0.61,-1.949 0.636,-3.031c-0.001,0.002 -0.002,0.005 -0.003,0.008l-0.006,0.016c-0.001,0.003 -0.003,0.005 -0.004,0.008c-0.008,0.022 -0.016,0.044 -0.024,0.065c0.001,-0.043 0.005,-0.085 0.005,-0.128c0.033,-1.632 0.109,-3.208 0.073,-4.83c-0.147,-0.005 -0.294,-0.062 -0.412,-0.171c0,-0.001 0,-0.001 -0.001,-0.001c-0.115,-0.059 -0.189,-0.147 -0.268,-0.252c-0.084,-0.113 -0.157,-0.219 -0.222,-0.348c-0.095,-0.187 -0.166,-0.68 0.105,-0.762c0.145,-0.045 0.32,-0.04 0.459,0.039c0.03,0.018 0.06,0.034 0.091,0.049c-0.082,-0.022 -0.049,-0.01 0.098,0.034c0.021,0.008 0.042,0.016 0.063,0.024c0.007,0 0.014,0.001 0.022,0.002c-0.004,-0.044 -0.008,-0.085 -0.012,-0.13c-0.329,-1.035 -0.19,-2.2 0.422,-2.872c0.021,-0.023 0.043,-0.043 0.066,-0.061c0.07,-0.052 0.15,-0.08 0.228,-0.08c0.053,0 0.105,0.013 0.153,0.039c0.049,0.026 0.094,0.066 0.132,0.12c0.05,0.071 0.097,0.144 0.141,0.219c0.018,0.032 0.035,0.067 0.052,0.099c0.024,0.045 0.049,0.088 0.071,0.134c0.023,0.046 0.043,0.095 0.063,0.142c0.015,0.035 0.031,0.068 0.045,0.103c0.024,0.058 0.044,0.118 0.066,0.177c0.009,0.027 0.019,0.052 0.028,0.078c0.014,0.042 0.026,0.085 0.039,0.127c0.004,-0.005 0.01,-0.008 0.014,-0.013c0.106,-0.097 0.214,-0.19 0.329,-0.275c-0.03,-0.032 -0.06,-0.066 -0.091,-0.098c-0.894,-0.928 -1.622,-1.982 -2.317,-3.082l-0.13,0.017Zm4.694,9.218c-0.456,0.385 -0.947,0.788 -1.431,1.028c-0.166,0.082 -0.355,0.23 -0.549,0.377c0.034,-1.318 0.049,-2.635 -0.076,-3.957c-0.056,-0.592 -0.091,-1.271 -0.18,-1.942c0.207,-0.129 0.388,-0.332 0.529,-0.536c0.056,-0.081 0.105,-0.188 0.145,-0.3c0.564,0.75 1.091,1.566 1.785,2.128c-0.012,0.58 -0.018,1.16 0.002,1.738c-0.098,0.486 -0.171,0.973 -0.225,1.464Zm-0.801,-10.112c0.098,0.23 0.197,0.461 0.297,0.693c0.017,0.04 0.031,0.079 0.047,0.118c-0.001,-0.023 -0.003,-0.047 -0.005,-0.07c0,-0.013 -0.002,-0.025 -0.002,-0.037c0.422,0.985 0.605,2.002 0.677,3.035c-0.026,-0.035 -0.052,-0.07 -0.078,-0.104c-0.538,-0.704 -1.298,-1.251 -1.787,-1.977c-0.222,-0.328 -0.444,-0.73 -0.675,-1.149c0.401,-0.096 0.799,-0.216 1.195,-0.377c0.111,-0.045 0.221,-0.089 0.331,-0.132Zm-3.588,-5.278c0.037,-0.102 0.073,-0.193 0.07,-0.305c0.21,-0.157 0.415,-0.339 0.617,-0.536c0.192,0.431 0.442,0.848 0.654,1.221c-0.006,0.003 -0.013,0.006 -0.02,0.01c-0.022,0.003 -0.044,0.005 -0.066,0.008c-0.149,0.032 -0.183,0.037 -0.101,0.016c-0.034,0.002 -0.067,0.002 -0.101,0.001c-0.157,-0.003 -0.315,0.077 -0.426,0.186c-0.207,0.205 0.058,0.614 0.22,0.737c0.11,0.083 0.219,0.144 0.341,0.205c0.112,0.056 0.214,0.1 0.342,0.097c0,0 0,0 0.001,0c0.15,0.041 0.304,0.021 0.437,-0.045c0.295,0.609 0.57,1.22 0.836,1.835c-0.633,0.201 -1.263,0.379 -1.882,0.514c-0.192,-0.243 -0.393,-0.455 -0.607,-0.613c-0.264,-0.195 -0.47,-0.372 -0.672,-0.515c0.057,-0.474 -0.105,-1.024 -0.085,-1.524c0.008,-0.191 0.002,-0.397 -0.018,-0.609c0.218,-0.142 0.369,-0.433 0.46,-0.683Zm2.105,-2.542c-0.005,0.019 -0.012,0.038 -0.021,0.055c-0.068,0.134 -0.128,0.273 -0.184,0.414c-0.002,0.006 -0.005,0.012 -0.008,0.018c-0.026,-0.029 -0.052,-0.06 -0.079,-0.088c0.1,-0.132 0.197,-0.265 0.292,-0.399Z"/><path id="Outline" d="M61.409,31.99c0,-16.178 -13.135,-29.313 -29.313,-29.313c-16.179,0 -29.314,13.135 -29.314,29.313c0,16.179 13.135,29.313 29.314,29.313c16.178,0 29.313,-13.134 29.313,-29.313Z" style="fill:none;stroke:#000;stroke-width:3px;"/></g></g></g></svg>