<?xml version="1.0" encoding="UTF-8" standalone="no"?><!DOCTYPE svg PUBLIC "-//W3C//DTD SVG 1.1//EN" "http://www.w3.org/Graphics/SVG/1.1/DTD/svg11.dtd"><svg width="100%" height="100%" viewBox="0 0 64 64" version="1.1" xmlns="http://www.w3.org/2000/svg" xmlns:xlink="http://www.w3.org/1999/xlink" xml:space="preserve" xmlns:serif="http://www.serif.com/" style="fill-rule:evenodd;clip-rule:evenodd;stroke-miterlimit:10;"><g id="Species"><g id="Birds"><g id="crane"><path id="Outline" d="M61.409,32.047c0,-16.178 -13.135,-29.313 -29.313,-29.313c-16.179,0 -29.314,13.135 -29.314,29.313c0,16.178 13.135,29.313 29.314,29.313c16.178,0 29.313,-13.135 29.313,-29.313Z" style="fill:none;stroke:#000;stroke-width:3px;"/><path d="M46.342,11.942c0.15,-0.039 0.099,0.334 0.096,0.48c-0.029,1.199 -0.511,2.165 -0.992,2.912c-0.604,0.937 -1.345,1.712 -1.952,2.512c0.51,-0.285 0.892,-0.733 1.296,-1.136c1.008,-1.008 1.853,-2.144 2.656,-3.408c0.064,-0.102 0.135,-0.235 0.208,-0.4c0.057,-0.13 0.145,-0.37 0.208,-0.384c0.3,-0.068 0.206,0.58 0.176,0.752c-0.339,1.945 -1.872,2.942 -2.8,4.304c0.414,-0.25 0.757,-0.6 1.136,-0.896c0.75,-0.588 1.462,-1.257 2.064,-2c0.228,-0.282 0.411,-0.598 0.608,-0.912c0.06,-0.096 0.095,-0.229 0.208,-0.288c0.181,0.098 0.144,0.48 0.08,0.656c-0.137,0.373 -0.414,0.707 -0.656,1.04c-0.693,0.953 -1.619,1.89 -2.24,2.848c0.646,-0.196 1.101,-0.579 1.568,-0.96c0.221,-0.181 0.48,-0.365 0.704,-0.56c0.216,-0.189 0.446,-0.487 0.816,-0.416c0.057,0.377 -0.256,0.508 -0.448,0.72c-0.427,0.47 -0.898,0.919 -1.296,1.376c0.196,-0.055 0.501,-0.097 0.72,-0.032c0.031,0.065 0.076,0.116 0.112,0.176c-0.139,0.517 -0.48,0.833 -0.816,1.152c0.05,0.139 0.123,0.287 0.08,0.496c-0.061,0.295 -0.491,0.435 -0.64,0.752c-0.09,0.19 -0.063,0.537 -0.16,0.704c-0.139,0.238 -0.509,0.327 -0.608,0.528c0.143,0.455 -0.294,0.54 -0.368,0.848c-0.039,0.16 0.108,0.355 0.064,0.592c-0.035,0.185 -0.259,0.337 -0.384,0.544c-0.126,0.206 -0.212,0.417 -0.336,0.576c-0.177,0.226 -0.481,0.344 -0.624,0.608c-0.107,0.196 -0.127,0.475 -0.208,0.752c-0.081,0.277 -0.217,0.453 -0.256,0.704c-0.024,0.151 0.028,0.313 0,0.464c-0.032,0.173 -0.218,0.349 -0.288,0.544c-0.044,0.123 -0.024,0.25 -0.064,0.336c-0.083,0.177 -0.356,0.286 -0.432,0.416c-0.192,0.327 -0.054,0.776 -0.224,1.136c-0.053,0.111 -0.207,0.172 -0.288,0.288c-0.084,0.119 -0.104,0.294 -0.176,0.4c-0.093,0.136 -0.292,0.185 -0.384,0.32c-0.164,0.239 -0.166,0.47 -0.304,0.704c-0.271,0.103 -0.385,0.435 -0.576,0.64c-0.101,0.109 -0.263,0.157 -0.336,0.272c-0.126,0.195 -0.099,0.555 -0.224,0.8c-0.253,0.492 -0.9,0.709 -1.296,1.12c-0.174,0.18 -0.327,0.404 -0.416,0.736c-0.025,0.092 -0.08,0.235 -0.064,0.304c0.024,0.107 0.319,0.291 0.464,0.352c0.142,0.06 0.382,0.078 0.608,0.064c0.24,-0.015 0.44,0.011 0.432,0.224c-0.009,0.212 -0.272,0.239 -0.368,0.4c0.502,-0.023 1.024,-0.03 1.504,-0.128c0.488,-0.1 0.881,0.002 1.264,0.288c0.334,0.25 0.503,0.54 0.816,0.832c0.275,0.257 0.864,0.496 0.912,0.896c0.055,0.457 -0.288,0.726 -0.528,0.976c-0.254,-0.043 -0.539,-0.001 -0.688,0.112c0.117,0.132 0.332,0.075 0.496,0.144c0.14,0.06 0.247,0.234 0.4,0.336c0.138,0.093 0.332,0.164 0.496,0.24c0.971,0.453 1.914,1.019 2.896,1.472c0.637,0.294 1.449,0.492 2.128,0.8c0.296,0.135 0.699,0.34 1.056,0.4c0.421,0.071 0.984,-0.276 1.232,-0.096c0.056,0.041 0.099,0.223 0.144,0.272c0.296,0.324 1.328,0.101 1.648,0.352c0.101,0.079 0.136,0.277 0.256,0.32c0.385,-0.022 0.782,-0.362 1.152,-0.144c0.023,0.066 -0.014,0.195 0,0.304c-0.476,0.479 -1.498,0.479 -2.4,0.368c-0.32,-0.039 -0.672,0.003 -0.928,-0.048c-0.177,-0.035 -0.273,-0.245 -0.576,-0.192c-0.146,-0.056 -0.239,-0.276 -0.368,-0.352c-0.13,-0.076 -0.333,-0.117 -0.512,-0.176c-0.491,-0.162 -1.032,-0.319 -1.52,-0.528c-1.532,-0.657 -2.982,-1.62 -4.624,-2.176c-0.346,-0.117 -0.698,-0.272 -1.024,-0.336c-0.21,-0.041 -0.606,0.009 -0.848,-0.048c-0.211,-0.049 -0.444,-0.222 -0.672,-0.336c-0.193,-0.097 -0.524,-0.271 -0.768,-0.224c-0.177,0.035 -0.353,0.339 -0.624,0.336c-0.151,-0.001 -0.244,-0.127 -0.368,-0.176c-0.435,-0.171 -1.031,-0.169 -1.44,-0.304c-0.001,-0.106 -0.025,-0.188 -0.032,-0.288c-0.281,0.045 -0.56,0.091 -0.832,0.144c0.165,0.1 0.332,0.287 0.512,0.4c0.174,0.11 0.513,0.167 0.752,0.24c0.478,0.148 0.923,0.283 1.424,0.464c0.251,0.091 0.479,0.217 0.72,0.224c0.385,0.012 0.735,-0.127 1.104,0c0.273,0.632 0.864,1.02 1.456,1.376c1.188,0.715 2.318,1.389 3.552,2.112c0.273,0.16 0.563,0.336 0.896,0.512c0.277,0.147 0.693,0.409 0.992,0.416c0.153,0.004 0.314,-0.101 0.464,-0.096c0.105,0.004 0.237,0.108 0.4,0.112c0.222,0.006 0.518,-0.233 0.608,0.032c0.25,-0.103 0.38,0.109 0.496,0.272c0.491,0.007 1.028,0.167 1.52,0.176c0.136,0.003 0.286,-0.058 0.416,-0.032c0.099,0.02 0.161,0.145 0.256,0.16c0.152,0.025 0.262,-0.09 0.384,-0.032c0.138,0.211 0.014,0.37 -0.16,0.496c-0.192,0.14 -0.515,0.236 -0.976,0.24c-0.356,0.004 -0.797,-0.058 -1.088,-0.096c-0.725,-0.093 -1.625,-0.036 -2.144,-0.272c-0.26,-0.117 -0.434,-0.414 -0.656,-0.544c-0.194,-0.112 -0.498,-0.153 -0.704,-0.256c-0.214,-0.106 -0.438,-0.264 -0.656,-0.4c-1.074,-0.669 -2.154,-1.331 -3.28,-2c-0.215,-0.127 -0.441,-0.27 -0.672,-0.384c-0.235,-0.116 -0.484,-0.264 -0.704,-0.336c-0.287,-0.094 -0.672,-0.021 -0.896,-0.192c-0.143,-0.108 -0.246,-0.345 -0.4,-0.464c-0.37,-0.285 -1.089,-0.388 -1.632,-0.544c-0.276,-0.079 -0.539,-0.191 -0.8,-0.288c-0.274,-0.101 -0.556,-0.28 -0.784,-0.304c-0.145,-0.015 -0.349,0.055 -0.48,0.032c-0.078,-0.013 -0.143,-0.083 -0.224,-0.112c-0.383,-0.134 -1.064,-0.157 -1.472,-0.288c-0.109,-0.035 -0.195,-0.147 -0.272,-0.16c-0.151,-0.025 -0.369,0.051 -0.544,0.064c-0.196,0.015 -0.405,0.008 -0.592,0.016c-0.378,0.016 -0.799,0.071 -1.168,0.048c-0.289,-0.017 -0.612,-0.125 -0.912,-0.192c-0.303,-0.067 -0.571,-0.162 -0.848,-0.256c-0.304,-0.103 -0.605,-0.127 -0.928,-0.176c-0.339,-0.051 -0.681,-0.01 -1.04,-0.064c-0.407,-0.061 -0.913,-0.369 -1.248,-0.56c-0.382,-0.217 -0.729,-0.45 -1.121,-0.672c-0.384,-0.218 -0.821,-0.37 -1.2,-0.592c-0.177,-0.104 -0.355,-0.243 -0.528,-0.368c-0.176,-0.128 -0.339,-0.302 -0.512,-0.384c-0.353,-0.168 -1.079,-0.146 -1.536,-0.208c-0.543,-0.073 -0.921,-0.255 -1.472,-0.256c-0.549,-0.001 -1.071,0.126 -1.584,0.224c-0.549,0.105 -1.057,0.16 -1.616,0.096c-0.551,-0.063 -1.101,-0.096 -1.648,-0.16c-0.504,-0.059 -0.99,-0.234 -1.488,-0.304c-1.125,-0.159 -2.058,0.342 -3.184,0.288c-0.55,-0.026 -1.067,-0.155 -1.552,-0.256c-0.232,-0.048 -0.476,-0.115 -0.704,-0.192c-0.207,-0.069 -0.411,-0.232 -0.624,-0.272c-0.275,-0.051 -0.634,-0.016 -0.976,-0.032c-0.664,-0.03 -1.282,-0.013 -1.936,-0.048c-0.286,-0.015 -0.637,0.043 -0.8,-0.192c0.068,-0.125 0.229,-0.157 0.352,-0.192c0.993,-0.282 2.266,-0.219 3.264,-0.528c0.83,-0.257 1.471,-0.66 2.288,-0.96c0.262,-0.096 0.561,-0.227 0.816,-0.256c0.618,-0.069 1.346,0.266 1.776,0.448c0.807,0.342 1.441,0.769 2.464,0.848c0.628,0.049 1.406,0.097 2.08,0.128c0.348,0.016 0.642,-0.048 0.96,-0.112c0.627,-0.126 1.237,-0.244 1.808,-0.416c0.289,-0.086 0.562,-0.185 0.848,-0.256c0.295,-0.074 0.6,-0.127 0.896,-0.208c0.253,-0.07 0.483,-0.25 0.736,-0.368c0.261,-0.121 0.55,-0.201 0.784,-0.32c0.486,-0.247 0.835,-0.681 1.392,-0.816c-0.202,-0.445 -0.611,-0.778 -0.991,-1.104c-0.376,-0.322 -0.747,-0.644 -1.201,-0.896c-0.441,-0.245 -0.875,-0.468 -1.248,-0.848c-0.173,-0.177 -0.288,-0.382 -0.416,-0.64c-0.149,-0.303 -0.356,-0.579 -0.288,-1.024c0.031,-0.071 0.19,-0.013 0.272,-0.032c-0.021,-0.748 -0.441,-1.278 -0.752,-1.84c-0.289,-0.523 -0.51,-1.179 -0.72,-1.872c-0.289,-0.956 -0.584,-1.994 -0.8,-3.088c-0.031,-0.162 -0.072,-0.368 -0.096,-0.56c-0.024,-0.201 -0.075,-0.457 -0.048,-0.592c0.025,-0.123 0.244,-0.3 0.368,-0.288c0.158,0.015 0.326,0.315 0.416,0.464c0.237,0.389 0.392,0.769 0.512,1.248c0.059,0.233 0.055,0.503 0.224,0.656c-0.225,-0.677 -0.403,-1.474 -0.688,-2.192c-0.096,-0.244 -0.432,-0.915 0.032,-0.992c0.344,-0.058 0.498,0.271 0.656,0.496c0.685,0.976 1.221,2.261 1.536,3.552c-0.005,-0.93 -0.121,-1.78 -0.352,-2.544c-0.106,-0.354 -0.359,-0.744 -0.128,-1.104c0.213,-0.079 0.279,0.011 0.4,0.128c0.171,0.165 0.395,0.295 0.544,0.464c0.509,0.575 0.351,1.731 0.784,2.32c-0.07,-0.61 -0.275,-1.325 -0.128,-1.952c0.295,-0.069 0.359,0.122 0.497,0.288c0.249,0.3 0.494,0.627 0.624,1.024c0.192,0.591 -0.006,1.44 0.319,1.888c0.001,-0.26 -0.021,-0.628 -0.016,-0.944c0.006,-0.317 0.005,-0.671 0.289,-0.736c0.12,0.036 0.154,0.187 0.207,0.288c0.405,0.766 0.655,1.822 0.673,2.992c0.185,-0.508 0.402,-0.985 0.576,-1.504c0.284,-0.134 0.328,0.231 0.399,0.4c0.174,0.409 0.384,0.939 0.592,1.248c0.295,0.079 0.545,0.201 0.849,0.272c0.165,0.508 0.623,0.59 0.96,0.944c0.384,0.405 0.42,1.039 0.736,1.504c0.228,0.336 0.73,0.529 0.88,0.96c0.383,-0.332 0.758,-0.715 1.152,-1.072c0.129,-0.117 0.282,-0.228 0.384,-0.352c0.131,-0.161 0.244,-0.362 0.368,-0.544c0.847,-1.251 1.734,-2.541 2.592,-3.792c0.5,-0.73 0.982,-1.465 1.44,-2.208c0.224,-0.365 0.494,-0.695 0.8,-1.024c0.149,-0.161 0.302,-0.31 0.432,-0.48c0.13,-0.172 0.215,-0.382 0.352,-0.544c0.199,-0.236 0.496,-0.409 0.736,-0.608c0.947,-0.791 1.643,-1.869 2.336,-2.976c0.342,-0.548 0.613,-1.087 0.912,-1.744c0.049,-0.109 0.123,-0.274 0.24,-0.432c0.069,-0.093 0.206,-0.352 0.304,-0.353c0.208,-0.001 0.171,0.531 0.144,0.705c-0.044,0.279 -0.13,0.499 -0.192,0.688c-0.44,1.333 -1.04,2.454 -1.728,3.552c0.965,-0.596 1.518,-1.46 2.16,-2.432c0.279,-0.423 0.618,-0.932 0.88,-1.424c0.274,-0.515 0.405,-1.191 0.832,-1.552"/></g></g></g></svg>