<?xml version="1.0" encoding="UTF-8" standalone="no"?><!DOCTYPE svg PUBLIC "-//W3C//DTD SVG 1.1//EN" "http://www.w3.org/Graphics/SVG/1.1/DTD/svg11.dtd"><svg width="100%" height="100%" viewBox="0 0 64 64" version="1.1" xmlns="http://www.w3.org/2000/svg" xmlns:xlink="http://www.w3.org/1999/xlink" xml:space="preserve" xmlns:serif="http://www.serif.com/" style="fill-rule:evenodd;clip-rule:evenodd;stroke-miterlimit:10;"><g id="Species"><g id="Reptiles"><g id="crocodilian"><path id="Outline" d="M61.409,32.047c0,-16.178 -13.135,-29.313 -29.313,-29.313c-16.179,0 -29.314,13.135 -29.314,29.313c0,16.178 13.135,29.313 29.314,29.313c16.178,0 29.313,-13.135 29.313,-29.313Z" style="fill:none;stroke:#000;stroke-width:3px;"/><path d="M18.645,13.092c0.172,0.043 0.17,0.308 0.191,0.419c0.014,0.078 0.051,0.16 0.077,0.219c0.058,0.13 0.137,0.248 0.214,0.386c0.186,0.332 0.354,0.59 0.378,0.97c0.016,0.264 0.061,0.531 0.155,0.755c0.061,0.147 0.127,0.343 0.168,0.483c0.102,0.348 0.245,0.625 0.341,0.937c0.014,0.045 0.027,0.097 0.041,0.164c0.006,0.028 0.019,0.11 0.032,0.151c0.012,0.04 0.033,0.048 0.05,0.076c0.05,0.083 0.088,0.153 0.132,0.242c0.079,0.158 0.115,0.262 0.178,0.432c0.048,0.133 0.124,0.256 0.163,0.396c0.049,0.171 0.134,0.342 0.201,0.505c0.028,0.071 0.069,0.156 0.1,0.264c0.073,0.255 0.069,0.525 0.111,0.787c0.011,0.065 0.014,0.114 0.025,0.178c0.008,0.044 0.015,0.105 0.032,0.148c0.01,0.023 0.011,0.04 0.018,0.052c0.001,0.001 0.026,0.01 0.032,0.018c0.019,0.025 0.045,0.076 0.055,0.1c0.023,0.056 0.035,0.186 0.07,0.245c0.029,0.046 0.092,0.023 0.156,0.045c0.029,0.009 0.081,0.063 0.101,0.065c0.025,0.003 0.083,-0.047 0.11,-0.055c0.134,-0.036 0.309,0.01 0.446,0.064c0.138,0.056 0.284,0.134 0.409,0.251c0.177,0.165 0.298,0.359 0.33,0.559c0.016,0.098 0.072,0.133 0.116,0.21c0.043,0.076 0.089,0.178 0.11,0.273c0.013,0.059 0.007,0.128 0.033,0.175c0.019,0.033 0.06,0.062 0.081,0.097c0.072,0.12 0.08,0.237 0.077,0.374c-0.002,0.054 -0.019,0.023 0.004,0.1c0.014,0.05 0.034,0.101 0.036,0.155c0.003,0.052 -0.05,0.24 -0.04,0.255c0.032,0.047 0.147,0.019 0.186,0.004c0.116,-0.043 0.165,-0.026 0.279,-0.023c0.092,0.002 0.143,-0.042 0.217,-0.068c0.097,-0.033 0.185,-0.041 0.319,-0.041c0,-0.04 0.052,-0.112 0.072,-0.136c0.029,-0.034 0.056,-0.068 0.091,-0.101c0.035,-0.031 0.135,-0.07 0.164,-0.118c-0.072,-0.045 -0.09,-0.16 -0.109,-0.236c-0.005,-0.022 0.009,-0.054 0,-0.073c-0.011,-0.024 -0.051,-0.042 -0.068,-0.062c-0.023,-0.027 -0.044,-0.057 -0.055,-0.093c-0.018,-0.061 -0.021,-0.07 -0.066,-0.118c-0.059,-0.064 -0.091,-0.101 -0.129,-0.164c-0.108,-0.177 -0.122,-0.364 -0.137,-0.612c-0.011,-0.181 -0.011,-0.398 -0.036,-0.571c-0.008,-0.05 -0.018,-0.099 -0.028,-0.155c-0.005,-0.029 -0.021,-0.12 -0.049,-0.16c-0.033,-0.048 -0.106,-0.084 -0.146,-0.131c-0.039,-0.045 -0.062,-0.093 -0.087,-0.155c-0.07,-0.176 -0.094,-0.421 -0.094,-0.635c0,-0.079 0.002,-0.158 0.002,-0.237c0.001,-0.075 -0.021,-0.153 0.077,-0.124c0.067,0.019 0.111,0.086 0.161,0.122c0.055,0.041 0.124,0.09 0.182,0.141c0.05,0.045 0.126,0.131 0.2,0.151c0.001,-0.09 0.029,-0.176 0.035,-0.265c0.007,-0.109 0.002,-0.221 0.001,-0.33c0,-0.151 0.004,-0.323 0.019,-0.459c0.008,-0.078 0.066,-0.392 0.211,-0.364c0.062,0.012 0.106,0.115 0.13,0.162c0.062,0.12 0.115,0.239 0.157,0.385c0.026,0.09 0.049,0.15 0.066,0.215c0.011,0.043 0.079,0.373 0.127,0.373c0.004,-0.177 0.074,-0.372 0.111,-0.546c0.038,-0.18 0.085,-0.358 0.135,-0.537c0.027,-0.095 0.045,-0.157 0.1,-0.227c0.029,-0.037 0.09,-0.107 0.144,-0.114c0.075,-0.008 0.087,0.048 0.111,0.105c0.086,0.199 0.035,0.517 0.055,0.755c0.012,0.148 0.021,0.312 0.027,0.437c0.007,0.151 0.073,0.29 0.082,0.455c0.318,-0.116 0.546,-0.272 0.833,-0.423c0.141,-0.075 0.297,-0.168 0.432,-0.214c0.049,-0.017 0.267,-0.11 0.328,-0.064c0.048,0.038 -0.014,0.126 -0.028,0.156c-0.03,0.061 -0.089,0.117 -0.127,0.172c-0.051,0.074 -0.125,0.156 -0.182,0.218c-0.132,0.144 -0.247,0.274 -0.382,0.419c-0.046,0.049 -0.105,0.129 -0.155,0.18c-0.072,0.073 -0.254,0.191 -0.282,0.293c0.325,0.091 0.636,0.085 0.944,0.044c0.082,-0.012 0.242,-0.071 0.294,-0.035c0.138,0.096 -0.087,0.221 -0.146,0.273c-0.22,0.195 -0.484,0.338 -0.76,0.414c-0.056,0.016 -0.088,0.025 -0.132,0.032c-0.051,0.009 -0.092,0.004 -0.098,0.069c-0.003,0.031 0.049,0.131 0.06,0.177c0.008,0.034 0.012,0.078 0.025,0.109c0.029,0.07 0.055,0.068 0.113,0.119c0.061,0.053 0.111,0.148 0.173,0.2c0.059,0.048 0.053,0.028 0.116,0.03c0.046,0.002 0.099,0.035 0.13,0.052c0.178,0.096 0.344,0.28 0.455,0.446c0.024,0.036 0.059,0.085 0.08,0.133c0.019,0.043 0.021,0.087 0.036,0.131c0.022,0.068 0.01,0.04 0.05,0.092c0.071,0.091 0.137,0.142 0.189,0.226c0.084,0.139 0.131,0.323 0.155,0.519c0.008,0.073 0.011,0.104 0.036,0.164c0.03,0.073 0.064,0.156 0.075,0.243c0.018,0.133 0.02,0.418 -0.175,0.394c-0.008,0.161 -0.108,0.302 -0.191,0.41c-0.034,0.043 -0.104,0.086 -0.137,0.118c-0.058,0.056 -0.091,0.136 -0.154,0.2c-0.068,0.069 -0.156,0.128 -0.228,0.178c-0.079,0.054 -0.148,0.092 -0.228,0.127c-0.054,0.023 -0.138,0.034 -0.191,0.059c-0.082,0.039 -0.143,0.112 -0.218,0.137c-0.167,0.055 -0.359,0.071 -0.546,0.073c0,0.034 0.155,0.1 0.19,0.128c0.084,0.065 0.111,0.133 0.169,0.213c0.043,0.059 -0.001,0.03 0.07,0.065c0.036,0.018 0.073,0.028 0.108,0.049c0.034,0.02 0.056,0.038 0.091,0.063c0.016,0.012 0.012,0.004 0.027,0.018c0.053,0.052 0.053,0.052 0.109,0.092c0.034,0.024 0.055,0.046 0.091,0.081c0.044,0.043 0.096,0.111 0.119,0.164c0.019,0.046 0.022,0.09 0.063,0.128c0.018,0.015 0.074,0.032 0.096,0.045c0.034,0.021 0.093,0.064 0.123,0.091c0.015,0.015 0.042,0.04 0.054,0.055c0.014,0.016 0.036,0.091 0.046,0.1c0.051,0.046 0.185,0.047 0.227,0.064c0.066,0.026 0.152,0.117 0.192,0.182c0.032,0.052 0.059,0.081 0.136,0.1c0.134,0.033 0.287,0.083 0.396,0.17c0.056,0.046 0.062,0.104 0.105,0.156c0.027,0.033 0.046,0.024 0.081,0.038c0.048,0.018 0.138,0.081 0.183,0.132c0.061,0.069 0.081,0.131 0.145,0.196c0.036,0.035 0.07,0.061 0.108,0.102c0.077,0.085 0.11,0.088 0.22,0.125c0.046,0.015 0.122,0.059 0.177,0.091c0.031,0.018 0.069,0.036 0.096,0.055c0.042,0.029 0.087,0.098 0.127,0.118c0.067,0.034 0.124,0.031 0.173,0.055c0.052,0.024 0.125,0.07 0.173,0.109c0.04,0.032 0.09,0.145 0.128,0.164c0.044,0.021 0.124,-0.008 0.173,0.004c0.068,0.017 0.128,0.033 0.181,0.082c0.026,0.023 0.055,0.035 0.074,0.068c0,0.002 0.01,0.023 0.008,0.019c0.005,0.015 0.01,0.03 0.015,0.044c-0.015,0.052 0.003,0.072 0.054,0.06c0.079,0.036 0.152,0.039 0.241,0.078c0.169,0.073 0.246,0.207 0.309,0.368l0,0.05c0.037,0.014 0.073,0.029 0.11,0.043c0.059,0.025 0.041,0.015 0.073,0.035c0.034,0.021 0.058,0.041 0.09,0.068c0.035,0.028 0.088,0.066 0.114,0.114c0.007,0.014 0.014,0.075 0.023,0.086c0.017,0.019 0.12,0.056 0.137,0.064c0.088,0.042 0.137,0.081 0.213,0.146c0.092,0.077 0.099,0.144 0.159,0.224c0.003,0.016 0.006,0.032 0.01,0.048c0.029,0.003 0.058,0.007 0.087,0.014c0.027,0.006 0.051,0.015 0.077,0.023c0.032,0.01 0.075,0.029 0.1,0.041c0.07,0.033 0.163,0.107 0.2,0.177c0.016,0.031 0.017,0.095 0.036,0.128c0.006,0.009 0.058,0.041 0.064,0.045c0.067,0.053 0.149,0.11 0.218,0.182c0.04,0.041 0.092,0.113 0.116,0.174c0.004,0.016 0.01,0.032 0.015,0.048c-0.011,0.046 0.005,0.065 0.048,0.058c0.023,0.015 0.057,0.015 0.082,0.03c0.09,0.054 0.158,0.153 0.194,0.236c0.03,0.069 0.032,0.186 0.071,0.237c0.04,0.052 0.122,0.087 0.167,0.14c0.047,0.055 0.085,0.117 0.111,0.184c0.011,0.028 0.02,0.058 0.027,0.087c0.007,0.032 0.012,0.063 0.014,0.095c-0.014,0.041 -0.001,0.061 0.039,0.058c0.088,0.078 0.172,0.136 0.2,0.246c0.008,0.035 0.01,0.113 0.009,0.146c-0.001,0.017 -0.024,0.026 -0.019,0.045c0.012,0.038 0.048,0.01 0.064,0.028c0.138,0.14 0.177,0.227 0.2,0.412c0.006,0.04 -0.007,0.044 0.023,0.084c0.056,0.075 0.006,0.031 0.059,0.015c0.065,-0.019 0.085,-0.106 0.1,-0.156c0.013,-0.041 0.054,-0.1 0.073,-0.146c0.042,-0.1 0.089,-0.148 0.155,-0.228c0.063,-0.075 0.175,-0.13 0.223,-0.209c0.073,-0.121 0.155,-0.258 0.296,-0.391c0.06,-0.058 0.135,-0.122 0.21,-0.158c0.086,-0.042 0.084,-0.048 0.13,-0.126c0.039,-0.066 0.102,-0.131 0.171,-0.167c0.017,-0.009 0.089,-0.022 0.098,-0.032c0.011,-0.01 0.027,-0.074 0.036,-0.093c0.017,-0.032 0.027,-0.065 0.046,-0.089c0.062,-0.072 0.13,-0.122 0.201,-0.164c0.198,-0.116 0.505,-0.236 0.762,-0.327c0.188,-0.067 0.35,-0.101 0.527,-0.145c0.184,-0.045 0.365,-0.103 0.554,-0.124c0.197,-0.022 0.398,-0.052 0.587,-0.114c0.027,-0.008 0.07,-0.029 0.1,-0.045c0.022,-0.012 0.047,-0.024 0.064,-0.036c0.013,-0.01 0.114,-0.091 0.118,-0.101c0.019,-0.043 0.004,-0.142 0.018,-0.195c0.006,-0.021 0.021,-0.042 0.027,-0.059c0.019,-0.049 0.028,-0.087 0.046,-0.137c0.079,-0.223 0.202,-0.419 0.291,-0.655c0.081,-0.211 0.168,-0.382 0.282,-0.596c0.152,-0.282 0.464,-0.6 0.756,-0.733c0.039,-0.018 0.069,-0.046 0.127,-0.068c0.054,-0.021 0.17,-0.045 0.219,-0.069c0.129,-0.061 0.233,-0.164 0.364,-0.236c0.069,-0.039 0.146,-0.075 0.227,-0.105c0.049,-0.018 0.089,-0.046 0.128,-0.059c0.05,-0.017 0.146,-0.062 0.197,-0.06c0.091,0.003 0.064,0.058 0.045,0.128c-0.017,0.064 -0.04,0.097 -0.078,0.159c-0.02,0.033 -0.036,0.066 -0.073,0.101c-0.004,0.003 -0.055,0.018 -0.055,0.018c-0.009,0.013 -0.014,0.081 -0.018,0.1c0.047,0 0.149,-0.125 0.182,-0.155c0.037,-0.033 0.092,-0.06 0.127,-0.091c0.08,-0.068 0.15,-0.116 0.237,-0.173c0.064,-0.041 0.122,-0.055 0.173,-0.082c0.039,-0.02 0.192,-0.125 0.255,-0.091c0.12,0.067 -0.116,0.271 -0.137,0.319c-0.037,0.084 -0.053,0.181 -0.082,0.255c-0.038,0.099 -0.096,0.203 -0.154,0.291c-0.048,0.071 -0.141,0.146 -0.164,0.246c0.032,0 0.091,-0.059 0.109,-0.073c0.04,-0.032 0.073,-0.045 0.118,-0.073c0.064,-0.039 0.137,-0.089 0.192,-0.114c0.167,-0.076 0.303,-0.127 0.5,-0.15c0.06,-0.007 0.162,-0.021 0.2,0.028c0.045,0.059 -0.001,0.103 -0.027,0.136c-0.079,0.101 -0.184,0.122 -0.259,0.209c-0.042,0.049 -0.057,0.109 -0.082,0.164c-0.038,0.081 -0.096,0.156 -0.15,0.228c-0.096,0.125 -0.23,0.255 -0.355,0.355c-0.026,0.02 -0.135,0.091 -0.146,0.118c-0.008,0.019 0.032,0.129 0.037,0.155c0.007,0.043 0.013,0.09 0.017,0.134c0.019,0.195 -0.02,0.401 -0.081,0.585c-0.017,0.048 -0.072,0.126 -0.072,0.167c0,0.062 0.043,0.126 0.04,0.197c-0.008,0.199 -0.082,0.341 -0.196,0.5c-0.002,0.002 -0.038,0.022 -0.036,0.019c-0.007,0.02 0,0.099 0,0.109c-0.005,0.057 -0.012,0.093 -0.028,0.136c-0.029,0.079 -0.091,0.178 -0.145,0.255c-0.05,0.071 -0.101,0.175 -0.182,0.228c-0.01,0.006 -0.055,0.021 -0.061,0.029c-0.022,0.033 -0.002,0.042 0.006,0.089c0.008,0.045 0.002,0.102 -0.006,0.146c-0.017,0.098 -0.071,0.186 -0.144,0.253c-0.031,0.029 -0.072,0.051 -0.088,0.079c-0.026,0.044 -0.022,0.111 -0.052,0.161c-0.056,0.091 -0.135,0.127 -0.225,0.174c-0.079,0.04 -0.044,0.03 -0.045,0.116c0,0.051 -0.011,0.092 -0.04,0.135c-0.067,0.1 -0.191,0.155 -0.31,0.156c0.025,0.116 0.065,0.218 -0.045,0.282c-0.024,0.014 -0.075,0.04 -0.092,0.045c-0.016,0.005 -0.057,0.016 -0.063,0.018c-0.06,0.025 -0.052,0.033 -0.11,0.073c-0.118,0.083 -0.254,0.152 -0.373,0.192c-0.201,0.067 -0.432,0.138 -0.646,0.172c-0.128,0.021 -0.292,0.053 -0.423,0.064c-0.201,0.017 -0.432,-0.006 -0.647,0.008c-0.119,0.008 -0.243,-0.003 -0.304,0.074c-0.084,0.107 -0.034,0.4 -0.031,0.551c0.007,0.345 0.034,0.664 0.049,0.969c0.015,0.308 0.045,0.613 0.037,0.946c-0.01,0.341 -0.039,0.596 -0.096,0.906c-0.029,0.156 -0.084,0.349 -0.105,0.469c-0.015,0.083 -0.107,0.242 -0.073,0.327c0.017,0.042 0.095,0.077 0.123,0.101c0.041,0.036 0.018,0.041 0.075,0.081c0.039,0.028 0.099,0.049 0.13,0.074c0.1,0.076 0.283,0.227 0.237,0.382c0.074,-0.005 0.139,0.009 0.2,0.054c0.099,0.073 0.158,0.187 0.227,0.264c0.017,0.018 0.054,0.054 0.074,0.068c0.048,0.037 0.065,0.028 0.136,0.033c0.07,0.004 0.138,0.026 0.182,0.045c0.089,0.038 0.185,0.09 0.264,0.145c0.043,0.031 0.095,0.089 0.146,0.119c0.043,0.026 0.142,0.043 0.206,0.078c0.095,0.051 0.178,0.09 0.248,0.149c0.1,0.085 0.21,0.189 0.292,0.292c0.017,0.021 0.041,0.041 0.054,0.063c0.021,0.034 0.023,0.111 0.046,0.137c0.021,0.023 0.119,0.055 0.136,0.063c0.203,0.099 0.392,0.255 0.528,0.456c0.022,0.031 0.036,0.049 0.055,0.1c0.013,0.035 0.021,0.112 0.045,0.154c0.024,0.042 0.092,0.06 0.119,0.082c0.044,0.038 0.081,0.074 0.127,0.11c0.109,0.083 0.236,0.177 0.328,0.3c0.032,0.042 0.046,0.06 0.073,0.109c0.029,0.053 0.011,0.107 0.033,0.173c0.037,0.114 0.201,0.172 0.276,0.246c0.086,0.085 0.186,0.171 0.246,0.264c0.039,0.061 0.08,0.152 0.091,0.209c0.018,0.1 0.019,0.094 0.109,0.146c0.04,0.023 0.061,0.047 0.1,0.073c0.207,0.133 0.444,0.45 0.446,0.737c0.081,-0.03 0.265,0.088 0.319,0.127c0.043,0.032 0.078,0.068 0.127,0.109c0.028,0.024 0.08,0.058 0.109,0.091c0.025,0.03 0.049,0.098 0.082,0.128c0,-0.103 0.079,0.055 0.069,0.046c0.002,0.012 0.003,0.024 0.004,0.036c0.03,0.002 0.059,0.007 0.087,0.015c0.095,0.025 0.179,0.077 0.253,0.139c0.073,0.062 0.136,0.135 0.187,0.215c0.019,0.031 0.032,0.078 0.056,0.104c0.018,-0.01 0.036,-0.01 0.054,0c0.003,0.021 0.006,0.042 0.009,0.064c0.1,-0.017 0.221,0.078 0.319,0.136c0.134,0.081 0.306,0.25 0.327,0.401c0.083,0 0.144,-0.016 0.21,0c0.072,0.017 0.11,0.021 0.164,0.045c0.049,0.022 0.12,0.08 0.164,0.119c0.046,0.041 0.078,0.103 0.124,0.129c0.048,0.027 0.167,0.041 0.212,0.053c0.084,0.021 0.135,0.046 0.191,0.091c0.014,0.011 0.035,0.024 0.05,0.033c0.047,0.029 0.009,0.014 0.068,0.021c0.09,0.011 0.172,-0.01 0.263,0.012c0.101,0.023 0.203,0.075 0.275,0.125c0.076,0.052 0.098,0.102 0.156,0.181c0.041,0.056 -0.001,0.018 0.063,0.037c0.037,0.012 0.088,0.006 0.128,0.011c0.069,0.01 0.136,0.026 0.202,0.049c0.091,0.032 0.18,0.067 0.243,0.113c0.082,0.061 0.095,0.087 0.191,0.055c0.053,-0.018 0.097,-0.043 0.159,-0.055c0.126,-0.024 0.24,-0.072 0.419,-0.09c0.056,-0.006 0.112,-0.01 0.168,-0.001c0.008,0.001 0.078,0.032 0.101,0.03c0.075,-0.005 0.181,-0.09 0.236,-0.121c0.118,-0.068 0.201,-0.111 0.324,-0.155c0.139,-0.049 0.27,-0.077 0.395,-0.091c0.082,-0.009 0.14,-0.02 0.209,-0.073c0.303,-0.23 0.588,-0.624 0.919,-0.773c0.042,-0.019 0.09,-0.033 0.137,-0.046c0.067,-0.018 0.139,-0.105 0.191,-0.173c0.081,-0.105 0.147,-0.214 0.228,-0.318c0.065,-0.085 0.166,-0.188 0.254,-0.255c0.02,-0.015 0.053,-0.041 0.064,-0.055c0.046,-0.055 0.053,-0.138 0.073,-0.218c0.024,-0.097 0.069,-0.2 0.118,-0.3c0.039,-0.079 0.078,-0.174 0.149,-0.257c0.04,-0.047 0.111,-0.079 0.142,-0.112c0.035,-0.04 0.038,-0.065 0.052,-0.133c0.039,-0.193 0.057,-0.411 0.157,-0.585c0.019,-0.034 0.04,-0.061 0.065,-0.087c0.023,-0.026 0.071,-0.051 0.082,-0.073c0.024,-0.053 -0.009,-0.198 -0.01,-0.237c0,-0.069 0.006,-0.127 0.01,-0.202c0.007,-0.145 0.038,-0.49 0.236,-0.508c-0.023,-0.095 -0.064,-0.15 -0.082,-0.237c-0.022,-0.109 -0.034,-0.237 -0.018,-0.363c0.008,-0.068 0.032,-0.137 0.055,-0.192c0.007,-0.018 0.045,-0.058 0.054,-0.082c0.016,-0.042 -0.018,-0.105 -0.027,-0.145c-0.025,-0.106 -0.046,-0.229 -0.055,-0.337c-0.011,-0.139 -0.015,-0.362 0.037,-0.482c0.03,-0.07 0.048,-0.064 0.032,-0.154c-0.021,-0.111 -0.047,-0.223 -0.075,-0.332c-0.033,-0.126 -0.049,-0.209 -0.067,-0.315c-0.008,-0.051 -0.04,-0.136 -0.045,-0.201c-0.007,-0.09 0.003,-0.158 -0.009,-0.254c-0.015,-0.12 -0.051,-0.285 -0.084,-0.415c-0.027,-0.107 -0.053,-0.217 -0.074,-0.326c-0.02,-0.1 -0.015,-0.204 -0.033,-0.306c-0.039,-0.214 -0.119,-0.42 -0.155,-0.634c-0.033,-0.196 -0.088,-0.39 -0.135,-0.583c-0.03,-0.124 -0.068,-0.324 -0.129,-0.412c-0.064,-0.092 -0.127,-0.137 -0.173,-0.228c-0.065,-0.13 -0.121,-0.283 -0.145,-0.428c-0.017,-0.098 -0.003,-0.218 -0.03,-0.325c-0.018,-0.072 -0.084,-0.157 -0.116,-0.23c-0.044,-0.099 -0.107,-0.197 -0.128,-0.3c-0.008,-0.041 -0.013,-0.065 -0.018,-0.105c-0.004,-0.032 0.002,-0.046 -0.009,-0.082l0,-0.025c0.008,-0.026 -0.005,-0.041 -0.036,-0.043c-0.025,-0.068 -0.05,-0.163 -0.073,-0.246c-0.057,-0.203 -0.131,-0.441 -0.164,-0.7c-0.018,-0.139 -0.012,-0.218 -0.045,-0.356c-0.015,-0.059 -0.042,-0.125 -0.055,-0.191c-0.024,-0.123 -0.036,-0.298 -0.073,-0.418c-0.018,-0.06 -0.062,-0.153 -0.073,-0.21c-0.031,-0.168 -0.068,-0.331 -0.113,-0.468c-0.045,-0.133 -0.087,-0.303 -0.106,-0.46c-0.002,-0.02 -0.004,-0.039 -0.005,-0.058c0.017,-0.055 0.001,-0.075 -0.049,-0.06c-0.013,-0.029 -0.016,-0.079 -0.024,-0.108c-0.026,-0.095 -0.069,-0.196 -0.089,-0.284c-0.018,-0.075 -0.063,-0.192 -0.041,-0.3c0.002,-0.013 0.017,-0.056 0.027,-0.073c0.039,-0.062 0.067,-0.05 0.057,-0.141c-0.013,-0.123 -0.068,-0.259 -0.084,-0.369c-0.016,-0.104 -0.032,-0.213 -0.032,-0.336c-0.001,-0.085 -0.046,-0.184 -0.05,-0.273c-0.007,-0.126 0.025,-0.191 0.054,-0.283c0.026,-0.079 0.071,-0.345 0.201,-0.291c0.048,0.021 0.035,0.061 0.068,0.086c-0.004,0.035 0.006,0.048 0.028,0.039c0.016,-0.004 0.032,-0.006 0.049,-0.006c0.05,0.053 0.047,0.142 0.046,0.209c0.175,0 0.109,0.344 0.1,0.437c0.093,0 0.119,-0.21 0.201,-0.086c0.056,0.084 0.023,0.239 -0.01,0.322c0.078,0 0.095,-0.144 0.174,-0.154c0.069,-0.01 0.052,0.059 0.058,0.1c0.026,0.168 0.064,0.352 -0.014,0.546c0.064,0 0.109,-0.048 0.165,-0.028c0.021,0.008 0.058,0.063 0.063,0.074c0.061,0.14 -0.013,0.256 -0.046,0.4c0.122,0 0.18,-0.336 0.301,-0.209c0.057,0.06 0.103,0.152 0.118,0.232c0.031,0.168 -0.006,0.339 -0.055,0.487c-0.021,0.067 -0.115,0.153 -0.127,0.236c0.108,-0.02 0.21,-0.027 0.32,-0.026c0.109,0.001 0.136,-0.002 0.145,0.117c0.015,0.219 -0.04,0.355 -0.128,0.555c0.095,0 0.179,-0.16 0.227,-0.209c0.138,-0.139 0.232,0.027 0.266,0.166c0.042,0.167 0.023,0.325 -0.014,0.489c-0.02,0.09 -0.057,0.119 -0.079,0.219c0.095,0 0.163,-0.116 0.244,-0.175c0.152,-0.11 0.232,0.004 0.275,0.125c0.058,0.161 0.014,0.337 -0.018,0.459c-0.022,0.082 -0.089,0.159 -0.1,0.237c0.092,-0.019 0.207,-0.12 0.273,-0.173c0.04,-0.033 0.073,-0.073 0.118,-0.091c0.068,-0.026 0.083,0.024 0.118,0.087c0.05,0.089 0.062,0.241 0.059,0.359c-0.005,0.215 -0.059,0.367 -0.131,0.583c0.077,-0.009 0.193,-0.098 0.254,-0.146c0.049,-0.038 0.113,-0.13 0.182,-0.064c0.012,0.011 0.039,0.093 0.046,0.109c0.011,0.025 0.017,0.057 0.027,0.082c0.034,0.083 0.069,0.189 0.078,0.305c0.014,0.203 -0.051,0.37 -0.105,0.533c0.064,0 0.129,-0.086 0.173,-0.109c0.045,-0.024 0.088,-0.054 0.127,-0.064c0.134,-0.035 0.174,0.062 0.219,0.155c0.122,0.25 0.114,0.592 0.054,0.919c0.059,-0.006 0.15,-0.093 0.204,-0.065c0.035,0.018 0.066,0.128 0.079,0.156c0.022,0.05 0.047,0.109 0.063,0.173c0.07,0.284 0.021,0.576 -0.009,0.874c0.043,-0.019 0.111,-0.063 0.146,-0.073c0.03,-0.009 0.059,0.003 0.1,0c0.082,-0.006 0.163,-0.078 0.228,0.018c0.067,0.1 0.076,0.279 0.072,0.418c-0.004,0.115 -0.027,0.244 -0.059,0.346c-0.011,0.037 -0.023,0.074 -0.036,0.11c-0.017,0.042 -0.031,0.07 -0.051,0.104c-0.028,0.051 -0.1,0.107 -0.118,0.169c0.087,-0.008 0.206,-0.095 0.264,-0.128c0.062,-0.035 0.067,-0.084 0.141,-0.027c0.143,0.109 0.183,0.319 0.178,0.494c-0.004,0.154 -0.062,0.342 -0.1,0.462c-0.041,0.127 -0.109,0.206 -0.155,0.345c0.126,0 0.27,-0.096 0.399,-0.062c0.095,0.024 0.103,0.194 0.113,0.273c0.02,0.169 -0.046,0.391 -0.093,0.517c-0.077,0.206 -0.161,0.374 -0.31,0.583c0.15,0 0.28,-0.295 0.401,-0.091c0.075,0.127 0.072,0.291 0.045,0.446c-0.024,0.14 -0.068,0.251 -0.136,0.387c-0.037,0.071 -0.077,0.137 -0.119,0.191c-0.034,0.045 -0.102,0.101 -0.118,0.159c0.102,-0.008 0.19,-0.09 0.274,-0.097c0.101,-0.01 0.056,0.066 0.049,0.139c-0.02,0.213 -0.023,0.371 -0.114,0.595c-0.028,0.07 -0.062,0.144 -0.1,0.228c-0.026,0.057 -0.065,0.124 -0.1,0.178c-0.02,0.031 -0.173,0.16 -0.173,0.186c0.074,-0.008 0.27,-0.08 0.304,-0.002c0.016,0.037 -0.014,0.099 -0.016,0.142c-0.001,0.046 0.003,0.091 -0.002,0.137c-0.014,0.133 -0.042,0.232 -0.095,0.342c-0.062,0.13 -0.126,0.252 -0.227,0.355c-0.076,0.077 -0.154,0.139 -0.228,0.2c-0.03,0.025 -0.096,0.048 -0.109,0.091c0.055,0.005 0.118,0.058 0.159,0.073c0.041,0.015 0.087,0.025 0.132,0.036c0.026,0.007 0.122,0.012 0.151,0.046c0.045,0.053 -0.002,0.202 -0.005,0.264c-0.013,0.279 -0.111,0.455 -0.373,0.591c-0.053,0.028 -0.133,0.078 -0.201,0.101c-0.034,0.011 -0.251,0.061 -0.264,0.113c-0.016,0.069 0.148,0.137 0.201,0.141c0.035,0.003 0.087,-0.028 0.1,0.055c0.016,0.099 -0.08,0.243 -0.127,0.323c-0.086,0.143 -0.229,0.309 -0.374,0.414c-0.059,0.043 -0.132,0.082 -0.2,0.109c-0.018,0.008 -0.2,0.073 -0.2,0.091c0.051,0.018 0.193,0.071 0.209,0.11c0.035,0.083 -0.116,0.246 -0.164,0.309c-0.102,0.133 -0.257,0.273 -0.382,0.355c-0.037,0.024 -0.364,0.171 -0.364,0.191c0.182,0.046 -0.188,0.435 -0.237,0.473c-0.111,0.088 -0.193,0.146 -0.309,0.219c-0.208,0.129 -0.353,0.2 -0.601,0.2c0,0.103 0.297,0.084 0.264,0.212c-0.023,0.091 -0.198,0.166 -0.273,0.207c-0.152,0.082 -0.255,0.147 -0.45,0.202c-0.109,0.031 -0.236,0.048 -0.351,0.056c-0.115,0.007 -0.201,-0.025 -0.318,-0.031c0,0.158 0.371,0.201 0.172,0.342c-0.102,0.072 -0.236,0.159 -0.345,0.195c-0.117,0.039 -0.212,0.068 -0.337,0.091c-0.066,0.013 -0.14,0.036 -0.219,0.041c-0.13,0.008 -0.279,0.014 -0.427,0.014c0.017,0.09 0.099,0.128 0.021,0.2c-0.041,0.038 -0.115,0.068 -0.158,0.082c-0.132,0.045 -0.284,0.088 -0.446,0.109c-0.102,0.014 -0.218,0.021 -0.346,0.028c-0.048,0.002 -0.095,0.013 -0.145,0.013c-0.041,0 -0.114,-0.03 -0.146,-0.013c-0.005,0.002 -0.038,0.078 -0.052,0.095c-0.04,0.044 -0.098,0.072 -0.151,0.096c-0.126,0.059 -0.264,0.074 -0.401,0.083c-0.258,0.018 -0.54,-0.025 -0.77,-0.047c-0.076,-0.007 -0.153,-0.017 -0.237,-0.027c-0.031,-0.004 -0.118,-0.028 -0.163,-0.025c-0.07,0.006 -0.1,0.054 -0.155,0.089c-0.17,0.107 -0.44,0.083 -0.648,0.071c-0.183,-0.012 -0.369,-0.03 -0.536,-0.071c-0.057,-0.015 -0.101,-0.026 -0.154,-0.046c-0.011,-0.004 -0.03,-0.027 -0.046,-0.027c-0.051,-0.002 -0.097,0.026 -0.145,0.036c-0.109,0.024 -0.228,0.007 -0.346,-0.009c-0.197,-0.027 -0.386,-0.073 -0.578,-0.125c-0.103,-0.027 -0.208,-0.048 -0.314,-0.06c-0.068,-0.008 -0.237,0.018 -0.246,-0.061c-0.362,0.104 -0.791,0.053 -1.11,-0.123c-0.075,-0.041 -0.149,-0.084 -0.219,-0.14c-0.028,-0.024 -0.057,-0.089 -0.091,-0.101c-0.026,-0.009 -0.096,0.012 -0.125,0.016c-0.075,0.012 -0.154,0.022 -0.229,0.017c-0.168,-0.012 -0.33,-0.055 -0.47,-0.083c-0.099,-0.019 -0.183,-0.042 -0.259,-0.073c-0.025,-0.01 -0.051,-0.022 -0.073,-0.032c-0.036,-0.015 -0.065,-0.052 -0.103,-0.072c-0.034,-0.018 -0.028,-0.02 -0.079,-0.021c-0.04,0 -0.067,0.012 -0.114,0.012c-0.086,0 -0.167,-0.006 -0.25,-0.019c-0.331,-0.049 -0.722,-0.232 -0.887,-0.509c-0.03,-0.05 -0.021,-0.058 -0.091,-0.064c-0.044,-0.004 -0.058,0.009 -0.096,0.009c-0.096,0 -0.235,-0.029 -0.342,-0.057c-0.099,-0.025 -0.159,-0.059 -0.25,-0.097c-0.14,-0.06 -0.348,-0.204 -0.455,-0.351c-0.025,-0.035 -0.052,-0.081 -0.089,-0.116c-0.053,-0.05 0.064,-0.003 -0.068,-0.035c-0.025,-0.006 -0.055,-0.003 -0.08,-0.006c-0.064,-0.008 -0.126,-0.023 -0.187,-0.044c-0.116,-0.039 -0.204,-0.083 -0.285,-0.122c-0.075,-0.036 -0.188,-0.087 -0.265,-0.146c-0.038,-0.03 -0.101,-0.068 -0.136,-0.104c-0.025,-0.026 -0.059,-0.058 -0.081,-0.092c-0.052,-0.08 -0.019,-0.079 -0.116,-0.078c-0.171,0.001 -0.307,-0.088 -0.431,-0.163c-0.14,-0.083 -0.301,-0.238 -0.373,-0.418c-0.056,0.028 -0.245,-0.09 -0.291,-0.119c-0.074,-0.046 -0.141,-0.094 -0.21,-0.145c-0.091,-0.068 -0.2,-0.188 -0.264,-0.273c-0.018,-0.025 -0.043,-0.067 -0.054,-0.091c-0.039,-0.086 -0.025,-0.132 -0.13,-0.162c-0.191,-0.055 -0.313,-0.237 -0.398,-0.375c-0.077,-0.124 -0.124,-0.193 -0.173,-0.31c-0.007,-0.016 -0.008,-0.024 -0.009,-0.027c-0.029,-0.069 -0.017,-0.047 -0.075,-0.079c-0.066,-0.036 -0.146,-0.082 -0.207,-0.112c-0.065,-0.032 -0.133,-0.074 -0.196,-0.137c-0.027,-0.027 -0.063,-0.06 -0.086,-0.091c-0.022,-0.029 -0.029,-0.099 -0.046,-0.118c-0.044,-0.048 -0.121,-0.055 -0.161,-0.127c-0.03,-0.052 -0.024,-0.051 -0.066,-0.084c-0.032,-0.026 -0.068,-0.04 -0.099,-0.07c-0.067,-0.067 -0.092,-0.175 -0.151,-0.226c-0.048,-0.044 -0.102,-0.07 -0.15,-0.119c-0.057,-0.058 0.003,-0.025 -0.079,-0.058c-0.035,-0.015 -0.069,-0.017 -0.104,-0.035c-0.09,-0.047 -0.129,-0.14 -0.209,-0.182c-0.087,-0.045 -0.153,-0.066 -0.219,-0.146c-0.019,-0.022 -0.019,-0.039 -0.036,-0.063c-0.01,-0.014 -0.009,-0.02 -0.019,-0.028c-0.05,-0.041 -0.076,-0.019 -0.15,-0.009c-0.092,0.013 -0.14,0.055 -0.227,0.064c-0.043,0.004 -0.094,-0.007 -0.134,-0.001c-0.038,-0.022 -0.063,-0.014 -0.075,0.024c-0.019,0.019 -0.041,0.034 -0.066,0.044c-0.042,0.018 -0.104,0.016 -0.13,0.015c-0.033,-0.002 -0.085,-0.015 -0.114,-0.014c-0.033,-0.026 -0.053,-0.019 -0.06,0.022c-0.017,0.009 -0.033,0.018 -0.05,0.027c-0.05,0.026 -0.131,0.031 -0.186,0.019c-0.027,-0.005 -0.061,-0.042 -0.091,-0.036c-0.036,0.008 -0.089,0.067 -0.139,0.079c-0.075,0.018 -0.146,0.014 -0.216,-0.024c0,0.097 -0.156,0.067 -0.223,0.067c-0.117,0 -0.222,0.064 -0.359,-0.022c0,0.059 -0.183,0.042 -0.223,0.041c-0.075,-0.002 -0.129,0.003 -0.187,0.023c-0.009,0.003 -0.044,0.025 -0.054,0.027c-0.05,0.011 -0.111,0.004 -0.16,-0.009c-0.023,-0.006 -0.092,-0.041 -0.104,-0.041c-0.063,0.002 -0.137,0.062 -0.228,0.05c-0.041,-0.005 -0.112,-0.063 -0.155,-0.064c-0.04,0 -0.091,0.037 -0.141,0.04c-0.045,0.002 -0.078,-0.006 -0.111,-0.015c-0.064,-0.016 -0.102,-0.034 -0.156,-0.022c-0.05,0.012 -0.094,0.046 -0.151,0.04c-0.08,-0.01 -0.098,-0.074 -0.178,-0.097c-0.024,0.092 -0.18,0.047 -0.241,0.034c-0.029,-0.006 -0.055,-0.014 -0.077,-0.016c0.002,0 -0.013,-0.009 -0.026,-0.007c-0.067,0.013 -0.052,0.007 -0.077,0.055c-0.024,0.048 -0.025,0.106 -0.055,0.155c-0.03,0.048 -0.094,0.072 -0.119,0.11c-0.032,0.05 -0.02,0.172 -0.051,0.233c-0.027,0.054 -0.136,0.138 -0.149,0.202c-0.011,0.052 0.006,0.108 -0.011,0.166c-0.019,0.066 -0.054,0.123 -0.086,0.183c-0.03,0.053 -0.035,0.06 -0.073,0.104c-0.012,0.015 -0.065,0.063 -0.073,0.082c-0.013,0.037 0.015,0.104 0.014,0.142c-0.002,0.037 -0.015,0.065 -0.023,0.095c-0.024,0.094 -0.071,0.183 -0.136,0.264c-0.058,0.072 -0.124,0.153 -0.2,0.218c-0.033,0.028 -0.047,0.048 -0.082,0.064c-0.002,0.001 -0.028,0.003 -0.037,0.006c-0.034,0.016 -0.044,0.018 -0.082,0.053c-0.084,0.079 -0.191,0.154 -0.273,0.187c-0.066,0.026 -0.104,0.045 -0.163,0.054c-0.086,0.015 -0.21,-0.021 -0.262,0.023c-0.021,0.018 -0.036,0.083 -0.056,0.108c-0.024,0.03 -0.05,0.047 -0.083,0.065c-0.025,0.014 -0.038,0.019 -0.064,0.027c-0.038,0.013 -0.095,0.021 -0.145,0.019c-0.05,-0.002 -0.148,-0.038 -0.191,-0.03c-0.043,0.009 -0.086,0.058 -0.142,0.066c-0.062,0.008 -0.128,0.002 -0.189,-0.01c-0.063,-0.013 -0.198,-0.025 -0.206,-0.095c-0.125,0.045 -0.21,0.061 -0.31,0.037c-0.029,-0.007 -0.046,-0.014 -0.073,-0.018c-0.075,-0.013 0.013,-0.022 -0.079,-0.001c-0.094,0.02 -0.137,0.062 -0.255,0.046c-0.08,-0.011 -0.119,-0.029 -0.212,-0.009c-0.097,0.021 -0.207,0.049 -0.309,0.027c-0.108,-0.023 -0.254,-0.029 -0.369,-0.045c-0.119,-0.018 -0.214,-0.054 -0.305,-0.1c-0.024,-0.013 -0.047,-0.054 -0.077,-0.064c-0.059,-0.019 0.001,-0.013 -0.059,0.009c-0.022,0.008 -0.042,0.022 -0.064,0.032c-0.138,0.065 -0.29,0.109 -0.446,0.132c-0.232,0.034 -0.57,0.058 -0.837,0.073c-0.305,0.016 -0.597,0.01 -0.874,-0.028c-0.06,-0.008 -0.401,-0.046 -0.337,-0.172c0.015,-0.03 0.149,-0.072 0.173,-0.082c0.136,-0.059 0.27,-0.125 0.419,-0.192c0.06,-0.026 0.103,-0.053 0.146,-0.072c0.063,-0.029 0.22,-0.079 0.236,-0.137c-0.252,0.004 -0.508,0.023 -0.756,-0.018c-0.206,-0.034 -0.413,-0.097 -0.626,-0.166c-0.147,-0.048 -0.25,-0.077 -0.402,-0.107c-0.073,-0.015 -0.242,-0.078 -0.073,-0.15c0.146,-0.062 0.331,-0.119 0.501,-0.141c0.384,-0.052 0.658,-0.109 1.038,-0.091c0,-0.056 -0.263,-0.142 -0.301,-0.155c-0.079,-0.027 -0.147,-0.047 -0.23,-0.071c-0.23,-0.066 -0.388,-0.179 -0.616,-0.293c-0.221,-0.111 -0.392,-0.228 -0.635,-0.297c-0.089,-0.026 -0.202,-0.008 -0.239,-0.086c-0.031,-0.066 0.007,-0.073 0.064,-0.095c0.085,-0.033 0.2,-0.066 0.318,-0.087c0.204,-0.034 0.459,-0.028 0.699,-0.04c0.214,-0.011 0.447,-0.021 0.676,-0.023c-0.008,-0.063 -0.008,-0.052 -0.05,-0.085c-0.042,-0.032 -0.095,-0.049 -0.136,-0.086c-0.04,-0.036 -0.086,-0.091 -0.106,-0.13c-0.014,-0.028 -0.011,-0.06 -0.05,-0.072c-0.02,-0.007 -0.042,0.024 -0.073,0.019c-0.002,0 -0.079,-0.048 -0.09,-0.053c-0.047,-0.02 -0.094,-0.05 -0.131,-0.086c-0.026,-0.026 -0.044,-0.079 -0.068,-0.1c-0.039,-0.032 -0.112,-0.004 -0.17,-0.008c-0.037,-0.002 -0.094,-0.019 -0.132,-0.027c-0.077,-0.017 -0.166,-0.03 -0.226,-0.091c-0.058,-0.059 -0.097,-0.122 -0.006,-0.178c0.04,-0.024 0.098,-0.04 0.127,-0.05c0.082,-0.026 0.167,-0.042 0.255,-0.059c0.236,-0.045 0.559,-0.032 0.801,-0.005c0.149,0.018 0.26,0.032 0.425,0.071c0.096,0.022 0.206,0.044 0.29,0.071c0.065,0.021 0.154,0.058 0.241,0.068c-0.014,-0.064 -0.072,-0.122 -0.091,-0.164c-0.019,-0.039 -0.036,-0.09 -0.064,-0.137c-0.067,-0.108 -0.179,-0.207 -0.286,-0.302c-0.042,-0.037 -0.23,-0.189 -0.215,-0.244c0.01,-0.036 0.136,-0.06 0.164,-0.068c0.137,-0.04 0.299,-0.045 0.476,-0.032c0.406,0.031 0.725,0.21 1.071,0.355c0.317,0.133 0.599,0.29 0.874,0.419c0.098,0.046 0.153,0.072 0.255,0.127c0.042,0.023 0.084,0.052 0.123,0.073c0.02,0.011 0.062,0.032 0.082,0.037c0.086,0.019 0.094,-0.006 0.136,-0.087c0.126,-0.24 0.254,-0.393 0.405,-0.605c0.051,-0.072 0.129,-0.126 0.191,-0.173c0.052,-0.039 0.125,-0.056 0.175,-0.094c0.024,-0.018 0.037,-0.066 0.053,-0.088c0.047,-0.065 0.102,-0.13 0.156,-0.189c0.082,-0.089 0.171,-0.161 0.254,-0.23c0.102,-0.085 0.243,-0.125 0.35,-0.209c0.059,-0.046 0.112,-0.149 0.184,-0.214c0.025,-0.022 0.121,-0.074 0.121,-0.105c-0.186,0 -0.273,-0.115 -0.409,-0.266c-0.012,-0.014 -0.014,-0.058 -0.028,-0.07c-0.022,-0.021 -0.097,-0.037 -0.127,-0.055c-0.022,-0.013 -0.054,-0.02 -0.073,-0.037c-0.044,-0.036 -0.074,-0.083 -0.128,-0.118c-0.041,-0.027 0.032,-0.002 -0.045,-0.027c-0.007,-0.002 -0.086,0.001 -0.114,-0.006c-0.054,-0.015 -0.101,-0.041 -0.147,-0.073c-0.05,-0.035 -0.091,-0.103 -0.138,-0.132c-0.037,-0.023 -0.048,-0.016 -0.106,-0.02c-0.03,-0.001 -0.061,-0.007 -0.09,-0.016c-0.079,-0.025 -0.157,-0.078 -0.198,-0.153c-0.027,-0.05 -0.009,-0.056 -0.056,-0.071c-0.015,-0.005 -0.097,-0.003 -0.089,-0.002c-0.049,-0.005 -0.07,-0.006 -0.109,-0.019c-0.067,-0.022 -0.144,-0.078 -0.198,-0.133c-0.034,-0.035 -0.076,-0.078 -0.108,-0.124c-0.018,-0.028 -0.028,-0.067 -0.048,-0.091c-0.031,-0.039 -0.034,-0.024 -0.08,-0.049c-0.098,-0.053 -0.167,-0.095 -0.239,-0.167c-0.035,-0.035 -0.075,-0.073 -0.1,-0.109c-0.025,-0.036 -0.038,-0.166 -0.073,-0.191c-0.019,-0.014 -0.082,-0.016 -0.111,-0.027c-0.079,-0.028 -0.139,-0.081 -0.192,-0.147c-0.053,-0.065 -0.063,-0.142 -0.103,-0.209c-0.039,-0.068 0.046,-0.001 -0.056,-0.049c-0.033,-0.015 -0.075,-0.016 -0.109,-0.032c-0.097,-0.045 -0.188,-0.156 -0.239,-0.228c-0.053,-0.074 -0.106,-0.189 -0.128,-0.264c-0.007,-0.024 -0.003,-0.064 -0.018,-0.082c-0.036,-0.044 -0.112,-0.072 -0.155,-0.118c-0.033,-0.036 -0.079,-0.112 -0.1,-0.155c-0.007,-0.014 -0.014,-0.028 -0.021,-0.042c0.002,-0.047 -0.019,-0.064 -0.064,-0.053c-0.024,-0.013 -0.057,-0.016 -0.083,-0.028c-0.049,-0.022 -0.081,-0.058 -0.114,-0.086c-0.086,-0.075 -0.123,-0.143 -0.173,-0.228c-0.023,-0.038 -0.038,-0.087 -0.065,-0.132c-0.047,-0.077 0.006,-0.008 -0.043,-0.045c-0.025,-0.02 -0.067,-0.028 -0.095,-0.048c-0.115,-0.086 -0.156,-0.219 -0.197,-0.346l0,-0.025c0.016,-0.044 0.002,-0.064 -0.042,-0.061c-0.019,-0.02 -0.051,-0.038 -0.073,-0.057c-0.035,-0.032 -0.062,-0.066 -0.085,-0.1c-0.041,-0.059 -0.097,-0.132 -0.128,-0.196c-0.03,-0.063 -0.039,-0.124 -0.088,-0.161c-0.055,-0.043 -0.115,-0.059 -0.162,-0.117c-0.055,-0.067 -0.086,-0.129 -0.114,-0.195c-0.027,-0.065 -0.079,-0.083 -0.137,-0.132c-0.062,-0.053 -0.123,-0.125 -0.163,-0.187c-0.051,-0.077 -0.1,-0.173 -0.128,-0.236c-0.023,-0.053 -0.056,-0.118 -0.082,-0.173c-0.011,-0.025 0.013,-0.008 -0.016,-0.047c-0.006,-0.009 -0.012,-0.019 -0.017,-0.029c-0.001,-0.039 -0.021,-0.048 -0.058,-0.025c-0.03,-0.013 -0.09,-0.043 -0.118,-0.063c-0.097,-0.072 -0.149,-0.186 -0.2,-0.282c-0.023,-0.044 -0.043,-0.118 -0.073,-0.173c-0.02,-0.037 -0.067,-0.058 -0.091,-0.091c-0.097,-0.133 -0.192,-0.26 -0.273,-0.387c-0.035,-0.054 -0.068,-0.139 -0.1,-0.178c-0.064,-0.074 -0.156,-0.122 -0.237,-0.173c-0.211,-0.132 -0.399,-0.35 -0.528,-0.582c-0.033,0.033 -0.007,0.06 -0.073,0.073c0,0.063 0.043,0.133 0.046,0.206c0.004,0.092 -0.021,0.172 -0.037,0.24c-0.013,0.055 -0.024,0.099 -0.045,0.155c-0.01,0.025 -0.034,0.042 -0.036,0.072c0,-0.007 0.034,0.034 0.035,0.047c0.001,0.031 -0.003,0.096 -0.004,0.108c-0.007,0.139 -0.047,0.237 -0.113,0.346c-0.025,0.039 -0.081,0.081 -0.1,0.127c-0.027,0.061 -0.024,0.116 -0.037,0.178c-0.021,0.097 -0.055,0.163 -0.109,0.25c-0.094,0.15 -0.268,0.336 -0.419,0.455c-0.009,0.007 -0.044,0.032 -0.054,0.037c-0.09,0.038 -0.016,-0.007 -0.055,0.018c-0.018,0.003 -0.036,0.006 -0.055,0.009c0.009,0.02 0.008,0.029 -0.004,0.027c-0.037,0.023 -0.076,0.046 -0.114,0.064c-0.034,0.016 -0.076,0.048 -0.133,0.068c-0.134,0.048 -0.29,0.067 -0.432,0.063c-0.241,-0.007 -0.474,-0.093 -0.645,-0.222c-0.07,-0.053 -0.191,-0.132 -0.267,-0.143c-0.084,-0.013 -0.176,-0.008 -0.243,-0.021c-0.063,-0.013 -0.109,-0.034 -0.155,-0.05c-0.083,-0.03 -0.191,-0.087 -0.264,-0.141c-0.092,-0.068 -0.203,-0.179 -0.291,-0.232c-0.074,-0.045 -0.191,-0.038 -0.264,-0.078c-0.129,-0.07 -0.293,-0.228 -0.364,-0.354c-0.013,-0.023 -0.016,-0.056 -0.039,-0.079c-0.042,-0.042 -0.024,-0.037 -0.093,-0.033c-0.078,0.005 -0.063,-0.009 -0.105,0.052c-0.041,0.061 -0.025,0.09 -0.045,0.141c0.015,-0.038 -0.048,0.048 -0.041,0.037c-0.005,0.009 -0.009,0.027 -0.014,0.036c-0.009,0.018 -0.031,0.058 -0.036,0.073c-0.016,0.044 -0.042,0.102 -0.055,0.146c-0.035,0.112 -0.088,0.236 -0.109,0.364c-0.008,0.044 0.017,0.098 -0.036,0.127c-0.061,0.034 -0.122,-0.027 -0.155,-0.064c-0.042,-0.046 -0.089,-0.119 -0.109,-0.164c-0.037,-0.078 -0.052,-0.128 -0.085,-0.223c-0.07,-0.204 -0.119,-0.41 -0.161,-0.623c-0.065,0 -0.143,0.1 -0.182,0.137c-0.061,0.056 -0.122,0.111 -0.164,0.173c-0.067,0.096 -0.134,0.186 -0.2,0.282c-0.091,0.13 -0.208,0.234 -0.301,0.355c-0.075,0.099 -0.193,0.268 -0.301,0.318c-0.127,0.057 -0.08,-0.148 -0.07,-0.228c0.015,-0.129 0.051,-0.254 0.098,-0.375c0.049,-0.125 0.091,-0.207 0.128,-0.307c0.028,-0.078 0.057,-0.157 0.091,-0.237c0.059,-0.137 0.136,-0.348 0.173,-0.536c-0.205,-0.002 -0.407,-0.002 -0.59,0.018c-0.112,0.011 -0.227,0.042 -0.339,0.054c-0.24,0.027 -0.501,0.108 -0.773,0.046c-0.103,-0.024 -0.19,-0.046 -0.119,-0.182c0.041,-0.078 0.132,-0.124 0.201,-0.164c0.12,-0.07 0.316,-0.158 0.436,-0.209c0.085,-0.037 0.18,-0.09 0.264,-0.123c0.125,-0.05 0.323,-0.158 0.483,-0.242c-0.06,-0.059 -0.174,-0.114 -0.264,-0.159c-0.13,-0.065 -0.256,-0.151 -0.373,-0.232c-0.088,-0.06 -0.178,-0.103 -0.264,-0.164c-0.043,-0.029 -0.126,-0.076 -0.166,-0.125c-0.062,-0.072 -0.007,-0.072 0.029,-0.084c0.065,-0.13 0.387,-0.073 0.501,-0.064c0.279,0.023 0.565,0.097 0.855,0.046c0,-0.033 -0.053,-0.082 -0.073,-0.118c-0.02,-0.038 -0.026,-0.072 -0.045,-0.11c-0.052,-0.1 -0.102,-0.203 -0.136,-0.3c-0.026,-0.07 -0.035,-0.122 -0.055,-0.191c-0.019,-0.066 -0.057,-0.225 0,-0.311c0.066,-0.097 0.155,0.006 0.218,0.047c0.068,0.044 0.126,0.099 0.192,0.155c0.241,0.204 0.656,0.399 0.946,0.536c0.045,0.022 0.132,0.042 0.173,0.055c0.11,0.034 0.163,0.055 0.282,0.055c0.2,0 0.377,0.015 0.519,0.073c0.025,0.01 0.076,0.055 0.1,0.072l0.009,0c-0.012,0.041 0.006,0.055 0.053,0.043c0.035,0.018 0.077,0.018 0.111,0.03c0.046,0.017 0.105,0.045 0.164,0.082c0.023,0.015 0.057,0.05 0.082,0.069c0.058,0.044 0.042,0.055 0.124,0.061c0.084,0.006 0.165,0.028 0.244,0.052c0.025,0.008 0.049,0.025 0.073,0.027c0.051,0.005 0.127,-0.018 0.196,-0.018c0,-0.231 -0.038,-0.603 0.264,-0.646c0,-0.037 -0.025,-0.069 -0.022,-0.114c0.006,-0.088 0.008,-0.056 -0.045,-0.117c-0.067,-0.078 -0.146,-0.156 -0.166,-0.262c-0.007,-0.035 0.01,-0.075 0.001,-0.11c-0.01,-0.039 -0.042,-0.053 -0.06,-0.08c-0.032,-0.047 -0.064,-0.138 -0.072,-0.182c-0.028,-0.15 -0.003,-0.287 0.054,-0.409c0.012,-0.026 0.082,-0.079 0.082,-0.119c0.001,-0.02 -0.051,-0.096 -0.054,-0.109c-0.016,-0.056 -0.024,-0.133 -0.019,-0.192c0.012,-0.141 0.098,-0.181 0.167,-0.279c0.011,-0.004 0.022,-0.008 0.034,-0.011c-0.005,-0.026 -0.014,-0.05 -0.028,-0.073c-0.004,-0.015 -0.016,-0.049 -0.018,-0.054c-0.036,-0.155 0.016,-0.343 0.118,-0.456c0.028,-0.03 0.051,-0.064 0.056,-0.102c0.006,-0.052 -0.021,-0.106 -0.009,-0.16c0.01,-0.046 0.031,-0.098 0.063,-0.129c0.082,-0.081 0.218,-0.082 0.346,-0.073c-0.014,-0.132 0.011,-0.273 0.054,-0.355c0.026,-0.048 0.085,-0.094 0.128,-0.145c0.004,-0.005 0.052,-0.02 0.054,-0.028c0.02,-0.076 -0.053,-0.124 -0.109,-0.091c0,-0.096 -0.112,-0.223 -0.164,-0.291c-0.088,-0.116 -0.178,-0.261 -0.155,-0.428c0.008,-0.053 0.053,-0.065 0.066,-0.114c0.015,-0.051 -0.016,-0.048 -0.067,-0.084c-0.064,-0.045 -0.133,-0.11 -0.181,-0.175c-0.068,-0.093 -0.129,-0.199 -0.168,-0.3c-0.035,-0.092 -0.052,-0.179 -0.077,-0.291c-0.019,-0.086 -0.091,-0.151 -0.151,-0.219c-0.051,-0.059 -0.09,-0.135 -0.132,-0.218c-0.067,-0.132 -0.118,-0.265 -0.154,-0.408c-0.015,-0.059 -0.03,-0.13 -0.055,-0.166c-0.024,-0.035 -0.071,-0.067 -0.091,-0.1c-0.062,-0.101 -0.08,-0.195 -0.091,-0.319c-0.012,-0.141 -0.03,-0.304 -0.1,-0.427c-0.097,-0.17 -0.138,-0.386 -0.141,-0.604c-0.002,-0.073 0.018,-0.131 0.023,-0.188c0.004,-0.048 0.005,-0.07 0.013,-0.109c0.01,-0.043 0.049,-0.121 0.044,-0.175c-0.007,-0.081 -0.09,-0.179 -0.101,-0.281c-0.011,-0.103 0.007,-0.229 0.025,-0.318c0.008,-0.037 0.033,-0.079 0.042,-0.118c0.015,-0.076 -0.03,-0.121 -0.043,-0.203c-0.027,-0.164 -0.011,-0.297 0.038,-0.407c0.031,-0.071 0.069,-0.111 0.102,-0.168c0.039,-0.068 0.012,-0.062 -0.004,-0.144c-0.013,-0.066 -0.009,-0.132 0.001,-0.198c0.015,-0.098 0.051,-0.216 0.101,-0.291c0.025,-0.037 0.032,-0.023 0.046,-0.08c0.015,-0.069 0.005,-0.171 0.009,-0.242c0.009,-0.161 0.035,-0.312 0.064,-0.443c0.014,-0.066 0.026,-0.122 0.063,-0.191c0.013,-0.024 0.052,-0.062 0.075,-0.089c0.028,-0.033 0.04,-0.028 0.052,-0.068c0.013,-0.042 0,-0.102 0,-0.147c0.004,-0.246 0.052,-0.52 0.128,-0.715c0.025,-0.065 0.053,-0.093 0.091,-0.146c0.019,-0.026 0.059,-0.066 0.064,-0.1c0.007,-0.046 -0.019,-0.131 -0.023,-0.173c-0.019,-0.22 0.003,-0.515 0.114,-0.701c0.014,-0.023 0.027,-0.022 0.036,-0.054c0.012,-0.044 0.009,-0.107 0.009,-0.169c0,-0.131 0.012,-0.254 0.019,-0.368c0.01,-0.182 0.046,-0.358 0.054,-0.528c0.013,-0.267 0.021,-0.547 0.036,-0.81c0.009,-0.135 0.035,-0.259 0.073,-0.355c0.037,-0.092 0.106,-0.178 0.082,-0.287c-0.1,-0.455 0.046,-0.902 0.198,-1.37c0.081,-0.249 0.154,-0.449 0.239,-0.709c0.031,-0.096 0.083,-0.174 0.094,-0.275c0.021,-0.189 -0.024,-0.37 -0.037,-0.572c-0.007,-0.113 -0.021,-0.249 0.036,-0.367c0.034,-0.072 0.084,-0.126 0.098,-0.197c0.023,-0.114 0.049,-0.168 0.1,-0.264c0.134,-0.252 0.371,-0.532 0.642,-0.628c0.102,-0.036 0.199,-0.073 0.353,-0.088c0.216,-0.02 0.481,0.048 0.634,0.156c0.213,0.15 0.43,0.371 0.528,0.596c0.099,0.227 0.199,0.471 0.201,0.737" style="fill:#1b1b1a;"/></g></g></g></svg>