<?xml version="1.0" encoding="UTF-8" standalone="no"?><!DOCTYPE svg PUBLIC "-//W3C//DTD SVG 1.1//EN" "http://www.w3.org/Graphics/SVG/1.1/DTD/svg11.dtd"><svg width="100%" height="100%" viewBox="0 0 64 64" version="1.1" xmlns="http://www.w3.org/2000/svg" xmlns:xlink="http://www.w3.org/1999/xlink" xml:space="preserve" xmlns:serif="http://www.serif.com/" style="fill-rule:evenodd;clip-rule:evenodd;stroke-miterlimit:10;"><g id="Species"><g id="Reptiles"><g id="tortoise"><path id="Outline" d="M138.626,31.687c0,-16.179 -13.135,-29.313 -29.313,-29.313c-16.178,0 -29.313,13.134 -29.313,29.313c0,16.178 13.135,29.313 29.313,29.313c16.178,0 29.313,-13.135 29.313,-29.313Z" style="fill:none;stroke:#000;stroke-width:3px;"/></g><g id="crocodilian"><path id="Outline1" serif:id="Outline" d="M58.626,31.687c0,-16.179 -13.135,-29.313 -29.313,-29.313c-16.178,0 -29.313,13.134 -29.313,29.313c0,16.178 13.135,29.313 29.313,29.313c16.178,0 29.313,-13.135 29.313,-29.313Z" style="fill:none;stroke:#000;stroke-width:3px;"/><path d="M15.862,12.732c0.173,0.043 0.17,0.307 0.191,0.419c0.015,0.077 0.051,0.159 0.078,0.218c0.057,0.13 0.136,0.249 0.214,0.387c0.186,0.332 0.354,0.59 0.377,0.97c0.017,0.264 0.062,0.531 0.155,0.755c0.061,0.147 0.127,0.343 0.168,0.482c0.103,0.349 0.246,0.625 0.342,0.938c0.014,0.045 0.027,0.097 0.041,0.164c0.006,0.028 0.019,0.11 0.032,0.151c0.011,0.039 0.032,0.048 0.05,0.076c0.05,0.083 0.087,0.153 0.132,0.241c0.079,0.159 0.115,0.263 0.177,0.433c0.049,0.133 0.124,0.255 0.164,0.396c0.048,0.171 0.134,0.342 0.2,0.505c0.029,0.071 0.069,0.155 0.1,0.264c0.073,0.255 0.07,0.525 0.112,0.786c0.01,0.066 0.013,0.115 0.025,0.178c0.008,0.045 0.015,0.106 0.032,0.149c0.009,0.023 0.01,0.04 0.018,0.052c0.001,0.001 0.025,0.01 0.032,0.018c0.019,0.025 0.044,0.076 0.054,0.1c0.024,0.056 0.035,0.186 0.071,0.245c0.028,0.046 0.092,0.023 0.156,0.044c0.028,0.01 0.081,0.064 0.101,0.066c0.025,0.003 0.082,-0.047 0.109,-0.055c0.134,-0.036 0.309,0.009 0.446,0.064c0.139,0.056 0.285,0.134 0.41,0.25c0.177,0.166 0.297,0.359 0.33,0.56c0.015,0.098 0.072,0.133 0.116,0.209c0.043,0.076 0.089,0.179 0.109,0.274c0.013,0.059 0.007,0.128 0.034,0.175c0.018,0.033 0.059,0.061 0.08,0.097c0.072,0.12 0.081,0.237 0.077,0.374c-0.001,0.054 -0.019,0.023 0.004,0.099c0.015,0.05 0.035,0.102 0.037,0.156c0.002,0.051 -0.051,0.24 -0.041,0.254c0.033,0.048 0.148,0.019 0.187,0.005c0.115,-0.043 0.164,-0.026 0.278,-0.024c0.092,0.002 0.143,-0.041 0.218,-0.067c0.097,-0.033 0.185,-0.041 0.318,-0.041c0,-0.04 0.052,-0.112 0.073,-0.137c0.028,-0.034 0.056,-0.067 0.091,-0.1c0.034,-0.031 0.135,-0.07 0.164,-0.118c-0.072,-0.045 -0.091,-0.16 -0.109,-0.237c-0.005,-0.021 0.009,-0.053 0,-0.072c-0.012,-0.024 -0.052,-0.042 -0.069,-0.062c-0.023,-0.027 -0.044,-0.058 -0.054,-0.093c-0.019,-0.062 -0.021,-0.07 -0.066,-0.118c-0.059,-0.064 -0.092,-0.102 -0.13,-0.164c-0.108,-0.177 -0.122,-0.364 -0.136,-0.612c-0.011,-0.181 -0.011,-0.399 -0.037,-0.572c-0.007,-0.049 -0.018,-0.098 -0.027,-0.154c-0.005,-0.029 -0.021,-0.12 -0.049,-0.16c-0.034,-0.048 -0.106,-0.084 -0.147,-0.132c-0.038,-0.044 -0.062,-0.092 -0.086,-0.154c-0.071,-0.176 -0.094,-0.421 -0.095,-0.635c0,-0.079 0.002,-0.158 0.003,-0.237c0.001,-0.075 -0.021,-0.153 0.077,-0.124c0.066,0.019 0.111,0.086 0.16,0.122c0.056,0.04 0.125,0.09 0.182,0.141c0.051,0.045 0.127,0.131 0.201,0.15c0.001,-0.089 0.029,-0.176 0.035,-0.265c0.007,-0.109 0.001,-0.22 0.001,-0.329c0,-0.151 0.004,-0.323 0.018,-0.459c0.008,-0.078 0.067,-0.392 0.211,-0.364c0.062,0.012 0.107,0.115 0.131,0.161c0.062,0.12 0.115,0.24 0.157,0.386c0.026,0.09 0.048,0.15 0.065,0.215c0.012,0.043 0.079,0.373 0.128,0.373c0.004,-0.177 0.073,-0.373 0.11,-0.546c0.038,-0.18 0.086,-0.358 0.136,-0.537c0.026,-0.095 0.045,-0.157 0.1,-0.228c0.028,-0.036 0.089,-0.107 0.143,-0.113c0.075,-0.008 0.087,0.048 0.112,0.104c0.085,0.2 0.034,0.517 0.054,0.756c0.013,0.147 0.021,0.311 0.027,0.437c0.008,0.15 0.073,0.29 0.082,0.455c0.319,-0.116 0.547,-0.272 0.833,-0.423c0.142,-0.075 0.298,-0.168 0.433,-0.214c0.049,-0.017 0.267,-0.111 0.327,-0.064c0.049,0.038 -0.013,0.126 -0.028,0.156c-0.03,0.061 -0.089,0.117 -0.127,0.172c-0.051,0.074 -0.124,0.155 -0.182,0.218c-0.131,0.144 -0.246,0.273 -0.382,0.419c-0.046,0.049 -0.104,0.129 -0.154,0.179c-0.072,0.074 -0.254,0.192 -0.283,0.294c0.326,0.091 0.637,0.085 0.945,0.043c0.082,-0.011 0.241,-0.07 0.293,-0.034c0.138,0.096 -0.086,0.221 -0.145,0.273c-0.22,0.194 -0.484,0.338 -0.76,0.414c-0.056,0.016 -0.088,0.024 -0.132,0.032c-0.052,0.009 -0.092,0.004 -0.099,0.068c-0.003,0.032 0.049,0.131 0.06,0.178c0.008,0.034 0.013,0.078 0.026,0.109c0.028,0.069 0.055,0.068 0.113,0.118c0.061,0.054 0.11,0.149 0.173,0.201c0.058,0.048 0.052,0.028 0.116,0.03c0.046,0.002 0.099,0.035 0.129,0.052c0.179,0.096 0.344,0.28 0.455,0.446c0.024,0.035 0.059,0.085 0.08,0.132c0.02,0.044 0.022,0.087 0.036,0.131c0.023,0.069 0.011,0.041 0.051,0.092c0.071,0.092 0.137,0.142 0.188,0.227c0.085,0.139 0.132,0.323 0.155,0.519c0.009,0.073 0.012,0.104 0.037,0.164c0.03,0.073 0.063,0.156 0.075,0.243c0.018,0.132 0.02,0.417 -0.176,0.394c-0.007,0.161 -0.107,0.302 -0.191,0.409c-0.034,0.044 -0.104,0.087 -0.136,0.119c-0.058,0.056 -0.092,0.136 -0.155,0.2c-0.068,0.069 -0.155,0.128 -0.227,0.177c-0.079,0.055 -0.148,0.093 -0.228,0.128c-0.054,0.023 -0.138,0.034 -0.191,0.059c-0.083,0.039 -0.143,0.112 -0.219,0.136c-0.167,0.056 -0.359,0.072 -0.546,0.073c0,0.035 0.155,0.101 0.191,0.129c0.083,0.064 0.111,0.133 0.169,0.213c0.043,0.059 -0.001,0.03 0.07,0.065c0.036,0.018 0.072,0.028 0.107,0.048c0.034,0.02 0.056,0.039 0.091,0.064c0.017,0.012 0.013,0.004 0.028,0.018c0.053,0.052 0.053,0.051 0.109,0.091c0.034,0.024 0.055,0.047 0.091,0.082c0.044,0.043 0.095,0.11 0.118,0.164c0.02,0.046 0.023,0.09 0.064,0.127c0.017,0.016 0.073,0.033 0.095,0.046c0.035,0.02 0.094,0.064 0.123,0.091c0.016,0.015 0.042,0.039 0.055,0.055c0.014,0.016 0.035,0.09 0.045,0.1c0.051,0.046 0.186,0.047 0.228,0.064c0.066,0.026 0.151,0.117 0.191,0.181c0.033,0.053 0.06,0.081 0.137,0.101c0.133,0.033 0.286,0.083 0.396,0.17c0.056,0.046 0.061,0.104 0.104,0.156c0.027,0.033 0.047,0.024 0.082,0.038c0.047,0.018 0.137,0.081 0.182,0.132c0.062,0.069 0.081,0.13 0.146,0.195c0.036,0.036 0.07,0.061 0.107,0.103c0.077,0.085 0.11,0.088 0.221,0.125c0.045,0.015 0.121,0.059 0.177,0.091c0.03,0.018 0.069,0.035 0.095,0.054c0.043,0.03 0.088,0.099 0.128,0.119c0.067,0.033 0.123,0.031 0.173,0.054c0.051,0.025 0.124,0.07 0.173,0.11c0.039,0.031 0.089,0.145 0.127,0.163c0.044,0.022 0.125,-0.007 0.173,0.005c0.069,0.017 0.129,0.033 0.182,0.082c0.025,0.023 0.055,0.035 0.073,0.068c0.001,0.002 0.011,0.023 0.009,0.018c0.005,0.015 0.01,0.03 0.014,0.045c-0.014,0.052 0.004,0.072 0.054,0.06c0.079,0.036 0.152,0.038 0.242,0.078c0.168,0.073 0.245,0.206 0.308,0.367l0.001,0.051c0.036,0.014 0.073,0.028 0.109,0.042c0.059,0.026 0.041,0.016 0.073,0.035c0.034,0.021 0.058,0.042 0.091,0.069c0.034,0.027 0.088,0.066 0.113,0.114c0.007,0.014 0.014,0.075 0.024,0.086c0.016,0.019 0.119,0.056 0.136,0.064c0.088,0.042 0.138,0.081 0.214,0.145c0.092,0.078 0.099,0.145 0.159,0.225c0.003,0.016 0.006,0.032 0.009,0.048c0.03,0.003 0.059,0.007 0.087,0.014c0.028,0.006 0.051,0.015 0.077,0.023c0.032,0.01 0.075,0.029 0.1,0.041c0.07,0.032 0.163,0.107 0.2,0.177c0.017,0.03 0.018,0.095 0.037,0.128c0.006,0.009 0.058,0.041 0.064,0.045c0.066,0.052 0.148,0.109 0.218,0.182c0.039,0.041 0.092,0.113 0.115,0.174c0.005,0.016 0.01,0.032 0.015,0.048c-0.011,0.045 0.005,0.065 0.048,0.057c0.023,0.015 0.058,0.016 0.083,0.031c0.089,0.054 0.157,0.152 0.193,0.235c0.031,0.07 0.033,0.187 0.072,0.238c0.04,0.052 0.121,0.087 0.167,0.14c0.047,0.055 0.084,0.117 0.111,0.184c0.01,0.028 0.02,0.058 0.026,0.087c0.008,0.031 0.012,0.063 0.015,0.094c-0.015,0.042 -0.002,0.062 0.038,0.058c0.088,0.079 0.173,0.137 0.2,0.247c0.009,0.035 0.01,0.113 0.009,0.146c0,0.017 -0.023,0.026 -0.018,0.045c0.011,0.038 0.047,0.01 0.064,0.027c0.137,0.141 0.177,0.228 0.2,0.413c0.005,0.04 -0.007,0.043 0.023,0.083c0.056,0.075 0.006,0.031 0.058,0.016c0.066,-0.019 0.085,-0.106 0.101,-0.157c0.012,-0.04 0.053,-0.099 0.073,-0.145c0.042,-0.1 0.088,-0.148 0.155,-0.228c0.063,-0.076 0.174,-0.131 0.222,-0.209c0.074,-0.121 0.156,-0.258 0.296,-0.392c0.061,-0.057 0.135,-0.121 0.211,-0.158c0.086,-0.041 0.083,-0.048 0.129,-0.125c0.04,-0.066 0.102,-0.131 0.171,-0.167c0.017,-0.009 0.089,-0.022 0.099,-0.032c0.01,-0.01 0.026,-0.074 0.036,-0.093c0.016,-0.032 0.027,-0.066 0.046,-0.089c0.061,-0.073 0.13,-0.122 0.2,-0.164c0.198,-0.116 0.505,-0.236 0.763,-0.328c0.187,-0.066 0.35,-0.1 0.527,-0.144c0.184,-0.045 0.365,-0.103 0.553,-0.124c0.197,-0.022 0.399,-0.052 0.587,-0.114c0.028,-0.009 0.071,-0.029 0.101,-0.045c0.022,-0.012 0.047,-0.025 0.063,-0.037c0.013,-0.01 0.115,-0.091 0.119,-0.1c0.018,-0.043 0.003,-0.142 0.018,-0.195c0.005,-0.021 0.021,-0.042 0.027,-0.06c0.018,-0.049 0.028,-0.086 0.046,-0.136c0.079,-0.223 0.201,-0.419 0.291,-0.655c0.08,-0.212 0.167,-0.383 0.282,-0.597c0.151,-0.281 0.464,-0.599 0.755,-0.732c0.04,-0.018 0.07,-0.046 0.128,-0.069c0.053,-0.02 0.17,-0.044 0.218,-0.068c0.13,-0.062 0.233,-0.164 0.364,-0.236c0.07,-0.039 0.147,-0.076 0.228,-0.105c0.049,-0.018 0.088,-0.046 0.127,-0.059c0.05,-0.017 0.146,-0.062 0.198,-0.06c0.09,0.003 0.064,0.058 0.045,0.127c-0.017,0.065 -0.04,0.098 -0.079,0.16c-0.02,0.033 -0.035,0.066 -0.073,0.1c-0.003,0.003 -0.054,0.019 -0.054,0.019c-0.009,0.013 -0.015,0.081 -0.018,0.1c0.046,0 0.148,-0.126 0.182,-0.155c0.037,-0.033 0.091,-0.06 0.127,-0.091c0.079,-0.068 0.15,-0.116 0.237,-0.173c0.063,-0.041 0.122,-0.056 0.173,-0.082c0.039,-0.02 0.192,-0.126 0.254,-0.091c0.12,0.067 -0.115,0.271 -0.136,0.319c-0.037,0.084 -0.053,0.181 -0.082,0.255c-0.039,0.098 -0.096,0.203 -0.155,0.291c-0.047,0.071 -0.14,0.145 -0.164,0.245c0.032,0 0.092,-0.058 0.11,-0.072c0.04,-0.032 0.073,-0.045 0.118,-0.073c0.064,-0.04 0.136,-0.089 0.191,-0.114c0.167,-0.076 0.303,-0.127 0.501,-0.15c0.06,-0.007 0.161,-0.022 0.199,0.028c0.045,0.059 0,0.103 -0.027,0.136c-0.078,0.101 -0.184,0.122 -0.259,0.209c-0.042,0.049 -0.056,0.109 -0.082,0.164c-0.038,0.081 -0.096,0.156 -0.15,0.228c-0.095,0.125 -0.23,0.255 -0.355,0.354c-0.025,0.021 -0.135,0.092 -0.145,0.119c-0.008,0.019 0.032,0.128 0.036,0.155c0.007,0.043 0.013,0.09 0.018,0.134c0.019,0.195 -0.021,0.401 -0.082,0.584c-0.016,0.049 -0.071,0.127 -0.071,0.168c0,0.062 0.043,0.126 0.04,0.197c-0.008,0.199 -0.082,0.341 -0.196,0.5c-0.002,0.002 -0.038,0.022 -0.037,0.018c-0.007,0.021 0.001,0.1 0,0.109c-0.005,0.057 -0.011,0.093 -0.027,0.137c-0.029,0.079 -0.092,0.178 -0.146,0.255c-0.049,0.071 -0.1,0.175 -0.182,0.228c-0.01,0.006 -0.055,0.02 -0.06,0.028c-0.022,0.034 -0.002,0.043 0.006,0.09c0.007,0.044 0.001,0.102 -0.007,0.146c-0.017,0.098 -0.07,0.186 -0.143,0.253c-0.032,0.029 -0.072,0.051 -0.088,0.078c-0.026,0.045 -0.022,0.112 -0.053,0.162c-0.056,0.09 -0.135,0.127 -0.225,0.173c-0.078,0.041 -0.044,0.031 -0.044,0.116c0,0.052 -0.011,0.092 -0.04,0.136c-0.068,0.1 -0.192,0.155 -0.31,0.156c0.025,0.116 0.065,0.217 -0.046,0.282c-0.024,0.013 -0.074,0.04 -0.091,0.045c-0.016,0.005 -0.058,0.016 -0.064,0.018c-0.06,0.024 -0.051,0.033 -0.109,0.073c-0.119,0.082 -0.255,0.152 -0.373,0.191c-0.201,0.067 -0.433,0.139 -0.646,0.173c-0.128,0.02 -0.293,0.053 -0.423,0.064c-0.201,0.017 -0.433,-0.006 -0.647,0.008c-0.12,0.008 -0.244,-0.003 -0.305,0.074c-0.084,0.107 -0.033,0.399 -0.03,0.55c0.006,0.345 0.034,0.664 0.049,0.97c0.014,0.308 0.045,0.613 0.036,0.946c-0.009,0.34 -0.039,0.595 -0.096,0.906c-0.028,0.156 -0.083,0.349 -0.104,0.469c-0.015,0.083 -0.107,0.242 -0.073,0.327c0.016,0.042 0.094,0.076 0.123,0.101c0.041,0.035 0.018,0.041 0.074,0.081c0.039,0.028 0.099,0.049 0.131,0.073c0.099,0.077 0.283,0.227 0.236,0.382c0.074,-0.004 0.14,0.01 0.201,0.055c0.098,0.073 0.158,0.187 0.227,0.264c0.016,0.018 0.054,0.053 0.073,0.068c0.049,0.037 0.066,0.028 0.137,0.032c0.069,0.005 0.138,0.027 0.181,0.046c0.09,0.038 0.186,0.09 0.264,0.145c0.044,0.03 0.096,0.088 0.146,0.119c0.043,0.026 0.142,0.043 0.207,0.078c0.094,0.05 0.178,0.089 0.248,0.149c0.099,0.085 0.209,0.188 0.291,0.291c0.018,0.022 0.042,0.042 0.055,0.064c0.02,0.034 0.022,0.111 0.045,0.136c0.022,0.024 0.119,0.056 0.137,0.064c0.202,0.099 0.392,0.255 0.528,0.455c0.021,0.032 0.035,0.05 0.054,0.1c0.014,0.036 0.022,0.113 0.046,0.155c0.024,0.042 0.092,0.06 0.118,0.082c0.045,0.038 0.082,0.074 0.128,0.109c0.109,0.084 0.235,0.178 0.327,0.301c0.032,0.042 0.046,0.06 0.073,0.109c0.029,0.053 0.012,0.107 0.033,0.173c0.037,0.114 0.202,0.171 0.277,0.246c0.086,0.085 0.186,0.171 0.245,0.264c0.04,0.061 0.081,0.151 0.091,0.209c0.018,0.1 0.02,0.094 0.11,0.146c0.039,0.022 0.061,0.047 0.1,0.072c0.206,0.134 0.443,0.451 0.446,0.737c0.08,-0.029 0.265,0.089 0.318,0.128c0.043,0.031 0.078,0.068 0.128,0.109c0.028,0.024 0.08,0.057 0.109,0.091c0.025,0.029 0.048,0.098 0.082,0.128c0,-0.103 0.079,0.055 0.069,0.046c0.001,0.012 0.002,0.024 0.004,0.036c0.029,0.002 0.058,0.007 0.087,0.015c0.094,0.025 0.179,0.077 0.253,0.139c0.073,0.061 0.136,0.135 0.186,0.215c0.019,0.03 0.032,0.078 0.056,0.104c0.018,-0.01 0.037,-0.01 0.055,0c0.003,0.021 0.006,0.042 0.009,0.063c0.1,-0.016 0.221,0.078 0.318,0.137c0.134,0.081 0.306,0.25 0.328,0.401c0.082,0 0.144,-0.016 0.209,0c0.073,0.017 0.11,0.021 0.164,0.045c0.049,0.022 0.121,0.08 0.164,0.118c0.047,0.042 0.078,0.104 0.125,0.129c0.048,0.028 0.167,0.042 0.212,0.053c0.084,0.021 0.135,0.047 0.191,0.091c0.013,0.011 0.035,0.025 0.049,0.034c0.047,0.029 0.009,0.014 0.069,0.021c0.089,0.011 0.171,-0.01 0.263,0.012c0.1,0.023 0.202,0.075 0.274,0.125c0.077,0.052 0.098,0.101 0.156,0.181c0.041,0.055 -0.001,0.018 0.063,0.037c0.037,0.011 0.089,0.005 0.129,0.011c0.068,0.01 0.136,0.026 0.201,0.049c0.092,0.032 0.18,0.066 0.243,0.113c0.082,0.061 0.095,0.087 0.191,0.055c0.053,-0.018 0.097,-0.043 0.159,-0.055c0.126,-0.024 0.24,-0.072 0.419,-0.09c0.056,-0.006 0.112,-0.01 0.169,-0.001c0.007,0.001 0.078,0.032 0.101,0.03c0.074,-0.005 0.18,-0.09 0.235,-0.121c0.119,-0.068 0.201,-0.111 0.324,-0.155c0.139,-0.049 0.271,-0.077 0.395,-0.091c0.082,-0.009 0.141,-0.02 0.21,-0.073c0.303,-0.23 0.588,-0.624 0.919,-0.773c0.042,-0.019 0.09,-0.033 0.136,-0.046c0.068,-0.018 0.14,-0.105 0.192,-0.173c0.08,-0.105 0.147,-0.214 0.227,-0.318c0.066,-0.086 0.167,-0.188 0.255,-0.255c0.02,-0.015 0.052,-0.041 0.064,-0.055c0.046,-0.055 0.052,-0.138 0.072,-0.218c0.025,-0.097 0.069,-0.2 0.119,-0.301c0.039,-0.078 0.077,-0.173 0.148,-0.256c0.041,-0.047 0.112,-0.079 0.142,-0.113c0.035,-0.039 0.039,-0.064 0.053,-0.132c0.039,-0.194 0.057,-0.411 0.156,-0.585c0.02,-0.035 0.04,-0.061 0.065,-0.088c0.023,-0.025 0.072,-0.05 0.082,-0.072c0.025,-0.053 -0.009,-0.199 -0.009,-0.237c-0.001,-0.07 0.005,-0.127 0.009,-0.202c0.007,-0.145 0.038,-0.49 0.237,-0.508c-0.024,-0.095 -0.065,-0.15 -0.082,-0.237c-0.022,-0.109 -0.034,-0.237 -0.018,-0.364c0.008,-0.067 0.031,-0.136 0.054,-0.191c0.008,-0.018 0.046,-0.058 0.055,-0.082c0.016,-0.042 -0.018,-0.105 -0.028,-0.146c-0.025,-0.105 -0.046,-0.228 -0.054,-0.336c-0.011,-0.139 -0.015,-0.363 0.036,-0.483c0.03,-0.069 0.049,-0.063 0.032,-0.153c-0.021,-0.111 -0.046,-0.223 -0.075,-0.332c-0.032,-0.126 -0.049,-0.209 -0.066,-0.316c-0.008,-0.05 -0.041,-0.135 -0.045,-0.2c-0.007,-0.09 0.002,-0.158 -0.009,-0.255c-0.015,-0.119 -0.051,-0.284 -0.084,-0.414c-0.027,-0.107 -0.054,-0.217 -0.075,-0.326c-0.019,-0.101 -0.015,-0.204 -0.033,-0.306c-0.038,-0.214 -0.118,-0.42 -0.154,-0.634c-0.034,-0.196 -0.088,-0.39 -0.136,-0.584c-0.03,-0.123 -0.067,-0.323 -0.128,-0.411c-0.064,-0.092 -0.128,-0.137 -0.173,-0.228c-0.066,-0.13 -0.122,-0.284 -0.146,-0.428c-0.016,-0.099 -0.003,-0.218 -0.03,-0.325c-0.018,-0.072 -0.083,-0.157 -0.115,-0.23c-0.045,-0.099 -0.107,-0.197 -0.128,-0.3c-0.008,-0.041 -0.013,-0.065 -0.018,-0.105c-0.004,-0.032 0.002,-0.046 -0.009,-0.082l0,-0.025c0.007,-0.027 -0.005,-0.041 -0.037,-0.043c-0.025,-0.068 -0.049,-0.164 -0.073,-0.246c-0.056,-0.203 -0.13,-0.441 -0.163,-0.701c-0.018,-0.139 -0.013,-0.217 -0.046,-0.355c-0.014,-0.059 -0.042,-0.125 -0.054,-0.191c-0.025,-0.123 -0.037,-0.298 -0.073,-0.419c-0.018,-0.06 -0.063,-0.152 -0.073,-0.209c-0.032,-0.168 -0.068,-0.331 -0.114,-0.469c-0.044,-0.132 -0.086,-0.303 -0.105,-0.459c-0.002,-0.02 -0.004,-0.039 -0.006,-0.059c0.018,-0.055 0.002,-0.075 -0.048,-0.06c-0.013,-0.029 -0.017,-0.078 -0.025,-0.107c-0.025,-0.095 -0.068,-0.196 -0.089,-0.284c-0.018,-0.076 -0.063,-0.192 -0.041,-0.3c0.003,-0.014 0.017,-0.057 0.028,-0.073c0.038,-0.062 0.067,-0.05 0.057,-0.142c-0.014,-0.122 -0.068,-0.258 -0.085,-0.368c-0.016,-0.104 -0.031,-0.213 -0.032,-0.336c0,-0.085 -0.045,-0.184 -0.05,-0.274c-0.006,-0.125 0.026,-0.19 0.055,-0.282c0.025,-0.079 0.07,-0.345 0.2,-0.291c0.049,0.021 0.036,0.061 0.068,0.086c-0.003,0.035 0.006,0.048 0.029,0.039c0.016,-0.004 0.032,-0.006 0.049,-0.007c0.05,0.054 0.046,0.142 0.045,0.21c0.176,0 0.11,0.344 0.1,0.437c0.093,0 0.119,-0.21 0.202,-0.086c0.056,0.083 0.022,0.239 -0.01,0.322c0.078,0 0.095,-0.144 0.174,-0.155c0.068,-0.009 0.051,0.06 0.058,0.101c0.026,0.168 0.064,0.352 -0.014,0.546c0.064,0 0.109,-0.048 0.165,-0.028c0.021,0.007 0.058,0.063 0.063,0.073c0.061,0.14 -0.014,0.256 -0.046,0.401c0.121,0 0.18,-0.336 0.3,-0.21c0.058,0.061 0.104,0.153 0.118,0.232c0.032,0.168 -0.006,0.339 -0.054,0.487c-0.022,0.068 -0.115,0.154 -0.128,0.237c0.109,-0.02 0.211,-0.027 0.32,-0.026c0.11,0.001 0.137,-0.002 0.145,0.117c0.016,0.219 -0.039,0.355 -0.128,0.555c0.095,0 0.18,-0.16 0.228,-0.209c0.137,-0.139 0.232,0.027 0.266,0.166c0.041,0.167 0.022,0.324 -0.015,0.489c-0.02,0.09 -0.056,0.119 -0.078,0.219c0.094,0 0.162,-0.116 0.244,-0.175c0.152,-0.11 0.232,0.004 0.274,0.124c0.058,0.162 0.015,0.338 -0.018,0.46c-0.021,0.082 -0.089,0.158 -0.1,0.237c0.092,-0.02 0.208,-0.12 0.273,-0.173c0.041,-0.033 0.073,-0.073 0.119,-0.091c0.068,-0.027 0.083,0.024 0.118,0.086c0.05,0.09 0.061,0.242 0.059,0.359c-0.005,0.216 -0.06,0.368 -0.132,0.583c0.078,-0.009 0.193,-0.098 0.255,-0.145c0.049,-0.038 0.112,-0.131 0.182,-0.064c0.012,0.011 0.038,0.093 0.046,0.109c0.01,0.025 0.016,0.056 0.027,0.082c0.034,0.083 0.069,0.188 0.077,0.304c0.015,0.204 -0.05,0.371 -0.104,0.533c0.064,0 0.128,-0.085 0.172,-0.109c0.045,-0.023 0.088,-0.053 0.128,-0.063c0.133,-0.036 0.173,0.062 0.218,0.154c0.122,0.251 0.114,0.593 0.055,0.92c0.059,-0.006 0.15,-0.093 0.203,-0.065c0.036,0.018 0.066,0.128 0.079,0.156c0.023,0.05 0.048,0.109 0.064,0.173c0.07,0.284 0.02,0.575 -0.009,0.873c0.042,-0.018 0.111,-0.063 0.145,-0.073c0.031,-0.008 0.06,0.003 0.1,0c0.083,-0.005 0.163,-0.077 0.228,0.019c0.067,0.1 0.077,0.279 0.072,0.418c-0.004,0.115 -0.026,0.244 -0.058,0.346c-0.012,0.036 -0.023,0.074 -0.037,0.109c-0.016,0.043 -0.03,0.071 -0.05,0.105c-0.029,0.051 -0.101,0.107 -0.118,0.169c0.087,-0.008 0.206,-0.095 0.264,-0.128c0.062,-0.035 0.066,-0.084 0.141,-0.027c0.143,0.109 0.182,0.319 0.177,0.493c-0.004,0.155 -0.061,0.343 -0.1,0.462c-0.041,0.127 -0.108,0.207 -0.154,0.346c0.126,0 0.27,-0.096 0.398,-0.063c0.096,0.025 0.104,0.195 0.113,0.274c0.021,0.168 -0.046,0.391 -0.093,0.517c-0.076,0.206 -0.16,0.374 -0.309,0.583c0.15,0 0.28,-0.296 0.4,-0.091c0.075,0.127 0.072,0.291 0.046,0.446c-0.024,0.139 -0.068,0.25 -0.137,0.387c-0.036,0.071 -0.076,0.137 -0.118,0.191c-0.034,0.044 -0.102,0.1 -0.118,0.159c0.101,-0.008 0.19,-0.09 0.274,-0.098c0.101,-0.009 0.056,0.067 0.049,0.14c-0.02,0.213 -0.023,0.371 -0.114,0.595c-0.028,0.07 -0.062,0.144 -0.1,0.228c-0.026,0.057 -0.065,0.123 -0.1,0.177c-0.021,0.032 -0.173,0.16 -0.173,0.187c0.073,-0.008 0.269,-0.08 0.303,-0.002c0.016,0.037 -0.014,0.099 -0.015,0.141c-0.002,0.047 0.002,0.091 -0.002,0.138c-0.014,0.133 -0.043,0.232 -0.095,0.342c-0.062,0.13 -0.127,0.251 -0.228,0.355c-0.075,0.077 -0.153,0.138 -0.227,0.2c-0.03,0.025 -0.096,0.048 -0.11,0.091c0.056,0.004 0.118,0.058 0.16,0.073c0.041,0.014 0.087,0.025 0.132,0.036c0.026,0.007 0.122,0.012 0.151,0.046c0.044,0.053 -0.003,0.202 -0.006,0.264c-0.013,0.279 -0.11,0.454 -0.373,0.591c-0.053,0.028 -0.133,0.078 -0.2,0.1c-0.034,0.012 -0.251,0.062 -0.264,0.114c-0.017,0.069 0.147,0.137 0.2,0.141c0.036,0.003 0.087,-0.028 0.1,0.055c0.016,0.099 -0.079,0.243 -0.127,0.323c-0.085,0.142 -0.229,0.309 -0.373,0.414c-0.059,0.043 -0.132,0.082 -0.2,0.109c-0.018,0.008 -0.201,0.073 -0.201,0.091c0.052,0.017 0.194,0.071 0.21,0.11c0.034,0.083 -0.116,0.246 -0.164,0.309c-0.102,0.133 -0.258,0.273 -0.382,0.355c-0.037,0.024 -0.365,0.171 -0.365,0.191c0.183,0.045 -0.188,0.435 -0.236,0.473c-0.111,0.088 -0.193,0.146 -0.31,0.219c-0.207,0.129 -0.352,0.2 -0.6,0.2c0,0.103 0.296,0.083 0.264,0.211c-0.024,0.092 -0.198,0.167 -0.273,0.208c-0.153,0.082 -0.256,0.147 -0.45,0.202c-0.109,0.031 -0.236,0.048 -0.351,0.055c-0.116,0.008 -0.202,-0.024 -0.319,-0.03c0,0.158 0.372,0.201 0.173,0.341c-0.102,0.073 -0.237,0.16 -0.346,0.196c-0.116,0.039 -0.211,0.068 -0.336,0.091c-0.066,0.012 -0.14,0.036 -0.219,0.041c-0.131,0.008 -0.279,0.014 -0.428,0.014c0.017,0.09 0.099,0.128 0.022,0.2c-0.042,0.038 -0.116,0.068 -0.158,0.082c-0.132,0.045 -0.285,0.087 -0.446,0.109c-0.102,0.014 -0.218,0.02 -0.346,0.027c-0.049,0.003 -0.096,0.014 -0.145,0.014c-0.041,0 -0.115,-0.03 -0.146,-0.014c-0.006,0.003 -0.038,0.079 -0.053,0.096c-0.039,0.044 -0.098,0.072 -0.151,0.096c-0.126,0.058 -0.263,0.073 -0.401,0.083c-0.257,0.018 -0.539,-0.025 -0.77,-0.047c-0.075,-0.007 -0.152,-0.017 -0.236,-0.027c-0.031,-0.004 -0.119,-0.029 -0.164,-0.025c-0.07,0.006 -0.099,0.053 -0.155,0.088c-0.169,0.108 -0.439,0.084 -0.648,0.071c-0.182,-0.011 -0.368,-0.03 -0.535,-0.071c-0.057,-0.014 -0.102,-0.025 -0.155,-0.045c-0.011,-0.004 -0.03,-0.027 -0.046,-0.028c-0.05,-0.002 -0.097,0.026 -0.145,0.037c-0.108,0.024 -0.227,0.007 -0.346,-0.009c-0.196,-0.027 -0.385,-0.073 -0.578,-0.125c-0.103,-0.027 -0.208,-0.048 -0.313,-0.06c-0.068,-0.008 -0.237,0.018 -0.246,-0.061c-0.362,0.104 -0.792,0.053 -1.111,-0.123c-0.075,-0.041 -0.148,-0.084 -0.219,-0.141c-0.028,-0.023 -0.057,-0.088 -0.09,-0.1c-0.026,-0.009 -0.097,0.012 -0.126,0.016c-0.074,0.011 -0.154,0.021 -0.229,0.016c-0.167,-0.012 -0.329,-0.054 -0.469,-0.082c-0.1,-0.02 -0.184,-0.042 -0.26,-0.073c-0.024,-0.01 -0.05,-0.022 -0.072,-0.032c-0.036,-0.016 -0.065,-0.052 -0.104,-0.072c-0.034,-0.018 -0.028,-0.02 -0.078,-0.021c-0.04,-0.001 -0.067,0.011 -0.114,0.011c-0.086,0 -0.167,-0.005 -0.25,-0.018c-0.332,-0.05 -0.722,-0.232 -0.888,-0.51c-0.029,-0.049 -0.02,-0.057 -0.091,-0.063c-0.043,-0.004 -0.057,0.009 -0.095,0.009c-0.097,-0.001 -0.235,-0.029 -0.343,-0.057c-0.098,-0.025 -0.159,-0.059 -0.249,-0.098c-0.14,-0.06 -0.348,-0.203 -0.455,-0.35c-0.026,-0.036 -0.052,-0.081 -0.089,-0.117c-0.053,-0.049 0.063,-0.003 -0.069,-0.034c-0.025,-0.006 -0.054,-0.003 -0.08,-0.006c-0.064,-0.008 -0.126,-0.023 -0.187,-0.044c-0.116,-0.039 -0.204,-0.084 -0.285,-0.122c-0.074,-0.036 -0.188,-0.087 -0.264,-0.146c-0.038,-0.03 -0.102,-0.068 -0.137,-0.105c-0.024,-0.025 -0.059,-0.057 -0.081,-0.092c-0.051,-0.079 -0.018,-0.078 -0.116,-0.077c-0.17,0.001 -0.306,-0.089 -0.431,-0.163c-0.139,-0.083 -0.301,-0.238 -0.373,-0.418c-0.056,0.028 -0.244,-0.09 -0.291,-0.119c-0.073,-0.046 -0.14,-0.094 -0.209,-0.145c-0.092,-0.069 -0.2,-0.188 -0.264,-0.273c-0.019,-0.025 -0.044,-0.067 -0.055,-0.092c-0.038,-0.085 -0.024,-0.131 -0.129,-0.162c-0.191,-0.054 -0.313,-0.236 -0.399,-0.375c-0.076,-0.124 -0.124,-0.193 -0.173,-0.309c-0.006,-0.016 -0.007,-0.024 -0.009,-0.027c-0.028,-0.07 -0.016,-0.047 -0.075,-0.079c-0.065,-0.036 -0.146,-0.082 -0.207,-0.112c-0.064,-0.032 -0.133,-0.074 -0.196,-0.137c-0.027,-0.027 -0.062,-0.06 -0.086,-0.091c-0.021,-0.029 -0.028,-0.099 -0.046,-0.118c-0.044,-0.048 -0.12,-0.056 -0.161,-0.127c-0.029,-0.052 -0.023,-0.052 -0.065,-0.085c-0.033,-0.025 -0.068,-0.039 -0.099,-0.069c-0.068,-0.068 -0.093,-0.175 -0.151,-0.227c-0.049,-0.043 -0.103,-0.069 -0.151,-0.118c-0.057,-0.058 0.004,-0.025 -0.078,-0.058c-0.035,-0.015 -0.069,-0.017 -0.105,-0.035c-0.089,-0.047 -0.129,-0.141 -0.209,-0.182c-0.086,-0.045 -0.152,-0.066 -0.218,-0.146c-0.019,-0.023 -0.02,-0.039 -0.037,-0.063c-0.009,-0.014 -0.009,-0.021 -0.018,-0.028c-0.051,-0.041 -0.077,-0.019 -0.15,-0.009c-0.092,0.013 -0.14,0.055 -0.228,0.064c-0.042,0.004 -0.093,-0.007 -0.133,-0.001c-0.038,-0.022 -0.063,-0.014 -0.076,0.024c-0.019,0.019 -0.04,0.034 -0.065,0.044c-0.043,0.018 -0.104,0.016 -0.131,0.015c-0.032,-0.002 -0.084,-0.015 -0.113,-0.014c-0.034,-0.026 -0.054,-0.019 -0.06,0.022c-0.017,0.008 -0.034,0.017 -0.05,0.027c-0.051,0.026 -0.131,0.03 -0.186,0.019c-0.028,-0.005 -0.061,-0.043 -0.091,-0.036c-0.036,0.007 -0.09,0.067 -0.139,0.079c-0.075,0.018 -0.146,0.014 -0.216,-0.025c0,0.098 -0.156,0.067 -0.224,0.068c-0.116,0 -0.222,0.064 -0.359,-0.022c0,0.058 -0.183,0.042 -0.223,0.041c-0.074,-0.002 -0.128,0.003 -0.186,0.023c-0.01,0.003 -0.045,0.025 -0.055,0.027c-0.05,0.011 -0.111,0.004 -0.16,-0.009c-0.022,-0.006 -0.091,-0.041 -0.104,-0.041c-0.062,0.002 -0.136,0.062 -0.227,0.05c-0.042,-0.006 -0.113,-0.063 -0.155,-0.064c-0.041,0 -0.091,0.037 -0.141,0.04c-0.045,0.002 -0.078,-0.006 -0.112,-0.015c-0.064,-0.016 -0.101,-0.035 -0.155,-0.022c-0.051,0.012 -0.094,0.046 -0.151,0.039c-0.08,-0.009 -0.098,-0.073 -0.178,-0.096c-0.024,0.091 -0.181,0.046 -0.241,0.034c-0.03,-0.006 -0.055,-0.014 -0.078,-0.016c0.002,0 -0.013,-0.009 -0.026,-0.007c-0.067,0.012 -0.052,0.006 -0.076,0.054c-0.025,0.049 -0.026,0.106 -0.056,0.156c-0.029,0.048 -0.094,0.072 -0.119,0.11c-0.032,0.05 -0.02,0.171 -0.051,0.233c-0.026,0.053 -0.136,0.138 -0.149,0.201c-0.011,0.053 0.006,0.109 -0.01,0.167c-0.019,0.066 -0.054,0.122 -0.087,0.182c-0.029,0.054 -0.035,0.061 -0.072,0.105c-0.012,0.015 -0.066,0.062 -0.073,0.082c-0.013,0.036 0.015,0.103 0.013,0.141c-0.001,0.038 -0.014,0.066 -0.022,0.096c-0.025,0.093 -0.071,0.183 -0.137,0.264c-0.058,0.072 -0.124,0.153 -0.2,0.218c-0.032,0.028 -0.046,0.048 -0.082,0.064c-0.002,0.001 -0.028,0.002 -0.036,0.006c-0.035,0.016 -0.044,0.018 -0.082,0.053c-0.084,0.079 -0.191,0.154 -0.273,0.187c-0.066,0.026 -0.105,0.044 -0.164,0.054c-0.085,0.015 -0.209,-0.022 -0.261,0.023c-0.022,0.018 -0.036,0.082 -0.056,0.107c-0.025,0.031 -0.051,0.048 -0.083,0.066c-0.026,0.014 -0.039,0.019 -0.064,0.027c-0.039,0.013 -0.095,0.02 -0.146,0.018c-0.05,-0.001 -0.147,-0.038 -0.19,-0.029c-0.043,0.009 -0.087,0.057 -0.143,0.065c-0.062,0.009 -0.127,0.003 -0.188,-0.009c-0.064,-0.014 -0.198,-0.025 -0.207,-0.095c-0.124,0.045 -0.209,0.061 -0.309,0.037c-0.029,-0.007 -0.046,-0.014 -0.073,-0.019c-0.075,-0.012 0.013,-0.021 -0.08,-0.001c-0.093,0.021 -0.136,0.063 -0.254,0.046c-0.081,-0.011 -0.119,-0.029 -0.212,-0.008c-0.098,0.021 -0.207,0.049 -0.31,0.027c-0.108,-0.023 -0.254,-0.029 -0.368,-0.045c-0.119,-0.018 -0.214,-0.054 -0.305,-0.1c-0.025,-0.013 -0.048,-0.054 -0.078,-0.064c-0.058,-0.019 0.002,-0.013 -0.059,0.009c-0.021,0.008 -0.042,0.021 -0.063,0.032c-0.138,0.064 -0.29,0.109 -0.446,0.132c-0.233,0.034 -0.57,0.058 -0.838,0.073c-0.305,0.016 -0.596,0.01 -0.874,-0.028c-0.06,-0.008 -0.4,-0.046 -0.336,-0.173c0.015,-0.029 0.149,-0.072 0.173,-0.082c0.135,-0.058 0.269,-0.125 0.418,-0.191c0.061,-0.027 0.103,-0.053 0.146,-0.073c0.063,-0.028 0.22,-0.079 0.237,-0.136c-0.253,0.003 -0.508,0.023 -0.756,-0.018c-0.206,-0.034 -0.413,-0.098 -0.626,-0.166c-0.147,-0.048 -0.25,-0.077 -0.402,-0.107c-0.074,-0.015 -0.243,-0.078 -0.073,-0.151c0.146,-0.062 0.33,-0.118 0.501,-0.141c0.383,-0.051 0.658,-0.108 1.037,-0.09c0,-0.056 -0.263,-0.142 -0.3,-0.155c-0.079,-0.027 -0.148,-0.047 -0.23,-0.071c-0.23,-0.066 -0.389,-0.18 -0.617,-0.293c-0.22,-0.111 -0.391,-0.228 -0.634,-0.298c-0.09,-0.026 -0.203,-0.007 -0.24,-0.085c-0.031,-0.066 0.008,-0.073 0.064,-0.095c0.086,-0.033 0.2,-0.067 0.319,-0.087c0.203,-0.035 0.459,-0.028 0.699,-0.04c0.214,-0.011 0.447,-0.022 0.675,-0.024c-0.008,-0.062 -0.007,-0.051 -0.05,-0.084c-0.042,-0.032 -0.094,-0.049 -0.135,-0.086c-0.041,-0.036 -0.087,-0.092 -0.106,-0.13c-0.014,-0.028 -0.012,-0.061 -0.05,-0.072c-0.02,-0.007 -0.042,0.024 -0.074,0.019c-0.002,-0.001 -0.078,-0.048 -0.089,-0.053c-0.048,-0.02 -0.094,-0.05 -0.131,-0.086c-0.027,-0.027 -0.044,-0.079 -0.069,-0.1c-0.039,-0.033 -0.111,-0.004 -0.17,-0.008c-0.036,-0.003 -0.093,-0.019 -0.132,-0.028c-0.077,-0.016 -0.165,-0.029 -0.225,-0.09c-0.058,-0.059 -0.097,-0.122 -0.007,-0.178c0.04,-0.024 0.099,-0.04 0.128,-0.05c0.082,-0.027 0.166,-0.042 0.255,-0.059c0.235,-0.045 0.559,-0.033 0.8,-0.005c0.15,0.018 0.261,0.032 0.425,0.07c0.096,0.023 0.207,0.044 0.29,0.071c0.066,0.021 0.155,0.059 0.241,0.069c-0.014,-0.064 -0.071,-0.122 -0.091,-0.164c-0.018,-0.04 -0.035,-0.09 -0.064,-0.137c-0.066,-0.108 -0.178,-0.207 -0.285,-0.302c-0.042,-0.037 -0.23,-0.189 -0.215,-0.244c0.01,-0.036 0.136,-0.06 0.164,-0.068c0.136,-0.04 0.298,-0.045 0.475,-0.032c0.407,0.031 0.725,0.209 1.072,0.355c0.316,0.133 0.599,0.29 0.874,0.419c0.097,0.045 0.152,0.072 0.255,0.127c0.041,0.023 0.084,0.052 0.123,0.073c0.019,0.011 0.062,0.032 0.081,0.036c0.087,0.019 0.094,-0.005 0.137,-0.086c0.126,-0.24 0.254,-0.393 0.405,-0.605c0.051,-0.072 0.128,-0.126 0.191,-0.173c0.052,-0.039 0.125,-0.056 0.174,-0.094c0.024,-0.019 0.038,-0.066 0.054,-0.088c0.046,-0.065 0.102,-0.13 0.155,-0.189c0.082,-0.09 0.171,-0.161 0.254,-0.23c0.102,-0.086 0.243,-0.126 0.351,-0.209c0.059,-0.046 0.112,-0.15 0.184,-0.214c0.024,-0.022 0.12,-0.074 0.12,-0.105c-0.186,0 -0.273,-0.115 -0.408,-0.266c-0.012,-0.014 -0.015,-0.059 -0.028,-0.071c-0.023,-0.02 -0.097,-0.036 -0.128,-0.054c-0.022,-0.013 -0.054,-0.021 -0.073,-0.037c-0.044,-0.037 -0.074,-0.083 -0.127,-0.118c-0.041,-0.027 0.032,-0.002 -0.046,-0.027c-0.006,-0.003 -0.086,0.001 -0.113,-0.006c-0.054,-0.015 -0.101,-0.041 -0.147,-0.074c-0.051,-0.035 -0.091,-0.102 -0.139,-0.132c-0.037,-0.023 -0.048,-0.015 -0.105,-0.019c-0.03,-0.002 -0.062,-0.007 -0.09,-0.016c-0.08,-0.025 -0.157,-0.079 -0.198,-0.153c-0.027,-0.05 -0.009,-0.056 -0.056,-0.071c-0.016,-0.005 -0.097,-0.004 -0.089,-0.003c-0.049,-0.005 -0.07,-0.005 -0.109,-0.018c-0.067,-0.022 -0.145,-0.078 -0.199,-0.134c-0.033,-0.034 -0.076,-0.077 -0.108,-0.124c-0.018,-0.027 -0.028,-0.066 -0.048,-0.091c-0.031,-0.038 -0.034,-0.024 -0.08,-0.048c-0.098,-0.053 -0.167,-0.095 -0.239,-0.167c-0.034,-0.035 -0.075,-0.073 -0.1,-0.109c-0.025,-0.037 -0.038,-0.166 -0.073,-0.191c-0.018,-0.014 -0.081,-0.017 -0.11,-0.027c-0.08,-0.028 -0.14,-0.081 -0.193,-0.147c-0.052,-0.066 -0.063,-0.142 -0.102,-0.21c-0.04,-0.067 0.046,0 -0.056,-0.048c-0.033,-0.015 -0.075,-0.016 -0.11,-0.032c-0.097,-0.046 -0.187,-0.156 -0.239,-0.228c-0.052,-0.074 -0.105,-0.189 -0.127,-0.264c-0.007,-0.024 -0.004,-0.064 -0.018,-0.082c-0.037,-0.044 -0.113,-0.073 -0.155,-0.118c-0.033,-0.036 -0.08,-0.112 -0.1,-0.155c-0.007,-0.014 -0.015,-0.029 -0.022,-0.043c0.002,-0.046 -0.019,-0.063 -0.063,-0.053c-0.024,-0.012 -0.058,-0.015 -0.083,-0.027c-0.049,-0.022 -0.081,-0.058 -0.114,-0.086c-0.086,-0.075 -0.123,-0.144 -0.173,-0.228c-0.023,-0.038 -0.038,-0.087 -0.065,-0.132c-0.047,-0.078 0.005,-0.008 -0.043,-0.046c-0.025,-0.019 -0.067,-0.027 -0.095,-0.047c-0.115,-0.086 -0.156,-0.22 -0.198,-0.346l0,-0.025c0.016,-0.044 0.002,-0.064 -0.042,-0.061c-0.019,-0.02 -0.051,-0.038 -0.072,-0.058c-0.036,-0.031 -0.063,-0.065 -0.086,-0.1c-0.04,-0.058 -0.097,-0.131 -0.127,-0.195c-0.03,-0.063 -0.039,-0.124 -0.088,-0.162c-0.055,-0.042 -0.115,-0.059 -0.162,-0.116c-0.056,-0.067 -0.086,-0.129 -0.114,-0.195c-0.028,-0.066 -0.079,-0.083 -0.137,-0.132c-0.062,-0.053 -0.123,-0.125 -0.164,-0.187c-0.051,-0.077 -0.1,-0.173 -0.127,-0.237c-0.023,-0.053 -0.056,-0.117 -0.082,-0.173c-0.012,-0.025 0.013,-0.007 -0.017,-0.046c-0.005,-0.009 -0.011,-0.019 -0.017,-0.029c-0.001,-0.039 -0.02,-0.048 -0.057,-0.025c-0.03,-0.013 -0.091,-0.043 -0.119,-0.063c-0.097,-0.072 -0.149,-0.186 -0.2,-0.283c-0.023,-0.043 -0.042,-0.117 -0.073,-0.173c-0.02,-0.036 -0.066,-0.057 -0.091,-0.091c-0.096,-0.132 -0.191,-0.259 -0.273,-0.386c-0.034,-0.055 -0.067,-0.14 -0.1,-0.178c-0.063,-0.075 -0.155,-0.122 -0.236,-0.173c-0.212,-0.132 -0.399,-0.35 -0.528,-0.582c-0.034,0.033 -0.007,0.059 -0.073,0.073c0,0.063 0.042,0.133 0.046,0.206c0.003,0.092 -0.021,0.172 -0.037,0.239c-0.013,0.055 -0.025,0.1 -0.045,0.155c-0.01,0.026 -0.035,0.043 -0.037,0.073c0.001,-0.008 0.035,0.034 0.035,0.047c0.002,0.031 -0.002,0.096 -0.003,0.108c-0.008,0.139 -0.048,0.237 -0.114,0.346c-0.024,0.039 -0.08,0.081 -0.1,0.127c-0.026,0.061 -0.023,0.116 -0.036,0.178c-0.021,0.097 -0.055,0.163 -0.109,0.25c-0.095,0.15 -0.269,0.336 -0.419,0.455c-0.009,0.007 -0.044,0.032 -0.055,0.036c-0.09,0.039 -0.015,-0.006 -0.054,0.019c-0.019,0.002 -0.037,0.006 -0.055,0.009c0.009,0.019 0.007,0.029 -0.005,0.027c-0.037,0.023 -0.075,0.046 -0.113,0.064c-0.035,0.016 -0.077,0.047 -0.133,0.068c-0.134,0.048 -0.29,0.067 -0.432,0.063c-0.242,-0.007 -0.474,-0.093 -0.646,-0.222c-0.07,-0.053 -0.19,-0.132 -0.266,-0.144c-0.084,-0.013 -0.177,-0.007 -0.244,-0.02c-0.063,-0.013 -0.108,-0.034 -0.154,-0.05c-0.083,-0.03 -0.191,-0.087 -0.264,-0.141c-0.093,-0.069 -0.203,-0.179 -0.292,-0.232c-0.073,-0.045 -0.191,-0.038 -0.264,-0.078c-0.129,-0.071 -0.292,-0.228 -0.364,-0.355c-0.012,-0.022 -0.015,-0.055 -0.038,-0.079c-0.042,-0.041 -0.025,-0.036 -0.094,-0.032c-0.078,0.005 -0.062,-0.009 -0.104,0.052c-0.041,0.061 -0.025,0.09 -0.046,0.141c0.016,-0.039 -0.047,0.048 -0.041,0.037c-0.005,0.009 -0.008,0.026 -0.013,0.036c-0.01,0.018 -0.031,0.057 -0.037,0.073c-0.015,0.043 -0.041,0.102 -0.054,0.145c-0.035,0.113 -0.088,0.237 -0.109,0.364c-0.008,0.045 0.016,0.098 -0.037,0.128c-0.06,0.034 -0.122,-0.028 -0.155,-0.064c-0.042,-0.046 -0.088,-0.119 -0.109,-0.164c-0.036,-0.078 -0.052,-0.128 -0.084,-0.223c-0.071,-0.205 -0.12,-0.411 -0.162,-0.623c-0.064,0 -0.143,0.1 -0.182,0.136c-0.06,0.057 -0.121,0.112 -0.163,0.173c-0.067,0.097 -0.134,0.187 -0.201,0.283c-0.091,0.13 -0.208,0.233 -0.3,0.354c-0.075,0.099 -0.193,0.269 -0.302,0.318c-0.126,0.058 -0.079,-0.147 -0.07,-0.227c0.015,-0.129 0.051,-0.255 0.098,-0.375c0.049,-0.126 0.091,-0.207 0.128,-0.307c0.029,-0.078 0.057,-0.157 0.091,-0.237c0.059,-0.137 0.136,-0.348 0.173,-0.537c-0.205,-0.001 -0.406,-0.001 -0.589,0.019c-0.112,0.011 -0.228,0.042 -0.339,0.054c-0.24,0.027 -0.502,0.108 -0.774,0.046c-0.102,-0.024 -0.189,-0.046 -0.118,-0.182c0.04,-0.078 0.131,-0.124 0.2,-0.164c0.121,-0.07 0.317,-0.158 0.437,-0.21c0.085,-0.036 0.18,-0.089 0.264,-0.123c0.125,-0.049 0.323,-0.157 0.482,-0.241c-0.059,-0.059 -0.173,-0.114 -0.264,-0.159c-0.13,-0.065 -0.255,-0.151 -0.373,-0.232c-0.087,-0.061 -0.177,-0.104 -0.264,-0.164c-0.042,-0.03 -0.125,-0.077 -0.166,-0.125c-0.061,-0.072 -0.006,-0.072 0.03,-0.084c0.065,-0.13 0.386,-0.073 0.5,-0.064c0.28,0.023 0.565,0.096 0.856,0.046c0,-0.033 -0.053,-0.082 -0.073,-0.119c-0.02,-0.037 -0.026,-0.071 -0.045,-0.109c-0.052,-0.101 -0.102,-0.203 -0.137,-0.3c-0.025,-0.07 -0.035,-0.122 -0.055,-0.192c-0.018,-0.065 -0.057,-0.225 0.001,-0.31c0.065,-0.097 0.155,0.005 0.218,0.046c0.068,0.045 0.125,0.1 0.191,0.155c0.241,0.205 0.656,0.4 0.947,0.537c0.044,0.021 0.132,0.042 0.172,0.055c0.111,0.034 0.163,0.054 0.283,0.054c0.199,0 0.377,0.016 0.519,0.073c0.025,0.011 0.075,0.056 0.1,0.073l0.009,0c-0.012,0.041 0.005,0.055 0.053,0.042c0.034,0.019 0.077,0.019 0.11,0.031c0.047,0.017 0.106,0.045 0.164,0.082c0.024,0.014 0.057,0.05 0.082,0.069c0.059,0.043 0.042,0.055 0.124,0.061c0.085,0.006 0.165,0.028 0.245,0.052c0.025,0.007 0.049,0.025 0.073,0.027c0.051,0.005 0.127,-0.018 0.195,-0.018c0,-0.231 -0.037,-0.603 0.264,-0.646c0,-0.037 -0.024,-0.069 -0.021,-0.115c0.005,-0.087 0.008,-0.055 -0.045,-0.116c-0.067,-0.078 -0.146,-0.156 -0.166,-0.262c-0.007,-0.035 0.01,-0.076 0.001,-0.111c-0.01,-0.038 -0.042,-0.053 -0.06,-0.079c-0.032,-0.048 -0.065,-0.138 -0.073,-0.182c-0.028,-0.15 -0.002,-0.287 0.055,-0.41c0.012,-0.025 0.081,-0.078 0.082,-0.118c0,-0.02 -0.051,-0.096 -0.055,-0.109c-0.015,-0.056 -0.023,-0.133 -0.018,-0.192c0.012,-0.141 0.097,-0.181 0.166,-0.28c0.012,-0.003 0.023,-0.007 0.034,-0.01c-0.005,-0.026 -0.014,-0.051 -0.027,-0.073c-0.004,-0.015 -0.017,-0.049 -0.018,-0.055c-0.037,-0.154 0.015,-0.342 0.118,-0.455c0.028,-0.03 0.051,-0.064 0.055,-0.102c0.006,-0.052 -0.02,-0.106 -0.008,-0.16c0.01,-0.046 0.03,-0.098 0.062,-0.129c0.083,-0.081 0.219,-0.082 0.346,-0.073c-0.013,-0.132 0.011,-0.274 0.055,-0.355c0.025,-0.048 0.084,-0.094 0.127,-0.146c0.004,-0.004 0.053,-0.02 0.055,-0.027c0.019,-0.076 -0.054,-0.124 -0.109,-0.091c0,-0.096 -0.112,-0.223 -0.164,-0.291c-0.088,-0.116 -0.178,-0.261 -0.155,-0.428c0.008,-0.054 0.053,-0.066 0.066,-0.114c0.014,-0.051 -0.017,-0.048 -0.067,-0.084c-0.065,-0.046 -0.133,-0.111 -0.181,-0.175c-0.069,-0.093 -0.13,-0.2 -0.168,-0.301c-0.036,-0.091 -0.053,-0.178 -0.078,-0.291c-0.019,-0.085 -0.091,-0.15 -0.15,-0.218c-0.052,-0.06 -0.091,-0.135 -0.133,-0.219c-0.066,-0.131 -0.118,-0.264 -0.154,-0.407c-0.015,-0.059 -0.029,-0.13 -0.054,-0.166c-0.024,-0.035 -0.071,-0.068 -0.091,-0.1c-0.062,-0.101 -0.081,-0.195 -0.091,-0.319c-0.013,-0.141 -0.03,-0.304 -0.1,-0.428c-0.097,-0.169 -0.139,-0.385 -0.142,-0.603c-0.001,-0.074 0.018,-0.131 0.023,-0.188c0.004,-0.049 0.006,-0.07 0.014,-0.11c0.009,-0.042 0.049,-0.12 0.044,-0.174c-0.007,-0.081 -0.09,-0.179 -0.101,-0.281c-0.012,-0.103 0.006,-0.23 0.025,-0.318c0.008,-0.037 0.033,-0.08 0.041,-0.118c0.015,-0.076 -0.029,-0.121 -0.043,-0.203c-0.026,-0.165 -0.01,-0.297 0.038,-0.407c0.032,-0.071 0.07,-0.111 0.103,-0.169c0.039,-0.067 0.011,-0.061 -0.005,-0.143c-0.012,-0.066 -0.009,-0.132 0.001,-0.198c0.016,-0.098 0.052,-0.216 0.102,-0.291c0.025,-0.038 0.032,-0.023 0.045,-0.08c0.016,-0.069 0.005,-0.172 0.009,-0.243c0.009,-0.16 0.035,-0.311 0.064,-0.442c0.015,-0.067 0.027,-0.122 0.064,-0.191c0.013,-0.024 0.051,-0.062 0.075,-0.089c0.028,-0.033 0.04,-0.028 0.052,-0.068c0.012,-0.042 -0.001,-0.102 0,-0.147c0.004,-0.246 0.051,-0.521 0.128,-0.715c0.025,-0.065 0.053,-0.093 0.091,-0.146c0.019,-0.026 0.058,-0.066 0.063,-0.1c0.007,-0.046 -0.019,-0.131 -0.022,-0.173c-0.02,-0.22 0.002,-0.516 0.113,-0.701c0.015,-0.023 0.028,-0.023 0.037,-0.054c0.012,-0.044 0.009,-0.107 0.009,-0.17c0,-0.13 0.011,-0.253 0.018,-0.367c0.011,-0.182 0.047,-0.359 0.055,-0.528c0.012,-0.267 0.02,-0.548 0.036,-0.81c0.008,-0.136 0.034,-0.259 0.073,-0.355c0.037,-0.093 0.106,-0.178 0.082,-0.287c-0.101,-0.456 0.045,-0.902 0.197,-1.37c0.081,-0.249 0.155,-0.449 0.24,-0.71c0.031,-0.095 0.083,-0.173 0.094,-0.275c0.02,-0.188 -0.024,-0.369 -0.038,-0.571c-0.007,-0.113 -0.02,-0.25 0.036,-0.367c0.035,-0.073 0.084,-0.126 0.099,-0.197c0.023,-0.114 0.049,-0.168 0.1,-0.264c0.134,-0.253 0.371,-0.532 0.641,-0.628c0.102,-0.037 0.2,-0.073 0.354,-0.088c0.216,-0.021 0.481,0.048 0.634,0.156c0.212,0.15 0.43,0.371 0.528,0.596c0.099,0.227 0.199,0.47 0.2,0.737" style="fill:#1b1b1a;"/></g></g></g></svg>