<?xml version="1.0" encoding="UTF-8" standalone="no"?><!DOCTYPE svg PUBLIC "-//W3C//DTD SVG 1.1//EN" "http://www.w3.org/Graphics/SVG/1.1/DTD/svg11.dtd"><svg width="100%" height="100%" viewBox="0 0 64 64" version="1.1" xmlns="http://www.w3.org/2000/svg" xmlns:xlink="http://www.w3.org/1999/xlink" xml:space="preserve" xmlns:serif="http://www.serif.com/" style="fill-rule:evenodd;clip-rule:evenodd;stroke-miterlimit:10;"><g id="Habitats"><g id="Freshwater"><g id="cypress"><path d="M37.226,53.889c3.548,0.343 6.561,0.853 6.421,1.599c-0.137,0.735 -1.912,1.27 -2.466,1.496c-1.566,0.642 -3.185,1.158 -4.804,1.651c-2.246,0.686 -4.512,1.316 -6.791,1.886c-0.324,0.081 -0.785,-0.086 -1.103,-0.143c-0.24,-0.044 -0.87,-0.306 -1.084,-0.253c0.193,-0.048 0.386,-0.098 0.578,-0.147c2.942,-0.758 5.878,-1.574 8.754,-2.554c1.328,-0.452 2.734,-0.904 3.942,-1.632c0.629,-0.379 1.097,-0.746 0.392,-1.23c-0.033,-0.023 -0.087,-0.044 -0.139,-0.062c-0.117,-0.016 -0.324,-0.046 -0.375,-0.052c-0.752,-0.095 -1.509,-0.161 -2.265,-0.223c-0.288,-0.024 -0.577,-0.046 -0.867,-0.067c-0.059,-0.093 -0.124,-0.182 -0.193,-0.269Zm-12.296,0.527c-0.936,0.085 -1.88,0.213 -2.794,0.431c-0.912,0.218 -2.139,0.651 -0.807,1.389c2.15,1.193 5.138,1.307 7.547,1.425c0.531,0.026 1.065,0.025 1.596,0.012c0.108,-0.002 0.837,-0.025 0.419,-0.046c-0.945,-0.046 -1.89,-0.144 -2.828,-0.269c-1.49,-0.198 -3.257,-0.392 -4.559,-1.212c-1.116,-0.702 0.127,-1.092 0.875,-1.277c0.914,-0.226 1.863,-0.35 2.801,-0.435c-0.543,0.05 -1.548,-0.082 -2.25,-0.018Zm5.352,-17.414c-0.602,0.771 -1.288,1.476 -2.044,2.1c-0.321,0.264 -0.674,0.503 -1.081,0.478c-0.148,-0.01 -0.286,-0.056 -0.419,-0.099c-0.139,-0.046 -0.27,-0.09 -0.403,-0.09l-0.001,0c-0.231,0.001 -0.451,0.135 -0.665,0.264c-0.706,0.429 -1.537,0.859 -2.431,0.859c-0.031,0 -0.062,-0.001 -0.093,-0.002c-0.843,-0.029 -1.797,-0.6 -1.954,-1.485c-0.69,0.152 -1.374,-0.001 -1.809,-0.412c-0.274,-0.259 -0.434,-0.648 -0.427,-1.041c0.004,-0.238 0.068,-0.455 0.185,-0.634c-0.493,-0.011 -0.985,-0.22 -1.383,-0.594c-0.417,-0.392 -0.657,-0.898 -0.676,-1.411c-0.646,0.243 -1.428,0.128 -2.085,-0.316c-0.66,-0.447 -1.054,-1.136 -1.055,-1.826c-0.529,0.072 -0.983,-0.028 -1.35,-0.3c-0.607,-0.449 -0.789,-1.226 -0.834,-1.489c-0.379,-0.049 -1.825,-0.322 -2.042,-1.664c-0.085,-0.522 0.101,-1.143 0.462,-1.544c0.216,-0.24 0.47,-0.378 0.742,-0.405c-0.11,-0.53 0.291,-1.075 0.79,-1.286c0.323,-0.136 0.675,-0.164 1.014,-0.154c-0.698,-0.336 -1.288,-0.718 -1.654,-1.329c-0.296,-0.493 -0.322,-1.121 -0.067,-1.562c0.196,-0.338 0.538,-0.541 0.976,-0.584c-0.139,-0.195 -0.284,-0.456 -0.245,-0.714c0.026,-0.163 0.12,-0.3 0.281,-0.408c1.34,-0.902 2.89,-0.259 4.098,0.327c-0.23,-0.261 -0.417,-0.57 -0.55,-0.911c-0.284,-0.735 -0.277,-1.526 0.018,-2.182c-0.267,-0.512 -0.534,-1.168 -0.35,-1.791c0.107,-0.364 0.439,-0.681 0.825,-0.79c0.249,-0.07 0.482,-0.044 0.673,0.071c0.291,-0.55 1.051,-0.723 1.638,-0.531c0.334,0.109 0.624,0.307 0.88,0.532c-0.235,-0.538 -0.352,-1.125 -0.335,-1.714c0.002,-0.066 0.005,-0.132 0.009,-0.198c0.014,-0.273 0.028,-0.53 -0.064,-0.762c-0.059,-0.148 -0.158,-0.278 -0.263,-0.415c-0.07,-0.091 -0.142,-0.185 -0.203,-0.287c-0.304,-0.505 -0.264,-1.157 0.094,-1.55c0.2,-0.219 0.51,-0.338 0.83,-0.323c0.187,0.011 0.36,0.07 0.498,0.168c0.068,-0.417 0.306,-0.81 0.675,-1.104c0.387,-0.308 0.866,-0.454 1.311,-0.408c-0.074,-0.36 -0.008,-0.755 0.19,-1.107c0.234,-0.414 0.612,-0.703 1.037,-0.792c0.425,-0.089 0.888,0.023 1.27,0.307c0.299,0.223 0.51,0.523 0.603,0.85c0.278,-0.319 0.692,-0.539 1.155,-0.602c0.358,-0.048 0.713,0 1.02,0.132c-0.065,-0.171 -0.097,-0.359 -0.09,-0.555c0.014,-0.406 0.19,-0.768 0.481,-0.995c0.292,-0.227 0.689,-0.309 1.088,-0.225c0.339,0.071 0.628,0.251 0.814,0.503c0.11,-0.086 0.317,-0.183 0.704,-0.26c0.335,-0.066 0.68,0.026 0.97,0.26c0.179,0.144 0.323,0.33 0.421,0.538c0.128,-0.39 0.402,-0.734 0.766,-0.929c0.529,-0.284 1.218,-0.237 1.707,0.108c0.589,-0.482 1.12,-0.772 2.259,-0.345c0.415,0.155 0.765,0.555 0.89,1.018c0.075,0.277 0.06,0.539 -0.041,0.76c0.537,-0.053 1.121,-0.083 1.658,0.127c0.558,0.217 1.045,0.779 0.99,1.389c0.644,-0.136 1.358,-0.267 2.047,-0.121c0.656,0.138 1.392,0.625 1.536,1.381c0.687,-0.168 1.453,-0.337 2.199,-0.17c0.712,0.159 1.448,0.74 1.5,1.526c0.511,-0.138 1.078,-0.271 1.638,-0.152c0.605,0.128 1.201,0.652 1.153,1.308c-0.075,1.014 -1.387,1.243 -2.07,1.294c0.028,0.25 -0.021,0.467 -0.148,0.644c-0.198,0.279 -0.544,0.407 -0.837,0.471c0.37,0.09 0.815,0.245 0.97,0.579c0.225,0.486 0.09,1.107 -0.296,1.475c0.458,0.216 0.795,0.681 0.898,1.257c0.099,0.55 -0.037,1.079 -0.359,1.439c0.508,0.1 0.955,0.518 1.055,1.026c0.08,0.398 -0.06,0.826 -0.331,1.129c0.313,-0.001 0.632,0.09 0.92,0.278c0.471,0.307 0.749,0.802 0.725,1.293c-0.024,0.49 -0.349,0.957 -0.848,1.217c-0.451,0.237 -0.961,0.26 -1.366,0.072c-0.175,0.671 -0.688,1.26 -1.398,1.593c-0.726,0.341 -1.526,0.356 -2.167,0.047c-0.309,0.651 -1.337,0.79 -2.108,0.834c0.719,0.087 1.66,0.237 2.065,0.715c0.095,0.111 0.129,0.241 0.16,0.356c0.036,0.14 0.063,0.229 0.151,0.282c0.147,0.091 0.321,0.131 0.505,0.173c0.098,0.023 0.196,0.045 0.292,0.075c0.721,0.229 1.249,0.923 1.285,1.671c1.694,0.407 2.58,1.105 2.635,2.075c0.039,0.7 -0.46,1.401 -1.186,1.669c-0.541,0.201 -1.18,0.173 -1.792,-0.07c0.045,0.157 0.049,0.33 0.011,0.508c-0.085,0.391 -0.357,0.754 -0.711,0.946c-0.563,0.306 -1.238,0.282 -1.804,0.244c-0.014,0.597 -0.376,1.183 -0.914,1.455c-0.456,0.23 -1.021,0.227 -1.483,0.013c0.006,0.039 0.009,0.081 0.009,0.123c0.001,0.25 -0.107,0.506 -0.288,0.684c-0.294,0.291 -0.703,0.398 -1.095,0.483c-0.661,0.141 -2.822,0.485 -3.604,-0.887c-0.623,0.472 -1.496,0.581 -2.217,0.267c-0.706,-0.308 -1.209,-0.999 -1.296,-1.757c-0.036,0.019 -0.073,0.037 -0.11,0.053l-0.003,-0.164l-0.477,0c0.037,2.296 0.103,4.592 0.207,6.88c0.083,1.832 0.245,3.735 0.821,5.48c0.454,1.377 1.111,2.621 2.087,3.694c0.494,0.542 1.172,1.046 1.503,1.715c0.284,0.574 0.314,1.498 -0.412,1.782c-0.081,0.032 -0.147,0.044 -0.208,0.045l-0.008,0c-0.104,0.001 -0.195,-0.028 -0.327,-0.03c-0.134,-0.003 -0.222,-0.018 -0.298,-0.019l-0.009,0c-0.107,-0.001 -0.193,0.027 -0.36,0.155c-0.052,0.04 -0.073,0.128 -0.134,0.165c-0.188,0.115 -0.338,0.238 -0.533,0.24l-0.007,0c-0.075,-0.001 -0.156,-0.019 -0.249,-0.062c-0.156,-0.073 -0.345,-0.247 -0.371,-0.414l0,-0.001c0.043,-0.112 0.082,-0.211 0.127,-0.242l0.003,-0.001l-0.002,0.001l-0.001,0c-0.107,0.067 -0.14,0.153 -0.128,0.24l0.001,0.002l-0.012,0.03c-0.05,0.128 -0.105,0.264 -0.179,0.324c-0.148,0.121 -0.297,0.166 -0.462,0.168l-0.011,0c-0.083,0 -0.17,-0.011 -0.263,-0.029c-0.428,-0.08 -0.789,-0.489 -1.181,-0.492l-0.006,-0.001c-0.064,0.001 -0.129,0.012 -0.196,0.037c-0.297,0.114 -0.393,0.428 -0.797,0.49c-0.056,0.009 -0.107,0.013 -0.155,0.014l-0.012,0c-0.22,0.001 -0.357,-0.08 -0.585,-0.194c-0.217,-0.109 -0.123,-0.337 -0.356,-0.341l-0.007,0c-0.065,0 -0.154,0.016 -0.279,0.056c-0.084,0.026 -0.149,0.234 -0.252,0.277c-0.222,0.094 -0.364,0.14 -0.466,0.142l-0.007,0c-0.203,0 -0.247,-0.18 -0.468,-0.507c0.035,-0.208 -0.008,-0.314 -0.129,-0.316l-0.004,0c-0.058,0 -0.134,0.024 -0.228,0.071c-0.071,0.046 -0.142,0.093 -0.214,0.14c-0.102,0.03 -0.212,0.134 -0.331,0.139l-0.006,0c-0.006,0 -0.011,0 -0.017,0c-0.206,-0.016 -0.266,0.026 -0.365,-0.157c-0.197,-0.364 0.359,-1.228 0.489,-1.507c0.46,-0.985 0.936,-1.964 1.321,-2.982c0.418,-1.105 0.616,-2.263 0.947,-3.393c0.318,-1.086 0.586,-2.114 0.664,-3.248c0.192,-2.769 0.173,-5.563 0.13,-8.351l-0.519,0Zm10.528,17.464l0.003,0c0.026,0.007 0.069,0.019 0.113,0.034c0.063,0.009 0.1,0.013 0.072,0.007c-0.098,-0.021 -0.157,-0.034 -0.187,-0.041l-0.015,-0.004l-0.001,0l-0.001,0l-0.002,-0.001l-0.005,-0.001l0,0l-0.001,0l0.009,0.002l0.018,0.004l-0.002,0l-0.001,0l-0.023,-0.006l0.023,0.006Zm-11.76,-3.76c-0.039,0.136 -0.079,0.271 -0.119,0.406c-3.36,0.029 -6.717,0.141 -10.04,0.472c-0.501,0.05 -1.564,0.012 -1.987,0.349c-0.4,0.319 0.002,0.404 0.383,0.576c0.035,0.016 0.07,0.029 0.103,0.039c0.235,0.038 0.473,0.063 0.709,0.091c0.798,0.095 1.599,0.164 2.4,0.228c1.977,0.159 3.958,0.268 5.939,0.373c0.221,0.012 0.828,0.034 1.689,0.07c-0.034,0.071 -0.092,0.181 -0.165,0.319c-2.377,-0.124 -4.754,-0.266 -7.121,-0.501c-1.503,-0.149 -3.003,-0.351 -4.481,-0.667c-0.252,-0.054 -1.854,-0.277 -1.855,-0.722c0,-0.61 3.421,-0.662 3.77,-0.685c3.582,-0.238 7.178,-0.324 10.775,-0.348Zm-11.536,1.871l0,0l0,0l0,0l0,0l-0.001,0l0,0l0.001,0l0,0l0,0l0,0l0,0l0,0l0,0l0,0l0,0l0,0l0,0l0,0Zm17.193,-1.869c1.392,0.006 2.784,0.016 4.173,0.022c4.454,0.022 8.909,0.066 13.362,0.148c0.63,0.012 1.337,0.36 1.827,0.406c-1.857,0.136 -3.798,-0.059 -5.659,-0.081c-3.401,-0.039 -6.802,-0.065 -10.202,-0.071c-1.089,-0.002 -2.181,-0.008 -3.275,-0.015c-0.079,-0.135 -0.154,-0.271 -0.226,-0.409Zm19.405,0.574c0.002,0.001 -0.008,0.003 0.008,0.005l0.018,0.001c-0.022,0 -0.045,-0.002 -0.069,-0.004l0.001,0c0.021,-0.002 0.032,-0.002 0.037,-0.002l0.005,0Zm1.408,-1.766l-21.344,0c-0.082,-0.219 -0.159,-0.442 -0.229,-0.666l22.053,0l-0.48,0.666Zm-26.146,0l-20.627,0l-0.544,-0.666l21.355,0c-0.05,0.171 -0.099,0.343 -0.144,0.515l-0.04,0.151Zm-11.86,3.06l-0.001,0l-0.001,0l0,0l-0.001,0l-0.002,-0.001l-0.004,-0.001l-0.001,-0.001l-0.001,0l-0.004,-0.001l-0.005,-0.001l-0.003,-0.001l-0.002,-0.001l-0.005,-0.001l-0.006,-0.001l-0.005,-0.001l-0.004,-0.001l-0.006,-0.002l-0.006,-0.001l-0.008,-0.002l-0.007,-0.001l-0.006,-0.001l-0.006,-0.001l-0.012,-0.003l-0.011,-0.002l-0.005,-0.001l-0.004,-0.001c-0.003,0 -0.005,-0.001 -0.008,-0.002c-0.025,-0.004 -0.049,-0.008 -0.074,-0.013c0.032,0.006 0.059,0.011 0.082,0.015l0.024,0.007l0.022,0.006l0.025,0.006l0.023,0.005l0.016,0.003l0.004,0l0.001,0l-0.002,0l-0.004,0l-0.017,-0.003l-0.004,-0.001l-0.019,-0.004l-0.005,-0.001l-0.012,-0.003l-0.008,-0.002l-0.014,-0.004l-0.007,-0.002l-0.023,-0.007l0,0l0,0l0.038,0.008l0.027,0.005l0.028,0.007l0.013,0.003l0.01,0.003l0,0Z" style="fill:#1b1b1a;fill-rule:nonzero;"/><path id="Inner-Outline" serif:id="Inner Outline" d="M59,32c0,-14.902 -12.098,-27 -27,-27c-14.902,0 -27,12.098 -27,27c0,14.902 12.098,27 27,27c14.902,0 27,-12.098 27,-27Z" style="fill:none;stroke:#fff;stroke-width:3px;"/><path id="Outline" d="M61.409,31.99c0,-16.178 -13.135,-29.313 -29.313,-29.313c-16.179,0 -29.314,13.135 -29.314,29.313c0,16.179 13.135,29.313 29.314,29.313c16.178,0 29.313,-13.134 29.313,-29.313Z" style="fill:none;stroke:#000;stroke-width:3px;"/></g></g></g></svg>