<?xml version="1.0" encoding="UTF-8" standalone="no"?><!DOCTYPE svg PUBLIC "-//W3C//DTD SVG 1.1//EN" "http://www.w3.org/Graphics/SVG/1.1/DTD/svg11.dtd"><svg width="100%" height="100%" viewBox="0 0 64 64" version="1.1" xmlns="http://www.w3.org/2000/svg" xmlns:xlink="http://www.w3.org/1999/xlink" xml:space="preserve" xmlns:serif="http://www.serif.com/" style="fill-rule:evenodd;clip-rule:evenodd;stroke-miterlimit:10;"><g id="Altered-disturbance" serif:id="Altered disturbance"><path d="M28.638,17.471c0.992,-1.933 5.406,-4.562 5.406,-4.562c0,0 -2.289,3.426 -1.865,5.235c0.402,1.71 2.59,6.591 3.92,9.856c0.256,0.627 1.662,-6.065 1.86,-5.561c0.795,2.024 0.032,10.336 0.812,10.618c1.985,0.716 5.319,-10.618 5.319,-10.618c0,0 -0.601,13.561 1.304,13.561c1.386,0 5.869,-1.661 6.5,-4.494c0.304,1.459 0.465,2.973 0.465,4.527c0,11.66 -9.042,21.127 -20.18,21.127c-11.137,0 -20.179,-9.467 -20.179,-21.127c0,-1.818 0.22,-3.582 0.633,-5.265c0.596,3.095 1.862,5.232 3.325,5.232c2.037,0 3.691,-4.142 3.691,-9.243c0,-1.127 -0.424,-5.758 -0.571,-6.757c0.146,0.321 1.715,4.83 1.891,5.147c2.143,3.86 2.112,5.097 4.33,3.75c1.048,-0.637 -0.841,-5.816 -0.841,-5.816c0,0 4.763,3.462 3.633,1.427c-0.779,-1.404 -0.445,-5.104 0.547,-7.037Z" style="fill:#1b1b1a;"/><path id="Outline" d="M61.5,32.174c0,-16.178 -13.135,-29.313 -29.313,-29.313c-16.178,0 -29.313,13.135 -29.313,29.313c0,16.178 13.135,29.313 29.313,29.313c16.178,0 29.313,-13.135 29.313,-29.313Z" style="fill:none;stroke:#1b1b1a;stroke-width:3px;"/></g></svg>