<?xml version="1.0" encoding="UTF-8" standalone="no"?><!DOCTYPE svg PUBLIC "-//W3C//DTD SVG 1.1//EN" "http://www.w3.org/Graphics/SVG/1.1/DTD/svg11.dtd"><svg width="100%" height="100%" viewBox="0 0 64 64" version="1.1" xmlns="http://www.w3.org/2000/svg" xmlns:xlink="http://www.w3.org/1999/xlink" xml:space="preserve" xmlns:serif="http://www.serif.com/" style="fill-rule:evenodd;clip-rule:evenodd;stroke-miterlimit:10;"><g id="Species"><g id="Fish"><g id="freshwater_fish"><path id="Outline" d="M138.626,31.687c0,-16.179 -13.135,-29.313 -29.313,-29.313c-16.178,0 -29.313,13.134 -29.313,29.313c0,16.178 13.135,29.313 29.313,29.313c16.178,0 29.313,-13.135 29.313,-29.313Z" style="fill:none;stroke:#000;stroke-width:3px;"/></g><g id="estuarine_fish"><path id="Outline1" serif:id="Outline" d="M58.626,31.687c0,-16.179 -13.135,-29.313 -29.313,-29.313c-16.178,0 -29.313,13.134 -29.313,29.313c0,16.178 13.135,29.313 29.313,29.313c16.178,0 29.313,-13.135 29.313,-29.313Z" style="fill:none;stroke:#000;stroke-width:3px;"/><path d="M26.432,22.476l-2.846,-3.104c-0.658,-0.718 -1.775,-0.766 -2.493,-0.108c-0.718,0.659 -0.767,1.776 -0.108,2.494l1.254,1.368c-1.048,0.126 -2.147,0.208 -3.282,0.239l-0.174,0.032l-0.005,-0.027c-0.285,0.006 -0.572,0.01 -0.86,0.01c-1.768,0 -3.807,-0.03 -5.374,-0.254c-2.863,-0.41 -4.955,-1.252 -6.639,-2.215c-0.167,-0.106 -0.374,-0.13 -0.561,-0.064c-0.187,0.065 -0.334,0.213 -0.399,0.4c-0.344,1.231 -0.945,3.61 -0.945,5.136c0,1.742 0.276,3.39 0.766,4.856c0.067,0.188 0.216,0.336 0.406,0.399c0.189,0.063 0.397,0.035 0.564,-0.075c1.533,-0.973 3.071,-1.677 5.599,-2.181c1.372,-0.273 3.293,-0.487 5.073,-0.656c0.741,-0.07 4.311,0.039 6.187,0.266l-1.494,2.417c-0.38,0.614 -0.19,1.421 0.425,1.801l2.226,1.376c0.615,0.38 1.422,0.19 1.802,-0.425l2.5,-4.045c0.11,0.014 0.222,0.028 0.334,0.04c3.937,0.425 8.724,0.732 9.402,0.732c7.395,0 10.779,-0.792 13.555,-1.828c1.793,-0.67 4.428,-1.491 4.428,-2.468c0,-0.28 -1.328,0.057 -1.568,-0.209c-0.08,-0.089 0.861,-0.538 1.017,-0.675c0.042,-0.037 -0.031,-0.123 -0.082,-0.147c-0.766,-0.362 -2.201,-0.935 -5.059,-1.738c-3.906,-1.097 -10.626,-1.587 -16.53,-1.587c-2.49,0 -4.885,0.084 -7.119,0.24Zm24.247,3.04c-0.646,0 -1.17,0.525 -1.17,1.171c0,0.646 0.524,1.17 1.17,1.17c0.646,0 1.171,-0.524 1.171,-1.17c0,-0.646 -0.525,-1.171 -1.171,-1.171Zm0,0.293c-0.484,0 -0.877,0.393 -0.877,0.878c0,0.484 0.393,0.878 0.877,0.878c0.485,0 0.878,-0.394 0.878,-0.878c0,-0.485 -0.393,-0.878 -0.878,-0.878Z"/><path d="M42.554,40.732l1.024,-1.501c0.237,-0.347 0.639,-0.371 0.897,-0.052c0.258,0.318 0.276,0.858 0.039,1.206l-0.451,0.661c0.377,0.061 0.772,0.101 1.18,0.116l0.063,0.015l0.002,-0.013c0.102,0.003 0.205,0.005 0.309,0.005c0.636,0 1.37,-0.014 1.933,-0.123c1.03,-0.198 1.783,-0.605 2.388,-1.071c0.061,-0.051 0.135,-0.063 0.202,-0.031c0.068,0.032 0.121,0.103 0.144,0.193c0.124,0.596 0.34,1.746 0.34,2.485c0,0.842 -0.099,1.639 -0.276,2.348c-0.024,0.091 -0.078,0.162 -0.146,0.193c-0.068,0.03 -0.143,0.017 -0.203,-0.037c-0.551,-0.47 -1.104,-0.81 -2.014,-1.054c-0.493,-0.132 -1.184,-0.236 -1.825,-0.318c-0.266,-0.034 -1.551,0.02 -2.225,0.129l0.537,1.169c0.137,0.297 0.068,0.687 -0.153,0.871l-0.801,0.666c-0.221,0.183 -0.511,0.091 -0.647,-0.206l-0.9,-1.956c-0.04,0.007 -0.08,0.013 -0.12,0.019c-1.416,0.206 -3.138,0.354 -3.382,0.354c-2.66,0 -3.878,-0.383 -4.876,-0.884c-0.645,-0.324 -1.593,-0.721 -1.593,-1.194c0,-0.135 0.478,0.028 0.564,-0.1c0.029,-0.044 -0.31,-0.261 -0.366,-0.327c-0.015,-0.018 0.012,-0.06 0.03,-0.071c0.275,-0.175 0.791,-0.452 1.82,-0.841c1.405,-0.53 3.822,-0.767 5.946,-0.767c0.896,0 1.757,0.041 2.56,0.116Zm-8.722,1.47c0.233,0 0.421,0.254 0.421,0.566c0,0.313 -0.188,0.566 -0.421,0.566c-0.232,0 -0.421,-0.253 -0.421,-0.566c0,-0.312 0.189,-0.566 0.421,-0.566Zm0,0.142c0.175,0 0.316,0.19 0.316,0.424c0,0.235 -0.141,0.425 -0.316,0.425c-0.174,0 -0.315,-0.19 -0.315,-0.425c0,-0.234 0.141,-0.424 0.315,-0.424Z"/><path d="M27.273,48.569l1.376,-1.501c0.318,-0.348 0.859,-0.371 1.206,-0.053c0.347,0.319 0.371,0.859 0.052,1.207l-0.606,0.661c0.507,0.061 1.038,0.101 1.587,0.116l0.084,0.015l0.003,-0.013c0.137,0.003 0.276,0.005 0.416,0.005c0.854,0 1.841,-0.015 2.598,-0.123c1.385,-0.198 2.397,-0.606 3.211,-1.071c0.081,-0.051 0.181,-0.063 0.272,-0.031c0.09,0.031 0.161,0.103 0.193,0.193c0.166,0.596 0.457,1.746 0.457,2.484c0,0.843 -0.134,1.64 -0.371,2.349c-0.032,0.091 -0.104,0.162 -0.196,0.193c-0.092,0.03 -0.192,0.017 -0.273,-0.037c-0.741,-0.47 -1.485,-0.81 -2.708,-1.054c-0.663,-0.133 -1.592,-0.236 -2.453,-0.318c-0.359,-0.034 -2.085,0.019 -2.992,0.129l0.722,1.169c0.184,0.297 0.092,0.687 -0.205,0.871l-1.077,0.666c-0.297,0.183 -0.688,0.091 -0.871,-0.206l-1.21,-1.956c-0.053,0.007 -0.107,0.013 -0.161,0.019c-1.904,0.205 -4.219,0.354 -4.547,0.354c-3.577,0 -5.213,-0.383 -6.556,-0.884c-0.867,-0.324 -2.142,-0.721 -2.142,-1.194c0,-0.135 0.643,0.028 0.759,-0.101c0.039,-0.043 -0.417,-0.26 -0.492,-0.326c-0.02,-0.018 0.015,-0.06 0.04,-0.072c0.37,-0.174 1.064,-0.452 2.446,-0.84c1.89,-0.53 5.139,-0.768 7.995,-0.768c1.204,0 2.362,0.041 3.443,0.117Zm-11.727,1.47c0.312,0 0.566,0.254 0.566,0.566c0,0.313 -0.254,0.566 -0.566,0.566c-0.312,0 -0.566,-0.253 -0.566,-0.566c0,-0.312 0.254,-0.566 0.566,-0.566Zm0,0.142c0.234,0 0.425,0.19 0.425,0.424c0,0.234 -0.191,0.425 -0.425,0.425c-0.234,0 -0.424,-0.191 -0.424,-0.425c0,-0.234 0.19,-0.424 0.424,-0.424Z"/></g></g></g></svg>