<?xml version="1.0" encoding="UTF-8" standalone="no"?><!DOCTYPE svg PUBLIC "-//W3C//DTD SVG 1.1//EN" "http://www.w3.org/Graphics/SVG/1.1/DTD/svg11.dtd"><svg width="100%" height="100%" viewBox="0 0 64 64" version="1.1" xmlns="http://www.w3.org/2000/svg" xmlns:xlink="http://www.w3.org/1999/xlink" xml:space="preserve" xmlns:serif="http://www.serif.com/" style="fill-rule:evenodd;clip-rule:evenodd;stroke-miterlimit:10;"><g id="Extreme-events" serif:id="Extreme events"><path d="M24.797,41.453c-2.906,-1.124 -5.769,-6.61 -6.804,-13.506c-1.21,-8.058 0.532,-15.009 3.886,-15.513c-1.312,2.686 -1.817,8.595 -0.847,15.057c0.029,0.192 0.059,0.384 0.09,0.574c1.229,-3.019 3.87,-5.384 6.803,-6.481c3.458,-1.292 8.003,-2.317 13.942,-1.275c8.026,1.408 14.066,5.264 13.48,8.605c-2.131,-2.095 -7.575,-4.449 -14.011,-5.578c-1.111,-0.195 -2.206,-0.346 -3.272,-0.455c0.982,0.66 1.775,1.548 2.59,2.395c2.256,2.345 4.307,8.122 2.414,16.246c-1.913,8.211 -6.149,14.253 -9.452,13.483c2.229,-2.095 4.925,-7.595 6.46,-14.18c0.072,-0.312 0.142,-0.623 0.207,-0.933c-1.199,1.366 -2.719,2.443 -4.441,3.114c-2.4,1.394 -5.67,2.56 -9.361,3.207c-8.026,1.409 -15.018,-0.16 -15.604,-3.501c2.716,1.245 8.636,1.604 15.073,0.474c0.472,-0.082 0.938,-0.172 1.398,-0.267c-0.916,-0.379 -1.773,-0.874 -2.551,-1.466Zm6.906,-11.946c1.575,0 2.854,1.279 2.854,2.855c0,1.575 -1.279,2.854 -2.854,2.854c-1.576,0 -2.855,-1.279 -2.855,-2.854c0,-1.576 1.279,-2.855 2.855,-2.855Z" style="fill:#1b1b1a;"/><path id="Outline" d="M61.5,32.174c0,-16.178 -13.135,-29.313 -29.313,-29.313c-16.178,0 -29.313,13.135 -29.313,29.313c0,16.178 13.135,29.313 29.313,29.313c16.178,0 29.313,-13.135 29.313,-29.313Z" style="fill:none;stroke:#1b1b1a;stroke-width:3px;"/></g></svg>