<?xml version="1.0" encoding="UTF-8" standalone="no"?><!DOCTYPE svg PUBLIC "-//W3C//DTD SVG 1.1//EN" "http://www.w3.org/Graphics/SVG/1.1/DTD/svg11.dtd"><svg width="100%" height="100%" viewBox="0 0 64 64" version="1.1" xmlns="http://www.w3.org/2000/svg" xmlns:xlink="http://www.w3.org/1999/xlink" xml:space="preserve" xmlns:serif="http://www.serif.com/" style="fill-rule:evenodd;clip-rule:evenodd;stroke-miterlimit:10;"><g id="Species"><g id="Fish"><g id="fish"><path id="Outline" d="M61.126,31.687c0,-16.179 -13.135,-29.313 -29.313,-29.313c-16.178,0 -29.313,13.134 -29.313,29.313c0,16.178 13.135,29.313 29.313,29.313c16.178,0 29.313,-13.135 29.313,-29.313Z" style="fill:none;stroke:#000;stroke-width:3px;"/><path d="M20.547,41.311c-1.523,-0.278 -2.889,-0.794 -4.32,-1.2c-1.704,-0.484 -4.626,-1.835 -6.524,-2.978c-1.42,-0.855 -4.369,-3.413 -3.083,-3.519c0.688,-0.056 0.968,0.524 2.301,0.458c0,0 -2.38,-1.222 -2.449,-1.876c-0.068,-0.654 0.768,-0.702 1.208,-1.272c0.429,-0.556 1.298,-1.442 2.512,-1.955c1.215,-0.512 3.883,-4.132 6.558,-5.58c1.963,-1.063 2.932,-1.444 2.932,-1.444l1.232,-2.995c0,0 0.381,1.191 0.73,1.192c0.607,-1.249 1.935,-3.123 1.935,-3.123c0,0 -0.157,0.77 0.656,1.53c0.417,-0.929 1.698,-2.217 1.698,-2.217c0,0 -0.388,0.732 0.392,1.117c0.537,-0.596 1.244,-1.287 1.244,-1.287c0,0 -0.232,1.032 0.415,1.335c0.506,-0.691 1.342,-1.408 1.342,-1.408c0,0 -0.061,0.904 0.621,1.203c0.648,-0.632 1.67,-1.441 1.67,-1.441c0,0 0.088,0.694 0.466,0.778c0.817,0.18 1.682,-1.81 6.138,-1.412c2.915,0.262 5.793,3.651 5.702,5.526c-0.042,0.866 -1.062,2.4 -2.518,2.717c-0.505,0.11 -0.917,0.3 -1.24,0.501l0,0.001c0,0 -0.355,0.23 -0.729,0.684c-0.089,0.108 -0.162,0.207 -0.223,0.297c0.3,0.265 0.467,0.444 0.499,0.484c0.331,0.418 0.863,0.962 1.65,1.426c2.586,1.523 3.956,1.673 4.932,1.306c0.215,-0.081 0.459,-0.196 0.722,-0.335l0,0l2.226,-1.379l0.001,0c0.702,-0.44 1.386,-0.864 1.866,-1.129c1.198,-0.661 4.047,-2.05 5.154,-0.952c1.107,1.097 0.536,3.031 -0.211,4.322c-0.748,1.29 -1.793,2.168 -1.763,2.664c0.064,1.01 1.98,2.579 2.641,3.763c0.718,1.29 0.687,2.852 -0.462,3.289c-0.826,0.314 -2.159,0.322 -6.247,-1.494c-2.645,-1.175 -3.874,-2.018 -6.231,-2.055c-0.716,-0.011 -2.172,0.394 -3.672,1.314l1.338,0.244c1.025,0.127 2.435,0.408 2.866,1.194c0.404,0.735 0.324,2.747 -1.81,4.322c-3.424,2.528 -5.678,1.584 -7.067,0.957c-0.385,0.48 -0.322,1.136 0.05,1.538c0.373,0.403 -2.509,-1.337 -2.509,-1.337c0,0 -0.458,0.608 0.046,1.546c-2.521,-1.28 -3.594,-3.004 -3.594,-3.004c0,0 -1.627,0.149 -2.872,0.198c-0.107,0.141 -0.218,0.308 -0.321,0.504c-0.174,0.332 -0.291,0.587 -0.368,0.768c-0.205,0.815 -1.216,3.838 -0.575,6.136c-1.023,-0.791 -1.784,-1.748 -2.354,-2.716c-0.103,0.053 -0.213,0.128 -0.32,0.234l0.002,0.003c-0.005,0.004 -0.01,0.007 -0.016,0.011c-0.062,0.064 -0.123,0.138 -0.181,0.226c-0.281,0.543 -0.3,1.693 -0.366,1.836c0,0 -1.788,-4.107 -1.772,-6.435c-0.002,-0.222 0.007,-0.52 0.035,-0.918c0.003,-0.046 0.01,-0.103 0.017,-0.163Zm1.124,-20.968c0.003,-0.013 0.005,-0.026 0.008,-0.038c-0.01,0.01 -0.021,0.02 -0.031,0.03c0.008,0.002 0.015,0.005 0.023,0.008Zm6.195,-2.544c0.006,-0.01 0.012,-0.019 0.018,-0.029c-0.008,0.008 -0.016,0.016 -0.024,0.024l0.006,0.005Z" style="fill:#1b1b1a;fill-rule:nonzero;"/></g></g></g></svg>