<?xml version="1.0" encoding="UTF-8" standalone="no"?><!DOCTYPE svg PUBLIC "-//W3C//DTD SVG 1.1//EN" "http://www.w3.org/Graphics/SVG/1.1/DTD/svg11.dtd"><svg width="100%" height="100%" viewBox="0 0 64 64" version="1.1" xmlns="http://www.w3.org/2000/svg" xmlns:xlink="http://www.w3.org/1999/xlink" xml:space="preserve" xmlns:serif="http://www.serif.com/" style="fill-rule:evenodd;clip-rule:evenodd;stroke-miterlimit:10;"><g id="Species"><g id="Fish"><g id="fish"><path id="Outline" d="M61.409,32.047c0,-16.178 -13.135,-29.313 -29.313,-29.313c-16.179,0 -29.314,13.135 -29.314,29.313c0,16.178 13.135,29.313 29.314,29.313c16.178,0 29.313,-13.135 29.313,-29.313Z" style="fill:none;stroke:#000;stroke-width:3px;"/><path d="M20.83,41.672c-1.523,-0.279 -2.889,-0.794 -4.32,-1.201c-1.705,-0.484 -4.627,-1.835 -6.525,-2.977c-1.42,-0.855 -4.369,-3.414 -3.083,-3.519c0.689,-0.057 0.968,0.523 2.302,0.457c0,0 -2.381,-1.221 -2.449,-1.875c-0.069,-0.655 0.767,-0.703 1.207,-1.273c0.429,-0.555 1.299,-1.442 2.513,-1.955c1.215,-0.512 3.882,-4.132 6.557,-5.58c1.964,-1.063 2.933,-1.444 2.933,-1.444l1.231,-2.995c0,0 0.381,1.191 0.731,1.192c0.606,-1.249 1.935,-3.123 1.935,-3.123c0,0 -0.157,0.771 0.655,1.53c0.418,-0.929 1.699,-2.216 1.699,-2.216c0,0 -0.389,0.731 0.392,1.116c0.537,-0.595 1.244,-1.287 1.244,-1.287c0,0 -0.233,1.032 0.415,1.335c0.505,-0.691 1.341,-1.408 1.341,-1.408c0,0 -0.061,0.904 0.622,1.204c0.647,-0.633 1.669,-1.442 1.669,-1.442c0,0 0.088,0.694 0.467,0.778c0.817,0.18 1.681,-1.81 6.137,-1.411c2.915,0.261 5.793,3.65 5.703,5.525c-0.042,0.867 -1.063,2.4 -2.518,2.717c-0.506,0.11 -0.918,0.3 -1.24,0.502l-0.001,0c0,0 -0.355,0.23 -0.729,0.685c-0.088,0.107 -0.162,0.207 -0.222,0.297c0.3,0.264 0.467,0.443 0.498,0.483c0.331,0.418 0.864,0.963 1.651,1.426c2.586,1.524 3.956,1.673 4.932,1.306c0.215,-0.081 0.458,-0.196 0.721,-0.335l0,0l2.226,-1.379l0.001,0c0.702,-0.439 1.387,-0.864 1.867,-1.129c1.198,-0.661 4.047,-2.05 5.153,-0.952c1.107,1.098 0.537,3.031 -0.211,4.322c-0.748,1.291 -1.793,2.168 -1.762,2.664c0.063,1.011 1.979,2.579 2.64,3.763c0.719,1.29 0.687,2.853 -0.461,3.289c-0.827,0.314 -2.16,0.322 -6.247,-1.493c-2.646,-1.176 -3.874,-2.019 -6.232,-2.055c-0.716,-0.012 -2.172,0.394 -3.671,1.313l1.337,0.244c1.026,0.127 2.435,0.409 2.866,1.194c0.404,0.735 0.324,2.748 -1.81,4.323c-3.423,2.527 -5.678,1.583 -7.066,0.956c-0.385,0.48 -0.323,1.136 0.05,1.539c0.372,0.402 -2.51,-1.338 -2.51,-1.338c0,0 -0.458,0.608 0.046,1.546c-2.521,-1.28 -3.594,-3.004 -3.594,-3.004c0,0 -1.627,0.149 -2.872,0.199c-0.107,0.14 -0.217,0.307 -0.32,0.503c-0.175,0.332 -0.292,0.587 -0.368,0.769c-0.205,0.814 -1.216,3.837 -0.576,6.135c-1.022,-0.791 -1.784,-1.747 -2.354,-2.716c-0.102,0.053 -0.213,0.128 -0.319,0.234l0.002,0.004c-0.006,0.003 -0.011,0.006 -0.016,0.01c-0.063,0.064 -0.124,0.139 -0.181,0.226c-0.282,0.543 -0.3,1.693 -0.367,1.836c0,0 -1.787,-4.107 -1.771,-6.435c-0.003,-0.222 0.006,-0.519 0.035,-0.918c0.003,-0.045 0.009,-0.103 0.017,-0.162Zm1.124,-20.969c0.002,-0.013 0.005,-0.025 0.008,-0.038c-0.011,0.01 -0.021,0.02 -0.031,0.03c0.007,0.003 0.015,0.005 0.023,0.008Zm6.194,-2.544c0.006,-0.01 0.012,-0.019 0.018,-0.028c-0.008,0.008 -0.016,0.016 -0.024,0.024l0.006,0.004Z" style="fill:#1b1b1a;fill-rule:nonzero;"/></g></g></g></svg>