<?xml version="1.0" encoding="UTF-8" standalone="no"?><!DOCTYPE svg PUBLIC "-//W3C//DTD SVG 1.1//EN" "http://www.w3.org/Graphics/SVG/1.1/DTD/svg11.dtd"><svg width="100%" height="100%" viewBox="0 0 64 64" version="1.1" xmlns="http://www.w3.org/2000/svg" xmlns:xlink="http://www.w3.org/1999/xlink" xml:space="preserve" xmlns:serif="http://www.serif.com/" style="fill-rule:evenodd;clip-rule:evenodd;stroke-miterlimit:10;"><g id="Florida-Impacts" serif:id="Florida Impacts"><path d="M48.826,31.479c0.906,-0.06 1.72,-0.448 2.317,-1.044c0.651,0.649 1.559,1.052 2.562,1.052c1.004,0 1.912,-0.403 2.562,-1.052c0.651,0.649 1.559,1.052 2.562,1.052c1.004,0 1.912,-0.403 2.562,-1.052c0.036,0.036 0.072,0.07 0.109,0.104c-0.565,17.187 -13.254,30.948 -28.803,30.948c-15.865,0 -28.752,-14.325 -28.822,-32l0.473,0c0.576,1.182 1.812,2 3.242,2c1.003,0 1.911,-0.403 2.562,-1.052c0.651,0.649 1.559,1.052 2.562,1.052c1.003,0 1.911,-0.403 2.562,-1.052c0.651,0.649 1.559,1.052 2.562,1.052c1.003,0 1.911,-0.403 2.562,-1.052c0.225,0.225 0.481,0.42 0.761,0.579l0,-1.433l0.002,-0.083l0.007,-0.091l0.012,-0.091l0.016,-0.088l0.021,-0.088l0.025,-0.086l0.029,-0.083l0.033,-0.082l0.038,-0.08l0.04,-0.078l0.045,-0.076l0.048,-0.073l0.051,-0.07l0.054,-0.068l0.059,-0.065l0.06,-0.063l0.065,-0.059l0.066,-0.057l0.07,-0.053l0.072,-0.05l0.075,-0.047l0.078,-0.044l0.079,-0.04l0.082,-0.036l0.084,-0.032l0.087,-0.029l0.087,-0.024l0.09,-0.02l0.091,-0.016l0.092,-0.011l0.094,-0.007l0.085,-0.003l2.279,0l0.085,0.003l0.093,0.007l0.092,0.011l0.091,0.016l0.091,0.02l0.087,0.024l0.086,0.029l0.084,0.032l0.082,0.036l0.08,0.04l0.078,0.044l0.074,0.047l0.072,0.05l0.07,0.053l0.067,0.057l0.064,0.059l0.061,0.063l0.058,0.065l0.054,0.068l0.052,0.07l0.048,0.073l0.045,0.076l0.041,0.078l0.037,0.08l0.032,0.082l0.029,0.083l0.026,0.086l0.02,0.088l0.017,0.088l0.011,0.091l0.007,0.091l0.002,0.083l0,1.776c0.309,0.085 0.636,0.13 0.973,0.13c1.003,0 1.911,-0.403 2.562,-1.052c0.59,0.589 1.391,0.975 2.284,1.042c-0.084,0.36 -0.293,1.604 0.476,2.78c0,0 -0.547,0.255 0.415,1.47l0.791,1.065c0.364,0.865 0.068,0.124 0.763,1.325l0.562,0.881c0,0 0.627,1.556 0.627,1.556c0.367,1.143 2.011,1.772 2.011,1.772c0.167,1.477 0.1,0.486 0.404,1.285l0.464,0.824c0.504,1.038 1.903,1.027 1.903,1.027c0.501,0.626 0.294,0.06 0.621,0.739l0.017,0.999c-0.494,0.122 -0.056,-0.067 -0.878,0.349l-1.518,0.742c-0.863,0.082 -0.318,0.119 -0.929,0.095c-1.941,-0.075 -3.737,4.429 1.021,4.247c0.164,-0.006 2.068,-0.325 2.068,-0.325c2.207,-0.627 0.546,-0.313 2.013,-0.807l1.833,-0.565c0.628,-0.165 0.144,0.048 0.992,-0.395l0.809,-0.451c0.659,-0.382 0.29,-0.225 0.538,-0.361l0.884,-0.666c0.355,-0.301 0.262,0.517 1.241,-1.385c0,0 0.798,-0.809 0.868,-1.587l0.291,-2.27c0.068,-0.702 -0.046,-0.358 0.016,-0.689l0.248,-2.397c0.468,-2.45 0.367,-1.531 0.124,-2.56l-0.34,-1.2c-0.053,-0.162 0.111,0.217 -0.378,-0.996l-0.854,-1.865c-0.191,-0.663 0.08,-0.105 -0.428,-1.187l-0.406,-0.784c-0.206,-0.339 -0.221,-0.375 -0.375,-0.664Zm-23.558,-2.992l-2.261,0l-0.059,0.001l-0.057,0.005l-0.056,0.007l-0.056,0.009l-0.054,0.013l-0.054,0.015l-0.053,0.017l-0.051,0.02l-0.05,0.022l-0.048,0.024l-0.048,0.027l-0.045,0.028l-0.046,0.031l-0.042,0.033l-0.041,0.035l-0.04,0.036l-0.036,0.039l-0.036,0.04l-0.034,0.041l-0.031,0.043l-0.03,0.045l-0.027,0.046l-0.025,0.048l-0.022,0.049l-0.021,0.05l-0.017,0.051l-0.016,0.052l-0.012,0.054l-0.01,0.054l-0.007,0.055l-0.004,0.056l-0.003,0.057l0,15.441c0,0 0.001,0.042 0.001,0.042c0.001,0.009 0.001,0.019 0.002,0.029l0.002,0.025l0.002,0.019l0.006,0.045l0.009,0.052l-0.049,0.028c-0.177,0.101 -0.346,0.215 -0.507,0.338l-0.049,0.038l-0.053,0.043c-0.082,0.066 -0.161,0.136 -0.237,0.207l-0.063,0.061c-0.067,0.065 -0.131,0.132 -0.194,0.201l-0.03,0.033l-0.047,0.054l-0.018,0.021c-0.02,0.024 -0.04,0.049 -0.06,0.073l-0.014,0.017l-0.045,0.057l-0.043,0.057l-0.043,0.058l-0.042,0.059l-0.041,0.059l-0.04,0.06l-0.039,0.061l-0.038,0.061l-0.037,0.062l-0.063,0.112c-0.029,0.052 -0.057,0.106 -0.084,0.16l-0.023,0.048l-0.031,0.065l-0.026,0.059l-0.003,0.007l-0.004,0.009l-0.024,0.056l-0.001,0.002l-0.001,0.001l-0.027,0.067l-0.025,0.067l-0.026,0.069l-0.025,0.069l-0.022,0.069l-0.02,0.061l-0.003,0.009l-0.006,0.021l-0.013,0.046l-0.001,0.003l0,0.001l-0.02,0.07l-0.018,0.072l-0.013,0.052l-0.004,0.019l-0.003,0.014l-0.013,0.059l-0.013,0.06l-0.002,0.012l-0.005,0.024l-0.009,0.049l-0.012,0.074l-0.009,0.061l-0.002,0.013l-0.001,0.009l-0.008,0.065l-0.016,0.14l-0.001,0.01l-0.001,0.012l-0.004,0.063l-0.005,0.076l-0.003,0.076l-0.002,0.077l-0.001,0.076l0.002,0.114l0.004,0.113l0.007,0.112l0.01,0.112l0.014,0.111l0.015,0.11l0.018,0.105l0.001,0.008l0.021,0.104l0.022,0.1l0.004,0.016l0.024,0.097l0.03,0.105l0.032,0.105l0.03,0.091l0.008,0.025l0.032,0.088l0.04,0.101l0.039,0.095l0.006,0.014l0.041,0.09l0.047,0.096l0.046,0.093l0.004,0.008l0.049,0.089l0.053,0.093l0.052,0.086l0.007,0.011l0.055,0.085l0.059,0.089l0.063,0.087l0.064,0.086l0.066,0.084l0.06,0.074l0.018,0.02l0.06,0.07l0.072,0.079l0.074,0.077l0.076,0.076l0.078,0.074l0.079,0.072l0.082,0.071l0.069,0.058l0.013,0.01l0.018,0.015l0.04,0.031c0.015,0.012 0.031,0.024 0.047,0.036l0.066,0.049l0.074,0.053l0.028,0.02l0.075,0.05l0.073,0.047l0.018,0.012l0.022,0.013l0.06,0.037l0.017,0.01l0.088,0.05l0.095,0.052l0.092,0.048l0.013,0.006l0.066,0.032l0.024,0.012l0.023,0.011l0.078,0.035l0.089,0.038l0.021,0.009l0.073,0.029l0.033,0.013l0.089,0.032l0.104,0.036l0.08,0.026c0.055,0.017 0.111,0.033 0.166,0.048l0.074,0.019l0.1,0.024l0.016,0.004l0.102,0.021l0.112,0.021l0.112,0.018l0.074,0.011c0.025,0.003 0.05,0.006 0.074,0.009l0.077,0.008l0.115,0.01l0.115,0.007l0.086,0.004c0.022,0.001 0.045,0.001 0.068,0.001l0.078,0.001l0.079,-0.001c0.022,0 0.045,0 0.067,-0.001l0.087,-0.004l0.115,-0.007l0.114,-0.01l0.077,-0.008c0.027,-0.003 0.053,-0.006 0.08,-0.01l0.07,-0.01l0.107,-0.017l0.004,-0.001l0.004,-0.001l0.107,-0.02l0.102,-0.021l0.008,-0.002l0.009,-0.002l0.099,-0.024l0.074,-0.019c0.056,-0.015 0.111,-0.031 0.166,-0.048l0.08,-0.026l0.105,-0.036l0.089,-0.032l0.014,-0.006l0.019,-0.007l0.073,-0.029l0.01,-0.005l0.01,-0.004l0.09,-0.038l0.001,-0.001l0.002,-0.001l0.074,-0.033l0.024,-0.011l0.024,-0.012l0.066,-0.032l0.008,-0.004l0.005,-0.002l0.091,-0.048l0.096,-0.052l0.087,-0.05l0.007,-0.004l0.011,-0.006l0.06,-0.037l0.021,-0.013l0.018,-0.012l0.073,-0.047l0.076,-0.05l0.014,-0.01l0.014,-0.01l0.074,-0.053l0.065,-0.049c0.016,-0.012 0.032,-0.024 0.048,-0.036l0.039,-0.031c0.046,-0.037 0.091,-0.074 0.136,-0.113l0.047,-0.041l0.079,-0.072l0.077,-0.074l0.076,-0.076l0.074,-0.077l0.072,-0.079l0.061,-0.07l0.01,-0.011l0.007,-0.009l0.06,-0.074l0.067,-0.084l0.063,-0.086l0.063,-0.087l0.059,-0.089l0.055,-0.085l0.004,-0.005l0.004,-0.006l0.051,-0.086l0.053,-0.093l0.049,-0.089l0.003,-0.005l0.001,-0.003l0.047,-0.093l0.047,-0.096l0,-0.001l0,-0.001l0.04,-0.088l0.004,-0.009l0.004,-0.011l0.03,-0.071l0.008,-0.018l0.005,-0.014l0.034,-0.087l0.032,-0.088l0.005,-0.013l0.004,-0.012l0.03,-0.091l0.031,-0.105l0.03,-0.105l0.025,-0.097l0.002,-0.009l0.001,-0.007l0.022,-0.1l0.021,-0.104l0.001,-0.004l0,-0.004l0.018,-0.105l0.016,-0.11l0.013,-0.111l0.01,-0.112l0.007,-0.112l0.004,-0.113l0.003,-0.114l-0.001,-0.076l-0.003,-0.077l-0.003,-0.076l-0.005,-0.076l-0.004,-0.063c-0.003,-0.035 -0.006,-0.07 -0.01,-0.104l-0.007,-0.058l-0.008,-0.066l-0.002,-0.008l-0.001,-0.013l-0.01,-0.061l-0.012,-0.074l-0.009,-0.049l-0.005,-0.024l-0.002,-0.011l-0.013,-0.061l-0.012,-0.06l-0.003,-0.013l-0.005,-0.019l-0.013,-0.052l-0.018,-0.072l-0.019,-0.071l-0.016,-0.052l-0.005,-0.018l-0.003,-0.008l-0.019,-0.062l-0.023,-0.069l-0.042,-0.117l-0.008,-0.021l-0.011,-0.029l-0.015,-0.038l-0.028,-0.068l-0.028,-0.067l-0.03,-0.066l-0.031,-0.065l-0.026,-0.054l-0.005,-0.012l-0.012,-0.022l-0.016,-0.032l-0.005,-0.01l-0.007,-0.013l-0.013,-0.024l-0.014,-0.027l-0.006,-0.01l-0.03,-0.053l-0.036,-0.063l-0.037,-0.062l-0.038,-0.061l-0.039,-0.061l-0.04,-0.06l-0.041,-0.059l-0.042,-0.059l-0.033,-0.046l-0.009,-0.012l-0.012,-0.016l-0.032,-0.041l-0.045,-0.057l-0.031,-0.039l-0.014,-0.017l-0.013,-0.015l-0.034,-0.04l-0.047,-0.054l-0.048,-0.053l0,-0.001l-0.002,-0.002l-0.035,-0.037l-0.012,-0.013l-0.011,-0.012l-0.04,-0.041l-0.032,-0.033l-0.018,-0.018l-0.01,-0.01l-0.094,-0.09l-0.044,-0.04l-0.009,-0.008l-0.012,-0.011l-0.043,-0.038l-0.028,-0.024l-0.026,-0.023l-0.018,-0.014l-0.039,-0.032l-0.097,-0.078c-0.034,-0.026 -0.068,-0.051 -0.102,-0.076l-0.03,-0.022l-0.051,-0.035l-0.009,-0.007l-0.01,-0.007l-0.05,-0.034l-0.036,-0.024c-0.037,-0.024 -0.075,-0.048 -0.113,-0.071l-0.029,-0.018l-0.006,-0.004l-0.004,-0.002l-0.041,-0.024l-0.018,-0.011l-0.018,-0.01l-0.046,-0.026c0,0 0.009,-0.052 0.009,-0.052l0.006,-0.05l0.001,-0.002l0,-0.006l0.003,-0.035l0.001,-0.013l0,-0.012l0.001,-0.042l0,-13.955l0,-1.486l-0.001,-0.057l-0.005,-0.056l-0.007,-0.055l-0.01,-0.054l-0.013,-0.054l-0.015,-0.052l-0.018,-0.051l-0.02,-0.05l-0.023,-0.049l-0.024,-0.048l-0.028,-0.046l-0.03,-0.045l-0.031,-0.043l-0.033,-0.041l-0.036,-0.04l-0.037,-0.039l-0.04,-0.036l-0.041,-0.035l-0.042,-0.033l-0.045,-0.031l-0.045,-0.028l-0.047,-0.027l-0.05,-0.024l-0.05,-0.022l-0.051,-0.02l-0.052,-0.017l-0.054,-0.015l-0.055,-0.013l-0.055,-0.009l-0.057,-0.007l-0.057,-0.005l-0.058,-0.001Zm-0.553,6.863c0.316,0 0.573,0.329 0.573,0.735l0,10.294c0,0.048 -0.004,0.096 -0.011,0.141c0.69,0.507 1.155,1.462 1.155,2.555c0,1.624 -1.026,2.941 -2.289,2.941c-1.263,0 -2.288,-1.317 -2.288,-2.941c0,-1.093 0.465,-2.048 1.155,-2.555c-0.007,-0.045 -0.011,-0.093 -0.011,-0.141l0,-10.294c0,-0.406 0.257,-0.735 0.572,-0.735l1.144,0Zm10.47,12.584c1.005,0.156 0.867,-0.328 1.421,1.067c0.507,1.277 -0.733,2.855 -2.085,2.688c0,0 -3.345,-0.385 -1.666,-2.763c1.189,-1.684 1.95,-1.011 2.33,-0.992Zm-19.378,-31.275l1.431,0.007l1.321,-0.004l1.639,-0.014l1.743,-0.024l1.295,0.001l-0.012,0.143l0.128,0.059l-0.018,0.139l0.22,0.246l0.084,0.22l-0.053,0.146l0.138,0.352l0.071,-0.002l0.178,0.209l2.09,0.098l0.533,0.016l2.139,0.101l2.548,0.129l2.33,0.134l2.542,0.146l2.014,0.123l-0.137,0.161l0.209,0.276l-0.051,0.31l0.098,0.245l0.12,0.104l0.348,-0.052l0.212,0.056l0.152,-0.071l-0.035,-0.225l0.144,-0.315l-0.01,-0.282l0.069,-0.19l-0.238,-0.571l0.077,-0.165l-0.021,-0.215l0.151,-0.076l0.049,-0.146l0.16,0.051l0.046,-0.199l0.391,-0.022l0.049,0.117l0.471,0.066l0.284,0.116l0.122,0.106l0.313,-0.034l0.468,0.154l0.442,-0.023l0.138,0.08l0.627,-0.008l-0.141,0.26l-0.04,0.185l0.032,0.494l0.107,0.21l0.008,0.241l0.153,0.114l0.018,0.242l-0.074,0.09l0.026,0.323l0.403,1.564l0.246,0.654l0.023,0.276l0.1,0.326l0.357,0.854l0.185,0.355l0.457,1.003l0.498,1.005l0.173,0.202l0.818,1.208l0.463,0.652l0.603,0.742l0.104,0.355l0.137,0.251l0.046,0.205l-0.063,0.145l-0.205,0.18l-0.132,0.627l0.237,1.013l0.379,0.71l0.159,0.261l0.382,0.738l0.17,0.507l0.081,0.168l0.108,0.377l0.17,0.332l0.007,0.118l0.542,1.169l0.169,0.307l0.077,0.29l0.225,0.499l0.34,1.2l0.004,0.481l-0.032,0.59l-0.042,0.356l-0.094,0.494l-0.044,0.369l-0.013,0.545l-0.129,0.865l-0.061,0.614l-0.083,0.38l0.063,0.338l-0.059,0.423l-0.13,0.182l-0.029,0.362l0.195,0.143l0.089,0.143l-0.069,0.224l-0.124,0.071l-0.193,0.001l-0.057,0.349l-0.082,0.209l0.161,0.177l-0.006,0.133l-0.199,0.319l-0.207,0.121l-0.157,-0.021l-0.136,0.208l0.074,0.156l-0.109,0.241l-0.285,0.181l-0.293,0.376l-0.176,0.082l-0.101,0.233l-0.16,0.077l-0.076,0.179l-0.327,0.121l-0.127,0.145l-0.254,0.123l-0.184,0.181l-0.671,0.344l-0.205,0.144l-0.368,0.065l-0.221,0.17l-0.137,0.017l-0.434,0.231l-0.122,0.019l-0.134,0.131l-0.413,0.019l-0.123,-0.065l-0.303,0.093l-0.361,0.179l-0.117,0.001l-0.493,0.141l-0.188,-0.004l-0.29,0.09l-0.213,-0.059l-0.071,0.06l0.047,0.188l-0.112,0.163l-0.377,0.166l-0.544,0.128l-0.273,-0.104l-0.272,0.168l-0.286,0.073l-0.426,0.022l-0.179,-0.169l0.029,-0.206l-0.262,-0.035l-0.149,-0.099l-0.086,-0.141l-0.177,0.124l-0.401,0.002l-0.163,-0.101l-0.072,-0.122l0.047,-0.254l0.243,-0.202l0.146,-0.048l0.299,0.016l0.295,0.146l0.208,-0.141l0.274,-0.114l0.377,-0.036l0.322,-0.173l0.444,-0.152l0.646,-0.387l0.326,-0.114l0.074,-0.074l0.371,-0.167l0.302,-0.075l0.179,0.055l0.404,0.017l0.219,-0.068l0.271,0.066l0.231,0.17l0.143,0.157l0.192,-0.018l0.172,0.095l0.537,-0.15l0.139,-0.122l-0.186,-0.121l-0.112,-0.231l-0.328,-0.318l-0.108,-0.323l-0.124,-0.174l-0.116,-0.037l-0.157,-0.177l-0.188,-0.092l-0.058,-0.229l-0.108,-0.108l-0.099,-0.236l0.203,-0.64l-0.051,-0.281l-0.086,-0.161l-0.2,-0.201l-0.091,-0.288l-0.254,-0.303l-0.128,-0.228l-0.278,-0.118l-0.246,-0.41l-0.228,-0.077l-0.222,-0.164l-0.316,-0.137l-0.217,0.202l-0.316,0.002l-0.164,-0.115l-0.129,-0.266l-0.177,-0.194l-0.166,-0.38l0.029,-0.106l-0.265,-0.465l-0.048,-0.237l-0.046,-0.555l-0.089,-0.327l-0.116,-0.285l-0.192,-0.23l-0.193,-0.127l-0.161,0.023l-0.326,0.125l-0.232,-0.033l-0.174,-0.118l-0.153,-0.195l-0.23,-0.099l-0.109,-0.109l-0.115,-0.358l-0.097,-0.154l-0.031,-0.182l-0.214,-0.287l0.021,-0.363l-0.109,-0.36l-0.302,-0.377l-0.563,-0.881l-0.348,-0.845l-0.312,-0.288l-0.047,-0.18l-0.249,-0.256l-0.146,-0.238l-0.159,-0.137l-0.161,-0.322l-0.269,-0.306l-0.044,-0.205l0.067,-0.32l0.028,-0.382l-0.371,-0.444l-0.14,-0.234l-0.041,-0.266l0.111,-0.385l0.054,-0.414l-0.099,-0.196l-0.063,-0.66l0.087,-0.202l0.293,-0.093l0.226,-0.192l-0.027,-0.287l0.29,-0.495l-0.014,-0.432l0.115,-0.333l-0.203,-0.318l-0.122,-0.276l0.002,-0.179l-0.137,-0.25l0.099,-0.347l-0.073,-0.17l-0.132,-0.048l-0.133,-0.223l0.069,-0.157l-0.035,-0.237l-0.082,-0.147l-0.113,-0.003l-0.333,-0.156l-0.267,0.132l-0.409,0.047l-0.187,-0.042l-0.177,-0.12l-0.121,-0.274l-0.027,-0.318l-0.333,-0.26l-0.026,-0.381l-0.316,-0.196l-0.058,-0.193l-0.232,-0.131l-0.044,-0.12l-0.35,-0.129l-0.129,-0.145l-0.102,-0.451l0.021,-0.228l-0.258,-0.111l-0.169,-0.193l-0.349,-0.141l-0.159,-0.217l-0.044,-0.299l-0.265,-0.322l-0.259,-0.183l-0.34,-0.055l-0.291,-0.136l-0.114,-0.132l-0.156,-0.017l-0.332,-0.253l-0.223,-0.048l-0.142,-0.122l-0.354,0.061l-0.171,0.181l-0.231,0.054l-0.358,-0.067l-0.075,0.088l0.045,0.189l-0.224,0.396l-0.215,0.105l-0.242,0.011l-0.336,-0.072l-0.202,0.132l-0.152,0.008l-0.052,0.197l-0.106,0.128l-0.234,0.113l-0.285,0.068l-0.517,0.412l-0.481,0.171l-0.547,0.282l-0.555,0.16l-0.25,-0.012l-0.168,-0.146l-0.343,-0.113l-0.329,-0.178l-0.307,-0.038l-0.185,0.138l-0.295,-0.037l-0.26,-0.298l-0.146,-0.341l-0.095,-0.504l0.028,-0.192l0.126,-0.171l-0.314,-0.056l-0.443,-0.265l-0.24,-0.271l-0.414,-0.151l-0.312,-0.174l-0.312,-0.255l-0.648,-0.346l-0.283,-0.113l-0.99,-0.34l-0.508,-0.137l-0.632,-0.11l-0.674,-0.026l-0.656,-0.083l-0.362,0.014l-1.047,0.122l-0.835,0.133l-0.397,0.085l-0.638,0.075l-0.207,-0.045l-0.527,0.118l-0.661,0.108l0,-0.285l0.098,-0.235l0.263,-0.094l0.055,-0.233l0.382,-0.212l-0.008,-0.077l-0.235,-0.055l-0.112,-0.121l-0.051,-0.253l0.199,-0.287l0.079,-0.227l-0.071,-0.247l-0.509,-0.244l-0.181,-0.148l-0.051,-0.152l-0.436,-0.357l0.031,-0.213l0.168,-0.409l-0.053,-0.166l2.455,-0.011l2.235,0.016l1.089,0.017l0.705,-0.005Zm18.308,32.239l-0.372,0.709l0.557,1.086l0.769,0.116l0.385,-0.491l-0.013,-0.745l-0.864,-0.773c-0.154,0.033 -0.308,0.065 -0.462,0.098Z" style="fill:#1b1b1a;"/><path id="Inner-Outline" serif:id="Inner Outline" d="M58.976,32.17c0,-14.902 -12.099,-27 -27,-27c-14.902,0 -27,12.098 -27,27c0,14.902 12.098,27 27,27c14.901,0 27,-12.098 27,-27Z" style="fill:none;stroke:#fff;stroke-width:3px;"/><path id="Outline" d="M61.5,32.174c0,-16.178 -13.135,-29.313 -29.313,-29.313c-16.178,0 -29.313,13.135 -29.313,29.313c0,16.178 13.135,29.313 29.313,29.313c16.178,0 29.313,-13.135 29.313,-29.313Z" style="fill:none;stroke:#1b1b1a;stroke-width:3px;"/></g></svg>