<?xml version="1.0" encoding="UTF-8" standalone="no"?><!DOCTYPE svg PUBLIC "-//W3C//DTD SVG 1.1//EN" "http://www.w3.org/Graphics/SVG/1.1/DTD/svg11.dtd"><svg width="100%" height="100%" viewBox="0 0 64 64" version="1.1" xmlns="http://www.w3.org/2000/svg" xmlns:xlink="http://www.w3.org/1999/xlink" xml:space="preserve" xmlns:serif="http://www.serif.com/" style="fill-rule:evenodd;clip-rule:evenodd;stroke-miterlimit:10;"><g id="Species"><g id="Fish"><g id="freshwater_fish"><path id="Outline" d="M58.626,31.687c0,-16.179 -13.135,-29.313 -29.313,-29.313c-16.178,0 -29.313,13.134 -29.313,29.313c0,16.178 13.135,29.313 29.313,29.313c16.178,0 29.313,-13.135 29.313,-29.313Z" style="fill:none;stroke:#000;stroke-width:3px;"/><path d="M26.677,37.649c0.33,0.373 0.414,0.904 0.217,1.361c-0.198,0.457 -0.642,0.759 -1.14,0.775c-1.19,-0.047 -4.016,-1.614 -5.764,-2.136c-1.747,-0.522 -2.889,-1.649 -3.244,-1.649c-0.666,0 -2.956,0.263 -5.142,0.187c-2.417,-0.085 -4.75,-0.512 -5.598,-0.547c-0.374,-0.016 -0.71,0.218 -1.017,0.161c-0.451,-0.083 -0.375,-0.237 -0.639,-0.427c-0.467,-0.337 -0.983,-0.529 -0.983,-1.184c0,-1.081 0.432,-1.234 1.239,-2.24c0.332,-0.415 0.572,-0.934 1.257,-1.722c0.182,-0.209 0.513,-0.399 0.89,-0.44c0.491,-0.053 1.222,0.066 1.75,0c2.102,-0.264 4.762,-1.484 7.307,-1.702c0.092,-0.008 0.649,-1.452 2.182,-2.504c1.298,-0.891 3.447,-1.419 5.023,-1.419c1.57,0 4.562,1.142 4.677,2.099c0.097,0.803 1.169,0.141 1.289,0c0.627,-0.74 2.067,-1.506 3.035,-2.099c1.662,-1.018 2.869,0.743 6.105,3.12c1.906,1.399 4.604,1.641 5.69,2.945c2.383,-0.294 5.571,-2.21 6.831,-2.551c0.626,-0.169 1.079,-0.295 1.498,-0.394c0.621,-0.285 1.353,-0.15 1.831,0.336c0.479,0.487 0.601,1.221 0.307,1.837c-0.436,0.663 -0.64,1.412 -0.67,2.184c-0.024,0.608 0.695,1.58 0.767,2.307c0.089,0.889 -0.712,2.426 -1.789,2.674c-1.354,0.312 -3.175,-0.853 -4.575,-1.582c-1.514,-0.79 -3.846,-1.052 -5.315,-1.092c-0.189,-0.005 -0.405,0.012 -0.635,0.046c-0.151,0.037 -0.308,0.065 -0.471,0.084c-1.172,0.002 -1.576,0 -1.576,0c-0.049,0.01 -0.715,1.448 -1.167,1.563c-0.86,0.219 -1.991,-0.172 -2.929,-0.154c-0.478,0.009 -2.599,0.254 -3.902,0.315c-1.636,0.077 -3.999,0.335 -5.91,0.145c-0.217,-0.021 -0.409,0.236 -0.284,0.415c0.247,0.379 0.543,0.834 0.855,1.288Z" style="fill:#1b1b1a;"/></g></g></g></svg>