<?xml version="1.0" encoding="UTF-8" standalone="no"?><!DOCTYPE svg PUBLIC "-//W3C//DTD SVG 1.1//EN" "http://www.w3.org/Graphics/SVG/1.1/DTD/svg11.dtd"><svg width="100%" height="100%" viewBox="0 0 64 64" version="1.1" xmlns="http://www.w3.org/2000/svg" xmlns:xlink="http://www.w3.org/1999/xlink" xml:space="preserve" xmlns:serif="http://www.serif.com/" style="fill-rule:evenodd;clip-rule:evenodd;stroke-miterlimit:10;"><g id="Species"><g id="Invertebrates"><g id="crayfish"><path id="Outline" d="M61.126,31.687c0,-16.179 -13.135,-29.313 -29.313,-29.313c-16.178,0 -29.313,13.134 -29.313,29.313c0,16.178 13.135,29.313 29.313,29.313c16.178,0 29.313,-13.135 29.313,-29.313Z" style="fill:none;stroke:#000;stroke-width:3px;"/><path d="M29.35,47.973c1.09,-0.429 2.308,-0.632 3.469,-0.622c1.032,0.028 2.114,0.224 3.098,0.59c2.523,0.51 4.765,2.809 5.457,5.419c0.325,1.228 -0.232,2.952 -1.909,2.939c-0.691,-0.005 -1.384,-0.173 -2.047,-0.466c-2.739,1.945 -7.59,2.131 -10.306,-0.642l-0.007,-0.006c-1.712,1.219 -3.752,1.84 -4.716,0.231c-1.286,-2.146 0.983,-5.126 3.63,-6.731c0.805,-0.487 1.492,-0.852 2.625,-0.844c0.24,0.009 0.481,0.053 0.706,0.132Z" style="fill:#1b1b1a;"/><g><path d="M32.953,16.097c0.748,-2.116 1.198,-4.223 3.35,-6.11c0.851,-0.745 4.342,-3.028 3.877,-2.468c-0.243,0.293 -2.843,1.974 -3.646,2.918c-0.764,0.899 -1.592,2.199 -2.036,3.226c-0.466,1.08 -0.818,2.239 -0.92,3.34c1.795,2.733 4.244,7.66 4.244,14.195c0,1.817 -0.771,3.947 -0.791,5.816c-0.051,4.904 0.48,9.462 -0.652,12.705c-0.885,2.536 -3.006,4.078 -4.269,4.066c-1.25,-0.011 -3.712,-1.584 -4.746,-4.467c-1.172,-3.264 -0.864,-7.56 -0.928,-12.304c-0.025,-1.821 -0.605,-4.07 -0.605,-5.816c0,-6.534 2.365,-11.461 4.098,-14.195c-0.106,-1.089 -0.456,-2.234 -0.917,-3.301c-0.443,-1.027 -1.271,-2.327 -2.035,-3.226c-0.803,-0.944 -3.403,-2.625 -3.646,-2.918c-0.465,-0.56 3.025,1.723 3.876,2.468c2.136,1.872 2.596,3.961 3.333,6.061c0.695,-0.989 1.182,-1.511 1.182,-1.511c0,0 0.508,0.525 1.231,1.521Z" style="fill:#1b1b1a;fill-rule:nonzero;"/><path d="M31.799,14.082c0.238,0.057 0.398,0.269 0.563,0.457c4.33,5.04 6.901,12.048 5.74,18.708c-0.845,4.653 -0.062,9.534 -0.7,14.232c-0.359,2.644 -1.632,5.375 -4.005,6.485c-2.62,1.226 -5.87,-1.903 -6.809,-5.463c-1.12,-4.248 -0.252,-8.937 -0.8,-13.226c-0.335,-2.522 -0.558,-5.075 -0.229,-7.599c0.639,-4.904 2.523,-9.789 5.776,-13.418c0,0 0.214,-0.195 0.464,-0.176Zm-0.075,1.262c-3.963,4.926 -6.098,11.397 -5.213,17.913c0.662,4.674 -0.029,9.463 0.829,14.028c0.475,2.525 1.841,5.206 4.317,5.924c2.053,0.595 4.123,-2.338 4.647,-5.193c0.681,-3.701 0.045,-7.591 0.24,-11.383c0.141,-2.29 0.872,-4.425 0.739,-6.832c-0.286,-5.215 -2.179,-10.348 -5.468,-14.359c0,0 -0.072,-0.122 -0.091,-0.098Z" style="fill:#fff;fill-rule:nonzero;"/></g><g><g><path d="M35.572,25.165l4.301,-1.25l4.473,-2.699l0.83,2.133l-4.258,3.038l-4.505,1.264c0,0 -1.053,-2.538 -0.841,-2.486Z" style="fill:#1b1b1a;"/><path d="M47.107,21.364c-0.271,0.2 -0.572,0.344 -0.9,0.422c-1.931,0.458 -4.068,-1.549 -4.77,-4.48c-0.701,-2.93 0.298,-5.681 2.229,-6.139c0.433,-0.103 0.878,-0.081 1.313,0.047c-0.958,0.792 -1.267,3.08 -0.668,5.582c0.544,2.276 1.681,4.058 2.796,4.568Z" style="fill:#1b1b1a;stroke:#fff;stroke-width:1px;stroke-linecap:round;stroke-linejoin:round;stroke-miterlimit:1.5;"/><path d="M43.706,10.35c0.395,-0.293 0.821,-0.454 1.265,-0.454c2.053,0 3.719,3.421 3.719,7.635c0,4.214 -1.666,7.634 -3.719,7.634c-2.052,0 -3.719,-3.42 -3.719,-7.634c0,-0.207 0.004,-0.412 0.012,-0.614c0.376,0.388 0.825,0.614 1.306,0.614c1.325,0 2.401,-1.711 2.401,-3.817c0,-1.454 -0.512,-2.719 -1.265,-3.364Z" style="fill:#1b1b1a;stroke:#fff;stroke-width:1px;stroke-linecap:round;stroke-linejoin:round;stroke-miterlimit:1.5;"/></g><g><path d="M28.368,24.784l-4.476,-1.302l-4.654,-2.808l-0.864,2.22l4.431,3.161l4.688,1.315c0,0 1.095,-2.641 0.875,-2.586Z" style="fill:#1b1b1a;"/><path d="M16.366,20.829c0.281,0.208 0.594,0.357 0.936,0.438c2.009,0.477 4.233,-1.611 4.962,-4.66c0.73,-3.049 -0.309,-5.912 -2.318,-6.389c-0.452,-0.107 -0.914,-0.084 -1.367,0.049c0.997,0.824 1.319,3.205 0.696,5.808c-0.567,2.369 -1.75,4.223 -2.909,4.754Z" style="fill:#1b1b1a;stroke:#fff;stroke-width:1px;stroke-linecap:round;stroke-linejoin:round;stroke-miterlimit:1.5;"/><path d="M19.904,9.369c-0.411,-0.306 -0.855,-0.473 -1.317,-0.473c-2.135,0 -3.869,3.56 -3.869,7.944c0,4.384 1.734,7.944 3.869,7.944c2.136,0 3.87,-3.56 3.87,-7.944c0,-0.215 -0.004,-0.428 -0.012,-0.639c-0.392,0.404 -0.858,0.639 -1.359,0.639c-1.379,0 -2.499,-1.78 -2.499,-3.972c0,-1.512 0.533,-2.829 1.317,-3.499Z" style="fill:#1b1b1a;stroke:#fff;stroke-width:1px;stroke-linecap:round;stroke-linejoin:round;stroke-miterlimit:1.5;"/></g></g><path d="M27.674,34.836l-0.375,-1.062l-3.47,0.471l-3.891,5.22l1.1,1.223l3.072,-5.646l3.564,-0.206Zm8.15,0l0.375,-1.062l3.47,0.471l3.891,5.22l-1.1,1.223l-3.072,-5.646l-3.564,-0.206Zm0.084,-2.316l0.23,-1.271l4.464,-0.176l6.072,5.078l-1.103,1.598l-5.141,-5.723l-4.522,0.494Zm-8.318,0l-0.23,-1.271l-4.464,-0.176l-6.072,5.078l1.103,1.598l5.141,-5.723l4.522,0.494Zm8.85,-1.498l0,-1.475l5.566,-1.106l8.777,4.474l-1.022,2.021l-7.755,-5.389l-5.566,1.475Zm-8.657,0l0,-1.475l-5.565,-1.106l-8.778,4.474l1.022,2.021l7.756,-5.389l5.565,1.475Zm1.273,-11.382c0.633,0 1.147,0.551 1.147,1.231c0,0.679 -0.514,1.23 -1.147,1.23c-0.633,0 -1.146,-0.551 -1.146,-1.23c0,-0.68 0.513,-1.231 1.146,-1.231Zm6,0c0.633,0 1.147,0.551 1.147,1.231c0,0.679 -0.514,1.23 -1.147,1.23c-0.633,0 -1.146,-0.551 -1.146,-1.23c0,-0.68 0.513,-1.231 1.146,-1.231Z" style="fill:#1b1b1a;"/></g></g></g></svg>