<?xml version="1.0" encoding="UTF-8" standalone="no"?><!DOCTYPE svg PUBLIC "-//W3C//DTD SVG 1.1//EN" "http://www.w3.org/Graphics/SVG/1.1/DTD/svg11.dtd"><svg width="100%" height="100%" viewBox="0 0 64 64" version="1.1" xmlns="http://www.w3.org/2000/svg" xmlns:xlink="http://www.w3.org/1999/xlink" xml:space="preserve" xmlns:serif="http://www.serif.com/" style="fill-rule:evenodd;clip-rule:evenodd;stroke-miterlimit:10;"><g id="Habitats"><g id="Freshwater"><g id="freshwater-ecosystem" serif:id="freshwater ecosystem"><path d="M22.795,47.677c-5.911,0 -10.825,1.884 -11.853,4.369c0.305,0.394 0.936,1.155 1.742,1.847c0.334,0.287 0.739,0.615 1.228,0.985c0.324,0.245 0.683,0.508 1.084,0.789c2.124,1.488 3.735,2.23 4.241,2.448c1.125,0.153 2.319,0.236 3.558,0.236c2.632,0 6.971,-0.618 7.049,-1.008c0.078,-0.39 -4.494,-4.058 -4.172,-4.329c0.322,-0.271 6.87,2.734 7.444,2.758c0.574,0.025 1.733,-1.748 1.733,-2.758c0,-2.948 -5.397,-5.337 -12.054,-5.337Zm30.016,0.239c-0.005,-2.504 -4.264,-4.217 -9.524,-4.217c-5.259,0 -9.523,1.888 -9.523,4.217c0,1.893 6.316,4.212 6.701,4.028c0.385,-0.184 1.921,-3.446 2.266,-3.428c0.345,0.017 1.472,3.443 2.05,3.564c1.436,0.301 8.034,-2.166 8.03,-4.164Zm-21.634,-11.983c0.032,-0.026 0.069,-0.055 0.106,-0.084c0.094,-0.073 0.191,-0.15 0.255,-0.203c0.1,-0.083 0.2,-0.169 0.309,-0.242c0.051,-0.034 0.097,-0.073 0.149,-0.087c0.013,-0.003 0.027,-0.005 0.041,-0.005c0.008,0 0.016,0 0.025,0.002c0.004,0 0.009,0.001 0.013,0.003c0.003,0 0.006,0.001 0.009,0.002c0.034,0.011 0.069,0.035 0.102,0.063c0.017,0.014 0.033,0.029 0.048,0.044c0.031,0.03 0.059,0.061 0.082,0.086c0.058,0.06 0.113,0.121 0.167,0.184c0.062,0.073 0.122,0.149 0.177,0.227c0.042,0.058 0.081,0.117 0.116,0.177c0.001,0.001 0.002,0.003 0.003,0.005c0.008,0.012 0.015,0.024 0.022,0.036c0.159,-0.114 0.311,-0.202 0.455,-0.268c0.095,-0.044 0.187,-0.079 0.274,-0.105l0.012,-0.003c0.035,-0.011 0.07,-0.021 0.105,-0.031c0.154,-0.042 0.306,-0.074 0.47,-0.081c0.011,0 0.022,0 0.033,0c0.004,0 0.008,0 0.012,0c0.028,0 0.054,0.002 0.077,0.006c0.01,0.001 0.02,0.003 0.029,0.005c0.028,0.006 0.052,0.015 0.073,0.027c0.052,0.028 0.088,0.073 0.116,0.136c0.017,0.038 0.031,0.082 0.044,0.134c0.001,0.004 0.002,0.009 0.003,0.014c0.025,0.103 0.045,0.208 0.06,0.313c0.018,0.121 0.031,0.242 0.042,0.365c0.014,0.175 0.019,0.329 0.01,0.481c-0.001,0.01 -0.001,0.021 -0.002,0.031c-0.002,0.095 0,0.208 -0.01,0.311c-0.005,0.057 -0.012,0.115 -0.021,0.165c-0.028,0.162 -0.054,0.327 -0.082,0.493c-0.015,0.092 -0.031,0.184 -0.048,0.276c0.121,-0.061 0.247,-0.116 0.375,-0.162c0.061,-0.022 0.122,-0.043 0.185,-0.061c0.051,-0.016 0.103,-0.03 0.155,-0.042c0.019,-0.005 0.038,-0.01 0.056,-0.015c0.091,-0.023 0.151,-0.038 0.229,-0.052c0.047,-0.01 0.098,-0.02 0.145,-0.029c0.054,-0.01 0.102,-0.018 0.134,-0.023c0.028,-0.005 0.056,-0.009 0.082,-0.012c0.031,-0.004 0.061,-0.007 0.092,-0.01c0.074,-0.007 0.148,-0.009 0.228,-0.007c0.017,0 0.033,0 0.048,0.001c0.057,0.002 0.103,0.007 0.137,0.029c0,0 0,0 0.001,0c0.027,0.019 0.047,0.049 0.056,0.098c0.003,0.014 0.005,0.03 0.006,0.048l0.001,0.023c0.003,0.054 0.006,0.047 -0.101,0.254c-0.012,0.024 -0.025,0.05 -0.038,0.074c-0.004,0.007 -0.008,0.015 -0.012,0.022c-0.033,0.059 -0.058,0.104 -0.08,0.142l0,0c0.074,0.01 0.15,0.016 0.223,0.026c0.127,0.017 0.265,0.008 0.373,0.085c0.003,0.002 0.006,0.003 0.008,0.005c0.071,0.054 0.093,0.107 0.081,0.162c-0.004,0.018 -0.011,0.036 -0.022,0.054c-0.007,0.013 -0.016,0.025 -0.027,0.038c-0.002,0.003 -0.004,0.006 -0.007,0.009c-0.006,0.007 -0.012,0.014 -0.019,0.021c-0.071,0.075 -0.141,0.146 -0.206,0.224c-0.006,0.008 -0.013,0.015 -0.019,0.023c-0.004,0.005 -0.009,0.011 -0.013,0.017c-0.012,0.014 -0.024,0.029 -0.036,0.043c-0.02,0.024 -0.039,0.045 -0.061,0.068l-0.043,0.044c-0.015,0.016 -0.032,0.035 -0.048,0.052c-0.004,0.004 -0.007,0.008 -0.011,0.011c-0.013,0.014 -0.027,0.028 -0.041,0.042c-0.012,0.013 -0.025,0.026 -0.038,0.038c-0.022,0.023 -0.045,0.046 -0.068,0.07c-0.016,0.017 -0.033,0.035 -0.05,0.052c-0.082,0.08 -0.157,0.163 -0.241,0.237c0.015,0.002 0.03,0.004 0.043,0.005c0.023,0.003 0.042,0.007 0.058,0.01c0.085,0.019 0.173,0.032 0.259,0.037c0.008,0.001 0.016,0.001 0.023,0.001c0.087,0.004 0.171,0 0.25,-0.013c0.014,-0.002 0.032,-0.007 0.052,-0.013c0.016,-0.005 0.033,-0.01 0.05,-0.015c0.014,-0.003 0.027,-0.006 0.04,-0.008c0.036,-0.005 0.067,0 0.083,0.026c0.006,0.011 0.008,0.024 0.007,0.039c-0.001,0.015 -0.006,0.032 -0.013,0.051c-0.024,0.064 -0.075,0.14 -0.093,0.179c-0.003,0.006 -0.006,0.012 -0.009,0.018c-0.006,0.012 -0.012,0.023 -0.018,0.035c0.039,0.011 0.079,0.022 0.118,0.035l0.024,0.007c0.037,0.012 0.072,0.023 0.107,0.033c0.072,0.021 0.14,0.039 0.205,0.053c0.13,0.029 0.254,0.047 0.401,0.063c0.056,0.006 0.093,0.01 0.143,0.019c0.03,0.005 0.066,0.011 0.095,0.017c0.011,0.002 0.021,0.005 0.028,0.007c0.011,0.003 0.021,0.006 0.03,0.008c0.019,0.006 0.036,0.011 0.05,0.015c0.013,0.004 0.022,0.008 0.028,0.011l0.004,0.003c0.001,0.001 0.002,0.001 0.002,0.002c0,0.001 0.001,0.002 0.001,0.003c0.001,0.005 0.001,0.01 0,0.016l-0.003,0.013c-0.006,0.021 -0.022,0.046 -0.04,0.072c-0.019,0.026 -0.042,0.052 -0.062,0.077c0,0 0,0 0,0c0,0 0,0 0,0c-0.022,0.026 -0.014,0.021 -0.043,0.051l-0.014,0.014c-0.005,0.006 -0.011,0.011 -0.017,0.017c-0.01,0.008 -0.019,0.015 -0.027,0.022c-0.016,0.013 -0.03,0.026 -0.051,0.041c-0.033,0.023 -0.066,0.046 -0.099,0.069c-0.019,0.013 -0.038,0.026 -0.057,0.039c-0.233,0.156 -0.468,0.291 -0.706,0.41c-0.613,0.305 -1.249,0.504 -1.942,0.692c-0.128,0.035 -0.267,0.064 -0.415,0.087c-0.047,0.007 -0.094,0.014 -0.142,0.02c-0.051,0.007 -0.102,0.013 -0.155,0.018c-0.181,0.019 -0.372,0.031 -0.568,0.035c-0.023,0.001 -0.046,0.001 -0.069,0.002c0.017,0.015 0.035,0.031 0.053,0.046l0.017,0.014c0.165,0.14 0.323,0.293 0.508,0.406c0.001,0 0.001,0.001 0.002,0.001c0.072,0.044 0.144,0.089 0.215,0.133c0.037,0.023 0.073,0.045 0.11,0.068c0.236,0.146 0.474,0.29 0.722,0.409c0.01,0.005 0.021,0.01 0.031,0.015c0.153,0.072 0.303,0.161 0.452,0.233c0.025,0.013 0.051,0.025 0.076,0.036c0.004,0.002 0.009,0.004 0.013,0.006c0.038,0.016 0.076,0.032 0.114,0.047c0.025,0.009 0.108,0.038 0.179,0.064c0.03,0.012 0.059,0.023 0.08,0.032c0.021,0.007 0.088,0.039 0.097,0.048c0.001,0.002 0.003,0.004 0.005,0.006c0.013,0.014 0.027,0.028 0.039,0.043c0.002,0.002 0.004,0.005 0.006,0.007c0.008,0.01 0.015,0.02 0.022,0.032c0.003,0.004 0.005,0.01 0.008,0.015l0.005,0.011c0.003,0.006 0.003,0.015 0.001,0.026c-0.005,0.029 -0.025,0.07 -0.049,0.096c-0.053,0.045 -0.09,0.07 -0.133,0.091c-0.036,0.017 -0.078,0.031 -0.138,0.051c-0.028,0.009 -0.056,0.018 -0.087,0.026c-0.061,0.016 -0.129,0.03 -0.198,0.042c-0.061,0.01 -0.124,0.019 -0.185,0.025c-0.04,0.004 -0.079,0.007 -0.116,0.009c-0.173,0.008 -0.344,0.008 -0.514,-0.001c-0.177,-0.008 -0.353,-0.025 -0.53,-0.049c-0.272,-0.037 -0.551,-0.107 -0.822,-0.2c-0.171,-0.059 -0.339,-0.127 -0.499,-0.202c-0.116,-0.054 -0.233,-0.11 -0.344,-0.174c-0.077,-0.045 -0.152,-0.094 -0.22,-0.149c-0.013,-0.011 -0.026,-0.021 -0.038,-0.032c-0.026,-0.022 -0.054,-0.046 -0.083,-0.071c-0.08,-0.068 -0.168,-0.145 -0.246,-0.224c0,0 -0.001,0 -0.002,0c-0.054,0.007 -0.109,0.012 -0.145,0.015c-0.019,0.002 -0.033,0.003 -0.04,0.003c-0.034,0 -0.075,-0.003 -0.118,-0.005c-0.012,-0.001 -0.025,-0.001 -0.038,-0.002c-0.018,-0.001 -0.058,-0.004 -0.077,-0.008c-0.005,-0.001 -0.011,-0.002 -0.017,-0.004c-0.064,-0.012 -0.15,-0.024 -0.209,-0.039c-0.018,-0.004 -0.087,-0.021 -0.161,-0.04c-0.067,-0.018 -0.138,-0.039 -0.175,-0.056c-0.068,-0.031 -0.109,-0.044 -0.145,-0.074c-0.017,-0.01 -0.042,-0.024 -0.065,-0.039c-0.015,-0.009 -0.029,-0.018 -0.039,-0.025c-0.006,-0.004 -0.011,-0.008 -0.014,-0.011c-0.021,-0.02 -0.041,-0.04 -0.061,-0.06c-0.013,-0.012 -0.025,-0.024 -0.037,-0.037c-0.096,0.12 -0.201,0.232 -0.314,0.338c-0.085,0.078 -0.174,0.153 -0.266,0.223c-0.175,0.134 -0.361,0.253 -0.554,0.358c-0.057,0.031 -0.116,0.062 -0.174,0.091c-0.031,0.015 -0.061,0.03 -0.092,0.044c-0.01,0.005 -0.021,0.01 -0.032,0.015c-0.006,0.003 -0.011,0.005 -0.017,0.008c-0.176,0.081 -0.354,0.149 -0.535,0.204c-0.278,0.083 -0.564,0.135 -0.863,0.15l-0.073,0.003c-0.256,0.008 -0.505,-0.026 -0.751,-0.063c-0.071,-0.011 -0.141,-0.022 -0.211,-0.032c-0.025,-0.003 -0.054,-0.007 -0.084,-0.013c-0.047,-0.008 -0.1,-0.018 -0.153,-0.031c-0.031,-0.008 -0.063,-0.017 -0.094,-0.027c-0.039,-0.012 -0.076,-0.025 -0.109,-0.038c-0.079,-0.032 -0.138,-0.071 -0.163,-0.134c-0.007,-0.017 -0.012,-0.036 -0.014,-0.056c0.003,-0.022 0.01,-0.038 0.019,-0.051c0.019,-0.025 0.047,-0.035 0.072,-0.045c0.007,-0.003 0.013,-0.005 0.02,-0.008c0.008,-0.003 0.016,-0.006 0.024,-0.008c0.002,-0.001 0.005,-0.001 0.007,-0.002c0.011,-0.004 0.023,-0.007 0.034,-0.009c0.004,-0.001 0.007,-0.002 0.011,-0.002c0.015,-0.003 0.029,-0.006 0.042,-0.011c0.015,-0.004 0.045,-0.014 0.077,-0.021c0.006,-0.001 0.011,-0.002 0.016,-0.003c0.046,-0.008 0.081,-0.02 0.144,-0.048c0.056,-0.025 0.11,-0.054 0.154,-0.072c0.054,-0.023 0.106,-0.049 0.155,-0.078c0.067,-0.039 0.131,-0.084 0.195,-0.135c0.016,-0.013 0.033,-0.026 0.049,-0.039c0.098,-0.079 0.192,-0.16 0.286,-0.243c0.113,-0.099 0.226,-0.2 0.343,-0.299c0.003,-0.002 0.006,-0.004 0.009,-0.007c0.084,-0.07 0.18,-0.135 0.27,-0.203c0.015,-0.012 0.03,-0.021 0.045,-0.03c0.002,-0.002 0.004,-0.003 0.006,-0.004c0.028,-0.016 0.055,-0.029 0.083,-0.039c0.049,-0.019 0.1,-0.031 0.158,-0.047c0.039,-0.01 0.076,-0.024 0.112,-0.041c0.055,-0.024 0.107,-0.055 0.158,-0.087c-0.162,0.009 -0.325,0.012 -0.489,0.007c-0.084,-0.003 -0.169,-0.008 -0.255,-0.015c-0.172,-0.014 -0.342,-0.041 -0.511,-0.077c-0.161,-0.034 -0.32,-0.076 -0.478,-0.121c-0.074,-0.021 -0.147,-0.044 -0.219,-0.068c-0.37,-0.121 -0.727,-0.278 -1.071,-0.461c-0.187,-0.1 -0.37,-0.208 -0.549,-0.323c-0.117,-0.075 -0.233,-0.153 -0.346,-0.234c-0.197,-0.14 -0.389,-0.287 -0.575,-0.44l-0.005,-0.004c-0.02,-0.017 -0.04,-0.034 -0.059,-0.052c-0.013,-0.012 -0.026,-0.024 -0.039,-0.037c-0.035,-0.03 -0.071,-0.066 -0.105,-0.105c-0.074,-0.082 -0.145,-0.176 -0.197,-0.246l0,0c-0.003,-0.003 -0.006,-0.007 -0.008,-0.011c-0.004,-0.005 -0.008,-0.01 -0.011,-0.014c-0.013,-0.018 -0.022,-0.035 -0.028,-0.05c-0.004,-0.01 -0.006,-0.019 -0.007,-0.027c-0.002,-0.016 0,-0.03 0.006,-0.043c0.009,-0.02 0.026,-0.036 0.049,-0.049c0,-0.001 0.001,-0.001 0.001,-0.001c0.011,-0.007 0.024,-0.013 0.037,-0.018c0.014,-0.005 0.028,-0.01 0.044,-0.015c0.003,-0.001 0.01,-0.002 0.019,-0.003c0.027,-0.003 0.07,-0.006 0.094,-0.006c0.035,0.001 0.052,0.001 0.069,0.002c0.018,0.001 0.035,0.002 0.071,0.003c0.025,0.001 0.05,0.003 0.075,0.004c0.049,0.003 0.098,0.006 0.148,0.011c0.008,0 0.016,0.001 0.024,0.002c0.262,0.025 0.523,0.078 0.783,0.119c0.231,0.037 0.461,0.082 0.689,0.135c0.008,0.001 0.017,0.004 0.026,0.006c0.006,0.001 0.013,0.003 0.019,0.004c-0.05,-0.048 -0.099,-0.097 -0.146,-0.147c-0.006,-0.006 -0.012,-0.012 -0.017,-0.019c-0.04,-0.042 -0.078,-0.086 -0.116,-0.13c-0.032,-0.039 -0.064,-0.079 -0.094,-0.119c-0.012,-0.015 -0.024,-0.031 -0.036,-0.047c-0.048,-0.066 -0.094,-0.134 -0.136,-0.204c-0.027,-0.043 -0.053,-0.087 -0.08,-0.131l-0.01,-0.017c-0.04,-0.066 -0.069,-0.115 -0.099,-0.17c-0.023,-0.043 -0.045,-0.089 -0.072,-0.151c-0.036,-0.082 -0.081,-0.179 -0.116,-0.269c0,0 0,0 0,0c-0.02,-0.051 -0.04,-0.103 -0.057,-0.151c-0.081,-0.231 -0.18,-0.495 -0.212,-0.736c-0.004,-0.024 -0.006,-0.048 -0.008,-0.072c-0.001,-0.008 -0.002,-0.015 -0.002,-0.023c0,-0.002 0,-0.005 0,-0.008c-0.001,-0.007 -0.001,-0.013 -0.001,-0.02c-0.001,-0.012 -0.001,-0.025 -0.001,-0.037c0,-0.002 0,-0.004 0,-0.005c0,-0.018 0.003,-0.034 0.006,-0.047c0.003,-0.008 0.006,-0.016 0.01,-0.022c0.007,-0.013 0.017,-0.022 0.028,-0.028l0.001,-0.001c0.019,-0.011 0.042,-0.015 0.067,-0.015l0.012,0.001c0.044,0.001 0.094,0.012 0.139,0.018c0.16,0.022 0.309,0.066 0.458,0.113c0.04,0.013 0.08,0.026 0.12,0.039c0.068,0.022 0.171,0.061 0.236,0.084l0.022,0.007c0.009,0.003 0.017,0.006 0.023,0.008c0.036,0.016 0.069,0.029 0.101,0.042l0.016,0.007c0.037,0.015 0.074,0.031 0.112,0.053l0.036,0.019c0.012,0.007 0.024,0.014 0.036,0.021c0.076,0.044 0.153,0.092 0.229,0.141l0.017,0.012c-0.041,-0.219 -0.078,-0.436 -0.077,-0.69c0,-0.018 0,-0.035 0.001,-0.053c0.001,-0.045 0.003,-0.091 0.008,-0.135c0,-0.003 0.001,-0.005 0.001,-0.008c0.007,-0.051 0.025,-0.074 0.05,-0.082c0.008,-0.003 0.016,-0.004 0.025,-0.004c0.004,0 0.009,0.001 0.013,0.001c0.02,0.002 0.043,0.008 0.067,0.015c0,0 0.001,0 0.002,0.001c0.021,0.006 0.044,0.014 0.067,0.02c0.008,0.001 0.015,0.003 0.023,0.005c0.007,0.002 0.014,0.004 0.021,0.006c0.025,0.006 0.05,0.012 0.076,0.018c0.062,0.015 0.128,0.031 0.192,0.049c0.014,0.004 0.028,0.008 0.042,0.011c0.064,0.017 0.128,0.033 0.186,0.051c0.058,0.021 0.112,0.035 0.166,0.051c-0.001,-0.015 -0.001,-0.029 -0.001,-0.041c0,-0.008 0.001,-0.015 0.001,-0.022c0.017,-0.193 0.04,-0.387 0.072,-0.58c0.003,-0.018 0.007,-0.037 0.011,-0.056c0.015,-0.071 0.039,-0.152 0.061,-0.22c0.003,-0.011 0.007,-0.022 0.01,-0.032c0.007,-0.02 0.014,-0.039 0.02,-0.057c0.04,-0.117 0.066,-0.204 0.12,-0.327c0.005,-0.012 0.01,-0.024 0.015,-0.036c0.011,-0.024 0.021,-0.048 0.032,-0.072c0.013,-0.031 0.028,-0.062 0.043,-0.094c0.059,-0.128 0.129,-0.263 0.192,-0.383l0.008,-0.015c0.007,-0.013 0.014,-0.026 0.021,-0.039c0.018,-0.035 0.043,-0.056 0.072,-0.068c0.006,-0.002 0.012,-0.004 0.018,-0.006c0.028,-0.008 0.06,-0.007 0.094,0c0.022,0.004 0.045,0.01 0.068,0.019c0.01,0.003 0.021,0.007 0.031,0.012l0.019,0.007c0.002,0.001 0.005,0.002 0.007,0.003c0.097,0.04 0.191,0.078 0.281,0.114c0.017,0.007 0.033,0.014 0.05,0.02c0.036,0.015 0.072,0.03 0.108,0.044c0.129,0.053 0.231,0.107 0.337,0.16c0.043,0.021 0.086,0.043 0.131,0.064c0.035,0.019 0.068,0.04 0.101,0.06c0.014,0.009 0.029,0.018 0.043,0.027c0.015,0.01 0.031,0.02 0.045,0.031c0.081,0.056 0.153,0.117 0.219,0.18c0.009,0.009 0.018,0.017 0.026,0.025c0.094,0.091 0.18,0.188 0.262,0.288c0.005,0.007 0.012,0.015 0.018,0.023c0.012,0.016 0.024,0.033 0.036,0.051c0.04,0.002 0.078,0.02 0.115,0.042c0.031,0.019 0.061,0.041 0.088,0.057c0.024,0.015 0.048,0.029 0.073,0.043c0.011,0.007 0.022,0.013 0.034,0.02c0.101,0.058 0.203,0.113 0.304,0.171c0.021,-0.063 0.046,-0.125 0.074,-0.186c0.007,-0.014 0.014,-0.028 0.021,-0.043c0.025,-0.049 0.05,-0.095 0.077,-0.138c0.04,-0.065 0.082,-0.124 0.13,-0.178c0.072,-0.082 0.151,-0.151 0.237,-0.223c0.07,-0.057 0.144,-0.117 0.222,-0.186c0.017,-0.013 0.035,-0.028 0.055,-0.045Zm-17.204,1.312c-4.534,0 -8.209,1.577 -8.209,3.521c0,1.076 2.381,2.633 2.897,2.683c0.516,0.051 2.799,-2.383 3.161,-2.245c0.363,0.137 -0.141,2.559 0.171,2.818c0.312,0.26 1.326,0.265 1.98,0.265c4.534,0 8.209,-1.576 8.209,-3.521c0,-1.944 -3.675,-3.521 -8.209,-3.521Zm43.442,1.195c-0.793,0.016 -4.383,1.768 -4.521,1.644c-0.138,-0.123 0.446,-2.137 0.292,-2.283c-0.154,-0.145 -0.442,-0.162 -0.668,-0.162c-4.061,0 -7.353,0.779 -7.353,3.154c0,1.742 3.292,3.154 7.353,3.154c4.061,0 7.354,-1.412 7.354,-3.154c0,-0.935 -1.664,-2.368 -2.457,-2.353Zm-12.806,-6.741c-0.76,0 -1.929,0.029 -2.184,0.12c-0.255,0.09 1.43,2.351 1.108,2.351c-0.323,0 -3.238,-1.783 -3.869,-1.78c-0.631,0.003 -2.529,1.245 -2.529,2.069c0,1.524 2.365,2.636 7.474,2.76c4.126,0.101 7.474,-1.236 7.474,-2.76c0,-1.524 -3.346,-2.76 -7.474,-2.76Zm-12.717,-3.009c-3.425,0 -6.202,1.026 -6.202,2.291c0,0.336 0.229,0.815 0.552,0.944c0.322,0.128 3.091,-1.049 3.263,-0.944c0.173,0.104 -0.435,1.842 -0.291,2.066c0.143,0.224 1.719,0.224 2.678,0.224c3.425,0 6.202,-1.025 6.202,-2.29c0,-1.265 -2.777,-2.291 -6.202,-2.291Zm14.494,0.133c-0.09,-0.082 2.919,-0.355 2.919,-0.573c0,-0.219 -2.446,-1.209 -4.568,-1.209c-2.664,0 -4.824,0.798 -4.824,1.782c0,0.984 2.16,1.781 4.824,1.781c1.971,0 4.382,-0.835 4.413,-1.062c0.032,-0.227 -2.675,-0.638 -2.764,-0.719Zm-29.995,-11.58c0.356,0.047 0.712,0.094 0.945,0.023c0.109,-0.033 0.242,-0.099 0.231,-0.213c-0.008,-0.08 -0.09,-0.14 -0.093,-0.22c-0.003,-0.098 0.106,-0.156 0.198,-0.19c0.284,-0.103 0.881,0.027 0.851,-0.31c-0.031,-0.338 -0.269,-0.198 -0.521,-0.394c-0.253,-0.197 0.053,-0.628 0.336,-0.76c0.283,-0.131 0.609,-0.11 0.92,-0.13c0.426,-0.027 0.847,-0.137 1.233,-0.321c-0.338,-0.138 -0.494,-0.601 -0.309,-0.915c0.224,-0.277 0.659,-0.264 0.986,-0.125c0.328,0.139 0.611,0.375 0.95,0.484c0.338,0.11 0.785,0.038 0.93,-0.288c-0.025,-0.107 -0.191,0.024 -0.23,-0.208c-0.039,-0.233 1.004,-0.564 1.545,-0.425c0.086,-0.098 0.013,-0.255 -0.085,-0.341c-0.098,-0.086 -0.225,-0.151 -0.276,-0.271c-0.066,-0.158 0.039,-0.348 0.19,-0.431c0.151,-0.083 0.331,-0.086 0.503,-0.082c0.325,0.007 0.754,0.144 0.731,0.468c0.263,0.043 0.392,-0.179 0.79,0.129c0.399,0.308 0.066,0.663 0.263,0.925c0.306,-0.125 0.639,-0.254 0.96,-0.175c0.322,0.08 0.582,0.47 0.404,0.75c0.356,0.022 0.899,-0.029 1.016,0.303c0.118,0.331 -0.147,0.499 -0.354,0.648c-0.049,0.339 0.1,0.476 0.388,0.569c0.195,-0.422 0.831,-0.202 1.291,-0.272c0.549,-0.082 0.039,-0.866 0.786,-1.142c0.344,-0.126 0.996,-0.155 1.003,0.483c0.002,0.141 0.037,0.149 0.04,0.338c0.002,0.133 0.128,0.231 0.254,0.19c0.406,-0.132 0.89,0.031 1.133,0.382c0.099,0.142 0.163,0.313 0.292,0.43c0.402,0.365 1.068,-0.029 1.582,0.149c0.377,0.131 0.771,0.73 1.146,0.592c0.304,-0.111 -0.453,-0.582 -0.313,-0.845c0.14,-0.263 0.444,-0.079 0.633,-0.367c0.19,-0.289 -0.44,-0.52 -0.822,-0.512c-0.382,0.008 -1.117,0.108 -1.099,-0.172c0.018,-0.279 1.702,-0.044 1.706,-0.43c0.005,-0.46 -1.898,0.038 -2.06,-0.659c-0.172,-0.742 0.97,-0.597 1.162,-0.858c0.222,-0.302 0.626,-0.435 0.99,-0.529c0.947,-0.242 2.115,0.292 2.764,0.664c0.649,0.371 0.421,0.81 0.027,0.755c-0.393,-0.056 -1.481,-0.124 -1.603,0.278c-0.088,0.289 0.427,0.34 0.492,0.345c0.161,0.012 1.094,-0.132 1.261,0.358c0.167,0.49 -0.878,0.258 -1.429,0.181c0.066,0.127 0.011,0.31 -0.053,0.436c0.111,0.04 0.059,0.021 0.17,0.061c0.111,0.032 0.249,0.247 0.163,0.325c-0.087,0.077 -0.362,0.065 -0.449,0.141c-0.256,0.224 -0.042,0.654 0.233,0.852c0.436,0.315 0.875,0.291 1.398,0.164c-0.117,-0.311 0.456,-0.378 0.78,-0.443c0.325,-0.065 0.733,-0.365 0.536,-0.631c-0.116,-0.156 -0.369,-0.143 -0.496,-0.29c-0.302,-0.35 0.548,-0.739 0.388,-1.236c-0.16,-0.498 -0.384,-0.272 -0.523,-0.461c-0.122,-0.298 0.197,-0.601 0.509,-0.678c0.312,-0.077 0.876,0.224 1.157,0.069c0.516,-0.286 0.663,-1.237 1.232,-1.394c0.668,-0.184 0.958,0.075 1.144,0.299c0.357,0.428 -0.423,0.647 0.037,0.933c0.61,0.378 1.282,-0.311 1.307,0.51c0.023,0.779 0.522,1.082 0.734,0.634c0.278,-0.588 0.833,-0.647 1.194,-0.024c0.337,0.58 -0.081,0.932 -0.012,1.308c0.042,0.224 0.819,-0.112 1.02,0.806c0.087,0.399 -0.498,0.685 -0.037,0.971c0.783,0.249 0.384,-0.289 0.994,-0.205c0.022,-0.545 0.026,-1.612 0.026,-1.612l-0.365,0.148l0.017,-0.346l-0.374,0.161c0,0 -0.025,-0.298 0.174,-0.423c0.2,-0.124 -0.339,0.076 -0.339,0.076c0,0 -0.146,-0.225 0.302,-0.362c0.448,-0.137 -0.3,-0.267 -0.3,-0.267c0,0 0.188,-0.231 0.499,-0.094c0.311,0.137 0.047,-0.347 0.047,-0.347c0,0 0.426,0.447 0.389,0.26c-0.038,-0.186 0.148,-0.516 0.148,-0.516c0,0 0.138,0.628 0.2,0.529c0.062,-0.1 0.506,-0.176 0.506,-0.176c0,0 -0.463,0.439 -0.32,0.412c0.143,-0.027 0.516,0.162 0.516,0.162c0,0 -0.542,0.117 -0.366,0.186c0.176,0.07 0.36,0.333 0.36,0.333c0,0 -0.534,-0.084 -0.398,0.053c0.137,0.137 0.014,0.235 0.022,0.361c-0.17,-0.026 -0.345,-0.174 -0.532,-0.162c0.021,0.526 -0.021,1.116 0,1.642c0.126,-0.013 0.541,-0.255 0.884,-0.074c0.342,0.18 0.099,0.324 0.211,0.353c0.112,0.028 0.255,-0.139 0.364,-0.179c0.364,-0.135 0.923,-0.12 0.974,0.266c0.023,0.172 -0.066,0.394 0.077,0.492c0.09,0.062 0.211,0.022 0.32,0.03c0.557,0.039 0.565,1.201 1.112,1.089c0.524,-0.108 -0.06,-1.131 0.656,-1.348c0.717,-0.217 0.441,0.59 0.944,0.562c0.504,-0.029 0.889,-0.908 1.438,-0.78c-0.015,-0.214 0.014,-0.607 0,-0.821c-0.549,0.066 -0.73,0.584 -1.774,0.322c-0.59,-0.148 0.008,-0.486 0.011,-0.698c-0.251,0.025 -0.616,-0.064 -0.566,-0.312c0.019,-0.092 0.095,-0.158 0.164,-0.222c0.377,-0.351 0.148,-1.131 0.585,-1.479c0.117,-0.069 0.131,-0.09 0.131,-0.094c0,-0.005 -0.012,0.005 0.044,0.002l1.169,1.607c-0.001,0.079 0.08,0.107 0.14,0.17c0.063,0.065 0.477,0.847 0.357,0.729c0.037,0.398 -0.009,0.455 -0.006,0.833c0.121,-0.15 0.447,-0.006 0.677,0.123l1.591,3.761c0.034,0.002 0.069,0.004 0.106,0.006l0.324,1.011l0.06,0.14l-0.015,0l0.3,0.931l-55.943,0l0.539,-1.797c0.064,-0.005 0.128,-0.01 0.192,-0.014l1.093,-2.623l2.393,-4.207l0,0l0.235,-0.353l0,0.001l0.688,-0.838c0.059,-0.003 -0.01,0.001 0.048,0.016c0.021,-0.345 0.426,-0.602 0.65,-0.581c0.352,0.032 0.327,0.443 0.277,0.692c0.188,-0.109 0.687,-0.12 0.859,0.012c0.323,0.249 0.075,0.602 0.236,0.747c0.48,0.431 1.207,-0.212 1.597,0.438c0.39,0.649 -0.096,0.814 -0.144,1.221c-0.015,0.126 -0.021,0.275 0.076,0.358c0.1,0.084 0.25,0.048 0.378,0.07c0.172,0.028 0.306,0.159 0.44,0.272c0.456,0.381 0.979,0.188 1.573,0.184c-0.029,-0.504 0.013,-0.344 -0.015,-0.848c-0.246,0.044 -0.246,0.044 -0.604,0.117c0.029,-0.113 0.087,-0.256 0.033,-0.36c-0.232,-0.003 -0.622,0.037 -0.622,0.037c0,0 0.112,-0.298 0.411,-0.348c-0.121,-0.042 -0.465,-0.398 -0.465,-0.398c0,0 0.319,0.035 0.452,-0.1c-0.034,-0.167 -0.033,-0.493 -0.033,-0.493c0,0 0.568,0.381 0.456,0.245c-0.112,-0.137 0.013,-0.577 0.013,-0.577c0,0 0.423,0.564 0.41,0.427c-0.012,-0.136 0.186,-0.426 0.186,-0.426l0.2,0.376l0.512,-0.077c0,0 -0.363,0.376 -0.164,0.389c0.199,0.012 0.387,0.235 0.387,0.235c0,0 -0.249,0.112 -0.399,0.237c0.157,0.123 0.377,0.214 0.377,0.214c-0.185,0.029 -0.251,0.133 -0.439,0.122c0.127,0.155 0.004,0.265 0.049,0.461c-0.211,-0.069 -0.335,-0.043 -0.547,-0.112c0.018,0.532 -0.049,0.312 0,0.811c0.233,-0.07 0.588,-0.024 0.944,0.024l0.017,0.002Zm20.476,-0.873c-0.041,-0.001 -0.075,0.007 -0.104,0.016c0.029,-0.009 0.063,-0.017 0.104,-0.016l0,0Zm-0.387,-0.109c0.019,0.036 0.043,0.065 0.07,0.089c-0.027,-0.024 -0.051,-0.053 -0.07,-0.089Zm19.876,-0.308c0.099,0.099 0.116,0.291 0.019,0.347c-0.03,0.008 -0.058,0.015 -0.086,0.021c0.028,-0.006 0.056,-0.013 0.086,-0.021c0.097,-0.056 0.08,-0.248 -0.019,-0.347Zm-19.923,0.17c0.001,0.004 0.004,0.008 0.006,0.012c-0.002,-0.004 -0.005,-0.008 -0.006,-0.012Zm0.4,-0.036c-0.104,-0.122 -0.228,0.019 -0.34,0.005c-0.015,-0.002 -0.033,-0.001 -0.045,0.005c0.012,-0.006 0.03,-0.007 0.045,-0.005c0.112,0.014 0.236,-0.127 0.34,-0.005Zm18.709,-0.192c-0.077,-0.032 -0.159,-0.063 -0.27,-0.07c-0.001,0.003 -0.001,0.005 -0.002,0.007c0.001,-0.002 0.001,-0.004 0.002,-0.007c0.111,0.007 0.193,0.038 0.27,0.07Zm0.57,-0.036c-0.08,-0.079 -0.099,-0.142 -0.144,-0.268c-0.022,-0.061 -0.046,-0.133 -0.107,-0.151c-0.001,0.005 -0.002,0.011 -0.003,0.016c0.001,-0.005 0.002,-0.011 0.003,-0.016c0.061,0.018 0.085,0.09 0.107,0.151c0.045,0.126 0.064,0.189 0.144,0.268Zm-47.541,-1.123c0.035,0.079 0.086,0.15 0.151,0.207l0,0c-0.065,-0.057 -0.115,-0.128 -0.151,-0.207Zm28.456,-0.654c0.009,0.005 0.017,0.011 0.023,0.02l0,0c-0.006,-0.009 -0.014,-0.015 -0.023,-0.02Zm0.019,-0.501c0.016,0.154 0.019,0.309 0.008,0.462c0.011,-0.153 0.008,-0.308 -0.008,-0.462l0,0Zm-0.539,0.28c0.093,0.017 0.186,0.035 0.266,0.083c0.025,0.014 0.048,0.031 0.071,0.048c-0.023,-0.017 -0.046,-0.034 -0.071,-0.048c-0.08,-0.048 -0.173,-0.066 -0.266,-0.083Zm0.345,-0.255c0.027,0.009 0.048,0.012 0.067,0.012c-0.019,0 -0.04,-0.003 -0.067,-0.012Zm-0.982,-0.161c0.002,0.04 0.017,0.08 0.041,0.113c0.005,0.007 0.01,0.013 0.015,0.019c-0.005,-0.006 -0.01,-0.012 -0.015,-0.019c-0.023,-0.033 -0.039,-0.073 -0.041,-0.113Zm1.95,0.104c0.009,0.002 0.019,0.003 0.029,0.003c-0.01,0 -0.02,-0.001 -0.029,-0.003Zm0.252,-0.056c-0.03,0.008 -0.059,0.017 -0.089,0.027c-0.036,0.013 -0.075,0.027 -0.113,0.031c0.038,-0.004 0.077,-0.018 0.113,-0.031c0.03,-0.01 0.059,-0.019 0.089,-0.027Zm-1.806,0.017c-0.015,0.002 -0.03,0.003 -0.045,0.003c0.015,0 0.03,-0.001 0.045,-0.003Zm0.444,-0.118c0.007,0.035 -0.003,0.071 0.005,0.106c-0.008,-0.035 0.002,-0.071 -0.005,-0.106Zm1.672,0.06c0.063,0 0.125,0.005 0.187,0.015l0,0c-0.062,-0.01 -0.124,-0.015 -0.187,-0.015Zm-0.07,-0.166c0.058,0.028 0.115,0.062 0.17,0.095c0.027,0.016 0.055,0.033 0.073,0.057c-0.018,-0.024 -0.046,-0.041 -0.072,-0.057c-0.056,-0.033 -0.113,-0.067 -0.171,-0.095Zm-0.315,-0.07c-0.069,0.006 -0.135,0.029 -0.189,0.072c-0.042,0.034 -0.071,0.091 -0.074,0.143c0.003,-0.052 0.032,-0.109 0.074,-0.143c0.054,-0.043 0.12,-0.066 0.189,-0.072Zm-2.094,0.165c0.007,0 0.014,0.001 0.02,0.003c-0.006,-0.002 -0.013,-0.003 -0.02,-0.003Zm0.668,-0.081c-0.023,0.007 -0.045,0.019 -0.064,0.034c-0.005,0.004 -0.011,0.01 -0.016,0.015c0.005,-0.005 0.011,-0.011 0.016,-0.015c0.019,-0.015 0.041,-0.027 0.064,-0.034Zm0.036,-0.005c0.013,0 0.026,0.002 0.038,0.008c-0.012,-0.006 -0.025,-0.008 -0.038,-0.008Zm1.431,-0.081c0.039,0 0.079,0.005 0.116,0.014c0.026,0.006 0.051,0.014 0.076,0.023c-0.025,-0.009 -0.05,-0.017 -0.076,-0.023c-0.037,-0.009 -0.077,-0.014 -0.116,-0.014Z" style="fill:#1b1b1a;fill-rule:nonzero;"/><path id="Inner-Outline" serif:id="Inner Outline" d="M59,32c0,-14.902 -12.098,-27 -27,-27c-14.902,0 -27,12.098 -27,27c0,14.902 12.098,27 27,27c14.902,0 27,-12.098 27,-27Z" style="fill:none;stroke:#fff;stroke-width:3px;"/><path id="Outline" d="M61.409,31.99c0,-16.178 -13.135,-29.313 -29.313,-29.313c-16.179,0 -29.314,13.135 -29.314,29.313c0,16.179 13.135,29.313 29.314,29.313c16.178,0 29.313,-13.134 29.313,-29.313Z" style="fill:none;stroke:#000;stroke-width:3px;"/></g></g></g></svg>