<?xml version="1.0" encoding="UTF-8" standalone="no"?><!DOCTYPE svg PUBLIC "-//W3C//DTD SVG 1.1//EN" "http://www.w3.org/Graphics/SVG/1.1/DTD/svg11.dtd"><svg width="100%" height="100%" viewBox="0 0 64 64" version="1.1" xmlns="http://www.w3.org/2000/svg" xmlns:xlink="http://www.w3.org/1999/xlink" xml:space="preserve" xmlns:serif="http://www.serif.com/" style="fill-rule:evenodd;clip-rule:evenodd;stroke-miterlimit:10;"><g id="Species"><g id="Fish"><g id="freshwater_fish"><path id="Outline" d="M58.626,31.687c0,-16.179 -13.135,-29.313 -29.313,-29.313c-16.178,0 -29.313,13.134 -29.313,29.313c0,16.178 13.135,29.313 29.313,29.313c16.178,0 29.313,-13.135 29.313,-29.313Z" style="fill:none;stroke:#000;stroke-width:3px;"/><path d="M26.677,37.649c0.33,0.373 0.414,0.904 0.217,1.361c-0.198,0.457 -0.642,0.759 -1.14,0.775c-1.19,-0.047 -4.016,-1.614 -5.764,-2.136c-1.747,-0.522 -2.416,0 -2.772,0c-1.402,0 -1.788,0.035 -2.412,-0.227c-0.678,-0.284 -0.8,-0.335 -1.309,-0.801c-3.545,-0.133 -5.875,-0.915 -7.491,-0.981c-0.374,-0.016 -0.71,0.218 -1.017,0.161c-0.451,-0.083 -0.375,-0.237 -0.639,-0.427c-0.467,-0.337 -0.983,-0.529 -0.983,-1.184c0,-1.081 0.432,-1.234 1.239,-2.24c0.332,-0.415 0.572,-0.934 1.257,-1.722c0.182,-0.209 0.513,-0.399 0.89,-0.44c0.491,-0.053 1.222,0.066 1.75,0c2.102,-0.264 4.762,-1.484 7.307,-1.702c0.092,-0.008 0.649,-1.452 2.182,-2.504c1.298,-0.891 3.447,-1.419 5.023,-1.419c2.571,0 4.811,0.849 5.966,2.099c0.627,-0.74 2.067,-1.506 3.035,-2.099c1.662,-1.018 2.869,0.743 6.105,3.12c1.906,1.399 4.604,1.641 5.69,2.945c2.383,-0.294 5.571,-2.21 6.831,-2.551c0.626,-0.169 1.079,-0.295 1.498,-0.394c0.621,-0.285 1.353,-0.15 1.831,0.336c0.479,0.487 0.601,1.221 0.307,1.837c-0.436,0.663 -0.64,1.412 -0.67,2.184c-0.024,0.608 0.695,1.58 0.767,2.307c0.089,0.889 -0.712,2.426 -1.789,2.674c-1.354,0.312 -3.175,-0.853 -4.575,-1.582c-1.514,-0.79 -3.846,-1.052 -5.315,-1.092c-0.189,-0.005 -0.405,0.012 -0.635,0.046c-0.151,0.037 -0.308,0.065 -0.471,0.084c-1.172,0.002 -1.576,0 -1.576,0c-0.049,0.01 -0.715,1.448 -1.167,1.563c-0.86,0.219 -1.991,-0.172 -2.929,-0.154c-0.478,0.009 -2.599,0.254 -3.902,0.315c-1.636,0.077 -3.999,0.335 -5.91,0.145c-0.217,-0.021 -0.409,0.236 -0.284,0.415c0.247,0.379 0.543,0.834 0.855,1.288Zm-13.871,-4.683c-0.044,-0.012 -0.077,-0.05 -0.082,-0.096c-0.005,-0.046 0.02,-0.091 0.061,-0.111c0,-0.001 0,-0.002 0,-0.002c1.335,-0.664 2.872,-0.293 3.43,0.827c0.557,1.121 -0.074,2.57 -1.409,3.234c0,0.001 -0.001,0.001 -0.002,0.001c-0.241,0.119 -0.531,0.07 -0.72,-0.122c-0.188,-0.193 -0.231,-0.484 -0.107,-0.723c0.4,-0.604 0.458,-1.329 0.148,-1.953c-0.263,-0.528 -0.744,-0.89 -1.319,-1.055Zm-5.378,-2.555c0.751,0 1.36,0.609 1.36,1.36c0,0.751 -0.609,1.361 -1.36,1.361c-0.751,0 -1.361,-0.61 -1.361,-1.361c0,-0.751 0.61,-1.36 1.361,-1.36Zm-0.027,0.553c0.46,0 0.834,0.374 0.834,0.834c0,0.46 -0.374,0.834 -0.834,0.834c-0.46,0 -0.834,-0.374 -0.834,-0.834c0,-0.46 0.374,-0.834 0.834,-0.834Zm14.366,-2.721c0.434,-0.055 0.93,-0.038 1.341,0.063c0.399,0.098 0.921,0.195 1.123,0.544c0.202,0.348 0.186,0.799 0.088,1.546c-0.027,-0.007 -0.054,-0.014 -0.081,-0.019c-0.906,-0.166 -2.135,2.391 -2.043,1.891c0.302,-1.647 -0.053,-3.125 -0.799,-3.508c0.121,-0.277 0.223,-0.3 0.371,-0.517Zm-5.453,0.098c0.529,-0.132 1.152,-0.205 1.687,-0.18c0.52,0.025 1.195,0.026 1.526,0.333c0.332,0.306 0.415,0.752 0.463,1.505c-0.034,-0.003 -0.069,-0.004 -0.105,-0.004c-1.168,0 -2.116,2.737 -2.116,2.229c0,-1.676 -0.781,-3.065 -1.799,-3.307c0.087,-0.294 0.209,-0.336 0.344,-0.576Zm28.995,2.982c-0.127,0.126 -0.317,0.23 -0.541,0.281c-0.454,0.103 -0.876,-0.048 -0.942,-0.338c-0.066,-0.29 0.249,-0.609 0.702,-0.713c0.224,-0.051 0.44,-0.04 0.61,0.019c-0.09,0.121 -0.128,0.27 -0.095,0.417c0.034,0.146 0.133,0.263 0.266,0.334Zm-6.954,-1.248c0.312,0.01 0.674,0.05 0.98,0.115c0.297,0.063 0.684,0.135 0.855,0.275c0.171,0.141 0.191,0.304 0.171,0.569c-0.02,-0.005 -0.04,-0.009 -0.06,-0.013c-0.671,-0.123 -1.388,0.722 -1.356,0.546c0.106,-0.578 -0.255,-1.139 -0.824,-1.33c0.069,-0.092 0.141,-0.094 0.234,-0.162Zm-10.35,-1.955c0.428,-0.026 0.921,0.008 1.333,0.103c0.4,0.093 0.922,0.19 1.136,0.469c0.215,0.28 0.217,0.631 0.15,1.21c-0.027,-0.007 -0.054,-0.013 -0.081,-0.018c-0.906,-0.166 -2.022,1.778 -1.951,1.392c0.233,-1.273 -0.179,-2.439 -0.935,-2.768c0.109,-0.211 0.209,-0.225 0.348,-0.388Zm4.803,0.455c0.317,-0.02 0.681,0.004 0.985,0.075c0.296,0.068 0.682,0.14 0.839,0.349c0.158,0.21 0.16,0.473 0.108,0.907c-0.019,-0.005 -0.039,-0.009 -0.059,-0.013c-0.669,-0.123 -1.499,1.338 -1.445,1.048c0.175,-0.955 -0.128,-1.829 -0.686,-2.074c0.082,-0.159 0.155,-0.169 0.258,-0.292Z" style="fill:#1b1b1a;"/></g></g></g></svg>