<?xml version="1.0" encoding="UTF-8" standalone="no"?><!DOCTYPE svg PUBLIC "-//W3C//DTD SVG 1.1//EN" "http://www.w3.org/Graphics/SVG/1.1/DTD/svg11.dtd"><svg width="100%" height="100%" viewBox="0 0 64 64" version="1.1" xmlns="http://www.w3.org/2000/svg" xmlns:xlink="http://www.w3.org/1999/xlink" xml:space="preserve" xmlns:serif="http://www.serif.com/" style="fill-rule:evenodd;clip-rule:evenodd;stroke-miterlimit:10;"><g id="Species"><g id="Invertebrates"><g id="crayfish"><path id="Outline" d="M61.409,32.047c0,-16.178 -13.135,-29.313 -29.313,-29.313c-16.179,0 -29.314,13.135 -29.314,29.313c0,16.178 13.135,29.313 29.314,29.313c16.178,0 29.313,-13.135 29.313,-29.313Z" style="fill:none;stroke:#000;stroke-width:3px;"/><path d="M29.632,48.333c1.09,-0.429 2.309,-0.632 3.469,-0.622c1.032,0.028 2.114,0.224 3.098,0.59c2.524,0.51 4.765,2.809 5.457,5.419c0.326,1.228 -0.232,2.952 -1.909,2.94c-0.691,-0.006 -1.384,-0.173 -2.046,-0.467c-2.74,1.945 -7.59,2.131 -10.307,-0.641l-0.006,-0.007c-1.713,1.219 -3.753,1.84 -4.717,0.231c-1.286,-2.146 0.983,-5.126 3.631,-6.73c0.804,-0.488 1.491,-0.853 2.624,-0.845c0.241,0.009 0.481,0.053 0.706,0.132Z"/><g><path d="M33.236,16.457c0.747,-2.116 1.197,-4.223 3.35,-6.109c0.851,-0.746 4.341,-3.029 3.876,-2.468c-0.243,0.292 -2.843,1.973 -3.646,2.918c-0.764,0.898 -1.592,2.198 -2.035,3.225c-0.467,1.08 -0.819,2.239 -0.921,3.34c1.795,2.733 4.244,7.661 4.244,14.195c0,1.817 -0.771,3.947 -0.791,5.817c-0.051,4.903 0.48,9.461 -0.652,12.704c-0.885,2.536 -3.006,4.078 -4.269,4.067c-1.25,-0.011 -3.711,-1.585 -4.746,-4.468c-1.171,-3.264 -0.864,-7.56 -0.928,-12.303c-0.025,-1.821 -0.605,-4.071 -0.605,-5.817c0,-6.534 2.365,-11.461 4.098,-14.194c-0.106,-1.09 -0.455,-2.235 -0.916,-3.302c-0.444,-1.027 -1.272,-2.327 -2.036,-3.225c-0.803,-0.945 -3.403,-2.626 -3.646,-2.918c-0.465,-0.561 3.026,1.722 3.877,2.468c2.136,1.871 2.595,3.96 3.333,6.06c0.694,-0.989 1.181,-1.511 1.181,-1.511c0,0 0.509,0.526 1.232,1.521Z" style="fill-rule:nonzero;"/><path d="M32.082,14.442c0.237,0.057 0.397,0.27 0.562,0.457c4.33,5.04 6.902,12.049 5.741,18.708c-0.845,4.653 -0.063,9.534 -0.701,14.233c-0.358,2.643 -1.632,5.375 -4.004,6.485c-2.621,1.225 -5.87,-1.904 -6.809,-5.464c-1.121,-4.248 -0.252,-8.937 -0.8,-13.226c-0.336,-2.522 -0.559,-5.074 -0.23,-7.599c0.64,-4.904 2.524,-9.789 5.776,-13.418c0,0 0.215,-0.194 0.465,-0.176Zm-0.076,1.262c-3.963,4.927 -6.097,11.397 -5.213,17.913c0.662,4.675 -0.028,9.463 0.83,14.028c0.474,2.526 1.841,5.206 4.316,5.924c2.054,0.595 4.123,-2.337 4.648,-5.193c0.68,-3.7 0.045,-7.591 0.239,-11.383c0.142,-2.29 0.872,-4.425 0.74,-6.831c-0.286,-5.216 -2.18,-10.349 -5.468,-14.36c0,0 -0.073,-0.121 -0.092,-0.098Z" style="fill:#fff;fill-rule:nonzero;"/><path d="M27.002,43.728c-0.672,-2.972 1.837,-6.287 5.069,-6.266c1.951,0.037 3.809,1.25 4.609,3.018c0.39,0.861 0.473,1.807 0.314,2.723c-0.028,-0.368 -0.096,-0.724 -0.2,-1.066c-0.053,-0.906 -0.354,-1.799 -0.951,-2.558c-0.92,-1.17 -2.382,-1.877 -3.902,-1.867c-2.234,0.042 -4.307,1.757 -4.729,3.955c-0.047,0.248 -0.071,0.497 -0.072,0.744c-0.091,0.378 -0.14,0.773 -0.14,1.18c0,0.046 0.001,0.092 0.002,0.137Z" style="fill:#fff;fill-rule:nonzero;"/><path d="M27,46.262c-0.016,-0.063 -0.031,-0.126 -0.044,-0.19c-0.542,-2.585 2.008,-5.076 4.917,-5.17c0.131,-0.001 0.131,-0.001 0.263,0c2.675,0.087 5.015,2.559 4.848,4.959c-0.022,-0.186 -0.058,-0.37 -0.108,-0.548c-0.034,-2.164 -2.258,-4.08 -4.745,-4.161c-0.127,-0.001 -0.126,-0.001 -0.253,0c-2.314,0.075 -4.456,1.915 -4.686,3.966c-0.122,0.364 -0.189,0.748 -0.192,1.144Z" style="fill:#fff;fill-rule:nonzero;"/><path d="M28.601,51.414c-0.707,-0.752 -1.18,-2.605 -1.18,-3.685c0,-2.354 2.161,-3.741 4.674,-3.741c2.514,0 4.738,1.183 4.738,3.537c0,1.192 -0.317,3.114 -1.159,3.889c-0.445,-1.407 -1.859,-1.706 -3.429,-1.706c-1.484,0 -3.134,0.418 -3.644,1.706Z" style="stroke:#fff;stroke-width:0.25px;stroke-linecap:round;stroke-linejoin:round;stroke-miterlimit:1.5;"/></g><g><g><path d="M35.854,25.526l4.302,-1.251l4.473,-2.699l0.83,2.133l-4.259,3.038l-4.505,1.264c0,0 -1.053,-2.538 -0.841,-2.485Z"/><path d="M47.389,21.724c-0.27,0.2 -0.572,0.344 -0.9,0.422c-1.931,0.458 -4.068,-1.549 -4.769,-4.479c-0.701,-2.931 0.297,-5.682 2.228,-6.14c0.434,-0.103 0.878,-0.081 1.314,0.047c-0.958,0.792 -1.268,3.08 -0.669,5.582c0.545,2.276 1.681,4.058 2.796,4.568Z" style="stroke:#fff;stroke-width:1px;stroke-linecap:round;stroke-linejoin:round;stroke-miterlimit:1.5;"/><path d="M43.988,10.711c0.395,-0.294 0.822,-0.454 1.266,-0.454c2.052,0 3.719,3.421 3.719,7.634c0,4.214 -1.667,7.635 -3.719,7.635c-2.053,0 -3.719,-3.421 -3.719,-7.635c0,-0.207 0.004,-0.411 0.012,-0.614c0.376,0.388 0.824,0.614 1.306,0.614c1.325,0 2.401,-1.71 2.401,-3.817c0,-1.454 -0.513,-2.719 -1.266,-3.363Z" style="stroke:#fff;stroke-width:1px;stroke-linecap:round;stroke-linejoin:round;stroke-miterlimit:1.5;"/></g><g><path d="M28.65,25.144l-4.476,-1.301l-4.654,-2.808l-0.863,2.219l4.431,3.161l4.687,1.315c0,0 1.096,-2.641 0.875,-2.586Z"/><path d="M16.648,21.189c0.281,0.208 0.595,0.358 0.936,0.439c2.009,0.476 4.233,-1.612 4.963,-4.661c0.729,-3.049 -0.31,-5.912 -2.319,-6.388c-0.451,-0.107 -0.913,-0.085 -1.367,0.048c0.997,0.824 1.319,3.206 0.696,5.808c-0.567,2.369 -1.749,4.223 -2.909,4.754Z" style="stroke:#fff;stroke-width:1px;stroke-linecap:round;stroke-linejoin:round;stroke-miterlimit:1.5;"/><path d="M20.186,9.729c-0.411,-0.306 -0.854,-0.472 -1.316,-0.472c-2.136,0 -3.87,3.559 -3.87,7.943c0,4.385 1.734,7.944 3.87,7.944c2.135,0 3.869,-3.559 3.869,-7.944c0,-0.215 -0.004,-0.428 -0.012,-0.639c-0.391,0.404 -0.858,0.639 -1.359,0.639c-1.379,0 -2.498,-1.779 -2.498,-3.971c0,-1.513 0.533,-2.829 1.316,-3.5Z" style="stroke:#fff;stroke-width:1px;stroke-linecap:round;stroke-linejoin:round;stroke-miterlimit:1.5;"/></g></g><path d="M27.956,35.196l-0.375,-1.062l-3.47,0.471l-3.891,5.22l1.1,1.223l3.073,-5.646l3.563,-0.206Zm8.15,0l0.376,-1.062l3.47,0.471l3.891,5.22l-1.1,1.223l-3.073,-5.646l-3.564,-0.206Zm0.085,-2.316l0.229,-1.27l4.465,-0.177l6.071,5.078l-1.103,1.598l-5.141,-5.723l-4.521,0.494Zm-8.319,0l-0.23,-1.27l-4.464,-0.177l-6.072,5.078l1.104,1.598l5.141,-5.723l4.521,0.494Zm8.85,-1.497l0,-1.475l5.566,-1.107l8.778,4.474l-1.022,2.022l-7.756,-5.389l-5.566,1.475Zm-8.656,0l0,-1.475l-5.566,-1.107l-8.778,4.474l1.023,2.022l7.755,-5.389l5.566,1.475Zm1.273,-11.383c0.633,0 1.146,0.552 1.146,1.231c0,0.679 -0.513,1.231 -1.146,1.231c-0.633,0 -1.147,-0.552 -1.147,-1.231c0,-0.679 0.514,-1.231 1.147,-1.231Zm6,0c0.633,0 1.146,0.552 1.146,1.231c0,0.679 -0.513,1.231 -1.146,1.231c-0.633,0 -1.147,-0.552 -1.147,-1.231c0,-0.679 0.514,-1.231 1.147,-1.231Z"/></g></g></g></svg>