<?xml version="1.0" encoding="UTF-8" standalone="no"?><!DOCTYPE svg PUBLIC "-//W3C//DTD SVG 1.1//EN" "http://www.w3.org/Graphics/SVG/1.1/DTD/svg11.dtd"><svg width="100%" height="100%" viewBox="0 0 64 64" version="1.1" xmlns="http://www.w3.org/2000/svg" xmlns:xlink="http://www.w3.org/1999/xlink" xml:space="preserve" xmlns:serif="http://www.serif.com/" style="fill-rule:evenodd;clip-rule:evenodd;stroke-miterlimit:10;"><g id="Species"><g id="Amphibians"><g id="frog"><path id="Outline" d="M61.126,31.687c0,-16.179 -13.135,-29.313 -29.313,-29.313c-16.178,0 -29.313,13.134 -29.313,29.313c0,16.178 13.135,29.313 29.313,29.313c16.178,0 29.313,-13.135 29.313,-29.313Z" style="fill:none;stroke:#000;stroke-width:3px;"/><path d="M29.111,7.694c-0.061,0.012 -0.125,0.015 -0.189,0.007c-0.35,-0.038 -0.602,-0.353 -0.564,-0.703c0.039,-0.349 0.353,-0.602 0.703,-0.563c0.35,0.038 0.602,0.353 0.564,0.703c-0.005,0.037 -0.012,0.074 -0.022,0.109c0.395,0.225 1.022,0.842 0.801,4.298c0,0 1.365,-1.677 1.554,-3.193c-0.087,-0.122 -0.131,-0.276 -0.113,-0.437c0.039,-0.35 0.353,-0.602 0.703,-0.564c0.35,0.039 0.602,0.353 0.564,0.703c-0.024,0.218 -0.155,0.398 -0.335,0.493c-0.102,0.825 -0.89,3.267 -1.505,4.127c-0.499,0.699 0.487,2.286 -0.259,4.136c0.663,0.214 1.368,0.491 2.119,0.842c0,0 1.777,0.52 3.156,3.946c0.048,-0.125 0.102,-0.266 0.159,-0.42l0,-0.001c0.105,-0.282 0.222,-0.608 0.343,-0.964l0.001,0c0.13,-0.382 0.264,-0.798 0.392,-1.229c0.043,-0.156 0.085,-0.315 0.125,-0.474c0.004,-0.001 0.008,-0.001 0.011,-0.002c0.279,-1.012 0.502,-2.069 0.535,-2.95l-0.001,0c0.012,-0.326 -0.001,-0.628 -0.048,-0.895c-0.011,-0.063 -0.024,-0.124 -0.038,-0.182c0,0 0.891,-2.34 2.27,-0.378c0.168,0.239 0.3,0.716 0.395,1.363c0.871,2.26 2.069,6.48 2.02,12.116c0,0 0.297,0.621 0.577,1.384c0.398,-1.76 0.481,-3.176 0.461,-4.165l0,0c-0.007,-0.311 -0.023,-0.581 -0.042,-0.805c-0.047,-0.524 -0.112,-0.802 -0.112,-0.802c-0.402,-4.092 -0.611,-5.188 -0.611,-5.188l0.043,-0.054c-0.287,0.019 -0.561,-0.16 -0.649,-0.448c-0.104,-0.336 0.085,-0.693 0.421,-0.796c0.336,-0.104 0.693,0.085 0.796,0.421c0.081,0.26 -0.014,0.533 -0.218,0.691c0.289,0.61 0.578,2.639 0.578,2.639c0.725,-1.489 0.191,-5.301 0.135,-5.686c-0.227,-0.041 -0.424,-0.204 -0.496,-0.439c-0.104,-0.337 0.085,-0.693 0.421,-0.797c0.336,-0.104 0.693,0.085 0.796,0.421c0.088,0.284 -0.033,0.582 -0.275,0.731c0.469,1.149 0.455,4.805 0.455,4.805c0.815,-1.314 0.96,-6.206 0.979,-7.025c-0.191,-0.061 -0.35,-0.212 -0.414,-0.418c-0.103,-0.337 0.085,-0.693 0.422,-0.797c0.336,-0.103 0.692,0.085 0.796,0.421c0.097,0.315 -0.061,0.647 -0.357,0.773c0.466,1.158 -0.205,6.541 -0.205,6.541c0.721,-0.416 1.109,-3.704 1.181,-4.377c-0.163,-0.072 -0.295,-0.212 -0.352,-0.396c-0.103,-0.336 0.085,-0.692 0.422,-0.796c0.336,-0.104 0.692,0.085 0.796,0.421c0.104,0.336 -0.085,0.693 -0.421,0.797c-0.005,0.001 -0.011,0.003 -0.016,0.004c0.241,1.4 -0.07,3.202 -0.507,4.813c0.21,-0.266 0.506,-0.683 0.811,-1.246c0.299,-0.552 0.513,-0.971 0.642,-1.25c-0.053,-0.063 -0.096,-0.139 -0.122,-0.224c-0.104,-0.336 0.085,-0.692 0.421,-0.796c0.337,-0.104 0.693,0.085 0.797,0.421c0.103,0.336 -0.085,0.693 -0.421,0.796c-0.05,0.016 -0.099,0.025 -0.148,0.028c-0.349,0.927 -1.257,3.279 -1.835,4.238c-0.453,0.752 -1.146,1.663 -1.606,2.244c-0.797,3.629 -1.627,6.019 -2.086,7.197c0.026,0.439 -0.065,0.77 -0.36,0.861l0,0l0,0l0,0c-1.119,0.346 -1.907,-4.089 -1.907,-4.089l-1.044,-2.184c-0.003,0.027 -0.007,0.054 -0.01,0.08l0,0.001c-0.052,0.374 -0.107,0.739 -0.167,1.092l-0.002,0.016l-0.001,0.002l0,0.002l-0.001,0.004l-0.002,0.015l-0.002,0.007l0,0.002l0,0.002c-0.48,2.81 -1.234,4.838 -2.234,4.359c-0.007,0.016 -0.014,0.031 -0.021,0.046l0,0.001c-0.05,0.103 -0.12,0.19 -0.216,0.245c0.003,0.022 0.897,6.976 -1.96,11.636c0,0 -1.238,1.845 2.776,2.585c0,0 2.841,1.404 4.937,4.155c0,0 1.255,0.861 1.968,0.942c0.713,0.081 2.497,1.682 0.297,2.36l0,0l0,0c0,0 -0.693,-0.192 -1.783,-0.13l0.001,0c-0.258,0.015 -0.538,0.044 -0.836,0.092l-0.001,0c-0.668,0.109 -1.428,0.319 -2.236,0.696l0.001,0.001c-0.1,0.047 -0.201,0.095 -0.302,0.147c-0.017,0.008 -0.033,0.017 -0.05,0.025c-0.075,0.039 -0.149,0.077 -0.224,0.113l-0.004,0.002l-0.004,0.002l-0.002,0.001l-0.001,0.001c-0.062,0.03 -0.123,0.059 -0.185,0.087c-0.316,0.264 -0.642,0.521 -0.942,0.733c-0.821,0.581 -2.744,1.509 -3.779,1.994c-0.031,0.239 -0.198,0.451 -0.444,0.527c-0.336,0.103 -0.693,-0.085 -0.796,-0.421c-0.104,-0.337 0.084,-0.693 0.421,-0.797c0.215,-0.066 0.438,-0.013 0.598,0.122c0.231,-0.138 0.512,-0.313 0.844,-0.526c0.298,-0.19 0.551,-0.375 0.76,-0.541l-0.026,0.007l-0.028,0.007l0,0c-0.442,0.112 -0.874,0.222 -1.291,0.342l-0.001,0c-1.004,0.289 -1.921,0.644 -2.684,1.265c0,0 -0.002,-0.002 -0.005,-0.007c-0.037,0.233 -0.202,0.436 -0.442,0.511c-0.337,0.103 -0.693,-0.085 -0.797,-0.421c-0.104,-0.337 0.085,-0.693 0.421,-0.797c0.132,-0.041 0.267,-0.036 0.388,0.004c0.801,-0.489 2.727,-1.608 3.621,-1.649c0,0 -2.589,-0.182 -4.881,1.709c0.037,0.301 -0.145,0.594 -0.445,0.686c-0.336,0.104 -0.693,-0.085 -0.796,-0.421c-0.104,-0.336 0.085,-0.693 0.421,-0.796c0.168,-0.052 0.342,-0.031 0.487,0.046c0.611,-0.543 2.609,-2.104 5.803,-2.524c0,0 -3.871,0.42 -4.904,1.255c0,0 -0.005,-0.005 -0.012,-0.015c-0.076,0.09 -0.177,0.159 -0.298,0.196c-0.336,0.104 -0.692,-0.085 -0.796,-0.421c-0.104,-0.336 0.085,-0.693 0.421,-0.797c0.293,-0.09 0.602,0.042 0.745,0.3c0.762,-0.363 3.114,-1.144 4.589,-1.342c0,0 -1.018,-0.588 -2.017,-0.746c-0.055,0.039 -0.117,0.07 -0.184,0.091c-0.337,0.104 -0.693,-0.084 -0.797,-0.421c-0.104,-0.336 0.085,-0.693 0.421,-0.796c0.336,-0.104 0.693,0.085 0.796,0.421c0.018,0.055 0.027,0.111 0.029,0.166c0.358,0.097 1.478,0.404 2.377,0.662c0,0 0.437,0.09 1.027,0.186c0.177,0.024 0.367,0.048 0.563,0.071c-0.007,0.004 -0.013,0.008 -0.019,0.012c0.642,0.09 1.354,0.161 1.866,0.133c0.875,-0.047 2.932,-0.224 3.946,-0.313l0,0c-0.551,-0.949 -1.811,-0.99 -2.69,-1.192c-0.88,-0.202 -4.256,-1.527 -5.81,-3.499c0,0 -0.527,-0.311 -1.068,-0.531c-0.53,-0.216 -2.305,-0.71 -1.76,-3.473c0.011,-0.055 0.023,-0.111 0.036,-0.167c0.005,-0.025 0.009,-0.051 0.014,-0.076l0.002,-0.001c0.569,-2.767 -0.9,-8.105 0.422,-10.922c-2.576,0.095 -6.592,0.111 -9.382,-1.867c-1.964,2.769 -4.54,1.502 -5.287,2.286c-0.812,0.853 -3.51,2.287 -3.978,2.302c-0.003,0 -0.006,0 -0.01,0c-0.068,0.065 -0.152,0.114 -0.247,0.144c-0.336,0.103 -0.693,-0.085 -0.797,-0.421c-0.103,-0.337 0.085,-0.693 0.422,-0.797c0.25,-0.077 0.513,0.008 0.673,0.196c1.386,-0.54 2.664,-2.064 2.664,-2.064c-3.261,0.844 -4.366,0.338 -4.717,-0.012c-0.026,0.012 -0.052,0.022 -0.08,0.031c-0.336,0.103 -0.693,-0.085 -0.796,-0.421c-0.104,-0.337 0.085,-0.693 0.421,-0.797c0.336,-0.104 0.693,0.085 0.796,0.421c0.021,0.069 0.03,0.139 0.028,0.208c1.361,0.859 3.863,-0.589 3.972,-0.647c-2.212,-0.108 -3.331,-1.171 -3.771,-1.728c-0.246,-0.025 -0.466,-0.194 -0.544,-0.446c-0.103,-0.336 0.085,-0.693 0.422,-0.796c0.336,-0.104 0.692,0.084 0.796,0.42c0.042,0.137 0.036,0.278 -0.009,0.403c0.269,0.308 1.126,1.094 2.795,0.995c1.246,-0.073 1.195,-2.431 1.176,-2.934c-0.042,-0.057 -0.076,-0.122 -0.098,-0.194c-0.104,-0.336 0.085,-0.693 0.421,-0.797c0.336,-0.103 0.693,0.085 0.797,0.422c0.066,0.213 0.013,0.436 -0.12,0.596c-0.104,0.331 -0.927,2.282 0.773,2.987c1.802,0.748 2.278,-1.033 2.36,-1.43c-0.501,-0.827 -0.872,-1.823 -1.066,-3.021c-3.083,-1.044 -4.452,-3.265 -5.111,-5.292c-0.135,-0.093 -0.258,-0.214 -0.362,-0.356l0,0l0,-0.001c-0.001,-0.001 -0.002,-0.003 -0.003,-0.004l-0.001,-0.001l-0.001,-0.001l0,-0.001l-0.001,-0.001l-0.002,-0.003l-0.002,-0.003l0,0l0,0c-0.08,-0.112 -0.148,-0.237 -0.201,-0.374l-0.001,-0.001l0,0l0,-0.001l-0.001,-0.002c-0.015,-0.039 -0.029,-0.079 -0.041,-0.119c-0.007,-0.023 -0.014,-0.045 -0.02,-0.067c-0.009,-0.035 -0.017,-0.069 -0.024,-0.104l0,-0.001l0,0l0,0l0,-0.001c-0.082,-0.404 -0.016,-0.798 0.163,-1.096c-0.127,-0.808 -0.179,-1.452 -0.265,-1.783c-0.341,-1.315 0.86,-1.814 0.86,-1.814c0.703,-0.023 2.702,-0.446 2.702,-0.446c0.154,-0.052 0.306,-0.098 0.455,-0.136c0,-0.034 0.001,-0.068 0.005,-0.102c0.062,-0.619 0.692,-1.068 1.437,-1.049c0.044,0.001 0.089,0.004 0.134,0.008c0.089,0.009 0.175,0.025 0.258,0.046l0.013,0.003c0.638,0.166 1.088,0.668 1.066,1.224c1.693,0.678 2.664,2.317 3.07,3.165c0.903,-0.318 2.05,-0.499 3.477,-0.349c0.442,-0.423 0.755,-1.096 0.124,-2.054c-0.845,-1.282 -2.668,-0.459 -3.053,-0.231c-0.129,0.182 -0.351,0.291 -0.59,0.265c-0.349,-0.039 -0.602,-0.354 -0.563,-0.703c0.038,-0.35 0.353,-0.603 0.703,-0.564c0.082,0.009 0.158,0.033 0.227,0.069c0.537,-0.043 2.823,-0.341 2.642,-1.717c-0.25,-1.903 -1.517,-2.599 -1.703,-2.691c-0.11,0.058 -0.238,0.085 -0.37,0.071c-0.35,-0.039 -0.602,-0.353 -0.564,-0.703c0.039,-0.35 0.353,-0.602 0.703,-0.564c0.276,0.031 0.491,0.233 0.551,0.488c0.614,0.304 2.021,1.225 2.571,3.483c-0.004,0.014 -0.004,0.017 0.002,0.006l-0.002,-0.006c0.061,-0.199 0.976,-2.672 -0.025,-3.706Zm-12.189,22.742l0.001,0c0.004,-0.003 0.003,-0.003 -0.001,0Z" style="fill:#171714;fill-rule:nonzero;"/></g></g></g></svg>