<?xml version="1.0" encoding="UTF-8" standalone="no"?><!DOCTYPE svg PUBLIC "-//W3C//DTD SVG 1.1//EN" "http://www.w3.org/Graphics/SVG/1.1/DTD/svg11.dtd"><svg width="100%" height="100%" viewBox="0 0 64 64" version="1.1" xmlns="http://www.w3.org/2000/svg" xmlns:xlink="http://www.w3.org/1999/xlink" xml:space="preserve" xmlns:serif="http://www.serif.com/" style="fill-rule:evenodd;clip-rule:evenodd;stroke-miterlimit:10;"><g id="Species"><g id="Birds"><g id="wild-turkey-copy" serif:id="wild turkey copy"><path id="Outline" d="M61.126,31.687c0,-16.179 -13.135,-29.313 -29.313,-29.313c-16.178,0 -29.313,13.134 -29.313,29.313c0,16.178 13.135,29.313 29.313,29.313c16.178,0 29.313,-13.135 29.313,-29.313Z" style="fill:none;stroke:#000;stroke-width:3px;"/><path d="M30.714,18.191c0.015,0.008 0.094,-0.015 0.091,-0.015c0.04,-0.003 0.096,-0.016 0.107,-0.015c0.077,0.002 0.138,0.047 0.21,0.042c0.122,-0.009 0.071,-0.055 0.144,-0.12c0.067,-0.06 0.08,-0.075 0.172,-0.044c0.045,0.015 0.119,0.057 0.16,0.107c0.046,0.056 0.03,0.133 0.076,0.182c0.063,0.07 0.111,0.078 0.152,0.168c0.034,0.074 0.064,0.304 0.135,0.362c0.117,0.095 0.186,-0.107 0.283,-0.139c0.142,-0.047 0.376,-0.057 0.496,0.021c0.046,0.03 0.066,0.114 0.122,0.122c0.095,0.014 0.183,-0.067 0.26,-0.076c-0.036,0.139 -0.062,-0.043 -0.062,0.122c0.041,0 0.086,-0.111 0.138,-0.122c0.068,-0.015 0.155,0.066 0.198,0.106c0.094,0.089 0.349,0.355 0.32,0.473c0.072,-0.084 0.164,0.259 0.183,0.281c0.11,0.125 0.169,-0.031 0.274,-0.098c0.041,-0.027 0.089,-0.057 0.152,-0.077c0.06,-0.019 0.193,-0.018 0.259,-0.038c0.037,-0.011 0.057,-0.039 0.107,-0.053c-0.001,0.094 0.078,0.258 0.152,0.305c0.07,0.044 0.203,-0.045 0.303,-0.019c0.219,0.055 0.307,0.315 0.444,0.43c0.128,0.108 0.102,0.039 0.249,-0.003c0.104,-0.03 0.16,0.006 0.223,0.018c0.159,0.032 0.19,-0.097 0.336,-0.183c0.02,0.244 0.14,0.246 0.289,0.313c0.026,0.011 0.081,0.027 0.122,0.053c0.125,0.08 0.108,0.052 0.259,0.015c0.016,0.099 0.002,0.195 0.015,0.259c0.01,0.047 0.049,0.078 0.061,0.107c0.024,0.059 0.024,0.368 0.107,0.381c0.084,0.013 0.207,-0.155 0.305,-0.183c0.045,-0.013 0.144,-0.015 0.152,-0.015c0.077,-0.004 -0.147,-0.069 0.106,-0.008c0.052,-0.017 0.088,-0.007 0.111,0.031c0.019,0.023 0.038,0.045 0.057,0.068c0.095,0.019 0.118,-0.034 0.198,-0.076c0.338,-0.174 0.328,0.359 0.376,0.511c0.067,0.216 0.212,0.086 0.325,0c0.135,-0.104 0.261,-0.217 0.427,-0.313c-0.017,0.547 0.467,-0.048 0.678,0.259c0.072,0.105 -0.012,0.208 0.16,0.198c0.021,-0.001 0.1,-0.055 0.137,-0.068c0.054,-0.019 0.093,-0.028 0.156,-0.032c0.115,-0.008 0.244,0.041 0.331,0.055c0.111,0.016 0.1,-0.034 0.199,-0.077c0.107,-0.046 0.136,-0.056 0.213,-0.152c0.046,-0.058 0.057,-0.104 0.091,-0.168c0.114,-0.21 0.274,-0.463 0.366,-0.693c0.104,-0.258 0.231,-0.531 0.373,-0.789c0.165,-0.297 0.34,-0.564 0.496,-0.864c0.2,-0.387 0.271,-0.713 0.472,-1.067c0.146,-0.258 0.303,-0.542 0.518,-0.785c0.119,-0.133 0.156,-0.272 0.252,-0.403c0.096,-0.134 0.206,-0.267 0.289,-0.419c0.58,-1.074 1.101,-2.058 1.638,-3.116c0.275,-0.541 0.558,-1.041 0.853,-1.577c0.259,-0.471 0.406,-0.874 0.64,-1.288c0.084,-0.148 0.178,-0.277 0.275,-0.411c0.138,-0.193 0.223,-0.413 0.35,-0.61c0.211,-0.327 0.438,-0.717 0.602,-1.044c0.041,-0.082 0.085,-0.159 0.13,-0.235c0.598,0.401 1.468,1.061 2.639,2.119c-0.024,0.026 -0.046,0.054 -0.06,0.07c-0.078,0.09 -0.126,0.182 -0.126,0.264c0.044,0 0.105,-0.113 0.134,-0.144c0.015,-0.016 0.078,-0.086 0.126,-0.123c0.081,0.075 0.16,0.145 0.245,0.223c0.356,0.329 0.679,0.644 0.978,0.946c-0.005,0.019 -0.009,0.039 -0.008,0.057c0.003,0.044 0.037,0.083 0.039,0.122c0.006,0.075 -0.011,0.083 -0.029,0.137c-0.029,0.088 -0.088,0.21 -0.114,0.275c-0.031,0.076 -0.051,0.142 -0.091,0.213c-0.027,0.046 -0.066,0.049 -0.077,0.122c0.024,0 0.214,-0.168 0.214,-0.183c-0.05,0 -0.078,0.051 -0.122,0.076c0,-0.072 0.086,-0.098 0.137,-0.137c-0.002,0.013 -0.005,0.025 -0.009,0.037c0.036,0.021 0.263,-0.193 0.313,-0.22c0.082,-0.043 0.092,-0.061 0.163,-0.071c0.289,0.305 0.546,0.588 0.771,0.846c-0.005,0.05 -0.013,0.1 -0.027,0.147c0.038,0.079 0.018,0.121 -0.061,0.125c-0.047,0.015 -0.085,0.042 -0.114,0.081c-0.044,0.059 -0.063,0.174 -0.039,0.244c0.022,0.068 0.058,0.069 0.073,0.126c0.018,0.064 0.007,0.151 0.005,0.218c-0.004,0.197 -0.1,0.417 -0.226,0.581c-0.134,0.177 -0.331,0.176 -0.499,0.309c-0.146,0.116 -0.274,0.259 -0.35,0.411c-0.054,0.107 -0.152,0.218 -0.168,0.336c0.026,0 0.025,-0.036 0.061,-0.046c0,0.038 -0.029,0.06 -0.03,0.106c0.079,0 0.179,-0.148 0.228,-0.198c0.086,-0.086 0.193,-0.211 0.305,-0.304c0.109,-0.091 0.266,-0.147 0.381,-0.229c0.058,-0.041 0.085,-0.058 0.152,-0.091c0.09,-0.045 0.157,-0.138 0.229,-0.183c0.13,-0.083 0.85,-0.16 0.777,0.061c0.073,0 -0.039,-0.095 0.081,-0.014c0.038,0.026 0.09,0.045 0.102,0.082c0.014,0.042 -0.046,0.071 -0.046,0.099c0.035,-0.011 0.07,-0.016 0.107,-0.015c-0.002,0.05 -0.019,0.062 -0.031,0.107c0.007,0 0.043,-0.033 0.031,-0.046c0.043,-0.031 0.068,-0.017 0.075,0.042c0.029,0.026 0.04,0.058 0.031,0.095c0.032,0.073 0.048,0.136 0.054,0.259c0.007,0.163 0.036,0.257 0.023,0.381c-0.011,0.098 -0.041,0.155 -0.092,0.29c-0.043,0.113 -0.02,0.19 -0.038,0.297c-0.011,0.067 -0.051,0.111 -0.114,0.175c-0.018,0.018 -0.085,0.058 -0.092,0.076c-0.023,0.062 0.031,0.137 0.033,0.2c0,0.025 -0.016,0.054 -0.017,0.059c-0.028,0.162 -0.091,0.268 -0.122,0.427c-0.026,0.129 -0.094,0.247 -0.149,0.386c-0.057,0.144 -0.201,0.276 -0.308,0.391c-0.025,0.026 -0.085,0.085 -0.107,0.107c-0.032,0.032 -0.198,0.106 -0.198,0.167c0.015,-0.005 0.02,0 0.015,0.015c0.261,-0.174 0.486,-0.293 0.762,-0.38c0.089,-0.029 0.196,-0.133 0.305,-0.153c0.184,-0.034 0.344,-0.01 0.442,0.061c0.333,0.243 0.404,0.53 0.502,0.899c0.032,0.117 0.037,0.327 0.018,0.48c-0.008,0.07 -0.02,0.218 -0.078,0.313c-0.012,0.018 -0.183,0.147 -0.183,0.152c0.079,0 -0.032,0.19 -0.046,0.228c-0.021,0.056 -0.029,0.112 -0.036,0.2c-0.005,0.067 -0.003,0.159 -0.027,0.223c-0.044,0.117 -0.04,0.115 -0.166,0.157c0.062,0.084 -0.154,0.467 -0.243,0.533c-0.083,0.06 -0.048,0.025 -0.115,0.061c-0.022,0.012 -0.049,-0.012 -0.071,0.003c-0.048,0.033 -0.031,0.062 -0.043,0.119c-0.012,0.061 0.114,-0.107 0.03,0.091c-0.012,0.028 -0.079,0.071 -0.102,0.091c-0.058,0.051 -0.093,0.095 -0.156,0.145c-0.234,0.183 -0.416,0.221 -0.64,0.419c-0.106,0.093 -0.247,0.209 -0.351,0.324c-0.077,0.086 -0.177,0.172 -0.148,0.299c0.025,0.107 0.123,0.309 0.271,0.255c0.078,-0.029 0.173,-0.167 0.255,-0.239c0.106,-0.093 0.221,-0.225 0.338,-0.333c0.227,-0.209 0.503,-0.442 0.716,-0.641c0.14,-0.131 0.347,-0.377 0.557,-0.259c0.234,0.132 0.139,0.382 0.083,0.548c0.103,0.035 0.159,0.103 0.168,0.214c0.005,0.059 -0.035,0.127 -0.046,0.183c-0.016,0.085 0.017,0.148 0,0.228c-0.027,0.13 -0.18,0.24 -0.228,0.376c-0.036,0.101 -0.022,0.167 -0.077,0.234c-0.02,0.024 -0.095,0.047 -0.121,0.091c-0.053,0.089 0.008,0.036 -0.031,0.122c-0.025,0.02 -0.051,0.041 -0.076,0.061c-0.01,0.051 -0.02,0.102 -0.03,0.152c-0.009,0.017 -0.062,0.068 -0.077,0.092c-0.057,0.096 -0.096,0.192 -0.152,0.289c-0.039,0.069 -0.085,0.137 -0.122,0.198c-0.022,0.037 0.006,0.03 -0.015,0.076c-0.009,0.02 -0.068,0.026 -0.072,0.058c-0.018,0.14 0.12,0.147 0.194,0.247c0.155,0.214 0.182,0.46 0.182,0.686c0.001,0.269 0.01,0.593 -0.045,0.884c-0.022,0.113 -0.071,0.252 -0.122,0.35c-0.037,0.069 -0.11,0.171 -0.168,0.229c-0.044,0.044 -0.091,0.097 -0.122,0.137c-0.067,0.086 -0.091,0.142 -0.152,0.228c-0.047,0.067 -0.135,0.094 -0.168,0.153c-0.037,0.068 -0.007,0.042 0.016,0.106c0.021,0.06 0.096,0.151 0.106,0.199c0.027,0.128 -0.018,0.27 -0.03,0.365c-0.029,0.22 0.017,0.526 -0.015,0.823c-0.035,0.314 -0.31,0.551 -0.529,0.78c-0.091,0.095 -0.198,0.181 -0.264,0.271c-0.045,0.063 -0.081,0.144 -0.137,0.199c-0.138,0.134 -0.343,0.255 -0.503,0.304c-0.248,0.077 -0.49,0.16 -0.793,0.22c-0.426,0.083 -0.798,0.13 -1.127,0.161c-0.136,0.013 -0.315,0.01 -0.495,0.031c-0.342,0.039 -0.748,0.137 -1.044,0.183c-0.388,0.059 -0.917,0.18 -1.249,0.243c-0.615,0.119 -1.233,0.273 -1.905,0.386c-0.383,0.065 -0.72,0.183 -1.097,0.239c-0.161,0.024 -0.311,0.057 -0.509,0.098c-0.381,0.078 0.02,0.305 0.159,0.359c0.264,0.104 0.583,0.224 0.868,0.275c0.111,0.019 0.274,0.096 0.397,0.121c0.276,0.059 0.544,0.135 0.777,0.168c0,0.106 -0.478,0.086 -0.503,0.137c-0.101,0.203 0.273,0.194 0.244,0.32c-0.012,0.05 -0.467,0.075 -0.496,0.079c-0.136,0.015 -0.245,0.006 -0.358,0.005c-0.087,-0.001 -0.442,-0.082 -0.476,0.028c-0.038,0.122 0.29,0.227 0.309,0.36c-0.151,0.02 -0.306,0.035 -0.458,0.016c-0.056,-0.008 -0.409,-0.11 -0.285,0.093c0.022,0.035 0.153,0.057 0.194,0.09c0.09,0.071 0.163,0.193 0.213,0.259c0.065,0.083 0.174,0.169 0.244,0.244c0.079,0.082 0.18,0.146 0.256,0.231c0.06,0.067 0.069,0.125 0.125,0.18c0.038,0.037 0.189,0.069 0.229,0.076c0.129,0.022 0.194,0.056 0.335,0.122c0.275,0.129 0.614,0.123 0.884,0.228c0.15,0.059 0.286,0.148 0.442,0.244c0.128,0.08 0.352,0.12 0.441,0.275c-0.129,0 -0.214,-0.006 -0.304,0c-0.043,0.002 -0.122,0.001 -0.143,0.038c-0.057,0.099 0.1,0.154 0.128,0.205c0.037,0.069 0.001,0.18 0.022,0.221c0.052,0.099 0.304,0.16 0.404,0.206c0.102,0.047 0.221,0.118 0.305,0.168c0.216,0.128 0.355,0.233 0.564,0.335c0.091,0.045 0.204,0.104 0.297,0.16c0.094,0.056 0.207,0.201 0.312,0.236c-0.06,0.18 -0.136,0.313 -0.183,0.442c-0.02,0.056 -0.115,0.242 -0.091,0.289c-0.072,0.036 -0.156,0.332 -0.183,0.396c-0.068,0.163 -0.114,0.323 -0.213,0.458c-0.084,0.113 -0.22,0.215 -0.358,0.335c-0.12,0.103 -0.213,0.164 -0.328,0.213c-0.103,0.044 -0.186,0.058 -0.305,0.107c-0.065,0.027 -0.134,0.106 -0.223,0.126c-0.076,0.017 -0.124,-0.055 -0.219,-0.054c-0.083,0.002 -0.181,0.068 -0.259,0.095c-0.109,0.039 -0.292,0.128 -0.458,0.073c-0.19,-0.064 -0.272,-0.362 -0.456,-0.408c0.001,0.022 0.006,0.042 0.015,0.061c-0.148,0 -0.254,0.208 -0.371,0.315c-0.08,0.073 -0.165,0.159 -0.255,0.206c-0.063,0.033 -0.092,0.027 -0.143,0.04c-0.111,0.027 -0.041,-0.059 -0.143,0.031c-0.127,0.113 -0.134,0.127 -0.291,0.185c-0.06,0.023 -0.189,0.057 -0.233,0.065c-0.129,0.021 -0.301,0.051 -0.398,-0.036c-0.061,-0.055 -0.106,-0.168 -0.147,-0.227c-0.086,-0.125 -0.21,-0.533 -0.365,-0.533c0.01,0.112 0.086,0.264 0.122,0.35c0.03,0.074 0.092,0.188 0.137,0.275c0.063,0.122 0.027,0.148 0.015,0.335c0,0.001 0,0.105 0,0.106c0.001,0.169 -0.012,0.414 0.014,0.61c0.007,0.056 0.01,0.097 0.022,0.179c0.013,0.092 0.033,0.074 0.086,0.126c0.026,0.025 0.078,0.046 0.091,0.091c0.041,0.135 -0.078,0.114 -0.175,0.168c-0.184,0.102 -0.11,0.12 0.023,0.198c0.343,0.201 0.633,0.536 0.868,0.838c0.279,0.357 0.021,0.753 -0.296,1.036c-0.108,0.096 -0.302,0.294 -0.473,0.3c-0.099,0.004 -0.181,-0.069 -0.267,-0.117c-0.112,-0.063 -0.252,-0.138 -0.35,-0.198c-0.043,-0.027 -0.091,-0.061 -0.133,-0.076c-0.061,-0.02 -0.142,0.041 -0.172,-0.077c0.063,0.007 0.069,0.044 0.122,0.061c-0.033,-0.056 -0.134,-0.12 -0.198,-0.137c0.002,0.076 0.042,0.101 0.061,0.168c-0.002,0 -0.023,-0.024 -0.025,-0.02c-0.058,0.116 0.352,0.366 0.425,0.424c0.187,0.148 0.349,0.318 0.529,0.449c0.173,0.125 0.237,0.291 0.229,0.533c-0.006,0.159 -0.012,0.339 -0.099,0.503c-0.119,0.225 -0.354,0.433 -0.571,0.61c-0.141,0.114 -0.315,0.28 -0.503,0.35c-0.174,0.065 -0.513,-0.036 -0.656,-0.091c-0.075,-0.03 -0.179,-0.144 -0.255,-0.168c-0.13,-0.04 -0.312,0.146 -0.4,0.229c-0.284,0.269 -0.552,0.199 -0.868,0.274c0,0.037 -0.613,-0.086 -0.64,-0.091c-0.13,-0.028 -0.278,-0.053 -0.396,0.045c-0.071,0.059 -0.12,0.2 -0.183,0.275c-0.255,0.3 -0.487,0.703 -0.891,0.819c-0.338,0.097 -0.772,0 -1.052,-0.179c-0.053,-0.034 -0.107,-0.087 -0.16,-0.122c-0.11,-0.074 -0.097,-0.04 -0.196,0.032c-0.088,0.064 -0.142,0.094 -0.23,0.12c-0.311,0.092 -0.795,-0.008 -1.105,-0.122c-0.151,-0.055 -0.314,-0.185 -0.511,-0.167c-0.042,0.003 -0.079,0.01 -0.137,0.03c-0.086,0.03 -0.173,0.1 -0.274,0.137c-0.233,0.086 -0.344,0.136 -0.625,0.054c-0.126,-0.038 -0.332,-0.07 -0.442,-0.069c-0.124,0.001 -0.344,-0.015 -0.488,-0.137c-0.043,-0.037 -0.029,-0.077 -0.091,-0.107c-0.05,-0.025 -0.148,-0.041 -0.183,-0.045c-0.103,-0.016 -0.143,-0.034 -0.221,-0.062c-0.084,-0.029 -0.155,-0.089 -0.236,-0.152c-0.169,-0.131 -0.419,-0.095 -0.594,-0.198c-0.064,-0.038 -0.165,-0.124 -0.213,-0.183c-0.05,-0.06 -0.06,-0.091 -0.144,-0.134c-0.111,-0.057 -0.245,-0.08 -0.344,-0.14c-0.124,-0.075 -0.236,-0.215 -0.381,-0.285c-0.118,-0.056 -0.174,-0.091 -0.274,-0.157c-0.026,-0.017 -0.134,-0.107 -0.169,-0.112c-0.051,-0.007 -0.028,-0.036 -0.052,0.026c-0.015,0.039 0.02,0.147 0.024,0.197c0.011,0.112 0.018,0.209 0.029,0.308c0.016,0.143 0.05,0.3 0.061,0.419c0.011,0.12 0.019,0.278 0.038,0.366c0.021,0.092 0.024,0.195 0.014,0.318c-0.012,0.169 0.004,0.344 -0.001,0.55c-0.003,0.11 0.058,0.324 0.025,0.381c0.038,0 0.019,0.058 0.016,0.076c0.015,0 0.089,0.389 0.076,0.412c0.024,0 0.054,0.235 0.045,0.259c0.066,0 0.273,1.437 0.301,1.562c0.037,0.161 0.078,0.301 0.096,0.434c0.019,0.153 0.036,0.267 0.061,0.396c0.007,0.038 0.059,0.091 0.03,0.137c0.029,0 0.229,1.05 0.244,1.128c0.076,0.407 0.189,0.836 0.221,1.295c0.007,0.108 -0.014,0.101 0.084,0.206c0.077,0.083 0.101,0.17 0.162,0.265c0.026,0.039 0.115,0.154 0.127,0.19c0.01,0.032 0.058,0.064 0.074,0.116c0.025,0.08 0.09,0.101 0.109,0.198c0.036,0.182 0.196,0.333 0.364,0.467c0.164,0.131 0.26,0.344 0.474,0.432c0.151,0.063 0.339,0.215 0.47,0.335c0.236,0.217 0.302,0.525 0.277,0.808c-0.042,0 -0.142,-0.104 -0.168,-0.122c-0.037,-0.025 -0.069,-0.045 -0.107,-0.061c-0.122,-0.051 -0.241,-0.04 -0.411,-0.076c-0.142,-0.031 -0.353,-0.134 -0.488,-0.213c-0.203,-0.12 -0.363,-0.282 -0.548,-0.351c-0.078,-0.029 -0.192,-0.063 -0.29,-0.076c-0.145,-0.02 -0.321,0.036 -0.442,0.076c-0.129,0.043 -0.215,0.085 -0.32,0.137c-0.116,0.058 -0.307,0.111 -0.411,0.198c-0.186,0.158 -0.322,0.162 -0.564,0.214c-0.18,0.038 -0.409,-0.005 -0.612,0.011c-0.215,0.017 -0.296,0.02 -0.464,0.09c-0.101,0.042 -0.174,0.113 -0.226,0.059c-0.065,-0.068 -0.021,-0.212 -0.028,-0.298c-0.014,-0.16 -0.11,-0.162 -0.224,-0.121c-0.24,0.085 -0.604,0.121 -0.884,0.053c-0.166,-0.041 -0.385,-0.06 -0.533,0.023c-0.113,0.063 -0.156,0.126 -0.289,0.152c-0.001,-0.196 0.096,-0.352 0.213,-0.48c0.115,-0.126 0.32,-0.151 0.472,-0.228c0.31,-0.158 0.772,-0.086 1.097,-0.206c0.092,-0.034 0.18,-0.051 0.276,-0.102c0.114,-0.059 0.125,-0.102 0.235,-0.127c0.087,-0.019 0.163,-0.008 0.243,-0.03c0.038,-0.01 0.073,-0.046 0.1,-0.061c0.217,-0.119 0.457,-0.262 0.655,-0.427c0.497,-0.414 0.343,-1.16 0.175,-1.611c-0.006,-0.016 -0.036,-0.178 -0.034,-0.197c0.007,-0.115 -0.013,-0.11 -0.035,-0.233c-0.013,-0.079 -0.051,-0.175 -0.076,-0.305c-0.038,-0.205 -0.121,-0.485 -0.183,-0.701c-0.131,-0.459 -0.203,-0.87 -0.32,-1.387c-0.162,-0.722 -0.423,-1.723 -0.563,-2.514c-0.079,-0.441 -0.482,-0.604 -0.732,-0.914c-0.091,-0.114 -0.135,-0.189 -0.167,-0.32c-0.042,-0.165 -0.021,-0.336 -0.077,-0.457c-0.041,-0.09 -0.127,-0.166 -0.183,-0.259c-0.079,-0.136 -0.038,-0.349 -0.106,-0.457c-0.034,-0.054 -0.092,-0.097 -0.125,-0.149c-0.054,-0.085 -0.115,-0.162 -0.165,-0.24c-0.062,-0.1 -0.139,-0.222 -0.213,-0.312c-0.125,-0.154 -0.166,-0.173 -0.32,-0.114c-0.076,0.028 -0.202,0.073 -0.273,0.13c-0.091,0.073 -0.072,0.093 -0.077,0.217c-0.004,0.07 0.001,0.108 0,0.148c-0.005,0.105 -0.026,0.295 -0.031,0.365c-0.004,0.07 -0.012,0.22 -0.015,0.244c-0.016,0.148 -0.068,0.223 -0.114,0.343c-0.033,0.084 -0.015,0.12 -0.023,0.221c-0.024,0.305 -0.127,0.629 -0.159,0.945c-0.042,0.411 -0.099,0.728 -0.176,1.036c-0.024,0.095 -0.065,0.15 -0.092,0.243c-0.037,0.126 -0.037,0.209 -0.046,0.336c-0.034,0.528 -0.146,1.016 -0.213,1.493c-0.056,0.4 -0.058,0.833 -0.107,1.295c-0.032,0.309 -0.089,0.691 -0.121,1.006c-0.034,0.33 -0.122,0.739 -0.046,1.051c0.037,0.154 0,0.443 0.076,0.61c0.061,0.133 0.19,0.255 0.274,0.365c0.035,0.045 0.077,0.138 0.114,0.176c0.062,0.061 0.161,0.114 0.222,0.19c0.039,0.05 0.057,0.115 0.091,0.168c0.047,0.074 0.127,0.158 0.183,0.244c0.064,0.098 0.136,0.219 0.183,0.32c0.061,0.131 0.128,0.267 0.045,0.441c-0.019,0.041 -0.068,0.097 -0.091,0.137c-0.085,0.147 -0.061,0.123 -0.183,0.046c-0.07,-0.044 -0.173,-0.094 -0.228,-0.15c-0.065,-0.064 -0.165,-0.209 -0.206,-0.276c-0.05,-0.082 -0.07,-0.12 -0.145,-0.214c-0.039,-0.048 -0.071,-0.124 -0.107,-0.183c-0.051,-0.085 -0.124,-0.419 -0.274,-0.359c-0.068,0.027 -0.151,0.204 -0.183,0.268c-0.046,0.092 -0.019,0.241 -0.061,0.335l-0.091,0.122c0.009,-0.015 0.1,-0.142 0.091,-0.122l0,0l0,0c0.009,-0.02 -0.082,0.107 -0.091,0.122c-0.031,0.05 -0.048,0.102 -0.071,0.168c-0.025,0.068 -0.026,0.092 -0.074,0.152c-0.038,0.048 -0.05,0.047 -0.084,0.076c-0.131,0.117 -0.301,0.087 -0.53,0.086c-0.196,-0.001 -0.38,-0.023 -0.559,-0.009c-0.151,0.011 -0.336,-0.056 -0.465,0.03c-0.096,0.064 -0.097,0.263 -0.267,0.202c-0.071,-0.026 -0.058,-0.129 -0.144,-0.172c-0.097,-0.047 -0.392,0.026 -0.473,0.031c-0.255,0.014 -0.481,0 -0.693,0.046c-0.147,0.031 -0.306,0 -0.485,0.008c-0.075,0.003 -0.224,0.018 -0.269,0.037c-0.048,0.02 -0.098,0.062 -0.137,0.077c-0.171,0.062 -0.393,0.031 -0.591,0.011c-0.218,-0.022 -0.343,-0.04 -0.522,-0.072c-0.07,-0.013 -0.14,-0.065 -0.213,-0.092c-0.107,-0.039 -0.249,-0.044 -0.381,-0.046c-0.106,-0.001 -0.228,0.038 -0.335,0.077c-0.104,0.037 -0.202,0.143 -0.351,0.152c0,-0.115 -0.005,-0.166 0.054,-0.251c0.015,-0.022 0.1,-0.12 0.114,-0.13c0.045,-0.032 0.127,-0.081 0.183,-0.107c0.081,-0.037 0.197,-0.066 0.289,-0.091c0.123,-0.033 0.285,0.006 0.442,-0.031c0.163,-0.037 0.282,-0.148 0.517,-0.174c0.484,-0.055 0.977,-0.102 1.451,-0.199c0.218,-0.044 0.438,-0.101 0.653,-0.145c0.239,-0.048 0.498,-0.086 0.732,-0.152c0.129,-0.036 0.295,-0.161 0.426,-0.221c0.138,-0.063 0.401,-0.216 0.48,-0.373c0.109,-0.214 0.066,-0.479 0.13,-0.755c0.02,-0.086 0.044,-0.147 0.076,-0.236c0.04,-0.112 0.034,-0.287 0.053,-0.411c0.014,-0.088 0.028,-0.241 0.053,-0.351c0.048,-0.203 0.09,-0.449 0.138,-0.678c0.028,-0.134 0.072,-0.337 0.091,-0.434c0.1,-0.493 0.104,-0.942 0.145,-1.464c0.012,-0.158 0.026,-0.382 0.038,-0.501c0.01,-0.097 0.006,-0.144 0.015,-0.252c0.018,-0.208 0.017,-0.422 0.046,-0.655c0.07,-0.561 0.125,-1.236 -0.023,-1.73c-0.065,-0.216 -0.247,-0.42 -0.373,-0.647c-0.059,-0.106 -0.124,-0.259 -0.107,-0.419c0.001,-0.01 0.078,-0.357 0.026,-0.331c0.089,-0.044 0.043,-0.148 -0.056,-0.157c-0.024,-0.002 -0.164,0.059 -0.183,0.061c-0.111,0.015 -0.23,0.002 -0.32,0.061c-0.079,0.051 -0.126,0.108 -0.214,0.137c-0.264,0.087 -0.5,0.048 -0.807,0.061c-0.177,0.008 -0.341,-0.026 -0.549,-0.045c-0.112,-0.011 -0.22,-0.01 -0.35,-0.046c-0.079,-0.022 -0.215,-0.128 -0.305,-0.137c-0.078,-0.008 -0.094,-0.006 -0.175,0.057c-0.04,0.03 -0.06,0.106 -0.114,0.126c-0.043,0.015 -0.055,-0.015 -0.107,-0.016c-0.04,0 -0.141,0.047 -0.213,0.061c-0.289,0.058 -0.567,0.079 -0.884,0.031c-0.17,-0.026 -0.214,0.035 -0.401,0.015c-0.196,-0.02 -0.236,-0.187 -0.483,-0.183c-0.241,0.004 -0.366,-0.071 -0.533,-0.122c-0.06,-0.017 -0.121,-0.012 -0.197,-0.02c-0.112,-0.012 -0.121,-0.035 -0.199,-0.071c-0.148,-0.068 -0.233,-0.078 -0.432,-0.082c-0.148,-0.002 -0.38,-0.016 -0.483,-0.101c-0.028,-0.023 -0.023,-0.066 -0.061,-0.091c-0.061,-0.042 -0.114,-0.021 -0.167,-0.046c-0.126,-0.059 -0.268,-0.154 -0.381,-0.214c-0.23,-0.119 -0.512,-0.269 -0.701,-0.365c-0.125,-0.064 -0.272,-0.127 -0.396,-0.213c-0.039,-0.027 -0.103,-0.058 -0.137,-0.092c-0.076,-0.074 -0.089,-0.169 -0.16,-0.236c-0.093,-0.088 -0.207,-0.121 -0.328,-0.19c-0.064,-0.037 -0.081,-0.045 -0.16,-0.077c-0.091,-0.037 -0.152,-0.091 -0.236,-0.137c-0.116,-0.063 -0.303,-0.179 -0.396,-0.32c-0.022,-0.032 -0.033,-0.134 -0.076,-0.168c-0.055,-0.041 -0.262,-0.054 -0.305,-0.06c-0.463,-0.074 -0.878,-0.254 -1.265,-0.458c-0.202,-0.106 0.001,-0.18 0.122,-0.259c0.084,-0.054 0.16,-0.039 0.198,-0.137c0.04,-0.105 -0.003,-0.146 -0.107,-0.213c-0.107,-0.069 -0.235,-0.107 -0.331,-0.201c-0.041,-0.041 -0.067,-0.106 -0.116,-0.156c-0.036,-0.038 -0.086,-0.07 -0.13,-0.096c-0.029,-0.02 -0.06,-0.037 -0.092,-0.053c-0.043,-0.005 -0.052,-0.032 -0.028,-0.081c-0.044,-0.072 0.017,-0.095 -0.08,-0.144c-0.067,-0.035 -0.11,-0.011 -0.167,0c-0.066,0.012 -0.142,0.051 -0.19,-0.042c-0.083,-0.162 0.032,-0.512 -0.161,-0.614c-0.072,-0.038 -0.123,0.046 -0.209,-0.008c-0.063,-0.038 -0.05,-0.107 -0.096,-0.159c-0.011,-0.013 -0.077,-0.034 -0.091,-0.046c-0.013,-0.011 -0.081,-0.107 -0.107,-0.122c-0.07,-0.04 -0.196,-0.038 -0.304,-0.045c0.027,-0.223 0.063,-0.419 -0.066,-0.632c-0.007,-0.012 -0.048,-0.01 -0.056,-0.024c-0.003,-0.005 -0.018,-0.098 -0.015,-0.091c-0.015,-0.04 0.008,-0.092 -0.031,-0.122c-0.109,-0.086 -0.178,0.069 -0.213,0.137c-0.107,0.207 -0.241,0.453 -0.305,0.671c-0.077,0.263 -0.264,0.535 -0.366,0.792c-0.124,0.313 -0.217,0.585 -0.274,0.914c-0.019,0.111 -0.037,0.262 -0.053,0.381c-0.013,0.085 -0.045,0.472 -0.191,0.472c-0.009,-0.076 -0.002,-0.274 -0.091,-0.274c0,0.065 -0.072,0.142 -0.092,0.198c-0.035,0.099 -0.064,0.18 -0.106,0.29c-0.106,0.27 -0.194,0.497 -0.214,0.838c-0.025,0 -0.075,-0.084 -0.076,-0.122c-0.088,0 -0.062,0.196 -0.091,0.248c-0.013,0.022 -0.008,0.022 -0.016,0.041c-0.048,-0.02 -0.07,-0.009 -0.065,0.033c-0.003,0.031 -0.012,0.061 -0.026,0.089c-0.062,0.12 -0.147,0.349 -0.206,0.503c-0.048,0.127 -0.064,0.298 -0.084,0.47c-0.012,0.101 -0.157,0.764 -0.228,0.764c-0.001,-0.02 -0.031,-0.077 -0.031,-0.076c-0.003,-0.045 0.058,-0.085 0.031,-0.137c-0.013,0 -0.027,0.034 -0.026,0.035c-0.009,-0.018 -0.014,-0.046 -0.02,-0.066c-0.055,0 -0.124,0.525 -0.129,0.549c-0.022,0.093 -0.057,0.213 -0.084,0.305c-0.062,0.211 -0.137,0.457 -0.137,0.67c-0.203,0 0.157,-0.77 0,-0.823c0,0.033 -0.039,0.07 -0.046,0.107c0.023,0 0.024,-0.031 0.046,-0.046c0,0.08 -0.015,0.11 -0.015,0.183c-0.027,0 -0.02,-0.096 -0.046,-0.122c0,0.115 -0.092,0.228 -0.13,0.32c-0.039,0.097 -0.07,0.183 -0.099,0.275c-0.026,0.083 -0.05,0.156 -0.076,0.228c-0.035,0.099 -0.079,0.273 -0.137,0.412c-0.231,-0.066 0.108,-1.061 0.152,-1.204c0.083,-0.265 0.195,-0.562 0.259,-0.808c0.106,-0.404 0.213,-0.718 0.336,-1.036c0.042,-0.111 0.099,-0.268 0.137,-0.396c0.04,-0.134 0.117,-0.275 0.137,-0.427c-0.033,0 -0.005,0.077 -0.061,0.077c0,-0.232 0.127,-0.388 0.167,-0.587c0.044,-0.216 0.147,-0.379 0.153,-0.648c-0.055,0 -0.02,0.075 -0.057,-0.061c-0.007,-0.024 -0.004,-0.041 -0.004,-0.061c0,-0.04 0.021,-0.148 0.03,-0.198c0.04,-0.21 0.11,-0.445 0.176,-0.64c0.15,-0.447 0.269,-0.812 0.384,-1.272c0.045,-0.178 0.109,-0.288 0.172,-0.45c0.058,-0.148 0.17,-0.443 0.259,-0.609c0.157,-0.293 0.336,-0.664 0.533,-0.96c0.094,-0.141 0.146,-0.279 0.198,-0.442c0.058,-0.182 0.02,-0.391 -0.023,-0.586c-0.016,-0.076 0.008,-0.133 0.008,-0.221c-0.048,0 -0.072,0.142 -0.152,0.152c-0.043,-0.217 -0.085,-0.438 -0.046,-0.64c0.021,-0.11 0.06,-0.211 0.084,-0.351c0.042,-0.246 0.079,-0.486 0.129,-0.761c0.048,-0.265 0.117,-0.528 0.168,-0.793c0.013,-0.069 0.059,-0.18 0.076,-0.259c0.018,-0.086 0.149,-0.807 0.107,-0.807c0,0.121 -0.073,-0.016 0,-0.016c0,-0.025 -0.109,-0.026 -0.133,-0.062c-0.011,-0.018 0.012,-0.114 0.014,-0.145c0.008,-0.153 -0.051,-0.194 -0.105,-0.321c-0.017,-0.04 -0.035,-0.117 -0.051,-0.157c-0.05,-0.127 -0.119,-0.14 -0.136,-0.256c-0.012,-0.081 0.022,-0.182 0.03,-0.262c-0.098,0.025 -0.007,0.076 -0.122,0.076c0,-0.074 0.178,-0.899 0.091,-0.899c0.002,0.036 -0.003,0.072 -0.015,0.106c-0.108,-0.036 0.006,-0.083 -0.152,-0.03c0.005,-0.015 0,-0.02 -0.016,-0.015c0.043,-0.124 0.03,-0.258 0.077,-0.381c-0.048,0 -0.014,0.076 -0.061,0.076c-0.014,-0.133 -0.025,-0.156 0,-0.289c-0.137,0 -0.008,-0.193 0,-0.259c0.008,-0.076 -0.058,-0.167 -0.049,-0.249c0.004,-0.039 0.047,-0.14 0.064,-0.193c0.012,-0.037 0.045,-0.091 0.061,-0.153c-0.055,0 -0.112,-0.089 0,-0.061c0,-0.044 -0.063,-0.043 -0.076,-0.091c-0.009,-0.03 0.033,-0.039 0.045,-0.076c-0.044,0 0.029,0.015 -0.061,0.015c0.002,-0.166 0.126,-0.291 0.198,-0.412c0.031,-0.05 0.086,-0.104 0.122,-0.152c0.024,-0.032 0.112,-0.135 0.116,-0.182c0.01,-0.151 -0.123,-0.025 -0.181,-0.03c-0.158,-0.012 -0.245,-0.177 -0.27,-0.283c-0.108,-0.461 0.029,-0.908 0.183,-1.333c0.049,-0.136 0.119,-0.277 0.168,-0.412c0.037,-0.103 0.098,-0.294 0.137,-0.396c0.024,-0.063 0.094,-0.146 0.122,-0.274c0.023,-0.109 0.045,-0.221 0.068,-0.335c0.042,-0.209 0.042,-0.316 0.099,-0.549c0.06,-0.245 0.088,-0.428 0.153,-0.594c0.083,-0.212 0.155,-0.458 0.213,-0.701c0.02,-0.082 0.066,-0.199 0.076,-0.259c0.015,-0.084 -0.004,-0.164 0.015,-0.229c0.011,-0.033 0.081,-0.117 0.092,-0.152c0.055,-0.183 0.094,-0.308 0.183,-0.473c0.014,-0.025 0.038,-0.077 0.061,-0.106c0.025,-0.034 0.023,-0.052 0.045,-0.092c0.026,-0.015 0.051,-0.03 0.077,-0.045l0.011,-0.092c0.059,-0.107 0.135,-0.208 0.217,-0.32c0.066,-0.09 0.191,-0.227 0.229,-0.304c0.027,-0.055 0.042,-0.152 0.078,-0.221c0.039,-0.075 0.112,-0.131 0.15,-0.206c0.034,-0.067 0.054,-0.165 0.061,-0.259l-0.007,0c-0.036,0.002 -0.044,-0.028 -0.023,-0.091c0.006,-0.018 0.062,-0.044 0.076,-0.064c0.055,-0.076 0.115,-0.132 0.152,-0.203c0.029,-0.055 0.095,-0.127 0.076,-0.198c-0.039,-0.153 -0.334,-0.032 -0.426,-0.008c-0.137,0.035 -0.347,0.027 -0.503,0.099c-0.104,0.048 -0.213,0.117 -0.312,0.191c-0.076,0.056 -0.098,0.071 -0.13,0.167c-0.018,0.054 -0.025,0.121 -0.03,0.168c-0.006,0.049 0.01,0.228 0,0.305c-0.008,0.057 -0.042,0.185 -0.046,0.251c-0.003,0.043 0.018,0.078 0.015,0.114c-0.012,0.18 -0.037,0.391 -0.053,0.564c-0.012,0.124 -0.012,0.22 -0.023,0.305c-0.017,0.139 0.014,0.385 -0.061,0.503c-0.052,0.081 -0.24,0.24 -0.335,0.061c-0.025,-0.047 -0.014,-0.228 -0.015,-0.267c-0.002,-0.071 0.021,-0.123 0.015,-0.226c-0.007,-0.114 -0.032,-0.191 -0.033,-0.29c-0.003,-0.119 0.008,-0.321 0.002,-0.391c-0.008,-0.106 -0.049,-0.261 -0.045,-0.411c0.002,-0.108 -0.043,-0.277 -0.046,-0.366c-0.005,-0.123 0.005,-0.354 0.03,-0.564c0.018,-0.142 0.1,-0.35 0.137,-0.518c0.018,-0.079 0.029,-0.211 0.077,-0.304c0.027,-0.055 0.077,-0.075 0.114,-0.122c0.037,-0.047 0.059,-0.113 0.099,-0.168c0.087,-0.121 0.204,-0.232 0.29,-0.381c0.038,-0.066 0.092,-0.149 0.137,-0.213c0.021,-0.031 0.019,-0.048 0.061,-0.076c0.055,-0.038 0.092,-0.032 0.152,-0.061c0.079,-0.039 0.154,-0.109 0.229,-0.183c0.046,-0.046 0.122,-0.084 0.152,-0.122c0.031,-0.04 0.023,-0.141 0.046,-0.183c0.017,-0.031 0.067,-0.065 0.091,-0.091c0.144,-0.156 0.228,-0.349 0.305,-0.526c0.023,-0.054 0.07,-0.084 0.106,-0.114c0.026,-0.022 0.073,-0.028 0.092,-0.046c0.057,-0.054 0.094,-0.195 0.122,-0.244c0.109,-0.19 0.324,-0.402 0.518,-0.457c0.19,-0.053 0.354,-0.019 0.518,-0.091c0.082,-0.036 0.117,-0.109 0.167,-0.122c0.018,-0.005 0.039,-0.002 0.031,0c0.12,-0.025 0.012,0.044 0.152,-0.015c0.093,-0.039 0.049,-0.053 0.176,-0.053c0.1,0 0.051,0.004 0.121,-0.016c0.066,-0.018 0.1,-0.057 0.176,-0.038c0.039,0.01 0.06,0.029 0.106,0.038c0.082,0.015 0.119,0.013 0.187,0.046c0.084,0.04 0.095,0.078 0.179,0.053c0.018,-0.005 0.09,-0.05 0.1,-0.051c0.12,-0.008 0.08,0.055 0.153,0.076c0.018,0.006 0.019,0.032 0.046,0.034c0.135,0.01 0.033,-0.053 0.097,-0.074c0.054,-0.018 0.087,0.008 0.137,0c0.017,-0.003 0.041,-0.043 0.085,-0.038c0.15,0.019 0.115,0.214 0.258,0.244c0.056,0.011 0.092,-0.049 0.16,-0.008c0.062,0.038 0.067,0.152 0.137,0.198c0.045,0.03 0.108,0.034 0.153,0.076c0.058,0.056 0.062,0.125 0.133,0.202c0.125,0.136 0.095,-0.006 0.164,0.172c0.025,0.066 0.062,0.138 0.084,0.19c0.018,0.042 0.011,0.09 0.045,0.137c0.026,0.036 0.105,0.066 0.122,0.107c0.038,0.089 -0.034,0.208 0.031,0.32c0.015,0.027 0.063,0.023 0.076,0.046c0.025,0.041 0.03,0.096 0.056,0.134c0.035,0.052 0.06,0.015 0.089,0.086c0.02,0.053 -0.014,0.051 -0.008,0.107c0.011,0.102 0.048,0.212 0.023,0.343c-0.01,0.053 -0.069,0.141 -0.038,0.198c0.025,0 -0.012,0.29 -0.015,0.305c-0.015,0.066 -0.035,0.057 -0.031,0.137c0.002,0.029 0.066,0.142 0.046,0.213c-0.026,0.094 -0.144,0.149 -0.199,0.214c-0.045,0.052 -0.063,0.136 -0.091,0.182c-0.053,0.089 -0.099,0.15 -0.137,0.244c-0.046,0.116 -0.058,0.173 -0.183,0.218c-0.023,0.008 -0.115,0.009 -0.137,0.026c-0.038,0.031 -0.023,0.115 -0.052,0.15c-0.035,0.041 -0.135,0.089 -0.176,0.124c-0.098,0.084 -0.194,0.161 -0.305,0.229c-0.049,0.03 -0.105,0.048 -0.153,0.076c-0.102,0.061 -0.203,0.19 -0.32,0.259c-0.072,0.043 -0.195,0.078 -0.274,0.107c-0.213,0.078 -0.364,0.118 -0.51,0.304c-0.042,0.054 -0.083,0.096 -0.099,0.168c-0.018,0.077 0.018,0.191 -0.043,0.268c-0.025,0.032 -0.06,0.048 -0.094,0.067c-0.076,0.042 -0.098,0.047 -0.138,0.115c-0.106,0.183 -0.273,0.386 -0.304,0.586c-0.006,0.038 -0.018,0.133 -0.063,0.196c-0.059,0.083 -0.367,0.288 -0.257,0.383c0.04,0.035 0.1,0.009 0.142,0.045c0.01,0.009 0.045,0.098 0.05,0.113c-0.004,-0.013 0.05,0.128 0.036,0.117c0.069,0.059 0.185,-0.007 0.244,0.03c0.049,0.03 0.034,0.075 0.055,0.119c0.074,0.155 0.062,0.063 0.191,0.135c0.124,0.069 0.014,0.136 0.056,0.231c0.05,0.114 0.165,0.099 0.247,0.079c0.05,0.076 0.081,0.05 0.16,0.076c0.095,0.031 0.135,0.045 0.239,0.034c0.082,-0.009 0.166,-0.005 0.252,-0.009c0.135,-0.007 0.131,-0.032 0.232,-0.086c0.071,-0.038 0.132,-0.019 0.21,-0.033c0.116,-0.02 0.113,-0.058 0.202,-0.135c0.057,-0.049 0.138,-0.092 0.198,-0.137c0.355,-0.264 0.721,-0.482 1.112,-0.701c0.733,-0.41 1.394,-0.857 2.088,-1.31c0.348,-0.228 0.719,-0.438 1.082,-0.686c0.332,-0.227 0.692,-0.444 1.036,-0.64c0.271,-0.154 0.56,-0.376 0.838,-0.533c0.202,-0.115 0.412,-0.194 0.579,-0.35c0.085,-0.08 0.165,-0.148 0.221,-0.229c0.046,-0.067 0.088,-0.171 0.129,-0.213c0.081,-0.082 0.179,-0.124 0.275,-0.198c0.052,-0.041 0.189,-0.139 0.243,-0.153c0.066,-0.017 0.097,0.022 0.153,-0.015c0.042,-0.028 0.058,-0.145 0.106,-0.168c0.151,-0.07 0.079,0.129 0.204,0.084c0.077,-0.026 0.141,-0.205 0.185,-0.266c0.024,-0.035 0.05,-0.109 0.093,-0.141c0.091,-0.067 0.133,-0.005 0.2,-0.012c0.108,-0.011 0.272,-0.163 0.347,-0.027c0.074,0.136 -0.091,0.261 -0.114,0.378c0.067,-0.014 0.103,-0.02 0.122,-0.092c-0.006,0 -0.028,0.015 -0.025,0.02c-0.026,-0.05 0.083,-0.233 0.116,-0.233c0.003,0.024 -0.007,0.044 -0.03,0.061c0.031,0 0.284,-0.333 0.35,-0.381c0.1,-0.073 0.085,-0.086 0.19,-0.008c0.031,0.023 0.066,0.083 0.094,0.082c0.096,-0.005 0.246,-0.27 0.28,-0.326c0.033,-0.054 0.047,-0.124 0.099,-0.169c0.236,-0.206 0.437,0.123 0.506,0.302c0.038,0.101 0.028,0.183 0.159,0.105c0.06,-0.036 0.141,-0.144 0.199,-0.195c0.04,-0.035 0.194,-0.218 0.225,-0.218c0,0.024 0.102,0.237 0.116,0.258c0.043,0.068 0.044,0.087 0.113,0.077c0.056,-0.007 0.131,-0.135 0.183,-0.183c0.032,-0.029 0.095,-0.079 0.152,-0.121c0.134,-0.1 0.222,-0.192 0.325,-0.341c0.114,-0.164 0.04,-0.114 0.169,-0.08c0.071,0.019 0.142,0.014 0.207,0.009c0.015,-0.001 0.059,-0.001 0.076,0c0.057,0.004 0.13,0 0.198,0.031c0.058,0.026 0.067,0.106 0.153,0.076c0.053,-0.019 0.05,-0.164 0.076,-0.198c0.069,-0.09 0.188,-0.061 0.274,0.015c0.072,0.063 0.128,0.215 0.168,0.305c0.128,0.29 0.192,0.082 0.289,-0.031c0.165,-0.189 0.211,-0.012 0.366,-0.167c0.057,-0.058 0.062,-0.031 0.094,-0.148c0.008,-0.028 0.007,-0.107 0.028,-0.127c0.063,-0.06 0.059,0.045 0.074,0.049c-0.062,-0.015 0.066,0.075 0.063,0.073c0,0 0,0 0,0c0,0 0,0 0,0Zm12.352,27.817l0,-0.014c0.062,0.033 0.111,0.096 0.144,0.159c-0.029,-0.025 -0.058,-0.049 -0.087,-0.073l0,-0.043c-0.014,-0.004 -0.028,-0.009 -0.043,-0.014l0,-0.015l-0.014,0Zm-0.015,-0.029c-0.003,-0.002 -0.025,-0.033 -0.043,-0.043l0,-0.028c0.049,0.011 0.055,0.032 0.101,0.043l0,0.028c0.039,0.009 0.054,0.015 0.072,0.044c-0.014,-0.005 -0.029,-0.01 -0.043,-0.015l0,-0.014l-0.029,0l0,-0.015l-0.058,0Z" style="fill:#1b1b1a;"/></g></g></g></svg>