<?xml version="1.0" encoding="UTF-8" standalone="no"?><!DOCTYPE svg PUBLIC "-//W3C//DTD SVG 1.1//EN" "http://www.w3.org/Graphics/SVG/1.1/DTD/svg11.dtd"><svg width="100%" height="100%" viewBox="0 0 64 64" version="1.1" xmlns="http://www.w3.org/2000/svg" xmlns:xlink="http://www.w3.org/1999/xlink" xml:space="preserve" xmlns:serif="http://www.serif.com/" style="fill-rule:evenodd;clip-rule:evenodd;stroke-miterlimit:10;"><g id="Species"><g id="Birds"><g id="wild-turkey-copy" serif:id="wild turkey copy"><path id="Outline" d="M61.409,32.047c0,-16.178 -13.135,-29.313 -29.313,-29.313c-16.179,0 -29.314,13.135 -29.314,29.313c0,16.178 13.135,29.313 29.314,29.313c16.178,0 29.313,-13.135 29.313,-29.313Z" style="fill:none;stroke:#000;stroke-width:3px;"/><path d="M30.996,18.552c0.015,0.007 0.095,-0.016 0.092,-0.016c0.039,-0.003 0.096,-0.015 0.106,-0.015c0.077,0.002 0.138,0.047 0.21,0.042c0.122,-0.008 0.072,-0.055 0.145,-0.12c0.066,-0.059 0.079,-0.075 0.171,-0.044c0.046,0.015 0.12,0.058 0.16,0.107c0.047,0.057 0.031,0.133 0.076,0.183c0.064,0.069 0.112,0.077 0.153,0.167c0.033,0.074 0.064,0.304 0.134,0.362c0.117,0.096 0.186,-0.107 0.284,-0.139c0.141,-0.047 0.376,-0.057 0.496,0.021c0.046,0.03 0.066,0.114 0.121,0.123c0.096,0.013 0.183,-0.068 0.26,-0.077c-0.035,0.139 -0.061,-0.043 -0.061,0.122c0.041,0 0.085,-0.111 0.137,-0.122c0.068,-0.015 0.156,0.066 0.198,0.106c0.094,0.09 0.35,0.355 0.32,0.473c0.072,-0.084 0.165,0.26 0.184,0.281c0.11,0.125 0.168,-0.031 0.273,-0.098c0.042,-0.027 0.089,-0.056 0.153,-0.076c0.059,-0.02 0.192,-0.019 0.259,-0.039c0.036,-0.011 0.056,-0.039 0.106,-0.053c-0.001,0.094 0.079,0.258 0.153,0.305c0.069,0.044 0.202,-0.044 0.302,-0.019c0.22,0.055 0.308,0.315 0.444,0.43c0.128,0.108 0.103,0.04 0.249,-0.003c0.104,-0.029 0.16,0.006 0.224,0.019c0.158,0.031 0.189,-0.097 0.335,-0.183c0.021,0.244 0.14,0.245 0.29,0.312c0.026,0.012 0.081,0.027 0.121,0.053c0.125,0.08 0.108,0.052 0.259,0.016c0.016,0.098 0.002,0.194 0.016,0.258c0.01,0.048 0.048,0.078 0.06,0.107c0.024,0.059 0.025,0.368 0.107,0.381c0.084,0.014 0.207,-0.154 0.305,-0.183c0.046,-0.013 0.144,-0.015 0.152,-0.015c0.077,-0.004 -0.147,-0.069 0.107,-0.008c0.051,-0.017 0.088,-0.007 0.111,0.031c0.018,0.023 0.038,0.046 0.057,0.069c0.095,0.018 0.117,-0.035 0.198,-0.077c0.337,-0.174 0.327,0.359 0.375,0.511c0.068,0.216 0.212,0.087 0.326,0c0.134,-0.104 0.26,-0.217 0.426,-0.313c-0.016,0.547 0.467,-0.048 0.678,0.259c0.072,0.106 -0.012,0.208 0.16,0.198c0.022,-0.001 0.101,-0.055 0.137,-0.068c0.055,-0.019 0.094,-0.027 0.156,-0.032c0.116,-0.008 0.244,0.042 0.332,0.055c0.11,0.017 0.099,-0.034 0.198,-0.076c0.108,-0.047 0.137,-0.057 0.213,-0.153c0.047,-0.058 0.058,-0.104 0.092,-0.167c0.113,-0.211 0.274,-0.464 0.366,-0.694c0.103,-0.258 0.231,-0.531 0.373,-0.788c0.164,-0.298 0.339,-0.565 0.495,-0.865c0.2,-0.386 0.272,-0.712 0.472,-1.066c0.147,-0.259 0.303,-0.543 0.518,-0.785c0.12,-0.134 0.157,-0.273 0.252,-0.404c0.097,-0.134 0.207,-0.266 0.289,-0.419c0.581,-1.074 1.101,-2.058 1.639,-3.116c0.274,-0.541 0.557,-1.04 0.853,-1.577c0.259,-0.471 0.405,-0.874 0.64,-1.288c0.083,-0.147 0.178,-0.277 0.274,-0.411c0.138,-0.193 0.223,-0.412 0.35,-0.61c0.212,-0.327 0.439,-0.717 0.602,-1.043c0.041,-0.083 0.086,-0.16 0.131,-0.235c0.597,0.401 1.468,1.06 2.638,2.118c-0.023,0.027 -0.046,0.054 -0.06,0.071c-0.078,0.089 -0.126,0.181 -0.126,0.263c0.044,0 0.106,-0.113 0.134,-0.143c0.015,-0.016 0.078,-0.086 0.126,-0.123c0.082,0.074 0.16,0.144 0.245,0.222c0.357,0.329 0.68,0.645 0.978,0.946c-0.005,0.02 -0.009,0.039 -0.007,0.057c0.003,0.044 0.036,0.083 0.039,0.122c0.005,0.075 -0.011,0.083 -0.029,0.138c-0.03,0.087 -0.088,0.209 -0.115,0.274c-0.03,0.076 -0.051,0.142 -0.091,0.213c-0.026,0.046 -0.066,0.049 -0.076,0.122c0.024,0 0.213,-0.168 0.213,-0.183c-0.05,0 -0.078,0.052 -0.122,0.077c0,-0.073 0.086,-0.099 0.137,-0.138c-0.002,0.013 -0.005,0.025 -0.009,0.037c0.036,0.021 0.263,-0.193 0.314,-0.219c0.082,-0.044 0.091,-0.061 0.163,-0.071c0.289,0.304 0.546,0.587 0.77,0.845c-0.005,0.05 -0.013,0.1 -0.026,0.147c0.038,0.079 0.017,0.121 -0.062,0.125c-0.047,0.015 -0.084,0.042 -0.114,0.081c-0.044,0.059 -0.063,0.174 -0.039,0.245c0.023,0.067 0.058,0.068 0.074,0.125c0.018,0.065 0.006,0.151 0.005,0.218c-0.005,0.197 -0.101,0.417 -0.226,0.582c-0.135,0.177 -0.332,0.175 -0.499,0.308c-0.147,0.116 -0.274,0.259 -0.351,0.411c-0.053,0.107 -0.152,0.218 -0.167,0.336c0.026,0 0.024,-0.036 0.061,-0.046c0,0.038 -0.029,0.06 -0.031,0.107c0.079,0 0.179,-0.149 0.229,-0.199c0.085,-0.086 0.193,-0.211 0.304,-0.304c0.109,-0.091 0.267,-0.147 0.381,-0.229c0.058,-0.041 0.086,-0.058 0.153,-0.091c0.089,-0.045 0.157,-0.138 0.228,-0.183c0.131,-0.083 0.851,-0.16 0.777,0.061c0.073,0 -0.039,-0.095 0.081,-0.014c0.039,0.026 0.09,0.045 0.102,0.082c0.014,0.042 -0.046,0.071 -0.046,0.1c0.035,-0.012 0.071,-0.017 0.107,-0.016c-0.002,0.05 -0.019,0.062 -0.03,0.107c0.006,0 0.042,-0.033 0.03,-0.046c0.044,-0.031 0.069,-0.017 0.075,0.043c0.03,0.026 0.04,0.057 0.032,0.094c0.032,0.073 0.048,0.137 0.053,0.259c0.008,0.163 0.037,0.258 0.023,0.381c-0.011,0.098 -0.04,0.155 -0.091,0.29c-0.043,0.113 -0.021,0.19 -0.038,0.297c-0.012,0.067 -0.052,0.112 -0.115,0.175c-0.018,0.018 -0.084,0.058 -0.091,0.076c-0.023,0.062 0.031,0.137 0.032,0.2c0.001,0.026 -0.016,0.054 -0.017,0.06c-0.028,0.161 -0.09,0.267 -0.122,0.426c-0.025,0.129 -0.094,0.247 -0.148,0.386c-0.058,0.144 -0.201,0.276 -0.309,0.391c-0.024,0.026 -0.085,0.085 -0.107,0.107c-0.032,0.032 -0.198,0.106 -0.198,0.168c0.016,-0.006 0.021,0 0.016,0.015c0.261,-0.175 0.485,-0.294 0.761,-0.381c0.089,-0.028 0.196,-0.132 0.305,-0.153c0.184,-0.034 0.344,-0.01 0.442,0.061c0.334,0.243 0.405,0.531 0.503,0.899c0.031,0.117 0.037,0.327 0.018,0.48c-0.009,0.07 -0.02,0.218 -0.079,0.313c-0.012,0.019 -0.183,0.147 -0.183,0.152c0.079,0 -0.031,0.191 -0.045,0.229c-0.022,0.056 -0.03,0.111 -0.036,0.199c-0.005,0.067 -0.004,0.159 -0.028,0.223c-0.044,0.117 -0.039,0.115 -0.165,0.157c0.061,0.085 -0.154,0.468 -0.244,0.533c-0.083,0.061 -0.047,0.025 -0.114,0.061c-0.022,0.012 -0.05,-0.012 -0.071,0.003c-0.049,0.033 -0.032,0.062 -0.044,0.119c-0.012,0.061 0.115,-0.107 0.031,0.091c-0.012,0.029 -0.079,0.071 -0.103,0.092c-0.058,0.05 -0.093,0.095 -0.156,0.144c-0.233,0.184 -0.416,0.221 -0.64,0.419c-0.106,0.094 -0.246,0.209 -0.35,0.324c-0.078,0.086 -0.178,0.172 -0.148,0.299c0.024,0.107 0.122,0.309 0.27,0.255c0.078,-0.029 0.173,-0.167 0.256,-0.239c0.106,-0.093 0.221,-0.224 0.338,-0.332c0.226,-0.21 0.503,-0.443 0.716,-0.642c0.139,-0.131 0.346,-0.377 0.556,-0.259c0.234,0.132 0.139,0.382 0.084,0.549c0.103,0.034 0.159,0.102 0.167,0.213c0.005,0.059 -0.035,0.127 -0.045,0.183c-0.016,0.085 0.017,0.149 0,0.229c-0.028,0.129 -0.181,0.24 -0.229,0.375c-0.036,0.101 -0.021,0.167 -0.076,0.234c-0.02,0.025 -0.096,0.047 -0.122,0.091c-0.052,0.089 0.009,0.036 -0.031,0.122c-0.025,0.021 -0.05,0.041 -0.076,0.061c-0.01,0.051 -0.02,0.102 -0.03,0.153c-0.008,0.017 -0.062,0.067 -0.076,0.091c-0.058,0.096 -0.096,0.192 -0.153,0.29c-0.039,0.068 -0.085,0.136 -0.121,0.198c-0.022,0.036 0.005,0.029 -0.016,0.076c-0.009,0.02 -0.068,0.025 -0.072,0.057c-0.017,0.14 0.121,0.147 0.194,0.248c0.155,0.213 0.182,0.459 0.183,0.685c0.001,0.27 0.01,0.593 -0.046,0.884c-0.021,0.113 -0.07,0.253 -0.122,0.351c-0.036,0.068 -0.11,0.17 -0.167,0.228c-0.045,0.045 -0.091,0.098 -0.122,0.137c-0.068,0.086 -0.092,0.142 -0.153,0.229c-0.047,0.066 -0.135,0.094 -0.167,0.152c-0.038,0.069 -0.008,0.042 0.015,0.107c0.021,0.06 0.097,0.15 0.107,0.198c0.026,0.128 -0.018,0.271 -0.031,0.366c-0.028,0.219 0.018,0.526 -0.015,0.822c-0.034,0.314 -0.309,0.551 -0.529,0.781c-0.09,0.094 -0.198,0.18 -0.263,0.271c-0.045,0.062 -0.082,0.143 -0.138,0.198c-0.138,0.135 -0.342,0.255 -0.502,0.305c-0.248,0.076 -0.49,0.16 -0.793,0.219c-0.426,0.083 -0.799,0.13 -1.127,0.161c-0.136,0.014 -0.316,0.01 -0.496,0.031c-0.342,0.039 -0.748,0.137 -1.043,0.183c-0.388,0.06 -0.918,0.18 -1.25,0.244c-0.615,0.118 -1.233,0.272 -1.904,0.386c-0.383,0.064 -0.721,0.182 -1.097,0.238c-0.162,0.024 -0.311,0.057 -0.51,0.098c-0.38,0.078 0.02,0.305 0.159,0.36c0.265,0.103 0.583,0.223 0.869,0.274c0.111,0.019 0.273,0.096 0.396,0.122c0.277,0.058 0.544,0.134 0.777,0.167c0,0.106 -0.478,0.087 -0.503,0.137c-0.1,0.203 0.274,0.194 0.244,0.32c-0.012,0.05 -0.467,0.076 -0.496,0.079c-0.136,0.015 -0.245,0.006 -0.357,0.005c-0.087,-0.001 -0.443,-0.082 -0.477,0.028c-0.038,0.122 0.291,0.227 0.309,0.361c-0.151,0.019 -0.306,0.034 -0.457,0.015c-0.057,-0.007 -0.41,-0.11 -0.285,0.094c0.021,0.034 0.152,0.056 0.193,0.089c0.09,0.071 0.163,0.193 0.214,0.259c0.064,0.083 0.173,0.169 0.244,0.244c0.078,0.083 0.18,0.146 0.256,0.231c0.059,0.067 0.068,0.125 0.125,0.18c0.038,0.037 0.189,0.07 0.228,0.076c0.129,0.022 0.195,0.056 0.335,0.122c0.276,0.129 0.614,0.124 0.884,0.229c0.15,0.058 0.287,0.147 0.442,0.244c0.129,0.079 0.353,0.12 0.442,0.274c-0.13,0 -0.215,-0.006 -0.305,0c-0.043,0.002 -0.122,0.002 -0.143,0.038c-0.057,0.099 0.1,0.154 0.128,0.206c0.037,0.068 0.001,0.179 0.023,0.22c0.051,0.099 0.304,0.16 0.403,0.206c0.102,0.047 0.222,0.118 0.305,0.168c0.217,0.129 0.356,0.233 0.564,0.335c0.092,0.045 0.204,0.104 0.297,0.16c0.094,0.057 0.207,0.201 0.313,0.236c-0.061,0.18 -0.136,0.313 -0.183,0.442c-0.021,0.056 -0.116,0.242 -0.092,0.29c-0.072,0.036 -0.155,0.331 -0.183,0.396c-0.068,0.162 -0.113,0.322 -0.213,0.457c-0.084,0.113 -0.22,0.216 -0.358,0.335c-0.12,0.104 -0.213,0.165 -0.328,0.213c-0.103,0.044 -0.185,0.058 -0.304,0.107c-0.066,0.027 -0.134,0.107 -0.223,0.126c-0.077,0.017 -0.124,-0.055 -0.219,-0.053c-0.084,0.001 -0.182,0.067 -0.259,0.095c-0.109,0.038 -0.292,0.128 -0.458,0.072c-0.191,-0.064 -0.273,-0.362 -0.456,-0.407c0,0.021 0.005,0.041 0.015,0.06c-0.148,0 -0.254,0.208 -0.372,0.316c-0.08,0.073 -0.164,0.158 -0.254,0.205c-0.064,0.033 -0.093,0.027 -0.144,0.04c-0.11,0.027 -0.04,-0.059 -0.142,0.032c-0.127,0.112 -0.135,0.126 -0.292,0.185c-0.06,0.022 -0.188,0.057 -0.232,0.064c-0.129,0.021 -0.301,0.052 -0.399,-0.036c-0.061,-0.055 -0.105,-0.168 -0.146,-0.226c-0.086,-0.125 -0.21,-0.534 -0.366,-0.534c0.01,0.112 0.086,0.264 0.122,0.35c0.031,0.074 0.092,0.188 0.137,0.275c0.064,0.122 0.028,0.148 0.016,0.335c-0.001,0.001 0,0.105 0,0.107c0.001,0.169 -0.012,0.413 0.013,0.609c0.007,0.056 0.011,0.097 0.023,0.179c0.013,0.092 0.032,0.075 0.085,0.126c0.027,0.026 0.078,0.047 0.092,0.091c0.041,0.135 -0.079,0.114 -0.175,0.168c-0.185,0.102 -0.111,0.12 0.022,0.198c0.343,0.201 0.634,0.536 0.869,0.838c0.278,0.357 0.02,0.754 -0.297,1.036c-0.108,0.096 -0.302,0.295 -0.473,0.301c-0.098,0.003 -0.181,-0.07 -0.266,-0.118c-0.113,-0.063 -0.253,-0.138 -0.351,-0.198c-0.043,-0.026 -0.091,-0.061 -0.133,-0.075c-0.061,-0.021 -0.142,0.04 -0.171,-0.077c0.063,0.007 0.069,0.043 0.122,0.061c-0.034,-0.057 -0.135,-0.121 -0.199,-0.138c0.003,0.076 0.043,0.101 0.061,0.168c-0.001,0 -0.023,-0.024 -0.025,-0.02c-0.058,0.117 0.352,0.366 0.425,0.424c0.187,0.148 0.35,0.318 0.53,0.45c0.172,0.125 0.237,0.29 0.228,0.533c-0.005,0.158 -0.012,0.338 -0.099,0.503c-0.119,0.224 -0.353,0.432 -0.571,0.609c-0.14,0.114 -0.315,0.28 -0.503,0.351c-0.173,0.064 -0.512,-0.036 -0.655,-0.092c-0.076,-0.03 -0.179,-0.144 -0.255,-0.168c-0.131,-0.039 -0.313,0.146 -0.4,0.229c-0.285,0.269 -0.552,0.199 -0.869,0.274c0,0.038 -0.613,-0.085 -0.64,-0.091c-0.129,-0.028 -0.278,-0.053 -0.396,0.046c-0.07,0.058 -0.12,0.2 -0.183,0.274c-0.255,0.301 -0.486,0.703 -0.891,0.819c-0.338,0.097 -0.771,0.001 -1.052,-0.179c-0.052,-0.034 -0.107,-0.087 -0.16,-0.122c-0.11,-0.074 -0.097,-0.04 -0.196,0.032c-0.088,0.064 -0.142,0.094 -0.23,0.12c-0.311,0.092 -0.795,-0.008 -1.105,-0.122c-0.151,-0.055 -0.313,-0.185 -0.51,-0.167c-0.042,0.003 -0.079,0.01 -0.137,0.03c-0.087,0.03 -0.174,0.1 -0.275,0.137c-0.232,0.086 -0.343,0.136 -0.625,0.054c-0.126,-0.037 -0.332,-0.07 -0.441,-0.069c-0.124,0.001 -0.345,-0.015 -0.488,-0.137c-0.043,-0.037 -0.03,-0.076 -0.091,-0.107c-0.05,-0.024 -0.149,-0.04 -0.183,-0.045c-0.104,-0.016 -0.144,-0.034 -0.221,-0.061c-0.084,-0.03 -0.155,-0.09 -0.236,-0.153c-0.169,-0.13 -0.42,-0.095 -0.595,-0.198c-0.063,-0.037 -0.165,-0.124 -0.213,-0.183c-0.049,-0.06 -0.059,-0.091 -0.143,-0.134c-0.111,-0.056 -0.246,-0.08 -0.345,-0.14c-0.123,-0.074 -0.235,-0.215 -0.38,-0.284c-0.118,-0.057 -0.174,-0.091 -0.275,-0.158c-0.026,-0.017 -0.133,-0.106 -0.168,-0.111c-0.052,-0.008 -0.028,-0.037 -0.052,0.025c-0.016,0.039 0.019,0.147 0.024,0.197c0.01,0.112 0.018,0.21 0.029,0.308c0.016,0.144 0.05,0.3 0.06,0.419c0.011,0.121 0.019,0.278 0.039,0.366c0.02,0.092 0.023,0.195 0.014,0.318c-0.012,0.169 0.004,0.345 -0.002,0.55c-0.002,0.111 0.059,0.325 0.026,0.381c0.038,0 0.019,0.059 0.015,0.077c0.016,0 0.09,0.388 0.076,0.411c0.024,0 0.054,0.236 0.046,0.259c0.066,0 0.272,1.437 0.301,1.562c0.037,0.161 0.078,0.301 0.095,0.434c0.02,0.153 0.036,0.267 0.061,0.396c0.007,0.038 0.06,0.091 0.031,0.137c0.028,0 0.229,1.05 0.243,1.128c0.077,0.407 0.189,0.836 0.221,1.295c0.008,0.108 -0.013,0.101 0.084,0.206c0.077,0.084 0.101,0.17 0.163,0.265c0.025,0.039 0.115,0.154 0.127,0.19c0.01,0.032 0.058,0.064 0.074,0.117c0.024,0.08 0.089,0.1 0.108,0.197c0.037,0.182 0.197,0.333 0.364,0.467c0.164,0.131 0.261,0.344 0.474,0.432c0.152,0.063 0.34,0.215 0.471,0.335c0.236,0.217 0.302,0.525 0.276,0.808c-0.042,0 -0.141,-0.104 -0.168,-0.122c-0.037,-0.025 -0.068,-0.045 -0.106,-0.061c-0.122,-0.05 -0.242,-0.039 -0.412,-0.076c-0.142,-0.03 -0.352,-0.133 -0.487,-0.213c-0.203,-0.12 -0.363,-0.282 -0.549,-0.351c-0.078,-0.029 -0.191,-0.062 -0.289,-0.076c-0.146,-0.02 -0.322,0.036 -0.442,0.076c-0.13,0.044 -0.216,0.086 -0.32,0.137c-0.116,0.059 -0.308,0.111 -0.412,0.199c-0.185,0.157 -0.321,0.161 -0.563,0.213c-0.18,0.038 -0.41,-0.005 -0.613,0.011c-0.215,0.018 -0.296,0.021 -0.464,0.091c-0.1,0.041 -0.174,0.112 -0.226,0.058c-0.065,-0.068 -0.021,-0.212 -0.028,-0.297c-0.014,-0.161 -0.11,-0.163 -0.224,-0.122c-0.239,0.085 -0.604,0.121 -0.883,0.053c-0.166,-0.04 -0.385,-0.06 -0.533,0.023c-0.113,0.063 -0.157,0.126 -0.29,0.153c-0.001,-0.196 0.097,-0.353 0.213,-0.48c0.115,-0.127 0.32,-0.152 0.473,-0.229c0.309,-0.158 0.772,-0.085 1.097,-0.206c0.092,-0.034 0.179,-0.051 0.276,-0.101c0.113,-0.06 0.124,-0.103 0.234,-0.128c0.088,-0.019 0.163,-0.008 0.244,-0.03c0.037,-0.01 0.072,-0.046 0.099,-0.061c0.218,-0.119 0.458,-0.262 0.655,-0.427c0.497,-0.414 0.343,-1.159 0.176,-1.611c-0.006,-0.016 -0.036,-0.178 -0.035,-0.197c0.007,-0.115 -0.012,-0.11 -0.034,-0.233c-0.014,-0.078 -0.052,-0.175 -0.076,-0.305c-0.039,-0.205 -0.121,-0.485 -0.183,-0.701c-0.131,-0.458 -0.204,-0.87 -0.32,-1.387c-0.163,-0.721 -0.424,-1.723 -0.564,-2.514c-0.078,-0.441 -0.481,-0.604 -0.731,-0.914c-0.092,-0.114 -0.135,-0.189 -0.168,-0.32c-0.042,-0.165 -0.02,-0.336 -0.076,-0.457c-0.041,-0.089 -0.128,-0.166 -0.183,-0.259c-0.08,-0.136 -0.038,-0.349 -0.107,-0.457c-0.034,-0.054 -0.091,-0.097 -0.124,-0.148c-0.055,-0.086 -0.116,-0.162 -0.165,-0.241c-0.063,-0.1 -0.14,-0.222 -0.213,-0.312c-0.126,-0.154 -0.166,-0.172 -0.32,-0.114c-0.076,0.028 -0.202,0.073 -0.274,0.131c-0.09,0.072 -0.071,0.092 -0.077,0.217c-0.003,0.069 0.002,0.107 0,0.147c-0.005,0.106 -0.026,0.296 -0.03,0.366c-0.005,0.069 -0.013,0.219 -0.016,0.243c-0.015,0.148 -0.068,0.224 -0.114,0.343c-0.032,0.085 -0.015,0.12 -0.023,0.221c-0.023,0.306 -0.126,0.63 -0.158,0.945c-0.042,0.411 -0.1,0.728 -0.177,1.036c-0.024,0.095 -0.064,0.151 -0.091,0.244c-0.037,0.125 -0.038,0.208 -0.046,0.335c-0.034,0.528 -0.147,1.016 -0.214,1.493c-0.056,0.4 -0.057,0.833 -0.106,1.295c-0.033,0.31 -0.09,0.691 -0.122,1.006c-0.034,0.33 -0.121,0.739 -0.046,1.052c0.037,0.153 0,0.443 0.076,0.609c0.061,0.133 0.19,0.256 0.275,0.366c0.034,0.045 0.076,0.137 0.114,0.175c0.061,0.061 0.16,0.115 0.221,0.19c0.04,0.05 0.058,0.115 0.091,0.168c0.048,0.074 0.127,0.158 0.183,0.244c0.065,0.098 0.136,0.219 0.183,0.32c0.062,0.131 0.128,0.268 0.046,0.442c-0.019,0.04 -0.068,0.096 -0.092,0.137c-0.085,0.146 -0.06,0.122 -0.183,0.045c-0.07,-0.044 -0.172,-0.094 -0.228,-0.15c-0.064,-0.064 -0.165,-0.209 -0.206,-0.276c-0.049,-0.082 -0.07,-0.12 -0.144,-0.213c-0.04,-0.049 -0.072,-0.124 -0.107,-0.183c-0.052,-0.086 -0.125,-0.42 -0.275,-0.36c-0.068,0.027 -0.15,0.204 -0.182,0.268c-0.046,0.092 -0.019,0.241 -0.061,0.335l-0.092,0.122c0.009,-0.015 0.101,-0.141 0.092,-0.121l0,-0.001l0,0.001c0.009,-0.02 -0.083,0.106 -0.092,0.121c-0.03,0.05 -0.047,0.102 -0.071,0.168c-0.024,0.068 -0.025,0.092 -0.073,0.152c-0.039,0.048 -0.051,0.047 -0.084,0.077c-0.132,0.116 -0.302,0.086 -0.531,0.085c-0.195,-0.001 -0.379,-0.023 -0.559,-0.009c-0.15,0.012 -0.335,-0.056 -0.464,0.03c-0.097,0.065 -0.098,0.263 -0.267,0.202c-0.072,-0.026 -0.059,-0.129 -0.145,-0.171c-0.096,-0.048 -0.392,0.025 -0.472,0.03c-0.256,0.014 -0.481,0.001 -0.694,0.046c-0.147,0.031 -0.306,0.001 -0.484,0.008c-0.076,0.004 -0.224,0.019 -0.27,0.037c-0.047,0.021 -0.097,0.062 -0.137,0.077c-0.171,0.062 -0.392,0.031 -0.59,0.011c-0.219,-0.022 -0.343,-0.04 -0.522,-0.072c-0.07,-0.013 -0.14,-0.065 -0.214,-0.092c-0.107,-0.038 -0.248,-0.044 -0.38,-0.045c-0.106,-0.002 -0.229,0.038 -0.336,0.076c-0.104,0.037 -0.202,0.143 -0.35,0.152c0,-0.115 -0.005,-0.166 0.053,-0.251c0.015,-0.022 0.101,-0.12 0.115,-0.13c0.044,-0.032 0.126,-0.081 0.182,-0.106c0.081,-0.038 0.198,-0.067 0.29,-0.092c0.122,-0.033 0.284,0.006 0.442,-0.03c0.163,-0.038 0.281,-0.148 0.516,-0.175c0.485,-0.054 0.977,-0.101 1.452,-0.199c0.218,-0.044 0.437,-0.1 0.652,-0.144c0.239,-0.049 0.498,-0.087 0.732,-0.153c0.13,-0.036 0.295,-0.16 0.427,-0.221c0.138,-0.063 0.4,-0.216 0.479,-0.373c0.109,-0.214 0.067,-0.479 0.13,-0.754c0.02,-0.087 0.045,-0.148 0.076,-0.236c0.04,-0.113 0.034,-0.288 0.054,-0.412c0.014,-0.088 0.027,-0.24 0.053,-0.35c0.047,-0.203 0.09,-0.45 0.137,-0.678c0.028,-0.135 0.072,-0.338 0.091,-0.435c0.101,-0.493 0.104,-0.942 0.145,-1.464c0.012,-0.157 0.026,-0.382 0.038,-0.501c0.01,-0.097 0.006,-0.144 0.016,-0.252c0.017,-0.208 0.016,-0.422 0.045,-0.655c0.07,-0.561 0.125,-1.236 -0.023,-1.729c-0.064,-0.217 -0.247,-0.421 -0.373,-0.648c-0.059,-0.106 -0.123,-0.258 -0.107,-0.419c0.002,-0.01 0.078,-0.357 0.027,-0.331c0.088,-0.044 0.043,-0.147 -0.057,-0.157c-0.024,-0.002 -0.163,0.059 -0.183,0.062c-0.111,0.014 -0.23,0.002 -0.32,0.06c-0.079,0.052 -0.125,0.109 -0.213,0.138c-0.265,0.087 -0.5,0.047 -0.808,0.061c-0.177,0.007 -0.341,-0.027 -0.548,-0.046c-0.113,-0.011 -0.22,-0.009 -0.351,-0.046c-0.079,-0.022 -0.215,-0.128 -0.305,-0.137c-0.077,-0.008 -0.093,-0.006 -0.175,0.057c-0.039,0.03 -0.06,0.106 -0.114,0.126c-0.042,0.015 -0.055,-0.015 -0.107,-0.015c-0.04,-0.001 -0.14,0.046 -0.213,0.061c-0.289,0.057 -0.567,0.078 -0.884,0.03c-0.17,-0.026 -0.213,0.035 -0.401,0.015c-0.195,-0.02 -0.235,-0.186 -0.483,-0.183c-0.24,0.004 -0.365,-0.071 -0.533,-0.121c-0.059,-0.018 -0.12,-0.013 -0.197,-0.021c-0.111,-0.011 -0.121,-0.035 -0.199,-0.071c-0.147,-0.067 -0.233,-0.078 -0.432,-0.081c-0.148,-0.003 -0.38,-0.017 -0.482,-0.102c-0.029,-0.023 -0.024,-0.066 -0.061,-0.091c-0.062,-0.042 -0.115,-0.021 -0.168,-0.046c-0.126,-0.059 -0.267,-0.154 -0.381,-0.213c-0.23,-0.12 -0.512,-0.27 -0.701,-0.366c-0.125,-0.064 -0.271,-0.127 -0.396,-0.213c-0.038,-0.027 -0.103,-0.058 -0.137,-0.092c-0.076,-0.074 -0.089,-0.169 -0.16,-0.236c-0.093,-0.088 -0.206,-0.121 -0.328,-0.19c-0.063,-0.037 -0.081,-0.044 -0.16,-0.076c-0.09,-0.038 -0.152,-0.092 -0.236,-0.138c-0.115,-0.063 -0.303,-0.178 -0.396,-0.32c-0.021,-0.032 -0.032,-0.133 -0.076,-0.167c-0.054,-0.042 -0.261,-0.054 -0.305,-0.061c-0.463,-0.074 -0.878,-0.254 -1.265,-0.457c-0.201,-0.106 0.001,-0.181 0.122,-0.259c0.084,-0.055 0.161,-0.04 0.198,-0.138c0.041,-0.104 -0.003,-0.146 -0.106,-0.213c-0.108,-0.069 -0.236,-0.107 -0.331,-0.201c-0.042,-0.041 -0.068,-0.106 -0.117,-0.156c-0.036,-0.037 -0.086,-0.069 -0.13,-0.096c-0.029,-0.02 -0.06,-0.037 -0.091,-0.053c-0.044,-0.005 -0.053,-0.032 -0.029,-0.081c-0.044,-0.072 0.017,-0.095 -0.079,-0.144c-0.068,-0.035 -0.111,-0.011 -0.168,0c-0.065,0.012 -0.141,0.052 -0.19,-0.042c-0.083,-0.162 0.033,-0.511 -0.16,-0.613c-0.072,-0.038 -0.123,0.045 -0.209,-0.008c-0.063,-0.039 -0.05,-0.108 -0.096,-0.16c-0.011,-0.013 -0.078,-0.033 -0.092,-0.046c-0.012,-0.011 -0.08,-0.107 -0.106,-0.122c-0.071,-0.04 -0.196,-0.038 -0.305,-0.045c0.028,-0.223 0.063,-0.419 -0.066,-0.632c-0.007,-0.012 -0.047,-0.009 -0.056,-0.024c-0.003,-0.004 -0.018,-0.098 -0.015,-0.091c-0.014,-0.04 0.008,-0.091 -0.031,-0.122c-0.108,-0.086 -0.177,0.069 -0.213,0.137c-0.107,0.207 -0.241,0.453 -0.305,0.671c-0.077,0.263 -0.263,0.535 -0.365,0.792c-0.125,0.313 -0.217,0.585 -0.275,0.914c-0.019,0.111 -0.036,0.263 -0.053,0.381c-0.012,0.085 -0.044,0.473 -0.19,0.473c-0.01,-0.077 -0.002,-0.275 -0.092,-0.275c0,0.065 -0.071,0.142 -0.091,0.198c-0.035,0.1 -0.064,0.18 -0.107,0.29c-0.106,0.27 -0.193,0.497 -0.213,0.838c-0.025,0 -0.075,-0.083 -0.077,-0.122c-0.088,0 -0.062,0.196 -0.091,0.248c-0.013,0.022 -0.008,0.022 -0.015,0.042c-0.048,-0.02 -0.07,-0.01 -0.066,0.032c-0.002,0.031 -0.011,0.061 -0.026,0.089c-0.062,0.12 -0.146,0.349 -0.205,0.503c-0.049,0.127 -0.065,0.298 -0.085,0.47c-0.012,0.102 -0.157,0.765 -0.228,0.765c0,-0.021 -0.03,-0.078 -0.03,-0.077c-0.004,-0.045 0.058,-0.085 0.03,-0.137c-0.012,0 -0.026,0.034 -0.026,0.035c-0.009,-0.018 -0.014,-0.046 -0.019,-0.065c-0.056,0 -0.124,0.524 -0.13,0.548c-0.022,0.094 -0.057,0.213 -0.084,0.305c-0.061,0.211 -0.137,0.458 -0.137,0.67c-0.202,0 0.158,-0.77 0,-0.822c0,0.032 -0.039,0.069 -0.046,0.106c0.024,0 0.024,-0.03 0.046,-0.045c0,0.079 -0.015,0.109 -0.015,0.183c-0.026,0 -0.019,-0.097 -0.046,-0.122c0,0.114 -0.091,0.227 -0.129,0.32c-0.04,0.096 -0.071,0.183 -0.099,0.274c-0.026,0.084 -0.051,0.157 -0.077,0.228c-0.035,0.099 -0.079,0.273 -0.137,0.412c-0.231,-0.066 0.108,-1.061 0.153,-1.204c0.082,-0.265 0.194,-0.562 0.259,-0.808c0.106,-0.404 0.213,-0.718 0.335,-1.036c0.043,-0.11 0.099,-0.268 0.137,-0.396c0.04,-0.134 0.118,-0.274 0.137,-0.426c-0.032,0 -0.004,0.076 -0.061,0.076c0,-0.231 0.128,-0.388 0.168,-0.587c0.043,-0.215 0.146,-0.379 0.152,-0.647c-0.055,0 -0.019,0.074 -0.057,-0.062c-0.007,-0.024 -0.003,-0.041 -0.004,-0.06c0,-0.041 0.022,-0.148 0.031,-0.199c0.039,-0.21 0.11,-0.445 0.175,-0.639c0.15,-0.448 0.269,-0.813 0.385,-1.273c0.045,-0.178 0.108,-0.288 0.171,-0.449c0.058,-0.149 0.17,-0.444 0.259,-0.61c0.158,-0.293 0.336,-0.664 0.534,-0.96c0.094,-0.141 0.146,-0.279 0.198,-0.442c0.057,-0.181 0.02,-0.391 -0.023,-0.586c-0.017,-0.076 0.007,-0.133 0.007,-0.221c-0.047,0 -0.072,0.142 -0.152,0.152c-0.043,-0.217 -0.084,-0.438 -0.046,-0.64c0.021,-0.109 0.06,-0.211 0.084,-0.35c0.042,-0.246 0.079,-0.487 0.13,-0.762c0.048,-0.265 0.117,-0.528 0.167,-0.793c0.014,-0.069 0.06,-0.18 0.076,-0.259c0.019,-0.085 0.149,-0.807 0.107,-0.807c0,0.121 -0.073,-0.015 0,-0.015c0,-0.026 -0.109,-0.027 -0.132,-0.063c-0.012,-0.018 0.011,-0.114 0.013,-0.144c0.009,-0.154 -0.05,-0.194 -0.104,-0.322c-0.018,-0.04 -0.035,-0.117 -0.051,-0.157c-0.051,-0.127 -0.12,-0.14 -0.136,-0.256c-0.012,-0.08 0.021,-0.182 0.029,-0.262c-0.098,0.025 -0.006,0.076 -0.122,0.076c0,-0.074 0.178,-0.899 0.092,-0.899c0.002,0.037 -0.004,0.072 -0.016,0.107c-0.108,-0.036 0.006,-0.083 -0.152,-0.031c0.005,-0.015 0,-0.02 -0.015,-0.015c0.043,-0.123 0.029,-0.258 0.076,-0.381c-0.047,0 -0.013,0.076 -0.061,0.076c-0.014,-0.132 -0.025,-0.156 0,-0.289c-0.137,0 -0.008,-0.193 0,-0.259c0.009,-0.076 -0.057,-0.166 -0.049,-0.249c0.004,-0.039 0.047,-0.14 0.064,-0.193c0.012,-0.037 0.046,-0.091 0.061,-0.152c-0.055,0 -0.112,-0.089 0,-0.062c0,-0.044 -0.063,-0.043 -0.076,-0.091c-0.008,-0.03 0.033,-0.039 0.046,-0.076c-0.044,0 0.028,0.015 -0.061,0.015c0.002,-0.165 0.126,-0.29 0.198,-0.411c0.03,-0.051 0.086,-0.105 0.122,-0.153c0.024,-0.031 0.112,-0.135 0.115,-0.182c0.01,-0.151 -0.123,-0.025 -0.181,-0.029c-0.158,-0.013 -0.244,-0.178 -0.269,-0.284c-0.109,-0.461 0.029,-0.908 0.182,-1.333c0.05,-0.136 0.119,-0.277 0.168,-0.411c0.038,-0.104 0.098,-0.294 0.137,-0.397c0.024,-0.063 0.095,-0.146 0.122,-0.274c0.023,-0.108 0.046,-0.22 0.069,-0.335c0.041,-0.209 0.042,-0.316 0.099,-0.549c0.06,-0.245 0.087,-0.428 0.152,-0.594c0.083,-0.212 0.155,-0.458 0.213,-0.701c0.02,-0.082 0.066,-0.198 0.077,-0.259c0.014,-0.084 -0.005,-0.163 0.015,-0.228c0.01,-0.034 0.08,-0.118 0.091,-0.153c0.056,-0.182 0.095,-0.308 0.183,-0.472c0.014,-0.026 0.038,-0.077 0.061,-0.107c0.026,-0.034 0.023,-0.052 0.046,-0.091c0.025,-0.016 0.051,-0.031 0.076,-0.046l0.011,-0.091c0.059,-0.107 0.136,-0.208 0.218,-0.32c0.065,-0.091 0.19,-0.228 0.228,-0.305c0.027,-0.055 0.043,-0.151 0.079,-0.221c0.039,-0.075 0.112,-0.131 0.15,-0.206c0.033,-0.066 0.054,-0.165 0.061,-0.259l-0.008,0c-0.036,0.003 -0.043,-0.028 -0.023,-0.091c0.007,-0.018 0.063,-0.044 0.076,-0.063c0.056,-0.077 0.115,-0.133 0.153,-0.204c0.028,-0.055 0.094,-0.127 0.076,-0.198c-0.04,-0.153 -0.334,-0.031 -0.427,-0.008c-0.137,0.036 -0.347,0.027 -0.503,0.099c-0.104,0.049 -0.212,0.117 -0.312,0.191c-0.075,0.056 -0.098,0.071 -0.13,0.167c-0.017,0.054 -0.024,0.121 -0.03,0.168c-0.006,0.049 0.01,0.229 0,0.305c-0.008,0.057 -0.042,0.185 -0.046,0.251c-0.002,0.044 0.018,0.078 0.016,0.115c-0.012,0.179 -0.038,0.39 -0.054,0.563c-0.011,0.124 -0.012,0.22 -0.023,0.305c-0.017,0.139 0.015,0.385 -0.061,0.503c-0.052,0.082 -0.24,0.24 -0.335,0.061c-0.024,-0.047 -0.014,-0.228 -0.015,-0.267c-0.002,-0.071 0.021,-0.123 0.015,-0.226c-0.006,-0.114 -0.031,-0.191 -0.033,-0.29c-0.002,-0.119 0.008,-0.32 0.003,-0.39c-0.009,-0.107 -0.05,-0.261 -0.046,-0.412c0.003,-0.108 -0.043,-0.276 -0.046,-0.366c-0.004,-0.123 0.005,-0.354 0.031,-0.563c0.017,-0.142 0.1,-0.351 0.137,-0.518c0.018,-0.08 0.029,-0.212 0.076,-0.305c0.028,-0.055 0.078,-0.075 0.114,-0.122c0.037,-0.047 0.06,-0.112 0.099,-0.168c0.087,-0.121 0.204,-0.232 0.29,-0.38c0.038,-0.066 0.092,-0.149 0.137,-0.214c0.021,-0.03 0.019,-0.047 0.061,-0.076c0.055,-0.038 0.093,-0.032 0.152,-0.061c0.08,-0.039 0.155,-0.108 0.229,-0.183c0.046,-0.046 0.123,-0.084 0.152,-0.122c0.032,-0.04 0.023,-0.141 0.046,-0.183c0.017,-0.031 0.067,-0.065 0.091,-0.091c0.144,-0.156 0.229,-0.349 0.305,-0.526c0.024,-0.054 0.071,-0.084 0.107,-0.114c0.026,-0.021 0.072,-0.028 0.091,-0.046c0.057,-0.054 0.094,-0.195 0.122,-0.244c0.11,-0.19 0.324,-0.402 0.518,-0.457c0.19,-0.053 0.354,-0.019 0.518,-0.091c0.083,-0.036 0.118,-0.108 0.168,-0.122c0.017,-0.005 0.038,-0.002 0.031,0c0.12,-0.024 0.011,0.044 0.152,-0.015c0.092,-0.039 0.048,-0.053 0.176,-0.053c0.1,0 0.05,0.004 0.121,-0.016c0.066,-0.018 0.1,-0.057 0.175,-0.038c0.04,0.01 0.06,0.03 0.107,0.038c0.081,0.015 0.118,0.013 0.187,0.046c0.083,0.04 0.094,0.078 0.179,0.053c0.018,-0.005 0.089,-0.049 0.1,-0.05c0.119,-0.009 0.08,0.054 0.152,0.076c0.019,0.005 0.019,0.031 0.046,0.033c0.136,0.011 0.033,-0.052 0.098,-0.074c0.053,-0.018 0.087,0.008 0.137,0c0.017,-0.003 0.04,-0.043 0.084,-0.038c0.151,0.02 0.115,0.214 0.259,0.244c0.055,0.012 0.092,-0.049 0.16,-0.008c0.062,0.038 0.066,0.152 0.137,0.198c0.045,0.03 0.108,0.034 0.152,0.076c0.058,0.056 0.063,0.125 0.134,0.202c0.125,0.136 0.095,-0.006 0.163,0.172c0.026,0.066 0.062,0.138 0.084,0.19c0.018,0.043 0.012,0.09 0.046,0.137c0.026,0.037 0.105,0.067 0.122,0.107c0.037,0.089 -0.035,0.208 0.03,0.32c0.016,0.027 0.063,0.024 0.076,0.046c0.025,0.041 0.03,0.096 0.056,0.134c0.035,0.052 0.061,0.015 0.089,0.087c0.021,0.052 -0.014,0.05 -0.008,0.106c0.011,0.102 0.048,0.213 0.023,0.343c-0.01,0.053 -0.069,0.142 -0.038,0.198c0.025,0 -0.012,0.29 -0.015,0.305c-0.014,0.067 -0.035,0.058 -0.03,0.137c0.001,0.029 0.065,0.142 0.045,0.213c-0.026,0.094 -0.143,0.149 -0.199,0.214c-0.044,0.053 -0.063,0.136 -0.09,0.183c-0.053,0.089 -0.1,0.149 -0.137,0.243c-0.047,0.117 -0.059,0.173 -0.184,0.218c-0.022,0.009 -0.115,0.009 -0.136,0.026c-0.039,0.031 -0.024,0.115 -0.053,0.15c-0.035,0.042 -0.135,0.089 -0.176,0.125c-0.098,0.083 -0.194,0.16 -0.305,0.228c-0.049,0.03 -0.105,0.048 -0.152,0.076c-0.103,0.061 -0.204,0.19 -0.32,0.259c-0.072,0.043 -0.195,0.078 -0.274,0.107c-0.214,0.078 -0.364,0.118 -0.511,0.305c-0.042,0.053 -0.082,0.096 -0.099,0.167c-0.017,0.077 0.019,0.191 -0.042,0.268c-0.026,0.032 -0.061,0.049 -0.095,0.067c-0.076,0.042 -0.098,0.047 -0.137,0.115c-0.107,0.183 -0.273,0.386 -0.305,0.586c-0.006,0.038 -0.018,0.133 -0.062,0.196c-0.059,0.083 -0.368,0.289 -0.258,0.383c0.04,0.035 0.1,0.01 0.142,0.046c0.011,0.008 0.045,0.097 0.05,0.112c-0.004,-0.013 0.051,0.129 0.037,0.117c0.068,0.059 0.184,-0.007 0.244,0.03c0.048,0.03 0.033,0.076 0.054,0.12c0.075,0.154 0.063,0.062 0.191,0.134c0.124,0.069 0.015,0.136 0.056,0.231c0.051,0.114 0.166,0.099 0.247,0.079c0.051,0.076 0.081,0.05 0.16,0.076c0.095,0.032 0.135,0.045 0.24,0.034c0.082,-0.009 0.166,-0.005 0.251,-0.009c0.136,-0.007 0.131,-0.032 0.233,-0.086c0.071,-0.037 0.132,-0.019 0.21,-0.033c0.115,-0.02 0.112,-0.058 0.201,-0.134c0.058,-0.05 0.138,-0.093 0.198,-0.138c0.355,-0.264 0.722,-0.482 1.113,-0.7c0.733,-0.411 1.394,-0.858 2.087,-1.311c0.349,-0.228 0.72,-0.438 1.082,-0.685c0.332,-0.228 0.693,-0.445 1.036,-0.64c0.272,-0.155 0.561,-0.376 0.838,-0.534c0.202,-0.114 0.413,-0.194 0.579,-0.35c0.085,-0.08 0.165,-0.148 0.221,-0.229c0.046,-0.067 0.088,-0.171 0.13,-0.213c0.08,-0.082 0.178,-0.124 0.274,-0.198c0.053,-0.041 0.19,-0.139 0.244,-0.153c0.066,-0.017 0.097,0.022 0.152,-0.015c0.042,-0.028 0.058,-0.145 0.107,-0.168c0.151,-0.07 0.079,0.129 0.204,0.085c0.077,-0.027 0.14,-0.206 0.184,-0.267c0.025,-0.035 0.051,-0.108 0.094,-0.14c0.09,-0.068 0.133,-0.006 0.2,-0.013c0.108,-0.011 0.272,-0.163 0.346,-0.026c0.075,0.135 -0.091,0.26 -0.114,0.377c0.067,-0.014 0.103,-0.02 0.122,-0.092c-0.006,0 -0.028,0.015 -0.025,0.02c-0.025,-0.05 0.084,-0.233 0.116,-0.233c0.003,0.024 -0.007,0.045 -0.03,0.061c0.031,0 0.284,-0.333 0.35,-0.381c0.1,-0.072 0.086,-0.085 0.191,-0.007c0.03,0.022 0.065,0.082 0.094,0.081c0.096,-0.005 0.245,-0.27 0.279,-0.325c0.033,-0.055 0.048,-0.125 0.1,-0.17c0.236,-0.206 0.437,0.123 0.506,0.303c0.038,0.1 0.027,0.182 0.158,0.104c0.061,-0.035 0.141,-0.144 0.199,-0.195c0.041,-0.035 0.195,-0.218 0.226,-0.218c0,0.025 0.102,0.237 0.115,0.258c0.043,0.068 0.044,0.087 0.113,0.078c0.056,-0.008 0.132,-0.135 0.183,-0.183c0.032,-0.03 0.096,-0.08 0.152,-0.122c0.134,-0.1 0.222,-0.191 0.326,-0.341c0.114,-0.164 0.04,-0.114 0.168,-0.08c0.072,0.019 0.142,0.014 0.207,0.009c0.015,-0.001 0.059,-0.001 0.077,0c0.057,0.004 0.13,0 0.198,0.031c0.058,0.026 0.067,0.106 0.152,0.076c0.054,-0.019 0.05,-0.164 0.076,-0.198c0.069,-0.09 0.188,-0.06 0.274,0.015c0.073,0.063 0.128,0.215 0.168,0.305c0.128,0.29 0.192,0.082 0.29,-0.03c0.164,-0.19 0.211,-0.013 0.365,-0.168c0.057,-0.058 0.062,-0.031 0.095,-0.147c0.008,-0.029 0.006,-0.108 0.027,-0.127c0.064,-0.06 0.059,0.044 0.074,0.048c-0.062,-0.015 0.066,0.075 0.063,0.074c0,0 0,0 0,0c0,0 0,0 0,0Zm12.352,27.817l0,-0.015c0.062,0.034 0.112,0.096 0.144,0.159c-0.028,-0.024 -0.057,-0.048 -0.086,-0.072l0,-0.044c-0.014,-0.004 -0.029,-0.009 -0.043,-0.014l0,-0.014l-0.015,0Zm-0.014,-0.029c-0.004,-0.002 -0.025,-0.033 -0.043,-0.043l0,-0.029c0.048,0.011 0.055,0.032 0.1,0.043l0,0.029c0.039,0.008 0.055,0.015 0.072,0.043c-0.014,-0.005 -0.028,-0.01 -0.043,-0.014l0,-0.015l-0.029,0l0,-0.014l-0.057,0Z" style="fill:#1b1b1a;"/></g></g></g></svg>