<?xml version="1.0" encoding="UTF-8" standalone="no"?><!DOCTYPE svg PUBLIC "-//W3C//DTD SVG 1.1//EN" "http://www.w3.org/Graphics/SVG/1.1/DTD/svg11.dtd"><svg width="100%" height="100%" viewBox="0 0 64 64" version="1.1" xmlns="http://www.w3.org/2000/svg" xmlns:xlink="http://www.w3.org/1999/xlink" xml:space="preserve" xmlns:serif="http://www.serif.com/" style="fill-rule:evenodd;clip-rule:evenodd;stroke-miterlimit:10;"><g id="Habitat-Loss" serif:id="Habitat Loss"><path d="M45.556,36.174c-1.019,-2.132 -3.12,-3.757 -5.5,-3.802c-8.32,-0.053 -16.642,-0.157 -24.96,0.002c-0.713,0.022 -1.418,0.169 -2.08,0.423l0,-3.425c0,-2.208 1.793,-4 4,-4l1.961,0c-0.016,-2.169 -0.008,-4.338 0.024,-6.507c0.066,-1.498 1.564,-2.794 3.325,-2.851c1.667,-0.019 3.334,-0.019 5.001,0c1.746,0.057 3.258,1.341 3.325,2.851c0.031,2.169 0.039,4.338 0.023,6.507l9.325,0l0,-3.883l2.015,0l0,3.883l0.274,0c2.208,0 4,1.792 4,4l0,6.802l1.721,0l0,-10.802l2.527,0c-0.27,1.108 -0.417,2.294 -0.417,3.527c0,5.106 2.514,9.411 5.933,10.704l0,1.769l-8.043,0l0,-1.372l-2.885,0c-0.586,2.298 -2.671,4 -5.15,4l-24.717,0c-2.933,0 -5.314,-2.381 -5.314,-5.314c0,-2.933 2.381,-5.314 5.314,-5.314l24.717,0c2.024,0 3.786,1.134 4.683,2.802l0.898,0Zm-28.478,0.476c1.111,0 2.014,0.903 2.014,2.014c0,1.112 -0.903,2.014 -2.014,2.014c-1.112,0 -2.014,-0.902 -2.014,-2.014c0,-1.111 0.902,-2.014 2.014,-2.014Zm7,0c1.111,0 2.014,0.903 2.014,2.014c0,1.112 -0.903,2.014 -2.014,2.014c-1.112,0 -2.014,-0.902 -2.014,-2.014c0,-1.111 0.902,-2.014 2.014,-2.014Zm7,0c1.111,0 2.014,0.903 2.014,2.014c0,1.112 -0.903,2.014 -2.014,2.014c-1.112,0 -2.014,-0.902 -2.014,-2.014c0,-1.111 0.902,-2.014 2.014,-2.014Zm7,0c1.111,0 2.014,0.903 2.014,2.014c0,1.112 -0.903,2.014 -2.014,2.014c-1.112,0 -2.014,-0.902 -2.014,-2.014c0,-1.111 0.902,-2.014 2.014,-2.014Zm-15.659,-18.922c-0.731,0.008 -1.371,0.527 -1.417,1.149c-0.127,2.875 -0.127,5.757 0,8.632c0.114,1.538 3.589,1.236 6.311,1.147c0.71,-0.038 1.312,-0.564 1.339,-1.178c0.042,-2.867 0.126,-5.736 -0.001,-8.601c-0.116,-1.552 -3.564,-1.149 -6.232,-1.149Z" style="fill:#1b1b1a;"/><path id="Outline" d="M61.5,32.174c0,-16.178 -13.135,-29.313 -29.313,-29.313c-16.178,0 -29.313,13.135 -29.313,29.313c0,16.178 13.135,29.313 29.313,29.313c16.178,0 29.313,-13.135 29.313,-29.313Z" style="fill:none;stroke:#1b1b1a;stroke-width:3px;"/></g></svg>