<?xml version="1.0" encoding="UTF-8" standalone="no"?><!DOCTYPE svg PUBLIC "-//W3C//DTD SVG 1.1//EN" "http://www.w3.org/Graphics/SVG/1.1/DTD/svg11.dtd"><svg width="100%" height="100%" viewBox="0 0 64 64" version="1.1" xmlns="http://www.w3.org/2000/svg" xmlns:xlink="http://www.w3.org/1999/xlink" xml:space="preserve" xmlns:serif="http://www.serif.com/" style="fill-rule:evenodd;clip-rule:evenodd;stroke-miterlimit:10;"><g id="Habitats"><g id="Terrestrial"><g id="pine-cone" serif:id="pine cone"><path d="M24.274,38.941c0.057,-1.562 0.006,-2.517 -0.089,-2.812c-0.071,-0.239 -0.122,-0.515 -0.147,-0.666l-0.061,0.233c-0.014,0.072 -0.355,1.792 -0.705,2.359c-0.317,0.479 -0.519,0.841 -0.544,0.886c-0.005,0.118 -0.103,2.027 -0.65,3.575c-0.539,1.622 -1.631,2.948 -1.642,2.961l-0.08,0.097l0.282,-0.847c0.116,-0.294 0.15,-0.671 0.16,-0.827l-0.526,0.665l-0.038,-0.028c0.004,-0.006 0.418,-0.629 0.883,-2.147c0.33,-1.09 0.598,-1.902 0.732,-2.301c-0.154,0.276 -0.41,0.699 -0.624,0.879c-0.322,0.269 -1.022,0.801 -1.029,0.806l-0.077,0.058l0.041,-0.087c0.008,-0.015 0.725,-1.533 1.274,-2.144c0.564,-0.616 0.563,-0.842 0.563,-0.844l0.204,-1.126c0.096,-0.408 0.16,-0.734 0.18,-0.839l-0.272,0.068c-0.109,0.205 -1.933,3.639 -2.318,4.445c-0.429,0.853 -2.364,2.616 -2.383,2.634l-0.125,0.113l0.089,-0.143c0.007,-0.011 0.668,-1.074 1.212,-1.82c0.581,-0.797 1.853,-3.06 2.136,-3.577c0.269,-0.491 0.456,-0.928 0.537,-1.127c-0.168,0.172 -0.546,0.528 -0.786,0.507c-0.217,-0.039 -0.301,-0.092 -0.333,-0.127c-0.24,0.258 -2.448,2.626 -3.03,3.117c-0.184,0.157 -0.354,0.309 -0.518,0.455c-0.353,0.315 -0.686,0.613 -1.076,0.883c-0.596,0.413 -1.258,0.546 -1.265,0.547l-0.075,0.015l0.054,-0.055c0.019,-0.019 1.93,-1.944 2.532,-2.408c0.394,-0.335 0.71,-0.574 0.875,-0.695c-0.172,0.057 -0.464,0.156 -0.679,0.244c-0.305,0.164 -0.579,0.171 -0.59,0.171l-0.063,0.001l0.046,-0.042c0.016,-0.014 1.558,-1.408 2.376,-2.158c0.701,-0.598 1.678,-1.507 2.036,-1.843c-0.558,0.313 -2.405,1.362 -3.796,2.326c-1.663,1.199 -2.471,1.48 -2.479,1.483l-0.088,0.03l0.67,-0.725c-0.182,0.11 -0.494,0.294 -0.659,0.376c-0.296,0.112 -0.898,0.251 -0.904,0.252l-0.102,0.023l0.082,-0.064c0.013,-0.011 1.364,-1.085 2.321,-1.702c1.118,-0.669 3.814,-2.146 3.928,-2.209c0.525,-0.325 1.084,-0.614 1.278,-0.712c-0.518,-0.059 -3.458,-0.388 -5.256,-0.49c-1.969,-0.113 -4.534,-0.384 -4.559,-0.387l-0.141,-0.015l0.138,-0.031c0.026,-0.006 2.636,-0.599 4.052,-0.424c1.413,0.178 2.492,0.344 2.575,0.357l0.988,-0.277c-0.419,-0.023 -1.649,-0.093 -2.328,-0.193c-0.823,-0.123 -2.501,-0.399 -2.518,-0.402l-0.036,-0.006l0.021,-0.031c0.005,-0.007 0.128,-0.182 0.77,-0.204c0.476,-0.032 0.941,-0.052 1.166,-0.061l-1.058,-0.322l0.07,-0.024c0.005,-0.001 0.537,-0.18 1.034,-0.2c0.284,-0.005 0.589,0.001 0.819,0.008c-0.691,-0.117 -2.199,-0.369 -2.904,-0.477c-0.951,-0.172 -1.618,-0.32 -1.624,-0.322l-0.077,-0.017l0.074,-0.028c0.01,-0.004 1.051,-0.391 1.901,-0.237c0.842,0.153 1.798,0.19 1.808,0.19c0.008,-0.002 1.444,-0.288 2.767,-0.048c1.265,0.229 2.894,0.626 3.673,1.053c0.705,0.386 1.513,0.794 1.601,0.839l0.682,-0.176c-0.402,-0.197 -2.803,-1.36 -3.842,-1.698c-1.153,-0.4 -2.606,-0.884 -2.621,-0.889l-0.1,-0.034l0.105,-0.012c0.014,-0.002 1.398,-0.159 2.649,0.177c1.124,0.324 1.564,0.484 1.653,0.517l0.16,-0.23c-0.173,-0.074 -1.141,-0.49 -1.529,-0.685c-0.422,-0.212 -2.201,-0.645 -2.219,-0.649l-0.119,-0.029l1.034,-0.148c-0.307,-0.094 -1.256,-0.389 -2.081,-0.697c-0.997,-0.371 -1.508,-0.63 -1.514,-0.633l-0.106,-0.054l0.119,0.01c0.016,0.001 1.649,0.136 3.09,0.615c0.7,0.23 1.592,0.489 2.38,0.719c0.935,0.272 1.742,0.507 2.059,0.638c0.561,0.202 0.847,0.332 0.893,0.353c0.056,-0.009 0.402,-0.063 0.746,-0.001c0.339,0.085 0.704,0.155 0.798,0.172l0.042,-0.228c-0.215,-0.154 -3.165,-2.253 -3.93,-2.523c-0.741,-0.271 -3.111,-1.084 -3.135,-1.092l-0.086,-0.03l0.089,-0.016c0.022,-0.004 2.11,-0.355 4.177,0.758c1.975,1.063 3.542,2.312 3.684,2.427l0.359,-0.127c-0.251,-0.2 -1.871,-1.476 -3.206,-2.296c-1.446,-0.889 -2.434,-1.567 -2.443,-1.573l-0.043,-0.03l0.05,-0.013c0.013,-0.003 0.331,-0.08 0.846,0.124c0.334,0.156 0.686,0.303 0.869,0.378c-0.257,-0.224 -0.953,-0.809 -1.639,-1.215c-0.863,-0.512 -1.423,-1.111 -1.429,-1.117l-0.076,-0.082l0.103,0.044c0.022,0.01 2.211,0.96 3.278,1.699c1.015,0.704 1.665,1.174 1.729,1.22l1.053,0.117c-0.381,-0.242 -1.921,-1.223 -2.594,-1.728c-0.758,-0.628 -1.425,-1.054 -1.432,-1.058l-0.124,-0.079l0.142,0.036c0.02,0.005 1.938,0.495 2.919,1.11c0.928,0.638 2.142,1.558 2.256,1.645l0.797,-0.162c-0.312,-0.236 -2.28,-1.725 -3.01,-2.286c-0.809,-0.636 -2.182,-1.545 -2.195,-1.554l-0.132,-0.087l0.151,0.044c0.022,0.007 2.194,0.658 3.849,1.913c1.47,1.102 1.889,1.379 1.958,1.424l0.503,-0.263c-0.237,-0.183 -1.853,-1.424 -2.672,-1.927c-0.884,-0.542 -1.515,-1.043 -1.521,-1.048l-0.032,-0.026l0.039,-0.015c0.012,-0.005 0.312,-0.112 0.864,0.21c0.345,0.217 0.714,0.398 0.902,0.486c-0.173,-0.166 -0.526,-0.501 -0.699,-0.654c-0.288,-0.216 -0.797,-0.747 -0.802,-0.752l-0.063,-0.066l0.087,0.027c0.046,0.014 1.13,0.345 1.495,0.604c0.33,0.233 0.534,0.446 0.57,0.486c0.104,0.013 1.109,0.143 1.771,0.212c0.698,0.048 1.876,0.283 1.978,0.303l0.438,-0.182c-0.268,-0.076 -1.298,-0.367 -1.802,-0.458c-0.603,-0.137 -1.859,-0.474 -1.871,-0.477l-0.06,-0.016l0.055,-0.028c0.032,-0.016 0.788,-0.384 2.645,0.089c1.787,0.456 2.565,0.859 2.623,0.889l1.576,0.287c-0.137,-0.132 -0.549,-0.485 -1.273,-0.79c-0.912,-0.384 -3.269,-0.974 -4.24,-1.21c-0.866,-0.184 -2.085,-0.597 -2.097,-0.601l-0.071,-0.024l0.072,-0.021c0.009,-0.003 0.961,-0.267 2.995,0.266c2.055,0.538 3.183,0.882 4.023,1.226c0.774,0.37 1.595,0.798 1.706,0.857l0.273,-0.19c-0.347,-0.208 -3.461,-2.076 -4.409,-2.688c-0.971,-0.667 -1.68,-1.348 -1.687,-1.355l-0.077,-0.075l1.024,0.358c-0.07,-0.114 -0.246,-0.382 -0.474,-0.611c-0.333,-0.279 -0.739,-0.992 -0.756,-1.023l-0.035,-0.061l0.065,0.028c0.011,0.005 1.083,0.479 1.655,1.103c0.589,0.645 1.549,1.305 2.41,1.867c0.874,0.554 2.866,1.902 3.016,2.003l0.257,-0.064c-0.38,-0.262 -3.154,-2.182 -4.184,-3.108c-1.104,-0.993 -1.818,-2.417 -1.825,-2.431l-0.018,-0.037l0.041,0.003c0.01,0 0.261,0.025 0.91,0.693c0.519,0.579 1.233,1.199 1.442,1.377l-0.193,-0.662l0.039,0.01c0.005,0.001 0.459,0.114 0.973,0.454l0.818,0.448c-0.543,-0.44 -1.997,-1.627 -2.442,-2.107c-0.52,-0.616 -0.71,-1.425 -0.712,-1.433l-0.016,-0.071l0.055,0.047c0.016,0.014 1.63,1.405 2.557,2.145c0.73,0.619 2.116,1.831 2.621,2.272c-0.252,-0.32 -0.735,-0.933 -0.899,-1.121l-0.339,-0.489l0.998,0.511c-0.4,-0.351 -1.533,-1.343 -2.093,-1.823c-0.655,-0.612 -1.186,-1.507 -1.191,-1.516l-0.04,-0.068l0.071,0.035c0.01,0.004 0.997,0.489 1.691,1.025c0.632,0.473 1.027,0.835 1.076,0.881l0.7,0.127c-0.263,-0.208 -1.165,-0.916 -1.736,-1.344c-0.672,-0.503 -1.993,-1.538 -2.006,-1.549l-0.084,-0.066l0.104,0.025c0.01,0.002 1.069,0.253 1.806,0.715c0.401,0.239 0.788,0.563 1.071,0.8c0.161,0.135 0.313,0.263 0.364,0.282c-0.001,-0.004 -0.003,-0.01 -0.005,-0.017c-0.065,-0.223 -0.725,-0.782 -1.17,-1.084c-0.406,-0.32 -1.148,-0.921 -1.156,-0.927l-0.105,-0.085l0.128,0.044c0.016,0.006 1.683,0.59 3.617,1.649c1.603,0.927 2.85,1.834 3.23,2.117c-0.268,-0.379 -1.111,-1.557 -1.807,-2.34c-0.837,-0.942 -2.189,-2.424 -2.202,-2.438l-0.137,-0.15l0.167,0.114c0.016,0.011 1.605,1.099 2.441,1.905c0.787,0.712 1.136,1.173 1.196,1.255l0.467,-0.113c-0.142,-0.173 -0.882,-1.069 -1.281,-1.586c-0.494,-0.579 -1.606,-1.85 -1.617,-1.863l-0.104,-0.118l0.134,0.083c0.019,0.012 1.967,1.218 2.748,1.877c0.627,0.531 1.276,1.175 1.51,1.412c-0.133,-0.295 -0.495,-1.061 -0.812,-1.467c-0.409,-0.456 -0.831,-1.331 -0.835,-1.339l-0.016,-0.035l0.038,0.001c0.03,0.001 0.736,0.036 1.673,1.523c0.592,0.938 1.001,1.639 1.272,2.102c0.157,0.268 0.261,0.446 0.317,0.527c0.137,0.141 0.275,0.283 0.313,0.322c0.278,-0.077 0.423,-0.158 0.441,-0.248c0.025,-0.119 -0.162,-0.268 -0.399,-0.457c-0.265,-0.211 -0.594,-0.475 -0.779,-0.819c-0.387,-0.698 -1.07,-1.747 -1.432,-2.269c-0.41,-0.592 -0.946,-1.432 -0.951,-1.44l0.037,-0.029c0.014,0.016 1.337,1.524 2.318,2.874c0.881,1.213 1.379,1.817 1.474,1.93c0.08,-0.082 0.404,-0.401 0.647,-0.528c0.29,-0.11 2.193,-1.918 2.213,-1.936l0.016,-0.016l0.017,0.016l1.207,1.213l-2.891,1.922c0.079,0.183 0.73,1.695 0.955,2.585c0.259,0.975 0.272,2.137 0.272,2.148l-0.046,0.005c-0.003,-0.01 -0.225,-1.068 -0.599,-2.005c-0.367,-0.816 -0.555,-1.427 -0.602,-1.588c-0.048,0.057 -0.151,0.19 -0.269,0.405c-0.167,0.274 -0.29,0.519 -0.321,0.584c0.103,0.089 0.719,0.665 0.986,1.972c0.267,1.384 0.347,2.179 0.348,2.187l0.014,0.137l-0.059,-0.125c-0.007,-0.014 -0.678,-1.454 -0.933,-2.154c-0.238,-0.631 -0.645,-1.36 -0.754,-1.551c-0.056,0.198 -0.243,0.906 -0.182,1.334c0.022,0.154 0.066,0.392 0.116,0.668c0.118,0.639 0.28,1.515 0.329,2.196c0.06,1.023 -0.307,2.308 -0.311,2.321l-0.032,0.112l-0.014,-0.115c-0.003,-0.023 -0.277,-2.291 -0.439,-3.192c-0.134,-0.734 -0.257,-1.239 -0.299,-1.402l-0.378,0.69c0.018,0.057 0.074,0.304 0.214,1.384c0.162,1.368 -0.06,2.465 -0.062,2.476l-0.03,0.144l-0.017,-0.146c-0.003,-0.024 -0.284,-2.429 -0.956,-3.664c-0.551,-1.08 -0.897,-1.673 -0.988,-1.824c-0.054,0.122 -0.224,0.489 -0.437,0.789c-0.218,0.273 -0.406,0.491 -0.45,0.541c0.076,0.188 0.893,2.242 0.827,3.619c-0.077,1.195 -0.605,2.914 -0.764,3.412c0.213,-0.013 0.468,-0.004 0.638,0.14c0.104,0.088 0.162,0.212 0.173,0.369c0.036,0.457 -0.247,0.736 -0.581,0.944c0.329,-0.032 1.133,-0.061 1.508,0.336c0.175,0.187 0.23,0.434 0.162,0.734c-0.052,0.19 -0.227,0.362 -0.402,0.493c0.247,0.021 0.528,0.062 0.68,0.145l0.078,0.041c0.263,0.138 0.56,0.294 0.575,0.525c0.005,0.073 -0.017,0.181 -0.153,0.278c-0.164,0.117 -0.537,0.272 -0.872,0.398c0.276,-0.009 0.902,-0.012 1.178,0.109c0.519,0.255 0.555,0.59 0.53,0.767c-0.057,0.416 -0.518,0.744 -0.932,0.82c-0.031,0.006 -0.078,0.017 -0.129,0.031c0.006,0.022 0.011,0.046 0.012,0.072c0.003,0.065 -0.006,0.121 -0.021,0.169c0.203,0.102 0.575,0.292 0.671,0.356l0.055,0.033c0.302,0.181 0.595,0.37 0.691,0.526c0.054,0.088 0.069,0.19 0.042,0.294c-0.044,0.17 -0.18,0.298 -0.284,0.357c-0.062,0.026 -0.111,0.045 -0.147,0.058c-0.029,0.099 -0.097,0.249 -0.246,0.321c-0.058,0.036 -0.133,0.066 -0.205,0.092c0.178,0.136 0.418,0.321 0.543,0.42c0.247,0.211 0.334,0.563 0.21,0.841c-0.12,0.267 -0.397,0.4 -0.744,0.353c-0.078,-0.012 -0.224,-0.041 -0.37,-0.071c0.151,0.171 0.314,0.37 0.378,0.494c0.117,0.199 0.158,0.549 0.084,0.742c-0.041,0.11 -0.111,0.152 -0.162,0.169c-0.051,0.019 -0.095,0.031 -0.131,0.04c-0.032,0.112 -0.121,0.223 -0.299,0.249c-0.109,0.015 -0.204,0.014 -0.275,0.008c-0.005,0.013 -0.011,0.027 -0.018,0.042l-0.009,0.018c-0.064,0.103 -0.156,0.174 -0.264,0.208c0.047,0.076 0.074,0.16 0.056,0.246c-0.054,0.28 -0.453,0.505 -0.693,0.531c-0.034,0.004 -0.068,0.007 -0.1,0.007c-0.017,0.028 -0.04,0.055 -0.071,0.077c-0.048,0.033 -0.13,0.065 -0.248,0.027c-0.062,-0.016 -0.126,-0.045 -0.185,-0.078c-0.003,0.076 -0.018,0.15 -0.055,0.203c-0.036,0.052 -0.09,0.084 -0.151,0.09c-0.181,0.019 -0.411,-0.033 -0.629,-0.145c-0.085,-0.04 -0.181,-0.099 -0.263,-0.153c-0.041,0.159 -0.116,0.346 -0.254,0.415c-0.097,0.047 -0.189,0.07 -0.275,0.07c-0.14,0 -0.26,-0.063 -0.348,-0.184c-0.034,-0.041 -0.062,-0.079 -0.087,-0.112c-0.016,0.006 -0.034,0.01 -0.053,0.012c-0.159,0.01 -0.261,-0.166 -0.292,-0.225c-0.024,-0.041 -0.046,-0.082 -0.065,-0.123c-0.055,0.103 -0.129,0.175 -0.244,0.168c-0.232,-0.021 -0.477,-0.204 -0.631,-0.467c-0.033,-0.058 -0.063,-0.109 -0.089,-0.151c-0.091,0.095 -0.226,0.193 -0.4,0.204c-0.357,0.048 -0.551,-0.109 -0.634,-0.208c-0.046,-0.056 -0.084,-0.106 -0.111,-0.143c-0.087,0.005 -0.215,-0.002 -0.33,-0.069l-0.046,-0.033c-0.149,-0.106 -0.373,-0.267 -0.484,-0.654c-0.055,-0.191 -0.076,-0.368 -0.083,-0.502c-0.099,0.032 -0.215,0.046 -0.319,-0.004c-0.162,-0.078 -0.226,-0.109 -0.306,-0.265c-0.015,-0.037 -0.026,-0.07 -0.035,-0.101c-0.099,0.026 -0.231,0.053 -0.352,0.06c-0.416,0.025 -0.694,-0.164 -0.761,-0.523c-0.043,-0.234 -0.001,-0.522 0.047,-0.738c-0.065,0.009 -0.134,0.002 -0.204,-0.035c-0.174,-0.076 -0.181,-0.268 -0.185,-0.382c0,-0.006 0,-0.012 0,-0.018c-0.162,0.035 -0.466,0.079 -0.688,-0.088c-0.145,-0.109 -0.224,-0.283 -0.233,-0.517c-0.007,-0.35 0.115,-0.673 0.18,-0.847c0.016,-0.043 0.03,-0.077 0.035,-0.098c0.002,-0.048 0.021,-0.127 0.056,-0.238c-0.061,-0.003 -0.127,-0.012 -0.188,-0.03c-0.348,-0.104 -0.543,-0.273 -0.581,-0.503c-0.084,0.001 -0.192,-0.001 -0.292,-0.016c-0.254,-0.048 -0.656,-0.354 -0.698,-0.706c-0.031,-0.252 0.153,-0.482 0.331,-0.704c0.076,-0.095 0.147,-0.184 0.199,-0.271c0.049,-0.087 0.117,-0.219 0.189,-0.362c-0.051,-0.047 -0.101,-0.095 -0.148,-0.143c-0.073,-0.074 -0.147,-0.145 -0.221,-0.212c-0.246,0.021 -0.498,0.009 -0.709,-0.071c-0.004,0.232 -0.023,0.498 -0.074,0.716c-0.111,0.47 -0.187,0.879 -0.195,0.923c0.014,0.088 0.249,1.538 0.245,2.442c-0.002,0.415 -0.034,0.789 -0.07,1.076c0.003,0.044 0.001,0.087 -0.004,0.126c0.066,-0.003 0.147,-0.006 0.237,-0.012c0.191,0 0.367,0.085 0.481,0.227c0.111,0.14 0.149,0.317 0.108,0.5c-0.042,0.189 -0.195,0.324 -0.351,0.416c0.098,0.033 0.214,0.073 0.35,0.123c0.237,0.088 0.384,0.272 0.412,0.519c0.032,0.271 -0.094,0.575 -0.293,0.706c-0.078,0.055 -0.165,0.093 -0.251,0.118c0.116,0.015 0.266,0.043 0.454,0.095c0.48,0.147 0.532,0.244 0.561,0.628c0.005,0.064 0.011,0.138 0.021,0.226c0.028,0.197 -0.036,0.394 -0.186,0.567c-0.26,0.301 -0.718,0.463 -0.948,0.464c-0.095,-0.001 -0.165,0.015 -0.222,0.035c0.088,0.065 0.209,0.154 0.36,0.263c0.152,0.11 0.248,0.271 0.278,0.466c0.038,0.253 -0.044,0.52 -0.145,0.654c-0.076,0.106 -0.186,0.165 -0.286,0.196c0.047,0.084 0.098,0.193 0.138,0.322c0.026,0.089 0.031,0.225 -0.08,0.382c-0.162,0.229 -0.543,0.429 -0.849,0.447c-0.077,0.005 -0.148,0.003 -0.214,-0.005c0.043,0.046 0.09,0.091 0.142,0.131c0.292,0.222 0.365,0.372 0.339,0.699c-0.005,0.04 -0.01,0.081 -0.015,0.127c-0.049,0.433 -0.127,1.086 -0.502,1.06c-0.246,-0.029 -0.735,-0.104 -0.874,-0.126l-0.169,0.064c0.055,0.071 0.13,0.164 0.223,0.274c0.274,0.301 0.458,0.881 0.287,1.326l-0.02,0.053c-0.098,0.261 -0.192,0.506 -0.41,0.595c-0.138,0.057 -0.3,0.04 -0.496,-0.051c-0.266,-0.115 -0.499,-0.251 -0.659,-0.354c-0.013,0.153 -0.049,0.331 -0.141,0.441c-0.079,0.112 -0.174,0.148 -0.239,0.158c-0.007,0.001 -0.014,0.002 -0.022,0.002c-0.004,0.058 -0.001,0.129 0.022,0.202c0.017,0.047 0.052,0.115 0.093,0.193c0.108,0.21 0.257,0.499 0.279,0.848c0.02,0.312 -0.108,0.592 -0.328,0.713c-0.17,0.094 -0.369,0.076 -0.544,-0.051c-0.213,-0.153 -0.546,-0.231 -0.735,-0.264c-0.022,0.231 -0.078,0.627 -0.215,0.784c-0.099,0.098 -0.221,0.134 -0.35,0.113c-0.184,-0.032 -0.36,-0.18 -0.461,-0.387c-0.04,-0.084 -0.109,-0.163 -0.178,-0.227c-0.005,0.09 -0.008,0.197 -0.009,0.305c-0.012,0.201 -0.068,0.337 -0.173,0.423c-0.083,0.068 -0.189,0.101 -0.328,0.101c-0.048,0 -0.1,-0.004 -0.156,-0.011c-0.2,-0.028 -0.58,-0.198 -0.755,-0.367c-0.154,0.036 -0.359,0.046 -0.48,0.019c-0.477,-0.107 -0.388,-0.651 -0.359,-0.829c0.026,-0.19 0.094,-0.33 0.204,-0.413c-0.066,-0.067 -0.14,-0.143 -0.194,-0.198c-0.075,-0.076 -0.114,-0.162 -0.134,-0.235c-0.062,0.019 -0.148,0.055 -0.247,0.125c-0.175,0.132 -0.397,0.166 -0.576,0.088c-0.145,-0.063 -0.238,-0.193 -0.254,-0.354c-0.031,-0.303 0.008,-0.773 0.14,-1.044c0.084,-0.193 0.26,-0.272 0.392,-0.304l-0.037,-0.217l0.137,-0.406c-0.116,0.007 -0.274,0.019 -0.452,0.038c-0.417,0.061 -1.063,-0.284 -1.135,-0.323l-0.094,-0.051l0.023,-0.104c0.003,-0.01 0.053,-0.233 0.199,-0.592c0.072,-0.174 0.205,-0.284 0.335,-0.353c-0.112,-0.079 -0.226,-0.192 -0.302,-0.352c-0.096,-0.191 -0.085,-0.374 0.031,-0.5c0.128,-0.139 0.357,-0.17 0.584,-0.079c0.027,0.012 0.057,0.024 0.086,0.029c-0.114,-0.083 -0.254,-0.212 -0.355,-0.39c-0.047,-0.079 -0.058,-0.172 -0.028,-0.266c0.046,-0.147 0.193,-0.283 0.348,-0.392c-0.069,-0.002 -0.146,-0.002 -0.225,-0.002c-0.184,0 -0.329,-0.049 -0.423,-0.15c-0.153,-0.163 -0.133,-0.414 -0.121,-0.563c0.023,-0.183 0.134,-0.435 0.226,-0.618c-0.127,-0.002 -0.289,-0.021 -0.469,-0.082c-0.507,-0.152 -0.454,-0.444 -0.326,-0.908c0.101,-0.362 0.423,-0.584 0.637,-0.695c-0.09,-0.12 -0.186,-0.311 -0.212,-0.596c-0.017,-0.195 0.022,-0.337 0.12,-0.436c0.17,-0.171 0.453,-0.148 0.781,-0.123l0.075,0.006c0.209,0.018 0.411,-0.069 0.564,-0.161c-0.149,-0.024 -0.331,-0.064 -0.518,-0.124l-0.032,-0.009c-0.41,-0.119 -0.681,-0.197 -0.708,-0.703c-0.02,-0.25 0.076,-0.412 0.193,-0.51c-0.161,-0.155 -0.301,-0.413 -0.22,-0.774c0.101,-0.45 0.55,-0.537 0.889,-0.513c0.001,-0.137 0.046,-0.319 0.224,-0.508c0.138,-0.151 0.327,-0.223 0.505,-0.254Zm7.718,0.166c-0.179,-0.991 -0.459,-2.443 -0.663,-3.031c-0.279,-0.721 -0.408,-1.353 -0.45,-1.589l-0.361,1.149c0.04,0.1 0.445,1.122 0.686,1.659c0.211,0.458 0.394,1.349 0.468,1.745c0.085,0.007 0.182,0.024 0.292,0.057c0.01,0.003 0.019,0.006 0.028,0.01Zm-0.505,-0.188c0.007,0.04 0.011,0.082 0.012,0.121c0.016,-0.001 0.033,-0.002 0.051,-0.003l-0.039,-0.074l-0.024,-0.044Zm-0.131,-0.244c-0.217,-0.4 -0.519,-0.948 -0.812,-1.443c-0.546,-0.927 -1.247,-2.278 -1.381,-2.735c-0.096,-0.331 -0.347,-0.921 -0.48,-1.227c0.08,0.404 0.262,1.305 0.4,1.909c0.09,0.483 0.219,1.527 0.281,2.474c0.276,0.025 0.488,0.271 0.596,0.426c0.113,-0.045 0.293,-0.078 0.552,-0.02c0.323,0.073 0.438,0.364 0.463,0.606c0.057,-0.015 0.125,-0.028 0.199,-0.036c0.069,-0.007 0.131,0.009 0.182,0.046Zm-5.573,-0.741c-0.004,-0.918 -0.07,-1.845 -0.09,-2.119c-0.075,0.142 -0.246,0.473 -0.361,0.764c-0.163,0.331 -0.546,0.816 -0.598,0.881c0.005,0.069 0.035,0.505 0.049,1.111c0.026,-0.05 0.056,-0.1 0.09,-0.149c0.149,-0.222 0.41,-0.196 0.606,-0.12c0.044,-0.109 0.122,-0.244 0.258,-0.341c0.015,-0.01 0.03,-0.019 0.046,-0.027Zm2.892,-0.007c-0.065,-0.775 -0.113,-1.456 -0.134,-1.758c-0.07,0.326 -0.225,1.067 -0.284,1.529c0.148,0.075 0.266,0.195 0.344,0.292c0.022,-0.02 0.046,-0.041 0.074,-0.063Zm-1.113,-0.214c0.042,-0.664 0.116,-1.329 0.247,-1.686c0.301,-0.839 0.431,-1.221 0.452,-1.284l-0.113,-0.217c-0.119,0.343 -0.794,2.297 -0.916,2.971c-0.006,0.035 -0.014,0.072 -0.021,0.111c0.099,0.045 0.189,0.109 0.254,0.162c0.027,-0.019 0.059,-0.039 0.097,-0.057Zm-3.026,-2.963c0.003,0.029 0.028,0.173 0.208,0.49c0.159,0.281 0.129,0.739 0.103,0.956c0.179,-0.311 0.697,-1.231 0.735,-1.558c0.058,-0.321 -0.187,-0.828 -0.247,-0.946l-0.393,0.316l-0.406,0.742Zm1.43,-1.171c0.038,0.101 0.237,0.625 0.406,1.05c0.142,0.303 0.223,0.785 0.257,1.041l0.267,-1.746l-0.646,-0.542l-0.284,0.197Zm-5.504,0.839c0.096,0.061 0.357,0.223 0.56,0.303c0.238,0.094 0.806,0.249 0.878,0.269l0.67,-0.253c-0.126,-0.041 -0.45,-0.141 -1.036,-0.289c-0.624,-0.156 -0.963,-0.069 -1.072,-0.03Zm8.013,-3.063c0.083,0.214 0.479,1.242 0.677,1.767c0.158,0.441 0.599,1.249 0.774,1.564c-0.069,-0.347 -0.248,-1.231 -0.366,-1.771c-0.149,-0.591 -0.701,-1.411 -0.762,-1.501l-0.323,-0.059Zm2.338,1.603c0.045,0.054 0.244,0.295 0.408,0.592c0.11,0.159 0.308,0.705 0.368,0.973c0.009,-0.018 0.019,-0.038 0.03,-0.06c0.064,-0.122 0.151,-0.29 0.171,-0.49c0.013,-0.343 0.007,-0.83 0.005,-0.919l-0.845,-0.444l-0.137,0.348Zm-12.299,-0.835c0.284,0.126 0.985,0.433 1.31,0.535c0.354,0.106 0.791,0.18 1.214,0.251c0.138,0.023 0.274,0.046 0.406,0.07c0.412,0.075 0.742,0.093 0.898,0.098c-0.308,-0.159 -1.355,-0.679 -1.961,-0.766c-0.618,-0.09 -1.527,-0.163 -1.867,-0.188Zm5.409,-0.941l1.796,1.302l0.571,-0.269c-0.138,-0.057 -0.529,-0.223 -0.79,-0.382l-1.122,-0.615l-0.455,-0.036Zm7.347,0.889l0.349,0.327c-0.015,-0.146 -0.049,-0.527 -0.065,-0.916c-0.018,-0.451 -0.402,-1.439 -0.465,-1.599l-0.284,0.116c0.034,0.093 0.167,0.471 0.209,0.766c0.066,0.348 0.238,1.216 0.256,1.306Zm1.623,-0.671l0,-0.004c-0.043,-0.402 -0.336,-1.413 -0.422,-1.705l-0.146,0.543c0.034,0.091 0.332,0.91 0.29,1.433c-0.017,0.219 -0.03,0.459 -0.038,0.667l0.009,-0.006c0.045,-0.027 0.105,-0.063 0.132,-0.086c0.012,-0.304 0.075,-0.585 0.175,-0.842Zm-3.036,-0.892l0.664,1.212c0.021,-0.114 0.057,-0.371 0.005,-0.641c-0.104,-0.322 -0.323,-0.713 -0.38,-0.812l-0.289,0.241Zm12.154,-0.042c0.088,-0.57 0.425,-2.984 0.05,-4.345c-0.358,-1.296 -0.488,-1.665 -0.521,-1.751c-0.093,0.047 -0.446,0.234 -0.568,0.397c-0.127,0.169 -0.308,0.306 -0.358,0.342c0.036,0.155 0.318,1.429 0.16,2.585c-0.074,0.467 -0.147,0.836 -0.208,1.112c0.309,-0.042 0.571,-0.023 0.729,0.108c0.081,0.067 0.17,0.195 0.138,0.42c-0.051,0.442 -0.411,0.949 -0.701,1.125c-0.207,0.142 -0.642,0.407 -0.772,0.485l-0.006,0.015c0.219,-0.08 0.503,-0.185 0.699,-0.259c0.401,-0.13 0.98,-0.206 1.272,-0.227c0.027,-0.002 0.056,-0.005 0.086,-0.007Zm-8.227,-0.27l-0.752,-1.084l-0.149,0.183c0.023,0.099 0.191,0.816 0.314,1.117c0.039,0.073 0.07,0.177 0.093,0.293c0.147,-0.19 0.315,-0.36 0.494,-0.509Zm-0.349,-1.661l0.698,1.2c0.051,-0.211 0.228,-0.946 0.304,-1.236c0.031,-0.308 0.205,-0.818 0.249,-0.945l-0.605,-0.059l-0.646,1.04Zm2.758,0.231c0.147,-0.344 0.387,-0.899 0.444,-1.003c0.074,-0.111 -0.06,-0.763 -0.184,-1.244c-0.027,0.245 -0.098,0.779 -0.243,1.124c-0.161,0.435 -0.594,1.155 -0.598,1.163l-0.005,0.005c-0.021,0.018 -0.067,0.043 -0.108,0.017c-0.099,-0.062 -0.075,-0.381 0.075,-0.976c0.202,-0.797 0.209,-1.276 0.197,-1.485c-0.12,0.452 -0.538,2.017 -0.719,2.498c-0.073,0.228 -0.148,0.486 -0.212,0.717c0.408,-0.149 0.766,-0.215 0.908,-0.238c0.074,-0.105 0.251,-0.351 0.445,-0.578Zm-9.903,-1.095c0.462,0.344 1.796,1.337 2.296,1.675c0.493,0.286 0.846,0.192 0.96,0.147c-0.166,-0.1 -0.825,-0.502 -1.244,-0.816c-0.384,-0.288 -1.557,-0.809 -2.012,-1.006Zm13.099,1.451c-0.024,-0.129 -0.054,-0.259 -0.089,-0.389c-0.382,-1.466 -0.787,-2.975 -0.856,-3.232l-0.332,0.314c-0.019,0.12 -0.218,1.327 -0.436,1.792c-0.029,0.049 -0.055,0.094 -0.078,0.136c0.244,-0.086 0.495,-0.121 0.722,-0.056c0.348,0.099 0.577,0.403 0.681,0.905c0.045,0.241 -0.041,0.523 -0.143,0.752c0.169,-0.083 0.36,-0.169 0.515,-0.217l0.016,-0.005Zm0.999,-0.286c0.011,-0.369 0.013,-0.904 -0.02,-1.595c-0.03,-1.197 -0.153,-1.583 -0.194,-1.68l-0.678,0.693c0.025,0.131 0.249,1.288 0.347,2.313c0.013,0.118 0.017,0.255 0.013,0.405c0.182,-0.055 0.362,-0.102 0.532,-0.136Zm-11.839,-1.456c0.214,0.145 1.285,0.815 2.022,1.274l0.293,-0.162c-0.112,-0.083 -0.526,-0.383 -0.926,-0.619c-0.384,-0.246 -0.781,-0.566 -0.845,-0.618l-0.544,0.125Zm2.553,0.438c0.046,0.011 0.099,0.044 0.157,0.101c0.05,0.048 0.092,0.1 0.113,0.129l0.279,-0.233l-0.331,-0.182l-0.218,0.185Zm-1.098,-0.945l0.446,0.518l0.416,-0.121l-0.466,-0.546l-0.396,0.149Zm2.175,0.121l0.199,0.344l0.428,-0.658l-0.627,0.314Zm4.435,-2.006c0.022,0.062 0.106,0.309 0.231,0.66c0.092,0.35 0.222,0.888 0.269,1.083c0.08,-0.212 0.308,-0.855 0.267,-1.243c-0.043,-0.396 0.043,-0.981 0.074,-1.169l-0.841,0.669Zm-5.386,1.231l0.365,0.466c0.089,-0.06 0.482,-0.328 0.887,-0.568c0.258,-0.125 0.561,-0.252 0.775,-0.338l-2.027,0.44Zm-1.222,-1.046l0.813,0.678c0.037,-0.033 0.143,-0.061 0.367,-0.113c0.13,-0.03 0.265,-0.061 0.365,-0.095l1.167,-0.341c-0.306,-0.033 -1.119,-0.118 -1.425,-0.13c-0.296,-0.03 -1.064,-0.007 -1.287,0.001Zm9.183,-1.78c0.01,0.102 0.055,0.67 -0.158,0.993c-0.188,0.235 -0.177,0.335 -0.157,0.354l0.005,0.004l0.002,0.006l0.324,0.859l0.782,-0.542c-0.017,-0.089 -0.112,-0.566 -0.29,-0.942c-0.15,-0.332 -0.008,-0.89 0.046,-1.074l-0.554,0.342Zm-7.807,1.398c0.551,0 2.008,0.399 2.127,0.432l0.573,-0.113c-0.202,-0.078 -0.782,-0.295 -1.355,-0.421c-0.683,-0.15 -2.026,-0.497 -2.131,-0.524l-1.155,0.348c0.126,0.016 0.325,0.052 0.622,0.109c0.468,0.088 0.998,0.187 1.235,0.173c0.025,-0.002 0.053,-0.004 0.084,-0.004Zm1.666,-0.463l1.462,0.525l0.362,-0.171l-1.257,-0.465l-0.567,0.111Zm4.88,-0.204l0.153,0.525l0.348,-0.41l-0.151,-0.4l-0.35,0.285Zm2.15,-1.202c0.029,0.09 0.14,0.452 0.147,0.812c0.014,0.292 0.181,0.673 0.238,0.796c0.045,-0.076 0.155,-0.25 0.312,-0.428c0.159,-0.194 0.246,-0.618 0.258,-0.678c-0.015,-0.034 -0.087,-0.197 -0.175,-0.383c-0.062,-0.133 -0.174,-0.31 -0.241,-0.414c-0.082,0.105 -0.426,0.249 -0.539,0.295Zm1.231,-0.856l0.282,0.529l0.935,-1c-0.129,-0.01 -0.496,-0.022 -0.676,0.139c-0.214,0.149 -0.468,0.292 -0.541,0.332Zm3.189,-1.654c0.038,0.09 0.215,0.521 0.295,0.755l0.388,0.742c0.007,-0.15 0.02,-0.477 0.022,-0.817c0.02,-0.372 -0.011,-1.023 -0.02,-1.198l-0.685,0.518Zm-5.481,-2.131c0.247,0.249 0.74,0.743 1.059,1.058c0.403,0.457 1.161,1.366 1.261,1.486l0.602,-0.245c-0.134,-0.115 -0.698,-0.595 -1.084,-0.977c-0.348,-0.344 -1.409,-1.044 -1.838,-1.322Zm-0.314,1.634l1.403,0.607l-1.38,-1.301l-0.547,-0.124c0.091,0.142 0.365,0.57 0.524,0.818Zm2.847,-0.474l0.78,1.066l0.506,-0.308l-1.286,-0.758Zm4.084,0.047l0.389,0.622l0.251,-0.687l-0.242,-0.167l-0.398,0.232Zm-3.934,-1.766c0.041,0.075 0.143,0.245 0.324,0.457c0.232,0.272 1.03,1.302 1.132,1.434l0.544,-0.206c-0.068,-0.081 -0.286,-0.338 -0.456,-0.529c-0.175,-0.189 -0.686,-0.921 -0.748,-1.012l-0.796,-0.144Zm1.077,-0.61l0.475,0.685c0.209,0.363 0.727,1.061 0.816,1.179l0.607,-0.377c-0.09,-0.079 -0.425,-0.372 -0.817,-0.653c-0.344,-0.247 -0.848,-0.647 -1.081,-0.834Z" style="fill:#1b1b1a;"/><path id="Outline" d="M61.409,31.99c0,-16.178 -13.135,-29.313 -29.313,-29.313c-16.179,0 -29.314,13.135 -29.314,29.313c0,16.179 13.135,29.313 29.314,29.313c16.178,0 29.313,-13.134 29.313,-29.313Z" style="fill:none;stroke:#000;stroke-width:3px;"/></g></g></g></svg>