<?xml version="1.0" encoding="UTF-8" standalone="no"?><!DOCTYPE svg PUBLIC "-//W3C//DTD SVG 1.1//EN" "http://www.w3.org/Graphics/SVG/1.1/DTD/svg11.dtd"><svg width="100%" height="100%" viewBox="0 0 64 64" version="1.1" xmlns="http://www.w3.org/2000/svg" xmlns:xlink="http://www.w3.org/1999/xlink" xml:space="preserve" xmlns:serif="http://www.serif.com/" style="fill-rule:evenodd;clip-rule:evenodd;stroke-miterlimit:10;"><g id="Invasive-species" serif:id="Invasive species"><path d="M25.31,29.621c5.313,0.183 12.432,5.333 6.233,9.805c-2.189,1.58 -4.699,1.364 -6.233,3.852c2.034,0.837 3.846,-1.752 3.963,-1.832c1.598,-1.066 4.482,-0.727 5.43,0.977c0.854,1.535 0.809,2.905 1.297,3.448c1.912,2.128 -0.86,4.276 -0.86,4.276c0.088,0.681 -1.021,1.783 -1.431,2.907c-0.195,0.535 -1.235,0.11 -1.709,0c-0.427,-0.1 -1.194,-0.23 -1.136,-0.665c0.058,-0.442 0.191,-0.796 0,-2.242c-0.168,-1.273 -0.77,-3.283 -0.562,-3.873c0.233,-0.662 0.681,-1.241 1.003,-1.402c0.434,-0.216 0.896,-1.41 0.178,-0.881c-2.489,1.868 -5.565,3.816 -8.058,2.989c0,0 -2.546,-1.454 -2.09,-3.702c0.459,-2.261 2.262,-4.313 4.374,-5.21c1.567,-0.681 3.564,-2.268 3.564,-2.268c-1.908,-0.453 -2.487,-1.354 -3.564,-0.741c-0.501,0.275 -2.82,0.217 -3.352,0.423c-2.61,1.012 -6.549,0.423 -8.537,-1.552c-1.856,-1.844 -1.924,-4.962 0,-7.306c3.392,-4.131 9.526,-5.065 15.809,-3.347c5,1.366 7.695,7.61 12.12,9.547c2.556,1.12 6.669,0.561 7.865,-3.087c0.814,-2.486 -2.002,-7.106 -3.231,-7.493c-0.934,-0.283 -2.004,-0.471 -3.146,-0.59c-3.941,-0.411 -8.743,-0.001 -11.766,0.13c-5.161,0.223 -10.83,-1.137 -15.266,1.841c-0.342,0.235 -0.685,0.468 -1.025,0.704c-0.723,0.507 -0.448,-0.08 -1.487,1.386c-0.863,1.217 -1.661,2.632 -1.661,2.632c-0.708,2.511 0.908,4.64 0.905,7.98c0.001,0.108 0.003,0.215 0.006,0.323c0.138,3.169 -0.528,6.394 -3.522,6.628l-0.711,-1.832c0,0 1.917,-1.001 1.827,-3.831c0,0 -0.164,-2.897 -0.903,-4.73c-1.241,-3.141 -1.343,-6.983 1.859,-10.641c1.797,-2.052 5.364,-4.553 8.66,-4.698c4.989,-0.218 15.633,-1.783 16.186,-2.509c3.983,-1.865 8.924,-1.198 14.254,1.477c3.901,1.958 6.399,6.303 6.149,10.729c-0.291,5.162 -4.01,11.621 -9.252,11.975c-4.195,0.283 -7.671,0.162 -11.151,-2.891c-3.258,-2.859 -5.411,-7.486 -9.643,-8.188c-2.261,-0.359 -4.424,-0.626 -6.832,0.028c-0.372,0.101 -2.059,1.659 -2.059,1.659c0.847,1.248 2.422,1.444 4.095,0.518c0,0 1.725,-0.757 3.41,-0.723Zm8.277,14.533c0.509,0.039 0.371,0.81 0.49,1.496c-0.177,0.519 0.727,0.937 0.385,1.861c-0.208,0.004 -0.754,1.243 -1.116,1.786c-0.192,0.288 -0.579,0.223 -0.764,-0.105c-0.372,-0.661 -0.808,-2.131 -0.593,-2.647c0.194,-0.531 0.801,-0.971 1.067,-1.554c0,0 -0.09,-0.853 0.531,-0.837Zm-3.57,-1.294c1.101,0.067 -0.385,1.765 -1.826,2.408c-0.858,0.383 -1.913,0.797 -2.503,0.382c-0.36,-0.254 -0.167,-1.07 0.418,-0.894c1.27,-0.048 2.198,-0.675 3.056,-1.499c0.236,-0.217 0.516,-0.398 0.855,-0.397Zm-6.764,-0.699c0.591,0.03 0.35,1.171 0.365,1.234c0.256,0.868 1.152,0.646 1.337,1.116c0.23,0.584 -0.764,0.98 -1.686,0.361c-1.143,-0.767 -0.512,-2.076 -0.512,-2.076c-0.088,-0.315 0.124,-0.638 0.496,-0.635Zm8.736,-0.142c1.04,0.023 2.391,0.98 1.709,1.612c-0.362,0.335 -0.856,-0.351 -0.856,-0.351c-0.401,-0.288 -0.974,-0.148 -1.228,-0.419c-0.266,-0.282 -0.068,-0.845 0.375,-0.842Zm-4.599,-2.981c0.362,0.026 0.588,0.483 0.39,0.78c-0.415,0.622 -1.202,0.372 -2.26,1.218c-0.59,0.449 -1.524,-0.091 -0.34,-1.018c0.643,-0.482 1.658,-0.828 1.658,-0.828c0.201,-0.063 0.339,-0.158 0.552,-0.152Zm4.205,-3.577c0.348,0.014 0.536,0.422 0.459,0.77c-0.217,0.985 -1.499,1.314 -2.216,2.078c-0.5,0.516 -1.739,0.034 0.576,-1.592c0.576,-0.405 0.59,-1.257 1.181,-1.256Zm15.658,-1.741c0.981,0.044 1.479,1.925 -0.096,2.025c-2.1,0.258 -0.974,0.43 -2.237,0.43c-0.965,0 -1.511,-1.889 0.099,-2.007l1.264,-0.25c0.311,-0.143 0.561,-0.204 0.97,-0.198Zm-7.688,0.64c0.278,0.016 0.402,0.332 0.509,0.403c0.405,0.24 1.05,0.026 1.312,0.427c0.238,0.365 -0.211,1.023 -0.7,0.696c-0.127,-0.091 -1.65,-0.063 -1.642,-1.031c0.003,-0.253 0.215,-0.476 0.471,-0.495c0.017,-0.001 0.034,-0.001 0.05,0Zm-10.455,-0.405c1.597,0.055 0.969,1.418 -0.025,1.051c-0.509,-0.187 -0.621,-1.061 0.025,-1.051Zm-9.802,0.161c0.715,0.025 0.573,0.814 -1.545,0.771c-0.765,-0.016 -0.743,-0.466 1.25,-0.751c0.056,-0.007 0.112,-0.012 0.169,-0.016c0.042,-0.002 0.084,-0.004 0.126,-0.004Zm33.95,-0.54c0.058,0.002 0.114,0.012 0.168,0.032c0.881,0.334 -1.397,1.961 -1.13,0.646c0.089,-0.438 0.632,-0.68 0.962,-0.678Zm-30.218,-0.07c0.054,0.001 0.107,0.01 0.157,0.028c0.644,0.223 -0.033,1.345 -0.787,1.161c-0.392,-0.096 -0.307,-0.568 0.125,-0.755c0.089,-0.036 0.163,-0.436 0.505,-0.434Zm28.757,-1.345c0.928,0.049 0.931,1.484 -1.435,2.143c-0.491,0.129 -1.044,0.264 -1.408,0.054c-0.757,-0.438 -0.148,-1.179 1.625,-1.677c0.1,-0.027 0.203,-0.046 0.301,-0.08c0.308,-0.119 0.533,-0.447 0.917,-0.44Zm-26.63,1.065c0.471,0.013 0.61,0.428 0.182,0.89c-0.188,0.572 -1.473,0.381 -0.682,-0.484c0.043,-0.218 0.225,-0.379 0.441,-0.403c0.02,-0.002 0.039,-0.003 0.059,-0.003Zm4.746,-1.133c0.867,0.041 2.011,1.328 1.602,1.981c-0.238,0.38 -0.924,0.215 -0.924,-0.327c-0.364,-0.437 -1.015,-0.586 -1.162,-0.979c-0.116,-0.311 0.137,-0.68 0.484,-0.675Zm-2.246,1.06c0.608,0.017 1.045,0.114 0.769,0.479c-0.273,0.362 -1.219,0.987 -1.129,0.377c-0.275,-0.268 -0.09,-0.859 0.36,-0.856Zm8.711,-1.665c0.562,0.024 0.723,1.129 0.723,1.129c0.669,0.252 1.387,0.787 0.854,1.202c-0.636,0.495 -1.657,-0.408 -1.823,-0.945c-0.555,-1.789 0.146,-1.387 0.246,-1.386Zm-22.074,0.773c0.949,0.042 1.935,1.371 0.98,1.561c-0.496,0.098 -0.956,-0.559 -0.962,-0.56c-0.602,-0.026 -0.931,-1.013 -0.018,-1.001Zm9.626,-0.445c0.692,0.066 0.624,0.886 -1.083,1.313c-0.067,0.018 -0.133,0.039 -0.2,0.061c-0.831,0.288 -1.831,0.612 -2.196,0.315c-0.32,-0.261 -0.101,-0.818 0.425,-0.929c0.264,-0.055 0.532,-0.085 0.797,-0.135c0.766,-0.156 1.49,-0.659 2.257,-0.625Zm-5.348,0.458c0.553,0.073 0.485,1.224 -0.273,0.975c-1.495,-0.179 -2.856,-0.594 -3.486,-2.478c-0.07,-0.189 -0.267,-0.344 -0.288,-0.523c-0.076,-0.617 0.893,-0.78 1.362,0.62c0.381,1.027 1.675,1.328 2.685,1.406Zm35.16,-3.534c0.954,0.031 0.79,1.696 -0.551,2.907c-0.258,0.235 -0.272,0.247 -0.397,0.313c-0.671,0.353 -1.51,-0.834 -0.744,-1.304c0.7,-0.617 0.97,-1.917 1.692,-1.916Zm-26.359,2.028c0.607,0.053 1.109,1.392 0.107,1.123c-0.074,-0.02 -0.139,-0.053 -0.198,-0.1c-0.327,-0.272 -0.963,-0.127 -1.679,0.091c0,0 -0.68,0.336 -0.873,-0.073c-0.369,-0.777 1.294,-1.088 2.643,-1.041Zm-11.439,-4.162c0.489,0.027 0.662,0.906 0.167,1.091c0,0 -0.36,1.815 -1.115,1.167c-0.725,-0.623 0.232,-2.276 0.948,-2.258Zm14.181,-0.752c-0.448,0.203 -1.197,-0.083 -1.679,-0.259c-0.466,-0.165 -0.705,-0.196 -1.627,-0.598c-0.643,-0.295 -0.465,-1.456 0.331,-1.437c1.185,0.071 3.505,0.735 3.327,1.793c0.246,-0.17 0.573,-0.248 0.846,-0.241c1.07,0.057 1.87,1.666 1.87,1.666c1.056,0.444 1.226,2.784 -0.443,2.091c-1.088,-0.453 -1.001,-0.741 -1.43,-1.075c-1.023,-0.864 -1.29,-1.503 -1.195,-1.94Zm-12.348,1.206c0.489,0.014 0.667,0.701 0.153,1.022c0,0 -0.837,1.119 -1.085,0.208c-0.017,-0.063 -0.022,-0.13 -0.013,-0.196c0.107,-0.823 0.685,-1.036 0.945,-1.034Zm36.787,-1.807c0.806,0.05 0.725,1.228 0.27,2.372c-0.069,0.188 -0.107,0.85 -0.614,0.972c-0.801,0.192 -1.048,-0.898 -0.541,-2.062c0.228,-0.55 0.168,-1.303 0.885,-1.282Zm-43.49,0.899c0.568,0.013 0.941,0.745 0.58,1.214c-0.034,0.042 0.126,0.482 -0.075,0.817c-0.33,0.551 -1.349,0.626 -1.42,-0.599c-0.038,-0.663 0.244,-1.433 0.915,-1.432Zm8.014,-0.384c0.675,0.021 0.329,1.181 -0.212,1.339c-0.444,0.129 -1.034,-0.652 -0.367,-0.942c0.158,-0.193 0.343,-0.4 0.579,-0.397Zm-2.038,-0.361c0.521,-0.666 1.53,-1.417 1.99,-1.409c0.466,0.027 0.683,0.859 0.083,0.99c-0.623,0.423 -1.36,0.901 -1.36,0.901c-0.202,0.284 -0.464,0.574 -0.771,0.493c-0.421,-0.11 -0.295,-0.521 0.056,-0.972c0.004,-0.001 0.005,-0.003 0.002,-0.003Zm8.086,-0.224c0.892,0.032 1.813,0.882 0.887,1.144c-1.033,0.292 -2.087,-1.157 -0.887,-1.144Zm-13.209,-0.725c0.717,0.012 0.891,1.179 0.361,1.659c-0.527,0.478 -1.536,-0.227 -1.135,-1.009c0.007,-0.013 0.283,-0.651 0.774,-0.65Zm9.866,1.536l-0.001,0c-0.074,0.039 -0.157,0.076 -0.251,0.107c-0.694,0.22 -1.515,-1.116 -0.399,-0.925c0.168,-0.036 0.229,-0.188 0.693,-0.184c0.518,0.017 0.634,0.638 -0.034,0.998l0.002,0.001l0,0.001l0,0l-0.001,0l0,0l0,0l0,0l0,0l-0.001,0.001l0,0l0,0l-0.001,0l-0.001,0l0,0l0,0l-0.001,0l-0.002,0.001l-0.003,0Zm1.4,-1.05c2.295,0.077 1.095,1.113 0.417,1.016c-0.745,-0.009 -1.396,-1.006 -0.429,-1.016c0.004,0 0.008,0 0.012,0Zm29.644,-3.675c1.267,0.049 2.387,2.033 1.642,2.975c-0.5,0.631 -1.731,0.324 -1.783,-0.57c-0.038,-0.663 -1.02,-0.755 -0.87,-1.583c0.084,-0.469 0.525,-0.83 1.011,-0.822Zm-28.298,1.945c0.614,0.016 0.939,0.979 -0.888,1.004c-0.823,0.017 -1.946,0.187 -1.946,0.187c-0.308,0.135 -0.691,0.078 -0.808,-0.227c-0.361,-0.944 2.031,-0.964 3.642,-0.964Zm-10.866,-1.503c0.772,0.025 1.056,0.988 -0.352,1.928c-0.741,0.522 -2.193,0.021 -1.168,-0.979c0.864,-0.843 1.125,-0.952 1.52,-0.949Zm2.646,-1.807c0.118,0.006 0.235,0.036 0.34,0.091c0.075,0.039 0.144,0.09 0.203,0.151c0.46,0.474 0.045,1.467 -0.682,1.347c0,0 -0.447,0.517 -0.894,0.577c-0.828,0.113 -1.146,-1.31 0.393,-2.009c0.201,-0.091 0.283,-0.172 0.64,-0.157Zm33.91,-1.849c1.75,0.048 3.147,2.425 1.714,3.086c-1.458,0.673 -3.953,-3.095 -1.714,-3.086Zm-30.179,0.649c0.876,0.028 0.95,1.405 -0.358,1.518c-0.255,0.028 -0.508,0.072 -0.751,0.154c-0.255,0.085 -0.511,0.22 -0.771,0.15c-0.63,-0.169 -0.721,-1.195 0.168,-1.528c0.547,-0.205 1.136,-0.295 1.712,-0.294Zm22.666,-1.008c3.202,0.105 2.81,1.177 2.664,1.74c-0.687,2.654 -5.312,-0.577 -3.12,-1.64c0.144,-0.07 0.235,-0.102 0.456,-0.1Zm-3.186,0.375c1.094,0.029 2.109,2.626 -1.295,2.131c-1.073,-0.157 -1.146,-1.626 0.794,-2.031c0.17,-0.036 0.28,-0.101 0.501,-0.1Zm-16.859,0.354c0.931,0.031 0.887,1.348 -0.758,1.655c-0.923,0.152 -1.526,-1.452 0.579,-1.649c0.059,-0.003 0.119,-0.006 0.179,-0.006Zm2.938,-0.778c0.574,0.014 0.928,0.798 0.559,1.245c-1.099,1.328 -2.97,-0.122 -1.852,-0.905c0.533,-0.373 1.071,-0.341 1.293,-0.34Zm4.258,-0.296c0.85,0.033 0.973,1.342 -0.404,1.531c-0.83,0.127 -1.808,0.518 -2.292,0.249c-0.795,-0.443 -0.132,-1.286 1.674,-1.662c0.274,-0.053 0.549,-0.097 0.829,-0.114c0.064,-0.003 0.129,-0.005 0.193,-0.004Zm6.254,-0.595c1.21,0.101 1.272,2.988 -0.424,2.04c-1.118,0.047 -1.367,-2.083 0.424,-2.04Zm4.6,-1.619c1.127,0.111 1.042,2.228 -0.239,2.025c-0.411,-0.078 -2.118,1.137 -2.847,0.26c-0.713,-0.858 0.582,-1.968 2.726,-2.275c0.161,-0.023 0.205,-0.016 0.36,-0.01Zm2.181,-0.03c1.43,0.02 3.255,0.892 3.255,0.892c1.047,0.535 0.21,2.453 -1.532,1.345c-0.679,-0.41 -1.848,0.03 -2.467,-0.443c-0.672,-0.515 -0.337,-1.799 0.744,-1.794Z" style="fill:#1b1b1a;fill-rule:nonzero;"/><path id="Outline" d="M61.5,32.174c0,-16.178 -13.135,-29.313 -29.313,-29.313c-16.178,0 -29.313,13.135 -29.313,29.313c0,16.178 13.135,29.313 29.313,29.313c16.178,0 29.313,-13.135 29.313,-29.313Z" style="fill:none;stroke:#1b1b1a;stroke-width:3px;"/></g></svg>