<?xml version="1.0" encoding="UTF-8" standalone="no"?><!DOCTYPE svg PUBLIC "-//W3C//DTD SVG 1.1//EN" "http://www.w3.org/Graphics/SVG/1.1/DTD/svg11.dtd"><svg width="100%" height="100%" viewBox="0 0 64 64" version="1.1" xmlns="http://www.w3.org/2000/svg" xmlns:xlink="http://www.w3.org/1999/xlink" xml:space="preserve" xmlns:serif="http://www.serif.com/" style="fill-rule:evenodd;clip-rule:evenodd;stroke-miterlimit:10;"><g id="Species"><g id="Invertebrates"><g id="dragonfly"><path id="Outline" d="M138.626,31.687c0,-16.179 -13.135,-29.313 -29.313,-29.313c-16.178,0 -29.313,13.134 -29.313,29.313c0,16.178 13.135,29.313 29.313,29.313c16.178,0 29.313,-13.135 29.313,-29.313Z" style="fill:none;stroke:#000;stroke-width:3px;"/></g><g id="butterfly"><path id="Outline1" serif:id="Outline" d="M58.626,31.687c0,-16.179 -13.135,-29.313 -29.313,-29.313c-16.178,0 -29.313,13.134 -29.313,29.313c0,16.178 13.135,29.313 29.313,29.313c16.178,0 29.313,-13.135 29.313,-29.313Z" style="fill:none;stroke:#000;stroke-width:3px;"/><path d="M30.815,32.53c0.527,-1.826 1.471,-4.708 3.036,-6.785c2,-2.656 3.628,-6.306 7.664,-9.153c4.036,-2.847 5.799,-3.449 6.904,-2.114c1.106,1.337 0.532,1.65 0.449,1.844c-0.083,0.193 0.371,1.168 -0.124,1.809c-0.495,0.64 0.002,1.257 -0.493,1.898c-0.494,0.641 0.051,1.636 -0.444,2.277c-0.494,0.641 0.39,1.424 0.058,2.199c-0.332,0.774 0.591,1.895 0.27,2.537c-0.321,0.642 -0.074,2.013 -0.343,2.513c-0.269,0.499 -0.961,1.578 -2.681,1.996c-0.829,0.202 -2.086,0.589 -3.336,1c1.826,0.209 3.978,0.662 5.292,1.691c2.197,1.722 2.079,2.662 1.954,3.039c-0.125,0.378 0.424,0.851 0.196,1.341c-0.228,0.489 0.547,0.821 0.203,1.729c-0.343,0.907 -0.2,0.96 -0.572,1.571c-0.371,0.611 -0.056,0.838 -0.776,1.446c-0.719,0.609 -0.627,0.63 -0.978,1.15c-0.351,0.519 -0.509,1.295 -1.289,1.658c-0.779,0.363 -1.451,1.524 -2.136,1.561c-0.685,0.036 -1.428,1.084 -2.623,0.985c-1.196,-0.1 -2.8,-0.274 -4.231,-1.877c-1.432,-1.604 -3.054,-3.813 -3.925,-5.076c-0.306,-0.444 -0.663,-0.999 -1.004,-1.59c0.087,0.878 0.189,1.777 0.498,2.592c0.296,0.781 1.215,2.409 0.485,3.166c-0.046,0.048 -0.139,0.062 -0.194,0.021c-0.019,-0.013 -0.035,-0.028 -0.053,-0.043c-0.008,0.021 -0.016,0.042 -0.026,0.062c-0.031,0.063 -0.119,0.092 -0.183,0.071c-0.995,-0.337 -0.927,-2.205 -1.023,-3.035c-0.1,-0.866 -0.422,-1.712 -0.749,-2.531c-0.03,0.682 -0.093,1.338 -0.161,1.873c-0.194,1.523 -0.62,4.229 -1.154,6.312c-0.535,2.081 -1.88,2.973 -2.896,3.611c-1.016,0.637 -2.158,0.047 -2.783,0.329c-0.626,0.283 -1.755,-0.44 -2.615,-0.405c-0.859,0.036 -1.356,-0.581 -1.906,-0.881c-0.55,-0.3 -0.478,-0.361 -1.397,-0.571c-0.919,-0.21 -0.743,-0.557 -1.354,-0.929c-0.611,-0.372 -0.508,-0.483 -1.23,-1.132c-0.721,-0.649 -0.186,-1.3 -0.613,-1.63c-0.427,-0.329 -0.157,-1.002 -0.442,-1.281c-0.284,-0.277 -0.821,-1.058 0.34,-3.596c0.695,-1.518 2.397,-2.909 3.923,-3.933c-1.298,0.208 -2.593,0.442 -3.422,0.644c-1.72,0.419 -2.83,-0.222 -3.298,-0.542c-0.469,-0.32 -0.879,-1.652 -1.459,-2.074c-0.58,-0.423 -0.275,-1.843 -0.926,-2.378c-0.651,-0.536 -0.225,-1.637 -0.959,-1.98c-0.733,-0.341 -0.706,-1.476 -1.44,-1.818c-0.734,-0.342 -0.575,-1.118 -1.309,-1.46c-0.734,-0.342 -0.779,-1.416 -0.941,-1.55c-0.163,-0.134 -0.817,-0.149 -0.449,-1.843c0.369,-1.695 2.211,-1.97 7.104,-1.294c4.893,0.675 8.015,3.169 11.012,4.609c2.344,1.126 4.506,3.252 5.814,4.632c0.019,-0.128 0.076,-0.207 0.127,-0.253c0.019,-0.027 0.041,-0.052 0.064,-0.074c-0.064,-0.203 -0.008,-0.469 0.142,-0.613c0.038,-0.037 0.081,-0.068 0.131,-0.095c0,-0.03 0.002,-0.058 0.005,-0.086c-0.205,-0.215 -0.378,-0.448 -0.545,-0.675c-0.158,-0.213 -0.321,-0.434 -0.506,-0.631c-0.297,-0.315 -0.615,-0.587 -0.952,-0.875c-0.103,-0.088 -0.207,-0.177 -0.311,-0.267c-0.139,-0.122 -0.286,-0.259 -0.439,-0.402c-0.814,-0.761 -1.827,-1.707 -2.904,-1.388c-0.105,0.031 -0.208,0.003 -0.277,-0.076c-0.076,-0.088 -0.095,-0.224 -0.045,-0.331c0.046,-0.098 0.145,-0.152 0.256,-0.153c1.187,0.012 2.175,0.766 3.066,1.579c0.161,0.147 0.327,0.291 0.493,0.436c0.385,0.336 0.783,0.683 1.127,1.066c0.236,0.263 0.453,0.545 0.664,0.817c0.131,0.171 0.266,0.345 0.405,0.515c-0.013,-0.061 -0.023,-0.125 -0.03,-0.195c-0.008,-0.068 0.036,-0.128 0.104,-0.143c0.069,-0.015 0.141,0.026 0.162,0.093c0.025,0.077 0.054,0.145 0.088,0.206c0.008,-0.007 0.018,-0.015 0.028,-0.022c0.059,-0.044 0.126,-0.066 0.198,-0.064c0.06,-0.033 0.133,-0.045 0.206,-0.035c0.012,0.002 0.024,0.005 0.035,0.008c0.002,-0.07 -0.004,-0.144 -0.017,-0.224c-0.012,-0.07 0.031,-0.137 0.101,-0.157c0.067,-0.018 0.133,0.015 0.159,0.079c0.025,0.066 0.045,0.127 0.063,0.188c0.045,-0.215 0.084,-0.431 0.123,-0.642c0.062,-0.34 0.125,-0.691 0.214,-1.033c0.13,-0.498 0.324,-0.989 0.511,-1.463c0.081,-0.206 0.162,-0.411 0.238,-0.616c0.418,-1.131 0.949,-2.254 1.998,-2.811l0,0c0.103,-0.054 0.212,-0.047 0.299,0.019c0.092,0.072 0.138,0.201 0.111,0.315c-0.024,0.101 -0.103,0.174 -0.211,0.195c-1.103,0.211 -1.568,1.517 -1.942,2.566c-0.07,0.198 -0.138,0.387 -0.206,0.559c-0.049,0.126 -0.1,0.251 -0.151,0.376c-0.168,0.412 -0.326,0.801 -0.445,1.218c-0.074,0.261 -0.118,0.532 -0.16,0.793c-0.045,0.279 -0.091,0.566 -0.174,0.85c0.016,0.023 0.03,0.048 0.044,0.075c0.057,0.001 0.11,0.009 0.16,0.024c0.199,0.06 0.37,0.27 0.407,0.479c0.031,0.009 0.062,0.021 0.092,0.036c0.065,0.018 0.152,0.062 0.229,0.167Z" style="fill:#100b0b;fill-rule:nonzero;"/></g></g></g></svg>