<?xml version="1.0" encoding="UTF-8" standalone="no"?><!DOCTYPE svg PUBLIC "-//W3C//DTD SVG 1.1//EN" "http://www.w3.org/Graphics/SVG/1.1/DTD/svg11.dtd"><svg width="100%" height="100%" viewBox="0 0 64 64" version="1.1" xmlns="http://www.w3.org/2000/svg" xmlns:xlink="http://www.w3.org/1999/xlink" xml:space="preserve" xmlns:serif="http://www.serif.com/" style="fill-rule:evenodd;clip-rule:evenodd;stroke-miterlimit:10;"><g id="Species"><g id="invertebrate"><path id="Outline" d="M61.409,32.062c0,-16.178 -13.135,-29.313 -29.313,-29.313c-16.179,0 -29.314,13.135 -29.314,29.313c0,16.179 13.135,29.314 29.314,29.314c16.178,0 29.313,-13.135 29.313,-29.314Z" style="fill:none;stroke:#000;stroke-width:3px;"/><path d="M33.597,32.905c0.527,-1.825 1.472,-4.707 3.036,-6.785c2,-2.655 3.629,-6.305 7.665,-9.153c4.036,-2.847 5.798,-3.449 6.904,-2.113c1.106,1.336 0.531,1.649 0.448,1.843c-0.083,0.194 0.371,1.168 -0.124,1.809c-0.495,0.641 0.003,1.258 -0.493,1.899c-0.494,0.64 0.052,1.636 -0.443,2.277c-0.495,0.641 0.389,1.423 0.057,2.198c-0.332,0.775 0.592,1.895 0.27,2.537c-0.32,0.642 -0.073,2.014 -0.342,2.513c-0.269,0.499 -0.961,1.579 -2.681,1.997c-0.829,0.202 -2.087,0.588 -3.336,1c1.826,0.208 3.977,0.662 5.291,1.691c2.198,1.721 2.079,2.661 1.954,3.039c-0.125,0.377 0.424,0.851 0.196,1.34c-0.228,0.489 0.547,0.821 0.204,1.729c-0.343,0.908 -0.2,0.96 -0.572,1.571c-0.372,0.611 -0.057,0.838 -0.776,1.447c-0.72,0.609 -0.628,0.63 -0.979,1.149c-0.351,0.519 -0.509,1.295 -1.288,1.658c-0.78,0.364 -1.451,1.524 -2.137,1.561c-0.685,0.037 -1.428,1.085 -2.623,0.986c-1.196,-0.1 -2.799,-0.274 -4.231,-1.878c-1.431,-1.604 -3.053,-3.812 -3.925,-5.075c-0.306,-0.444 -0.663,-0.999 -1.003,-1.591c0.086,0.878 0.188,1.778 0.497,2.593c0.297,0.781 1.215,2.409 0.485,3.165c-0.046,0.048 -0.138,0.063 -0.194,0.022c-0.018,-0.014 -0.035,-0.029 -0.052,-0.044c-0.008,0.021 -0.017,0.042 -0.026,0.063c-0.031,0.062 -0.12,0.091 -0.183,0.07c-0.996,-0.337 -0.928,-2.205 -1.024,-3.035c-0.099,-0.865 -0.422,-1.711 -0.748,-2.531c-0.031,0.682 -0.093,1.339 -0.161,1.874c-0.194,1.522 -0.62,4.229 -1.155,6.311c-0.534,2.082 -1.879,2.973 -2.895,3.611c-1.017,0.637 -2.158,0.048 -2.784,0.33c-0.625,0.282 -1.755,-0.441 -2.614,-0.405c-0.859,0.035 -1.356,-0.582 -1.907,-0.881c-0.55,-0.3 -0.478,-0.361 -1.396,-0.572c-0.919,-0.21 -0.743,-0.556 -1.354,-0.928c-0.611,-0.372 -0.508,-0.484 -1.23,-1.133c-0.722,-0.648 -0.186,-1.299 -0.613,-1.629c-0.428,-0.33 -0.158,-1.003 -0.442,-1.281c-0.285,-0.278 -0.822,-1.058 0.34,-3.596c0.694,-1.518 2.397,-2.909 3.923,-3.933c-1.299,0.208 -2.593,0.442 -3.422,0.644c-1.72,0.418 -2.831,-0.223 -3.299,-0.543c-0.468,-0.319 -0.879,-1.651 -1.459,-2.074c-0.58,-0.423 -0.274,-1.842 -0.925,-2.378c-0.651,-0.536 -0.225,-1.637 -0.959,-1.979c-0.734,-0.342 -0.706,-1.477 -1.44,-1.819c-0.734,-0.342 -0.576,-1.118 -1.31,-1.46c-0.734,-0.342 -0.778,-1.416 -0.941,-1.55c-0.163,-0.134 -0.817,-0.148 -0.448,-1.843c0.368,-1.694 2.21,-1.969 7.103,-1.294c4.893,0.675 8.016,3.169 11.013,4.609c2.343,1.127 4.506,3.253 5.813,4.632c0.02,-0.128 0.077,-0.206 0.127,-0.252c0.02,-0.027 0.042,-0.053 0.065,-0.075c-0.064,-0.203 -0.008,-0.468 0.141,-0.612c0.038,-0.037 0.081,-0.068 0.132,-0.095c0,-0.03 0.001,-0.059 0.004,-0.087c-0.204,-0.214 -0.377,-0.448 -0.545,-0.674c-0.157,-0.213 -0.32,-0.434 -0.506,-0.632c-0.297,-0.315 -0.615,-0.586 -0.951,-0.874c-0.104,-0.089 -0.208,-0.178 -0.311,-0.268c-0.14,-0.122 -0.287,-0.259 -0.44,-0.402c-0.814,-0.76 -1.827,-1.707 -2.903,-1.388c-0.105,0.032 -0.209,0.003 -0.277,-0.076c-0.077,-0.088 -0.095,-0.224 -0.046,-0.33c0.046,-0.099 0.145,-0.152 0.256,-0.154c1.188,0.012 2.176,0.766 3.067,1.579c0.161,0.147 0.326,0.292 0.493,0.437c0.384,0.335 0.782,0.682 1.126,1.066c0.236,0.263 0.454,0.544 0.664,0.817c0.132,0.17 0.266,0.345 0.405,0.514c-0.012,-0.061 -0.023,-0.125 -0.03,-0.194c-0.007,-0.068 0.036,-0.129 0.104,-0.143c0.069,-0.016 0.142,0.025 0.163,0.092c0.025,0.077 0.053,0.145 0.087,0.207c0.009,-0.008 0.018,-0.015 0.028,-0.022c0.06,-0.044 0.127,-0.066 0.199,-0.064c0.059,-0.034 0.132,-0.046 0.205,-0.035c0.012,0.002 0.024,0.004 0.036,0.007c0.001,-0.07 -0.004,-0.143 -0.018,-0.223c-0.012,-0.07 0.032,-0.138 0.101,-0.157c0.067,-0.019 0.134,0.014 0.159,0.079c0.026,0.065 0.046,0.127 0.063,0.187c0.045,-0.214 0.085,-0.43 0.123,-0.642c0.062,-0.339 0.126,-0.69 0.215,-1.032c0.129,-0.499 0.323,-0.989 0.51,-1.464c0.082,-0.205 0.163,-0.41 0.238,-0.615c0.418,-1.131 0.949,-2.255 1.998,-2.811l0.001,0c0.103,-0.055 0.212,-0.048 0.298,0.019c0.093,0.072 0.138,0.201 0.111,0.314c-0.024,0.102 -0.103,0.174 -0.211,0.195c-1.103,0.212 -1.568,1.518 -1.941,2.567c-0.071,0.197 -0.138,0.386 -0.206,0.558c-0.05,0.127 -0.101,0.252 -0.152,0.376c-0.167,0.412 -0.326,0.801 -0.445,1.219c-0.074,0.261 -0.117,0.531 -0.159,0.793c-0.045,0.278 -0.092,0.565 -0.175,0.849c0.016,0.024 0.03,0.049 0.044,0.076c0.057,0.001 0.11,0.008 0.16,0.023c0.199,0.06 0.371,0.27 0.407,0.48c0.031,0.009 0.062,0.021 0.092,0.036c0.066,0.018 0.153,0.062 0.229,0.166Z" style="fill:#100b0b;fill-rule:nonzero;"/></g></g></svg>