<?xml version="1.0" encoding="UTF-8" standalone="no"?><!DOCTYPE svg PUBLIC "-//W3C//DTD SVG 1.1//EN" "http://www.w3.org/Graphics/SVG/1.1/DTD/svg11.dtd"><svg width="100%" height="100%" viewBox="0 0 64 64" version="1.1" xmlns="http://www.w3.org/2000/svg" xmlns:xlink="http://www.w3.org/1999/xlink" xml:space="preserve" xmlns:serif="http://www.serif.com/" style="fill-rule:evenodd;clip-rule:evenodd;stroke-miterlimit:10;"><g id="Habitats"><g id="Freshwater"><g id="lakes"><path d="M5.198,28l0.728,-1.747l2.393,-4.207l0,0l0.235,-0.353l0,0.001l0.688,-0.838c0.059,-0.003 -0.01,0.001 0.048,0.016c0.021,-0.345 0.426,-0.602 0.65,-0.581c0.352,0.032 0.327,0.443 0.277,0.692c0.188,-0.109 0.687,-0.12 0.859,0.012c0.323,0.249 0.075,0.602 0.236,0.747c0.48,0.431 1.207,-0.212 1.597,0.438c0.39,0.649 -0.096,0.814 -0.144,1.221c-0.015,0.126 -0.021,0.275 0.076,0.358c0.1,0.084 0.25,0.048 0.378,0.07c0.172,0.028 0.306,0.159 0.44,0.272c0.456,0.381 0.979,0.188 1.573,0.184c-0.029,-0.504 0.013,-0.344 -0.015,-0.848c-0.246,0.044 -0.246,0.044 -0.604,0.117c0.029,-0.113 0.087,-0.256 0.033,-0.36c-0.232,-0.003 -0.622,0.037 -0.622,0.037c0,0 0.112,-0.298 0.411,-0.348c-0.121,-0.042 -0.465,-0.398 -0.465,-0.398c0,0 0.319,0.035 0.452,-0.1c-0.034,-0.167 -0.033,-0.493 -0.033,-0.493c0,0 0.568,0.381 0.456,0.245c-0.112,-0.137 0.013,-0.577 0.013,-0.577c0,0 0.423,0.564 0.41,0.427c-0.012,-0.136 0.186,-0.426 0.186,-0.426l0.2,0.376l0.512,-0.077c0,0 -0.363,0.376 -0.164,0.389c0.199,0.012 0.387,0.235 0.387,0.235c0,0 -0.249,0.112 -0.399,0.237c0.157,0.123 0.377,0.214 0.377,0.214c-0.185,0.029 -0.251,0.133 -0.439,0.122c0.127,0.155 0.004,0.265 0.049,0.461c-0.211,-0.069 -0.335,-0.043 -0.547,-0.112c0.018,0.532 -0.049,0.312 0,0.811c0.233,-0.07 0.588,-0.024 0.944,0.024l0.017,0.002c0.356,0.047 0.712,0.094 0.945,0.023c0.109,-0.033 0.242,-0.099 0.231,-0.213c-0.008,-0.08 -0.09,-0.14 -0.093,-0.22c-0.003,-0.098 0.106,-0.156 0.198,-0.19c0.284,-0.103 0.881,0.027 0.851,-0.31c-0.031,-0.338 -0.269,-0.198 -0.521,-0.394c-0.253,-0.197 0.053,-0.628 0.336,-0.76c0.283,-0.131 0.609,-0.11 0.92,-0.13c0.426,-0.027 0.847,-0.137 1.233,-0.321c-0.338,-0.138 -0.494,-0.601 -0.309,-0.915c0.224,-0.277 0.659,-0.264 0.986,-0.125c0.328,0.139 0.611,0.375 0.95,0.484c0.338,0.11 0.785,0.038 0.93,-0.288c-0.025,-0.107 -0.191,0.024 -0.23,-0.208c-0.039,-0.233 1.004,-0.564 1.545,-0.425c0.086,-0.098 0.013,-0.255 -0.085,-0.341c-0.098,-0.086 -0.225,-0.151 -0.276,-0.271c-0.066,-0.158 0.039,-0.348 0.19,-0.431c0.151,-0.083 0.331,-0.086 0.503,-0.082c0.325,0.007 0.754,0.144 0.731,0.468c0.263,0.043 0.392,-0.179 0.79,0.129c0.399,0.308 0.066,0.663 0.263,0.925c0.306,-0.125 0.639,-0.254 0.96,-0.175c0.322,0.08 0.582,0.47 0.404,0.75c0.356,0.022 0.899,-0.029 1.016,0.303c0.118,0.331 -0.147,0.499 -0.354,0.648c-0.049,0.339 0.1,0.476 0.388,0.569c0.195,-0.422 0.831,-0.202 1.291,-0.272c0.549,-0.082 0.039,-0.866 0.786,-1.142c0.344,-0.126 0.996,-0.155 1.003,0.483c0.002,0.141 0.037,0.149 0.04,0.338c0.002,0.133 0.128,0.231 0.254,0.19c0.406,-0.132 0.89,0.031 1.133,0.382c0.099,0.142 0.163,0.313 0.292,0.43c0.402,0.365 1.068,-0.029 1.582,0.149c0.377,0.131 0.771,0.73 1.146,0.592c0.304,-0.111 -0.453,-0.582 -0.313,-0.845c0.14,-0.263 0.444,-0.079 0.633,-0.367c0.19,-0.289 -0.44,-0.52 -0.822,-0.512c-0.382,0.008 -1.117,0.108 -1.099,-0.172c0.018,-0.279 1.702,-0.044 1.706,-0.43c0.005,-0.46 -1.898,0.038 -2.06,-0.659c-0.172,-0.742 0.97,-0.597 1.162,-0.858c0.222,-0.302 0.626,-0.435 0.99,-0.529c0.947,-0.242 2.115,0.292 2.764,0.664c0.649,0.371 0.421,0.81 0.027,0.755c-0.393,-0.056 -1.481,-0.124 -1.603,0.278c-0.088,0.289 0.427,0.34 0.492,0.345c0.161,0.012 1.094,-0.132 1.261,0.358c0.167,0.49 -0.878,0.258 -1.429,0.181c0.066,0.127 0.011,0.31 -0.053,0.436c0.111,0.04 0.059,0.021 0.17,0.061c0.111,0.032 0.249,0.247 0.163,0.325c-0.087,0.077 -0.362,0.065 -0.449,0.141c-0.256,0.224 -0.042,0.654 0.233,0.852c0.436,0.315 0.875,0.291 1.398,0.164c-0.117,-0.311 0.456,-0.378 0.78,-0.443c0.325,-0.065 0.733,-0.365 0.536,-0.631c-0.116,-0.156 -0.369,-0.143 -0.496,-0.29c-0.302,-0.35 0.548,-0.739 0.388,-1.236c-0.16,-0.498 -0.384,-0.272 -0.523,-0.461c-0.122,-0.298 0.197,-0.601 0.509,-0.678c0.312,-0.077 0.876,0.224 1.157,0.069c0.516,-0.286 0.663,-1.237 1.232,-1.394c0.668,-0.184 0.958,0.075 1.144,0.299c0.357,0.428 -0.423,0.647 0.037,0.933c0.61,0.378 1.282,-0.311 1.307,0.51c0.023,0.779 0.522,1.082 0.734,0.634c0.278,-0.588 0.833,-0.647 1.194,-0.024c0.337,0.58 -0.081,0.932 -0.012,1.308c0.042,0.224 0.819,-0.112 1.02,0.806c0.087,0.399 -0.498,0.685 -0.037,0.971c0.783,0.249 0.384,-0.289 0.994,-0.205c0.022,-0.545 0.026,-1.612 0.026,-1.612l-0.365,0.148l0.017,-0.346l-0.374,0.161c0,0 -0.025,-0.298 0.174,-0.423c0.2,-0.124 -0.339,0.076 -0.339,0.076c0,0 -0.146,-0.225 0.302,-0.362c0.448,-0.137 -0.3,-0.267 -0.3,-0.267c0,0 0.188,-0.231 0.499,-0.094c0.311,0.137 0.047,-0.347 0.047,-0.347c0,0 0.426,0.447 0.389,0.26c-0.038,-0.186 0.148,-0.516 0.148,-0.516c0,0 0.138,0.628 0.2,0.529c0.062,-0.1 0.506,-0.176 0.506,-0.176c0,0 -0.463,0.439 -0.32,0.412c0.143,-0.027 0.516,0.162 0.516,0.162c0,0 -0.542,0.117 -0.366,0.186c0.176,0.07 0.36,0.333 0.36,0.333c0,0 -0.534,-0.084 -0.398,0.053c0.137,0.137 0.014,0.235 0.022,0.361c-0.17,-0.026 -0.345,-0.174 -0.532,-0.162c0.021,0.526 -0.021,1.116 0,1.642c0.126,-0.013 0.541,-0.255 0.884,-0.074c0.342,0.18 0.099,0.324 0.211,0.353c0.112,0.028 0.255,-0.139 0.364,-0.179c0.364,-0.135 0.923,-0.12 0.974,0.266c0.023,0.172 -0.066,0.394 0.077,0.492c0.09,0.062 0.211,0.022 0.32,0.03c0.557,0.039 0.565,1.201 1.112,1.089c0.524,-0.108 -0.06,-1.131 0.656,-1.348c0.717,-0.217 0.441,0.59 0.944,0.562c0.504,-0.029 0.889,-0.908 1.438,-0.78c-0.015,-0.214 0.014,-0.607 0,-0.821c-0.549,0.066 -0.73,0.584 -1.774,0.322c-0.59,-0.148 0.008,-0.486 0.011,-0.698c-0.251,0.025 -0.616,-0.064 -0.566,-0.312c0.019,-0.092 0.095,-0.158 0.164,-0.222c0.377,-0.351 0.148,-1.131 0.585,-1.479c0.117,-0.069 0.131,-0.09 0.131,-0.094l0,0c-0.002,-0.002 0,-0.002 0,0c0.003,0.001 0.013,0.003 0.044,0.002l1.169,1.607c-0.001,0.079 0.08,0.107 0.14,0.17c0.063,0.065 0.477,0.847 0.357,0.729c0.037,0.398 -0.009,0.455 -0.006,0.833c0.121,-0.15 0.447,-0.006 0.677,0.123l1.338,3.162l2.122,0c0.178,1.305 0.27,2.637 0.27,3.99c0,16.179 -13.135,29.313 -29.313,29.313c-5.063,0 -9.828,-1.286 -13.986,-3.549c-0.01,0.008 -0.015,0.013 -0.015,0.013c0,0 -0.015,-0.016 -0.044,-0.046c-9.095,-4.979 -15.269,-14.64 -15.269,-25.731c0,-1.353 0.092,-2.685 0.27,-3.99l2.146,0Zm39.668,18.59c-0.045,-0.259 -0.096,-0.524 -0.153,-0.793c-0.192,-0.934 -0.447,-1.922 -0.817,-2.896c-0.366,-0.975 -0.855,-1.935 -1.399,-2.821c-0.367,-0.599 -0.75,-1.165 -1.111,-1.684c0.41,1.333 0.948,3.078 1.488,4.835l0.978,3.193c0.356,0.145 0.695,0.209 1.014,0.166Zm-19.723,-14.59l-7.116,0l0.018,0.03c0.218,0.365 0.485,0.774 0.729,1.229c1.026,1.809 2.211,4.268 2.974,6.798c0.691,2.156 1.085,4.356 1.262,6.189c0.184,0.012 0.37,0.02 0.556,0.023c-0.067,-1.371 -0.241,-2.916 -0.572,-4.446c-0.435,-2.182 -1.201,-4.324 -1.885,-5.91c-0.161,-0.398 -0.342,-0.758 -0.49,-1.079c-0.145,-0.321 -0.286,-0.599 -0.406,-0.826c-0.235,-0.457 -0.369,-0.717 -0.369,-0.717c0,0 0.152,0.257 0.418,0.708c0.136,0.225 0.295,0.5 0.463,0.818c0.169,0.318 0.376,0.674 0.564,1.069c0.793,1.573 1.708,3.705 2.294,5.89c0.436,1.531 0.716,3.085 0.875,4.467c0.143,-0.011 0.287,-0.024 0.43,-0.041c-0.053,-0.869 -0.134,-1.834 -0.261,-2.793c-0.18,-1.457 -0.483,-2.898 -0.78,-3.97c-0.149,-0.536 -0.286,-0.981 -0.397,-1.29c-0.108,-0.31 -0.17,-0.487 -0.17,-0.487c0,0 0.081,0.174 0.222,0.48c0.145,0.306 0.33,0.745 0.536,1.277c0.414,1.062 0.872,2.496 1.209,3.951c0.22,0.918 0.399,1.843 0.541,2.685c0.222,-0.047 0.444,-0.102 0.665,-0.166c-0.092,-0.835 -0.224,-1.713 -0.415,-2.585c-0.38,-1.833 -1.02,-3.635 -1.564,-4.974c-0.278,-0.668 -0.515,-1.224 -0.695,-1.611c-0.175,-0.387 -0.274,-0.608 -0.274,-0.608c0,0 0.118,0.218 0.326,0.6c0.213,0.382 0.496,0.931 0.832,1.592c0.658,1.325 1.454,3.114 1.992,4.949c0.243,0.796 0.437,1.599 0.593,2.37c0.14,-0.055 0.279,-0.112 0.418,-0.174c-0.039,-0.307 -0.083,-0.617 -0.133,-0.925c-0.24,-1.592 -0.632,-3.164 -0.982,-4.335c-0.176,-0.585 -0.334,-1.072 -0.456,-1.41c-0.119,-0.339 -0.187,-0.533 -0.187,-0.533c0,0 0.09,0.191 0.247,0.525c0.16,0.334 0.372,0.814 0.614,1.393c0.483,1.159 1.053,2.72 1.472,4.31c0.056,0.203 0.109,0.407 0.16,0.611c0.135,-0.074 0.27,-0.153 0.404,-0.235c-0.086,-0.41 -0.176,-0.824 -0.269,-1.237c-0.796,-3.669 -1.875,-7.273 -1.875,-7.273c0,0 1.384,3.58 2.491,7.242c0.089,0.287 0.177,0.574 0.262,0.86c0.13,-0.094 0.26,-0.192 0.388,-0.294c-0.165,-1.175 -0.394,-2.413 -0.747,-3.645c-0.703,-2.568 -1.959,-5.098 -3.021,-6.971c-0.271,-0.469 -0.518,-0.897 -0.737,-1.277l-0.154,-0.254Zm17.088,0l-14.266,0c0.07,0.1 0.141,0.204 0.213,0.312c0.244,0.364 0.54,0.772 0.816,1.225c1.154,1.803 2.515,4.252 3.459,6.767c0.086,0.218 0.169,0.436 0.249,0.654c0.32,-0.303 0.646,-0.52 0.978,-0.661c-0.523,-1.863 -1.181,-3.656 -1.729,-5.036c-0.331,-0.795 -0.781,-1.434 -1.141,-1.87c-0.178,-0.219 -0.33,-0.388 -0.436,-0.502c-0.106,-0.115 -0.162,-0.176 -0.162,-0.176c0,0 0.06,0.06 0.174,0.173c0.114,0.112 0.278,0.278 0.472,0.493c0.391,0.429 0.891,1.065 1.282,1.86c0.634,1.346 1.398,3.079 2.048,4.898c0.76,-0.155 1.541,0.04 2.327,0.445c-0.044,-0.131 -0.09,-0.258 -0.136,-0.38c-0.111,-0.302 -0.245,-0.576 -0.347,-0.82c-0.094,-0.245 -0.223,-0.453 -0.324,-0.625c-0.199,-0.344 -0.313,-0.54 -0.313,-0.54c0,0 0.132,0.193 0.363,0.532c0.117,0.17 0.266,0.375 0.383,0.619c0.125,0.242 0.286,0.514 0.425,0.815c0.086,0.18 0.17,0.369 0.252,0.566c0.157,0.091 0.314,0.19 0.47,0.295c-0.619,-1.728 -1.441,-3.37 -2.332,-4.608c-0.523,-0.735 -1.043,-1.33 -1.445,-1.735c-0.193,-0.205 -0.375,-0.356 -0.485,-0.464c-0.114,-0.107 -0.175,-0.164 -0.175,-0.164c0,0 0.064,0.056 0.186,0.16c0.117,0.106 0.31,0.254 0.517,0.456c0.43,0.398 0.991,0.984 1.567,1.713c1.09,1.365 2.131,3.24 2.905,5.181c0.561,0.441 1.118,0.943 1.666,1.456c-0.074,-0.357 -0.155,-0.716 -0.243,-1.074c-0.548,-2.204 -1.286,-4.395 -2.31,-5.968c-0.499,-0.789 -1.064,-1.416 -1.498,-1.842c-0.223,-0.212 -0.402,-0.377 -0.535,-0.486c-0.13,-0.11 -0.199,-0.169 -0.199,-0.169c0,0 0.073,0.058 0.21,0.165c0.14,0.106 0.33,0.268 0.567,0.476c0.463,0.419 1.073,1.039 1.628,1.824c1.137,1.568 2.025,3.759 2.723,5.968c0.204,0.651 0.384,1.304 0.545,1.946c0.259,0.245 0.514,0.487 0.766,0.718c-0.026,-0.214 -0.055,-0.428 -0.086,-0.642c-0.12,-0.875 -0.301,-1.744 -0.54,-2.553c-0.064,-0.203 -0.127,-0.401 -0.188,-0.596c-0.063,-0.194 -0.15,-0.381 -0.22,-0.565c-0.135,-0.369 -0.315,-0.712 -0.478,-1.028c-0.146,-0.32 -0.348,-0.601 -0.503,-0.855c-0.081,-0.127 -0.152,-0.246 -0.226,-0.354c-0.083,-0.107 -0.159,-0.205 -0.227,-0.294c-0.275,-0.355 -0.431,-0.557 -0.431,-0.557c0,0 0.173,0.198 0.477,0.547c0.076,0.087 0.161,0.184 0.252,0.289c0.084,0.107 0.165,0.225 0.257,0.35c0.177,0.251 0.404,0.53 0.577,0.848c0.191,0.314 0.402,0.656 0.568,1.024c0.087,0.184 0.191,0.372 0.271,0.567c0.078,0.195 0.158,0.394 0.24,0.596c0.31,0.812 0.566,1.686 0.761,2.565c0.104,0.453 0.197,0.906 0.284,1.353c0.252,0.211 0.5,0.405 0.741,0.575l-0.587,-2.606c-0.442,-1.956 -0.88,-3.898 -1.191,-5.278c-0.073,-0.104 -0.145,-0.205 -0.215,-0.305c-0.99,-1.397 -1.646,-2.324 -1.646,-2.324l1.772,2.233l-0.355,-1.571l0.566,1.838c0.506,0.64 1.078,1.371 1.63,2.164c0.613,0.882 1.181,1.845 1.625,2.826c0.448,0.981 0.78,1.977 1.042,2.917c0.047,0.161 0.091,0.321 0.132,0.48c0.124,-0.092 0.247,-0.198 0.37,-0.319c-0.079,-0.689 -0.19,-1.403 -0.337,-2.115c-0.18,-0.903 -0.414,-1.801 -0.648,-2.641c-0.241,-0.84 -0.47,-1.621 -0.766,-2.279c-0.289,-0.659 -0.634,-1.196 -0.93,-1.559c-0.144,-0.183 -0.273,-0.323 -0.363,-0.417c-0.091,-0.095 -0.14,-0.145 -0.14,-0.145c0,0 0.053,0.049 0.151,0.141c0.098,0.093 0.238,0.23 0.398,0.41c0.326,0.358 0.717,0.89 1.063,1.548c0.353,0.658 0.646,1.439 0.956,2.275c0.304,0.838 0.612,1.736 0.867,2.641c0.137,0.473 0.258,0.949 0.363,1.418c0.318,-0.433 0.63,-0.948 0.931,-1.52c-0.374,-1.518 -1.014,-2.985 -1.57,-4.101c-0.315,-0.619 -0.58,-1.134 -0.781,-1.492c-0.196,-0.359 -0.307,-0.564 -0.307,-0.564c0,0 0.132,0.202 0.363,0.555c0.238,0.352 0.554,0.86 0.932,1.472c0.566,0.933 1.221,2.119 1.734,3.391c0.23,-0.48 0.453,-0.989 0.668,-1.513c-0.052,-0.172 -0.107,-0.344 -0.164,-0.516c-0.19,-0.605 -0.419,-1.205 -0.672,-1.792c-0.262,-0.585 -0.567,-1.155 -0.913,-1.698c-0.697,-1.085 -1.586,-2.052 -2.344,-2.879c-1.13,-1.212 -1.932,-2.136 -2.278,-2.542Zm-24.316,0l-5.915,0c0,0 0.996,3.175 2.083,6.15c0.286,0.518 0.563,1.045 0.825,1.575c0.598,1.203 1.126,2.421 1.564,3.586c0.208,0.241 0.447,0.477 0.715,0.703c-0.069,-0.319 -0.146,-0.639 -0.229,-0.958c-0.226,-0.892 -0.507,-1.777 -0.784,-2.603c-0.285,-0.826 -0.554,-1.593 -0.883,-2.235c-0.324,-0.643 -0.697,-1.161 -1.011,-1.508c-0.154,-0.175 -0.289,-0.308 -0.384,-0.397c-0.096,-0.09 -0.147,-0.138 -0.147,-0.138c0,0 0.055,0.047 0.158,0.134c0.103,0.087 0.25,0.217 0.418,0.388c0.345,0.34 0.763,0.851 1.143,1.49c0.386,0.638 0.72,1.402 1.073,2.221c0.347,0.82 0.701,1.7 1.003,2.591c0.19,0.549 0.359,1.103 0.505,1.648c0.281,0.179 0.581,0.349 0.896,0.506c-0.106,-0.833 -0.246,-1.702 -0.473,-2.561c-0.486,-2.02 -1.332,-3.995 -2.086,-5.452c-0.383,-0.727 -0.72,-1.33 -0.983,-1.747c-0.255,-0.418 -0.401,-0.656 -0.401,-0.656c0,0 0.166,0.234 0.458,0.645c0.298,0.409 0.687,1.003 1.134,1.721c0.88,1.439 1.901,3.399 2.565,5.424c0.355,1.009 0.59,2.036 0.787,3.006l0.008,0.055c0.248,0.092 0.502,0.176 0.762,0.252c-0.068,-0.787 -0.21,-1.635 -0.428,-2.515c-0.328,-1.29 -0.818,-2.647 -1.422,-3.985c-0.903,-2.042 -2.095,-4.029 -3.263,-5.691l0.138,-0.205c1.296,1.676 2.649,3.708 3.699,5.809c0.68,1.336 1.248,2.697 1.651,3.999c0.298,0.99 0.501,1.946 0.604,2.823c0.119,0.023 0.239,0.044 0.36,0.063c-0.08,-1.791 -0.345,-3.924 -0.893,-6.027c-0.612,-2.527 -1.649,-4.998 -2.566,-6.822c-0.217,-0.459 -0.459,-0.871 -0.655,-1.24l-0.026,-0.049Zm9.952,0l-2.623,0l0.16,0.239c0.242,0.377 0.515,0.803 0.813,1.268c1.174,1.862 2.586,4.386 3.45,6.973c0.355,1.024 0.625,2.055 0.841,3.048c0.318,-0.305 0.627,-0.638 0.926,-1.002c-0.034,-0.142 -0.071,-0.284 -0.11,-0.425c-0.574,-2.159 -1.707,-4.269 -2.66,-5.824c-0.486,-0.777 -0.896,-1.423 -1.204,-1.871c-0.301,-0.449 -0.473,-0.705 -0.473,-0.705c0,0 0.191,0.252 0.525,0.695c0.342,0.442 0.799,1.079 1.344,1.848c1.044,1.501 2.306,3.533 3.059,5.657c0.029,-0.039 0.057,-0.079 0.085,-0.119c0.066,-0.093 0.132,-0.182 0.199,-0.267c-0.11,-0.387 -0.228,-0.776 -0.357,-1.163c-0.785,-2.509 -1.991,-4.968 -3.032,-6.786c-0.248,-0.456 -0.518,-0.867 -0.74,-1.235c-0.069,-0.115 -0.137,-0.226 -0.203,-0.331Zm14.381,0c0.371,0.401 1.226,1.31 2.424,2.498c0.806,0.814 1.758,1.77 2.532,2.86c0.383,0.544 0.727,1.117 1.028,1.707c0.252,0.508 0.486,1.028 0.692,1.551c0.159,-0.414 0.313,-0.833 0.461,-1.253c-0.486,-1.391 -1.083,-2.686 -1.616,-3.738c-0.415,-0.797 -0.769,-1.458 -1.038,-1.918c-0.262,-0.46 -0.412,-0.723 -0.412,-0.723c0,0 0.168,0.26 0.461,0.715c0.3,0.454 0.698,1.109 1.167,1.899c0.525,0.907 1.112,1.999 1.64,3.184c0.157,-0.463 0.308,-0.923 0.45,-1.372c-0.173,-0.413 -0.325,-0.764 -0.451,-1.034c-0.179,-0.395 -0.281,-0.621 -0.281,-0.621c0,0 0.12,0.223 0.33,0.615c0.129,0.233 0.282,0.527 0.455,0.87c0.893,-2.848 1.449,-5.24 1.449,-5.24l-9.291,0Z" style="fill:#1b1b1a;fill-rule:nonzero;"/><path id="Inner-Outline" serif:id="Inner Outline" d="M59,32c0,-14.902 -12.098,-27 -27,-27c-14.902,0 -27,12.098 -27,27c0,14.902 12.098,27 27,27c14.902,0 27,-12.098 27,-27Z" style="fill:none;stroke:#fff;stroke-width:3px;"/><path id="Outline" d="M61.409,31.99c0,-16.178 -13.135,-29.313 -29.313,-29.313c-16.179,0 -29.314,13.135 -29.314,29.313c0,16.179 13.135,29.313 29.314,29.313c16.178,0 29.313,-13.134 29.313,-29.313Z" style="fill:none;stroke:#000;stroke-width:3px;"/></g></g></g></svg>