<?xml version="1.0" encoding="UTF-8" standalone="no"?><!DOCTYPE svg PUBLIC "-//W3C//DTD SVG 1.1//EN" "http://www.w3.org/Graphics/SVG/1.1/DTD/svg11.dtd"><svg width="100%" height="100%" viewBox="0 0 64 64" version="1.1" xmlns="http://www.w3.org/2000/svg" xmlns:xlink="http://www.w3.org/1999/xlink" xml:space="preserve" xmlns:serif="http://www.serif.com/" style="fill-rule:evenodd;clip-rule:evenodd;stroke-miterlimit:10;"><g id="Species"><g id="Mammals"><g id="deer"><path id="Outline" d="M61.126,31.687c0,-16.179 -13.135,-29.313 -29.313,-29.313c-16.178,0 -29.313,13.134 -29.313,29.313c0,16.178 13.135,29.313 29.313,29.313c16.178,0 29.313,-13.135 29.313,-29.313Z" style="fill:none;stroke:#000;stroke-width:3px;"/><path d="M42.758,17.556l-1.38,-3.084c0,0 -0.661,-1.838 -0.394,-3.318c0.191,-1.064 0.629,-1.812 1.085,-2.431c0.457,-0.618 1.334,-1.707 1.534,-1.502c0.201,0.206 -0.749,1.354 -1.118,1.917c-0.367,0.562 -0.926,1.836 -0.742,1.857c0.185,0.021 1.15,-0.405 1.508,-0.832c0.456,-0.543 1.009,-1.133 1.655,-1.536c0.646,-0.403 0.621,-0.374 1.331,-0.602c0.709,-0.227 1.852,-0.328 1.963,-0.253c0.334,0.226 -1.732,0.802 -2.483,1.185c-0.751,0.382 -2.029,1.603 -1.895,1.958c0.047,0.124 0.306,0.209 0.659,0.279c0.373,-0.7 0.841,-1.177 1.301,-1.567c0.538,-0.455 1.549,-1.242 1.684,-1.016c0.136,0.225 -0.954,1.049 -1.4,1.473c-0.307,0.292 -0.766,0.864 -0.97,1.212c0.284,0.042 0.583,0.084 0.861,0.133c0.22,-0.071 0.431,-0.162 0.575,-0.27c0.521,-0.388 1.138,-0.798 1.799,-1.021c0.661,-0.223 0.633,-0.202 1.314,-0.256c0.68,-0.053 1.72,0.097 1.803,0.188c0.25,0.272 -1.713,0.35 -2.463,0.533c-0.615,0.15 -1.663,0.727 -1.997,1.12c0.953,0.412 2.533,1.343 2.444,1.502c-0.005,0.009 -0.012,0.016 -0.02,0.023c0.747,0.523 2.105,1.813 1.986,1.943c-0.126,0.138 -0.761,-0.298 -1.189,-0.611c-0.417,-0.306 -0.786,-0.712 -1.807,-1.167c-1.086,-0.485 -2.307,-0.805 -2.602,-0.79c-0.498,0.025 -0.856,0.145 -1.028,0.458c-0.18,0.327 0.151,2.194 0.295,2.256c0.301,0.129 1.228,-1.764 1.501,-1.624c0.274,0.14 -1.008,1.975 -1.094,2.402c-0.086,0.427 0.236,1.982 0.236,1.982c0,0 0.121,0.4 0.166,0.594c0.006,0.023 0.006,0.048 0.002,0.072c0.122,0.034 0.266,0.062 0.434,0.079c0,0 1.121,-0.194 1.243,0.698c0,0 1.706,0.686 2.712,1.158l1.569,0.458c0,0 1.369,0.397 0.169,1.487c0,0 -0.007,1.028 -1.375,0.664c0,0 -1.574,0.636 -3.161,0.774c0,0 -0.6,-0.151 -0.317,1.897c0,0 -0.378,4.781 -2.434,7.416c0,0 -1.831,2.298 -4.122,3.448c0,0 -0.234,1.233 -2.367,2.047c0,0 -0.135,1.23 -0.222,4.413l-0.036,2.551c0,0 0.29,1.021 -0.016,1.989c0,0 -0.115,0.765 0.15,2.051c0,0 0.023,2.286 0.542,3.167c0,0 0.281,0.656 1.255,1.162c0,0 0.753,0.975 1.018,0.935c0,0 0.007,0.299 -0.294,0.173c0,0 0.014,0.563 -1.856,0.013c0,0 0.045,-0.863 -0.391,-1.051l-0.664,-0.083c0,0 -0.425,0.244 -0.121,-0.891l-0.8,-5.48c0,0 -0.505,-0.352 -0.348,-2.046l-0.386,-2.177c0,0 -0.374,2.295 -0.216,3.319c0,0 -0.076,0.93 -0.484,1.834c0,0 -0.141,3.681 0.139,4.271l0.02,0.795c0,0 0.479,0.651 0.881,0.806l0.377,0.487c0,0 1.515,0.957 0.485,0.85c0,0 0.018,0.728 -1.994,-0.249c0,0 0.174,-0.998 -0.462,-1.247c0,0 -0.588,0.346 -0.544,-0.55l-0.009,-5.699c0,0 -0.335,-1.483 -0.123,-2.316c0,0 -0.425,-5.059 -0.78,-6.011c0,0 -0.572,-0.383 -5.494,0.236c0,0 -2.834,0.634 -4.276,-0.092l-0.28,0.736c0,0 -0.922,0.222 -1.706,-0.653l-1.317,-0.961c0,0 -0.988,1.548 -1.683,2.924c0,0 -0.797,2.57 -1.548,3.02c0,0 -0.309,0.903 -0.135,1.262c0,0 -0.661,1.375 0.541,3.102c0,0 1.814,3.665 2.389,4.115c0,0 0.818,0.907 1.653,1.217c0,0 1.146,0.734 1.314,0.862c0,0 0.206,0.294 -0.125,0.302c0,0 -1.013,0.556 -2.289,-0.142c0,0 -0.327,-1.151 -0.858,-1.204c0,0 0.327,1.184 -0.736,-0.248c0,0 -2.657,-5.599 -3.302,-6.212c0,0 -0.582,-0.748 -0.591,-1.112c0,0 -1.452,-1.124 -0.356,-2.344c0,0 1.197,-3.807 1.06,-4.002c0,0 -1.657,1.301 -2.661,2.253c0,0 -1.257,1.423 -2.342,1.781c0,0 -0.434,1.17 -1.152,1.619c0,0 -0.533,1.206 -0.476,2.166l-0.097,1.157c-0.346,-0.455 -0.653,-0.883 -0.92,-1.276l0.055,-1.282l0.026,-2.95c0,0 -0.299,-0.025 0.905,-0.884c0,0 3.74,-1.485 2.739,-5.767l-0.362,-2.575c0,0 -0.511,0.741 -0.572,-0.317c0,0 -1.491,-2.713 -0.763,-4.09c0,0 0.644,-2.07 4.631,-2.931c0,0 2.82,-1.23 5.875,-0.909l7.569,0.575c0,0 3.007,-0.341 4.629,-0.414c0,0 2.895,0.525 3.457,0.444c0,0 2.35,-0.058 4.508,-2.563c0,0 1.504,-3.484 1.444,-4.543c0,0 0.096,-0.134 -0.803,-0.311c0,0 -0.985,0.249 -1.649,-1.159c0,0 -0.648,-0.64 -0.811,-1.861c0,0 -0.039,-0.261 0.233,-0.267c0.213,-0.006 0.613,0.143 1.368,0.691c0,0 0.964,0.141 1.371,0.529c0.992,1.52 1.344,1.176 1.428,1.036c-0.085,0.14 -0.436,0.483 -1.428,-1.036l-0.364,-0.794l0.21,-0.097l0.423,0.512c0.017,0.003 0.239,0.041 0.559,0.095c-0.32,-0.054 -0.541,-0.092 -0.558,-0.095l-0.424,-0.512c0,0 0.888,0.405 1.099,0.62Zm2.138,2.578c-0.007,0.023 -0.01,0.047 -0.01,0.071c0.001,0.024 0.005,0.047 0.013,0.069c-0.008,-0.022 -0.012,-0.045 -0.013,-0.068c0,-0.025 0.003,-0.049 0.01,-0.072Zm0.931,-0.334c-0.07,-0.01 -0.144,-0.015 -0.221,-0.013c-0.089,0.002 -0.175,0.013 -0.254,0.032c0.079,-0.019 0.165,-0.03 0.254,-0.032c0.077,-0.002 0.151,0.003 0.221,0.013Zm-3.008,-1.466c0.063,0.034 0.15,0.055 0.268,0.058l0,-0.001c-0.118,-0.002 -0.205,-0.023 -0.268,-0.057Zm1.104,-4.793c-0.17,0.732 -0.563,1.837 -0.553,2.152c0.016,0.475 0.748,2.047 0.748,2.047c0,0 0.013,0.022 0.034,0.059c0.15,0.025 0.294,0.05 0.427,0.072l-0.623,-3.265c0,0 -0.052,-0.453 -0.033,-1.065Zm0.259,-1.657c-0.648,-0.044 -1.166,-0.033 -1.342,0.018c-0.523,0.151 -0.873,0.369 -0.977,0.744c-0.109,0.392 0.711,2.294 0.879,2.323c0.353,0.062 0.862,-2.182 1.188,-2.102c0.017,0.004 0.03,0.014 0.04,0.029c0.04,-0.334 0.105,-0.683 0.212,-1.012Z" style="fill:#1b1b1a;fill-rule:nonzero;"/></g></g></g></svg>