<?xml version="1.0" encoding="UTF-8" standalone="no"?><!DOCTYPE svg PUBLIC "-//W3C//DTD SVG 1.1//EN" "http://www.w3.org/Graphics/SVG/1.1/DTD/svg11.dtd"><svg width="100%" height="100%" viewBox="0 0 64 64" version="1.1" xmlns="http://www.w3.org/2000/svg" xmlns:xlink="http://www.w3.org/1999/xlink" xml:space="preserve" xmlns:serif="http://www.serif.com/" style="fill-rule:evenodd;clip-rule:evenodd;stroke-miterlimit:10;"><g id="Species"><g id="Reptiles"><g id="crocodilian"><path id="Outline" d="M138.626,31.687c0,-16.179 -13.135,-29.313 -29.313,-29.313c-16.178,0 -29.313,13.134 -29.313,29.313c0,16.178 13.135,29.313 29.313,29.313c16.178,0 29.313,-13.135 29.313,-29.313Z" style="fill:none;stroke:#000;stroke-width:3px;"/></g><g id="lizard"><path id="Outline1" serif:id="Outline" d="M58.626,31.687c0,-16.179 -13.135,-29.313 -29.313,-29.313c-16.178,0 -29.313,13.134 -29.313,29.313c0,16.178 13.135,29.313 29.313,29.313c16.178,0 29.313,-13.135 29.313,-29.313Z" style="fill:none;stroke:#000;stroke-width:3px;"/><path d="M39.263,33.605c0,0 0.956,0.184 2.022,-0.809c0.883,-0.625 2.648,-1.545 4.634,-1.177c0.478,-0.625 0.736,-0.772 0.993,-0.772c0.221,-0.184 0.735,-0.442 0.956,-0.405c0.221,0.037 0.883,0.147 1.066,0.552c0.295,0.147 0.663,0.551 0.699,0.699c0.368,0.073 2.133,0.331 2.759,0.514c0.625,0.184 1.581,0.331 1.802,0.515c0.22,0.184 0.992,0.552 0.662,1.471c-0.331,0.92 -2.207,2.685 -6.032,4.193c-0.698,0.404 -1.655,0.625 -2.316,1.066c-0.662,0.442 -2.244,0.846 -2.244,0.846c-0.368,0.037 -0.809,0.147 -1.434,-0.184c-0.552,0.111 -1.618,0.368 -2.538,-0.184c-0.662,0.074 -1.029,0.221 -1.287,0.331c-0.257,0.111 -0.956,1.361 -5.516,0.92c-0.073,0.294 0.11,1.287 0.699,2.28c0.184,-0.442 0.294,-0.699 0.404,-0.699c0,-0.257 0.221,-0.662 0.405,-0.294c-0.184,0.037 -0.295,0.11 -0.258,0.331c0.295,-0.074 0.699,0.11 0.258,0.882c0.441,-0.183 1.397,-0.772 1.581,-0.698c0.404,-0.258 0.772,-0.294 0.846,0.147c-0.258,-0.111 -0.258,-0.221 -0.405,-0.037c0.147,0.368 -0.183,0.846 -0.882,1.103c-0.331,0.111 -1.103,0.405 -1.214,0.662c-0.11,0.258 0.074,0.478 0.405,0.625c0.331,0.148 1.176,0.294 0.993,1.067c0.183,0.331 0.11,0.404 0.036,0.551c0,-0.183 -0.073,-0.367 -0.22,-0.367c-0.147,0.184 -0.92,0.11 -1.214,-0.441c-0.257,-0.258 -0.919,-0.957 -1.103,-0.295c-0.184,0.662 -0.074,0.993 0,1.287c0.074,0.295 0.074,1.104 -0.478,1.14c0,0.184 -0.147,0.258 0,0.442c-0.221,-0.11 -0.405,-0.258 -0.368,-0.552c-0.147,0 -0.184,-0.625 -0.074,-1.03c0.111,-0.404 0.148,-0.992 0,-1.103c-0.147,-0.11 -0.404,0.184 -0.551,0.294c-0.147,0.111 -1.508,1.471 -1.765,0.773c-0.148,0.073 -0.368,0.11 -0.295,0.404c-0.183,-0.073 -0.147,-0.809 0.221,-0.772c0.184,-0.368 0.809,-0.883 1.471,-1.14c0.221,-0.294 0.294,-0.699 0.478,-0.736c-0.22,-0.257 -0.735,-1.912 -1.213,-2.574c-0.479,-0.662 -1.104,-2.023 -1.067,-2.39c-0.257,-0.037 -1.839,-0.111 -3.347,0.036c-1.507,0.148 -4.56,0.258 -7.355,-3.934c-0.735,0.146 -4.192,2.39 -5.884,2.794c-0.331,0.405 -0.956,0.626 -1.912,0.184c-0.257,-0.036 -0.772,-0.073 -1.324,-0.514c-0.037,0.183 -0.147,0.33 0.037,0.367c0.184,0.037 0.331,0.037 0.331,0.037c0,0 -0.184,0.257 -0.441,0.074c0,0.073 -0.037,0.183 -0.332,0.036c0.295,0.331 0.295,0.993 -0.036,0.956c0,0.184 -0.111,0.368 0.073,0.405c-0.257,0 -0.404,-0.074 -0.441,-0.257c-0.184,0.036 -0.625,-0.221 -0.882,-0.626c-0.184,-0.184 -0.552,-0.404 -0.552,0.074c0,0.478 0.037,1.618 -0.662,1.434c-0.294,0.037 -0.515,0.257 -0.331,0.552c-0.184,0.073 -0.441,-0.736 -0.037,-0.773c-0.184,-0.147 -0.184,-0.367 0.037,-0.698c0.22,-0.331 0.478,-0.92 0.515,-1.361c0.036,-0.441 -0.111,-0.368 -0.442,-0.22c-0.33,0.147 -2.794,2.243 -2.427,0.735c-0.221,0 -0.478,0.073 -0.515,0.404c-0.147,0 -0.11,-0.698 0.552,-0.698c0.404,-0.074 2.023,-0.736 2.611,-1.398c0.588,-0.662 0.956,-0.735 0.883,-1.655c-0.295,-0.073 -0.552,-0.625 -0.147,-1.14c-0.148,-0.147 -0.552,-0.956 -0.074,-0.919c-0.074,0.147 -0.147,0.441 0.184,0.625c0.257,-0.11 0.809,-0.11 0.809,0.552c-0.037,0.441 -0.074,0.919 -0.074,0.919c0.846,-0.294 1.986,0.331 2.501,0.92c0.662,-0.295 2.427,-1.472 3.016,-2.097c0.588,-0.625 1.029,-0.956 1.508,-1.25c-0.074,-0.368 -0.957,-0.993 -2.281,-1.765c-1.324,-0.773 -5.111,-6.215 -1.802,-11.695c3.31,-5.48 8.091,-8.348 12.945,-7.943c4.855,0.404 6.51,4.339 6.215,5.773c-0.073,0.442 -0.404,0.515 -0.367,-0.147c0.036,-0.662 -1.913,-5.295 -6.657,-4.56c-4.744,0.735 -8.274,3.567 -9.819,7.502c-1.544,3.935 0.552,9.121 5.517,8.863c0.625,-0.588 1.213,-1.361 1.802,-1.875c0.588,-0.515 0.846,-0.993 1.029,-1.508c-0.367,-0.037 -1.544,-0.515 -1.507,-1.03c-0.368,0 -2.391,0.331 -1.545,-0.772c-0.184,-0.147 -0.589,-0.331 -0.699,-0.184c0.037,-0.294 0.331,-0.405 0.92,0c0.22,-0.11 0.662,-0.074 0.956,0.11c0.294,0.184 0.331,0 0.588,-0.073c0.258,-0.074 0.589,0 0.809,-0.111c0.221,-0.11 0.699,-0.551 0.957,-0.625c0.257,-0.073 1.066,-0.809 1.25,-1.287c0.184,-0.478 0.22,-0.772 0.331,-0.809c0.184,-0.478 0.551,-1.177 0.956,-0.736c-0.221,0.074 -0.699,0.221 -0.589,0.589c0.258,0.037 0.736,0.368 0.295,0.846c-0.442,0.478 -1.251,1.324 -1.361,1.434c-0.11,0.11 -0.074,0.405 0.257,0.294c0.331,-0.11 0.736,-0.11 0.993,0c0.258,0.111 0.479,0.147 0.589,0.037c0.11,-0.11 0.809,-0.552 1.213,0c-0.294,-0.074 -0.294,-0.11 -0.478,0c0.258,0.294 0.074,1.03 -0.698,0.956c0.073,0.147 0.147,0.258 0.147,0.258c0,0 0.441,0 0.294,0.514c-0.11,-0.22 -0.478,-0.331 -0.478,-0.331c0,0 0.073,0.221 -0.037,0.331c0.074,0.221 0.037,0.92 -0.368,1.104c-0.11,0.257 -1.25,3.162 -1.949,3.861c0.662,-0.147 2.795,-0.037 3.825,0.184c1.03,0.221 3.935,1.361 5.737,1.692c1.802,0.331 3.236,0.993 3.493,1.066c-0.367,-0.478 -1.14,-1.508 -1.581,-1.802c-0.441,-0.294 -0.551,-0.809 -0.441,-1.066c0.11,-0.258 0.441,-0.662 1.14,-0.442c0.846,0.074 2.243,0.147 2.574,0.479c0.478,-0.148 1.434,-0.479 1.692,-0.736c0.257,-0.258 0.478,-0.294 0.478,-0.294c0.11,-0.221 0.552,-0.625 0.883,-0.221c-0.074,0.11 -0.442,-0.11 -0.552,0.221c0.257,0.11 0.331,0.514 0,0.772c-0.331,0.258 -1.03,0.625 -1.214,0.662c-0.184,0.037 -0.367,0.257 -0.073,0.22c0.294,-0.036 0.809,-0.11 1.066,-0.367c0.258,-0.257 0.662,-0.662 1.03,-0.441c0.441,-0.184 0.772,-0.111 0.846,0.147c-0.258,-0.037 -0.442,-0.184 -0.625,0.037c0.147,0.183 0.073,0.624 -0.405,0.772c-0.478,0.147 -2.17,0.478 -2.28,1.066c-0.11,0.589 -0.11,0.883 0.221,1.03" style="fill:#1b1b1a;fill-rule:nonzero;"/></g></g></g></svg>