<?xml version="1.0" encoding="UTF-8" standalone="no"?><!DOCTYPE svg PUBLIC "-//W3C//DTD SVG 1.1//EN" "http://www.w3.org/Graphics/SVG/1.1/DTD/svg11.dtd"><svg width="100%" height="100%" viewBox="0 0 64 64" version="1.1" xmlns="http://www.w3.org/2000/svg" xmlns:xlink="http://www.w3.org/1999/xlink" xml:space="preserve" xmlns:serif="http://www.serif.com/" style="fill-rule:evenodd;clip-rule:evenodd;stroke-miterlimit:10;"><g id="Species"><g id="Reptiles"><g id="lizard"><path id="Outline" d="M61.409,32.047c0,-16.178 -13.135,-29.313 -29.313,-29.313c-16.179,0 -29.314,13.135 -29.314,29.313c0,16.178 13.135,29.313 29.314,29.313c16.178,0 29.313,-13.135 29.313,-29.313Z" style="fill:none;stroke:#000;stroke-width:3px;"/><path d="M42.045,33.965c0,0 0.956,0.184 2.023,-0.809c0.882,-0.625 2.648,-1.545 4.634,-1.177c0.478,-0.625 0.735,-0.772 0.992,-0.772c0.221,-0.184 0.736,-0.441 0.957,-0.404c0.22,0.036 0.882,0.146 1.066,0.551c0.294,0.147 0.662,0.552 0.699,0.699c0.368,0.074 2.133,0.331 2.758,0.515c0.625,0.183 1.581,0.331 1.802,0.515c0.221,0.183 0.993,0.551 0.662,1.47c-0.331,0.92 -2.207,2.685 -6.031,4.193c-0.699,0.405 -1.655,0.625 -2.317,1.066c-0.662,0.442 -2.243,0.846 -2.243,0.846c-0.368,0.037 -0.809,0.147 -1.435,-0.183c-0.551,0.11 -1.618,0.367 -2.537,-0.184c-0.662,0.073 -1.03,0.22 -1.287,0.33c-0.258,0.111 -0.956,1.361 -5.516,0.92c-0.074,0.294 0.11,1.287 0.698,2.28c0.184,-0.441 0.294,-0.699 0.404,-0.699c0,-0.257 0.221,-0.662 0.405,-0.294c-0.184,0.037 -0.294,0.11 -0.257,0.331c0.294,-0.074 0.698,0.11 0.257,0.883c0.441,-0.184 1.398,-0.773 1.581,-0.699c0.405,-0.258 0.773,-0.294 0.846,0.147c-0.257,-0.11 -0.257,-0.221 -0.404,-0.037c0.147,0.368 -0.184,0.846 -0.883,1.104c-0.331,0.11 -1.103,0.404 -1.213,0.662c-0.111,0.257 0.073,0.478 0.404,0.625c0.331,0.147 1.177,0.294 0.993,1.066c0.184,0.331 0.11,0.405 0.037,0.552c0,-0.184 -0.074,-0.368 -0.221,-0.368c-0.147,0.184 -0.919,0.11 -1.213,-0.441c-0.258,-0.258 -0.92,-0.956 -1.104,-0.294c-0.184,0.661 -0.073,0.992 0,1.287c0.074,0.294 0.074,1.103 -0.478,1.139c0,0.185 -0.147,0.258 0,0.442c-0.22,-0.11 -0.404,-0.257 -0.368,-0.552c-0.147,0 -0.183,-0.625 -0.073,-1.029c0.11,-0.405 0.147,-0.993 0,-1.104c-0.147,-0.11 -0.405,0.184 -0.552,0.295c-0.147,0.11 -1.507,1.47 -1.765,0.772c-0.147,0.074 -0.368,0.11 -0.294,0.404c-0.184,-0.073 -0.147,-0.809 0.22,-0.772c0.184,-0.368 0.81,-0.882 1.472,-1.14c0.22,-0.294 0.294,-0.699 0.478,-0.735c-0.221,-0.258 -0.736,-1.913 -1.214,-2.575c-0.478,-0.662 -1.103,-2.022 -1.066,-2.39c-0.258,-0.037 -1.839,-0.11 -3.347,0.036c-1.508,0.148 -4.56,0.258 -7.355,-3.934c-0.736,0.147 -4.192,2.39 -5.884,2.794c-0.331,0.405 -0.956,0.626 -1.913,0.184c-0.257,-0.036 -0.772,-0.073 -1.323,-0.514c-0.037,0.184 -0.148,0.33 0.036,0.367c0.184,0.037 0.331,0.037 0.331,0.037c0,0 -0.184,0.257 -0.441,0.074c0,0.073 -0.037,0.183 -0.331,0.036c0.294,0.331 0.294,0.994 -0.037,0.956c0,0.184 -0.11,0.368 0.074,0.405c-0.258,0 -0.405,-0.073 -0.442,-0.257c-0.183,0.036 -0.625,-0.221 -0.882,-0.626c-0.184,-0.183 -0.552,-0.404 -0.552,0.074c0,0.478 0.037,1.618 -0.662,1.434c-0.294,0.037 -0.515,0.258 -0.331,0.552c-0.184,0.074 -0.441,-0.735 -0.037,-0.772c-0.183,-0.148 -0.183,-0.368 0.037,-0.699c0.221,-0.331 0.478,-0.92 0.515,-1.361c0.037,-0.441 -0.11,-0.367 -0.441,-0.22c-0.331,0.147 -2.795,2.243 -2.427,0.735c-0.221,0 -0.478,0.074 -0.515,0.405c-0.147,0 -0.111,-0.699 0.551,-0.699c0.405,-0.074 2.023,-0.735 2.612,-1.397c0.588,-0.662 0.956,-0.736 0.882,-1.655c-0.294,-0.074 -0.552,-0.626 -0.147,-1.141c-0.147,-0.146 -0.552,-0.956 -0.073,-0.919c-0.074,0.147 -0.148,0.441 0.183,0.625c0.258,-0.11 0.809,-0.11 0.809,0.552c-0.036,0.441 -0.073,0.919 -0.073,0.919c0.846,-0.294 1.986,0.331 2.501,0.92c0.662,-0.295 2.427,-1.471 3.015,-2.097c0.589,-0.625 1.03,-0.956 1.508,-1.25c-0.074,-0.368 -0.956,-0.993 -2.28,-1.765c-1.324,-0.772 -5.112,-6.215 -1.802,-11.695c3.31,-5.479 8.091,-8.348 12.945,-7.943c4.854,0.404 6.509,4.339 6.215,5.774c-0.073,0.441 -0.405,0.514 -0.368,-0.148c0.037,-0.661 -1.912,-5.295 -6.656,-4.56c-4.744,0.736 -8.275,3.567 -9.819,7.503c-1.545,3.934 0.551,9.12 5.516,8.862c0.625,-0.588 1.214,-1.36 1.802,-1.875c0.588,-0.515 0.846,-0.993 1.03,-1.508c-0.368,-0.037 -1.545,-0.515 -1.508,-1.03c-0.368,0 -2.39,0.331 -1.545,-0.772c-0.183,-0.147 -0.588,-0.331 -0.698,-0.184c0.036,-0.294 0.331,-0.404 0.919,0c0.221,-0.11 0.662,-0.073 0.956,0.11c0.294,0.184 0.331,0 0.589,-0.073c0.257,-0.074 0.588,0 0.809,-0.11c0.22,-0.111 0.698,-0.552 0.956,-0.626c0.257,-0.073 1.066,-0.809 1.25,-1.287c0.184,-0.478 0.221,-0.772 0.331,-0.809c0.184,-0.478 0.552,-1.177 0.957,-0.735c-0.221,0.073 -0.699,0.22 -0.589,0.588c0.257,0.037 0.735,0.368 0.294,0.846c-0.441,0.478 -1.25,1.324 -1.361,1.434c-0.11,0.111 -0.073,0.405 0.258,0.295c0.331,-0.111 0.736,-0.111 0.993,0c0.257,0.11 0.478,0.146 0.588,0.036c0.111,-0.11 0.809,-0.551 1.214,0c-0.294,-0.073 -0.294,-0.11 -0.478,0c0.257,0.294 0.073,1.03 -0.699,0.956c0.074,0.147 0.147,0.258 0.147,0.258c0,0 0.441,0 0.294,0.515c-0.11,-0.221 -0.478,-0.331 -0.478,-0.331c0,0 0.074,0.22 -0.037,0.331c0.074,0.22 0.037,0.919 -0.367,1.103c-0.111,0.257 -1.251,3.163 -1.949,3.861c0.662,-0.147 2.795,-0.037 3.824,0.184c1.03,0.221 3.935,1.361 5.737,1.692c1.802,0.331 3.237,0.993 3.494,1.066c-0.368,-0.478 -1.14,-1.507 -1.581,-1.801c-0.442,-0.295 -0.552,-0.81 -0.442,-1.067c0.11,-0.257 0.442,-0.662 1.14,-0.441c0.846,0.073 2.244,0.147 2.575,0.478c0.478,-0.148 1.434,-0.478 1.691,-0.736c0.258,-0.257 0.478,-0.294 0.478,-0.294c0.111,-0.221 0.552,-0.625 0.883,-0.221c-0.074,0.111 -0.441,-0.11 -0.552,0.221c0.258,0.11 0.331,0.515 0,0.772c-0.331,0.258 -1.029,0.626 -1.213,0.662c-0.184,0.037 -0.368,0.258 -0.074,0.221c0.294,-0.037 0.809,-0.111 1.067,-0.368c0.257,-0.257 0.662,-0.662 1.029,-0.441c0.442,-0.184 0.773,-0.11 0.846,0.147c-0.257,-0.037 -0.441,-0.184 -0.625,0.037c0.147,0.183 0.074,0.625 -0.404,0.772c-0.479,0.147 -2.17,0.478 -2.281,1.066c-0.11,0.589 -0.11,0.883 0.221,1.03" style="fill:#1b1b1a;fill-rule:nonzero;"/></g></g></g></svg>