<?xml version="1.0" encoding="UTF-8" standalone="no"?><!DOCTYPE svg PUBLIC "-//W3C//DTD SVG 1.1//EN" "http://www.w3.org/Graphics/SVG/1.1/DTD/svg11.dtd"><svg width="100%" height="100%" viewBox="0 0 64 64" version="1.1" xmlns="http://www.w3.org/2000/svg" xmlns:xlink="http://www.w3.org/1999/xlink" xml:space="preserve" xmlns:serif="http://www.serif.com/" style="fill-rule:evenodd;clip-rule:evenodd;stroke-miterlimit:10;"><g id="Species"><g id="mammal"><path id="Outline" d="M61.409,32.062c0,-16.178 -13.135,-29.313 -29.313,-29.313c-16.179,0 -29.314,13.135 -29.314,29.313c0,16.179 13.135,29.314 29.314,29.314c16.178,0 29.313,-13.135 29.313,-29.314Z" style="fill:none;stroke:#000;stroke-width:3px;"/><path d="M43.04,17.931l-1.379,-3.084c0,0 -0.661,-1.837 -0.395,-3.317c0.192,-1.065 0.629,-1.813 1.086,-2.431c0.457,-0.619 1.333,-1.707 1.534,-1.502c0.2,0.205 -0.75,1.354 -1.118,1.916c-0.368,0.563 -0.927,1.837 -0.742,1.858c0.184,0.021 1.149,-0.406 1.507,-0.832c0.456,-0.543 1.009,-1.134 1.655,-1.537c0.646,-0.402 0.622,-0.374 1.331,-0.601c0.71,-0.227 1.852,-0.329 1.963,-0.254c0.334,0.227 -1.732,0.803 -2.483,1.185c-0.75,0.383 -2.028,1.603 -1.894,1.958c0.047,0.125 0.305,0.209 0.659,0.28c0.373,-0.7 0.84,-1.178 1.301,-1.568c0.537,-0.455 1.548,-1.241 1.684,-1.016c0.135,0.226 -0.954,1.049 -1.401,1.474c-0.307,0.291 -0.765,0.864 -0.969,1.212c0.283,0.042 0.583,0.083 0.861,0.132c0.22,-0.071 0.431,-0.162 0.574,-0.269c0.521,-0.388 1.139,-0.798 1.8,-1.021c0.66,-0.223 0.633,-0.203 1.313,-0.256c0.681,-0.053 1.721,0.097 1.803,0.187c0.251,0.272 -1.712,0.351 -2.462,0.534c-0.615,0.15 -1.664,0.727 -1.998,1.12c0.954,0.411 2.533,1.342 2.444,1.501c-0.005,0.009 -0.011,0.017 -0.02,0.023c0.747,0.524 2.105,1.813 1.987,1.943c-0.127,0.138 -0.762,-0.297 -1.19,-0.611c-0.416,-0.305 -0.785,-0.712 -1.807,-1.167c-1.086,-0.484 -2.307,-0.804 -2.602,-0.789c-0.498,0.024 -0.855,0.145 -1.027,0.457c-0.18,0.327 0.15,2.195 0.294,2.257c0.302,0.129 1.229,-1.765 1.502,-1.624c0.273,0.14 -1.009,1.975 -1.095,2.402c-0.086,0.426 0.236,1.982 0.236,1.982c0,0 0.122,0.4 0.167,0.593c0.005,0.024 0.006,0.048 0.002,0.072c0.122,0.035 0.265,0.062 0.433,0.08c0,0 1.121,-0.194 1.243,0.697c0,0 1.707,0.686 2.713,1.158l1.568,0.458c0,0 1.369,0.398 0.17,1.487c0,0 -0.008,1.028 -1.375,0.665c0,0 -1.575,0.635 -3.162,0.774c0,0 -0.6,-0.151 -0.317,1.896c0,0 -0.378,4.781 -2.433,7.416c0,0 -1.832,2.298 -4.122,3.449c0,0 -0.235,1.232 -2.368,2.047c0,0 -0.135,1.23 -0.222,4.412l-0.036,2.552c0,0 0.291,1.021 -0.016,1.988c0,0 -0.114,0.766 0.15,2.051c0,0 0.023,2.286 0.542,3.167c0,0 0.282,0.657 1.256,1.162c0,0 0.753,0.976 1.017,0.936c0,0 0.008,0.298 -0.294,0.172c0,0 0.014,0.564 -1.855,0.014c0,0 0.045,-0.863 -0.391,-1.051l-0.664,-0.083c0,0 -0.426,0.243 -0.122,-0.892l-0.799,-5.48c0,0 -0.506,-0.352 -0.349,-2.046l-0.385,-2.176c0,0 -0.375,2.295 -0.216,3.319c0,0 -0.076,0.929 -0.485,1.834c0,0 -0.14,3.681 0.14,4.271l0.02,0.794c0,0 0.479,0.651 0.88,0.806l0.377,0.488c0,0 1.515,0.956 0.485,0.85c0,0 0.019,0.728 -1.993,-0.249c0,0 0.173,-0.998 -0.463,-1.248c0,0 -0.588,0.347 -0.544,-0.549l-0.009,-5.699c0,0 -0.335,-1.483 -0.123,-2.316c0,0 -0.424,-5.059 -0.78,-6.011c0,0 -0.572,-0.384 -5.494,0.236c0,0 -2.834,0.634 -4.276,-0.093l-0.28,0.737c0,0 -0.922,0.221 -1.706,-0.654l-1.316,-0.961c0,0 -0.988,1.548 -1.684,2.925c0,0 -0.797,2.57 -1.548,3.02c0,0 -0.308,0.902 -0.134,1.262c0,0 -0.662,1.375 0.541,3.101c0,0 1.813,3.666 2.388,4.116c0,0 0.818,0.907 1.654,1.217c0,0 1.145,0.734 1.313,0.862c0,0 0.206,0.293 -0.124,0.301c0,0 -1.013,0.556 -2.29,-0.141c0,0 -0.327,-1.152 -0.858,-1.205c0,0 0.328,1.185 -0.736,-0.247c0,0 -2.657,-5.6 -3.301,-6.213c0,0 -0.582,-0.748 -0.591,-1.111c0,0 -1.453,-1.124 -0.357,-2.344c0,0 1.198,-3.807 1.061,-4.003c0,0 -1.658,1.301 -2.662,2.253c0,0 -1.257,1.423 -2.341,1.781c0,0 -0.434,1.171 -1.153,1.619c0,0 -0.532,1.206 -0.476,2.166l-0.097,1.157c-0.346,-0.455 -0.652,-0.883 -0.92,-1.276l0.055,-1.281l0.026,-2.95c0,0 -0.299,-0.026 0.906,-0.884c0,0 3.74,-1.485 2.739,-5.767l-0.363,-2.576c0,0 -0.511,0.742 -0.571,-0.317c0,0 -1.492,-2.713 -0.764,-4.09c0,0 0.645,-2.069 4.632,-2.931c0,0 2.819,-1.23 5.875,-0.908l7.568,0.574c0,0 3.008,-0.34 4.629,-0.413c0,0 2.896,0.524 3.457,0.444c0,0 2.35,-0.059 4.509,-2.564c0,0 1.504,-3.483 1.444,-4.542c0,0 0.096,-0.135 -0.803,-0.312c0,0 -0.985,0.25 -1.65,-1.158c0,0 -0.648,-0.64 -0.811,-1.862c0,0 -0.038,-0.26 0.234,-0.267c0.213,-0.005 0.613,0.144 1.367,0.692c0,0 0.965,0.141 1.372,0.528c0.992,1.52 1.343,1.177 1.427,1.036c-0.084,0.141 -0.435,0.484 -1.427,-1.036l-0.365,-0.794l0.21,-0.097l0.424,0.512c0.017,0.004 0.239,0.042 0.558,0.096c-0.319,-0.054 -0.541,-0.092 -0.558,-0.096l-0.423,-0.512c0,0 0.888,0.405 1.098,0.62Zm2.139,2.578c-0.007,0.024 -0.011,0.048 -0.01,0.072c0,0.023 0.005,0.046 0.012,0.068c-0.007,-0.022 -0.012,-0.045 -0.012,-0.068c-0.001,-0.024 0.003,-0.048 0.01,-0.072Zm0.931,-0.333c-0.07,-0.011 -0.144,-0.016 -0.221,-0.014c-0.09,0.003 -0.176,0.014 -0.255,0.032c0.079,-0.018 0.165,-0.029 0.255,-0.032c0.077,-0.001 0.151,0.003 0.221,0.014Zm-3.009,-1.466c0.064,0.034 0.151,0.055 0.268,0.057l0,0c-0.117,-0.002 -0.204,-0.023 -0.268,-0.057Zm1.105,-4.794c-0.171,0.733 -0.564,1.838 -0.553,2.153c0.015,0.475 0.748,2.047 0.748,2.047c0,0 0.013,0.022 0.034,0.058c0.149,0.026 0.293,0.05 0.426,0.072l-0.623,-3.264c0,0 -0.052,-0.454 -0.032,-1.066Zm0.259,-1.657c-0.649,-0.043 -1.167,-0.032 -1.343,0.019c-0.522,0.151 -0.872,0.368 -0.976,0.744c-0.109,0.392 0.71,2.293 0.879,2.323c0.353,0.061 0.862,-2.183 1.187,-2.103c0.017,0.005 0.03,0.014 0.041,0.029c0.039,-0.334 0.105,-0.683 0.212,-1.012Z" style="fill:#1b1b1a;fill-rule:nonzero;"/></g></g></svg>