<?xml version="1.0" encoding="UTF-8" standalone="no"?><!DOCTYPE svg PUBLIC "-//W3C//DTD SVG 1.1//EN" "http://www.w3.org/Graphics/SVG/1.1/DTD/svg11.dtd"><svg width="100%" height="100%" viewBox="0 0 64 64" version="1.1" xmlns="http://www.w3.org/2000/svg" xmlns:xlink="http://www.w3.org/1999/xlink" xml:space="preserve" xmlns:serif="http://www.serif.com/" style="fill-rule:evenodd;clip-rule:evenodd;stroke-miterlimit:10;"><g id="Species"><g id="Mammals"><g id="mouse"><path id="Outline" d="M138.626,31.687c0,-16.179 -13.135,-29.313 -29.313,-29.313c-16.178,0 -29.313,13.134 -29.313,29.313c0,16.178 13.135,29.313 29.313,29.313c16.178,0 29.313,-13.135 29.313,-29.313Z" style="fill:none;stroke:#000;stroke-width:3px;"/></g><g id="squirrel"><path id="Outline1" serif:id="Outline" d="M58.626,31.687c0,-16.179 -13.135,-29.313 -29.313,-29.313c-16.178,0 -29.313,13.134 -29.313,29.313c0,16.178 13.135,29.313 29.313,29.313c16.178,0 29.313,-13.135 29.313,-29.313Z" style="fill:none;stroke:#000;stroke-width:3px;"/><path d="M41.567,50.071c0.487,0.157 0.973,0.269 1.432,0.344c-1.498,0.104 -3.082,0.042 -4.213,-0.039c1.139,-0.186 2.3,-0.46 2.781,-0.305m-16.328,-15.069c0.046,-0.166 0.219,-0.368 0.267,-0.534c-0.251,1.192 -0.334,2.537 -0.195,4.058c0.159,1.734 0.405,3.214 0.715,4.482c-1.074,-2.249 -1.614,-5.06 -0.787,-8.006m28.226,-5.008c0.008,-0.46 -0.91,-0.361 -1.087,-0.778c-0.178,-0.417 -2.031,0.006 -2.476,0.35c-0.952,0.737 -1.756,0.548 -3.444,0.835c-0.295,0.05 -0.543,-0.008 -0.759,-0.135c0.006,-0.355 -0.018,-0.724 -0.076,-1.109c0.789,0.152 4.364,0.323 4.098,-0.26c0.428,0.327 2.382,-0.034 2.447,-0.707c0.366,0.349 1.531,-0.224 1.173,-1.163c-0.229,-0.602 -2.126,-4.752 -3.023,-5.3c-0.419,-0.256 -1.547,-1.473 -3.087,-2.333c0.031,-1.093 0.007,-3.704 -1.462,-4.019c-0.82,-0.177 -1.359,0.603 -1.679,1.537c-0.263,-0.435 -0.578,-0.73 -0.944,-0.708c-0.947,0.056 -2.002,1.846 -1.89,3.258c-0.15,0.102 -0.301,0.211 -0.453,0.332c-2.233,1.776 -2.239,4.344 -3.171,4.996c-0.752,0.526 -9.009,1.392 -11.609,7.95c1.335,-4.352 2.786,-8.603 1.861,-11.82c-1.574,-5.479 -4.999,-6.54 -5.966,-6.956c1.052,1.094 -4.214,-0.258 -5.77,-0.19c1.393,0.864 -7.169,1.652 -5.803,2.463c-1.239,1.08 -1.212,0.514 -3.367,2.862c-2.373,2.584 -0.074,0.174 -1.221,2.104c-0.614,1.035 -2.84,2.519 -2.19,7.839c7.381,0.635 7.49,-2.682 10.985,-3.172c5.577,-0.781 3.086,7.403 2.734,6.738c-1.073,4.738 1.808,9.304 1.04,8.858c-0.426,2.369 8.31,6.71 10.409,7.207c1.726,1.856 3.581,1.944 4.365,2.107c0.43,0.09 0.86,0.042 1.284,-0.119c-0.176,0.359 -0.456,0.775 -0.187,1.147c0.388,0.538 7.248,0.496 8.174,0.411c0.758,0.505 3.325,0.632 3.101,0.292c0.586,0.003 0.603,-0.755 0,-1.091c0.204,-0.456 -0.297,-0.685 -1.029,-0.887c1.019,-0.011 1.631,-0.252 1.331,-0.584c1.183,0.184 1.411,-0.873 0.735,-0.993c0.664,-0.428 -0.272,-0.87 -1.227,-0.722c0.2,-0.019 0.191,-0.425 -0.944,-0.358c-1.135,0.068 -4.568,1.232 -5.498,0.755c-0.151,-1.091 2.787,-1.494 2.997,-5.75c0.144,-2.927 -0.432,-4.595 -1.207,-5.535c0.01,-0.058 0.204,-0.188 0.511,-0.393c0.794,0.262 1.554,0.409 2.14,0.383c1.85,-0.084 4.943,-3.859 5.777,-4.215c0.834,-0.355 3.19,0.769 3.546,0.447c0.251,-0.226 0.461,-0.116 0.115,-0.529c0.378,0.026 0.67,-0.505 0.595,-0.812c0.584,-0.176 0.345,-0.708 0.54,-0.981c0.245,-0.343 -0.396,-0.791 -0.389,-1.252" style="fill-rule:nonzero;"/></g></g></g></svg>