<?xml version="1.0" encoding="UTF-8" standalone="no"?><!DOCTYPE svg PUBLIC "-//W3C//DTD SVG 1.1//EN" "http://www.w3.org/Graphics/SVG/1.1/DTD/svg11.dtd"><svg width="100%" height="100%" viewBox="0 0 64 64" version="1.1" xmlns="http://www.w3.org/2000/svg" xmlns:xlink="http://www.w3.org/1999/xlink" xml:space="preserve" xmlns:serif="http://www.serif.com/" style="fill-rule:evenodd;clip-rule:evenodd;stroke-miterlimit:10;"><g id="Species"><g id="Mammals"><g id="squirrel"><path id="Outline" d="M61.409,32.047c0,-16.178 -13.135,-29.313 -29.313,-29.313c-16.179,0 -29.314,13.135 -29.314,29.313c0,16.178 13.135,29.313 29.314,29.313c16.178,0 29.313,-13.135 29.313,-29.313Z" style="fill:none;stroke:#000;stroke-width:3px;"/><path d="M44.349,50.431c0.488,0.158 0.973,0.27 1.433,0.344c-1.499,0.104 -3.083,0.042 -4.214,-0.039c1.14,-0.186 2.301,-0.46 2.781,-0.305m-16.328,-15.069c0.047,-0.166 0.22,-0.367 0.268,-0.534c-0.252,1.192 -0.334,2.537 -0.195,4.058c0.158,1.734 0.405,3.214 0.714,4.482c-1.073,-2.249 -1.614,-5.059 -0.787,-8.006m28.227,-5.007c0.007,-0.461 -0.91,-0.362 -1.088,-0.779c-0.177,-0.417 -2.031,0.006 -2.476,0.35c-0.951,0.738 -1.755,0.548 -3.444,0.835c-0.294,0.051 -0.543,-0.008 -0.758,-0.134c0.005,-0.356 -0.018,-0.725 -0.077,-1.11c0.79,0.152 4.364,0.323 4.099,-0.26c0.428,0.327 2.381,-0.034 2.446,-0.707c0.366,0.349 1.532,-0.224 1.174,-1.163c-0.229,-0.602 -2.127,-4.751 -3.023,-5.299c-0.419,-0.257 -1.548,-1.474 -3.088,-2.334c0.031,-1.093 0.008,-3.704 -1.461,-4.019c-0.821,-0.176 -1.359,0.603 -1.68,1.538c-0.263,-0.436 -0.578,-0.731 -0.943,-0.709c-0.948,0.056 -2.002,1.846 -1.89,3.258c-0.151,0.102 -0.302,0.212 -0.453,0.332c-2.233,1.776 -2.239,4.344 -3.172,4.996c-0.752,0.526 -9.009,1.392 -11.608,7.951c1.335,-4.353 2.785,-8.604 1.861,-11.821c-1.574,-5.479 -5,-6.54 -5.967,-6.956c1.053,1.095 -4.214,-0.258 -5.77,-0.189c1.393,0.863 -7.168,1.651 -5.803,2.462c-1.239,1.08 -1.212,0.515 -3.367,2.862c-2.372,2.584 -0.074,0.175 -1.22,2.104c-0.615,1.035 -2.841,2.52 -2.191,7.84c7.381,0.634 7.491,-2.682 10.986,-3.172c5.577,-0.782 3.085,7.402 2.733,6.737c-1.072,4.738 1.809,9.304 1.041,8.858c-0.426,2.37 8.309,6.71 10.409,7.208c1.725,1.856 3.581,1.943 4.365,2.107c0.43,0.089 0.86,0.041 1.284,-0.12c-0.177,0.36 -0.457,0.775 -0.188,1.147c0.389,0.538 7.249,0.496 8.175,0.412c0.757,0.504 3.324,0.631 3.1,0.291c0.587,0.003 0.603,-0.754 0,-1.091c0.205,-0.456 -0.296,-0.685 -1.029,-0.887c1.019,-0.01 1.632,-0.252 1.332,-0.584c1.183,0.184 1.41,-0.873 0.734,-0.992c0.664,-0.428 -0.272,-0.871 -1.227,-0.723c0.201,-0.019 0.191,-0.425 -0.944,-0.358c-1.135,0.068 -4.567,1.232 -5.497,0.755c-0.151,-1.091 2.786,-1.493 2.996,-5.75c0.144,-2.926 -0.432,-4.595 -1.206,-5.535c0.01,-0.058 0.204,-0.187 0.511,-0.393c0.793,0.262 1.553,0.409 2.139,0.383c1.85,-0.084 4.944,-3.859 5.778,-4.214c0.834,-0.356 3.19,0.768 3.546,0.446c0.25,-0.226 0.46,-0.115 0.114,-0.529c0.378,0.026 0.671,-0.504 0.596,-0.812c0.584,-0.175 0.344,-0.707 0.54,-0.981c0.245,-0.342 -0.397,-0.791 -0.389,-1.251" style="fill-rule:nonzero;"/></g></g></g></svg>