<?xml version="1.0" encoding="UTF-8" standalone="no"?><!DOCTYPE svg PUBLIC "-//W3C//DTD SVG 1.1//EN" "http://www.w3.org/Graphics/SVG/1.1/DTD/svg11.dtd"><svg width="100%" height="100%" viewBox="0 0 64 64" version="1.1" xmlns="http://www.w3.org/2000/svg" xmlns:xlink="http://www.w3.org/1999/xlink" xml:space="preserve" xmlns:serif="http://www.serif.com/" style="fill-rule:evenodd;clip-rule:evenodd;stroke-miterlimit:10;"><g id="Habitats"><g id="Coastal"><g id="mangrove"><path d="M19.687,20.514c-0.199,-0.191 -0.355,-0.429 -0.442,-0.694c-0.198,-0.597 -0.128,-1.26 0.142,-1.827c-0.076,-0.113 -0.138,-0.238 -0.178,-0.376c-0.342,-1.172 0.631,-2.118 1.525,-2.695c0.688,-0.444 1.568,-0.654 2.238,-0.316c0.003,-0.065 0.007,-0.128 0.014,-0.185c0.13,-1.09 0.834,-2.081 1.778,-2.543c-0.269,-0.963 0.413,-1.957 1.289,-2.354c0.39,-0.177 0.765,-0.259 1.118,-0.263c0.669,-1.233 2.238,-1.972 3.474,-1.466c0.779,-0.425 1.76,-0.049 2.459,0.409c0.46,0.302 0.947,0.684 1.313,1.142c0.138,-0.004 0.28,0.006 0.421,0.027c0.055,0.008 0.11,0.019 0.164,0.03c0.167,-0.156 0.37,-0.292 0.612,-0.402c1.1,-0.498 2.791,-0.593 3.723,0.29c0.003,0.002 0.005,0.004 0.007,0.006c0.156,0.149 0.294,0.318 0.418,0.503c0.302,0.453 0.511,1.001 0.653,1.578c0.449,0.275 0.872,0.629 1.176,1.04c0.887,-0.161 1.937,0.157 2.6,0.687c0.295,0.236 0.519,0.562 0.652,0.915c0.627,-0.028 1.295,0.222 1.812,0.534c0.233,0.04 0.455,0.156 0.636,0.36c0.096,0.107 0.174,0.23 0.238,0.364c0.009,0.018 0.017,0.037 0.026,0.055c0.731,0.896 1.018,2.151 0.261,3.141c0.004,0.007 0.008,0.014 0.012,0.02c0.362,0.686 0.376,1.55 0.107,2.268c-0.401,1.072 -1.378,1.68 -2.436,1.795c-0.002,0.008 -0.004,0.015 -0.006,0.023c0.89,0.873 1.351,2.122 0.47,3.261c-0.862,1.114 -2.131,1.21 -3.318,0.843c-0.05,0.159 -0.144,0.302 -0.293,0.408c-0.61,0.433 -1.424,0.066 -2.102,-0.464c-0.21,0.429 -0.667,0.468 -1.115,0.426c-0.513,-0.048 -1.009,-0.173 -1.48,-0.362c-2.279,2.321 -3.356,5.983 -3.161,9.043c0.064,1.014 0.392,1.844 0.944,2.471c0.439,0.476 1.012,0.831 1.701,1.055c-0.024,0.005 -0.047,0.01 -0.071,0.014c0.149,0.053 0.303,0.099 0.462,0.139c2.124,0.534 4.1,0.793 6.055,1.807c-0.037,-0.037 -0.073,-0.074 -0.11,-0.11c0.15,0.075 0.3,0.154 0.45,0.239c0.958,0.542 1.848,1.191 2.608,1.989c0.681,0.715 1.431,1.129 2.212,1.729c0.371,0.285 0.759,0.598 1.144,0.934l7.799,0l-0.224,0.444l-7.084,0c0.958,0.902 1.838,1.944 2.298,3.06l-0.003,-0.008l0.013,0.03c0.002,0.006 0.004,0.012 0.007,0.017l-0.012,-0.028c0.13,0.317 0.322,0.858 0.309,1.319c0.009,0.3 -0.058,0.577 -0.268,0.75c-0.806,0.666 -0.761,-0.375 -0.897,-0.87c-0.417,-1.52 -1.62,-3.027 -2.822,-4.27l-0.663,0c0.422,1.163 0.945,2.877 0.986,4.063c0.421,0.642 0.699,1.478 0.211,2.075c-0.13,0.16 -0.379,0.087 -0.476,-0.061c-0.134,-0.205 -0.196,-0.441 -0.26,-0.678c-0.317,0.071 -0.529,-0.485 -0.68,-1.223c-0.16,-0.166 -0.339,-0.316 -0.53,-0.451c-0.509,-0.358 -1.08,-0.627 -1.662,-0.869c0.384,0.502 0.724,1.063 1.012,1.715c0.217,0.491 1.16,2.302 0.087,2.273c-0.49,-0.014 -0.704,-1.164 -0.835,-1.491c-0.512,-1.277 -1.262,-2.381 -2.233,-3.282c-0.546,-0.217 -1.092,-0.431 -1.64,-0.641c0.209,1.172 0.538,3.331 -0.02,3.785c-0.702,0.572 -0.599,-0.794 -0.595,-1.113c-0.252,-0.45 -0.488,-0.89 -0.742,-1.31c0.103,0.612 0.113,1.234 -0.072,1.736c-0.078,0.21 -0.383,0.29 -0.506,0.066c-0.487,-0.894 -0.356,-2.085 -0.716,-3.047c-0.099,-0.262 -0.22,-0.497 -0.362,-0.712c-0.054,-0.042 -0.109,-0.083 -0.166,-0.123c-0.043,0.012 -0.087,0.026 -0.131,0.041c0.012,0.113 0.021,0.219 0.031,0.313c0.059,0.569 0.085,1.278 -0.016,1.94c0.248,0.651 0.413,1.334 0.481,2.041c0.071,0.735 -0.557,3.445 -1.081,1.569c-0.182,-0.651 -0.059,-1.386 -0.088,-2.125c-0.056,0.012 -0.112,0.005 -0.162,-0.018c0.002,0.035 0.003,0.071 0.004,0.106c0.012,0.371 -0.495,0.393 -0.608,0.082c-0.543,-1.483 -1.208,-2.951 -2.449,-3.954c-0.317,-0.256 -0.649,-0.489 -0.991,-0.707l-0.406,0c0.019,0.039 0.039,0.078 0.058,0.117c0.384,0.8 0.666,1.653 0.813,2.529c0.113,0.674 0.265,1.559 -0.03,2.217c0.029,0.105 0.053,0.212 0.07,0.318c0.044,0.266 -0.266,0.507 -0.484,0.282c-0.568,-0.589 -0.881,-1.405 -1.298,-2.099c-0.196,-0.325 -0.405,-0.643 -0.634,-0.945c0.374,1.761 1.024,5.828 -0.185,5.689c-0.512,-0.059 -0.737,-5.388 -0.972,-6.19c-0.05,-0.172 -0.139,-0.46 -0.259,-0.816c-0.439,-0.196 -0.924,-0.251 -1.442,-0.405c0.134,0.743 0.267,0.852 0.361,1.167c0.434,1.455 0.85,3.383 -0.666,4.393c-0.193,0.129 -0.513,-0.09 -0.416,-0.319c0.178,-0.424 0.359,-0.834 0.477,-1.26c-0.39,-0.268 -0.495,-0.883 -0.64,-1.311c-0.213,-0.627 -0.544,-1.22 -0.87,-1.796c-0.179,-0.316 -0.366,-0.608 -0.569,-0.888c0.015,0.208 0.037,0.404 0.068,0.582c0.684,4.001 1.411,6.394 0.737,6.485c-1.144,0.153 -1.835,-4.35 -2.104,-7.75l-0.519,0c-0.078,0.545 -0.12,1.095 -0.138,1.645c-0.025,0.787 0.073,1.603 0.014,2.39c0.149,1.469 0.106,3.006 -0.513,4.259c-0.78,1.577 -0.764,0.052 -0.657,-0.835c0.13,-1.084 0.356,-2.127 0.294,-3.223c-0.062,-0.325 -0.093,-0.663 -0.104,-1.005c-0.145,-1.068 -0.37,-2.074 -0.468,-3.102c-0.042,0.047 -0.084,0.095 -0.126,0.142c-0.027,0.124 -0.051,0.243 -0.076,0.345c-0.126,0.536 -0.22,1.091 -0.273,1.639c-0.097,1.008 0.108,2.026 -0.013,3.025c-0.03,0.248 -0.373,0.406 -0.514,0.14c-0.545,-1.02 -0.504,-2.419 -0.283,-3.619c-0.219,0.338 -0.425,0.685 -0.615,1.041c-0.3,0.564 -0.663,1.199 -0.623,1.862c0.01,0.164 -0.162,0.267 -0.307,0.234c-0.352,-0.081 -0.532,-0.278 -0.592,-0.543c-0.043,0.668 0.011,1.345 0.112,1.999c0.086,0.557 0.509,1.978 -0.502,1.313c-0.34,-0.223 -0.527,-0.619 -0.616,-1.091c-0.042,-0.011 -0.085,-0.031 -0.129,-0.061c-0.642,-0.445 -0.61,-1.453 -0.693,-2.166c-0.111,-0.959 -0.141,-1.932 -0.037,-2.893c0.002,-0.012 0.003,-0.025 0.005,-0.039c-0.21,0.411 -0.399,0.837 -0.572,1.276c-0.223,0.568 -0.419,1.158 -0.603,1.763c-0.002,0.002 -0.004,0.003 -0.006,0.005c-0.208,0.682 -0.4,1.383 -0.593,2.097c-0.241,0.894 -0.813,1.78 -0.971,0.34c-0.084,-0.756 0.226,-1.804 0.482,-2.642c-0.04,-0.138 -0.059,-0.278 -0.049,-0.394c0.026,-0.346 0.101,-0.702 0.206,-1.057c-0.045,0.091 -0.091,0.182 -0.133,0.274c-0.225,0.488 -0.343,1.076 -0.721,1.468c-0.127,0.133 -0.39,0.078 -0.428,-0.113c-0.13,-0.661 0.258,-1.384 0.56,-1.961c0.161,-0.308 0.341,-0.605 0.534,-0.894c-0.742,0.697 -1.31,1.505 -1.907,2.359c-0.048,0.297 -0.084,0.596 -0.108,0.897c-0.033,0.418 -0.011,0.783 -0.18,1.168c-0.129,0.294 -0.526,0.156 -0.616,-0.08c-0.103,-0.269 -0.134,-0.592 -0.122,-0.934c-0.04,0.084 -0.081,0.169 -0.122,0.255c-0.372,0.774 -1.462,0.897 -1.425,-1.189c0.026,-1.465 1.475,-1.117 2.166,-2.364c-1.345,0.516 -2.465,1.228 -3.225,2.475c-0.144,0.235 -0.391,0.363 -0.542,0.572c-0.049,0.069 -0.564,-0.558 -0.535,-0.608c0.576,-0.998 1.38,-1.937 2.381,-2.515c0.628,-0.363 1.427,-0.267 1.978,-0.542c0.437,-0.217 0.749,-0.671 1.106,-1.113l-8.239,0l-0.256,-0.444l8.889,0c0.019,-0.019 0.039,-0.038 0.058,-0.057c0.862,-0.814 1.939,-1.291 3.036,-1.699c1.033,-0.385 2.288,-0.629 3.2,-1.161c1.166,-0.681 2.256,-1.705 3.378,-2.493c1.163,-0.818 2.354,-1.571 3.546,-2.338c1.217,-0.782 1.883,-2.332 2.606,-3.57c0.933,-1.599 1.228,-2.253 0.562,-4.08c-0.396,-1.088 -0.982,-2.087 -1.726,-2.973c-0.02,-0.024 -0.042,-0.049 -0.063,-0.074c-0.056,-0.011 -0.111,-0.023 -0.166,-0.037c-0.117,0.072 -0.243,0.125 -0.375,0.16c-0.004,0.002 -0.008,0.004 -0.012,0.006c-0.212,0.1 -0.429,0.124 -0.626,0.094c-0.251,0.047 -0.506,0.007 -0.735,-0.185c-0.123,-0.103 -0.204,-0.227 -0.246,-0.36c-0.201,-0.065 -0.383,-0.17 -0.527,-0.312c-0.156,0.007 -0.308,-0.013 -0.442,-0.072c-0.316,-0.138 -0.514,-0.36 -0.612,-0.61c-0.175,-0.003 -0.353,-0.041 -0.527,-0.126c-0.129,-0.063 -0.247,-0.152 -0.35,-0.256c-0.64,0.116 -1.399,-0.044 -1.794,-0.579c-0.331,0.108 -0.675,0.149 -0.982,0.103c-0.663,-0.098 -1.306,-0.627 -1.401,-1.302c-0.074,-0.051 -0.148,-0.117 -0.221,-0.201c-0.305,-0.353 -0.311,-0.815 -0.167,-1.266c-0.035,-0.027 -0.069,-0.054 -0.103,-0.082c-0.241,-0.095 -0.464,-0.266 -0.632,-0.518c-0.178,-0.267 -0.268,-0.635 -0.272,-1.023c-0.027,-0.157 -0.039,-0.317 -0.038,-0.477Zm1.42,25.932l-1.545,0c-0.172,0.518 -0.267,1.057 -0.303,1.601c-0.045,0.694 -0.026,1.399 0.025,2.092c0.013,0.178 0.024,0.369 0.038,0.567c0.065,-0.342 0.139,-0.644 0.202,-0.869c0.336,-1.204 0.923,-2.317 1.583,-3.391Zm14.895,0l-0.537,0c1.145,0.917 2.16,2.15 2.549,3.526c0.011,-0.109 0.025,-0.218 0.041,-0.327c-0.444,-1.145 -1.137,-2.275 -1.982,-3.128c-0.024,-0.024 -0.047,-0.047 -0.071,-0.071Zm-13.461,0l-0.44,0c-0.64,0.92 -1.239,1.86 -1.6,2.941c-0.045,0.137 -0.085,0.275 -0.119,0.414c0.356,-0.946 1.143,-2.02 1.395,-2.371c0.238,-0.333 0.493,-0.663 0.764,-0.984Zm30.203,3.22c-0.001,-0.003 -0.002,-0.006 -0.004,-0.009l0.007,0.014c-0.001,-0.001 -0.002,-0.003 -0.003,-0.005Zm-0.014,-0.034c0.004,0.009 0.008,0.018 0.01,0.025c-0.002,-0.007 -0.006,-0.015 -0.01,-0.025Zm-0.015,-0.038c0.005,0.014 0.011,0.027 0.015,0.038c-0.004,-0.011 -0.01,-0.024 -0.015,-0.038Zm-0.02,-0.049c0.007,0.017 0.014,0.034 0.02,0.049c-0.006,-0.014 -0.013,-0.03 -0.02,-0.049Zm-19.93,-3.099l-1.4,0c0.196,0.412 0.384,0.83 0.542,1.268c0.509,0.312 0.943,0.577 1.34,1.141c0.15,0.214 0.306,0.44 0.459,0.675c-0.009,-0.137 -0.021,-0.271 -0.042,-0.4c-0.133,-0.801 -0.379,-1.584 -0.722,-2.32c-0.057,-0.122 -0.116,-0.243 -0.177,-0.364Zm19.91,3.052c-0.011,-0.027 -0.021,-0.052 -0.031,-0.074c0.011,0.024 0.021,0.05 0.031,0.074Zm-0.055,-0.135c-0.003,-0.007 -0.007,-0.015 -0.01,-0.023c0.003,0.008 0.007,0.015 0.01,0.023c0.008,0.02 0.016,0.04 0.025,0.061c-0.01,-0.022 -0.018,-0.042 -0.025,-0.061Zm-0.021,-0.049c-0.001,-0.004 -0.003,-0.007 -0.004,-0.011c0.001,0.004 0.003,0.007 0.004,0.011c0.004,0.008 0.008,0.017 0.011,0.026c-0.003,-0.009 -0.007,-0.018 -0.011,-0.026Zm-0.004,-0.011c-0.011,-0.025 -0.02,-0.047 -0.025,-0.061c0.005,0.013 0.013,0.033 0.025,0.061Zm-0.025,-0.061c-0.004,-0.009 -0.006,-0.013 -0.007,-0.017c0.001,0.003 0.003,0.009 0.007,0.017Zm-0.007,-0.017c-0.003,-0.006 -0.002,-0.005 0,0Zm-5.4,-2.779l-4.434,0c0.548,0.395 1.069,0.778 1.553,1.18c0.426,0.161 0.849,0.326 1.269,0.492c0.785,0.309 1.622,0.61 2.355,1.057c-0.035,-0.303 -0.065,-0.593 -0.092,-0.845c-0.074,-0.029 -0.138,-0.082 -0.177,-0.16c-0.264,-0.531 -0.29,-1.156 -0.474,-1.724Zm-18.993,1.28c-0.21,-0.335 -0.147,-0.243 -0.396,-0.563c0.248,-0.026 0.497,-0.034 0.749,-0.019c0.063,0.012 0.054,-0.103 0.093,0.13c0.057,0.34 0.195,1.13 0.29,1.465c-0.123,-0.239 -0.593,-0.785 -0.736,-1.013Zm12.52,-0.463c-0.01,0.047 -0.022,0.094 -0.035,0.141c0.371,0.37 0.716,0.786 0.995,1.234c-0.008,-0.113 -0.017,-0.226 -0.029,-0.34c-0.03,-0.287 -0.049,-0.522 -0.079,-0.718c-0.287,-0.108 -0.569,-0.224 -0.852,-0.317Zm-23.676,-0.817l-0.681,0c-0.589,0.506 -1.062,1.084 -1.478,1.725c-0.049,0.099 -0.095,0.199 -0.138,0.301c0.412,-0.533 0.886,-1.018 1.438,-1.435c0.278,-0.21 0.565,-0.405 0.859,-0.591Zm20.824,0l-0.708,0c0.427,0.459 0.811,0.957 1.14,1.485c0.034,-0.391 0.068,-0.908 0.034,-1.275c-0.155,-0.077 -0.31,-0.146 -0.466,-0.21Zm-7.426,0l-1.123,0c0.008,0.071 0.016,0.137 0.024,0.198c0.437,0.159 0.884,0.226 1.304,0.359c-0.064,-0.178 -0.132,-0.365 -0.205,-0.557Zm-1.945,0l-1.39,0c0.106,0.155 0.21,0.296 0.31,0.411c0.349,-0.123 0.716,-0.182 1.087,-0.188c-0.003,-0.069 -0.006,-0.144 -0.007,-0.223Zm0.74,-2.571c-0.033,-0.019 -0.066,-0.039 -0.099,-0.059c-0.008,0.546 0.058,1.459 0.132,2.186l0.998,0c-0.301,-0.749 -0.657,-1.528 -1.031,-2.127Zm-3.535,1.562c-0.069,-0.068 -0.139,-0.137 -0.209,-0.205c-0.001,0.005 -0.003,0.01 -0.004,0.015c-0.064,0.25 -0.119,0.502 -0.164,0.755l0.414,0c-0.014,-0.193 -0.026,-0.382 -0.037,-0.565Zm-2.821,-1.69c-1.13,0.555 -2.08,1.346 -2.964,2.255l1.499,0c0.484,-0.761 0.994,-1.506 1.465,-2.255Zm12.509,2.115c-0.263,-0.033 -0.531,-0.06 -0.807,-0.086c-0.018,-0.002 -0.166,-0.111 -0.054,-0.011c0.122,0.075 0.244,0.154 0.365,0.237l0.66,0c-0.054,-0.047 -0.109,-0.094 -0.164,-0.14Zm-11.603,-1.897c-0.191,0.336 -0.397,0.661 -0.611,0.981c-0.22,0.353 -0.446,0.704 -0.672,1.056l0.462,0c0.101,-0.109 0.205,-0.217 0.311,-0.322c0.111,-0.16 0.232,-0.284 0.361,-0.343c0.002,-0.053 0.004,-0.107 0.007,-0.161c-0.006,0.016 -0.013,0.032 -0.02,0.047c0.018,-0.409 0.068,-0.826 0.162,-1.258Zm-5.61,1.809c0.176,-0.219 0.363,-0.434 0.563,-0.635c-0.287,0.09 -0.562,0.176 -0.787,0.276c-0.37,0.179 -0.706,0.375 -1.013,0.587l0.84,0c0.132,-0.077 0.264,-0.153 0.396,-0.228l0.001,0c0.176,-0.219 0.363,-0.434 0.563,-0.635c-0.299,0.093 -0.585,0.183 -0.815,0.289c-0.907,0.418 -1.769,0.954 -2.404,1.738c-0.322,0.398 -0.574,0.84 -0.774,1.306c0.412,-0.533 0.886,-1.018 1.438,-1.435l1.991,-1.263l0.001,0Zm10.317,0.228c0.005,-0.811 0.06,-1.844 0.154,-2.45c-0.348,-0.064 -0.702,-0.098 -1.058,-0.086c-0.039,0.001 -0.078,0.004 -0.116,0.006c-0.235,0.618 -0.383,1.592 -0.419,2.53l1.439,0Zm12.38,-2.554c0.379,0.983 0.762,1.93 1.351,2.554l4.784,0c-0.33,-0.659 -0.85,-1.131 -1.589,-1.352c-0.722,-0.215 -1.491,-0.218 -2.229,-0.358c-0.729,-0.138 -1.422,-0.412 -2.089,-0.733c-0.076,-0.037 -0.152,-0.074 -0.228,-0.111Zm7.721,2.554c-0.219,-0.215 -0.434,-0.421 -0.641,-0.615c0.065,0.145 0.152,0.356 0.252,0.615l0.389,0Zm-26.116,-0.051c-0.012,0.017 -0.024,0.034 -0.036,0.051l0.028,0c0.002,-0.017 0.005,-0.034 0.008,-0.051Zm8.031,-1.407c0.198,0.493 0.434,0.973 0.67,1.458l1.377,0c-0.128,-0.225 -0.264,-0.445 -0.409,-0.658c-0.409,-0.202 -0.82,-0.398 -1.227,-0.598c-0.135,-0.067 -0.272,-0.134 -0.411,-0.202Zm-6.031,1.259c0.006,-0.03 0.012,-0.06 0.018,-0.09c-0.007,0.008 -0.014,0.015 -0.022,0.023c0.001,0.022 0.002,0.045 0.004,0.067Zm15.282,-2.925c-0.489,-0.256 -0.974,-0.517 -1.464,-0.771c0.185,0.215 0.365,0.432 0.54,0.651c0.552,0.692 1.282,1.669 1.669,2.687c0.134,0.044 0.271,0.086 0.411,0.127c-0.26,-0.398 -0.407,-0.913 -0.573,-1.356c-0.014,-0.037 -0.036,-0.095 -0.057,-0.149c-0.151,-0.387 -0.324,-0.793 -0.526,-1.189Zm-6.911,0.004c0.226,0.314 0.491,0.609 0.783,0.874c-0.02,-0.012 -0.04,-0.024 -0.059,-0.036c0.859,0.816 1.979,1.379 3.06,1.428c-0.933,-0.559 -1.862,-1.123 -2.791,-1.689c-0.315,-0.192 -0.653,-0.381 -0.993,-0.577Zm-1.483,0.624c0.204,0.162 0.399,0.35 0.597,0.543c0.692,0.329 1.386,0.653 2.122,0.861c-0.861,-0.548 -1.78,-0.999 -2.719,-1.404Zm3.248,-3.026c-0.017,0.286 0.147,0.633 0.391,0.984c0.286,0.398 0.668,0.796 0.993,1.109c-0.016,-0.008 -0.031,-0.016 -0.047,-0.026c0.305,0.301 0.572,0.534 0.681,0.632c0.823,0.741 1.61,1.291 2.514,1.725c-0.293,-0.56 -0.644,-1.09 -1.02,-1.598c-0.5,-0.676 -1.057,-1.307 -1.654,-1.9c-0.103,-0.102 -0.207,-0.208 -0.313,-0.31c-0.511,-0.217 -1.026,-0.421 -1.545,-0.616Zm-10.132,4.182c0.122,-0.085 0.246,-0.167 0.372,-0.245c0.181,-0.522 0.402,-1.031 0.669,-1.512c-0.116,0.031 -0.233,0.06 -0.349,0.088c-0.442,0.241 -0.635,0.893 -0.692,1.669Zm15.804,-0.595c0.01,0.026 0.02,0.051 0.029,0.076l0.009,0.022c0.154,0.403 -0.269,-0.702 0,0l0.019,0.051c0.021,0.055 0.025,0.065 -0.016,-0.043c-0.001,-0.002 -0.002,-0.005 -0.003,-0.008c0,0 -0.038,-0.098 -0.038,-0.098Zm5.304,-0.29c-1.654,-1.672 -3.962,-2.747 -6.258,-3.359c0.473,0.535 0.818,1.231 1.123,1.967c0.577,0.286 1.161,0.553 1.763,0.772c1.052,0.383 2.281,0.33 3.372,0.62Zm-15.224,-0.684c-0.099,-0.039 -0.199,-0.079 -0.299,-0.118c0.016,0.106 0.034,0.21 0.055,0.314c0.183,0.068 0.356,0.137 0.498,0.191c-0.053,-0.068 -0.01,-0.257 -0.222,-0.352c-0.022,-0.01 -0.031,-0.022 -0.032,-0.035Zm-2.47,-0.237c-0.008,0.004 -0.015,0.008 -0.023,0.012c0.012,0 0.023,0 0.035,0c-0.004,-0.004 -0.008,-0.008 -0.012,-0.012Zm8.323,-2.681c0.175,0.117 0.334,0.245 0.46,0.346c0.028,0.022 0.055,0.046 0.083,0.068c0.121,0.05 0.243,0.098 0.364,0.149c0.62,0.261 1.225,0.564 1.826,0.874c-0.212,-0.259 -0.445,-0.492 -0.702,-0.688c-0.231,-0.175 -1.197,-0.524 -2.031,-0.749Zm-3.166,-12.526c-0.08,0.013 -0.163,0.02 -0.246,0.021c-0.378,0.003 -0.734,-0.084 -1.059,-0.237c-0.247,0.117 -0.554,0.17 -0.838,0.188c0.675,0.599 1.531,1.218 1.978,1.967c0.044,-0.594 0.134,-1.272 0.165,-1.939Zm4.127,-1.188c-0.167,-0.087 -0.33,-0.182 -0.487,-0.285c0.044,0.285 -0.018,0.56 -0.256,0.771c-0.362,0.32 -0.911,0.257 -1.448,0.049c0.154,0.603 0.399,1.248 0.389,1.788c0.462,-0.893 1.099,-1.63 1.802,-2.323Z" style="fill:#1f191a;fill-rule:nonzero;"/><path id="Inner-Outline" serif:id="Inner Outline" d="M59,32c0,-14.902 -12.098,-27 -27,-27c-14.902,0 -27,12.098 -27,27c0,14.902 12.098,27 27,27c14.902,0 27,-12.098 27,-27Z" style="fill:none;stroke:#fff;stroke-width:3px;"/><path id="Outline" d="M61.409,31.99c0,-16.178 -13.135,-29.313 -29.313,-29.313c-16.179,0 -29.314,13.135 -29.314,29.313c0,16.179 13.135,29.313 29.314,29.313c16.178,0 29.313,-13.134 29.313,-29.313Z" style="fill:none;stroke:#000;stroke-width:3px;"/></g></g></g></svg>