<?xml version="1.0" encoding="UTF-8" standalone="no"?><!DOCTYPE svg PUBLIC "-//W3C//DTD SVG 1.1//EN" "http://www.w3.org/Graphics/SVG/1.1/DTD/svg11.dtd"><svg width="100%" height="100%" viewBox="0 0 64 64" version="1.1" xmlns="http://www.w3.org/2000/svg" xmlns:xlink="http://www.w3.org/1999/xlink" xml:space="preserve" xmlns:serif="http://www.serif.com/" style="fill-rule:evenodd;clip-rule:evenodd;stroke-miterlimit:10;"><g id="Species"><g id="Invertebrates"><g id="crab"><path id="Outline" d="M61.409,32.047c0,-16.178 -13.135,-29.313 -29.313,-29.313c-16.179,0 -29.314,13.135 -29.314,29.313c0,16.178 13.135,29.313 29.314,29.313c16.178,0 29.313,-13.135 29.313,-29.313Z" style="fill:none;stroke:#000;stroke-width:3px;"/><path d="M22.145,17.849c0.378,-0.195 2.159,-1.119 2.769,-1.56c0.685,-0.495 1.692,-0.733 2.357,-0.832c0.666,-0.1 1.255,-0.005 1.506,0.271c0.251,0.277 0.314,0.346 -0.075,0.195c-0.696,-0.27 -1.343,0.116 -2.13,0.672c-0.761,0.539 -1.393,1.138 -1.801,1.382c-0.408,0.244 -0.86,0.717 -0.704,0.89l0,0c0.104,0.02 0.213,0.068 0.32,0.129c0,-0.007 0.001,-0.014 0.002,-0.021c-0.063,-0.021 -0.177,-0.221 -0.177,-0.221c0.026,-0.023 0.057,-0.048 0.092,-0.076c-0.045,-0.127 0.089,-0.195 0.279,-0.212c0.268,-0.199 0.594,-0.425 0.819,-0.558c1.19,-0.701 0.885,-0.551 1.695,-0.908c0.435,-0.191 1.029,-0.297 1.52,-0.498c0.074,-0.065 0.16,-0.144 0.266,-0.24c0,0 -0.042,0.068 -0.114,0.172c0.353,-0.169 0.631,-0.405 0.719,-0.786c0,0 0.143,0.833 -1.394,1.583c0,0 0.003,-0.004 0.009,-0.01c-0.291,0.261 -0.811,0.551 -1.262,0.85c0.03,-0.017 0.044,-0.024 0.039,-0.019c-0.015,0.014 -0.137,0.093 -0.306,0.204c-0.094,0.07 -0.181,0.139 -0.258,0.209c-0.306,0.278 -0.9,0.826 -1.299,1.241c-0.006,-0.009 -0.012,-0.018 -0.019,-0.028l-0.275,0.305c-0.128,0.3 -0.386,0.734 -0.713,1.212c-0.721,1.258 -1.921,2.697 -2.818,3.006l0.134,0.469c0.281,0.082 0.435,0.17 0.435,0.17c0,0 0.01,0.473 -0.112,0.77c0.253,-0.092 0.389,-0.047 0.708,0.083c0.04,0.016 0.078,0.034 0.115,0.052c0.068,0.006 0.102,-0.006 0.102,-0.006c0.052,0.317 0.072,-0.46 0.14,-0.419c0.233,0.139 0.19,0.139 0.419,0.559c0.137,0.249 0,0.234 0.234,0.374c0.233,0.139 0.139,0.279 0.373,0.279c0.233,0 0.236,-0.233 0.143,-0.56c-0.088,-0.307 0.07,-0.242 0.205,0.078c0.051,0.09 0.101,0.197 0.142,0.312c0.125,0.223 0.256,0.38 0.256,0.59c0,0.28 0.093,0.14 0.28,0.187c0.187,0.046 0.515,0.487 0.746,0.513c0.42,0.047 0.33,-0.42 0.374,-0.606c0.186,0.046 0.373,0.606 0.373,0.839c0,0.233 0,0.42 0.14,0.653c0,0 0.123,0.139 0.27,0.317c0.295,0.234 0.574,0.501 0.765,0.808c0.057,-0.007 0.122,-0.013 0.196,-0.02c0.558,-0.054 1.117,-0.373 1.117,-0.373c0.04,-0.022 0.08,-0.042 0.121,-0.06c0.053,-0.037 0.112,-0.07 0.177,-0.099c-0.001,0 -0.004,0.002 -0.005,0.002c0.014,-0.009 0.028,-0.017 0.043,-0.026c0.008,-0.005 0.02,-0.009 0.032,-0.011c0.04,-0.006 0.079,-0.011 0.119,-0.014c0.023,-0.001 0.046,-0.002 0.069,-0.003c0.013,-0.003 0.026,-0.007 0.038,-0.01c0.167,-0.079 0.341,-0.117 0.492,-0.098c0.03,-0.005 0.06,-0.01 0.09,-0.015c0.108,-0.087 0.244,-0.168 0.396,-0.183c0.087,-0.011 0.153,0.002 0.208,0.025c0.041,-0.016 0.085,-0.028 0.13,-0.03c0.019,0 0.039,0 0.059,0c0.041,-0.015 0.083,-0.031 0.125,-0.049c-0.05,-0.187 -0.021,-0.335 0.118,-0.414c0.004,-0.003 0.007,-0.005 0.01,-0.006c0.282,-0.158 0.283,-0.061 0.405,0.268c0.102,-0.009 0.2,-0.036 0.297,-0.075c0.011,-0.008 0.022,-0.016 0.034,-0.023c0.011,-0.002 0.021,-0.004 0.031,-0.006c0.1,-0.046 0.198,-0.103 0.296,-0.163c-0.004,-0.006 -0.009,-0.011 -0.013,-0.017c-0.126,-0.144 -0.267,-0.309 -0.424,-0.536c-0.591,-0.861 -0.663,-1.611 -0.207,-2.167l0.327,-0.398l-0.152,0.492c-0.293,0.953 -0.163,1.534 0.479,2.142c0.104,0.099 0.196,0.202 0.275,0.306c0.225,-0.135 0.458,-0.249 0.716,-0.25c0.164,0.061 0.245,-0.132 0.43,-0.097c0.431,-0.004 0.691,0.477 1.049,0.61c0.017,-0.019 0.035,-0.039 0.052,-0.058c0.421,-0.456 0.61,-0.864 0.578,-1.247c-0.031,-0.378 -0.277,-0.741 -0.752,-1.109l-0.385,-0.3l0.472,0.122c0.593,0.152 0.821,0.524 0.908,0.809c0.176,0.577 -0.07,1.272 -0.391,1.633l-0.065,0.073c-0.026,0.03 -0.051,0.058 -0.075,0.085c0.002,-0.001 0.005,-0.001 0.007,-0.002c0.384,0.045 0.569,0.448 0.897,0.465c0.054,-0.25 0.088,-0.356 0.295,-0.353c0.236,0.003 0.263,0.165 0.186,0.505c0.346,0.039 0.603,0.106 0.796,0.186c0.092,0.009 0.183,0.022 0.271,0.047l0.413,0.13c0,0 0.494,0.408 0.704,0.68c0,0 0,0 0,0c0.028,0.024 0.055,0.047 0.081,0.07c0.226,0.121 0.586,-0.145 0.776,0.241c0.029,0.058 0.057,0.11 0.086,0.156l0.079,-0.026c-0.001,-0.007 -0.002,-0.014 -0.002,-0.021c0,-0.21 0.035,-0.21 0.595,-0.805c0.047,-0.049 0.11,-0.108 0.186,-0.174c0.051,-0.058 0.082,-0.094 0.082,-0.094c0.14,-0.233 0.14,-0.42 0.14,-0.653c0,-0.233 0.187,-0.793 0.373,-0.84c0.187,-0.046 -0.046,0.653 0.374,0.607c0.231,-0.026 0.56,-0.467 0.746,-0.514c0.187,-0.046 0.28,0.094 0.28,-0.186c0,-0.28 0.233,-0.467 0.373,-0.84c0.14,-0.373 0.42,-0.56 0.327,-0.233c-0.094,0.327 -0.187,0.653 0.046,0.653c0.234,0 0.14,-0.14 0.373,-0.28c0.234,-0.14 0.187,-0.093 0.234,-0.373c0.044,-0.268 0.175,-0.408 0.392,-0.543c0.059,-0.088 0.114,-0.119 0.12,-0.034c0.112,0.051 0.047,0.437 0.047,0.437c0,0 0.075,0.025 0.224,-0.016c0.019,-0.01 0.038,-0.019 0.057,-0.028c0.015,-0.017 0.03,-0.033 0.046,-0.049c0.108,-0.108 0.105,-0.16 0.204,-0.03c0.002,-0.001 0.004,-0.001 0.006,-0.001l0,0l0,0c0.022,0 0.041,0.002 0.058,0.007c0.002,0.001 0.004,0.002 0.005,0.002c0.014,-0.01 0.028,-0.02 0.042,-0.03c-0.153,-0.289 -0.269,-0.657 -0.168,-0.995c-0.046,0.019 -0.093,0.036 -0.141,0.051l-0.406,-0.116l0.116,-0.144c-0.879,0.014 -2.219,-1.099 -3.066,-2.18c-0.365,-0.384 -0.66,-0.746 -0.817,-1.012l-0.295,-0.224c-0.005,0.011 -0.01,0.023 -0.014,0.035c-0.426,-0.299 -1.05,-0.67 -1.371,-0.857c-0.503,-0.292 -1.385,-0.452 -1.825,-0.7c0.003,0.002 0.005,0.003 0.005,0.003c-1.054,-0.432 -0.954,-0.915 -0.954,-0.915c0.653,0.38 1.058,0.255 1.862,0.362c0.804,0.107 0.5,0.051 1.703,0.389c0.335,0.095 1.058,0.424 1.348,0.569c0.007,-0.004 0.015,-0.009 0.022,-0.013c0.126,-0.227 -0.356,-0.567 -0.769,-0.687c-0.413,-0.12 -1.079,-0.532 -1.86,-0.84c-0.806,-0.318 -1.461,-0.508 -2.082,-0.01c-0.347,0.279 -0.296,0.188 -0.094,-0.175c0.201,-0.362 0.744,-0.647 1.381,-0.757c0.637,-0.11 1.637,-0.01 2.34,0.279c0.27,0.11 0.65,0.25 1.016,0.38c0.155,0.05 0.326,0.109 0.493,0.173c0.372,0.129 0.651,0.222 0.651,0.222c0,0 0.251,0.238 0.299,0.324c0.043,0.074 0.056,0.146 0.036,0.228c0.016,0 0.033,-0.001 0.05,-0.001c-0.01,-0.025 -0.063,-0.174 -0.012,-0.362l-0.011,-0.279c0,0 0.077,0.055 0.185,0.14c0.186,0.143 0.48,0.378 0.732,0.618c0.188,0.086 0.407,0.191 0.657,0.336c0.754,0.438 2.757,2.03 3.252,3.057c0.047,-0.199 -0.003,-0.431 -0.026,-0.694c-0.04,-0.462 0.544,0.276 0.313,1.283c0.101,0.065 0.196,0.156 0.299,0.284c0.248,0.307 0.723,1.133 0.7,1.341c-0.022,0.209 0.231,-0.186 0.358,0.602c0.074,0.465 0.06,0.846 0.015,1.137c0.034,0.035 0.069,0.079 0.101,0.133c0.037,0.061 0.051,0.119 0.051,0.176c-0.002,0.161 -0.122,0.317 -0.191,0.523c-0.093,0.28 -0.326,0.654 -0.42,0.933l0,0.001c-0.07,0.209 -0.192,0.366 -0.347,0.452c0.007,0.017 0.011,0.035 0.012,0.053c0.007,0.124 -0.132,0.279 -0.796,0.579c-1.083,0.489 -2.551,1.048 -3.216,1.398l-0.002,0.001c-0.013,0.007 -0.026,0.014 -0.039,0.021l0,0c0.013,-0.007 0.026,-0.014 0.039,-0.021c-0.013,0.009 -0.026,0.016 -0.039,0.021c-0.027,0.014 -0.053,0.028 -0.079,0.041c-0.481,0.251 -0.729,0.365 -1.045,0.51c-0.064,0.029 -0.13,0.06 -0.202,0.093c-0.074,0.034 -0.134,0.051 -0.183,0.055c0.039,0.028 0.077,0.083 0.115,0.187c0.009,0.014 0.017,0.029 0.024,0.046c0.336,-0.027 0.656,-0.061 0.889,-0.137c0.041,-0.013 0.079,-0.021 0.114,-0.025c0.747,-0.34 1.658,-0.343 2.394,-0.705c0.398,-0.195 0.534,-0.184 0.683,-0.129c-0.16,-0.158 0.102,-0.443 0.836,-0.803c1.138,-0.558 2.451,-1.917 3.103,-2.6c0.485,-0.507 0.717,-0.945 0.932,-0.857c0.07,-0.045 0.102,0.01 0.13,0.121c0.012,0.018 0.024,0.037 0.037,0.059c0.658,-0.857 1.955,-2.507 1.837,-3.199c0.974,0.182 0.114,3.049 -1.125,4.317c0.157,0.297 0.167,0.576 -0.259,0.834c-0.87,0.527 -1.829,2.292 -2.775,2.473c-0.163,0.031 -0.309,0.04 -0.443,0.035c0.152,0.332 0.299,0.909 -0.509,0.902c-0.853,-0.006 -2.241,0.196 -3.198,0.215c0.072,0.148 -0.882,0.58 -1.859,0.885c0.033,0.062 0.065,0.125 0.095,0.185c0.112,0.227 0.241,0.328 0.357,0.436c0.3,-0.055 0.781,-0.156 1.468,-0.333c0.256,-0.067 0.434,-0.094 0.557,-0.091l-0.034,-0.117c1.834,-0.308 2.124,-0.008 2.165,0.127l0.092,0.017c0.524,-0.494 1.314,-0.577 1.835,-1.076c0.294,-0.282 0.409,-0.263 0.565,-0.203c0.054,-0.019 0.109,-0.045 0.155,-0.082c0.028,-0.023 0.05,-0.044 0.066,-0.064c-0.109,-0.06 -0.093,-0.14 0.156,-0.26c0.85,-0.413 2.748,-1.883 3.745,-2.081c1.561,-0.311 0.711,-0.33 0.583,-0.311l-0.008,0.008c-0.012,-0.003 -0.008,-0.006 0.008,-0.008l0.635,-0.623c0,0 -0.056,-0.778 1.081,-1.842c1.137,-1.065 1.119,-1.487 0.844,-0.037c-0.11,0.58 -0.358,1.05 -0.667,1.481c-0.23,0.429 -0.551,0.867 -1.003,1.259l0.055,-0.111c-0.207,0.244 -0.411,0.498 -0.596,0.776c-0.729,1.091 -2.267,1.803 -3.11,2.041c0.197,0.332 0.498,0.998 -0.215,1.07c-0.955,0.097 -2.483,0.8 -3.175,0.647c-0.077,-0.017 -0.149,-0.038 -0.217,-0.061c-0.017,0.02 -0.034,0.039 -0.051,0.058l0.002,0.002c0,0 -0.163,0.762 -1.107,0.794c-0.485,0.016 -0.839,0.024 -1.069,0.027c0.125,0.097 0.216,0.134 0.216,0.134c0,0 -0.778,-0.035 -1.529,0.049c-0.308,0.034 -0.584,0.064 -0.866,0.109c0.055,0.124 0.169,0.253 0.204,0.325c0.412,0.138 1.093,0.472 1.289,0.493c0.282,0.03 0.34,0.195 0.111,0.275c-0.228,0.079 -0.597,0.172 -0.926,0.147c-0.138,-0.011 -0.675,0.013 -1.28,0.056c-0.805,0.155 -1.618,0.417 -2.418,0.6c-0.083,0.006 -1.094,0.416 -1.679,0.641c-0.039,0.02 -0.077,0.039 -0.114,0.058l1.559,1.037c0,0 -0.012,0.11 -0.05,0.319c0.117,-0.108 0.282,-0.211 0.789,-0.216c1.102,-0.012 3.522,0.943 4.669,1.125c0.509,0.08 0.634,0.21 0.608,0.365c0.67,0.282 1.404,0.885 1.688,1.491c0.059,0.05 0.12,0.113 0.183,0.192c0.688,0.861 0.288,0.724 1.088,0.997c0.741,0.254 1.781,0.303 1.712,0.946c0.878,0.439 1.209,1.526 1.414,2.349c0.233,0.934 0.135,1.608 0.135,1.608c0,0 -0.907,-1.034 -1.401,-1.636c-0.359,-0.437 -0.623,-1.138 -0.74,-1.491c-0.132,0.022 -0.29,0.019 -0.494,0.046c-0.561,0.076 -1.462,-0.947 -1.462,-0.947c0,0 -0.823,-0.755 -1.227,-1.428l-0.108,-0.007c0,0 0,0 0,0l0,0c-0.149,-0.159 -0.617,-0.956 -1.124,-1.518c-0.006,0.018 -0.011,0.035 -0.014,0.052c-0.011,0.053 -0.028,0.094 -0.051,0.125c0.011,0.078 -0.005,0.115 -0.129,0.074c-0.216,0.033 -0.625,-0.161 -1.296,-0.361c-0.97,-0.29 -2.914,-0.864 -4.367,-1.031c-0.023,-0.002 -0.043,-0.009 -0.062,-0.018c-0.164,0.19 -0.48,-0.288 -1.027,-0.742c-0.565,-0.47 -0.606,-0.442 -1.091,-0.54c-0.243,0.68 -0.542,1.653 -0.424,2.145c-0.014,0.019 -0.031,0.037 -0.05,0.055c0.416,-0.038 0.909,-0.055 1.39,0.033c0.479,0.087 0.464,0.599 0.354,0.778c0.511,0.084 1.014,0.296 1.002,1.027c-0.008,0.486 -0.091,0.82 -0.226,1.037c0.164,0.173 0.341,0.401 0.55,0.703c0.498,0.721 0.781,1.29 0.749,1.62c0.003,0 0.006,0 0.009,0.001c1.139,0.16 0.78,0.925 1.187,2.048c0.406,1.124 -0.698,2.286 -1.434,3.061c-0.736,0.775 -1.714,-0.524 -1.714,-0.524c0,0 -0.431,-2.067 -0.077,-3.021c0,0 0.012,-0.023 0.035,-0.063c-0.237,-0.042 -0.462,-0.288 -0.728,-0.673c-0.439,-0.636 -0.596,-0.863 -0.183,-1.316c-0.081,-0.089 -0.176,-0.19 -0.289,-0.307c-0.168,-0.173 0,0 -0.084,-0.591c-0.061,-0.432 0.175,-0.809 0.405,-1.113c-0.097,-0.089 -0.204,-0.179 -0.339,-0.262c-0.042,-0.024 -0.068,-0.04 -0.074,-0.043l-0.001,-0.001c-0.454,-0.249 -0.273,-0.815 -0.216,-0.962l-0.138,0c0,0 -0.679,-0.665 -1.581,-0.882c-0.168,0.035 -0.404,0.084 -0.638,0.132c-0.205,0.12 -0.431,0.241 -0.712,0.334c-2.083,0.3 -4.131,0.172 -6.188,0.066c-1.135,-0.791 -0.312,-0.118 -1.467,-0.65c0.039,-0.093 -0.034,-0.201 -0.154,-0.315c-1.048,0.103 -1.571,1.075 -1.571,1.075l-1.167,-0.128c0.059,0.155 0.23,0.711 -0.218,0.957c0.254,0.338 0.727,0.827 0.644,1.419c-0.084,0.591 0.083,0.418 -0.084,0.591c-0.114,0.117 -0.208,0.218 -0.289,0.306c0.413,0.454 0.256,0.681 -0.183,1.317c-0.1,0.144 -0.194,0.269 -0.285,0.371c0.127,0.13 0.201,0.22 0.201,0.22c0.542,0.861 0.544,2.973 0.544,2.973c0,0 -0.692,1.471 -1.571,0.863c-0.879,-0.607 -2.198,-1.518 -2.03,-2.701c0.168,-1.183 -0.34,-1.858 0.741,-2.248l0,0l0,0c-0.591,-0.084 -0.332,-0.828 0.427,-1.927c0.103,-0.15 0.199,-0.281 0.289,-0.397c-0.357,-0.099 -0.605,-0.485 -0.618,-1.343c-0.018,-1.115 1.159,-1.023 1.738,-1.11c-0.103,-0.06 -0.216,-0.105 -0.337,-0.122c-0.592,-0.084 -0.321,-0.404 0.608,-0.574c0.547,-0.1 1.111,-0.064 1.559,-0.016c0.377,-0.053 0.788,-0.085 1.003,-0.011c-0.135,-0.123 -0.222,-0.239 -0.18,-0.339c-0.091,-0.065 -0.448,-0.659 -0.743,-1.196l-0.724,-0.609c-0.721,0.062 -0.673,-0.04 -1.382,0.399c-0.604,0.375 -0.984,0.804 -1.12,0.593c-0.02,0.007 -0.041,0.01 -0.064,0.01c-1.462,-0.036 -3.467,0.263 -4.467,0.415c-0.742,0.113 -1.184,0.26 -1.375,0.161c-0.095,0.003 -0.103,-0.031 -0.085,-0.092c-0.013,-0.03 -0.021,-0.068 -0.024,-0.112c-0.003,-0.039 -0.012,-0.079 -0.025,-0.12c-0.387,0.468 -0.743,1.09 -0.943,1.405c-0.137,0.78 -0.761,1.874 -0.761,1.874c0,0 -0.544,1.248 -1.103,1.347c-0.075,0.014 -0.143,0.029 -0.205,0.045c0.109,0.358 0.297,1.076 0.259,1.635c-0.054,0.777 -0.193,2.145 -0.193,2.145c0,0 -0.472,-0.492 -0.824,-1.388c-0.239,-0.612 -0.51,-1.396 -0.405,-2.122c-0.026,-0.28 -0.027,-0.566 0.003,-0.852l0.044,-0.017c-0.083,-0.252 0.06,-0.463 0.3,-0.66c0.037,-0.094 0.124,-0.142 0.24,-0.177c0.262,-0.176 0.57,-0.347 0.822,-0.535c0.647,-0.482 0.367,-0.273 0.683,-1.151c-0.005,-0.041 -0.007,-0.081 -0.006,-0.121c0.016,-0.777 1.015,-1.726 1.865,-2.069c0.036,-0.123 0.203,-0.206 0.644,-0.214c1.162,-0.02 3.691,-0.631 4.781,-0.466c0.501,0.075 0.65,0.199 0.752,0.322c-0.009,-0.212 -0.006,-0.322 -0.006,-0.322l0,0l0,0l0.001,-0.001l1.592,-0.765c-0.522,-0.311 -1.061,-0.549 -1.589,-0.689c-0.354,-0.044 -0.662,-0.077 -0.799,-0.088c-0.07,-0.005 -0.141,-0.024 -0.21,-0.052c-0.129,0 -0.256,0.008 -0.38,0.024c-0.239,-0.014 -0.482,-0.098 -0.73,-0.09c0.201,-0.09 0.4,-0.17 0.598,-0.246l-0.672,0.065c-0.039,0.015 -0.077,0.028 -0.114,0.042c-0.322,0.001 -0.618,0.081 -0.911,0.129c0.015,0.028 0.04,0.052 0.075,0.069c0,0 -0.142,-0.014 -0.32,-0.04c-0.254,0.017 -0.511,-0.015 -0.783,-0.169l-0.061,-0.119c0.095,-0.034 0.193,-0.067 0.293,-0.1l-0.022,0c-0.003,0.001 -0.005,0.002 -0.007,0.004c-0.008,0.003 -0.017,0.002 -0.024,-0.003l-0.225,0.005c0.084,-0.024 0.172,-0.052 0.263,-0.084c0.097,-0.047 0.196,-0.085 0.296,-0.116c0.008,-0.004 0.016,-0.008 0.025,-0.011c0.035,-0.024 0.069,-0.046 0.099,-0.064c0.055,-0.033 0.138,-0.066 0.236,-0.098c0.088,-0.047 0.176,-0.097 0.262,-0.15c-0.642,0.098 -1.208,0.255 -1.208,0.255c0,0 0.081,-0.056 0.18,-0.179c-0.224,0.048 -0.571,0.12 -1.047,0.212c-0.928,0.18 -1.257,-0.526 -1.257,-0.526l0.032,-0.036l-0.058,-0.034c-0.07,0.046 -0.147,0.09 -0.233,0.13c-0.641,0.304 -2.287,-0.039 -3.239,0.079c-0.712,0.089 -0.567,-0.628 -0.449,-0.995c-0.875,-0.044 -2.532,-0.394 -3.487,-1.295c-1.046,-0.987 -1.973,-2.642 -2.08,-4.113c-0.107,-1.472 -0.174,-1.055 0.834,0.133c0.836,0.985 1.033,2.02 1.076,2.346c0.014,0.051 0.026,0.101 0.035,0.148l0.283,0.534c0,0 -0.389,0.196 0.628,0.167c1.016,-0.03 3.194,0.98 4.115,1.192c0.229,0.052 0.288,0.114 0.243,0.182c0.026,0.018 0.058,0.035 0.095,0.052c0.054,0.024 0.112,0.039 0.166,0.048c0.12,-0.07 0.239,-0.084 0.55,0.101c0.624,0.372 1.417,0.273 2.041,0.645c0,0 -0.013,0.035 -0.044,0.092c0.015,0.004 0.03,0.008 0.046,0.012l0.069,-0.077c0.002,-0.007 0.004,-0.015 0.007,-0.023c-0.021,-0.077 -0.054,-0.528 2.078,-0.655l-0.007,0.122c0.12,-0.03 0.3,-0.043 0.564,-0.036c0.914,0.025 1.467,0.003 1.724,-0.014c0.151,-0.139 0.277,-0.305 0.396,-0.45c-1.136,-0.374 -2.723,-1.248 -2.607,-1.43c-0.948,-0.128 -2.304,-0.489 -3.152,-0.581c-0.803,-0.086 -0.591,-0.642 -0.402,-0.955c-0.134,-0.01 -0.278,-0.035 -0.436,-0.085c-0.919,-0.289 -1.669,-2.152 -2.473,-2.776c-0.479,-0.372 -0.312,-0.7 -0.017,-1.041c-0.785,-1.638 -0.886,-4.847 0.005,-4.846c-0.26,0.725 0.515,2.777 0.902,3.836c0.211,-0.018 0.393,0.428 0.798,0.963c0.57,0.754 1.718,2.255 2.785,2.94c0.687,0.441 0.915,0.754 0.738,0.894c0.154,-0.038 0.29,-0.033 0.663,0.206c0.69,0.444 1.594,0.552 2.297,0.975c0.035,0.008 0.072,0.021 0.111,0.039c0.491,0.224 1.424,0.297 2,0.493c0.073,-0.053 0.167,-0.096 0.368,-0.218c0.45,-0.272 0.235,-0.707 0.7,-0.752c0.315,-0.031 0.367,-0.141 0.508,-0.294c-0.309,-0.044 -0.53,-0.308 -1.074,-0.735c-0.204,-0.056 -0.367,-0.196 -0.618,-0.411c-0.692,-0.377 -1.39,-0.526 -1.669,-0.655c-0.348,-0.162 -0.92,-0.651 -1.417,-1.031c-0.497,-0.381 -1.382,-1.215 -1.033,-1.053c0.349,0.162 0.585,-0.078 0.585,-0.078c0,0 -0.057,-0.201 -0.48,-0.472c-0.191,-0.123 -0.21,-0.232 -0.135,-0.333c-0.092,-0.058 -0.272,-0.204 -0.565,-0.567c-0.457,-0.567 -0.402,-1.317 -0.274,-1.958c0.034,-0.172 0.075,-0.274 0.121,-0.346l0.021,-0.096c-0.005,0.006 -0.011,0.011 -0.016,0.016c-0.009,-0.061 -0.015,-0.123 -0.016,-0.186c-0.02,0.017 -0.039,0.034 -0.058,0.051c-0.239,-1.62 2.127,-3.926 2.957,-4.679c0.46,-0.424 0.727,-1.181 0.777,-1.681c0.187,0.142 0.365,0.301 0.495,0.424Zm16.267,21.53c-0.098,0.153 -0.192,0.285 -0.26,0.334l-0.043,0.633c0.103,-0.273 0.207,-0.621 0.313,-0.956l-0.01,-0.011Zm-12.161,0.146c0.068,0.072 0.134,0.145 0.199,0.218l-0.052,-0.159l-0.147,-0.059Zm-0.103,-0.387c-0.173,-0.288 -0.33,-0.501 -0.442,-0.539c0,0.028 0.029,0.103 0.078,0.21l0.364,0.329Zm17.507,-2.951l-0.028,0.001c0.002,0.002 0.004,0.005 0.007,0.007c0.007,-0.003 0.014,-0.005 0.021,-0.008Zm0.554,-10.958c-0.004,0 -0.008,0 -0.011,0c0.004,0.001 0.008,0.001 0.012,0.002l-0.001,-0.002Zm-23.633,-2.557c-0.008,0.032 -0.015,0.064 -0.021,0.097c0.006,-0.021 0.013,-0.041 0.02,-0.062c0,-0.012 0.001,-0.024 0.001,-0.035Zm19.911,-1.756c0,0.002 0,0.004 0,0.005c0.001,-0.001 0.003,-0.002 0.004,-0.004c-0.001,0 -0.003,0 -0.004,-0.001Zm1.234,-0.038l0,0l0,0.001l0,-0.001l0,0Zm-3.243,-0.805c0.042,0.006 0.085,0.014 0.127,0.021c-0.059,-0.014 -0.103,-0.021 -0.127,-0.021Zm4.471,-0.215c0,0.001 0.001,0.002 0.001,0.002l0.008,0.004c-0.003,-0.002 -0.006,-0.004 -0.009,-0.006Z" style="fill:#1b1b1a;fill-rule:nonzero;"/></g></g></g></svg>