<?xml version="1.0" encoding="UTF-8" standalone="no"?><!DOCTYPE svg PUBLIC "-//W3C//DTD SVG 1.1//EN" "http://www.w3.org/Graphics/SVG/1.1/DTD/svg11.dtd"><svg width="100%" height="100%" viewBox="0 0 64 64" version="1.1" xmlns="http://www.w3.org/2000/svg" xmlns:xlink="http://www.w3.org/1999/xlink" xml:space="preserve" xmlns:serif="http://www.serif.com/" style="fill-rule:evenodd;clip-rule:evenodd;stroke-miterlimit:10;"><g id="Species"><g id="Invertebrates"><g id="crab"><path id="Outline" d="M61.126,31.687c0,-16.179 -13.135,-29.313 -29.313,-29.313c-16.178,0 -29.313,13.134 -29.313,29.313c0,16.178 13.135,29.313 29.313,29.313c16.178,0 29.313,-13.135 29.313,-29.313Z" style="fill:none;stroke:#000;stroke-width:3px;"/><path d="M21.862,17.489c0.378,-0.195 2.159,-1.119 2.77,-1.561c0.685,-0.495 1.692,-0.732 2.357,-0.831c0.665,-0.1 1.255,-0.005 1.506,0.271c0.251,0.276 0.313,0.345 -0.076,0.194c-0.696,-0.27 -1.343,0.117 -2.129,0.673c-0.762,0.538 -1.393,1.137 -1.801,1.382c-0.409,0.244 -0.861,0.717 -0.704,0.89l0,0c0.104,0.02 0.213,0.067 0.32,0.129c0,-0.007 0,-0.014 0.001,-0.021c-0.062,-0.021 -0.177,-0.221 -0.177,-0.221c0.027,-0.023 0.058,-0.048 0.093,-0.076c-0.046,-0.128 0.089,-0.195 0.278,-0.212c0.269,-0.199 0.595,-0.425 0.819,-0.558c1.191,-0.701 0.886,-0.551 1.696,-0.908c0.434,-0.191 1.028,-0.297 1.519,-0.498c0.074,-0.066 0.16,-0.144 0.267,-0.24c0,0 -0.042,0.068 -0.115,0.172c0.354,-0.169 0.632,-0.405 0.719,-0.786c0,0 0.143,0.833 -1.394,1.582c0,0 0.004,-0.003 0.01,-0.009c-0.291,0.261 -0.811,0.55 -1.262,0.85c0.03,-0.017 0.044,-0.024 0.039,-0.02c-0.016,0.014 -0.138,0.094 -0.306,0.205c-0.094,0.069 -0.181,0.139 -0.258,0.209c-0.307,0.278 -0.901,0.826 -1.299,1.241c-0.007,-0.009 -0.013,-0.019 -0.019,-0.028l-0.275,0.304c-0.129,0.301 -0.386,0.735 -0.714,1.213c-0.72,1.258 -1.921,2.696 -2.817,3.006l0.134,0.469c0.281,0.082 0.434,0.169 0.434,0.169c0,0 0.01,0.474 -0.111,0.77c0.252,-0.091 0.388,-0.046 0.708,0.084c0.04,0.016 0.078,0.034 0.115,0.052c0.067,0.005 0.101,-0.006 0.101,-0.006c0.053,0.317 0.072,-0.46 0.14,-0.42c0.233,0.14 0.19,0.14 0.42,0.56c0.136,0.249 0,0.233 0.233,0.373c0.233,0.14 0.14,0.28 0.373,0.28c0.234,0 0.237,-0.233 0.144,-0.56c-0.088,-0.308 0.069,-0.242 0.205,0.078c0.051,0.09 0.1,0.197 0.142,0.312c0.125,0.223 0.256,0.38 0.256,0.59c0,0.28 0.093,0.14 0.28,0.187c0.186,0.046 0.514,0.487 0.746,0.513c0.42,0.046 0.33,-0.421 0.373,-0.607c0.187,0.047 0.373,0.607 0.373,0.84c0,0.233 0,0.42 0.14,0.653c0,0 0.124,0.139 0.271,0.317c0.294,0.234 0.573,0.501 0.765,0.808c0.057,-0.007 0.121,-0.014 0.196,-0.021c0.558,-0.054 1.116,-0.373 1.116,-0.373c0.04,-0.021 0.081,-0.041 0.122,-0.06c0.052,-0.036 0.112,-0.07 0.177,-0.098c-0.002,0 -0.004,0.002 -0.006,0.002c0.014,-0.009 0.029,-0.017 0.043,-0.026c0.008,-0.005 0.02,-0.009 0.033,-0.011c0.039,-0.006 0.079,-0.011 0.119,-0.014c0.023,-0.002 0.046,-0.003 0.069,-0.003c0.012,-0.004 0.025,-0.007 0.038,-0.01c0.167,-0.08 0.34,-0.117 0.492,-0.098c0.03,-0.005 0.06,-0.01 0.09,-0.015c0.107,-0.087 0.243,-0.168 0.396,-0.183c0.086,-0.011 0.152,0.001 0.207,0.024c0.042,-0.016 0.085,-0.028 0.13,-0.03c0.019,0.001 0.039,0.001 0.059,0.001c0.042,-0.015 0.084,-0.031 0.126,-0.049c-0.051,-0.187 -0.021,-0.335 0.118,-0.414c0.003,-0.003 0.007,-0.005 0.01,-0.006c0.281,-0.158 0.283,-0.061 0.405,0.268c0.102,-0.009 0.2,-0.036 0.296,-0.075c0.011,-0.008 0.023,-0.016 0.035,-0.023c0.01,-0.002 0.021,-0.004 0.031,-0.006c0.1,-0.046 0.198,-0.103 0.296,-0.164c-0.005,-0.005 -0.009,-0.01 -0.014,-0.016c-0.125,-0.145 -0.267,-0.309 -0.423,-0.537c-0.592,-0.861 -0.663,-1.61 -0.207,-2.167l0.326,-0.398l-0.151,0.492c-0.293,0.954 -0.164,1.534 0.478,2.143c0.105,0.099 0.196,0.202 0.276,0.306c0.225,-0.135 0.458,-0.249 0.716,-0.25c0.163,0.061 0.244,-0.132 0.43,-0.098c0.431,-0.003 0.691,0.478 1.049,0.611c0.017,-0.019 0.034,-0.039 0.052,-0.058c0.421,-0.456 0.61,-0.865 0.578,-1.247c-0.032,-0.378 -0.278,-0.741 -0.752,-1.11l-0.386,-0.299l0.473,0.122c0.592,0.152 0.82,0.524 0.908,0.809c0.176,0.577 -0.07,1.272 -0.391,1.633l-0.065,0.073c-0.026,0.029 -0.051,0.058 -0.076,0.085c0.003,-0.001 0.005,-0.002 0.008,-0.002c0.383,0.045 0.569,0.448 0.896,0.465c0.055,-0.25 0.088,-0.357 0.296,-0.354c0.236,0.003 0.263,0.165 0.186,0.506c0.345,0.039 0.603,0.106 0.795,0.186c0.093,0.008 0.184,0.022 0.272,0.047l0.412,0.129c0,0 0.494,0.409 0.704,0.681c0,0 0,0 0.001,0c0.027,0.024 0.054,0.047 0.081,0.07c0.226,0.121 0.586,-0.145 0.776,0.241c0.029,0.057 0.057,0.109 0.086,0.156l0.078,-0.026c-0.001,-0.007 -0.001,-0.014 -0.001,-0.021c0,-0.21 0.035,-0.21 0.595,-0.805c0.046,-0.05 0.109,-0.108 0.186,-0.174c0.05,-0.059 0.082,-0.094 0.082,-0.094c0.14,-0.234 0.14,-0.42 0.14,-0.653c0,-0.234 0.187,-0.793 0.373,-0.84c0.187,-0.047 -0.046,0.653 0.373,0.606c0.232,-0.025 0.56,-0.466 0.747,-0.513c0.186,-0.046 0.279,0.093 0.279,-0.186c0,-0.28 0.234,-0.467 0.374,-0.84c0.14,-0.373 0.42,-0.56 0.326,-0.233c-0.093,0.326 -0.186,0.653 0.047,0.653c0.233,0 0.14,-0.14 0.373,-0.28c0.233,-0.14 0.187,-0.093 0.233,-0.373c0.045,-0.269 0.176,-0.409 0.392,-0.543c0.06,-0.089 0.115,-0.12 0.121,-0.034c0.111,0.051 0.047,0.437 0.047,0.437c0,0 0.075,0.025 0.224,-0.016c0.019,-0.01 0.038,-0.02 0.057,-0.029c0.014,-0.016 0.03,-0.033 0.046,-0.048c0.107,-0.108 0.105,-0.161 0.203,-0.031c0.003,0 0.005,0 0.007,0l0,0l0,0c0.022,-0.001 0.041,0.002 0.058,0.007c0.001,0.001 0.003,0.001 0.005,0.002c0.014,-0.01 0.027,-0.02 0.041,-0.03c-0.152,-0.289 -0.269,-0.657 -0.167,-0.995c-0.046,0.019 -0.094,0.036 -0.141,0.05l-0.407,-0.115l0.117,-0.144c-0.88,0.014 -2.22,-1.1 -3.066,-2.18c-0.366,-0.385 -0.66,-0.747 -0.817,-1.013l-0.295,-0.223c-0.005,0.011 -0.01,0.023 -0.015,0.034c-0.425,-0.298 -1.049,-0.669 -1.371,-0.856c-0.502,-0.292 -1.385,-0.452 -1.825,-0.701c0.004,0.003 0.006,0.004 0.006,0.004c-1.055,-0.433 -0.955,-0.915 -0.955,-0.915c0.653,0.379 1.059,0.255 1.863,0.362c0.804,0.107 0.499,0.05 1.703,0.389c0.335,0.094 1.057,0.424 1.347,0.569c0.008,-0.004 0.015,-0.009 0.023,-0.013c0.126,-0.227 -0.356,-0.567 -0.769,-0.687c-0.414,-0.12 -1.079,-0.532 -1.86,-0.84c-0.807,-0.319 -1.462,-0.508 -2.082,-0.01c-0.347,0.279 -0.297,0.188 -0.095,-0.175c0.202,-0.362 0.745,-0.647 1.382,-0.757c0.637,-0.11 1.637,-0.01 2.34,0.279c0.269,0.11 0.65,0.25 1.016,0.38c0.155,0.05 0.325,0.109 0.492,0.173c0.373,0.129 0.652,0.222 0.652,0.222c0,0 0.25,0.238 0.299,0.324c0.042,0.074 0.055,0.145 0.035,0.228c0.017,0 0.034,-0.001 0.051,-0.001c-0.01,-0.025 -0.063,-0.174 -0.013,-0.362l-0.011,-0.279c0,0 0.078,0.055 0.186,0.14c0.186,0.143 0.48,0.378 0.731,0.618c0.189,0.086 0.408,0.191 0.658,0.336c0.754,0.438 2.757,2.03 3.251,3.056c0.047,-0.198 -0.003,-0.43 -0.026,-0.694c-0.04,-0.461 0.544,0.277 0.314,1.284c0.1,0.065 0.195,0.155 0.298,0.283c0.249,0.308 0.723,1.133 0.701,1.342c-0.023,0.209 0.231,-0.186 0.357,0.602c0.075,0.464 0.061,0.846 0.016,1.136c0.034,0.036 0.069,0.08 0.101,0.133c0.037,0.061 0.051,0.119 0.05,0.176c-0.001,0.162 -0.121,0.318 -0.19,0.524c-0.094,0.28 -0.327,0.653 -0.42,0.933l0,0.001c-0.07,0.209 -0.192,0.366 -0.347,0.452c0.006,0.017 0.01,0.034 0.012,0.053c0.007,0.124 -0.133,0.279 -0.796,0.579c-1.084,0.489 -2.551,1.048 -3.217,1.398l-0.002,0.001c-0.013,0.007 -0.026,0.014 -0.039,0.021l0.001,0c0.012,-0.007 0.025,-0.014 0.038,-0.021c-0.013,0.009 -0.026,0.016 -0.038,0.021c-0.027,0.014 -0.054,0.027 -0.079,0.041c-0.481,0.251 -0.729,0.365 -1.045,0.51c-0.064,0.029 -0.13,0.06 -0.202,0.093c-0.074,0.034 -0.134,0.051 -0.184,0.055c0.039,0.028 0.077,0.082 0.115,0.187c0.009,0.013 0.018,0.029 0.025,0.046c0.335,-0.027 0.655,-0.061 0.889,-0.137c0.04,-0.013 0.078,-0.021 0.114,-0.026c0.747,-0.339 1.657,-0.343 2.394,-0.704c0.398,-0.195 0.534,-0.184 0.683,-0.129c-0.16,-0.159 0.102,-0.444 0.836,-0.803c1.137,-0.558 2.45,-1.917 3.103,-2.6c0.484,-0.507 0.716,-0.946 0.932,-0.857c0.07,-0.046 0.101,0.01 0.13,0.121c0.012,0.018 0.024,0.037 0.036,0.059c0.658,-0.857 1.955,-2.507 1.838,-3.199c0.974,0.181 0.113,3.049 -1.126,4.316c0.158,0.298 0.167,0.576 -0.258,0.834c-0.87,0.528 -1.829,2.292 -2.775,2.474c-0.163,0.031 -0.309,0.04 -0.443,0.034c0.151,0.332 0.298,0.909 -0.509,0.903c-0.853,-0.007 -2.242,0.196 -3.199,0.214c0.073,0.148 -0.881,0.581 -1.858,0.885c0.033,0.063 0.064,0.125 0.094,0.186c0.112,0.227 0.242,0.328 0.357,0.436c0.3,-0.055 0.781,-0.156 1.468,-0.334c0.256,-0.066 0.435,-0.093 0.558,-0.091l-0.034,-0.117c1.833,-0.307 2.123,-0.008 2.165,0.128l0.091,0.017c0.525,-0.494 1.314,-0.577 1.836,-1.077c0.294,-0.281 0.408,-0.262 0.565,-0.202c0.053,-0.019 0.109,-0.046 0.154,-0.082c0.029,-0.023 0.051,-0.044 0.067,-0.065c-0.11,-0.059 -0.093,-0.139 0.155,-0.26c0.851,-0.412 2.748,-1.882 3.746,-2.08c1.561,-0.311 0.711,-0.33 0.583,-0.311l-0.009,0.008c-0.012,-0.003 -0.007,-0.006 0.009,-0.008l0.635,-0.623c0,0 -0.057,-0.778 1.081,-1.842c1.137,-1.065 1.118,-1.487 0.844,-0.037c-0.11,0.58 -0.358,1.05 -0.668,1.481c-0.229,0.429 -0.551,0.867 -1.003,1.259l0.055,-0.112c-0.207,0.245 -0.41,0.499 -0.596,0.777c-0.729,1.091 -2.266,1.803 -3.11,2.041c0.198,0.331 0.499,0.997 -0.215,1.07c-0.954,0.097 -2.482,0.8 -3.174,0.647c-0.078,-0.018 -0.15,-0.038 -0.217,-0.061c-0.017,0.019 -0.035,0.039 -0.052,0.058l0.003,0.002c0,0 -0.164,0.761 -1.108,0.794c-0.485,0.016 -0.838,0.023 -1.068,0.027c0.124,0.097 0.216,0.134 0.216,0.134c0,0 -0.779,-0.035 -1.53,0.048c-0.307,0.035 -0.584,0.065 -0.866,0.11c0.055,0.124 0.169,0.252 0.204,0.324c0.412,0.139 1.093,0.473 1.29,0.494c0.282,0.029 0.34,0.195 0.111,0.274c-0.229,0.08 -0.597,0.173 -0.926,0.148c-0.139,-0.011 -0.675,0.012 -1.28,0.056c-0.806,0.155 -1.618,0.417 -2.418,0.599c-0.084,0.007 -1.094,0.417 -1.679,0.642c-0.039,0.02 -0.077,0.039 -0.114,0.058l1.558,1.036c0,0 -0.012,0.111 -0.05,0.319c0.118,-0.108 0.282,-0.21 0.789,-0.215c1.102,-0.012 3.522,0.943 4.67,1.125c0.509,0.08 0.634,0.21 0.608,0.365c0.67,0.281 1.403,0.885 1.688,1.491c0.058,0.05 0.119,0.113 0.182,0.192c0.689,0.86 0.289,0.723 1.088,0.997c0.741,0.254 1.782,0.303 1.713,0.945c0.878,0.439 1.209,1.527 1.414,2.349c0.233,0.935 0.134,1.609 0.134,1.609c0,0 -0.907,-1.034 -1.401,-1.636c-0.358,-0.437 -0.622,-1.139 -0.74,-1.491c-0.131,0.022 -0.289,0.018 -0.493,0.046c-0.562,0.076 -1.462,-0.947 -1.462,-0.947c0,0 -0.823,-0.755 -1.227,-1.428l-0.108,-0.007c0,0 -0.001,0 -0.001,0l0,0c-0.148,-0.159 -0.617,-0.956 -1.123,-1.518c-0.006,0.017 -0.011,0.035 -0.015,0.052c-0.011,0.053 -0.028,0.094 -0.051,0.125c0.011,0.078 -0.004,0.115 -0.128,0.073c-0.217,0.034 -0.626,-0.16 -1.297,-0.36c-0.969,-0.29 -2.914,-0.864 -4.366,-1.031c-0.023,-0.003 -0.044,-0.009 -0.063,-0.018c-0.163,0.19 -0.48,-0.288 -1.026,-0.743c-0.565,-0.469 -0.607,-0.441 -1.092,-0.539c-0.242,0.679 -0.542,1.653 -0.424,2.144c-0.014,0.02 -0.031,0.038 -0.05,0.055c0.416,-0.038 0.91,-0.054 1.391,0.033c0.479,0.088 0.464,0.6 0.353,0.779c0.511,0.083 1.014,0.295 1.003,1.027c-0.008,0.486 -0.091,0.82 -0.226,1.037c0.164,0.172 0.341,0.401 0.549,0.703c0.499,0.721 0.782,1.29 0.75,1.619c0.003,0.001 0.006,0.001 0.009,0.002c1.138,0.16 0.779,0.925 1.186,2.048c0.407,1.123 -0.697,2.286 -1.434,3.06c-0.735,0.775 -1.713,-0.523 -1.713,-0.523c0,0 -0.431,-2.067 -0.078,-3.021c0,0 0.012,-0.023 0.035,-0.064c-0.236,-0.041 -0.462,-0.287 -0.728,-0.672c-0.439,-0.636 -0.595,-0.863 -0.182,-1.317c-0.081,-0.088 -0.176,-0.19 -0.289,-0.306c-0.168,-0.173 0,0 -0.084,-0.591c-0.061,-0.432 0.174,-0.809 0.405,-1.113c-0.097,-0.089 -0.204,-0.179 -0.339,-0.262c-0.042,-0.025 -0.068,-0.04 -0.074,-0.044l-0.001,0c-0.454,-0.249 -0.273,-0.816 -0.217,-0.962l-0.138,0c0,0 -0.678,-0.665 -1.581,-0.883c-0.168,0.036 -0.403,0.085 -0.637,0.132c-0.205,0.12 -0.432,0.242 -0.713,0.335c-2.082,0.299 -4.13,0.172 -6.187,0.066c-1.136,-0.791 -0.312,-0.118 -1.468,-0.65c0.04,-0.094 -0.033,-0.201 -0.154,-0.315c-1.047,0.103 -1.571,1.074 -1.571,1.074l-1.166,-0.127c0.058,0.155 0.23,0.71 -0.219,0.957c0.254,0.337 0.728,0.827 0.644,1.418c-0.084,0.592 0.084,0.418 -0.084,0.592c-0.113,0.116 -0.208,0.218 -0.289,0.306c0.413,0.454 0.256,0.681 -0.183,1.317c-0.099,0.144 -0.193,0.269 -0.285,0.371c0.128,0.13 0.202,0.22 0.202,0.22c0.541,0.861 0.543,2.973 0.543,2.973c0,0 -0.691,1.471 -1.57,0.863c-0.88,-0.607 -2.198,-1.518 -2.031,-2.701c0.168,-1.183 -0.34,-1.858 0.742,-2.248l0,0l0,0c-0.592,-0.084 -0.332,-0.829 0.427,-1.928c0.103,-0.149 0.199,-0.281 0.289,-0.396c-0.357,-0.099 -0.605,-0.486 -0.619,-1.343c-0.017,-1.115 1.159,-1.023 1.738,-1.11c-0.102,-0.06 -0.215,-0.105 -0.337,-0.122c-0.591,-0.084 -0.321,-0.404 0.608,-0.574c0.548,-0.1 1.112,-0.064 1.559,-0.016c0.377,-0.054 0.789,-0.086 1.003,-0.011c-0.135,-0.123 -0.221,-0.239 -0.179,-0.339c-0.092,-0.065 -0.448,-0.659 -0.743,-1.196l-0.724,-0.61c-0.722,0.063 -0.674,-0.039 -1.382,0.4c-0.605,0.374 -0.985,0.804 -1.12,0.593c-0.02,0.007 -0.041,0.01 -0.064,0.009c-1.463,-0.036 -3.467,0.264 -4.467,0.416c-0.742,0.113 -1.185,0.26 -1.375,0.161c-0.095,0.003 -0.104,-0.032 -0.085,-0.092c-0.014,-0.031 -0.022,-0.068 -0.025,-0.113c-0.002,-0.039 -0.011,-0.079 -0.024,-0.119c-0.387,0.468 -0.744,1.09 -0.943,1.405c-0.137,0.779 -0.761,1.873 -0.761,1.873c0,0 -0.545,1.249 -1.103,1.348c-0.075,0.014 -0.143,0.029 -0.205,0.044c0.108,0.359 0.297,1.076 0.258,1.636c-0.053,0.777 -0.193,2.145 -0.193,2.145c0,0 -0.471,-0.492 -0.823,-1.388c-0.24,-0.612 -0.51,-1.396 -0.406,-2.122c-0.025,-0.281 -0.027,-0.567 0.004,-0.853l0.044,-0.016c-0.084,-0.252 0.06,-0.463 0.299,-0.661c0.038,-0.093 0.124,-0.142 0.241,-0.176c0.261,-0.176 0.569,-0.347 0.821,-0.535c0.648,-0.482 0.368,-0.273 0.684,-1.152c-0.005,-0.04 -0.007,-0.08 -0.006,-0.121c0.015,-0.776 1.015,-1.725 1.864,-2.069c0.037,-0.122 0.204,-0.205 0.645,-0.213c1.162,-0.02 3.691,-0.631 4.781,-0.467c0.501,0.076 0.65,0.2 0.751,0.323c-0.009,-0.212 -0.005,-0.323 -0.005,-0.323l0,0l0,0l0,0l1.593,-0.765c-0.522,-0.311 -1.062,-0.55 -1.59,-0.689c-0.354,-0.044 -0.662,-0.077 -0.799,-0.088c-0.069,-0.005 -0.14,-0.025 -0.209,-0.052c-0.129,0 -0.256,0.008 -0.381,0.024c-0.239,-0.014 -0.481,-0.098 -0.729,-0.09c0.201,-0.09 0.4,-0.171 0.597,-0.247l-0.671,0.066c-0.039,0.014 -0.077,0.028 -0.115,0.042c-0.321,0.001 -0.617,0.081 -0.91,0.128c0.015,0.028 0.039,0.053 0.075,0.07c0,0 -0.142,-0.015 -0.32,-0.04c-0.255,0.017 -0.511,-0.015 -0.784,-0.169l-0.061,-0.12c0.095,-0.033 0.194,-0.066 0.294,-0.099l-0.023,0c-0.002,0.001 -0.004,0.002 -0.006,0.003c-0.009,0.004 -0.017,0.003 -0.024,-0.002l-0.225,0.005c0.084,-0.024 0.172,-0.052 0.263,-0.084c0.097,-0.048 0.196,-0.085 0.295,-0.117c0.009,-0.003 0.017,-0.007 0.025,-0.011c0.036,-0.023 0.069,-0.045 0.099,-0.063c0.055,-0.033 0.139,-0.066 0.236,-0.098c0.089,-0.047 0.176,-0.097 0.262,-0.15c-0.641,0.098 -1.208,0.255 -1.208,0.255c0,0 0.081,-0.056 0.181,-0.179c-0.225,0.048 -0.571,0.12 -1.048,0.212c-0.927,0.179 -1.256,-0.526 -1.256,-0.526l0.032,-0.036l-0.059,-0.034c-0.069,0.045 -0.147,0.089 -0.233,0.13c-0.64,0.304 -2.286,-0.04 -3.238,0.079c-0.712,0.088 -0.568,-0.628 -0.449,-0.995c-0.875,-0.044 -2.533,-0.394 -3.487,-1.295c-1.047,-0.987 -1.974,-2.642 -2.08,-4.114c-0.107,-1.471 -0.174,-1.054 0.834,0.134c0.836,0.985 1.033,2.02 1.076,2.345c0.014,0.052 0.026,0.101 0.035,0.149l0.283,0.534c0,0 -0.39,0.196 0.627,0.167c1.017,-0.03 3.195,0.979 4.116,1.191c0.229,0.053 0.288,0.115 0.243,0.183c0.026,0.017 0.057,0.035 0.094,0.051c0.055,0.024 0.113,0.04 0.167,0.049c0.12,-0.071 0.239,-0.085 0.55,0.101c0.623,0.372 1.417,0.273 2.04,0.645c0,0 -0.012,0.035 -0.044,0.092c0.015,0.004 0.031,0.008 0.046,0.012l0.07,-0.077c0.001,-0.007 0.003,-0.015 0.007,-0.023c-0.022,-0.077 -0.055,-0.529 2.077,-0.655l-0.006,0.121c0.119,-0.03 0.299,-0.043 0.563,-0.035c0.915,0.025 1.467,0.002 1.724,-0.014c0.152,-0.139 0.277,-0.305 0.396,-0.45c-1.135,-0.374 -2.722,-1.248 -2.606,-1.43c-0.949,-0.128 -2.305,-0.489 -3.153,-0.581c-0.803,-0.086 -0.59,-0.643 -0.402,-0.955c-0.133,-0.01 -0.277,-0.035 -0.436,-0.085c-0.918,-0.289 -1.669,-2.153 -2.472,-2.776c-0.479,-0.372 -0.312,-0.7 -0.017,-1.041c-0.785,-1.639 -0.886,-4.847 0.005,-4.846c-0.26,0.725 0.514,2.777 0.901,3.835c0.212,-0.018 0.394,0.429 0.799,0.964c0.57,0.753 1.718,2.254 2.784,2.939c0.688,0.442 0.915,0.755 0.738,0.894c0.154,-0.037 0.291,-0.032 0.664,0.207c0.689,0.444 1.594,0.552 2.296,0.975c0.036,0.008 0.072,0.021 0.111,0.038c0.492,0.225 1.425,0.298 2.001,0.494c0.073,-0.054 0.167,-0.097 0.368,-0.218c0.45,-0.272 0.234,-0.708 0.699,-0.753c0.316,-0.03 0.367,-0.14 0.509,-0.293c-0.309,-0.045 -0.531,-0.308 -1.075,-0.735c-0.203,-0.056 -0.366,-0.196 -0.617,-0.411c-0.692,-0.377 -1.39,-0.526 -1.669,-0.656c-0.349,-0.161 -0.92,-0.651 -1.417,-1.031c-0.497,-0.38 -1.382,-1.214 -1.034,-1.052c0.349,0.161 0.585,-0.078 0.585,-0.078c0,0 -0.056,-0.201 -0.479,-0.472c-0.192,-0.123 -0.211,-0.232 -0.135,-0.334c-0.092,-0.057 -0.272,-0.203 -0.565,-0.566c-0.458,-0.567 -0.403,-1.318 -0.275,-1.958c0.035,-0.172 0.076,-0.275 0.122,-0.346l0.021,-0.096c-0.006,0.005 -0.011,0.01 -0.017,0.016c-0.009,-0.061 -0.014,-0.123 -0.016,-0.186c-0.019,0.017 -0.039,0.034 -0.057,0.051c-0.239,-1.62 2.127,-3.927 2.956,-4.679c0.46,-0.424 0.728,-1.181 0.777,-1.681c0.188,0.141 0.365,0.3 0.495,0.424Zm16.268,21.53c-0.098,0.153 -0.192,0.284 -0.26,0.334l-0.044,0.632c0.103,-0.272 0.208,-0.621 0.314,-0.956l-0.01,-0.01Zm-12.161,0.146c0.067,0.072 0.134,0.145 0.199,0.218l-0.052,-0.159l-0.147,-0.059Zm-0.104,-0.387c-0.172,-0.289 -0.329,-0.502 -0.442,-0.539c0,0.028 0.029,0.103 0.079,0.21l0.363,0.329Zm17.508,-2.951l-0.028,0.001c0.002,0.002 0.004,0.004 0.006,0.007c0.008,-0.003 0.015,-0.005 0.022,-0.008Zm0.553,-10.958c-0.003,0 -0.007,0 -0.011,0c0.004,0.001 0.008,0.001 0.012,0.001l-0.001,-0.001Zm-23.632,-2.558c-0.009,0.033 -0.016,0.065 -0.022,0.098c0.007,-0.021 0.013,-0.042 0.02,-0.062c0.001,-0.012 0.001,-0.024 0.002,-0.036Zm19.91,-1.755c0,0.002 0.001,0.003 0.001,0.005c0.001,-0.001 0.002,-0.003 0.004,-0.004c-0.002,0 -0.003,-0.001 -0.005,-0.001Zm1.235,-0.038l0,0l0,0l0,0l0,0Zm-3.244,-0.806c0.043,0.007 0.085,0.014 0.127,0.022c-0.059,-0.014 -0.103,-0.022 -0.127,-0.022Zm4.472,-0.214c0,0.001 0,0.001 0.001,0.002l0.008,0.003c-0.003,-0.001 -0.006,-0.003 -0.009,-0.005Z" style="fill:#1b1b1a;fill-rule:nonzero;"/></g></g></g></svg>