<?xml version="1.0" encoding="UTF-8" standalone="no"?><!DOCTYPE svg PUBLIC "-//W3C//DTD SVG 1.1//EN" "http://www.w3.org/Graphics/SVG/1.1/DTD/svg11.dtd"><svg width="100%" height="100%" viewBox="0 0 64 64" version="1.1" xmlns="http://www.w3.org/2000/svg" xmlns:xlink="http://www.w3.org/1999/xlink" xml:space="preserve" xmlns:serif="http://www.serif.com/" style="fill-rule:evenodd;clip-rule:evenodd;stroke-miterlimit:10;"><g id="Species"><g id="Fish"><g id="estuarine_fish"><path id="Outline" d="M138.626,31.687c0,-16.179 -13.135,-29.313 -29.313,-29.313c-16.178,0 -29.313,13.134 -29.313,29.313c0,16.178 13.135,29.313 29.313,29.313c16.178,0 29.313,-13.135 29.313,-29.313Z" style="fill:none;stroke:#000;stroke-width:3px;"/></g><g id="marine_fish"><path d="M45.268,25.313c0.578,1.027 1.017,2.01 1.32,2.89c1.065,3.092 1.578,8.065 0.772,9.83c-0.577,1.265 -1.04,2.39 -1.899,3.652c0,0 0.236,1.886 0.2,2.831c-0.025,0.642 -0.205,1.731 -0.321,2.377c-0.021,0.117 -0.099,0.217 -0.208,0.264c-0.109,0.048 -0.235,0.038 -0.335,-0.027c-0.886,-0.575 -2.785,-1.806 -2.785,-1.806c-3.911,3.414 -12.585,6.732 -12.585,6.732c0,0 1.799,-3.437 1.936,-5.555c0.14,-2.183 -2.054,-6.007 -3.748,-7.449c1.202,-0.475 4.192,0.735 6.151,0.611c2.255,-0.144 7.001,-1.153 7.267,-2.535c0.421,-2.19 -4.329,-3.368 -11.348,-6.089c1.37,2.077 2.012,4.051 1.434,4.439c-0.589,0.396 -2.224,-1.003 -3.648,-3.123c-0.21,-0.313 -0.404,-0.624 -0.581,-0.928c-0.005,0.034 -0.011,0.068 -0.018,0.102c-0.387,2.117 -1.38,3.711 -2.216,3.558c-0.836,-0.153 -1.2,-1.996 -0.813,-4.112c0.13,-0.713 0.329,-1.366 0.567,-1.913c-2.533,-0.881 -5.904,-2.058 -8.961,-3.406c-1.806,-0.797 -3.546,-1.87 -4.472,-2.598c-0.532,-0.42 -0.808,-1.228 -0.856,-1.57c-0.034,-0.247 0.607,-0.237 0.57,-0.484c-0.072,-0.479 -0.709,-2.155 -0.992,-2.884c-0.074,-0.195 0.015,-0.414 0.203,-0.504c2.003,-0.916 5.184,-1.846 7.28,-2.274c3.121,-0.636 6.831,-1.446 10.923,-1.12l1.86,-2.308l0.374,0.42l1.414,-1.261c0.917,0.265 1.86,0.749 2.727,1.443c1.6,1.279 2.559,2.963 2.687,4.448l4.159,-0.281c0.591,0.749 1.163,1.59 1.69,2.505c1.249,2.167 2.016,4.345 2.252,6.125Z" style="fill:#1b1b1a;"/><path id="Outline1" serif:id="Outline" d="M58.626,31.687c0,-16.179 -13.135,-29.313 -29.313,-29.313c-16.178,0 -29.313,13.134 -29.313,29.313c0,16.178 13.135,29.313 29.313,29.313c16.178,0 29.313,-13.135 29.313,-29.313Z" style="fill:none;stroke:#000;stroke-width:3px;"/></g></g></g></svg>