<?xml version="1.0" encoding="UTF-8" standalone="no"?><!DOCTYPE svg PUBLIC "-//W3C//DTD SVG 1.1//EN" "http://www.w3.org/Graphics/SVG/1.1/DTD/svg11.dtd"><svg width="100%" height="100%" viewBox="0 0 64 64" version="1.1" xmlns="http://www.w3.org/2000/svg" xmlns:xlink="http://www.w3.org/1999/xlink" xml:space="preserve" xmlns:serif="http://www.serif.com/" style="fill-rule:evenodd;clip-rule:evenodd;stroke-miterlimit:10;"><g id="Habitats"><g id="Marine"><g id="saltwater-whale"><path d="M27.017,39.346c-0.033,-0.075 -0.19,-0.282 -0.19,-0.391c0.961,-0.049 1.92,-0.097 2.881,-0.146c0.243,-0.012 0.488,-0.009 0.684,-0.084c0.055,-0.021 0.153,-0.071 0.207,-0.092c0.142,-0.055 0.322,-0.123 0.46,-0.173c0.331,-0.12 0.838,-0.299 1.196,-0.437c0.153,-0.058 0.32,-0.126 0.483,-0.184c0.436,-0.154 1.033,-0.417 1.472,-0.563c0.598,-0.199 1.152,-0.47 1.713,-0.73c1.109,-0.514 2.277,-0.941 3.404,-1.478c1,-0.476 2.048,-0.891 2.967,-1.357c0.209,-0.106 0.42,-0.207 0.621,-0.322c0.142,-0.081 0.218,-0.102 0.356,-0.172c0.341,-0.172 0.847,-0.439 1.242,-0.621c0.532,-0.246 1.105,-0.555 1.702,-0.828c0.496,-0.227 0.992,-0.468 1.484,-0.702c0.327,-0.155 0.885,-0.303 1.31,-0.446c0.479,-0.161 1.063,-0.387 1.472,-0.474c0.643,-0.136 1.283,-0.29 1.967,-0.253c0.336,0.019 0.671,0.154 0.92,0.334c0.396,0.286 0.422,0.631 0.387,1.092c-0.022,0.284 -0.161,0.536 -0.289,0.748c-0.233,0.382 -0.716,0.694 -1.03,0.989c-0.195,0.184 -0.368,0.301 -0.552,0.442c-0.285,0.221 -0.596,0.405 -0.879,0.627c-0.138,0.108 -0.29,0.2 -0.432,0.299c-0.34,0.239 -0.688,0.68 -1,1.001c-0.299,0.306 -0.714,0.661 -0.908,0.989c-0.112,0.187 -0.234,0.391 -0.334,0.563c-0.192,0.328 -0.371,0.639 -0.598,0.943c-0.287,0.385 -0.637,0.619 -1,0.874c-0.081,0.056 -0.163,0.115 -0.242,0.172c-0.115,0.084 -0.142,0.166 -0.172,0.334c-0.127,0.7 -0.215,1.414 -0.351,2.115c-0.093,0.476 -0.15,0.889 -0.213,1.415c-0.033,0.278 -0.009,0.568 -0.149,0.794c-0.122,0.194 -0.363,0.264 -0.583,0.364c-0.202,0.091 -0.23,0.155 -0.291,0.372c-0.015,0.05 -0.013,0.074 -0.023,0.126c-0.02,0.101 -0.007,0.134 0.005,0.265c0.014,0.145 -0.008,0.209 -0.116,0.325c-0.153,0.164 -0.145,0.245 -0.172,0.475c-0.032,0.275 -0.08,0.337 -0.269,0.525c-0.171,0.17 -0.188,0.177 -0.092,0.342c0.059,0.101 0.182,0.211 0.115,0.356c-0.041,0.088 -0.077,0.075 -0.193,0.092c-0.061,0.009 -0.184,-0.001 -0.247,0.023c-0.168,0.065 -0.131,0.043 -0.175,0.236c-0.087,0.376 -0.199,0.348 -0.409,0.546c-0.02,0.019 -0.091,0.048 -0.103,0.069c-0.054,0.094 0.021,0.32 -0.012,0.414c-0.033,0.096 -0.108,0.164 -0.195,0.219c-0.038,0.024 -0.086,0.031 -0.104,0.057c-0.065,0.1 0.012,0.296 0.012,0.437c0,0.183 -0.025,0.23 -0.138,0.288c-0.15,0.075 -0.26,0.123 -0.403,0.218c-0.194,0.129 -0.628,0.319 -0.851,0.081c-0.125,-0.135 -0.223,-0.365 -0.321,-0.552c-0.179,-0.339 0.2,-0.795 0.321,-1.081c0.233,-0.551 0.589,-1.085 0.771,-1.633c0.183,-0.553 0.243,-1.006 0.333,-1.472c0.112,-0.579 0.328,-1.29 0.477,-1.914c0.117,-0.49 0.347,-1.04 0.374,-1.49c-0.139,0.039 -0.284,0.203 -0.402,0.288c-0.09,0.064 -0.143,0.098 -0.19,0.218c-0.064,0.164 -0.077,0.306 -0.155,0.437c-0.066,0.112 -0.148,0.253 -0.207,0.368c-0.165,0.319 -0.356,0.595 -0.518,0.909c-0.139,0.271 -0.31,0.541 -0.46,0.805c-0.088,0.155 -0.171,0.318 -0.264,0.482c-0.079,0.139 -0.217,0.296 -0.276,0.46c-0.105,0.292 -0.079,0.715 -0.23,0.909c-0.098,0.125 -0.27,0.201 -0.408,0.287c-0.142,0.089 -0.3,0.168 -0.443,0.219c-0.082,0.029 -0.174,0.055 -0.241,0.075c-0.019,0.005 -0.055,0.024 -0.069,0.028c-0.172,0.055 -0.203,0.044 -0.259,0.242c-0.082,0.292 -0.425,0.526 -0.535,0.736c-0.06,0.115 -0.115,0.245 -0.161,0.345c-0.036,0.079 -0.118,0.191 -0.156,0.287c-0.055,0.142 -0.08,0.294 -0.108,0.414c-0.043,0.178 -0.11,0.278 -0.144,0.414c-0.026,0.102 -0.02,0.188 -0.109,0.23c-0.132,0.062 -0.394,0.038 -0.535,0.052c-0.176,0.017 -0.211,0.062 -0.316,0.167c-0.19,0.19 -0.372,0.371 -0.564,0.454c-0.075,0.032 -0.187,0.097 -0.264,0.132c-0.055,0.025 -0.095,0.033 -0.161,0.075c-0.023,0.014 -0.041,0.012 -0.058,0.029c-0.093,0.091 -0.037,0 -0.048,0.131c-0.007,0.08 0.036,0.19 0.052,0.27c0.044,0.231 0.021,0.252 -0.142,0.3c-0.12,0.035 -0.517,0.096 -0.621,0.207c-0.116,0.123 -0.052,0.423 -0.149,0.563c-0.078,0.113 -0.109,0.106 -0.233,0.115c-0.205,0.016 -0.418,-0.057 -0.566,0.081c-0.152,0.141 -0.121,0.329 -0.409,0.241c-0.116,-0.035 -0.226,-0.074 -0.339,-0.103c-0.147,-0.038 -0.374,-0.029 -0.5,-0.104c-0.128,-0.076 -0.196,-0.261 -0.27,-0.379c-0.084,-0.132 -0.177,-0.268 -0.248,-0.402c-0.094,-0.182 -0.071,-0.204 0.104,-0.38c0.18,-0.181 0.374,-0.39 0.558,-0.585c0.261,-0.277 0.539,-0.379 0.799,-0.611c0.293,-0.26 0.463,-0.564 0.655,-0.839c0.312,-0.446 0.647,-0.897 0.909,-1.38c0.209,-0.386 0.322,-0.823 0.5,-1.334c0.09,-0.259 0.177,-0.508 0.259,-0.679c0.029,-0.06 0.126,-0.196 0.126,-0.264c-0.195,0.059 -0.291,0.109 -0.46,0.172c-0.248,0.094 -0.483,0.211 -0.747,0.3c-0.441,0.147 -0.873,0.286 -1.363,0.431c-0.104,0.03 -0.176,0.063 -0.259,0.086c-0.321,0.091 -0.692,0.222 -1.035,0.311c-0.775,0.201 -1.356,0.26 -2.113,0.28c-0.509,0.014 -1.054,0.063 -1.536,0.041c-0.621,-0.027 -1.21,-0.081 -1.836,-0.149c-0.741,-0.082 -1.267,-0.15 -1.909,-0.311c-0.714,-0.179 -3.826,-1.262 -4.473,-1.69c-1.196,-0.792 -2.466,-1.602 -3.679,-2.38c-0.602,-0.387 -1.203,-0.805 -1.806,-1.162c-0.286,-0.169 -0.55,-0.377 -0.839,-0.552c-0.258,-0.156 -0.537,-0.393 -0.794,-0.506c-0.605,-0.266 -1.222,-0.545 -1.817,-0.782c-0.29,-0.115 -0.648,-0.294 -0.937,-0.414c-0.185,-0.076 -0.359,-0.135 -0.564,-0.206c-0.316,-0.109 -0.664,-0.265 -0.954,-0.357c-0.097,-0.031 -0.251,-0.047 -0.27,-0.161c0.349,0.003 0.63,0.054 0.955,0.08c0.51,0.042 1.218,0.153 1.69,0.334c0.161,0.062 0.348,0.155 0.517,0.218c0.401,0.15 0.747,0.347 1.139,0.495c0.059,0.022 0.091,0.033 0.138,0.051c0.025,0.01 0.035,0.021 0.078,0.038c0.154,0.062 0.161,0.046 0.29,-0.02c0.077,-0.04 0.182,-0.119 0.253,-0.173c0.152,-0.114 0.322,-0.228 0.483,-0.333c0.338,-0.223 0.66,-0.457 1,-0.679c0.171,-0.111 0.337,-0.18 0.518,-0.264c0.215,-0.101 0.467,-0.265 0.77,-0.15c0.22,0.085 0.414,0.406 0.5,0.587c0.165,0.347 0.213,0.837 0.345,1.288c0.061,0.207 0.184,0.392 0.293,0.586c0.091,0.162 0.232,0.497 0.38,0.61c0.153,0.117 0.709,0.19 0.922,0.204c0.282,0.019 2.212,0.051 3.218,-0.158c0.543,-0.113 1.096,-0.187 1.535,-0.299c0.252,-0.065 0.473,-0.124 0.742,-0.19c0.449,-0.11 0.907,-0.294 1.351,-0.443c0.21,-0.07 0.384,-0.128 0.534,-0.172c0.1,-0.029 0.224,-0.118 0.38,-0.127c-0.017,-0.133 -0.11,-0.233 -0.144,-0.31Zm8.819,-15.868c-1.251,0.047 -0.376,1.201 -2.704,3.038c-0.102,0.081 -0.213,0.145 -0.33,0.201c0.168,0.451 0.321,1.198 0.321,1.833c0,0.92 -0.254,1.8 -0.856,2.385c-0.305,-0.939 -0.538,-1.91 -0.872,-2.834c-0.276,-0.181 -0.692,-0.467 -0.859,-0.695c-3.17,1.404 -4.734,0.889 -6.266,1.497c-0.27,0.377 -0.219,0.906 -0.376,1.2c-0.245,-0.196 -0.437,-0.443 -0.517,-0.743c-0.279,0.333 -0.462,0.733 -0.54,1.156c0.108,-0.009 0.216,-0.014 0.326,-0.014c0.551,0 2.016,0.233 2.45,0.679c-0.682,0.05 -2.481,0.492 -2.481,1.603c0,0.412 0.143,0.941 0.16,1.653c-0.615,-0.86 -1.142,-1.847 -1.205,-2.917c-0.45,-0.68 -0.758,-1.486 -0.758,-2.272c0,-2.584 4.337,-5.189 5.65,-5.864c-0.056,-1.211 -0.478,-1.334 -0.478,-3.17c0,-0.13 0.009,-0.259 0.034,-0.386c1.256,0.455 1.581,1.638 2.321,2.244c0.38,0.311 0.9,0.305 1.305,0.49c0.478,-0.191 1.002,-0.372 1.86,-0.725c0.579,-0.239 0.983,-0.251 1.189,-0.29c-0.237,-0.995 -1.636,-1.138 -1.636,-1.62c0,-0.264 0.166,-0.892 0.631,-0.892c0.013,0 0.026,0.001 0.04,0.002c0.149,-0.23 0.375,-0.346 0.609,-0.346c0.337,0 0.669,0.255 0.785,0.534c0.02,-0.001 0.04,-0.002 0.06,-0.002c0.59,0 1.315,0.378 1.498,0.88c0.554,0.041 1.086,0.381 1.27,0.87c0.442,0.063 0.999,0.497 0.999,1.108c0,0.028 -0.001,0.056 -0.003,0.084c0.454,0.112 0.796,0.569 0.796,1.04c0,0.031 -0.006,0.131 -0.024,0.232c0.107,0.031 0.176,0.094 0.212,0.174c0.033,0.017 0.042,0.041 0.042,0.069c0,0.028 -0.009,0.062 -0.009,0.095c0,0.07 -0.021,0.139 -0.065,0.206c-0.285,0.287 -0.611,0.541 -1.017,0.541c-0.734,0 -1.16,-0.635 -1.562,-1.044Z" style="fill:#1b1b1a;"/><path id="Outline" d="M61.409,31.99c0,-16.178 -13.135,-29.313 -29.313,-29.313c-16.179,0 -29.314,13.135 -29.314,29.313c0,16.179 13.135,29.313 29.314,29.313c16.178,0 29.313,-13.134 29.313,-29.313Z" style="fill:none;stroke:#000;stroke-width:3px;"/><path d="M32.922,14.662c0.906,0.03 1.618,0.623 2.337,1.187c1.779,1.308 4.419,-1.13 7.019,-0.165c0.188,0.067 0.188,0.067 0.376,0.131c1.556,0.506 3.166,0.77 4.669,-0.201c0.185,-0.109 0.21,-0.105 0.316,-0.12c0.881,-0.119 1.742,0.613 2.786,0.838c0.678,0.147 1.666,0.176 1.666,0.176c0.565,0.157 1.599,1.286 0.54,1.247c-1.326,-0.067 -3.556,-0.906 -4.817,-1.256c0,0 -0.548,0.385 -1.058,0.565c-2.201,0.779 -4.512,-0.922 -6.549,-0.537c-2.173,0.411 -4.412,1.341 -6.008,-0.333c-1.108,-1.1 -2.888,-0.284 -4.03,0.192c-1.238,0.525 -2.428,1.19 -3.733,1.389c-1.78,0.272 -3.477,-0.761 -5.191,-1.265c-0.914,-0.268 -1.414,1.457 -3.397,1.245c-1.5,-0.16 -2.894,-0.87 -4.344,-1.222c-0.375,-0.09 -1.52,0.025 -1.99,-0.025c-0.45,-0.047 -0.239,-0.256 0,-0.508c0.605,-0.637 2.502,-0.368 4.117,0.186c1.154,0.387 2.532,1.043 3.499,0.344c0.819,-0.618 1.53,-1.322 2.785,-0.847c0.426,0.161 0.841,0.352 1.261,0.527c0.738,0.3 0.842,0.327 1.244,0.434c2.67,0.709 5.311,-1.851 8.279,-1.981c0.074,-0.002 0.148,-0.002 0.223,-0.001Z" style="fill-rule:nonzero;"/></g></g></g></svg>