<?xml version="1.0" encoding="UTF-8" standalone="no"?><!DOCTYPE svg PUBLIC "-//W3C//DTD SVG 1.1//EN" "http://www.w3.org/Graphics/SVG/1.1/DTD/svg11.dtd"><svg width="100%" height="100%" viewBox="0 0 64 64" version="1.1" xmlns="http://www.w3.org/2000/svg" xmlns:xlink="http://www.w3.org/1999/xlink" xml:space="preserve" xmlns:serif="http://www.serif.com/" style="fill-rule:evenodd;clip-rule:evenodd;stroke-miterlimit:10;"><g id="Habitats"><g id="Freshwater"><g id="nonforested-marsh" serif:id="nonforested marsh"><path d="M55.134,33.894c-0.065,-0.349 -0.137,-0.732 -0.22,-1.132c-0.119,-0.588 -0.251,-1.095 -0.402,-1.553c-0.325,-0.985 -0.78,-1.899 -1.146,-2.635l-0.053,-0.106c-0.183,-0.365 -0.339,-0.667 -0.449,-0.879l-0.171,-0.333l0.195,-0.105l0.185,0.325c0.118,0.208 0.286,0.505 0.485,0.864l0.062,0.114c0.397,0.725 0.891,1.627 1.264,2.624c0.174,0.465 0.33,0.982 0.476,1.582c0.093,0.377 0.176,0.739 0.251,1.07c-0.123,-0.596 -0.277,-1.323 -0.44,-2.034c-0.165,-0.72 -0.372,-1.534 -0.568,-2.232c-0.085,-0.301 -0.157,-0.551 -0.209,-0.725l-0.083,-0.274l0.211,-0.07l0.097,0.27c0.062,0.172 0.147,0.419 0.248,0.718c0.233,0.692 0.483,1.5 0.685,2.215c0.227,0.797 0.441,1.609 0.603,2.238c-0.05,-0.443 -0.113,-0.914 -0.198,-1.384c-0.157,-0.909 -0.398,-1.762 -0.573,-2.318c-0.1,-0.309 -0.183,-0.566 -0.247,-0.745l-0.098,-0.283l0.208,-0.078l0.112,0.277c0.072,0.176 0.169,0.431 0.286,0.739c0.205,0.556 0.492,1.41 0.699,2.33c0.04,0.174 0.078,0.351 0.113,0.526c-0.001,-0.006 -0.001,-0.011 -0.002,-0.017c-0.042,-0.484 -0.113,-1.028 -0.212,-1.618c-0.074,-0.437 -0.131,-0.727 -0.131,-0.728l0.217,-0.05c0,0 0.077,0.287 0.184,0.723c0.143,0.59 0.255,1.136 0.333,1.625c0.008,0.05 0.017,0.104 0.026,0.162c-0.036,-0.316 -0.083,-0.63 -0.138,-0.929c-0.069,-0.38 -0.158,-0.791 -0.266,-1.223l-0.022,-0.088c-0.087,-0.347 -0.169,-0.675 -0.296,-0.923c-0.122,-0.238 -0.28,-0.416 -0.396,-0.545l-0.043,-0.048c-0.122,-0.134 -0.195,-0.209 -0.195,-0.21l0.156,-0.158c0,0 0.078,0.073 0.211,0.206c0.068,0.068 0.149,0.15 0.237,0.251c0.106,0.121 0.188,0.233 0.257,0.35l0.018,-0.021l0.229,0.183c0.058,0.048 0.127,0.104 0.2,0.173c0.081,0.077 0.184,0.184 0.262,0.329c0.075,0.134 0.13,0.292 0.177,0.443c0.049,0.154 0.095,0.318 0.143,0.489c0.104,0.38 0.186,0.748 0.244,1.091c0.056,0.321 0.094,0.669 0.113,1.022c0.024,-0.269 0.036,-0.558 0.026,-0.852c-0.014,-0.688 -0.148,-1.368 -0.259,-1.817c-0.066,-0.261 -0.119,-0.452 -0.161,-0.583l-0.068,-0.223l0.21,-0.071l0.081,0.217c0.05,0.13 0.116,0.322 0.201,0.586c0.207,0.665 0.335,1.293 0.381,1.868c0.027,0.276 0.033,0.549 0.028,0.804c0.024,-0.177 0.039,-0.36 0.036,-0.543c-0.005,-0.461 -0.091,-0.921 -0.161,-1.289l-0.143,-0.725l0.216,-0.052l0.205,0.727c0.099,0.368 0.224,0.826 0.268,1.319c0.028,0.293 0.015,0.587 -0.012,0.857c0.02,-0.136 0.042,-0.29 0.064,-0.46l0.054,-0.473c0.015,-0.12 0.021,-0.241 0.027,-0.366l0.009,-0.157c0.009,-0.394 -0.029,-0.76 -0.114,-1.082c-0.095,-0.371 -0.251,-0.734 -0.39,-1.044c-0.132,-0.291 -0.263,-0.563 -0.378,-0.803l-0.461,-0.966l0.198,-0.1l0.507,0.933c0.129,0.236 0.276,0.504 0.428,0.794c0.161,0.316 0.343,0.685 0.467,1.079c0.113,0.353 0.177,0.755 0.189,1.193l0,0.159c0,0.136 0,0.269 -0.009,0.396l-0.031,0.489c-0.024,0.292 -0.048,0.542 -0.069,0.736c1.238,0.035 1.961,0.076 1.961,0.076l-2.441,10.019l-8.201,10.781c0,0 -1.849,0.637 -11.494,0.327c-8.839,-0.284 -20.993,-1.858 -22.475,-5.39c-0.29,-0.691 -0.361,-1.41 -0.255,-2.138c-0.331,-0.18 -0.664,-0.348 -0.943,-0.476c-0.166,-0.077 -0.305,-0.138 -0.404,-0.176l-0.158,-0.065l0.076,-0.209l0.16,0.05c0.103,0.031 0.25,0.081 0.426,0.144c0.272,0.098 0.591,0.225 0.911,0.363c0.012,-0.051 0.024,-0.102 0.037,-0.153c-0.072,-0.041 -0.135,-0.075 -0.187,-0.102l-0.159,-0.085l0.097,-0.2l0.163,0.071c0.044,0.019 0.096,0.042 0.156,0.069c0.008,-0.027 0.016,-0.054 0.025,-0.081c-0.099,-0.048 -0.202,-0.098 -0.307,-0.148c-0.187,-0.089 -0.369,-0.173 -0.542,-0.251c-0.185,-0.085 -0.338,-0.152 -0.484,-0.202c-0.269,-0.097 -0.532,-0.134 -0.722,-0.104c-0.072,0.01 -0.137,0.026 -0.202,0.05l-0.074,0.028l-0.085,-0.205l0.076,-0.033c0.083,-0.034 0.162,-0.057 0.245,-0.073c0.225,-0.048 0.534,-0.021 0.846,0.074c0.165,0.048 0.344,0.118 0.513,0.186c0.176,0.069 0.363,0.145 0.556,0.225c0.101,0.043 0.2,0.084 0.296,0.126c0.018,-0.046 0.036,-0.092 0.055,-0.137c-0.672,-0.374 -1.268,-0.647 -1.622,-0.8c-0.123,-0.056 -0.239,-0.102 -0.347,-0.145l-0.136,-0.055c-0.142,-0.058 -0.268,-0.105 -0.372,-0.142l-0.33,-0.12l0.072,-0.21l0.333,0.106c0.107,0.033 0.238,0.075 0.387,0.129l0.132,0.047c0.113,0.039 0.236,0.082 0.363,0.134c0.362,0.139 0.972,0.388 1.661,0.735c0.046,-0.095 0.093,-0.191 0.143,-0.286c-0.319,-0.169 -0.663,-0.333 -1.038,-0.493c-0.287,-0.119 -0.541,-0.224 -0.715,-0.288l-0.275,-0.106l0.074,-0.209l0.279,0.091c0.177,0.056 0.431,0.145 0.735,0.254c0.396,0.147 0.762,0.299 1.1,0.459c0.063,-0.108 0.128,-0.216 0.196,-0.324c-0.016,-0.016 -0.032,-0.032 -0.048,-0.048c-0.263,-0.187 -0.537,-0.372 -0.823,-0.555l-1.118,-0.683l0.11,-0.193l0.816,0.455c-0.381,-0.36 -0.634,-0.592 -0.64,-0.597l0.146,-0.168c0.01,0.008 0.82,0.675 1.75,1.497c0.058,-0.087 0.119,-0.173 0.182,-0.259c-0.126,-0.159 -0.249,-0.313 -0.368,-0.458c-0.385,-0.476 -0.647,-0.783 -0.648,-0.784l0.165,-0.148c0,0 0.277,0.293 0.685,0.748c0.113,0.126 0.23,0.259 0.35,0.396c0.053,-0.07 0.108,-0.14 0.164,-0.209c-0.151,-0.186 -0.281,-0.341 -0.38,-0.457c-0.206,-0.237 -0.379,-0.433 -0.503,-0.567l-0.196,-0.213l0.16,-0.154l0.204,0.201c0.13,0.127 0.313,0.315 0.531,0.544c0.099,0.105 0.228,0.244 0.377,0.41c0.061,-0.072 0.124,-0.145 0.188,-0.218c-0.071,-0.107 -0.112,-0.168 -0.112,-0.169l0.155,-0.113c-0.109,-0.113 -0.213,-0.21 -0.312,-0.293c-0.274,-0.229 -0.497,-0.35 -0.606,-0.402c-0.076,-0.035 -0.136,-0.062 -0.179,-0.077l-0.072,-0.027l0.073,-0.205l-0.3,-0.129l-0.33,-0.131l0.052,-0.138l-0.177,-0.051l0.053,-0.215l0.201,0.042c0.129,0.026 0.312,0.069 0.533,0.123c0.468,0.116 1.052,0.284 1.603,0.461c0.18,0.057 0.36,0.117 0.537,0.176c0.015,-0.014 0.03,-0.028 0.046,-0.042c-0.251,-0.115 -0.491,-0.22 -0.705,-0.31c-0.216,-0.09 -0.396,-0.163 -0.524,-0.21l-0.203,-0.078l0.073,-0.21l0.206,0.063c0.132,0.039 0.32,0.101 0.545,0.178c0.263,0.089 0.565,0.2 0.88,0.32c0.02,-0.018 0.039,-0.035 0.059,-0.053c-0.05,-0.019 -0.099,-0.039 -0.149,-0.058c-0.451,-0.176 -0.936,-0.351 -1.486,-0.536c-0.238,-0.08 -0.469,-0.156 -0.689,-0.225c-0.236,-0.077 -0.431,-0.137 -0.614,-0.18c-0.346,-0.086 -0.678,-0.11 -0.912,-0.069c-0.088,0.014 -0.167,0.034 -0.246,0.061l-0.086,0.033l-0.084,-0.206l0.089,-0.038c0.093,-0.037 0.185,-0.063 0.283,-0.083c0.263,-0.057 0.634,-0.046 1.015,0.032c0.191,0.038 0.395,0.091 0.642,0.16c0.222,0.062 0.458,0.128 0.702,0.199c0.565,0.166 1.063,0.323 1.522,0.482c0.12,0.041 0.241,0.083 0.362,0.127l0.006,-0.004c-0.102,-0.048 -0.205,-0.096 -0.31,-0.143c-1.295,-0.6 -2.561,-1.015 -3.2,-1.209c-0.155,-0.049 -0.301,-0.089 -0.436,-0.127l-0.175,-0.049c-0.181,-0.052 -0.339,-0.092 -0.47,-0.125l-0.415,-0.103l0.05,-0.217l0.418,0.09c0.134,0.027 0.297,0.063 0.483,0.11l0.167,0.041c0.142,0.033 0.294,0.07 0.455,0.115c0.651,0.174 1.946,0.549 3.28,1.112c0.172,0.071 0.341,0.143 0.506,0.215c0.07,-0.056 0.14,-0.112 0.21,-0.167c-0.13,-0.072 -0.262,-0.141 -0.395,-0.207c-0.748,-0.382 -1.617,-0.72 -2.657,-1.031c-0.346,-0.1 -0.677,-0.196 -0.904,-0.254l-0.347,-0.093l0.053,-0.215l0.349,0.078c0.232,0.049 0.568,0.131 0.922,0.218c1.071,0.273 1.972,0.581 2.755,0.941c0.199,0.09 0.396,0.185 0.587,0.285c0.039,-0.029 0.078,-0.057 0.116,-0.086c-0.847,-0.564 -1.847,-1.11 -2.972,-1.624l-1.438,-0.63l0.084,-0.206l0.865,0.337l0.599,0.246c1.119,0.466 2.121,0.967 2.983,1.491c-1.067,-0.744 -1.948,-1.324 -1.96,-1.332l0.118,-0.188c0.013,0.007 1.11,0.657 2.359,1.452c0.095,-0.065 0.19,-0.129 0.285,-0.192c-0.209,-0.188 -0.414,-0.37 -0.609,-0.54c-0.523,-0.458 -0.878,-0.753 -0.879,-0.753l0.139,-0.174c0,0 0.369,0.28 0.916,0.715c0.226,0.179 0.465,0.372 0.708,0.572c0.083,-0.054 0.166,-0.107 0.25,-0.159c-0.317,-0.284 -0.59,-0.516 -0.779,-0.673c-0.278,-0.228 -0.511,-0.416 -0.677,-0.544l-0.262,-0.203l0.133,-0.179l0.27,0.192c0.158,0.111 0.383,0.275 0.707,0.518c0.213,0.161 0.531,0.408 0.898,0.711c0.074,-0.045 0.149,-0.09 0.224,-0.134c-0.006,-0.006 -0.011,-0.012 -0.016,-0.017c-0.3,-0.327 -0.505,-0.54 -0.506,-0.54l0.142,-0.147c-0.134,-0.098 -0.263,-0.184 -0.384,-0.256c-0.364,-0.219 -0.652,-0.33 -0.79,-0.377c-0.099,-0.032 -0.177,-0.057 -0.232,-0.07l-0.09,-0.024l0.053,-0.215l0.087,0.019c0.057,0.011 0.142,0.034 0.252,0.064c0.151,0.045 0.463,0.15 0.856,0.366c0.36,0.195 0.769,0.483 1.221,0.86c0.045,-0.025 0.089,-0.049 0.134,-0.073c-0.376,-0.377 -0.75,-0.687 -1.086,-0.895c-0.337,-0.211 -0.622,-0.309 -0.762,-0.349c-0.096,-0.026 -0.172,-0.044 -0.226,-0.052l-0.087,-0.016l0.034,-0.22l0.086,0.012c0.057,0.006 0.143,0.022 0.251,0.048c0.156,0.036 0.47,0.13 0.844,0.342c0.386,0.218 0.821,0.553 1.258,0.965c0.085,-0.044 0.17,-0.088 0.256,-0.131c-0.117,-0.13 -0.235,-0.255 -0.352,-0.372c-0.096,-0.1 -0.188,-0.186 -0.271,-0.263l-0.024,-0.022c-0.088,-0.084 -0.165,-0.154 -0.232,-0.208l-0.213,-0.182l0.14,-0.173l0.22,0.169c0.072,0.054 0.157,0.123 0.253,0.206l0.022,0.018c0.091,0.076 0.192,0.16 0.296,0.259c0.147,0.133 0.296,0.277 0.444,0.428c0.009,-0.005 0.019,-0.009 0.028,-0.014c-0.005,-0.005 -0.01,-0.01 -0.015,-0.015l-0.075,-0.082c-0.076,-0.085 -0.146,-0.156 -0.204,-0.215l-0.183,-0.188l0.155,-0.159l0.193,0.177c0.028,0.026 0.059,0.055 0.092,0.086c-0.69,-0.712 -1.335,-1.246 -1.709,-1.538c-0.137,-0.111 -0.268,-0.206 -0.389,-0.294l-0.486,-0.343l-0.344,-0.229l0.12,-0.187l0.857,0.549c0.127,0.085 0.266,0.179 0.408,0.288c0.456,0.33 1.301,0.986 2.165,1.876c0.071,-0.032 0.143,-0.064 0.215,-0.096c-0.037,-0.04 -0.075,-0.079 -0.112,-0.117l-0.36,-0.362c-0.101,-0.101 -0.198,-0.19 -0.285,-0.27l-0.027,-0.025c-0.093,-0.088 -0.176,-0.162 -0.245,-0.22l-0.22,-0.192l0.142,-0.171l0.228,0.18c0.074,0.056 0.162,0.129 0.262,0.213l0.039,0.033c0.019,0.016 0.039,0.033 0.059,0.05c-0.362,-0.321 -0.752,-0.647 -1.17,-0.975c-0.384,-0.298 -0.686,-0.522 -0.872,-0.657l-0.337,-0.243l0.127,-0.183l0.345,0.232c0.196,0.133 0.511,0.35 0.902,0.633c0.829,0.607 1.559,1.209 2.179,1.796c0.024,-0.009 0.047,-0.019 0.07,-0.028c-0.292,-0.325 -0.577,-0.611 -0.838,-0.84c-0.332,-0.294 -0.594,-0.481 -0.721,-0.566c-0.06,-0.043 -0.112,-0.074 -0.155,-0.101c-0.024,-0.014 -0.045,-0.027 -0.063,-0.039l-0.077,-0.047l0.114,-0.191l0.08,0.046c0.019,0.011 0.039,0.022 0.061,0.034c0.047,0.027 0.105,0.059 0.17,0.101c0.133,0.082 0.413,0.265 0.767,0.556c0.303,0.245 0.638,0.56 0.982,0.92c0.062,-0.024 0.124,-0.048 0.186,-0.072c-0.373,-0.48 -0.71,-0.861 -1.006,-1.141c-0.298,-0.284 -0.575,-0.485 -0.754,-0.603c-0.096,-0.06 -0.174,-0.108 -0.228,-0.137l-0.087,-0.05l0.105,-0.195l0.087,0.045c0.057,0.028 0.141,0.074 0.247,0.137c0.194,0.116 0.491,0.315 0.814,0.602c0.202,0.176 0.417,0.388 0.648,0.639l0.09,-0.113l0.362,0.272c0.032,0.027 0.062,0.053 0.094,0.081l0.132,0.116c0.041,0.035 0.084,0.072 0.129,0.113c0.06,-0.021 0.121,-0.043 0.182,-0.064l-0.652,-0.977l0.051,-0.035c-0.101,-0.103 -0.2,-0.203 -0.299,-0.301c-0.301,-0.299 -0.556,-0.538 -0.745,-0.712l-0.29,-0.262l0.146,-0.168l0.3,0.253c0.181,0.155 0.458,0.395 0.778,0.692c0.428,0.393 0.879,0.843 1.313,1.306c0.102,-0.034 0.205,-0.067 0.309,-0.1c-0.026,-0.032 -0.052,-0.062 -0.077,-0.092c-0.252,-0.296 -0.456,-0.473 -0.555,-0.552c-0.074,-0.06 -0.133,-0.103 -0.174,-0.132l-0.066,-0.045l0.122,-0.186l0.068,0.043c0.046,0.029 0.113,0.073 0.194,0.133c0.189,0.137 0.407,0.335 0.614,0.557c0.055,0.058 0.11,0.119 0.166,0.183c0.05,-0.016 0.1,-0.031 0.15,-0.047c-0.185,-0.231 -0.347,-0.423 -0.469,-0.565c-0.258,-0.296 -0.463,-0.523 -0.609,-0.674l-0.24,-0.251l0.158,-0.157l0.25,0.239c0.153,0.144 0.372,0.364 0.649,0.653c0.151,0.159 0.358,0.382 0.596,0.655c0.021,-0.006 0.042,-0.012 0.064,-0.018c-0.708,-0.856 -1.555,-1.74 -2.362,-2.461c-0.404,-0.363 -0.732,-0.635 -0.937,-0.8l-0.367,-0.291l0.136,-0.176l0.376,0.281c0.213,0.161 0.554,0.427 0.971,0.78c0.883,0.742 1.816,1.665 2.582,2.552c0.086,-0.024 0.174,-0.048 0.262,-0.072c-0.678,-1.002 -1.359,-1.835 -1.735,-2.277c-0.106,-0.13 -0.211,-0.246 -0.307,-0.354l-0.116,-0.131c-0.125,-0.143 -0.238,-0.265 -0.332,-0.364l-0.296,-0.316l0.159,-0.154l0.306,0.306c0.099,0.097 0.218,0.217 0.35,0.359l0.12,0.126c0.102,0.107 0.211,0.222 0.323,0.349c0.408,0.449 1.162,1.315 1.906,2.353c0.048,-0.012 0.095,-0.025 0.143,-0.037c-0.388,-0.561 -0.739,-1.021 -0.961,-1.302c-0.087,-0.114 -0.172,-0.217 -0.251,-0.313l-0.097,-0.118c-0.103,-0.128 -0.196,-0.236 -0.273,-0.325l-0.244,-0.283l0.166,-0.148l0.254,0.273c0.081,0.087 0.18,0.194 0.29,0.32l0.101,0.114c0.084,0.094 0.174,0.196 0.266,0.308c0.25,0.292 0.655,0.783 1.099,1.384c0.02,-0.005 0.039,-0.01 0.059,-0.015c-0.126,-0.188 -0.234,-0.344 -0.315,-0.455l-0.145,-0.202l0.176,-0.135l0.156,0.192c0.101,0.121 0.241,0.301 0.405,0.52l0.007,0.009l0.006,-0.002l0.004,0c-0.113,-0.152 -0.218,-0.291 -0.312,-0.414c-0.209,-0.27 -0.384,-0.493 -0.51,-0.647l-0.197,-0.245l0.169,-0.143l0.208,0.234c0.134,0.148 0.321,0.365 0.544,0.627c0.145,0.171 0.285,0.341 0.421,0.509c0.026,-0.006 0.052,-0.012 0.079,-0.019c-0.083,-0.118 -0.155,-0.22 -0.214,-0.3l-0.159,-0.22l0.176,-0.136l0.172,0.209c0.068,0.083 0.153,0.188 0.251,0.312c-0.134,-0.193 -0.261,-0.375 -0.376,-0.539c-0.071,-0.056 -0.136,-0.108 -0.196,-0.154c-0.449,-0.355 -0.93,-0.713 -1.321,-0.981c-0.184,-0.125 -0.338,-0.228 -0.448,-0.296l-0.174,-0.111l0.112,-0.191l0.181,0.097c0.116,0.061 0.28,0.154 0.476,0.269c0.226,0.133 0.482,0.29 0.744,0.459l0.152,-0.116l-0.172,-0.131l0.129,-0.182l0.18,0.119c0.115,0.074 0.278,0.187 0.472,0.324c0.271,0.192 0.586,0.427 0.907,0.675c-0.091,-0.102 -0.185,-0.204 -0.281,-0.306c-0.361,-0.278 -0.754,-0.566 -1.2,-0.879c-0.206,-0.144 -0.406,-0.282 -0.597,-0.411c-0.206,-0.14 -0.375,-0.253 -0.539,-0.347c-0.307,-0.179 -0.618,-0.297 -0.855,-0.324c-0.087,-0.011 -0.169,-0.014 -0.253,-0.011l-0.092,0.007l-0.021,-0.221l0.095,-0.011c0.1,-0.009 0.195,-0.009 0.295,0c0.269,0.02 0.621,0.136 0.965,0.319c0.174,0.091 0.354,0.2 0.569,0.335c0.044,0.027 0.089,0.055 0.133,0.083l-0.082,-0.076l0.142,-0.16c-0.37,-0.267 -0.689,-0.482 -0.918,-0.633c-0.137,-0.093 -0.268,-0.174 -0.389,-0.25l-0.146,-0.092c-0.159,-0.101 -0.299,-0.184 -0.416,-0.252l-0.369,-0.218l0.11,-0.193l0.375,0.204c0.121,0.065 0.267,0.145 0.432,0.243l0.155,0.09c0.125,0.072 0.258,0.149 0.397,0.236c0.577,0.351 1.714,1.079 2.832,1.996c0.204,0.164 0.401,0.328 0.59,0.491c-0.257,-0.347 -0.532,-0.706 -0.823,-1.073c-0.483,-0.403 -1.035,-0.806 -1.671,-1.221c-0.327,-0.21 -0.6,-0.384 -0.795,-0.5l-0.306,-0.187l0.112,-0.192l0.312,0.173c0.2,0.109 0.483,0.273 0.823,0.471c0.073,0.044 0.145,0.087 0.216,0.131l0.12,-0.173l0.079,0.052c0.054,0.035 0.132,0.088 0.228,0.158c0.18,0.131 0.454,0.353 0.738,0.669c0.051,0.057 0.102,0.115 0.152,0.172c0.303,0.223 0.583,0.447 0.842,0.674c0.463,0.397 0.89,0.837 1.259,1.25l0.003,-0.002c-0.121,-0.171 -0.237,-0.327 -0.345,-0.463c-0.06,-0.077 -0.119,-0.146 -0.174,-0.21c-0.032,-0.037 -0.062,-0.072 -0.091,-0.106c-0.067,-0.084 -0.133,-0.15 -0.191,-0.209l-0.214,-0.216l0.038,-0.04c-0.587,-0.659 -1.277,-1.335 -2.057,-2.014l-1.201,-1.011l0.139,-0.174l1.239,0.974c0.942,0.765 1.762,1.53 2.439,2.277c-0.813,-1.017 -1.494,-1.824 -1.503,-1.834l0.166,-0.148c0.012,0.014 1.244,1.337 2.418,2.719c0.135,0.158 0.27,0.317 0.402,0.475c0.032,-0.006 0.063,-0.011 0.094,-0.017c-0.38,-0.645 -0.797,-1.327 -1.166,-1.91c-0.372,-0.587 -0.629,-0.97 -0.629,-0.971l0.182,-0.128c0,0 0.275,0.374 0.676,0.946c0.425,0.606 0.909,1.324 1.344,1.992c0.066,-0.011 0.133,-0.022 0.2,-0.034c-0.492,-0.923 -1.021,-1.741 -1.299,-2.156c-0.219,-0.324 -0.381,-0.557 -0.495,-0.714l-0.193,-0.269l0.177,-0.133l0.205,0.259c0.131,0.165 0.314,0.406 0.532,0.698c0.313,0.425 0.921,1.28 1.478,2.24l0.004,0.007c0.065,-0.011 0.131,-0.022 0.196,-0.033c-0.037,-0.099 -0.076,-0.2 -0.115,-0.299c-0.177,-0.452 -0.4,-0.954 -0.662,-1.492c-0.073,-0.149 -0.138,-0.279 -0.19,-0.383c-0.088,-0.112 -0.175,-0.215 -0.26,-0.307c-0.286,-0.311 -0.53,-0.5 -0.651,-0.585c-0.086,-0.058 -0.154,-0.104 -0.203,-0.132l-0.079,-0.048l0.112,-0.192l0.078,0.043c0.051,0.026 0.127,0.073 0.223,0.133c0.133,0.085 0.402,0.275 0.718,0.593c0.035,0.035 0.071,0.072 0.107,0.111l0.006,-0.003c0,0 0.007,0.009 0.018,0.028c0.451,0.488 0.947,1.21 1.477,2.15l0.004,0.007c-0.008,-0.019 -0.015,-0.037 -0.023,-0.056c-0.374,-0.931 -0.848,-1.757 -1.3,-2.264c-0.265,-0.299 -0.51,-0.473 -0.633,-0.551c-0.084,-0.052 -0.152,-0.091 -0.201,-0.114l-0.08,-0.04l0.096,-0.201l0.079,0.035c0.052,0.023 0.13,0.063 0.227,0.117c0.138,0.08 0.414,0.258 0.712,0.568c0.497,0.512 1.027,1.35 1.455,2.298c0.063,0.137 0.122,0.274 0.179,0.41c0.055,-0.009 0.111,-0.017 0.166,-0.026c-0.21,-0.645 -0.504,-1.333 -0.816,-1.91c-0.065,-0.125 -0.129,-0.234 -0.188,-0.332l-0.014,-0.025c-0.061,-0.105 -0.115,-0.194 -0.164,-0.265l-0.153,-0.235l0.183,-0.126l0.163,0.225c0.054,0.071 0.116,0.162 0.185,0.269l0.016,0.024c0.065,0.098 0.138,0.207 0.21,0.331c0.25,0.41 0.493,0.879 0.702,1.351c-0.1,-0.242 -0.19,-0.443 -0.256,-0.588c-0.042,-0.094 -0.084,-0.178 -0.123,-0.257l-0.046,-0.093c-0.05,-0.103 -0.096,-0.192 -0.135,-0.264l-0.122,-0.232l0.193,-0.109l0.135,0.225c0.016,0.026 0.033,0.055 0.052,0.086c-0.353,-0.671 -0.767,-1.345 -1.191,-1.937c-0.1,-0.146 -0.199,-0.275 -0.29,-0.393l-0.369,-0.466l-0.264,-0.318l0.168,-0.144l0.664,0.766c0.099,0.119 0.206,0.249 0.312,0.394c0.388,0.504 1.136,1.549 1.767,2.857c0.17,0.34 0.323,0.678 0.458,1.004c0.064,-0.009 0.129,-0.019 0.193,-0.028c-0.152,-0.406 -0.326,-0.793 -0.463,-1.089l-0.064,-0.13c-0.063,-0.131 -0.124,-0.258 -0.188,-0.376l-0.242,-0.45c-0.068,-0.123 -0.134,-0.234 -0.194,-0.334l-0.022,-0.037c-0.065,-0.11 -0.123,-0.204 -0.172,-0.281l-0.157,-0.245l0.185,-0.124l0.167,0.237c0.055,0.075 0.119,0.169 0.191,0.279l0.018,0.027c0.018,0.028 0.038,0.057 0.057,0.087c-0.257,-0.413 -0.541,-0.838 -0.85,-1.273c-0.285,-0.396 -0.511,-0.696 -0.651,-0.878l-0.253,-0.328l0.173,-0.139l0.265,0.32c0.15,0.182 0.39,0.479 0.686,0.862c0.76,0.998 1.383,1.947 1.849,2.823c0.051,0.093 0.101,0.187 0.15,0.283c-0.29,-0.703 -0.609,-1.342 -0.909,-1.816c-0.235,-0.377 -0.434,-0.63 -0.531,-0.747c-0.046,-0.058 -0.087,-0.104 -0.121,-0.141c-0.018,-0.02 -0.035,-0.039 -0.049,-0.055l-0.06,-0.067l0.164,-0.151l0.111,0.116c0.038,0.039 0.085,0.086 0.136,0.145c0.104,0.117 0.32,0.372 0.578,0.751c0.437,0.636 0.918,1.569 1.319,2.559c0.001,0.003 0.003,0.007 0.005,0.011c0.019,-0.003 0.038,-0.006 0.057,-0.008c-0.004,-0.013 -0.008,-0.026 -0.012,-0.039c-0.398,-1.225 -0.778,-2.153 -1.131,-2.758c-0.206,-0.359 -0.414,-0.628 -0.553,-0.791c-0.075,-0.086 -0.135,-0.154 -0.179,-0.197l-0.07,-0.072l0.156,-0.158l0.071,0.068c0.047,0.043 0.114,0.112 0.198,0.201c0.153,0.167 0.382,0.442 0.611,0.808c0.143,0.226 0.29,0.491 0.44,0.797l0.118,-0.083l0.27,0.364c0.024,0.036 0.047,0.071 0.07,0.108l0.091,0.143c0.056,0.088 0.119,0.187 0.177,0.298c0.083,0.15 0.168,0.304 0.244,0.471l0.043,0.089c0.027,0.057 0.055,0.114 0.08,0.174l0.069,0.165l-0.677,-2.182l0.059,-0.019c-0.067,-0.128 -0.135,-0.252 -0.201,-0.373c-0.208,-0.381 -0.393,-0.693 -0.513,-0.895l-0.204,-0.334l0.188,-0.118l0.215,0.327c0.13,0.201 0.328,0.51 0.55,0.884c0.511,0.851 1.042,1.881 1.456,2.826c0.012,0.026 0.023,0.053 0.035,0.079c0.061,-0.008 0.122,-0.016 0.183,-0.024c-0.038,-0.113 -0.074,-0.219 -0.107,-0.316c-0.129,-0.368 -0.262,-0.749 -0.401,-1.059c-0.157,-0.354 -0.303,-0.582 -0.376,-0.687c-0.053,-0.078 -0.098,-0.136 -0.129,-0.176l-0.05,-0.061l0.17,-0.143l0.052,0.059c0.037,0.041 0.088,0.102 0.149,0.183c0.141,0.184 0.295,0.436 0.431,0.708c0.159,0.314 0.319,0.712 0.459,1.063c0.046,0.117 0.097,0.246 0.15,0.385c0.036,-0.004 0.072,-0.009 0.108,-0.013c-0.273,-0.815 -0.569,-1.505 -0.743,-1.89c-0.164,-0.357 -0.296,-0.633 -0.393,-0.818l-0.158,-0.31l0.195,-0.106l0.172,0.301c0.108,0.183 0.255,0.456 0.438,0.81c0.202,0.395 0.551,1.115 0.877,1.967l0.027,-0.003l0.009,-0.001c-0.102,-0.282 -0.212,-0.566 -0.33,-0.852c-0.451,-1.109 -1.07,-2.327 -1.699,-3.343c-0.151,-0.245 -0.175,-0.311 -0.192,-0.359c-0.011,-0.03 -0.018,-0.05 -0.088,-0.151l-0.269,-0.383l0.18,-0.13l0.28,0.375c0.089,0.12 0.102,0.143 0.127,0.189c0.02,0.039 0.052,0.098 0.193,0.312c0.667,1.009 1.331,2.226 1.823,3.338c0.144,0.321 0.277,0.64 0.4,0.956c0.042,-0.005 0.083,-0.009 0.124,-0.014c-0.046,-0.17 -0.095,-0.343 -0.147,-0.517c-0.4,-1.391 -0.92,-2.635 -1.194,-3.253c-0.066,-0.155 -0.133,-0.296 -0.195,-0.427l-0.074,-0.158c-0.08,-0.173 -0.153,-0.322 -0.215,-0.443l-0.195,-0.387l0.197,-0.104l0.207,0.381c0.067,0.121 0.146,0.27 0.233,0.443l0.079,0.155c0.068,0.131 0.14,0.273 0.212,0.426c0.296,0.614 0.862,1.855 1.313,3.253c0.067,0.198 0.129,0.395 0.188,0.588c0.04,-0.004 0.08,-0.009 0.12,-0.013c-0.303,-1.089 -0.666,-2.05 -0.865,-2.547c-0.052,-0.135 -0.104,-0.258 -0.153,-0.372l-0.059,-0.14c-0.063,-0.152 -0.121,-0.282 -0.17,-0.389l-0.153,-0.34l0.201,-0.095l0.165,0.333c0.054,0.107 0.118,0.238 0.188,0.389l0.066,0.141c0.053,0.113 0.111,0.236 0.167,0.368c0.225,0.504 0.641,1.492 0.995,2.614l0,0l0.006,0c-0.082,-0.309 -0.167,-0.61 -0.251,-0.882c-0.079,-0.257 -0.148,-0.47 -0.201,-0.617l-0.082,-0.234l0.207,-0.08l0.096,0.228c0.062,0.146 0.145,0.358 0.241,0.614c0.108,0.288 0.22,0.608 0.327,0.938c0.072,-0.006 0.143,-0.013 0.215,-0.019c-0.231,-0.814 -0.508,-1.582 -0.71,-2.105c-0.124,-0.317 -0.228,-0.582 -0.306,-0.765l-0.119,-0.29l0.203,-0.09l0.133,0.284c0.086,0.18 0.203,0.441 0.344,0.756c0.084,0.19 0.179,0.413 0.28,0.659l0.057,-0.022l0.106,0.249c0.042,0.099 0.094,0.224 0.153,0.371c-0.317,-0.955 -0.565,-1.654 -0.568,-1.665l0.207,-0.08c0.006,0.014 0.5,1.221 1.022,2.628c0.044,-0.003 0.089,-0.007 0.134,-0.011c-0.062,-0.179 -0.124,-0.351 -0.186,-0.516c-0.359,-0.972 -0.858,-2.022 -1.482,-3.121l-0.797,-1.353l0.189,-0.118l0.845,1.33c0.671,1.094 1.214,2.143 1.612,3.117c0.083,0.199 0.165,0.408 0.247,0.628c0.066,-0.005 0.131,-0.01 0.197,-0.015c-0.272,-0.773 -0.661,-1.614 -1.158,-2.503c-0.176,-0.311 -0.357,-0.628 -0.485,-0.837l-0.189,-0.316l0.189,-0.118l0.201,0.307c0.126,0.187 0.294,0.454 0.524,0.823c0.525,0.852 0.945,1.665 1.254,2.42c-0.059,-0.172 -0.122,-0.347 -0.189,-0.523c-0.488,-1.34 -1.086,-2.531 -1.4,-3.121c-0.075,-0.146 -0.15,-0.278 -0.219,-0.402l-0.087,-0.155c-0.09,-0.165 -0.173,-0.306 -0.243,-0.421l-0.219,-0.368l0.189,-0.116l0.231,0.359c0.075,0.114 0.164,0.255 0.262,0.42l0.093,0.153c0.075,0.123 0.155,0.255 0.235,0.398c0.337,0.584 0.984,1.767 1.526,3.11c0.117,0.283 0.226,0.562 0.326,0.832c0.022,-0.002 0.045,-0.003 0.067,-0.005c-0.044,-0.143 -0.089,-0.284 -0.134,-0.422c-0.276,-0.841 -0.625,-1.77 -1.039,-2.762c-0.158,-0.368 -0.336,-0.65 -0.458,-0.822c-0.066,-0.095 -0.12,-0.166 -0.158,-0.214l-0.059,-0.076l0.172,-0.141l0.063,0.074c0.041,0.049 0.101,0.121 0.173,0.217c0.135,0.175 0.335,0.465 0.519,0.849c0.457,0.983 0.846,1.906 1.159,2.744c0.064,0.171 0.127,0.347 0.189,0.527c0.037,-0.003 0.074,-0.005 0.11,-0.007c-0.007,-0.027 -0.013,-0.053 -0.02,-0.076l-0.052,-0.201l0.184,-0.055c-0.068,-0.198 -0.135,-0.381 -0.2,-0.542c-0.036,-0.09 -0.074,-0.173 -0.108,-0.251l-0.056,-0.126c-0.04,-0.097 -0.083,-0.177 -0.121,-0.248l-0.148,-0.274l0.193,-0.11l0.101,0.165c-0.146,-0.289 -0.293,-0.551 -0.435,-0.777c-0.236,-0.376 -0.434,-0.63 -0.532,-0.747c-0.045,-0.057 -0.086,-0.103 -0.12,-0.139c-0.019,-0.022 -0.036,-0.04 -0.05,-0.057l-0.06,-0.067l0.163,-0.151l0.065,0.067c0.015,0.016 0.031,0.032 0.049,0.051c0.038,0.039 0.084,0.086 0.134,0.144c0.103,0.115 0.319,0.369 0.578,0.75c0.29,0.422 0.599,0.974 0.891,1.586c-0.153,-0.453 -0.306,-0.833 -0.457,-1.137c-0.181,-0.372 -0.371,-0.655 -0.498,-0.827c-0.069,-0.091 -0.125,-0.163 -0.166,-0.209l-0.065,-0.076l0.167,-0.147l0.066,0.072c0.044,0.046 0.106,0.119 0.184,0.215c0.142,0.176 0.352,0.466 0.555,0.846c0.294,0.539 0.588,1.282 0.895,2.26c0.038,-0.002 0.076,-0.004 0.115,-0.006l-0.049,-0.166c-0.017,-0.059 -0.037,-0.117 -0.057,-0.173l-0.032,-0.094c-0.053,-0.164 -0.115,-0.313 -0.174,-0.456l-0.009,-0.024c-0.042,-0.109 -0.088,-0.203 -0.133,-0.295l-0.078,-0.161c-0.017,-0.035 -0.033,-0.069 -0.049,-0.1l-0.224,-0.387l0.19,-0.116l0.244,0.381c0.022,0.036 0.04,0.07 0.059,0.106l0.087,0.159c0.05,0.09 0.106,0.192 0.155,0.306c0.073,0.154 0.148,0.314 0.213,0.487l0.035,0.089c0.024,0.059 0.048,0.119 0.069,0.181l0.059,0.171l-0.53,-2.224l0.129,-0.034c-0.066,-0.125 -0.13,-0.245 -0.191,-0.36l-0.589,-1.103l0.193,-0.109l0.619,1.051c0.198,0.336 0.409,0.695 0.621,1.098c0.171,0.325 0.326,0.653 0.461,0.981c-0.085,-0.354 -0.172,-0.682 -0.236,-0.919c-0.098,-0.358 -0.21,-0.764 -0.329,-1.084c-0.133,-0.365 -0.263,-0.602 -0.329,-0.711c-0.048,-0.081 -0.089,-0.142 -0.117,-0.184l-0.046,-0.065l0.179,-0.131l0.049,0.063c0.033,0.043 0.08,0.107 0.135,0.192c0.13,0.194 0.266,0.455 0.383,0.736c0.138,0.323 0.265,0.713 0.387,1.091c0.162,0.507 0.28,0.9 0.381,1.273c0.042,0.152 0.083,0.308 0.122,0.466c0.094,-0.003 0.187,-0.006 0.28,-0.009c-0.149,-0.583 -0.36,-1.215 -0.63,-1.886c-0.119,-0.29 -0.218,-0.532 -0.292,-0.699l-0.115,-0.266l0.202,-0.094l0.129,0.258c0.083,0.164 0.198,0.401 0.334,0.688c0.331,0.704 0.594,1.371 0.783,1.987c0.025,-0.001 0.05,-0.002 0.075,-0.002c-0.097,-0.489 -0.222,-0.99 -0.37,-1.479c-0.079,-0.272 -0.172,-0.558 -0.278,-0.852c-0.103,-0.276 -0.216,-0.542 -0.336,-0.788c-0.243,-0.492 -0.527,-0.916 -0.779,-1.291c-0.513,-0.753 -0.831,-1.27 -0.834,-1.275l0.187,-0.12c0.004,0.005 0.336,0.506 0.862,1.224c0.281,0.39 0.585,0.811 0.854,1.314c0.133,0.251 0.26,0.523 0.377,0.808c0.12,0.3 0.226,0.59 0.315,0.864c0.177,0.522 0.329,1.06 0.449,1.583c0.019,0 0.038,-0.001 0.057,-0.001c-0.058,-0.401 -0.133,-0.819 -0.228,-1.233c-0.189,-0.862 -0.488,-1.824 -0.887,-2.861c-0.172,-0.435 -0.286,-0.717 -0.371,-0.913l-0.147,-0.346l0.203,-0.09l0.159,0.339c0.094,0.195 0.223,0.483 0.408,0.906c0.445,1.035 0.784,2.002 1.01,2.873c0.119,0.442 0.215,0.889 0.292,1.316l0.02,-0.001l0.017,0c-0.034,-0.241 -0.074,-0.485 -0.121,-0.727c-0.136,-0.722 -0.359,-1.538 -0.661,-2.424c-0.113,-0.322 -0.208,-0.591 -0.279,-0.778l-0.111,-0.295l0.206,-0.083l0.124,0.29c0.079,0.184 0.188,0.45 0.316,0.771c0.067,0.17 0.131,0.338 0.191,0.503l-0.033,-0.119l0.212,-0.066l0.08,0.235c0.053,0.149 0.122,0.367 0.2,0.627c0.176,0.585 0.355,1.295 0.492,1.949c0.008,0.035 0.015,0.071 0.023,0.106c0.029,0 0.057,-0.001 0.086,-0.001c-0.025,-0.168 -0.053,-0.337 -0.087,-0.505c-0.146,-0.75 -0.381,-1.482 -0.537,-1.966c-0.085,-0.265 -0.158,-0.485 -0.21,-0.639l-0.081,-0.242l0.208,-0.077l0.095,0.237c0.061,0.151 0.147,0.367 0.248,0.629c0.14,0.363 0.334,0.865 0.505,1.416c-0.139,-0.776 -0.298,-1.45 -0.386,-1.806c-0.072,-0.286 -0.134,-0.524 -0.181,-0.689l-0.073,-0.261l0.212,-0.067l0.067,0.193l0.201,-0.061l0.292,0.87c0.16,0.481 0.402,1.206 0.627,1.939c0.105,0.343 0.206,0.689 0.297,1.018l0.033,0l0.038,0Zm-37.129,8.789c0.063,0.042 0.131,0.09 0.201,0.144c0.145,0.109 0.298,0.244 0.459,0.403c0.037,-0.039 0.074,-0.077 0.111,-0.116c-0.258,-0.155 -0.517,-0.3 -0.771,-0.431Zm-0.051,-0.329c0.252,0.113 0.618,0.29 1.048,0.53c0.029,-0.029 0.058,-0.058 0.088,-0.088c-0.123,-0.05 -0.233,-0.095 -0.329,-0.133c-0.267,-0.107 -0.542,-0.212 -0.807,-0.309Zm4.982,-3.242c0.097,0.089 0.239,0.22 0.411,0.382c0.024,0.022 0.047,0.044 0.07,0.066c0.011,-0.007 0.023,-0.013 0.035,-0.02c-0.18,-0.159 -0.352,-0.302 -0.516,-0.428Zm4.049,-1.443c0.049,0.058 0.098,0.117 0.149,0.177l0.013,-0.005l0.012,-0.004c-0.008,-0.008 -0.016,-0.016 -0.024,-0.024l-0.129,-0.123c-0.007,-0.007 -0.014,-0.014 -0.021,-0.021Zm4.09,-2.828c0.054,0.068 0.177,0.224 0.349,0.442c0.04,0.027 0.08,0.054 0.12,0.081c0.32,0.217 0.638,0.442 0.925,0.65c-0.351,-0.314 -0.7,-0.615 -0.992,-0.853c-0.16,-0.13 -0.297,-0.24 -0.402,-0.32Zm-0.159,-1.164l0.199,0.169c0.179,0.148 0.424,0.363 0.736,0.64c0.089,0.08 0.177,0.161 0.263,0.241c0.161,0.11 0.315,0.217 0.463,0.323c0.124,0.087 0.248,0.178 0.374,0.271c-0.102,-0.091 -0.207,-0.183 -0.313,-0.274c-0.599,-0.527 -1.206,-0.995 -1.722,-1.37Zm9.699,-0.455c0.19,0.43 0.388,0.925 0.595,1.489c0.013,0.037 0.026,0.074 0.04,0.111c0.028,-0.004 0.056,-0.008 0.084,-0.012c-0.013,-0.039 -0.027,-0.078 -0.04,-0.116l-0.102,-0.279c-0.021,-0.057 -0.045,-0.111 -0.067,-0.165l-0.04,-0.095c-0.064,-0.161 -0.136,-0.306 -0.206,-0.447l-0.01,-0.022c-0.048,-0.104 -0.101,-0.196 -0.152,-0.284l-0.086,-0.152c-0.006,-0.009 -0.011,-0.019 -0.016,-0.028Zm0.965,0.367l0.409,1.132c0.023,-0.003 0.047,-0.006 0.071,-0.009c-0.145,-0.367 -0.308,-0.746 -0.48,-1.123Zm8.332,-1.501l0.547,1.91c0.073,-0.003 0.146,-0.006 0.219,-0.008c-0.028,-0.092 -0.056,-0.182 -0.085,-0.269c-0.144,-0.438 -0.322,-0.883 -0.529,-1.32c-0.051,-0.107 -0.102,-0.211 -0.152,-0.313Zm6.669,-1.96c0.061,0.168 0.115,0.347 0.171,0.532l0.03,0.099c0.131,0.435 0.242,0.849 0.33,1.23c0.08,0.34 0.149,0.699 0.204,1.06c-0.008,-0.201 -0.023,-0.412 -0.048,-0.628c-0.038,-0.335 -0.098,-0.693 -0.178,-1.067c-0.037,-0.168 -0.074,-0.332 -0.114,-0.485c-0.035,-0.138 -0.076,-0.282 -0.133,-0.4c-0.055,-0.117 -0.134,-0.208 -0.197,-0.275c-0.022,-0.023 -0.044,-0.045 -0.065,-0.066Zm-48.489,-10.242c0.097,-0.339 0.207,-0.638 0.337,-0.911c0.301,-0.633 0.729,-1.211 1.072,-1.676l0.054,-0.072c0.172,-0.23 0.317,-0.42 0.42,-0.553l0.16,-0.208l0.18,0.131l-0.147,0.212c-0.094,0.134 -0.227,0.327 -0.382,0.559l-0.045,0.067c-0.309,0.465 -0.694,1.044 -0.943,1.657c-0.098,0.242 -0.18,0.506 -0.249,0.803c0.064,0.001 0.129,0.003 0.195,0.004c0.151,-0.399 0.307,-0.778 0.416,-1.041l0.227,-0.547l0.188,0.068l0,-0.001l0.07,-0.161l0.207,0.079l-0.053,0.163c-0.034,0.103 -0.079,0.251 -0.129,0.428c-0.057,0.207 -0.156,0.586 -0.234,1.027l0.011,0c0.126,-0.327 0.272,-0.623 0.379,-0.841c0.082,-0.165 0.152,-0.302 0.202,-0.398l0.077,-0.149l0.202,0.093l-0.063,0.152c-0.041,0.097 -0.097,0.235 -0.163,0.401c-0.094,0.24 -0.19,0.491 -0.269,0.75l0.111,0.002c0.055,-0.19 0.114,-0.374 0.175,-0.543c0.059,-0.166 0.113,-0.303 0.154,-0.398l0.062,-0.146l0.206,0.076c0.045,-0.095 0.092,-0.193 0.141,-0.291c0.106,-0.205 0.195,-0.374 0.261,-0.491l0.101,-0.182l0.198,0.101l-0.088,0.186c-0.058,0.118 -0.133,0.287 -0.222,0.489c-0.184,0.435 -0.323,0.842 -0.413,1.212l0.072,0.002c0.011,-0.039 0.022,-0.077 0.035,-0.116c0.161,-0.548 0.43,-1.16 0.799,-1.818c0.155,-0.271 0.263,-0.454 0.342,-0.578l0.133,-0.214l0.192,0.112l-0.12,0.218c-0.07,0.124 -0.166,0.307 -0.302,0.576c-0.32,0.648 -0.545,1.247 -0.668,1.779c-0.005,0.017 -0.009,0.034 -0.013,0.05l0.144,0.004c0.04,-0.108 0.082,-0.215 0.127,-0.322c0.069,-0.172 0.154,-0.357 0.251,-0.547c0.098,-0.183 0.206,-0.358 0.322,-0.52c0.234,-0.326 0.509,-0.6 0.751,-0.842c0.479,-0.472 0.773,-0.793 0.776,-0.796l0.167,0.146c-0.003,0.003 -0.283,0.335 -0.732,0.813c-0.227,0.245 -0.48,0.518 -0.684,0.829c-0.1,0.154 -0.192,0.32 -0.273,0.492c-0.084,0.186 -0.153,0.358 -0.211,0.527c-0.028,0.076 -0.054,0.153 -0.079,0.23c0.062,0.002 0.124,0.003 0.187,0.005c0.102,-0.201 0.221,-0.409 0.353,-0.622c0.116,-0.184 0.213,-0.335 0.285,-0.44l0.109,-0.163l0.189,0.116l-0.094,0.168c-0.062,0.106 -0.143,0.259 -0.24,0.442c-0.09,0.174 -0.171,0.343 -0.242,0.508c0.044,0.001 0.087,0.002 0.131,0.003c0.015,-0.037 0.03,-0.076 0.045,-0.116c0.096,-0.24 0.194,-0.487 0.309,-0.695c0.099,-0.181 0.218,-0.351 0.336,-0.479c0.048,-0.054 0.091,-0.096 0.122,-0.125l0.044,-0.041l0.155,0.159l-0.04,0.042c-0.025,0.025 -0.06,0.064 -0.1,0.114c-0.057,0.068 -0.166,0.215 -0.27,0.44c-0.086,0.183 -0.156,0.394 -0.245,0.672c-0.004,0.013 -0.008,0.026 -0.012,0.038c0.094,0.003 0.189,0.006 0.284,0.008c0.07,-0.113 0.145,-0.226 0.225,-0.339c0.184,-0.261 0.371,-0.494 0.536,-0.699l0.543,-0.677l0.177,0.134l-0.493,0.686c-0.021,0.029 -0.042,0.058 -0.063,0.087l-0.217,0.828c0.038,0.001 0.076,0.002 0.114,0.003c0.019,-0.031 0.037,-0.061 0.055,-0.09c0.049,-0.084 0.098,-0.15 0.142,-0.209l0.074,-0.1c0.017,-0.024 0.033,-0.046 0.05,-0.067l0.219,-0.249l0.16,0.133c0.069,-0.117 0.139,-0.224 0.211,-0.321c0.177,-0.246 0.367,-0.435 0.495,-0.55c0.073,-0.063 0.13,-0.112 0.172,-0.143l0.059,-0.046l0.14,0.173l-0.057,0.048c-0.039,0.031 -0.089,0.077 -0.152,0.136c-0.111,0.109 -0.277,0.288 -0.427,0.52c-0.138,0.208 -0.271,0.471 -0.399,0.787c0.094,0.003 0.187,0.005 0.281,0.008c0.164,-0.289 0.339,-0.552 0.513,-0.768c0.151,-0.189 0.319,-0.371 0.473,-0.512c0.04,-0.039 0.08,-0.072 0.113,-0.1l0.094,-0.08l0.148,0.166l-0.091,0.084c-0.028,0.025 -0.062,0.056 -0.097,0.093c-0.081,0.081 -0.24,0.25 -0.418,0.497c-0.074,0.1 -0.147,0.211 -0.218,0.331l0.181,0.117l-0.096,0.16c-0.006,0.011 -0.012,0.021 -0.018,0.03c0.131,0.005 0.262,0.009 0.394,0.013c0.144,-0.343 0.309,-0.704 0.494,-1.08c0.131,-0.256 0.292,-0.454 0.403,-0.575c0.059,-0.065 0.108,-0.115 0.143,-0.148l0.051,-0.05l0.159,0.155l-0.048,0.051c-0.03,0.032 -0.073,0.08 -0.124,0.142c-0.095,0.113 -0.229,0.296 -0.331,0.528c-0.145,0.344 -0.274,0.674 -0.386,0.989c0.051,0.002 0.102,0.003 0.153,0.005c0.315,-0.679 0.675,-1.262 0.883,-1.581c0.059,-0.094 0.121,-0.183 0.179,-0.266l0.068,-0.098c0.074,-0.109 0.144,-0.203 0.202,-0.28l0.178,-0.238l0.181,0.129l-0.165,0.242c-0.053,0.076 -0.115,0.168 -0.18,0.276l-0.065,0.102c-0.051,0.08 -0.106,0.166 -0.158,0.26c-0.178,0.302 -0.476,0.84 -0.738,1.467c0.034,0.002 0.068,0.003 0.102,0.004c0.143,-0.247 0.308,-0.502 0.494,-0.765c0.165,-0.228 0.303,-0.418 0.405,-0.548l0.156,-0.204l0.18,0.13l-0.142,0.209c-0.093,0.132 -0.216,0.322 -0.363,0.551c-0.137,0.219 -0.261,0.432 -0.37,0.64c0.058,0.002 0.116,0.004 0.173,0.006c0.242,-0.488 0.555,-1.005 0.935,-1.543l0.652,-0.884l0.18,0.13l-0.598,0.892c-0.318,0.495 -0.58,0.97 -0.783,1.419c0.037,0.001 0.074,0.003 0.111,0.004c0.184,-0.481 0.321,-0.813 0.323,-0.819l0.209,0.077c-0.002,0.006 -0.102,0.309 -0.237,0.753l0.025,0.001l0.06,-0.138l0.208,0.078l-0.023,0.07c0.033,0.001 0.065,0.002 0.098,0.003c0.02,-0.045 0.041,-0.091 0.062,-0.136c0.095,-0.206 0.176,-0.375 0.236,-0.493l0.092,-0.183l0.201,0.092l-0.077,0.186c-0.051,0.119 -0.117,0.288 -0.196,0.492c-0.006,0.018 -0.013,0.036 -0.02,0.054l0.004,0c0.03,-0.077 0.056,-0.143 0.08,-0.197l0.062,-0.146l0.208,0.078l-0.048,0.149c-0.012,0.036 -0.026,0.079 -0.04,0.127l0.063,0.003c0.139,-0.384 0.279,-0.704 0.373,-0.906c0.037,-0.085 0.078,-0.166 0.116,-0.241l0.044,-0.089c0.048,-0.099 0.094,-0.185 0.133,-0.256l0.117,-0.216l0.198,0.1l-0.104,0.22c-0.033,0.069 -0.072,0.152 -0.113,0.249l-0.039,0.091c-0.032,0.073 -0.066,0.151 -0.097,0.236c-0.075,0.188 -0.184,0.479 -0.29,0.826c0.045,0.001 0.09,0.003 0.136,0.005c0.243,-0.74 0.555,-1.385 0.734,-1.73c0.049,-0.099 0.102,-0.193 0.151,-0.28l0.055,-0.099c0.062,-0.114 0.121,-0.213 0.171,-0.293l0.151,-0.249l0.192,0.111l-0.138,0.252c-0.044,0.08 -0.096,0.175 -0.15,0.286l-0.051,0.103c-0.043,0.085 -0.089,0.176 -0.131,0.273c-0.154,0.333 -0.414,0.942 -0.612,1.642c0.084,0.004 0.167,0.008 0.251,0.011c0.33,-0.699 0.802,-1.464 1.303,-2.114c0.233,-0.304 0.434,-0.541 0.561,-0.686l0.226,-0.253l0.169,0.145l-0.213,0.256c-0.117,0.143 -0.302,0.379 -0.518,0.683c-0.437,0.613 -0.842,1.327 -1.129,1.987l0.047,0.002c0.118,-0.25 0.229,-0.459 0.31,-0.602c0.133,-0.234 0.241,-0.414 0.322,-0.536l0.128,-0.196l0.19,0.114l-0.113,0.202c-0.07,0.12 -0.161,0.298 -0.273,0.53c-0.059,0.124 -0.138,0.297 -0.221,0.504c0.044,0.003 0.087,0.005 0.13,0.007c0.046,-0.103 0.093,-0.203 0.144,-0.293c0.098,-0.181 0.217,-0.351 0.335,-0.479c0.049,-0.055 0.092,-0.097 0.122,-0.125l0.044,-0.041l0.156,0.158l-0.041,0.042c-0.025,0.026 -0.06,0.064 -0.1,0.115c-0.057,0.068 -0.166,0.215 -0.269,0.439c-0.03,0.063 -0.057,0.128 -0.084,0.199c0.089,0.004 0.179,0.008 0.268,0.013c0.233,-0.445 0.502,-0.897 0.775,-1.294c0.165,-0.244 0.312,-0.441 0.421,-0.586l0.169,-0.219l0.179,0.132l-0.155,0.221c-0.099,0.144 -0.232,0.341 -0.38,0.585c-0.044,0.071 -0.088,0.145 -0.132,0.219l0.052,0.016l-0.252,0.961l0.077,0.004c0.04,-0.073 0.083,-0.142 0.122,-0.204c0.049,-0.085 0.099,-0.152 0.143,-0.211l0.071,-0.097c0.018,-0.025 0.035,-0.047 0.052,-0.069l0.219,-0.249l0.104,0.086c0.113,-0.217 0.228,-0.405 0.347,-0.566c0.176,-0.245 0.367,-0.434 0.495,-0.55c0.073,-0.063 0.13,-0.111 0.172,-0.143l0.059,-0.046l0.14,0.173l-0.058,0.049c-0.038,0.031 -0.088,0.077 -0.151,0.136c-0.111,0.108 -0.277,0.288 -0.427,0.52c-0.197,0.295 -0.383,0.701 -0.556,1.211c0.041,0.003 0.081,0.005 0.122,0.007c0.219,-0.447 0.472,-0.858 0.725,-1.171c0.151,-0.188 0.319,-0.37 0.472,-0.512c0.041,-0.038 0.081,-0.072 0.113,-0.099l0.095,-0.081l0.147,0.166l-0.091,0.084c-0.027,0.026 -0.061,0.056 -0.097,0.093c-0.08,0.081 -0.24,0.251 -0.418,0.497c-0.205,0.28 -0.405,0.641 -0.579,1.036c0.021,-0.036 0.042,-0.072 0.064,-0.108c0.34,-0.575 0.825,-1.21 1.44,-1.885c0.103,-0.112 0.144,-0.159 0.172,-0.191c0.034,-0.039 0.049,-0.056 0.126,-0.134l0.218,-0.218l0.16,0.155l-0.205,0.221c-0.054,0.059 -0.068,0.079 -0.086,0.106c-0.024,0.036 -0.057,0.086 -0.173,0.223c-0.1,0.119 -0.196,0.236 -0.288,0.352l0.168,0.132l-0.12,0.162c-0.039,0.052 -0.083,0.113 -0.13,0.184l-0.015,0.022c-0.045,0.066 -0.096,0.14 -0.145,0.221l-0.176,0.293c-0.047,0.077 -0.088,0.157 -0.131,0.239l-0.048,0.091c-0.028,0.059 -0.059,0.122 -0.091,0.191c0.066,0.004 0.132,0.008 0.197,0.012c0.036,-0.071 0.073,-0.143 0.112,-0.215c0.444,-0.854 1.041,-1.559 1.357,-1.902c0.035,-0.041 0.072,-0.08 0.108,-0.119l-0.002,-0.001l0.148,-0.149c0.013,-0.013 0.026,-0.025 0.038,-0.036l0.024,-0.025l0.002,0.001c0.012,-0.01 0.024,-0.02 0.036,-0.027l0.19,-0.175l0.153,0.161l-0.116,0.115l0.001,0.001l-0.142,0.155c-0.072,0.079 -0.151,0.164 -0.226,0.258c-0.268,0.315 -0.52,0.659 -0.739,1.006l0.183,0.116l-0.089,0.151c-0.029,0.048 -0.061,0.104 -0.095,0.17l-0.035,0.065c-0.026,0.049 -0.055,0.102 -0.081,0.159c-0.009,0.019 -0.019,0.038 -0.029,0.059c0.114,-0.217 0.243,-0.431 0.38,-0.626c0.053,-0.08 0.11,-0.154 0.162,-0.221c0.066,-0.087 0.116,-0.149 0.161,-0.199l0.128,-0.149l0.173,0.14l-0.118,0.155c-0.038,0.048 -0.079,0.106 -0.123,0.173l-0.012,0.018c-0.043,0.064 -0.091,0.134 -0.135,0.213c-0.151,0.249 -0.286,0.525 -0.393,0.801c0.067,0.005 0.133,0.01 0.199,0.015c0.29,-0.583 0.681,-1.107 1.085,-1.447c0.253,-0.215 0.501,-0.348 0.626,-0.408c0.089,-0.042 0.16,-0.073 0.21,-0.091l0.072,-0.028l0.084,0.206l-0.071,0.03c-0.047,0.019 -0.11,0.049 -0.187,0.089c-0.11,0.057 -0.328,0.184 -0.545,0.386c-0.334,0.309 -0.65,0.774 -0.882,1.294l0.023,0.002c0.401,-0.61 0.799,-1.079 1.185,-1.393c0.268,-0.221 0.509,-0.36 0.628,-0.424c0.087,-0.045 0.155,-0.08 0.205,-0.101l0.069,-0.033l0.096,0.201l-0.068,0.035c-0.047,0.022 -0.108,0.056 -0.186,0.099c-0.106,0.062 -0.321,0.197 -0.558,0.41c-0.063,0.056 -0.127,0.117 -0.19,0.183l0.145,0.093c0,0.001 -0.098,0.171 -0.235,0.429c-0.104,0.2 -0.198,0.391 -0.28,0.572c0.031,0.003 0.061,0.006 0.091,0.009c0.374,-0.534 0.767,-1 0.985,-1.248c0.175,-0.197 0.322,-0.36 0.43,-0.472l0.165,-0.175l0.166,0.148l-0.153,0.18c-0.099,0.114 -0.232,0.279 -0.39,0.477c-0.181,0.23 -0.496,0.647 -0.802,1.129c0.068,0.007 0.134,0.014 0.2,0.021c0.295,-0.384 0.612,-0.783 0.899,-1.13c0.317,-0.384 0.538,-0.635 0.538,-0.635l0.17,0.142c0,0.001 -0.2,0.256 -0.485,0.644c-0.027,0.038 -0.055,0.076 -0.084,0.115c0.189,-0.17 0.305,-0.272 0.308,-0.275l0.152,0.162c-0.006,0.006 -0.375,0.367 -0.867,0.87c0.503,-0.425 1.095,-0.864 1.767,-1.309l1.091,-0.7l0.122,0.186l-1.048,0.72c-0.635,0.45 -1.191,0.892 -1.66,1.318l0.151,0.02c0.026,-0.018 0.052,-0.036 0.078,-0.055c0.393,-0.28 0.849,-0.561 1.383,-0.85l0.01,-0.014l0.006,0.005c0.225,-0.122 0.463,-0.245 0.715,-0.37c0.31,-0.15 0.566,-0.274 0.75,-0.358l0.284,-0.132l0.097,0.2l-0.276,0.14c-0.177,0.087 -0.423,0.217 -0.719,0.373c-0.283,0.153 -0.545,0.301 -0.79,0.447l-0.229,0.355c0.787,-0.488 1.533,-0.88 1.954,-1.093c0.126,-0.066 0.25,-0.125 0.364,-0.18l0.136,-0.066c0.149,-0.073 0.283,-0.135 0.393,-0.184l0.343,-0.157l0.095,0.201l-0.334,0.164c-0.106,0.051 -0.234,0.114 -0.376,0.19l-0.136,0.07c-0.06,0.031 -0.124,0.064 -0.189,0.098l0.039,0.103l-0.07,0.028c-0.046,0.018 -0.108,0.046 -0.185,0.083c-0.133,0.065 -0.331,0.175 -0.534,0.333c0.009,-0.004 0.017,-0.009 0.026,-0.013c0.193,-0.1 0.355,-0.182 0.517,-0.253c0.311,-0.14 0.64,-0.24 0.9,-0.274c0.094,-0.014 0.186,-0.022 0.28,-0.025l0.098,-0.002l0.005,0.177c0.18,-0.098 0.335,-0.179 0.456,-0.241l0.275,-0.139l0.104,0.196l-0.264,0.147c-0.166,0.094 -0.402,0.23 -0.678,0.398c-0.132,0.082 -0.26,0.164 -0.383,0.245l0.118,0.178l-0.164,0.117c-0.053,0.037 -0.113,0.081 -0.181,0.134c-0.082,0.063 -0.154,0.118 -0.227,0.181l-0.259,0.224c-0.054,0.046 -0.106,0.095 -0.157,0.146c0.076,0.014 0.151,0.029 0.226,0.043c0.654,-0.608 1.369,-1.046 1.751,-1.26c0.108,-0.064 0.219,-0.121 0.321,-0.172l0.406,-0.2l0.284,-0.129l0.096,0.2l-0.656,0.344c-0.094,0.052 -0.196,0.109 -0.298,0.176c-0.352,0.215 -0.699,0.464 -1.015,0.725l0.137,0.167l-0.131,0.116c-0.042,0.036 -0.091,0.08 -0.143,0.132l-0.047,0.045l0.011,0.003c0.119,-0.107 0.243,-0.208 0.367,-0.301c0.075,-0.06 0.153,-0.113 0.223,-0.16c0.089,-0.062 0.155,-0.105 0.214,-0.138l0.169,-0.102l0.12,0.187l-0.16,0.11c-0.052,0.034 -0.108,0.076 -0.171,0.126l-0.018,0.015c-0.061,0.046 -0.128,0.098 -0.194,0.159c-0.067,0.057 -0.134,0.118 -0.199,0.181c0.097,0.021 0.193,0.043 0.287,0.065c0.316,-0.245 0.645,-0.443 0.955,-0.568c0.308,-0.126 0.585,-0.175 0.723,-0.193c0.097,-0.012 0.174,-0.019 0.228,-0.021l0.076,-0.004l0.015,0.222l-0.077,0.006c-0.05,0.004 -0.119,0.013 -0.204,0.026c-0.122,0.021 -0.369,0.074 -0.639,0.198c-0.223,0.102 -0.455,0.249 -0.682,0.429c0.05,0.012 0.1,0.025 0.15,0.037c0.309,-0.2 0.601,-0.353 0.872,-0.457c0.324,-0.126 0.596,-0.184 0.73,-0.207c0.096,-0.016 0.172,-0.027 0.225,-0.033l0.076,-0.008l0.03,0.22l-0.077,0.011c-0.051,0.007 -0.12,0.02 -0.207,0.038c-0.12,0.025 -0.367,0.086 -0.658,0.215c-0.077,0.033 -0.156,0.071 -0.237,0.115l0.109,0.133c-0.001,0.001 -0.066,0.059 -0.171,0.158c0.101,0.029 0.2,0.057 0.298,0.086c0.19,-0.122 0.356,-0.223 0.479,-0.295c0.228,-0.133 0.419,-0.242 0.556,-0.315l0.212,-0.115l0.111,0.193l-0.201,0.123c-0.13,0.078 -0.308,0.193 -0.52,0.332c-0.076,0.05 -0.169,0.114 -0.276,0.189c0.097,0.031 0.192,0.062 0.285,0.093c0.09,-0.059 0.18,-0.116 0.267,-0.171c0.421,-0.266 0.709,-0.436 0.709,-0.436l0.118,0.188c0,0.001 -0.269,0.181 -0.661,0.461c-0.034,0.024 -0.068,0.049 -0.103,0.074l0.005,0.001c0.222,-0.097 0.357,-0.155 0.361,-0.157l0.093,0.201c-0.003,0.002 -0.055,0.027 -0.145,0.073c0.063,0.024 0.125,0.049 0.186,0.074c0.302,-0.098 0.62,-0.192 0.951,-0.283l1.255,-0.326l0.057,0.215l-1.219,0.357c-0.221,0.069 -0.436,0.139 -0.644,0.211c0.141,0.064 0.275,0.13 0.402,0.197c0.275,-0.051 0.566,-0.099 0.874,-0.143c0.341,-0.047 0.623,-0.085 0.824,-0.107l0.311,-0.037l0.03,0.22l-0.305,0.047c-0.196,0.028 -0.471,0.075 -0.8,0.131c-0.191,0.034 -0.375,0.07 -0.551,0.106c0.076,0.047 0.149,0.094 0.218,0.142c0.539,-0.109 1.004,-0.186 1.312,-0.233c0.139,-0.023 0.275,-0.041 0.4,-0.058l0.151,-0.02c0.165,-0.023 0.311,-0.04 0.431,-0.053l0.375,-0.042l0.027,0.22l-0.368,0.052c-0.117,0.016 -0.258,0.036 -0.416,0.063l-0.151,0.025c-0.121,0.019 -0.251,0.04 -0.386,0.066c-0.258,0.047 -0.629,0.119 -1.061,0.217c0.032,0.026 0.063,0.053 0.093,0.08c0.098,-0.017 0.195,-0.032 0.289,-0.047c0.216,-0.035 0.396,-0.063 0.57,-0.08c0.339,-0.035 0.682,-0.028 0.941,0.02c0.093,0.017 0.186,0.038 0.274,0.064l0.094,0.029l-0.064,0.213l-0.092,-0.026c-0.079,-0.021 -0.163,-0.039 -0.248,-0.051c-0.236,-0.038 -0.548,-0.036 -0.857,0.007c-0.165,0.022 -0.335,0.053 -0.54,0.094c-0.041,0.008 -0.081,0.016 -0.122,0.024c0.084,0.096 0.157,0.194 0.218,0.294c0.093,-0.014 0.183,-0.027 0.268,-0.039c0.196,-0.027 0.36,-0.048 0.477,-0.059l0.179,-0.02l0.031,0.22l-0.174,0.029c-0.111,0.018 -0.266,0.047 -0.451,0.083c-0.064,0.013 -0.131,0.027 -0.199,0.041c0.077,0.188 0.115,0.382 0.115,0.581c0,1.877 -6.454,2.556 -13.385,3.249c-6.931,0.693 -10.61,0.801 -17.291,1.074c-6.603,0.27 -5.211,0.163 -5.211,0.163l1.322,-6.476l1.053,-3.241c0,0 0.078,0.001 0.225,0.003c0.033,-0.198 0.085,-0.409 0.155,-0.627c0.035,-0.109 0.07,-0.213 0.108,-0.311c0.037,-0.098 0.082,-0.201 0.152,-0.294c0.069,-0.096 0.167,-0.168 0.244,-0.22c0.07,-0.047 0.135,-0.085 0.191,-0.118l0.211,-0.121l0.012,0.02c0.062,-0.077 0.138,-0.152 0.236,-0.233c0.081,-0.065 0.156,-0.12 0.219,-0.165c0.123,-0.088 0.197,-0.136 0.197,-0.136l0.127,0.182c-0.001,0 -0.068,0.05 -0.181,0.138l-0.037,0.03c-0.104,0.083 -0.246,0.197 -0.347,0.343c-0.102,0.15 -0.158,0.349 -0.218,0.559l-0.016,0.059c-0.075,0.268 -0.133,0.521 -0.173,0.754c-0.009,0.05 -0.018,0.102 -0.025,0.153l0.019,0.001c0.042,-0.225 0.097,-0.466 0.165,-0.719c0.075,-0.274 0.132,-0.455 0.132,-0.455l0.215,0.055c0,0.001 -0.035,0.18 -0.076,0.45c-0.036,0.238 -0.062,0.464 -0.077,0.675l0.056,0.001c0.002,-0.007 0.004,-0.013 0.005,-0.02c0.139,-0.577 0.365,-1.118 0.529,-1.471c0.094,-0.196 0.173,-0.358 0.233,-0.47l0.09,-0.174l0.201,0.095l-0.077,0.178c-0.05,0.113 -0.114,0.274 -0.191,0.467c-0.129,0.338 -0.3,0.854 -0.392,1.402c0.054,0.001 0.108,0.002 0.164,0.003c0.056,-0.179 0.116,-0.363 0.177,-0.546c0.149,-0.449 0.339,-0.957 0.521,-1.394c0.079,-0.188 0.146,-0.344 0.196,-0.453l0.075,-0.169l0.206,0.082l-0.061,0.173c-0.04,0.109 -0.093,0.265 -0.155,0.452c-0.144,0.437 -0.29,0.943 -0.4,1.389c-0.039,0.159 -0.077,0.318 -0.114,0.475l0.026,0Zm26.439,-10.99c-0.117,-0.122 -0.238,-0.236 -0.346,-0.339l-0.033,-0.031c-0.119,-0.112 -0.221,-0.205 -0.293,-0.27l-0.114,-0.103l0.145,-0.168l0.125,0.101c0.08,0.065 0.194,0.157 0.327,0.269l0.043,0.036c0.269,0.228 0.604,0.511 0.831,0.82c0.04,0.054 0.076,0.109 0.11,0.167c0.011,0.011 0.023,0.023 0.035,0.035c-0.067,-0.187 -0.152,-0.391 -0.238,-0.569c-0.043,-0.087 -0.079,-0.16 -0.107,-0.211l-0.044,-0.083l0.19,-0.115l0.055,0.081c0.037,0.052 0.086,0.127 0.144,0.218c0.122,0.193 0.247,0.414 0.348,0.614c0.025,0.015 0.059,0.036 0.097,0.062c0.035,0.024 0.069,0.05 0.103,0.078c-0.056,-0.16 -0.129,-0.304 -0.19,-0.41c-0.053,-0.089 -0.099,-0.165 -0.135,-0.217l-0.057,-0.087l0.128,-0.093c-0.008,-0.008 -0.017,-0.015 -0.025,-0.023c-0.166,-0.146 -0.31,-0.26 -0.402,-0.33l-0.166,-0.125l0.131,-0.18l0.177,0.124c0.103,0.073 0.262,0.189 0.443,0.337c0.072,0.058 0.142,0.118 0.211,0.178l0.028,-0.063c0,0 0.059,0.025 0.159,0.069c0.051,0.023 0.112,0.05 0.176,0.083c0.082,0.042 0.144,0.08 0.194,0.12l0.005,-0.014l0.032,0.012c-0.01,-0.015 -0.02,-0.028 -0.029,-0.041c-0.031,-0.047 -0.064,-0.089 -0.093,-0.127l-0.042,-0.053c-0.039,-0.052 -0.077,-0.096 -0.109,-0.133l-0.105,-0.123l0.165,-0.149l0.115,0.121c0.038,0.038 0.084,0.087 0.132,0.143l0.04,0.045c0.038,0.044 0.08,0.091 0.118,0.141c0.072,0.089 0.174,0.221 0.278,0.379c0.01,0.007 0.019,0.015 0.028,0.022c0.06,0.05 0.098,0.108 0.127,0.157c0.028,0.048 0.053,0.099 0.078,0.152c0.045,0.097 0.077,0.19 0.098,0.278c0.005,0.011 0.009,0.023 0.014,0.034c0.02,0.048 0.039,0.095 0.056,0.142c0.006,-0.018 0.01,-0.035 0.014,-0.052c0.004,-0.015 0.007,-0.029 0.01,-0.044c-0.087,-0.231 -0.196,-0.429 -0.266,-0.545c-0.023,-0.043 -0.048,-0.079 -0.071,-0.113l-0.027,-0.042c-0.029,-0.045 -0.057,-0.083 -0.081,-0.115l-0.077,-0.107l0.175,-0.136l0.088,0.104c0.029,0.034 0.065,0.076 0.102,0.126l0.031,0.041c0.018,0.022 0.036,0.046 0.054,0.07l0.091,-0.057l0.048,0.065c0.032,0.043 0.073,0.106 0.119,0.184c0.039,0.067 0.07,0.134 0.095,0.199l0.013,-0.007l-0.019,-0.075l-0.133,-0.523l-0.176,-0.175l0.103,-0.111l-0.061,-0.237l0.097,0.197l0.012,-0.012l0.308,0.263c0.107,0.09 0.211,0.178 0.318,0.273c0.067,0.062 0.139,0.129 0.201,0.201l0.098,-0.054c-0.068,-0.073 -0.14,-0.147 -0.217,-0.223l-0.459,-0.43l0.146,-0.168l0.507,0.431c0.402,0.357 0.702,0.693 0.894,1.001c0.054,0.085 0.106,0.175 0.154,0.272l0.1,0.001c-0.11,-0.219 -0.298,-0.463 -0.561,-0.727c-0.11,-0.109 -0.204,-0.2 -0.275,-0.264l-0.111,-0.102l0.146,-0.168l0.122,0.1c0.079,0.063 0.187,0.155 0.315,0.267c0.18,0.159 0.334,0.313 0.46,0.46c-0.186,-0.291 -0.404,-0.543 -0.536,-0.684c-0.041,-0.046 -0.082,-0.087 -0.12,-0.125l-0.05,-0.05c-0.049,-0.051 -0.096,-0.095 -0.136,-0.131l-0.128,-0.118l0.147,-0.167l0.139,0.116c0.045,0.038 0.1,0.084 0.158,0.138l0.05,0.045c0.046,0.042 0.096,0.086 0.143,0.134c0.195,0.188 0.563,0.568 0.82,0.99c0.064,0.1 0.12,0.199 0.168,0.294l0.002,0c-0.009,-0.024 -0.018,-0.047 -0.028,-0.07c-0.102,-0.249 -0.252,-0.528 -0.446,-0.829c-0.069,-0.102 -0.168,-0.186 -0.238,-0.239c-0.04,-0.03 -0.073,-0.052 -0.097,-0.068l-0.037,-0.025l0.119,-0.188l0.04,0.025c0.028,0.017 0.068,0.042 0.115,0.074c0.09,0.061 0.22,0.161 0.322,0.289c0.238,0.311 0.428,0.6 0.566,0.861c0.031,0.056 0.059,0.114 0.086,0.174l0.111,0.001c-0.003,-0.014 -0.006,-0.026 -0.008,-0.036l-0.016,-0.063l0.139,-0.047c-0.017,-0.033 -0.034,-0.064 -0.051,-0.093c-0.017,-0.027 -0.034,-0.05 -0.049,-0.072l-0.03,-0.041c-0.016,-0.026 -0.037,-0.048 -0.056,-0.068l-0.08,-0.085l0.103,-0.106c-0.035,-0.035 -0.072,-0.068 -0.108,-0.1c-0.137,-0.118 -0.261,-0.2 -0.322,-0.238c-0.031,-0.02 -0.057,-0.035 -0.079,-0.047l-0.071,-0.041l0.106,-0.195l0.077,0.041c0.027,0.013 0.059,0.03 0.092,0.05c0.123,0.07 0.257,0.16 0.376,0.253c0.276,0.214 0.545,0.516 0.737,0.828c0.014,0.022 0.027,0.045 0.041,0.067l0.067,0.001c-0.141,-0.342 -0.309,-0.606 -0.498,-0.785c-0.112,-0.11 -0.241,-0.196 -0.329,-0.25c-0.048,-0.028 -0.088,-0.05 -0.117,-0.065l-0.048,-0.025l0.1,-0.198l0.049,0.023c0.032,0.015 0.079,0.039 0.136,0.071c0.106,0.058 0.259,0.153 0.399,0.275c0.073,0.062 0.144,0.132 0.213,0.21l0.087,-0.116l0.272,0.206c0.037,0.031 0.077,0.066 0.11,0.103c0.05,0.05 0.099,0.101 0.138,0.155l0.006,0.006l-0.149,-0.408c-0.01,-0.009 -0.021,-0.018 -0.031,-0.026l-0.388,-0.339l0.141,-0.171l0.422,0.328c0.131,0.102 0.278,0.216 0.423,0.345c0.16,0.141 0.292,0.283 0.394,0.422c0.059,0.079 0.112,0.163 0.162,0.254l0.012,0c-0.007,-0.024 -0.014,-0.047 -0.022,-0.07c-0.043,-0.135 -0.101,-0.267 -0.146,-0.368c-0.059,-0.127 -0.106,-0.224 -0.166,-0.306c-0.072,-0.102 -0.152,-0.169 -0.194,-0.201c-0.031,-0.024 -0.058,-0.043 -0.077,-0.055l-0.032,-0.02l0.115,-0.19l0.035,0.02c0.025,0.015 0.061,0.036 0.101,0.064c0.075,0.051 0.151,0.115 0.217,0.185l0.149,-0.145l0.085,0.079c0.055,0.051 0.13,0.125 0.219,0.213c0.244,0.248 0.42,0.48 0.524,0.689c0.003,0.006 0.006,0.011 0.009,0.017c-0.035,-0.138 -0.091,-0.281 -0.167,-0.42c-0.04,-0.079 -0.09,-0.161 -0.149,-0.246c-0.057,-0.078 -0.124,-0.155 -0.198,-0.227c-0.153,-0.147 -0.35,-0.279 -0.524,-0.396c-0.362,-0.239 -0.575,-0.397 -0.584,-0.404l0.129,-0.181c0.002,0.002 0.234,0.159 0.607,0.388c0.2,0.124 0.419,0.26 0.604,0.42c0.091,0.081 0.176,0.167 0.251,0.258c0.076,0.094 0.141,0.185 0.193,0.271c0.118,0.184 0.206,0.374 0.26,0.556c-0.01,-0.115 -0.033,-0.236 -0.075,-0.356c-0.077,-0.246 -0.233,-0.524 -0.466,-0.829c-0.088,-0.112 -0.164,-0.206 -0.223,-0.271l-0.092,-0.107l0.164,-0.15l0.102,0.104c0.066,0.066 0.156,0.163 0.261,0.279c0.285,0.324 0.486,0.623 0.599,0.891c0.053,0.118 0.091,0.237 0.117,0.351c-0.005,-0.036 -0.012,-0.072 -0.021,-0.108c-0.046,-0.202 -0.153,-0.434 -0.319,-0.69c-0.062,-0.095 -0.117,-0.174 -0.158,-0.229l-0.067,-0.091l0.174,-0.138l0.076,0.088c0.05,0.056 0.118,0.138 0.197,0.237c0.052,0.067 0.1,0.131 0.144,0.195l0.142,-0.079l0.046,0.07c0.031,0.046 0.07,0.113 0.114,0.194c0.096,0.182 0.184,0.399 0.241,0.597c0.013,0.044 0.025,0.088 0.037,0.133l0.018,0c-0.003,-0.063 -0.012,-0.128 -0.028,-0.19c-0.05,-0.207 -0.176,-0.419 -0.259,-0.559c-0.046,-0.078 -0.087,-0.143 -0.116,-0.189l-0.046,-0.072l0.181,-0.13l0.058,0.072c0.037,0.046 0.089,0.112 0.151,0.192c0.068,0.089 0.157,0.206 0.239,0.335c-0.039,-0.145 -0.083,-0.266 -0.112,-0.34c-0.032,-0.082 -0.062,-0.15 -0.085,-0.197l-0.038,-0.079l0.194,-0.109l0.05,0.077c0.01,0.014 0.02,0.029 0.031,0.046l0.132,-0.071l0.165,0.261c0.091,0.145 0.227,0.363 0.349,0.586c0.072,0.129 0.137,0.258 0.192,0.377l0.003,0c-0.022,-0.101 -0.047,-0.211 -0.078,-0.325c-0.044,-0.164 -0.104,-0.306 -0.184,-0.436c-0.176,-0.285 -0.469,-0.562 -0.705,-0.786l-0.033,-0.031c-0.12,-0.112 -0.222,-0.205 -0.294,-0.27l-0.114,-0.103l0.145,-0.168l0.125,0.101c0.08,0.064 0.194,0.157 0.327,0.269l0.041,0.034c0.27,0.228 0.606,0.512 0.834,0.822c0.064,0.088 0.121,0.181 0.171,0.28c-0.07,-0.208 -0.167,-0.444 -0.265,-0.647c-0.042,-0.088 -0.079,-0.161 -0.107,-0.212l-0.044,-0.083l0.19,-0.114l0.055,0.08c0.037,0.052 0.086,0.128 0.144,0.219c0.134,0.211 0.271,0.455 0.376,0.671c0.103,0.209 0.197,0.421 0.271,0.597c-0.005,-0.088 -0.014,-0.178 -0.032,-0.268c-0.047,-0.254 -0.166,-0.497 -0.257,-0.656c-0.053,-0.09 -0.099,-0.165 -0.135,-0.217l-0.057,-0.087l0.18,-0.131l0.068,0.084c0.044,0.053 0.103,0.132 0.174,0.227c0.125,0.174 0.293,0.439 0.386,0.722c0.051,0.15 0.082,0.302 0.102,0.441l0.058,0c0.006,-0.127 -0.003,-0.27 -0.029,-0.425c-0.021,-0.122 -0.041,-0.204 -0.041,-0.206l0.191,-0.066c-0.019,-0.031 -0.041,-0.06 -0.069,-0.085c-0.073,-0.067 -0.185,-0.122 -0.266,-0.163l-0.032,-0.016c-0.089,-0.044 -0.143,-0.068 -0.144,-0.069l0.089,-0.203c0,0 0.059,0.024 0.159,0.069c0.051,0.022 0.112,0.05 0.177,0.083c0.081,0.041 0.143,0.079 0.193,0.118l0.005,-0.013l0.173,0.063c0.045,0.016 0.099,0.036 0.154,0.059c0.064,0.027 0.145,0.065 0.204,0.115c0.059,0.05 0.095,0.105 0.126,0.158c0.028,0.047 0.053,0.098 0.078,0.152c0.057,0.122 0.094,0.239 0.112,0.348c0.006,0.03 0.01,0.061 0.012,0.092l0.048,0c0.004,-0.013 0.007,-0.026 0.01,-0.039c0.046,-0.174 0.001,-0.351 -0.045,-0.471c-0.027,-0.064 -0.053,-0.12 -0.075,-0.159l-0.038,-0.07l0.187,-0.118l0.048,0.066c0.033,0.042 0.074,0.106 0.119,0.183c0.124,0.218 0.178,0.422 0.162,0.608c0,0.001 -0.001,0.002 -0.001,0.004l0.008,0c0.016,-0.097 -0.007,-0.2 -0.026,-0.284l-0.053,-0.21l-0.134,-0.523l-0.175,-0.176l0.102,-0.111l-0.059,-0.234l0.095,0.195l0.012,-0.013l0.342,0.291c0.086,0.073 0.184,0.156 0.284,0.245c0.117,0.108 0.237,0.223 0.31,0.351c0.075,0.126 0.095,0.272 0.059,0.421l-0.017,0.052c-0.014,0.044 -0.028,0.087 -0.05,0.128l-0.045,0.086l2.316,1.959l6.192,9.584c0,0 -3.591,-0.192 -6.587,-0.395c-3.886,-0.264 -6.85,0 -6.718,-1.482c0.144,-1.629 7.179,-0.744 4.841,-2.976c-1.132,-1.08 -15.48,-1.306 -21.506,-1.426c-6.035,-0.119 -3.514,0.165 -20.065,-0.835l4.808,-4.999l2.453,0.024c-0.27,-0.107 -0.549,-0.212 -0.786,-0.296c-0.133,-0.048 -0.246,-0.087 -0.328,-0.113l-0.128,-0.043l0.066,-0.212l0.136,0.04c0.087,0.024 0.209,0.061 0.355,0.106c0.197,0.062 0.422,0.135 0.649,0.212l0.019,-0.053c-0.092,-0.033 -0.181,-0.065 -0.269,-0.096c-0.138,-0.049 -0.268,-0.094 -0.396,-0.133c-0.232,-0.072 -0.478,-0.127 -0.677,-0.151c-0.091,-0.011 -0.165,-0.017 -0.216,-0.021l-0.107,-0.006l-0.001,-0.108c0,-0.015 0.001,-0.028 0.002,-0.039c0.005,-0.04 0.025,-0.058 0.117,-0.065l0.001,-0.004c0.011,0 0.023,0.001 0.036,0.002c0.071,-0.004 0.174,-0.004 0.325,-0.003c-0.034,-0.011 -0.067,-0.021 -0.098,-0.03l0.003,-0.009c-0.058,-0.026 -0.09,-0.061 -0.069,-0.132c0.022,-0.078 0.084,-0.083 0.137,-0.074l0.001,-0.002l0.044,0.013c0.003,0.001 0.006,0.002 0.008,0.003l0.038,0.011c0.087,0.025 0.108,0.031 0.218,0.066l0.127,0.039c0.09,0.028 0.188,0.058 0.288,0.091l0.06,-0.194l0.234,0.07c0.15,0.043 0.36,0.108 0.612,0.187c0.573,0.18 1.052,0.35 1.456,0.515c-0.259,-0.131 -0.543,-0.265 -0.851,-0.401l-0.847,-0.363l0.084,-0.206l0.885,0.356c0.274,0.113 0.532,0.226 0.771,0.336l0.092,-0.159c-0.102,-0.084 -0.165,-0.134 -0.165,-0.134l0.134,-0.178c0,0 0.174,0.124 0.423,0.311c0.283,0.214 0.604,0.468 0.88,0.697l0.008,0.007c0.031,0.018 0.063,0.037 0.095,0.056c-0.26,-0.274 -0.555,-0.518 -0.716,-0.646c-0.122,-0.096 -0.226,-0.176 -0.303,-0.231l-0.121,-0.089l0.127,-0.182l0.131,0.086c0.085,0.055 0.202,0.136 0.34,0.233c0.178,0.125 0.5,0.363 0.798,0.633c-0.046,-0.062 -0.096,-0.127 -0.151,-0.193c-0.101,-0.123 -0.174,-0.204 -0.175,-0.205l0.072,-0.072c-0.028,-0.016 -0.056,-0.033 -0.084,-0.048c-0.19,-0.105 -0.364,-0.174 -0.451,-0.206c-0.063,-0.022 -0.113,-0.04 -0.15,-0.051l-0.058,-0.018l0.066,-0.213l0.059,0.018c0.038,0.01 0.094,0.028 0.164,0.051c0.041,0.014 0.1,0.035 0.171,0.063l0.038,-0.144l0.061,0.015c0.04,0.01 0.098,0.026 0.169,0.047c0.103,0.032 0.305,0.1 0.509,0.208c0.346,0.181 0.671,0.459 0.893,0.763c0.086,0.115 0.154,0.229 0.21,0.337l0.051,0c-0.008,-0.024 -0.016,-0.047 -0.026,-0.069c-0.071,-0.196 -0.214,-0.413 -0.391,-0.599c-0.035,-0.039 -0.071,-0.072 -0.103,-0.102c-0.042,-0.04 -0.072,-0.067 -0.1,-0.089l-0.094,-0.077l0.136,-0.176l0.102,0.074c0.035,0.024 0.075,0.055 0.118,0.091c0.049,0.039 0.095,0.076 0.139,0.118c0.029,0.026 0.057,0.052 0.085,0.079l0.066,-0.066c-0.153,-0.147 -0.326,-0.292 -0.509,-0.427c-0.062,-0.047 -0.124,-0.089 -0.18,-0.127l-0.409,-0.261l0.114,-0.191l0.441,0.261c0.065,0.04 0.135,0.084 0.203,0.133c0.249,0.168 0.723,0.516 1.06,0.933c0.151,0.176 0.263,0.349 0.346,0.505l0.089,0.001c-0.01,-0.021 -0.021,-0.041 -0.032,-0.061c-0.064,-0.124 -0.153,-0.247 -0.224,-0.34l-0.034,-0.041c-0.031,-0.038 -0.061,-0.075 -0.094,-0.11l-0.134,-0.141c-0.038,-0.04 -0.077,-0.075 -0.112,-0.107c-0.046,-0.044 -0.079,-0.073 -0.107,-0.096l-0.095,-0.08l0.085,-0.106c-0.052,-0.04 -0.106,-0.081 -0.161,-0.122c-0.163,-0.12 -0.306,-0.218 -0.408,-0.288l-0.162,-0.108l0.121,-0.187l0.173,0.107c0.11,0.07 0.264,0.169 0.443,0.289c0.107,0.072 0.208,0.144 0.304,0.214l0.081,-0.148l0.076,0.04c0.027,0.014 0.059,0.031 0.093,0.051c0.07,0.04 0.214,0.127 0.376,0.254c0.272,0.21 0.537,0.506 0.729,0.815c-0.135,-0.31 -0.293,-0.551 -0.469,-0.718c-0.113,-0.11 -0.241,-0.196 -0.329,-0.249c-0.048,-0.028 -0.088,-0.051 -0.117,-0.066l-0.048,-0.025l0.1,-0.198l0.049,0.024c0.033,0.015 0.079,0.039 0.136,0.07c0.105,0.058 0.258,0.153 0.399,0.275c0.103,0.088 0.201,0.191 0.295,0.31l0.057,-0.077l0.17,0.12c0.018,0.014 0.032,0.026 0.046,0.038l0.055,0.047c0.038,0.031 0.079,0.066 0.112,0.104c0.049,0.05 0.099,0.1 0.138,0.154l0.006,0.007l-0.159,-0.435l0.03,-0.013c-0.023,-0.025 -0.047,-0.049 -0.07,-0.073c-0.114,-0.118 -0.217,-0.214 -0.29,-0.282l-0.119,-0.106l0.144,-0.169l0.131,0.106c0.084,0.069 0.2,0.168 0.33,0.287c0.302,0.277 0.595,0.606 0.802,0.904c0.036,0.051 0.071,0.102 0.104,0.153l0.07,0.001c-0.019,-0.045 -0.037,-0.085 -0.052,-0.12c-0.047,-0.101 -0.102,-0.217 -0.166,-0.306c-0.073,-0.102 -0.153,-0.169 -0.194,-0.2c-0.032,-0.025 -0.059,-0.043 -0.078,-0.056l-0.032,-0.02l0.116,-0.19l0.035,0.021c0.025,0.014 0.06,0.035 0.1,0.063c0.095,0.064 0.191,0.15 0.269,0.241c0.084,0.097 0.152,0.207 0.232,0.341c0.051,0.086 0.093,0.16 0.129,0.229l0.024,0.001c-0.104,-0.245 -0.246,-0.458 -0.333,-0.575c-0.082,-0.109 -0.149,-0.193 -0.2,-0.249l-0.086,-0.098l0.155,-0.148c-0.072,-0.072 -0.147,-0.142 -0.224,-0.209c-0.166,-0.147 -0.31,-0.261 -0.401,-0.331l-0.167,-0.125l0.131,-0.18l0.177,0.124c0.101,0.071 0.259,0.187 0.443,0.338c0.41,0.331 0.788,0.723 1.036,1.073c0.094,0.131 0.176,0.261 0.243,0.387l0.04,0.001c-0.013,-0.05 -0.028,-0.101 -0.045,-0.152c-0.123,-0.406 -0.365,-0.779 -0.498,-0.966c-0.031,-0.048 -0.064,-0.089 -0.095,-0.128l-0.04,-0.051c-0.039,-0.053 -0.077,-0.097 -0.109,-0.134l-0.105,-0.122l0.164,-0.149l0.116,0.12c0.038,0.039 0.084,0.087 0.132,0.144l0.042,0.047c0.038,0.043 0.078,0.089 0.116,0.138c0.157,0.194 0.45,0.589 0.622,1.022c0.035,0.08 0.064,0.158 0.089,0.234l0.054,0.001c-0.089,-0.31 -0.24,-0.588 -0.328,-0.734c-0.023,-0.041 -0.047,-0.077 -0.069,-0.11l-0.03,-0.045c-0.028,-0.045 -0.056,-0.083 -0.079,-0.115l-0.078,-0.106l0.174,-0.137l0.089,0.104c0.029,0.034 0.065,0.077 0.101,0.126l0.031,0.04c0.03,0.037 0.061,0.078 0.091,0.122c0.074,0.104 0.189,0.276 0.296,0.48c-0.005,-0.01 -0.009,-0.02 -0.014,-0.029l-0.034,-0.073l0.155,-0.086c-0.007,-0.011 -0.013,-0.022 -0.02,-0.031l-0.057,-0.091l0.182,-0.127l0.068,0.088c0.045,0.056 0.105,0.138 0.176,0.237c0.059,0.084 0.113,0.166 0.162,0.247c-0.009,-0.02 -0.017,-0.038 -0.025,-0.054l-0.037,-0.079l0.183,-0.103c-0.06,-0.132 -0.101,-0.216 -0.102,-0.218l0.145,-0.08c-0.068,-0.073 -0.14,-0.148 -0.217,-0.223l-0.459,-0.431l0.146,-0.167l0.507,0.43c0.402,0.357 0.702,0.694 0.893,1.001c0.038,0.058 0.074,0.119 0.108,0.183l0.099,0.001c-0.113,-0.196 -0.285,-0.409 -0.513,-0.638c-0.11,-0.109 -0.204,-0.2 -0.275,-0.263l-0.111,-0.103l0.146,-0.167l0.122,0.099c0.079,0.063 0.186,0.156 0.315,0.267c0.179,0.159 0.333,0.313 0.459,0.46c-0.186,-0.292 -0.404,-0.542 -0.535,-0.684c-0.041,-0.046 -0.082,-0.087 -0.12,-0.125l-0.05,-0.05c-0.05,-0.051 -0.096,-0.094 -0.136,-0.13l-0.128,-0.118l0.147,-0.168l0.138,0.116c0.046,0.038 0.101,0.085 0.159,0.138l0.054,0.049c0.044,0.04 0.093,0.084 0.139,0.13c0.195,0.188 0.564,0.569 0.82,0.99c0.044,0.069 0.084,0.138 0.121,0.204l0.013,0c-0.102,-0.244 -0.25,-0.515 -0.438,-0.808c-0.054,-0.081 -0.137,-0.164 -0.238,-0.239c-0.04,-0.03 -0.074,-0.053 -0.097,-0.069l-0.038,-0.025l0.119,-0.187l0.041,0.024c0.028,0.017 0.068,0.042 0.115,0.074c0.09,0.061 0.22,0.161 0.322,0.289c0.238,0.311 0.428,0.601 0.566,0.861c0.015,0.028 0.029,0.056 0.043,0.084l0.133,0.002l-0.002,-0.01l0.138,-0.046c-0.016,-0.033 -0.034,-0.064 -0.052,-0.093c-0.016,-0.027 -0.033,-0.051 -0.049,-0.073l-0.029,-0.041c-0.015,-0.025 -0.036,-0.046 -0.055,-0.067l-0.082,-0.086l0.104,-0.106c-0.036,-0.035 -0.072,-0.068 -0.108,-0.099c-0.136,-0.119 -0.261,-0.201 -0.322,-0.239c-0.03,-0.019 -0.056,-0.034 -0.078,-0.046l-0.073,-0.042l0.108,-0.195l0.075,0.04c0.027,0.014 0.059,0.031 0.093,0.052c0.07,0.039 0.214,0.126 0.376,0.253c0.269,0.207 0.532,0.5 0.723,0.805l0.083,0.001c-0.132,-0.299 -0.287,-0.533 -0.459,-0.696c-0.113,-0.11 -0.241,-0.196 -0.329,-0.249c-0.048,-0.028 -0.088,-0.051 -0.117,-0.066l-0.048,-0.025l0.1,-0.198l0.049,0.023c0.033,0.016 0.079,0.04 0.136,0.071c0.105,0.059 0.259,0.153 0.399,0.275c0.073,0.062 0.144,0.132 0.212,0.21l0.087,-0.115l0.169,0.119c0.019,0.015 0.033,0.026 0.047,0.038l0.055,0.047c0.038,0.032 0.078,0.066 0.112,0.104c0.049,0.05 0.098,0.1 0.138,0.155l0.005,0.006l-0.149,-0.408c-0.009,-0.008 -0.018,-0.016 -0.027,-0.024l-0.391,-0.34l0.141,-0.172l0.422,0.328c0.136,0.106 0.281,0.219 0.423,0.345c0.159,0.141 0.292,0.283 0.394,0.422c0.039,0.053 0.075,0.107 0.11,0.164l0.036,0.001c-0.034,-0.102 -0.077,-0.21 -0.14,-0.348c-0.059,-0.127 -0.106,-0.225 -0.166,-0.307c-0.073,-0.102 -0.152,-0.169 -0.194,-0.2c-0.031,-0.025 -0.058,-0.043 -0.077,-0.055l-0.032,-0.021l0.115,-0.19l0.035,0.021c0.025,0.014 0.06,0.035 0.101,0.063c0.075,0.051 0.15,0.115 0.217,0.185l0.15,-0.145l0.084,0.079c0.055,0.051 0.13,0.125 0.219,0.214c0.244,0.248 0.42,0.479 0.524,0.688c0.003,0.006 0.006,0.012 0.009,0.018c-0.035,-0.138 -0.091,-0.281 -0.166,-0.421c-0.041,-0.08 -0.089,-0.159 -0.15,-0.246c-0.057,-0.078 -0.124,-0.155 -0.198,-0.226c-0.154,-0.148 -0.352,-0.281 -0.527,-0.399c-0.359,-0.237 -0.572,-0.395 -0.581,-0.401l0.129,-0.181c0.002,0.001 0.233,0.159 0.607,0.387c0.199,0.124 0.419,0.26 0.604,0.421c0.092,0.081 0.177,0.167 0.252,0.257c0.075,0.094 0.14,0.185 0.192,0.271c0.116,0.181 0.203,0.368 0.258,0.548l0.001,0c-0.011,-0.112 -0.033,-0.23 -0.074,-0.348c-0.077,-0.246 -0.233,-0.523 -0.466,-0.828c-0.088,-0.112 -0.164,-0.207 -0.223,-0.272l-0.092,-0.106l0.163,-0.151l0.103,0.104c0.066,0.066 0.156,0.163 0.261,0.28c0.284,0.323 0.486,0.622 0.598,0.89c0.054,0.119 0.092,0.237 0.118,0.352c-0.005,-0.036 -0.012,-0.073 -0.021,-0.109c-0.046,-0.202 -0.153,-0.434 -0.319,-0.69c-0.063,-0.094 -0.117,-0.174 -0.159,-0.229l-0.066,-0.09l0.173,-0.139l0.077,0.088c0.034,0.038 0.076,0.088 0.124,0.147l0.031,0.016c0.026,0.014 0.058,0.03 0.091,0.051c0.048,0.026 0.13,0.076 0.228,0.144l0.009,-0.005l0.014,0.021c0.01,0.007 0.02,0.014 0.03,0.021l-0.037,-0.058l0.045,-0.033c-0.04,-0.023 -0.073,-0.041 -0.099,-0.054l-0.048,-0.026l0.1,-0.198l0.049,0.024c0.033,0.015 0.079,0.039 0.137,0.07c0.069,0.039 0.16,0.094 0.254,0.162c-0.002,-0.005 -0.004,-0.009 -0.006,-0.013l-0.038,-0.079l0.194,-0.109l0.05,0.077c0.009,0.014 0.02,0.029 0.031,0.046l0.131,-0.071l0.166,0.261c0.072,0.115 0.184,0.295 0.292,0.484c0.021,0.019 0.041,0.038 0.059,0.059c0.045,0.045 0.089,0.09 0.126,0.137c-0.004,-0.014 -0.008,-0.028 -0.011,-0.042c-0.007,-0.025 -0.014,-0.049 -0.021,-0.073l-0.059,-0.16c-0.03,-0.071 -0.065,-0.138 -0.104,-0.202c-0.022,-0.036 -0.046,-0.071 -0.071,-0.106c-0.079,-0.079 -0.15,-0.146 -0.205,-0.196l-0.119,-0.106l0.035,-0.04Zm-4.879,11.716c-0.17,0.112 -0.329,0.223 -0.478,0.333c0.069,0.01 0.138,0.02 0.206,0.03l0.272,-0.363Zm1.823,-0.08c-0.112,0.063 -0.227,0.128 -0.345,0.196c-0.134,0.077 -0.264,0.153 -0.388,0.226l-0.002,0.003c0.145,-0.083 0.266,-0.152 0.358,-0.201l0.16,-0.087l0.013,0.021c0.068,-0.055 0.137,-0.108 0.204,-0.158Zm1.742,-0.667l-0.005,0c-0.083,0.005 -0.166,0.015 -0.251,0.029c-0.111,0.018 -0.235,0.049 -0.365,0.092l0.062,0.142l-0.113,0.052c-0.034,0.015 -0.075,0.033 -0.12,0.057c-0.102,0.052 -0.306,0.163 -0.553,0.342c-0.121,0.088 -0.246,0.189 -0.373,0.303c0.138,-0.073 0.273,-0.143 0.402,-0.207c0.342,-0.239 0.726,-0.478 1.148,-0.717c0.058,-0.033 0.114,-0.064 0.168,-0.093Zm-6.211,0.056c-0.163,0.208 -0.327,0.449 -0.49,0.72c0.014,0.001 0.028,0.003 0.042,0.004c0.118,-0.209 0.254,-0.431 0.407,-0.663c0.014,-0.021 0.028,-0.041 0.041,-0.061Zm-4.17,0.104l-0.035,0.054c-0.036,0.055 -0.075,0.114 -0.106,0.179c-0.022,0.041 -0.042,0.079 -0.062,0.117l0.056,0.003c0.049,-0.124 0.098,-0.242 0.147,-0.353Zm-0.884,0.287c-0.004,0.009 -0.008,0.017 -0.012,0.026l0.003,0l0.009,-0.026Zm-7.649,-0.786l-0.133,0.17c-0.01,0.014 -0.023,0.035 -0.037,0.056l-0.066,0.103c-0.034,0.053 -0.072,0.11 -0.103,0.173c0.028,0.001 0.057,0.002 0.086,0.002c0.083,-0.184 0.167,-0.352 0.253,-0.504Zm-1.019,0.367c-0.023,0.038 -0.045,0.076 -0.067,0.114l0.028,0l0.039,-0.114Zm-6.653,-1.342c-0.017,0.011 -0.033,0.023 -0.05,0.036c-0.056,0.042 -0.125,0.099 -0.166,0.165c-0.046,0.07 -0.074,0.155 -0.097,0.237c-0.029,0.095 -0.053,0.196 -0.077,0.3c-0.045,0.196 -0.075,0.385 -0.09,0.563l0.07,0.001c0.015,-0.07 0.032,-0.139 0.049,-0.207c0.06,-0.239 0.141,-0.5 0.24,-0.775l0.022,-0.06c0.032,-0.089 0.064,-0.176 0.099,-0.26Zm41.819,-9.042l0.011,0.02c0.074,0.138 0.129,0.262 0.17,0.381c0.026,0.071 0.046,0.145 0.061,0.22c0.001,-0.018 0.001,-0.035 0.001,-0.052c-0.001,-0.089 -0.017,-0.185 -0.047,-0.285c-0.014,-0.045 -0.029,-0.091 -0.047,-0.133c-0.015,-0.037 -0.031,-0.067 -0.055,-0.091c-0.022,-0.022 -0.064,-0.045 -0.094,-0.06Zm-5.126,-0.134c0.039,0.06 0.075,0.12 0.109,0.176c0.056,0.096 0.139,0.241 0.207,0.389c0.024,0.052 0.047,0.105 0.067,0.159l0.061,0c-0.002,-0.006 -0.004,-0.012 -0.006,-0.019c-0.062,-0.185 -0.187,-0.395 -0.373,-0.626c-0.023,-0.028 -0.045,-0.054 -0.065,-0.079Zm-0.653,0.384l0.165,0.331l0.055,0.001c-0.02,-0.041 -0.042,-0.08 -0.066,-0.118c-0.042,-0.07 -0.094,-0.142 -0.154,-0.214Zm-0.719,-0.113c0.073,0.111 0.144,0.234 0.213,0.368c0.012,0.023 0.023,0.047 0.034,0.07l0.02,0c-0.015,-0.04 -0.032,-0.079 -0.05,-0.116l-0.042,-0.083c-0.007,-0.014 -0.017,-0.028 -0.027,-0.042l-0.02,-0.031c-0.028,-0.047 -0.064,-0.09 -0.096,-0.129c-0.011,-0.014 -0.022,-0.026 -0.032,-0.037Zm7.558,-0.273l0.211,0.432c0.034,0.075 0.077,0.169 0.099,0.274c0.002,-0.005 0.004,-0.009 0.006,-0.014l0.023,-0.046c0.03,-0.078 0.032,-0.156 0.001,-0.228c-0.04,-0.097 -0.131,-0.2 -0.214,-0.289c-0.042,-0.044 -0.085,-0.088 -0.126,-0.129Zm-10.737,0.055c0.098,0.167 0.225,0.391 0.345,0.626l0.048,0c-0.024,-0.052 -0.049,-0.102 -0.075,-0.15c-0.078,-0.151 -0.185,-0.309 -0.318,-0.476Zm-4.773,0.415c0.013,0.04 0.025,0.079 0.037,0.118c0.004,0.014 0.008,0.029 0.012,0.043l0.035,0.001c-0.002,-0.015 -0.005,-0.031 -0.008,-0.046c-0.024,-0.039 -0.049,-0.078 -0.076,-0.116Zm-2.152,-0.489c0.039,0.058 0.075,0.118 0.109,0.174c0.062,0.106 0.141,0.244 0.207,0.389c0.01,0.023 0.021,0.046 0.031,0.069l0.065,0.001c-0.068,-0.168 -0.184,-0.354 -0.347,-0.556c-0.023,-0.027 -0.044,-0.053 -0.065,-0.077Zm-0.653,0.382l0.12,0.242l0.051,0c-0.005,-0.009 -0.011,-0.019 -0.017,-0.028c-0.043,-0.07 -0.094,-0.142 -0.154,-0.214Zm-0.719,-0.112c0.07,0.105 0.137,0.221 0.202,0.348l0.028,0c-0.004,-0.009 -0.008,-0.018 -0.013,-0.027l-0.042,-0.083c-0.007,-0.013 -0.017,-0.027 -0.026,-0.041l-0.021,-0.031c-0.027,-0.047 -0.062,-0.088 -0.094,-0.127c-0.012,-0.015 -0.023,-0.028 -0.034,-0.039Zm-3.179,-0.218c0.085,0.145 0.192,0.334 0.298,0.535l0.052,0.001c-0.01,-0.021 -0.021,-0.041 -0.032,-0.061c-0.078,-0.15 -0.184,-0.309 -0.318,-0.475Zm-3.337,0.472l0.014,0.028l0.003,0l-0.017,-0.028Zm-0.74,-0.241c0.015,0.028 0.03,0.057 0.045,0.086c0.03,0.06 0.058,0.119 0.084,0.177l0.012,0c-0.012,-0.029 -0.024,-0.057 -0.038,-0.084l-0.042,-0.083c-0.007,-0.014 -0.017,-0.028 -0.026,-0.041l-0.021,-0.032c-0.004,-0.008 -0.009,-0.016 -0.014,-0.023Zm13.725,-0.206c0.026,0.059 0.049,0.116 0.068,0.171c0.025,0.072 0.046,0.146 0.06,0.221c0.001,-0.018 0.002,-0.035 0.001,-0.052c0,-0.006 0,-0.012 0,-0.017c-0.036,-0.112 -0.081,-0.221 -0.129,-0.323Zm1.159,-0.14c0.028,0.038 0.06,0.082 0.096,0.13c-0.027,-0.043 -0.06,-0.087 -0.096,-0.13Zm-18.447,-0.269c0.079,0.054 0.158,0.113 0.238,0.176c-0.076,-0.065 -0.155,-0.124 -0.238,-0.176Zm18.235,0.043l0.05,0.103l0.03,-0.021c-0.027,-0.028 -0.054,-0.055 -0.08,-0.082Zm-23.21,-0.215l0,0.033c0.073,0.011 0.149,0.025 0.227,0.041l-0.036,-0.012c-0.068,-0.023 -0.132,-0.043 -0.191,-0.062Z" style="fill:#1b1b1a;fill-rule:nonzero;"/><path id="Inner-Outline" serif:id="Inner Outline" d="M59,32c0,-14.902 -12.098,-27 -27,-27c-14.902,0 -27,12.098 -27,27c0,14.902 12.098,27 27,27c14.902,0 27,-12.098 27,-27Z" style="fill:none;stroke:#fff;stroke-width:3px;"/><path id="Outline" d="M61.409,31.99c0,-16.178 -13.135,-29.313 -29.313,-29.313c-16.179,0 -29.314,13.135 -29.314,29.313c0,16.179 13.135,29.313 29.314,29.313c16.178,0 29.313,-13.134 29.313,-29.313Z" style="fill:none;stroke:#000;stroke-width:3px;"/></g></g></g></svg>