<?xml version="1.0" encoding="UTF-8" standalone="no"?><!DOCTYPE svg PUBLIC "-//W3C//DTD SVG 1.1//EN" "http://www.w3.org/Graphics/SVG/1.1/DTD/svg11.dtd"><svg width="100%" height="100%" viewBox="0 0 64 64" version="1.1" xmlns="http://www.w3.org/2000/svg" xmlns:xlink="http://www.w3.org/1999/xlink" xml:space="preserve" xmlns:serif="http://www.serif.com/" style="fill-rule:evenodd;clip-rule:evenodd;stroke-miterlimit:10;"><g id="Habitats"><g id="Terrestrial"><g id="palmetto"><path d="M32.997,29.806c-0.054,0.627 -0.147,1.251 -0.215,1.846c-0.133,1.159 -0.342,2.269 -0.465,3.485c-0.009,0.095 -0.047,0.25 -0.029,0.353c0.078,0.449 0.182,-0.03 0.257,-0.298c0.089,-0.318 0.187,-0.663 0.265,-0.975c0.206,-0.818 0.477,-1.635 0.744,-2.463c0.561,-1.741 1.138,-3.693 1.836,-5.319c0.875,-2.04 1.779,-4.494 2.734,-6.5c0.394,-0.828 0.708,-1.551 1.061,-2.286c0.593,-1.23 1.579,-2.653 2.41,-3.919c0.003,0.018 -0.126,0.606 -0.131,0.628c-0.028,0.11 -0.098,0.259 -0.134,0.347c-0.116,0.285 -0.23,0.564 -0.36,0.882c-0.331,0.809 -0.588,1.634 -0.803,2.27c-0.241,0.715 -0.411,1.435 -0.623,2.138c-0.841,2.787 -1.58,5.817 -2.644,8.734c-0.447,1.226 -1.465,3.259 -1.981,4.556c-0.08,0.202 -0.771,1.568 -0.297,1.131c0.282,-0.261 0.532,-0.839 0.686,-1.159c0.864,-1.791 2.645,-4.726 3.728,-6.491c1.857,-3.022 3.912,-6.104 6.046,-8.859c0.191,-0.248 1.828,-1.939 1.995,-1.83c-0.776,1.244 -1.27,2.551 -1.993,3.85c-1.428,2.566 -2.725,5.252 -4.304,7.832c-0.489,0.799 -1.021,1.678 -1.504,2.416c-0.127,0.194 -0.239,0.403 -0.313,0.525c-0.207,0.342 -3.43,4.567 -3.23,4.698c1.004,-1.533 2.927,-3.682 4.177,-5.139c1.585,-1.848 3.254,-3.671 4.959,-5.474c0.861,-0.91 1.774,-1.976 2.64,-2.775c0.251,-0.231 0.409,-0.374 0.65,-0.567c0.223,-0.179 2.306,-2.062 2.463,-1.959c-1.727,2.343 -3.291,4.093 -5.091,6.448c-1.754,2.295 -3.768,4.509 -5.417,7.043c-0.767,1.177 -1.604,2.024 -2.54,3.026c-0.392,0.419 -0.78,0.827 -1.178,1.24c-0.068,0.071 -0.56,0.483 -0.543,0.606c0.041,0.304 0.72,-0.566 0.851,-0.708c1.428,-1.55 3.063,-3.144 4.525,-4.397c1.377,-1.181 2.716,-2.259 4.157,-3.458c1.346,-1.119 2.962,-2.227 4.245,-3.307c0.641,-0.538 1.282,-1.1 1.998,-1.486c0.211,-0.114 1.47,-1.026 1.65,-0.908c-0.304,0.531 -0.714,0.818 -1.136,1.213c-1.984,1.86 -4.048,3.846 -6.084,5.736c-2.572,2.389 -5.667,5.546 -8.233,8.024c-0.258,0.249 -0.544,0.504 -0.787,0.728c-0.348,0.321 -0.972,0.739 -1.147,1.065c-0.238,0.443 0.33,0.045 0.479,-0.044c0.156,-0.093 0.351,-0.201 0.502,-0.292c0.813,-0.492 2.112,-1.121 2.983,-1.618c2.296,-1.308 4.871,-2.363 7.256,-3.541c1.11,-0.548 2.247,-1.014 3.388,-1.476c0.54,-0.219 1.071,-0.438 1.609,-0.655c0.277,-0.112 0.483,-0.196 0.805,-0.281c0.256,-0.068 1.154,-0.517 1.365,-0.379c-0.502,0.572 -1.336,0.91 -1.956,1.234c-0.703,0.368 -1.371,0.695 -2.124,1.11c-1.333,0.734 -2.759,1.3 -3.998,2.18c-1.013,0.72 -2.093,1.143 -2.965,1.816c-1.051,0.812 -2.148,1.47 -3.368,2.204c-0.665,0.4 -1.477,0.794 -2.195,1.172c-0.377,0.198 -0.658,0.354 -1.033,0.534c-0.194,0.093 -0.965,0.366 -1.019,0.607c0.274,0.165 1.141,-0.103 1.441,-0.113c0.443,-0.015 1.046,-0.144 1.433,-0.191c1.591,-0.193 7.751,-0.913 9.243,-1.084c0.689,-0.08 1.437,-0.097 2.146,-0.148c0.32,-0.023 0.591,-0.035 0.893,-0.036c0.223,-0.001 0.987,-0.131 1.204,0.011c-0.271,0.251 -0.912,0.277 -1.287,0.4c-0.419,0.137 -0.957,0.285 -1.372,0.437c-1.023,0.373 -15.614,2.768 -17.038,3.166c-0.387,0.108 -1.05,0.137 -1.387,0.365c-0.328,0.22 -0.442,0.837 -0.567,1.15c-0.33,0.826 -0.665,1.813 -0.944,2.58c-0.081,0.223 -0.154,0.406 -0.236,0.622c-0.281,0.737 -0.657,1.951 -0.996,2.826c-0.366,0.941 -1.202,3.095 -1.202,3.095l-0.61,-0.118c0,0 0.265,-0.79 0.422,-1.186c0.324,-0.82 0.581,-1.725 0.893,-2.551c0.556,-1.468 0.903,-2.732 1.444,-4.215c0.23,-0.633 1.007,-1.923 0.489,-2.438c-0.422,-0.419 -1.089,-0.772 -1.57,-1.015c-0.498,-0.252 -0.968,-0.686 -1.47,-1.004c-1.884,-1.195 -3.433,-2.358 -5.11,-3.555c-3.225,-2.303 -4.889,-3.618 -7.666,-5.82c-0.867,-0.688 -1.661,-1.424 -2.492,-2.169c-0.355,-0.318 -2.114,-1.596 -1.891,-2.187c1.293,0.76 2.468,1.568 3.775,2.368c2.88,1.764 4.157,2.894 7.054,4.976c1.983,1.424 3.856,2.933 5.79,4.2c0.098,-0.295 -0.869,-1.258 -1.014,-1.44c-0.342,-0.431 -0.637,-0.874 -0.969,-1.318c-0.678,-0.905 -1.238,-1.801 -1.897,-2.794c-1.876,-2.829 -3.581,-5.788 -5.376,-8.674c-0.803,-1.291 -3.779,-6.304 -4.01,-6.653c-0.148,-0.225 -0.462,-0.706 -0.522,-0.993c0.377,0.13 0.516,0.39 0.741,0.671c0.13,0.163 0.288,0.389 0.415,0.552c1.632,2.082 2.919,3.763 4.531,5.844c1.699,2.193 3.045,4.169 4.592,6.266c0.786,1.065 1.566,2.079 2.297,3.181c0.615,0.926 1.219,2.043 1.798,3.04c0.069,0.119 0.554,1.082 0.626,0.751c0.026,-0.12 -0.271,-0.612 -0.313,-0.732c-0.082,-0.238 -0.177,-0.5 -0.254,-0.726c-0.339,-0.986 -0.652,-2.082 -0.905,-3.076c-0.474,-1.867 -1.129,-3.836 -1.634,-5.852c-0.629,-2.507 -1.43,-4.801 -1.892,-7.262c-0.249,-1.331 -0.468,-2.438 -0.687,-3.741c-0.09,-0.54 -0.173,-0.953 -0.199,-1.404c-0.014,-0.238 -0.13,-1.081 0.011,-1.297c0.228,0.379 0.315,0.826 0.435,1.186c0.626,1.877 1.036,3.866 1.671,5.761c0.62,1.849 1.105,3.547 1.644,5.444c0.477,1.681 0.961,3.462 1.516,5.061c0.118,0.338 1.109,4.021 1.33,4.033c0.158,0.008 -0.493,-3.201 -0.518,-3.471c-0.267,-2.854 -0.561,-5.739 -0.732,-8.583c-0.149,-2.484 -0.186,-5.003 -0.041,-7.479c0.08,-1.349 -0.085,-2.72 0.139,-4.101c0.159,-0.981 0.311,-2.011 0.436,-3.038c0.301,0.092 0.26,2.13 0.279,2.419c0.063,0.933 0.155,1.842 0.214,2.78c0.12,1.901 0.227,3.77 0.506,5.702c0.307,2.129 0.672,4.354 0.818,6.435c0.115,1.651 0.151,3.274 0.43,4.94c0.173,1.027 0.218,1.83 0.254,2.79c0.015,0.395 0.061,0.796 0.089,1.192c0.016,0.225 0.178,1.009 0.046,1.21c0.209,0.071 0.189,-1.292 0.19,-1.522c0,-0.464 0.033,-1.082 0.059,-1.514c0.062,-1.023 0.038,-2 0.169,-3.057c0.447,-3.608 0.698,-7.13 1.345,-10.639c0.298,-1.621 0.431,-3.088 0.76,-4.719c0.159,-0.792 0.385,-1.601 0.636,-2.347c0.074,-0.221 1.09,-2.857 1.071,-2.87c-0.139,0.212 -0.023,0.903 -0.044,1.136c-0.023,0.242 -0.028,0.551 -0.033,0.832c-0.008,0.454 -0.035,0.863 -0.069,1.29c-0.165,2.115 -0.246,4.112 -0.344,6.171c-0.044,0.92 -0.047,1.804 -0.129,2.711c-0.043,0.477 -0.427,5.828 -0.479,6.424" style="fill:#1b1b1a;"/><path id="Outline" d="M61.409,31.99c0,-16.178 -13.135,-29.313 -29.313,-29.313c-16.179,0 -29.314,13.135 -29.314,29.313c0,16.179 13.135,29.313 29.314,29.313c16.178,0 29.313,-13.134 29.313,-29.313Z" style="fill:none;stroke:#000;stroke-width:3px;"/></g></g></g></svg>