<?xml version="1.0" encoding="UTF-8" standalone="no"?><!DOCTYPE svg PUBLIC "-//W3C//DTD SVG 1.1//EN" "http://www.w3.org/Graphics/SVG/1.1/DTD/svg11.dtd"><svg width="100%" height="100%" viewBox="0 0 64 64" version="1.1" xmlns="http://www.w3.org/2000/svg" xmlns:xlink="http://www.w3.org/1999/xlink" xml:space="preserve" xmlns:serif="http://www.serif.com/" style="fill-rule:evenodd;clip-rule:evenodd;stroke-miterlimit:10;"><g id="Species"><g id="Birds"><g id="perching-bird-sparrow" serif:id="perching bird-sparrow"><path id="Outline" d="M61.409,32.047c0,-16.178 -13.135,-29.313 -29.313,-29.313c-16.179,0 -29.314,13.135 -29.314,29.313c0,16.178 13.135,29.313 29.314,29.313c16.178,0 29.313,-13.135 29.313,-29.313Z" style="fill:none;stroke:#000;stroke-width:3px;"/><path d="M36.777,42.562c-0.229,0.032 -0.989,-0.225 -0.76,-0.482c0.205,-0.229 0.973,0.224 1.127,0.346c-0.118,0.058 -0.241,0.104 -0.367,0.136m-1.22,-2.646c-0.871,-0.552 -1.826,-1.054 -2.812,-1.208c-0.518,-0.08 -1.517,-1.391 -0.772,-1.391c1.069,0 1.692,0.519 2.593,0.943c0.545,0.256 1.67,1.25 1.473,1.909c-0.154,-0.062 -0.359,-0.139 -0.482,-0.253m20.623,8.112c-0.305,-0.826 -4.04,-1.901 -7.193,-2.988c-2.832,-0.975 -5.092,-1.99 -5.713,-2.339c-0.677,-0.381 -1.387,-0.589 -2.074,-0.943c-0.431,-0.222 -0.481,-0.91 -0.944,-1.219c-0.453,-0.304 -1.132,-0.433 -1.658,-0.577c-0.924,-0.253 -1.291,-0.507 -1.891,-1.219c-0.84,-0.998 -2.15,-2.113 -2.141,-3.542c0.006,-0.998 1.039,-1.765 1.785,-2.301c0.68,-0.49 1.305,-1.226 1.855,-1.818c1.939,-2.086 3.345,-4.357 4.354,-7.018c0.529,-1.396 0.871,-2.691 0.668,-4.2c-0.181,-1.35 -0.94,-2.363 -1.245,-3.645c-0.224,-0.941 -0.253,-1.833 -0.253,-2.807c0,-0.35 -0.063,-0.776 -0.323,-1.036c-0.332,-0.332 -0.056,-0.38 0.23,-0.643c0.278,-0.255 0.684,-0.468 0.991,-0.715c0.282,-0.226 1.22,-0.554 1.359,-0.805c0.294,-0.531 -1.141,-0.407 -1.519,-0.438c-0.982,-0.081 -1.239,-0.23 -1.844,-0.976c-0.689,-0.85 -1.648,-1.26 -2.718,-1.416c-2.378,-0.347 -5.459,0.783 -6.357,3.175c-0.721,1.92 -0.943,4.297 -2.214,5.961c-0.453,0.593 -1,1.1 -1.496,1.609c-0.644,0.661 -1.213,1.422 -1.775,2.186c-2.246,3.054 -2.881,6.517 -3.483,10.177c-0.138,0.837 -0.194,1.932 -0.674,2.627c-0.576,0.835 -1.235,1.592 -1.923,2.311c-0.353,0.371 -2.03,1.608 -1.383,2.119c0.526,0.414 1.693,-0.36 2.119,-0.37c-1.808,2.087 -3.555,4.204 -4.974,6.589c-0.684,1.149 -1.176,2.397 -1.859,3.537c-0.277,0.462 -1.158,1.798 -0.653,2.346c0.597,0.647 2.209,-1.028 2.821,-1.312c1.076,-0.498 1.324,-0.671 1.324,0.847c0,0.852 -0.266,5.415 1.543,4.514c1.506,-0.749 1.745,-2.866 2.582,-4.118c0.94,-1.406 1.713,-3.066 2.603,-4.556c0.817,-1.367 3.028,-7.032 5.481,-5.017c-0.356,0.579 -1.145,1.162 -1.038,1.728c0.069,0.368 1.067,1.5 1.168,1.388c0.177,-0.198 -0.287,-0.639 -0.367,-0.913c-0.193,-0.661 -0.031,-0.8 0.239,-1.177c0.406,-0.568 0.812,-1.099 1.496,-0.794c1.734,0.772 -1.963,1.175 -0.667,1.656c0.924,0.342 1.083,-0.769 1.729,-0.99c0.986,-0.338 -0.296,1.214 -0.439,1.427c-0.033,0.049 -0.245,0.172 -0.299,0.229c0.643,0.14 1.267,-0.411 1.496,-0.976c0.163,-0.403 1.014,-0.363 1.175,0.01c0.047,0.109 -0.187,0.61 -0.207,0.759c-0.057,0.429 0.008,0.578 0.071,0.99c0.108,0.707 0.093,1.808 0.435,0.691c0.176,-0.573 0.222,-1.167 0.416,-1.75c0.07,-0.212 0.38,-0.365 0.6,-0.322c0.315,0.061 0.117,0.328 0.343,0.598c0.481,0.574 1.327,0.675 2.004,0.53c0.201,-0.044 0.487,-0.502 0.692,-0.207c0.187,0.269 -0.36,0.332 -0.482,0.46c-0.121,0.127 -0.636,-0.021 -0.163,0.323c0.448,0.328 1.063,-0.078 1.497,-0.138c0.866,-0.12 1.625,0.522 2.542,0.775c0.579,0.159 2.743,1.185 4.935,1.957c2.992,1.054 6.191,1.942 6.916,2.33c0.416,0.223 0.741,0.596 1.185,0.818c0.586,0.292 0.653,-0.188 0.3,-0.577c0.329,0.014 1.148,-0.335 1.015,-0.805" style="fill-rule:nonzero;"/></g></g></g></svg>