<?xml version="1.0" encoding="UTF-8" standalone="no"?><!DOCTYPE svg PUBLIC "-//W3C//DTD SVG 1.1//EN" "http://www.w3.org/Graphics/SVG/1.1/DTD/svg11.dtd"><svg width="100%" height="100%" viewBox="0 0 64 64" version="1.1" xmlns="http://www.w3.org/2000/svg" xmlns:xlink="http://www.w3.org/1999/xlink" xml:space="preserve" xmlns:serif="http://www.serif.com/" style="fill-rule:evenodd;clip-rule:evenodd;stroke-miterlimit:10;"><g id="Pests"><path d="M24.759,24.648c-0.561,-0.353 -1.024,-0.775 -1.322,-1.301c-1.306,-2.306 -0.157,-5.51 1.03,-6.976c0,0 0.28,-0.376 0.818,-0.37c1.248,0.087 0.142,2.479 0.108,2.699c-0.583,3.68 -2.806,3.343 2.303,5.08c0.162,-0.205 0.323,-0.402 0.486,-0.59c-0.118,-0.378 -0.182,-0.78 -0.182,-1.197c0,-2.212 1.792,-4.008 4,-4.008c2.208,0 4,1.796 4,4.008c0,0.28 -0.029,0.554 -0.084,0.818c0.341,0.338 0.665,0.722 0.999,1.147c1.668,-0.331 3.121,-0.871 2.355,-5.138c-0.145,-0.867 -0.808,-1.126 -0.867,-1.721c-0.059,-0.592 0.326,-1.131 1.071,-1.096c2.741,0.288 3.177,6.504 0.956,8.204c-0.702,0.538 -1.499,0.948 -2.343,1.289c0.067,0.089 0.136,0.179 0.207,0.269c0.129,0.051 0.256,0.115 0.379,0.194c0.054,0.033 0.107,0.067 0.161,0.1c1.515,-0.23 2.893,-1.119 3.984,-3.318c0.633,-1.275 1.652,-2.102 1.535,-5.137c0,0 0.013,-1.072 1.071,-1.036c1.603,0.174 0.922,3.3 0.358,4.493c-1.146,2.499 -2.253,5.096 -4.295,6.31c1.721,0.554 3.593,0.453 5.933,-1.093c1.577,-1.042 3.098,-2.019 4.189,-3.53c0,0 0.132,-0.422 0.861,-0.413c1.95,0.174 -0.596,3.279 -3.032,4.988c-2.449,1.701 -5.019,2.865 -8.346,1.936l0.007,0.009l0.054,0.073l0.016,0.005c4.131,1.492 8.747,3.164 8.451,8.345c-0.084,1.463 -0.341,2.456 -0.608,4.283c-0.205,1.409 -1.466,3.083 -1.466,3.083c-0.699,0.892 -2.44,0.048 -1.371,-1.53c2.213,-3.364 2.079,-7.992 0.517,-9.29c-1.103,-0.917 -2.413,-1.588 -3.782,-2.143c0.655,1.289 1.09,2.664 1.09,4.119c0,8.257 -5.377,14.961 -12,14.961c-6.623,0 -12,-6.704 -12,-14.961c0,-1.589 0.445,-3.001 1.129,-4.285c-2.92,1.035 -5.573,2.379 -4.996,6.831c0.184,1.419 -0.178,2.695 1.582,5.124c0,0 0.333,0.657 0.033,1.126c-0.714,1.115 -2.746,-0.549 -3.143,-3.204c-0.609,-3.775 -1.379,-7.632 2.016,-9.788c1.987,-1.262 4.209,-2.129 6.443,-2.878c0.13,-0.156 0.261,-0.309 0.394,-0.461c-0.623,0.131 -1.221,0.167 -1.752,0.077c-3.612,-0.616 -7.232,-2.981 -9.014,-4.945c0,0 -0.378,-1.705 0.809,-1.67c2.013,0.215 3.601,3.084 7.61,4.403c0.772,0.254 1.555,0.23 2.332,0.019c-1.279,-0.19 -2.512,-0.795 -3.653,-2.024c-0.998,-1.074 -1.543,-1.956 -2.669,-3.405c-0.887,-1.14 -1.209,-3.193 -1.209,-3.193c-0.09,-0.643 0.252,-1.215 1.074,-1.173c1.264,0.163 0.976,2.156 1.953,3.452c1.637,2.207 2.952,4.623 5.82,4.429Z" style="fill:#1b1b1a;"/><path id="Outline" d="M61.5,32.174c0,-16.178 -13.135,-29.313 -29.313,-29.313c-16.178,0 -29.313,13.135 -29.313,29.313c0,16.178 13.135,29.313 29.313,29.313c16.178,0 29.313,-13.135 29.313,-29.313Z" style="fill:none;stroke:#1b1b1a;stroke-width:3px;"/></g></svg>