<?xml version="1.0" encoding="UTF-8" standalone="no"?><!DOCTYPE svg PUBLIC "-//W3C//DTD SVG 1.1//EN" "http://www.w3.org/Graphics/SVG/1.1/DTD/svg11.dtd"><svg width="100%" height="100%" viewBox="0 0 64 64" version="1.1" xmlns="http://www.w3.org/2000/svg" xmlns:xlink="http://www.w3.org/1999/xlink" xml:space="preserve" xmlns:serif="http://www.serif.com/" style="fill-rule:evenodd;clip-rule:evenodd;stroke-miterlimit:10;"><g id="Precipitation-change" serif:id="Precipitation change"><path d="M37.474,46.421c0.799,0.111 1.258,0.739 0.364,2.113c-0.661,0.941 -3.055,0.019 -1.165,-1.833c0.204,-0.2 0.327,-0.311 0.801,-0.28Zm-14,0c0.799,0.111 1.258,0.739 0.364,2.113c-0.677,0.963 -2.99,-0.045 -1.165,-1.833c0.204,-0.2 0.327,-0.311 0.801,-0.28Zm7,0c0.799,0.111 1.258,0.739 0.364,2.113c-0.69,0.983 -2.929,-0.104 -1.165,-1.833c0.204,-0.2 0.327,-0.311 0.801,-0.28Zm-14,0c0.799,0.111 1.258,0.739 0.364,2.113c-0.699,0.995 -2.872,-0.16 -1.165,-1.833c0.204,-0.2 0.327,-0.311 0.801,-0.28Zm26.45,-8.385c0.705,0.098 1.109,0.919 0.737,1.54c-1.51,2.322 -2.983,5.605 -4.21,5.48c-0.677,-0.069 -1.116,-0.907 -0.737,-1.539c1.586,-2.44 3.08,-5.555 4.21,-5.481Zm-21,0c0.705,0.098 1.109,0.919 0.737,1.54c-1.493,2.297 -2.879,5.267 -3.919,5.467c-0.767,0.149 -1.474,-0.781 -1.028,-1.526c1.586,-2.44 3.08,-5.555 4.21,-5.481Zm14,0c0.705,0.098 1.109,0.919 0.737,1.54c-1.493,2.297 -2.879,5.267 -3.919,5.467c-0.767,0.149 -1.474,-0.781 -1.028,-1.526c1.586,-2.44 3.088,-5.554 4.21,-5.481Zm-7,0c0.705,0.098 1.109,0.919 0.737,1.54c-1.379,2.121 -2.927,5.202 -3.847,5.451c-0.74,0.2 -1.527,-0.674 -1.137,-1.448c0.355,-0.592 0.751,-1.16 1.127,-1.739c0,0 2.18,-3.354 2.18,-3.354c0.216,-0.307 0.388,-0.486 0.94,-0.45Zm3.269,-5.031c0.705,0.098 1.109,0.92 0.738,1.54l-1.09,1.677c-0.604,0.858 -2.41,0.133 -1.677,-1.09l1.09,-1.677c0.216,-0.307 0.391,-0.485 0.939,-0.45Zm7,0c0.705,0.098 1.109,0.92 0.738,1.54l-1.09,1.677c-0.589,0.837 -2.393,0.105 -1.677,-1.09l1.09,-1.677c0.216,-0.307 0.387,-0.486 0.939,-0.45Zm-14,0c0.705,0.098 1.109,0.92 0.738,1.54l-1.09,1.677c-0.589,0.837 -2.393,0.105 -1.677,-1.09l1.09,-1.677c0.216,-0.307 0.387,-0.486 0.939,-0.45Zm21,0c0.705,0.098 1.109,0.92 0.738,1.54l-1.09,1.677c-0.611,0.868 -2.343,0.021 -1.677,-1.09l1.09,-1.677c0.216,-0.307 0.387,-0.486 0.939,-0.45Zm8.351,-0.831l-44.466,0c-0.228,-0.475 -0.354,-0.996 -0.354,-1.541c0,-1.083 0.452,-2.184 1.534,-2.708c0.348,-0.167 1.243,0.163 1.58,0c0.345,-0.166 0.269,-0.651 0.54,-0.838c0.352,-0.243 1.016,-0.199 1.119,-0.53c0.143,-0.454 -0.682,-0.741 -0.918,-1.293c-0.177,-0.415 0.294,-1.097 0,-1.459c-0.185,-0.228 -0.685,-0.029 -0.829,-0.288c-0.397,-0.715 -0.487,-1.806 0,-2.527c0.218,-0.322 0.873,-0.335 1.299,-0.773c0.334,-0.343 0.408,-1.143 0.817,-1.247c0.863,-0.218 1.851,0.512 2.552,0.528c1.11,0.025 1.257,0.509 1.852,0c1.238,-1.057 -0.534,-4.443 1.747,-5.567c0.692,-0.341 2.173,-0.289 2.914,0.567c0.74,0.854 1.68,-0.915 2.357,-0.567c0.833,0.428 0.526,1.657 1.25,1.492c0.156,-0.036 -0.027,-1.598 0.393,-2.04c0.465,-0.491 1.535,0.128 1.668,0c1.158,-1.116 0.551,-2.036 2.712,-2.036c0.938,0 1.702,1.294 2.12,1.786c0.649,0.764 1.871,0.174 2.358,0.798c0.346,0.444 -0.198,1.379 0.295,1.492c0.787,0.18 2.177,-0.449 3.089,-0.925c0.427,-0.223 1.203,1.082 1.566,0.925c0.718,-0.311 0.984,-1.927 1.865,-1.492c2.281,1.124 3.064,3.619 1.747,5.567c2.281,-1.125 3.841,-0.663 5.158,1.285c0.062,0.091 0.714,-0.896 1.534,0.485c0.26,0.438 -0.37,1.071 -0.503,1.806c-0.121,0.675 0.816,1.148 0.609,1.792c-0.191,0.595 -1.508,1.374 -2.025,1.691c0.613,0 0.971,0.526 1.416,0.53c0.391,0.003 0.88,-0.538 1.266,-0.266c0.306,0.215 0.939,0.129 1.116,0.588c0.139,0.362 -0.174,1.256 0,1.577c0.204,0.379 0.768,0.015 0.975,0.291c0.166,0.222 0,1.083 0,1.356c0,0.545 -0.125,1.065 -0.353,1.541Z" style="fill:#1b1b1a;"/><path id="Outline" d="M61.5,32.174c0,-16.178 -13.135,-29.313 -29.313,-29.313c-16.178,0 -29.313,13.135 -29.313,29.313c0,16.178 13.135,29.313 29.313,29.313c16.178,0 29.313,-13.135 29.313,-29.313Z" style="fill:none;stroke:#1b1b1a;stroke-width:3px;"/></g></svg>