<?xml version="1.0" encoding="UTF-8" standalone="no"?><!DOCTYPE svg PUBLIC "-//W3C//DTD SVG 1.1//EN" "http://www.w3.org/Graphics/SVG/1.1/DTD/svg11.dtd"><svg width="100%" height="100%" viewBox="0 0 64 64" version="1.1" xmlns="http://www.w3.org/2000/svg" xmlns:xlink="http://www.w3.org/1999/xlink" xml:space="preserve" xmlns:serif="http://www.serif.com/" style="fill-rule:evenodd;clip-rule:evenodd;stroke-miterlimit:10;"><g id="Species"><g id="Birds"><g id="eagle"><path id="Outline" d="M61.126,31.687c0,-16.179 -13.135,-29.313 -29.313,-29.313c-16.178,0 -29.313,13.134 -29.313,29.313c0,16.178 13.135,29.313 29.313,29.313c16.178,0 29.313,-13.135 29.313,-29.313Z" style="fill:none;stroke:#000;stroke-width:3px;"/><path d="M40.6,43.587c0,-0.001 0,-0.002 0.001,-0.003l0.001,0.001l-0.002,0.002Zm6.773,7.319l0,0.001l0,-0.001l0,0Zm2.378,-9.055c-0.021,-0.397 -0.165,-0.773 -0.399,-1.092c-0.202,-0.276 -0.47,-0.48 -0.759,-0.654c-0.017,-0.088 -0.049,-0.173 -0.096,-0.248c-0.13,-0.179 -0.291,-0.332 -0.455,-0.48c-0.017,-0.016 -0.034,-0.032 -0.052,-0.048c-0.021,-0.092 -0.052,-0.182 -0.095,-0.27c-0.075,-0.154 -0.175,-0.299 -0.279,-0.436c-0.237,-0.312 -0.519,-0.59 -0.816,-0.846c-0.578,-0.496 -1.233,-0.909 -1.936,-1.205c-0.768,-0.325 -1.592,-0.467 -2.419,-0.538c-0.193,-0.017 -0.387,-0.026 -0.581,-0.032c0.023,-0.236 0.048,-0.47 0.087,-0.705c0.103,-0.609 0.28,-1.195 0.511,-1.767c0.638,-1.574 1.741,-2.919 2.941,-4.099c0.303,-0.299 0.617,-0.589 0.91,-0.898c0.287,-0.303 0.559,-0.629 0.731,-1.013c0.078,-0.173 0.134,-0.355 0.178,-0.54c0.025,-0.109 0.106,-0.359 -0.056,-0.405c-0.07,-0.02 -0.144,0.015 -0.21,0.068c0.02,-0.062 0.039,-0.124 0.06,-0.186c0.122,-0.361 0.264,-0.713 0.425,-1.058c0.169,-0.362 0.35,-0.719 0.54,-1.071c0.095,-0.177 0.196,-0.351 0.288,-0.53c0.068,-0.133 0.187,-0.358 0.15,-0.488c-0.079,-0.275 -0.598,0.152 -0.696,0.242c-0.205,0.186 -0.396,0.393 -0.57,0.612c0.001,-0.024 0.002,-0.043 0.003,-0.05c0.06,-0.871 0.178,-1.738 0.313,-2.601c0.136,-0.863 0.296,-1.723 0.48,-2.578c0.182,-0.847 0.388,-1.689 0.637,-2.519c0.177,-0.59 0.39,-1.164 0.616,-1.736c-0.098,0.07 -0.194,0.14 -0.291,0.21c-0.256,0.185 -0.479,0.412 -0.68,0.654c-0.059,0.071 -0.115,0.144 -0.171,0.217c0.004,-0.021 0.008,-0.042 0.012,-0.064c0.182,-0.993 0.378,-1.992 0.632,-2.97c0.15,-0.577 0.314,-1.149 0.48,-1.721c-0.146,0.15 -0.293,0.3 -0.44,0.451c-0.329,0.338 -0.616,0.71 -0.89,1.094c-0.292,0.41 -0.543,0.858 -0.767,1.311c0.048,-0.17 0.097,-0.34 0.147,-0.509c0.24,-0.809 0.501,-1.61 0.783,-2.406c0.125,-0.351 0.254,-0.706 0.406,-1.046c0.156,-0.349 0.337,-0.693 0.404,-1.073c0.026,-0.152 0.058,-0.416 -0.116,-0.499c-0.141,-0.066 -0.295,0.033 -0.406,0.114c-0.164,0.12 -0.308,0.272 -0.445,0.422c-0.144,0.156 -0.284,0.319 -0.415,0.486c-0.511,0.647 -0.965,1.33 -1.356,2.057c-0.401,0.748 -0.739,1.529 -1.027,2.327c-0.328,0.912 -0.592,1.848 -0.795,2.796c0.112,-1.096 0.265,-2.189 0.465,-3.271c0.155,-0.838 0.338,-1.674 0.594,-2.487c0.051,-0.163 0.109,-0.324 0.164,-0.486c0.051,-0.151 0.082,-0.355 -0.062,-0.467c-0.139,-0.107 -0.333,-0.043 -0.466,0.041c-0.168,0.104 -0.283,0.255 -0.399,0.412c-0.481,0.65 -0.884,1.354 -1.195,2.101c-0.328,0.788 -0.565,1.613 -0.732,2.45c-0.188,0.945 -0.288,1.904 -0.319,2.866c-0.009,-0.047 -0.019,-0.095 -0.027,-0.142c-0.068,-0.397 -0.131,-0.793 -0.176,-1.192c-0.09,-0.796 -0.134,-1.596 -0.14,-2.397c-0.003,-0.432 0.009,-0.864 0.032,-1.296c0.022,-0.415 0.083,-0.822 0.137,-1.234c0.021,-0.16 0.043,-0.429 -0.129,-0.52c-0.171,-0.096 -0.346,0.1 -0.44,0.219c-0.215,0.27 -0.372,0.597 -0.512,0.917c-0.396,0.121 -0.665,0.468 -0.858,0.823c-0.234,0.431 -0.381,0.908 -0.497,1.383c-0.202,0.823 -0.306,1.671 -0.355,2.517c-0.003,0.043 -0.005,0.086 -0.007,0.129c-0.108,-1.015 -0.122,-2.039 0.025,-3.05c0.019,-0.133 0.04,-0.266 0.009,-0.399c-0.042,-0.181 -0.212,-0.259 -0.358,-0.129c-0.144,0.127 -0.231,0.319 -0.307,0.491c-0.088,0.197 -0.161,0.401 -0.22,0.609c-0.234,0.814 -0.306,1.674 -0.326,2.518c-0.019,0.801 0.019,1.603 0.104,2.4c-0.053,-0.143 -0.106,-0.286 -0.158,-0.43c-0.144,-0.406 -0.28,-0.818 -0.38,-1.238c-0.051,-0.219 -0.085,-0.442 -0.121,-0.664c-0.067,0.139 -0.137,0.278 -0.2,0.419c-0.143,0.325 -0.235,0.672 -0.284,1.023c-0.104,0.732 -0.035,1.483 0.107,2.204c0.127,0.638 0.315,1.263 0.546,1.871c-0.106,-0.174 -0.211,-0.349 -0.313,-0.525c-0.214,-0.37 -0.419,-0.746 -0.593,-1.136c-0.121,-0.269 -0.213,-0.546 -0.297,-0.828c-0.087,0.222 -0.177,0.441 -0.223,0.678c-0.072,0.372 -0.059,0.753 0.002,1.125c0.017,0.104 0.037,0.208 0.061,0.311c-0.324,-0.317 -0.641,-0.639 -0.914,-1.003c-0.055,0.188 -0.103,0.373 -0.118,0.569c-0.021,0.282 0.011,0.565 0.073,0.84c0.033,0.146 0.074,0.289 0.12,0.431c-0.144,-0.06 -0.285,-0.127 -0.417,-0.214c-0.105,-0.071 -0.205,-0.151 -0.305,-0.228c-0.027,0.207 -0.046,0.412 -0.034,0.621c0.046,0.814 0.444,1.566 0.924,2.206c0.187,0.25 0.391,0.485 0.605,0.71c-0.1,-0.04 -0.202,-0.076 -0.306,-0.107c-0.32,-0.094 -0.648,-0.128 -0.978,-0.16c0.217,0.304 0.449,0.585 0.715,0.848c0.329,0.326 0.68,0.627 1.065,0.885c0.064,0.279 0.179,0.553 0.366,0.767c-0.157,-0.051 -0.314,-0.103 -0.467,-0.167c-0.172,-0.072 -0.327,-0.166 -0.482,-0.267c0.002,0.081 0,0.165 0.008,0.246c0.023,0.17 0.071,0.328 0.164,0.474c0.064,0.099 0.14,0.182 0.226,0.255c-0.09,-0.022 -0.18,-0.044 -0.27,-0.069c-0.154,-0.041 -0.306,-0.09 -0.443,-0.173c-0.049,-0.029 -0.098,-0.058 -0.147,-0.088c0.052,0.218 0.098,0.437 0.244,0.616c0.093,0.124 0.207,0.225 0.332,0.31c-0.464,0.004 -0.914,0.106 -1.375,0.142c0.073,0.11 0.146,0.22 0.239,0.316c0.083,0.084 0.174,0.155 0.271,0.216c-0.345,0.049 -0.683,0.125 -1.026,0.189c0.066,0.054 0.13,0.111 0.198,0.162c0.139,0.103 0.299,0.179 0.461,0.239c0.093,0.035 0.188,0.062 0.284,0.085c-0.288,0.092 -0.566,0.214 -0.819,0.379c-0.193,0.126 -0.355,0.282 -0.52,0.44c0.155,0.01 0.311,0.018 0.467,0.032c0.063,0.006 0.126,0.014 0.189,0.023c-0.347,0.169 -0.675,0.373 -0.975,0.619c0.205,0.073 0.406,0.151 0.604,0.238c-0.078,0.038 -0.155,0.078 -0.23,0.122c-0.152,0.091 -0.294,0.188 -0.434,0.292c-0.023,-0.042 -0.047,-0.085 -0.07,-0.129c-0.392,-0.724 -0.716,-1.482 -0.978,-2.263c-0.273,-0.812 -0.47,-1.647 -0.65,-2.484c-0.087,-0.404 -0.17,-0.809 -0.292,-1.205c-0.122,-0.391 -0.288,-0.755 -0.503,-1.103c-0.44,-0.714 -0.894,-1.419 -1.325,-2.138c-0.208,-0.346 -0.41,-0.695 -0.603,-1.05c-0.101,-0.186 -0.2,-0.374 -0.295,-0.564c-0.045,-0.091 -0.086,-0.185 -0.134,-0.275c-0.031,-0.061 -0.074,-0.128 -0.146,-0.141c-0.186,-0.041 -0.193,0.295 -0.196,0.403c-0.002,0.158 0.023,0.314 0.055,0.468c0.081,0.391 0.221,0.77 0.373,1.138c0.004,0.008 0.007,0.016 0.011,0.024c-0.059,-0.035 -0.117,-0.072 -0.173,-0.11c-0.162,-0.111 -0.32,-0.224 -0.474,-0.346c-0.149,-0.119 -0.289,-0.246 -0.431,-0.374c-0.301,-0.273 -0.557,-0.599 -0.789,-0.932c-0.11,-0.157 -0.204,-0.325 -0.298,-0.492c-0.055,-0.097 -0.117,-0.271 -0.238,-0.303c-0.194,-0.05 -0.147,0.299 -0.142,0.391c0.002,0.017 0.003,0.034 0.004,0.051c-0.101,-0.123 -0.2,-0.249 -0.294,-0.378c-0.265,-0.363 -0.505,-0.744 -0.757,-1.116c-0.051,-0.074 -0.102,-0.172 -0.174,-0.23c-0.177,-0.252 -0.356,-0.502 -0.518,-0.762c-0.212,-0.343 -0.422,-0.684 -0.618,-1.037c-0.4,-0.718 -0.761,-1.456 -1.085,-2.212c-0.676,-1.574 -1.209,-3.219 -1.587,-4.89c-0.046,-0.203 -0.091,-0.406 -0.129,-0.61c-0.018,-0.092 -0.019,-0.215 -0.114,-0.264c-0.158,-0.081 -0.36,0.059 -0.462,0.171c-0.104,0.113 -0.174,0.261 -0.19,0.414c-0.044,0.403 -0.079,0.803 -0.078,1.209c0.001,0.278 0.015,0.555 0.041,0.832c-0.109,-0.26 -0.209,-0.523 -0.302,-0.789c-0.268,-0.763 -0.488,-1.542 -0.673,-2.33c-0.048,-0.207 -0.088,-0.418 -0.156,-0.619c-0.046,-0.134 -0.145,-0.345 -0.34,-0.291c-0.164,0.045 -0.227,0.275 -0.26,0.431c-0.042,0.2 -0.052,0.408 -0.057,0.612c-0.021,0.839 0.065,1.688 0.201,2.515c0.022,0.132 0.046,0.265 0.072,0.397c-0.128,-0.283 -0.256,-0.566 -0.384,-0.849c-0.096,-0.21 -0.207,-0.412 -0.308,-0.62c-0.092,-0.189 -0.171,-0.385 -0.273,-0.57c-0.076,-0.136 -0.205,-0.322 -0.387,-0.24c-0.138,0.062 -0.224,0.224 -0.272,0.357c-0.069,0.197 -0.087,0.409 -0.088,0.616c-0.001,0.425 0.069,0.848 0.155,1.263c0.174,0.826 0.431,1.635 0.719,2.428c0.279,0.773 0.594,1.534 0.934,2.282c0.352,0.774 0.728,1.549 1.155,2.293c-0.245,-0.298 -0.486,-0.598 -0.725,-0.899c-0.534,-0.674 -1.054,-1.36 -1.564,-2.053c-0.166,-0.225 -0.327,-0.452 -0.498,-0.673c-0.088,-0.114 -0.234,-0.288 -0.389,-0.301c-0.223,-0.018 -0.18,0.278 -0.149,0.411c0.126,0.53 0.263,1.054 0.438,1.571c0.27,0.793 0.606,1.563 0.999,2.303c0.042,0.08 0.086,0.16 0.13,0.24c-0.166,-0.182 -0.335,-0.362 -0.508,-0.537c-0.275,-0.279 -0.559,-0.56 -0.879,-0.787c-0.124,-0.088 -0.31,-0.222 -0.472,-0.18c-0.123,0.033 -0.153,0.164 -0.15,0.277c0.006,0.198 0.071,0.397 0.134,0.584c0.066,0.199 0.144,0.394 0.226,0.587c0.165,0.386 0.354,0.763 0.555,1.132c0.127,0.235 0.26,0.468 0.4,0.697c-0.879,-1.003 -1.706,-2.06 -2.374,-3.213c-0.075,0.08 -0.144,0.156 -0.184,0.261c-0.066,0.175 -0.076,0.367 -0.061,0.552c0.03,0.383 0.17,0.752 0.351,1.088c0.375,0.696 0.793,1.372 1.217,2.04c0.459,0.723 0.94,1.433 1.454,2.118c0.137,0.182 0.277,0.361 0.419,0.538c-0.515,-0.489 -1.007,-0.997 -1.485,-1.524c-0.354,-0.39 -0.68,-0.811 -0.997,-1.231c-0.173,-0.228 -0.333,-0.466 -0.494,-0.703c-0.119,-0.174 -0.229,-0.382 -0.427,-0.475c-0.178,-0.082 -0.358,0 -0.448,0.167c-0.087,0.161 -0.089,0.36 -0.059,0.537c0.017,0.107 0.053,0.21 0.084,0.313c0.061,0.202 0.131,0.401 0.208,0.597c0.305,0.779 0.714,1.518 1.173,2.216c0.461,0.699 0.975,1.366 1.536,1.987c0.547,0.605 1.132,1.177 1.772,1.682c0.248,0.196 0.504,0.381 0.77,0.548c-0.659,-0.235 -1.311,-0.49 -1.948,-0.779c-0.394,-0.179 -0.781,-0.37 -1.162,-0.575c-0.27,-0.145 -0.542,-0.297 -0.796,-0.468c-0.118,-0.08 -0.235,-0.16 -0.353,-0.24c-0.103,-0.07 -0.205,-0.14 -0.315,-0.198c-0.161,-0.085 -0.369,-0.189 -0.557,-0.156c-0.34,0.053 -0.091,0.517 0.012,0.68c0.181,0.285 0.374,0.557 0.6,0.81c1.359,1.519 3.378,2.52 4.993,3.101c-0.231,-0.043 -0.461,-0.088 -0.691,-0.138c-0.21,-0.045 -0.419,-0.093 -0.628,-0.146c-0.161,-0.04 -0.391,-0.119 -0.523,-0.039c-0.178,0.107 -0.021,0.325 0.074,0.417c0.141,0.137 0.311,0.25 0.472,0.361c0.553,0.382 1.166,0.667 1.806,0.872c0.054,0.133 0.11,0.268 0.191,0.388c0.113,0.169 0.238,0.324 0.393,0.457c0.18,0.156 0.382,0.274 0.597,0.365c-0.115,0.167 -0.082,0.435 0.041,0.584c0.108,0.131 0.29,0.224 0.456,0.255c0.007,0.001 0.017,0.003 0.028,0.005c-0.109,0.215 -0.07,0.47 0.096,0.659c0.151,0.173 0.352,0.252 0.566,0.288c-0.043,0.068 -0.077,0.142 -0.098,0.219c-0.049,0.185 0.005,0.374 0.183,0.465c0.119,0.06 0.254,0.077 0.387,0.078c-0.084,0.164 -0.146,0.351 -0.068,0.522c0.126,0.279 0.52,0.294 0.78,0.275c0.137,-0.011 0.28,-0.028 0.427,-0.051c-0.009,0.014 -0.017,0.028 -0.026,0.041c-0.109,0.155 -0.461,0.573 -0.883,0.837c0.522,0.029 0.995,0.01 1.422,-0.044c-0.077,0.152 -0.167,0.298 -0.262,0.44c-0.146,0.219 -0.308,0.423 -0.478,0.624c0.598,-0.074 1.398,-0.192 2.183,-0.435c-0.013,0.026 -0.025,0.052 -0.038,0.077c-0.063,0.13 -0.138,0.256 -0.214,0.379c-0.122,0.197 -0.255,0.387 -0.385,0.579c0.372,-0.037 0.796,-0.138 1.103,-0.232c-0.206,0.248 -0.48,0.469 -0.746,0.649c0.523,0.083 1.321,0.082 1.763,0.008c-0.195,0.191 -0.465,0.333 -0.788,0.495c0.656,0.371 1.562,0.39 1.838,0.339c-0.125,0.118 -0.255,0.232 -0.388,0.341c-0.651,0.535 -1.378,0.957 -2.112,1.368c-0.004,0.002 -0.008,0.005 -0.013,0.008c-0.61,0.062 -1.244,0.105 -1.85,0.142c-1.728,0.108 -3.461,0.143 -5.192,0.152c-0.429,0.002 -0.857,0.005 -1.285,-0.002c-0.201,-0.003 -0.408,-0.022 -0.607,0.005c-0.084,0.011 -0.188,0.032 -0.241,0.106c-0.05,0.072 -0.02,0.159 0.03,0.221c0.109,0.134 0.715,0.455 1.337,0.63c-0.402,0.054 -0.805,0.108 -1.207,0.163c-0.43,0.058 -0.858,0.12 -1.289,0.171c-0.443,0.052 -0.846,0.093 -1.289,0.144c-0.186,0.022 -0.522,0.007 -0.588,0.154c-0.083,0.183 0.147,0.289 0.261,0.328c0.175,0.06 0.365,0.096 0.547,0.122c1.064,0.156 2.144,0.113 3.21,-0.026c-0.544,0.187 -1.078,0.41 -1.582,0.685c-0.322,0.177 -0.718,0.393 -0.887,0.737c-0.075,0.152 -0.058,0.326 0.082,0.42c-0.226,0.072 -0.451,0.143 -0.677,0.214c-0.338,0.106 -0.676,0.213 -1.015,0.32c-0.212,0.066 -0.421,0.142 -0.595,0.286c-0.143,0.119 -0.247,0.274 -0.298,0.453c-0.037,0.133 -0.04,0.269 -0.042,0.406c0.319,-0.059 0.637,-0.123 0.953,-0.195c0.318,-0.071 0.634,-0.149 0.949,-0.232c-0.209,0.113 -0.409,0.241 -0.59,0.389c-0.148,0.121 -0.315,0.263 -0.398,0.441c-0.025,0.055 -0.041,0.117 -0.019,0.175c0.038,0.104 0.161,0.126 0.259,0.126c0.234,0 0.476,-0.034 0.71,-0.058c0.164,-0.016 0.327,-0.038 0.49,-0.064c-0.643,0.28 -1.413,0.661 -1.777,1.076c-0.092,0.105 -0.145,0.208 -0.183,0.339c0.602,-0.026 1.194,-0.096 1.782,-0.224c0.172,-0.038 0.341,-0.08 0.51,-0.126c-0.422,0.226 -0.772,0.414 -1.02,0.551c-0.217,0.12 -0.426,0.225 -0.645,0.343c-0.128,0.07 -0.364,0.197 -0.382,0.362c-0.024,0.212 0.289,0.199 0.418,0.174c0.113,-0.021 0.218,-0.066 0.324,-0.107c0.159,-0.063 0.318,-0.127 0.476,-0.193c0.404,-0.167 0.805,-0.339 1.206,-0.515c0.725,-0.319 2.41,-1.194 4.074,-2.137c0.299,0.164 0.719,0.234 0.955,0.01c0.206,0.212 0.565,0.083 0.8,-0.032c0.099,-0.046 0.195,-0.104 0.283,-0.169c0.049,-0.037 0.137,-0.139 0.204,-0.135c0.088,0.004 0.162,0.019 0.251,-0.01c0.072,-0.024 0.136,-0.062 0.198,-0.105c0.088,0.034 0.175,0.055 0.274,0.045c0.168,-0.018 0.301,-0.094 0.454,-0.154c0.116,-0.046 0.249,-0.028 0.363,-0.083c0.063,-0.03 0.117,-0.071 0.168,-0.118c0.037,-0.034 0.063,-0.047 0.108,-0.024c0.036,0.02 0.073,0.039 0.109,0.06c0.142,0.087 0.264,0.202 0.404,0.291c0.221,0.139 0.438,0.085 0.657,-0.006c0.027,0.047 0.058,0.088 0.105,0.126c0.078,0.071 0.206,0.095 0.308,0.09c0.106,-0.005 0.213,-0.036 0.306,-0.086c0.078,-0.041 0.146,-0.09 0.207,-0.145c0.119,0.18 0.322,0.293 0.532,0.254c0.029,0.275 0.143,0.701 0.458,0.699c0.108,0 0.204,-0.038 0.29,-0.094c0.141,0.138 0.306,0.248 0.511,0.238c0.136,-0.016 0.255,-0.059 0.372,-0.116c-0.03,0.077 -0.058,0.155 -0.079,0.235c-0.075,0.284 -0.139,0.571 -0.165,0.865c-0.009,0.098 -0.03,0.264 0.038,0.314c0.119,0.088 0.228,-0.06 0.287,-0.166c0.167,-0.3 0.344,-0.593 0.557,-0.858c-0.048,0.117 -0.088,0.238 -0.121,0.362c-0.039,0.146 -0.07,0.294 -0.09,0.444c-0.013,0.108 -0.041,0.265 0.057,0.341c0.109,0.083 0.325,-0.062 0.426,-0.113c0.052,-0.026 0.105,-0.05 0.159,-0.072c-0.063,0.164 -0.116,0.33 -0.156,0.503c-0.02,0.088 -0.041,0.175 -0.061,0.263c-0.021,0.09 -0.068,0.231 0.028,0.293c0.113,0.074 0.293,-0.072 0.369,-0.143c0.09,-0.084 0.178,-0.151 0.283,-0.213c0.095,-0.057 0.18,-0.127 0.253,-0.207c-0.077,0.225 -0.194,0.506 -0.39,0.688c0.276,0.021 0.543,0 0.761,-0.13c-0.081,0.29 -0.138,0.594 -0.13,0.897c0.004,0.16 0.026,0.323 0.088,0.471c0.034,0.079 0.08,0.154 0.121,0.229c0.039,-0.13 0.077,-0.262 0.128,-0.388c0.008,0.112 0.025,0.222 0.055,0.329c0.05,0.183 0.138,0.356 0.263,0.498c0.038,0.049 0.072,0.101 0.109,0.152c0.014,-0.14 0.021,-0.281 0.056,-0.418c0.023,-0.09 0.055,-0.178 0.09,-0.265c-0.008,0.164 -0.001,0.329 0.039,0.49c0.025,0.098 0.099,0.251 0.223,0.168c0.087,-0.059 0.145,-0.189 0.196,-0.277c0.061,-0.103 0.115,-0.209 0.165,-0.317c0.023,0.083 0.059,0.163 0.11,0.238c0.005,0.191 0.076,0.384 0.256,0.529c0.214,-0.881 1.139,-1.201 1.515,-1.25c0.082,-0.011 0.166,-0.019 0.247,-0.038c0.138,-0.032 0.256,-0.105 0.35,-0.205c0.171,0.046 0.336,0.106 0.5,0.173c0.197,0.079 0.391,0.167 0.578,0.268c-0.014,0.155 0.009,0.303 0.011,0.458c0.001,0.072 -0.028,0.132 -0.05,0.199c-0.028,0.087 -0.055,0.174 -0.087,0.259c-0.039,0.102 -0.082,0.202 -0.143,0.292c-0.048,0.072 -0.116,0.126 -0.174,0.188c-0.126,0.135 -0.253,0.288 -0.323,0.461c-0.033,0.082 -0.055,0.181 -0.007,0.262c0.004,0.006 0.009,0.011 0.013,0.016c-0.157,0.304 -0.169,0.751 0.143,0.959c0.24,0.16 0.541,0.172 0.706,0.163c-0.234,-0.088 -0.571,-0.434 -0.357,-0.843c0,0 0.001,0 0.001,0c0.034,0.013 0.07,0.021 0.112,0.022c0.152,-0.012 0.262,-0.153 0.361,-0.255c0.12,-0.125 0.257,-0.284 0.267,-0.466c0.005,-0.101 0.001,-0.193 0.037,-0.291c0.034,-0.095 0.092,-0.175 0.166,-0.243c0.031,-0.029 0.065,-0.058 0.102,-0.081c0.014,-0.008 0.042,-0.012 0.054,-0.022c0,0.025 0.029,0.083 0.038,0.105c0.026,0.061 0.072,0.112 0.136,0.134c0.105,0.035 0.214,-0.011 0.31,-0.05c0.081,-0.034 0.168,-0.079 0.258,-0.08c0.059,0 0.106,0.018 0.161,0.039c0.002,0.001 0.004,0.003 0.006,0.004c0.043,0.025 0.086,0.05 0.117,0.089c0.053,0.066 0.072,0.143 0.105,0.219c0.064,0.143 0.195,0.241 0.34,0.292c0.14,0.048 0.382,0.037 0.429,0.208c0.022,0.094 0.036,0.181 0.088,0.267c0.085,0.148 0.222,0.248 0.335,0.371c0.113,0.123 0.242,0.249 0.413,0.27c0.017,0.193 -0.031,0.388 -0.169,0.53c-0.125,0.128 -0.231,0.176 -0.385,0.21c0.167,0.042 0.326,0.064 0.553,0.013c0.188,-0.054 0.362,-0.175 0.46,-0.345c0.04,-0.071 0.07,-0.143 0.092,-0.216c0.334,-0.19 0.51,-0.578 0.378,-0.946c0.004,-0.009 0.009,-0.017 0.012,-0.026c0.033,-0.092 0.026,-0.185 -0.006,-0.269c0.109,-0.07 0.235,-0.145 0.273,-0.27c0.043,-0.138 -0.076,-0.244 -0.178,-0.314c-0.122,-0.083 -0.297,-0.128 -0.381,-0.255c-0.067,-0.1 -0.078,-0.227 -0.174,-0.308c-0.185,-0.157 -0.462,-0.188 -0.687,-0.258c-0.233,-0.072 -0.462,-0.16 -0.688,-0.252c-0.652,-0.268 -1.274,-0.583 -1.862,-0.972c-0.26,-0.172 -0.515,-0.354 -0.757,-0.552c-0.09,-0.074 -0.18,-0.152 -0.263,-0.236l-0.003,-0.003c0.062,-0.084 0.099,-0.183 0.086,-0.305c-0.028,-0.298 -0.3,-0.484 -0.473,-0.702c-0.176,-0.221 -0.31,-0.5 -0.383,-0.772c-0.061,-0.229 -0.116,-0.46 -0.172,-0.691c0.126,-0.041 0.251,-0.083 0.375,-0.129c0.373,-0.142 0.739,-0.317 1.071,-0.539c0.114,-0.076 0.225,-0.157 0.331,-0.242c0.002,0.125 -0.044,0.243 -0.105,0.351c-0.121,0.218 -0.34,0.365 -0.542,0.501c0.083,0.034 0.169,0.078 0.255,0.1c0.049,0.012 0.098,0.02 0.147,0.024c0.121,0.151 0.278,0.218 0.474,0.215c0.139,-0.003 0.277,-0.034 0.411,-0.073c-0.075,0.094 -0.155,0.184 -0.248,0.261c-0.071,0.059 -0.143,0.118 -0.215,0.177c0.098,0.015 0.198,0.027 0.296,0.026c0.144,0.155 0.332,0.187 0.524,0.157c0.172,0.063 0.345,0.099 0.532,0.095c0.124,-0.003 0.244,-0.026 0.36,-0.062c-0.073,0.061 -0.152,0.112 -0.241,0.152c-0.164,0.073 -0.336,0.116 -0.508,0.164c0.153,0.098 0.299,0.196 0.481,0.229c0.029,0.005 0.057,0.007 0.084,0.008c0.163,0.098 0.349,0.149 0.54,0.149c0.098,0 0.196,-0.013 0.292,-0.036c-0.074,0.121 -0.137,0.249 -0.181,0.384c-0.032,0.097 -0.085,0.245 -0.043,0.347c0.068,0.14 0.2,0.016 0.258,-0.058c0.084,-0.107 0.17,-0.192 0.278,-0.275c0.204,-0.155 0.426,-0.278 0.679,-0.327c0.14,-0.012 0.258,0.037 0.391,0.071c0.158,0.04 0.318,0.022 0.474,-0.021c0.068,-0.02 0.135,-0.041 0.2,-0.072c0.052,-0.024 0.101,-0.056 0.143,-0.096c0.142,0.061 0.287,0.106 0.433,0.158c0.001,0.001 0.006,0.003 0.007,0.004c0.028,0.014 0.055,0.03 0.083,0.046c0.079,0.045 0.16,0.078 0.251,0.09c0.055,0.008 0.116,0.006 0.166,0.032c0.035,0.019 0.062,0.048 0.091,0.075c0.083,0.077 0.21,0.13 0.236,0.25c0.034,0.18 -0.045,0.363 -0.078,0.537c-0.016,0.089 -0.015,0.182 0.011,0.269c0.018,0.068 0.02,0.121 -0.001,0.19c-0.056,0.183 -0.162,0.347 -0.256,0.512c-0.054,0.097 -0.131,0.156 -0.065,0.276c0.033,0.055 0.082,0.1 0.135,0.139c-0.011,0.121 -0.011,0.242 0.038,0.357c0.07,0.161 0.18,0.285 0.338,0.366c0.207,0.105 0.533,0.116 0.715,-0.051c0.075,-0.069 0.15,-0.138 0.225,-0.206c-0.15,0.041 -0.304,0.1 -0.462,0.075c-0.139,-0.021 -0.236,-0.135 -0.276,-0.263c-0.005,-0.016 -0.014,-0.089 -0.019,-0.142c0.013,-0.005 0.027,-0.01 0.04,-0.018c0.093,-0.052 0.145,-0.161 0.181,-0.255c0.072,-0.189 0.106,-0.394 0.126,-0.594c0.006,-0.054 0.008,-0.108 0.011,-0.163c0.001,-0.029 0,-0.08 0.018,-0.104c0.018,-0.038 0.039,-0.068 0.065,-0.102c-0.01,0.012 0.015,-0.02 0.017,-0.023c0.037,-0.047 0.061,-0.105 0.077,-0.161c0.012,-0.045 0.016,-0.09 0.016,-0.137c0,-0.013 -0.009,-0.039 -0.009,-0.057c0.044,-0.008 0.094,0.013 0.136,0.022c0.088,0.018 0.171,0.002 0.25,-0.042c0.119,-0.065 0.226,-0.166 0.354,-0.217c0.294,0.185 0.655,0.229 0.982,0.107c0.054,-0.022 0.108,-0.078 0.168,-0.05c0.055,0.026 0.106,0.056 0.161,0.081c0.149,0.067 0.299,0.069 0.45,0.025c0.086,0.107 0.179,0.204 0.289,0.277c0.042,0.227 -0.005,0.563 -0.268,0.76c0.394,-0.098 0.585,-0.374 0.637,-0.611c0.186,0.15 0.286,0.384 0.173,0.619c-0.052,0.103 -0.165,0.237 -0.325,0.331c0.142,-0.022 0.293,-0.048 0.439,-0.135c0.383,-0.226 0.428,-0.754 0.219,-1.119c0.018,-0.03 0.034,-0.061 0.044,-0.094c0.042,-0.135 -0.024,-0.241 -0.14,-0.306c-0.056,-0.028 -0.117,-0.052 -0.178,-0.076c0.007,-0.009 0.014,-0.017 0.018,-0.023c0.064,-0.077 0.11,-0.197 0.102,-0.299c-0.008,-0.095 -0.087,-0.128 -0.172,-0.131c-0.081,-0.002 -0.144,-0.004 -0.204,-0.064c-0.104,-0.105 -0.196,-0.212 -0.356,-0.222c-0.012,0 -0.025,0 -0.038,0.001c-0.046,-0.105 -0.12,-0.197 -0.204,-0.273c-0.078,-0.07 -0.178,-0.145 -0.281,-0.171c-0.073,-0.018 -0.139,-0.002 -0.208,0.029c-0.119,0.054 -0.231,0.123 -0.353,0.168c-0.2,0.072 -0.413,0.116 -0.62,0.16c-0.219,0.047 -0.452,0.107 -0.677,0.1c-0.277,-0.008 -0.5,-0.143 -0.752,-0.245c-0.189,-0.076 -0.371,-0.159 -0.546,-0.263c-0.042,-0.025 -0.083,-0.052 -0.124,-0.079c-0.007,-0.225 -0.103,-0.415 -0.243,-0.591c-0.165,-0.207 -0.358,-0.391 -0.528,-0.593c-0.172,-0.205 -0.304,-0.434 -0.465,-0.645c-0.164,-0.215 -0.371,-0.383 -0.586,-0.543c-0.615,-0.457 -1.369,-0.972 -1.391,-1.819c-0.01,-0.384 0.185,-0.755 0.36,-1.086c0.13,-0.246 0.272,-0.487 0.403,-0.734c0.19,-0.218 0.394,-0.422 0.619,-0.61c0.438,-0.365 0.924,-0.67 1.442,-0.908c0.376,-0.172 0.771,-0.311 1.177,-0.398c0.406,-0.087 0.846,-0.134 1.255,-0.036c0.194,0.047 0.363,0.134 0.512,0.268c0.15,0.135 0.28,0.289 0.417,0.435c0.135,0.145 0.277,0.284 0.437,0.399c0.082,0.059 0.167,0.112 0.247,0.172c0.153,0.115 0.287,0.262 0.397,0.417c0.059,0.083 0.105,0.175 0.157,0.262c0.113,0.191 0.305,0.31 0.59,0.258c0.079,-0.315 -0.005,-0.754 -0.096,-0.929c-0.093,-0.179 -0.193,-0.347 -0.255,-0.54c-0.062,-0.196 -0.088,-0.402 -0.086,-0.607c0,-0.046 0.003,-0.09 0.006,-0.136c0.292,0.141 0.587,0.27 0.882,0.405c0.144,0.066 0.291,0.133 0.423,0.223c0.011,0.007 0.023,0.015 0.035,0.024c0.086,0.134 0.186,0.299 0.13,0.437c-0.04,0.1 -0.18,0.388 -0.223,0.497c-0.033,0.081 -0.052,0.166 0.034,0.18c0.059,0.002 0.12,-0.022 0.171,-0.049c0.656,-0.341 1,-1.086 0.961,-1.809m-13.357,9.38c0.008,0.079 -0.007,-0.078 0,0" style="fill-rule:nonzero;"/></g></g></g></svg>