<?xml version="1.0" encoding="UTF-8" standalone="no"?><!DOCTYPE svg PUBLIC "-//W3C//DTD SVG 1.1//EN" "http://www.w3.org/Graphics/SVG/1.1/DTD/svg11.dtd"><svg width="100%" height="100%" viewBox="0 0 64 64" version="1.1" xmlns="http://www.w3.org/2000/svg" xmlns:xlink="http://www.w3.org/1999/xlink" xml:space="preserve" xmlns:serif="http://www.serif.com/" style="fill-rule:evenodd;clip-rule:evenodd;stroke-miterlimit:10;"><g id="Species"><g id="Birds"><g id="eagle"><path id="Outline" d="M61.409,32.047c0,-16.178 -13.135,-29.313 -29.313,-29.313c-16.179,0 -29.314,13.135 -29.314,29.313c0,16.178 13.135,29.313 29.314,29.313c16.178,0 29.313,-13.135 29.313,-29.313Z" style="fill:none;stroke:#000;stroke-width:3px;"/><path d="M40.882,43.947c0.001,-0.001 0.001,-0.002 0.001,-0.002l0.001,0l-0.002,0.002Zm6.773,7.319l0,0.001l0,-0.001l0,0Zm2.379,-9.055c-0.022,-0.397 -0.165,-0.772 -0.4,-1.092c-0.202,-0.275 -0.469,-0.48 -0.758,-0.654c-0.018,-0.088 -0.05,-0.172 -0.097,-0.247c-0.13,-0.18 -0.29,-0.333 -0.454,-0.481c-0.018,-0.016 -0.035,-0.032 -0.053,-0.048c-0.02,-0.092 -0.051,-0.181 -0.094,-0.27c-0.076,-0.154 -0.175,-0.299 -0.279,-0.436c-0.238,-0.312 -0.52,-0.59 -0.817,-0.846c-0.578,-0.496 -1.233,-0.908 -1.935,-1.205c-0.769,-0.325 -1.592,-0.467 -2.419,-0.538c-0.194,-0.017 -0.388,-0.026 -0.582,-0.032c0.023,-0.236 0.048,-0.47 0.088,-0.704c0.102,-0.609 0.279,-1.195 0.511,-1.768c0.637,-1.574 1.741,-2.919 2.94,-4.099c0.304,-0.299 0.617,-0.588 0.91,-0.898c0.287,-0.303 0.56,-0.628 0.732,-1.013c0.078,-0.173 0.134,-0.355 0.177,-0.54c0.025,-0.109 0.107,-0.359 -0.056,-0.405c-0.07,-0.02 -0.143,0.015 -0.209,0.068c0.019,-0.062 0.038,-0.124 0.059,-0.186c0.122,-0.361 0.265,-0.713 0.425,-1.058c0.169,-0.362 0.35,-0.718 0.54,-1.07c0.096,-0.178 0.196,-0.352 0.288,-0.531c0.069,-0.133 0.188,-0.358 0.151,-0.488c-0.079,-0.275 -0.599,0.152 -0.697,0.242c-0.205,0.186 -0.396,0.393 -0.569,0.612c0.001,-0.024 0.002,-0.042 0.002,-0.049c0.06,-0.871 0.178,-1.739 0.314,-2.602c0.135,-0.863 0.295,-1.723 0.479,-2.578c0.182,-0.846 0.389,-1.689 0.638,-2.519c0.177,-0.589 0.39,-1.164 0.615,-1.736c-0.097,0.07 -0.194,0.14 -0.291,0.211c-0.255,0.184 -0.478,0.411 -0.68,0.653c-0.059,0.071 -0.115,0.144 -0.17,0.217c0.004,-0.021 0.007,-0.042 0.011,-0.064c0.182,-0.993 0.378,-1.992 0.633,-2.97c0.15,-0.577 0.313,-1.149 0.48,-1.721c-0.147,0.15 -0.293,0.301 -0.44,0.451c-0.33,0.338 -0.617,0.71 -0.891,1.094c-0.292,0.41 -0.543,0.859 -0.766,1.311c0.048,-0.17 0.097,-0.339 0.146,-0.508c0.24,-0.81 0.501,-1.611 0.784,-2.407c0.124,-0.351 0.253,-0.706 0.406,-1.046c0.155,-0.349 0.337,-0.693 0.403,-1.073c0.026,-0.152 0.058,-0.416 -0.116,-0.498c-0.14,-0.067 -0.295,0.033 -0.405,0.113c-0.165,0.12 -0.309,0.272 -0.446,0.422c-0.143,0.156 -0.284,0.319 -0.415,0.486c-0.511,0.647 -0.964,1.331 -1.356,2.057c-0.401,0.748 -0.739,1.529 -1.027,2.327c-0.328,0.912 -0.592,1.848 -0.795,2.797c0.112,-1.097 0.265,-2.19 0.465,-3.272c0.155,-0.837 0.338,-1.674 0.594,-2.487c0.051,-0.163 0.11,-0.324 0.165,-0.486c0.051,-0.15 0.081,-0.355 -0.062,-0.466c-0.14,-0.108 -0.334,-0.044 -0.467,0.04c-0.167,0.104 -0.283,0.256 -0.398,0.412c-0.481,0.651 -0.885,1.354 -1.196,2.101c-0.328,0.789 -0.565,1.614 -0.732,2.451c-0.188,0.944 -0.288,1.904 -0.319,2.865c-0.009,-0.047 -0.019,-0.095 -0.027,-0.142c-0.067,-0.397 -0.13,-0.792 -0.176,-1.192c-0.089,-0.796 -0.134,-1.596 -0.14,-2.397c-0.003,-0.432 0.009,-0.864 0.032,-1.296c0.022,-0.415 0.083,-0.822 0.137,-1.234c0.021,-0.16 0.043,-0.429 -0.128,-0.52c-0.171,-0.095 -0.346,0.1 -0.44,0.219c-0.216,0.27 -0.373,0.598 -0.512,0.917c-0.397,0.122 -0.666,0.469 -0.858,0.823c-0.234,0.431 -0.382,0.908 -0.498,1.383c-0.201,0.823 -0.306,1.672 -0.355,2.517c-0.002,0.043 -0.005,0.086 -0.007,0.129c-0.108,-1.014 -0.122,-2.039 0.025,-3.05c0.019,-0.132 0.04,-0.266 0.009,-0.398c-0.041,-0.182 -0.211,-0.26 -0.358,-0.13c-0.144,0.128 -0.231,0.319 -0.307,0.491c-0.088,0.197 -0.16,0.401 -0.22,0.609c-0.233,0.814 -0.306,1.674 -0.326,2.518c-0.019,0.801 0.019,1.604 0.104,2.4c-0.053,-0.143 -0.106,-0.286 -0.157,-0.43c-0.145,-0.406 -0.281,-0.818 -0.38,-1.237c-0.052,-0.22 -0.086,-0.443 -0.122,-0.665c-0.066,0.139 -0.137,0.278 -0.2,0.419c-0.143,0.325 -0.234,0.672 -0.284,1.024c-0.103,0.731 -0.035,1.482 0.108,2.203c0.126,0.639 0.315,1.263 0.546,1.871c-0.106,-0.174 -0.212,-0.349 -0.314,-0.525c-0.214,-0.37 -0.418,-0.746 -0.593,-1.135c-0.121,-0.27 -0.213,-0.547 -0.297,-0.829c-0.087,0.222 -0.177,0.442 -0.223,0.678c-0.072,0.372 -0.059,0.753 0.002,1.126c0.017,0.104 0.037,0.207 0.061,0.31c-0.324,-0.317 -0.641,-0.639 -0.914,-1.002c-0.055,0.187 -0.103,0.372 -0.118,0.568c-0.02,0.282 0.012,0.566 0.074,0.84c0.032,0.146 0.073,0.289 0.12,0.431c-0.145,-0.06 -0.286,-0.127 -0.417,-0.214c-0.106,-0.071 -0.205,-0.15 -0.306,-0.228c-0.026,0.207 -0.046,0.412 -0.034,0.621c0.046,0.814 0.444,1.566 0.924,2.207c0.187,0.249 0.391,0.484 0.605,0.709c-0.1,-0.04 -0.202,-0.076 -0.306,-0.107c-0.319,-0.094 -0.647,-0.128 -0.978,-0.159c0.217,0.303 0.45,0.584 0.715,0.848c0.329,0.325 0.681,0.626 1.065,0.884c0.064,0.28 0.18,0.553 0.366,0.768c-0.157,-0.052 -0.314,-0.104 -0.467,-0.168c-0.171,-0.072 -0.327,-0.166 -0.482,-0.267c0.003,0.082 0.001,0.165 0.008,0.246c0.023,0.17 0.071,0.328 0.164,0.474c0.064,0.099 0.141,0.182 0.227,0.256c-0.091,-0.022 -0.181,-0.045 -0.27,-0.069c-0.154,-0.042 -0.307,-0.091 -0.444,-0.174c-0.049,-0.029 -0.098,-0.058 -0.146,-0.088c0.051,0.218 0.097,0.437 0.243,0.616c0.093,0.124 0.207,0.225 0.333,0.31c-0.464,0.004 -0.915,0.106 -1.376,0.142c0.074,0.111 0.146,0.22 0.24,0.316c0.082,0.084 0.173,0.155 0.271,0.216c-0.345,0.05 -0.684,0.125 -1.026,0.189c0.065,0.054 0.129,0.111 0.197,0.162c0.139,0.104 0.3,0.179 0.461,0.239c0.094,0.035 0.188,0.063 0.284,0.085c-0.287,0.092 -0.566,0.215 -0.819,0.379c-0.193,0.127 -0.354,0.283 -0.52,0.44c0.156,0.01 0.312,0.018 0.467,0.032c0.063,0.006 0.127,0.014 0.189,0.023c-0.346,0.169 -0.675,0.373 -0.974,0.619c0.204,0.074 0.405,0.151 0.603,0.239c-0.078,0.037 -0.155,0.077 -0.229,0.121c-0.152,0.091 -0.294,0.188 -0.434,0.293c-0.024,-0.043 -0.047,-0.086 -0.071,-0.129c-0.392,-0.724 -0.715,-1.483 -0.978,-2.264c-0.273,-0.812 -0.469,-1.647 -0.649,-2.484c-0.088,-0.404 -0.17,-0.809 -0.293,-1.204c-0.122,-0.392 -0.288,-0.756 -0.503,-1.104c-0.44,-0.714 -0.893,-1.419 -1.325,-2.138c-0.208,-0.346 -0.41,-0.695 -0.603,-1.05c-0.101,-0.186 -0.2,-0.374 -0.294,-0.564c-0.046,-0.091 -0.087,-0.185 -0.134,-0.275c-0.032,-0.06 -0.075,-0.127 -0.146,-0.141c-0.187,-0.041 -0.193,0.296 -0.197,0.404c-0.002,0.157 0.024,0.314 0.056,0.467c0.081,0.391 0.22,0.77 0.373,1.138c0.003,0.008 0.006,0.016 0.01,0.024c-0.059,-0.035 -0.116,-0.072 -0.173,-0.11c-0.162,-0.111 -0.319,-0.224 -0.473,-0.346c-0.15,-0.119 -0.29,-0.246 -0.431,-0.374c-0.302,-0.273 -0.558,-0.599 -0.79,-0.932c-0.109,-0.157 -0.204,-0.324 -0.298,-0.491c-0.055,-0.098 -0.116,-0.272 -0.238,-0.303c-0.193,-0.051 -0.147,0.299 -0.141,0.39c0.001,0.017 0.002,0.034 0.004,0.051c-0.102,-0.123 -0.2,-0.249 -0.295,-0.378c-0.265,-0.363 -0.504,-0.744 -0.757,-1.115c-0.051,-0.075 -0.102,-0.173 -0.174,-0.231c-0.176,-0.251 -0.356,-0.501 -0.517,-0.762c-0.213,-0.343 -0.423,-0.684 -0.619,-1.036c-0.399,-0.719 -0.76,-1.457 -1.084,-2.212c-0.676,-1.575 -1.21,-3.219 -1.588,-4.891c-0.046,-0.202 -0.09,-0.405 -0.129,-0.609c-0.017,-0.093 -0.019,-0.216 -0.114,-0.264c-0.158,-0.082 -0.359,0.058 -0.462,0.17c-0.103,0.113 -0.173,0.261 -0.19,0.414c-0.044,0.403 -0.079,0.803 -0.078,1.21c0.001,0.277 0.016,0.554 0.041,0.831c-0.109,-0.259 -0.208,-0.523 -0.302,-0.788c-0.268,-0.764 -0.487,-1.543 -0.672,-2.331c-0.049,-0.206 -0.088,-0.418 -0.157,-0.619c-0.046,-0.133 -0.145,-0.344 -0.339,-0.291c-0.164,0.045 -0.228,0.276 -0.26,0.431c-0.043,0.2 -0.053,0.408 -0.058,0.612c-0.021,0.839 0.066,1.688 0.202,2.515c0.021,0.132 0.046,0.265 0.071,0.397c-0.128,-0.283 -0.256,-0.566 -0.384,-0.849c-0.095,-0.21 -0.207,-0.412 -0.308,-0.619c-0.092,-0.19 -0.171,-0.386 -0.273,-0.57c-0.075,-0.137 -0.205,-0.322 -0.387,-0.241c-0.138,0.062 -0.224,0.224 -0.271,0.358c-0.07,0.196 -0.088,0.408 -0.088,0.615c-0.002,0.425 0.069,0.849 0.154,1.264c0.174,0.825 0.432,1.634 0.719,2.427c0.28,0.773 0.594,1.534 0.935,2.282c0.352,0.775 0.728,1.55 1.154,2.293c-0.244,-0.298 -0.486,-0.597 -0.725,-0.899c-0.534,-0.674 -1.054,-1.36 -1.564,-2.053c-0.165,-0.224 -0.327,-0.452 -0.497,-0.672c-0.088,-0.115 -0.234,-0.289 -0.39,-0.301c-0.223,-0.018 -0.18,0.277 -0.148,0.41c0.125,0.53 0.262,1.055 0.438,1.571c0.269,0.793 0.605,1.563 0.998,2.303c0.043,0.08 0.086,0.16 0.13,0.24c-0.166,-0.182 -0.334,-0.362 -0.508,-0.537c-0.275,-0.279 -0.559,-0.56 -0.879,-0.787c-0.124,-0.088 -0.309,-0.222 -0.472,-0.179c-0.123,0.032 -0.153,0.163 -0.149,0.276c0.006,0.199 0.07,0.397 0.133,0.584c0.067,0.199 0.145,0.394 0.227,0.587c0.164,0.387 0.354,0.763 0.554,1.133c0.128,0.234 0.26,0.467 0.401,0.696c-0.879,-1.003 -1.707,-2.06 -2.374,-3.213c-0.076,0.08 -0.145,0.156 -0.185,0.261c-0.066,0.175 -0.076,0.368 -0.061,0.552c0.03,0.384 0.17,0.752 0.351,1.088c0.375,0.696 0.793,1.373 1.217,2.04c0.459,0.723 0.94,1.433 1.455,2.119c0.136,0.181 0.276,0.36 0.418,0.537c-0.515,-0.488 -1.007,-0.997 -1.485,-1.523c-0.354,-0.391 -0.679,-0.811 -0.997,-1.232c-0.173,-0.228 -0.332,-0.466 -0.494,-0.703c-0.118,-0.174 -0.229,-0.382 -0.426,-0.475c-0.178,-0.082 -0.359,0.001 -0.448,0.167c-0.087,0.161 -0.09,0.36 -0.06,0.537c0.018,0.107 0.053,0.21 0.084,0.313c0.061,0.202 0.131,0.401 0.208,0.597c0.306,0.779 0.715,1.518 1.174,2.216c0.46,0.7 0.974,1.366 1.536,1.987c0.546,0.605 1.131,1.177 1.771,1.682c0.248,0.196 0.504,0.381 0.771,0.548c-0.659,-0.235 -1.312,-0.49 -1.949,-0.779c-0.393,-0.179 -0.781,-0.37 -1.162,-0.574c-0.269,-0.145 -0.541,-0.298 -0.795,-0.469c-0.118,-0.08 -0.236,-0.16 -0.354,-0.239c-0.102,-0.07 -0.204,-0.141 -0.314,-0.199c-0.161,-0.085 -0.37,-0.189 -0.558,-0.155c-0.34,0.052 -0.091,0.516 0.012,0.679c0.181,0.286 0.375,0.557 0.601,0.81c1.359,1.519 3.377,2.52 4.993,3.101c-0.232,-0.042 -0.462,-0.088 -0.692,-0.138c-0.21,-0.045 -0.419,-0.093 -0.627,-0.146c-0.161,-0.039 -0.392,-0.118 -0.524,-0.039c-0.178,0.108 -0.021,0.326 0.075,0.418c0.14,0.136 0.31,0.25 0.471,0.36c0.553,0.382 1.167,0.668 1.806,0.872c0.054,0.134 0.111,0.268 0.191,0.388c0.113,0.169 0.238,0.324 0.393,0.457c0.181,0.156 0.383,0.274 0.597,0.365c-0.115,0.167 -0.082,0.435 0.042,0.585c0.107,0.13 0.29,0.223 0.455,0.254c0.007,0.002 0.017,0.004 0.028,0.006c-0.109,0.214 -0.069,0.469 0.096,0.658c0.151,0.174 0.352,0.252 0.567,0.289c-0.044,0.067 -0.078,0.141 -0.098,0.218c-0.05,0.185 0.004,0.374 0.182,0.465c0.12,0.06 0.254,0.077 0.388,0.078c-0.084,0.164 -0.147,0.351 -0.069,0.522c0.127,0.279 0.521,0.294 0.78,0.275c0.137,-0.011 0.28,-0.028 0.428,-0.051c-0.009,0.014 -0.018,0.028 -0.027,0.041c-0.109,0.156 -0.46,0.573 -0.883,0.837c0.522,0.03 0.995,0.01 1.422,-0.044c-0.077,0.152 -0.167,0.298 -0.261,0.44c-0.147,0.219 -0.309,0.424 -0.478,0.625c0.598,-0.074 1.397,-0.193 2.182,-0.436c-0.013,0.026 -0.025,0.052 -0.038,0.078c-0.063,0.13 -0.138,0.255 -0.214,0.379c-0.122,0.197 -0.254,0.387 -0.384,0.578c0.371,-0.036 0.796,-0.138 1.103,-0.231c-0.207,0.247 -0.481,0.468 -0.747,0.648c0.523,0.083 1.321,0.082 1.763,0.008c-0.195,0.191 -0.465,0.334 -0.788,0.495c0.657,0.372 1.562,0.39 1.838,0.339c-0.125,0.118 -0.255,0.232 -0.387,0.341c-0.652,0.536 -1.379,0.958 -2.113,1.368c-0.004,0.002 -0.008,0.005 -0.012,0.008c-0.611,0.062 -1.245,0.105 -1.851,0.143c-1.728,0.107 -3.461,0.142 -5.192,0.151c-0.428,0.002 -0.857,0.005 -1.285,-0.002c-0.2,-0.003 -0.408,-0.022 -0.607,0.006c-0.084,0.011 -0.188,0.031 -0.24,0.106c-0.05,0.071 -0.021,0.158 0.029,0.22c0.109,0.134 0.716,0.456 1.338,0.63c-0.403,0.054 -0.805,0.109 -1.207,0.163c-0.43,0.058 -0.859,0.121 -1.29,0.171c-0.443,0.052 -0.845,0.093 -1.289,0.144c-0.186,0.022 -0.522,0.008 -0.588,0.155c-0.083,0.183 0.147,0.289 0.261,0.327c0.175,0.06 0.365,0.096 0.548,0.123c1.063,0.155 2.143,0.112 3.21,-0.027c-0.545,0.188 -1.078,0.41 -1.583,0.686c-0.322,0.176 -0.718,0.392 -0.887,0.736c-0.074,0.152 -0.058,0.326 0.082,0.42c-0.226,0.072 -0.451,0.143 -0.677,0.214c-0.338,0.107 -0.676,0.213 -1.014,0.32c-0.212,0.067 -0.421,0.143 -0.595,0.286c-0.144,0.119 -0.248,0.274 -0.298,0.454c-0.038,0.132 -0.041,0.268 -0.043,0.405c0.319,-0.059 0.637,-0.123 0.953,-0.194c0.318,-0.071 0.635,-0.149 0.949,-0.232c-0.209,0.112 -0.408,0.241 -0.589,0.388c-0.149,0.121 -0.316,0.264 -0.398,0.441c-0.026,0.055 -0.041,0.117 -0.02,0.175c0.038,0.104 0.161,0.127 0.259,0.127c0.235,0 0.477,-0.035 0.711,-0.058c0.163,-0.017 0.327,-0.039 0.489,-0.065c-0.643,0.28 -1.413,0.661 -1.777,1.076c-0.092,0.105 -0.145,0.209 -0.182,0.339c0.601,-0.026 1.193,-0.096 1.782,-0.224c0.171,-0.038 0.34,-0.08 0.509,-0.125c-0.422,0.225 -0.772,0.414 -1.019,0.55c-0.218,0.121 -0.427,0.225 -0.646,0.343c-0.127,0.07 -0.363,0.197 -0.382,0.362c-0.024,0.212 0.289,0.199 0.418,0.174c0.113,-0.021 0.219,-0.065 0.325,-0.107c0.159,-0.062 0.317,-0.127 0.475,-0.192c0.404,-0.167 0.806,-0.339 1.206,-0.515c0.725,-0.32 2.41,-1.194 4.074,-2.137c0.299,0.163 0.719,0.233 0.956,0.009c0.206,0.212 0.565,0.083 0.799,-0.032c0.1,-0.046 0.196,-0.103 0.284,-0.169c0.049,-0.037 0.136,-0.139 0.203,-0.135c0.089,0.005 0.163,0.019 0.251,-0.01c0.072,-0.024 0.137,-0.062 0.198,-0.105c0.088,0.034 0.175,0.055 0.274,0.045c0.168,-0.018 0.301,-0.094 0.454,-0.154c0.116,-0.046 0.249,-0.028 0.363,-0.082c0.063,-0.031 0.117,-0.071 0.169,-0.119c0.036,-0.033 0.063,-0.047 0.107,-0.024c0.037,0.02 0.073,0.039 0.109,0.061c0.143,0.086 0.264,0.202 0.405,0.29c0.22,0.14 0.437,0.086 0.657,-0.006c0.027,0.048 0.057,0.088 0.104,0.126c0.079,0.071 0.207,0.095 0.309,0.09c0.105,-0.005 0.213,-0.035 0.306,-0.085c0.077,-0.042 0.145,-0.091 0.207,-0.146c0.118,0.18 0.321,0.293 0.531,0.254c0.03,0.276 0.143,0.701 0.458,0.699c0.108,0 0.204,-0.037 0.29,-0.094c0.141,0.138 0.306,0.248 0.512,0.238c0.135,-0.015 0.255,-0.059 0.371,-0.115c-0.03,0.077 -0.057,0.154 -0.079,0.234c-0.075,0.285 -0.139,0.571 -0.165,0.865c-0.009,0.098 -0.03,0.264 0.038,0.314c0.119,0.088 0.229,-0.06 0.287,-0.166c0.167,-0.3 0.344,-0.593 0.557,-0.857c-0.047,0.117 -0.088,0.237 -0.121,0.361c-0.039,0.146 -0.07,0.294 -0.09,0.444c-0.013,0.108 -0.04,0.266 0.057,0.341c0.109,0.084 0.325,-0.062 0.427,-0.113c0.051,-0.026 0.104,-0.049 0.158,-0.072c-0.063,0.165 -0.115,0.33 -0.156,0.503c-0.02,0.088 -0.04,0.175 -0.061,0.263c-0.021,0.091 -0.067,0.232 0.028,0.293c0.113,0.074 0.293,-0.072 0.369,-0.143c0.09,-0.084 0.178,-0.15 0.283,-0.213c0.095,-0.056 0.181,-0.126 0.253,-0.207c-0.076,0.226 -0.193,0.507 -0.39,0.688c0.276,0.021 0.544,0.001 0.761,-0.13c-0.081,0.291 -0.137,0.595 -0.13,0.898c0.004,0.159 0.027,0.322 0.089,0.47c0.033,0.08 0.079,0.154 0.12,0.229c0.04,-0.13 0.077,-0.262 0.128,-0.387c0.008,0.111 0.025,0.222 0.055,0.329c0.051,0.182 0.138,0.355 0.263,0.497c0.038,0.049 0.073,0.102 0.109,0.152c0.014,-0.14 0.021,-0.281 0.056,-0.418c0.023,-0.09 0.055,-0.178 0.09,-0.265c-0.008,0.165 -0.001,0.329 0.039,0.49c0.025,0.098 0.099,0.251 0.223,0.168c0.088,-0.059 0.145,-0.189 0.197,-0.276c0.06,-0.104 0.115,-0.209 0.164,-0.317c0.024,0.082 0.06,0.162 0.11,0.237c0.005,0.191 0.076,0.385 0.257,0.53c0.213,-0.882 1.138,-1.202 1.514,-1.251c0.082,-0.011 0.167,-0.019 0.247,-0.038c0.138,-0.032 0.256,-0.105 0.35,-0.204c0.171,0.046 0.337,0.106 0.5,0.172c0.197,0.08 0.391,0.168 0.578,0.268c-0.014,0.155 0.01,0.303 0.012,0.459c0.001,0.071 -0.029,0.132 -0.051,0.198c-0.028,0.087 -0.055,0.174 -0.087,0.259c-0.038,0.102 -0.082,0.202 -0.143,0.293c-0.048,0.071 -0.115,0.125 -0.173,0.187c-0.126,0.135 -0.253,0.289 -0.324,0.461c-0.033,0.083 -0.054,0.181 -0.006,0.262c0.003,0.006 0.008,0.011 0.013,0.016c-0.158,0.305 -0.169,0.751 0.143,0.959c0.239,0.16 0.54,0.172 0.705,0.163c-0.234,-0.088 -0.57,-0.433 -0.357,-0.843c0.001,0 0.001,0 0.001,0c0.035,0.013 0.07,0.021 0.112,0.022c0.153,-0.011 0.263,-0.152 0.361,-0.255c0.12,-0.124 0.258,-0.284 0.267,-0.466c0.005,-0.101 0.001,-0.192 0.037,-0.291c0.035,-0.095 0.092,-0.175 0.166,-0.243c0.032,-0.029 0.065,-0.058 0.102,-0.081c0.014,-0.008 0.042,-0.012 0.054,-0.021c0,0.025 0.029,0.082 0.038,0.104c0.026,0.062 0.072,0.113 0.136,0.134c0.105,0.035 0.214,-0.011 0.31,-0.05c0.082,-0.033 0.169,-0.079 0.258,-0.079c0.06,-0.001 0.107,0.017 0.161,0.038c0.002,0.001 0.005,0.003 0.007,0.004c0.042,0.025 0.085,0.05 0.117,0.09c0.052,0.065 0.071,0.142 0.105,0.218c0.063,0.143 0.194,0.241 0.34,0.292c0.139,0.048 0.381,0.038 0.429,0.208c0.022,0.094 0.036,0.181 0.087,0.267c0.086,0.148 0.222,0.248 0.336,0.372c0.112,0.122 0.241,0.248 0.413,0.269c0.016,0.194 -0.032,0.388 -0.17,0.53c-0.125,0.128 -0.23,0.177 -0.385,0.21c0.167,0.042 0.327,0.065 0.554,0.013c0.187,-0.053 0.361,-0.175 0.459,-0.345c0.041,-0.071 0.071,-0.143 0.092,-0.215c0.334,-0.191 0.51,-0.579 0.379,-0.947c0.004,-0.008 0.008,-0.016 0.011,-0.025c0.033,-0.092 0.027,-0.185 -0.006,-0.27c0.109,-0.069 0.235,-0.144 0.274,-0.27c0.042,-0.138 -0.077,-0.244 -0.179,-0.314c-0.122,-0.083 -0.297,-0.128 -0.381,-0.255c-0.066,-0.1 -0.078,-0.227 -0.174,-0.308c-0.185,-0.157 -0.461,-0.188 -0.687,-0.257c-0.233,-0.072 -0.462,-0.161 -0.687,-0.253c-0.653,-0.268 -1.275,-0.582 -1.863,-0.972c-0.26,-0.172 -0.515,-0.353 -0.756,-0.552c-0.091,-0.074 -0.181,-0.152 -0.264,-0.236l-0.003,-0.003c0.063,-0.084 0.099,-0.182 0.087,-0.305c-0.028,-0.298 -0.3,-0.484 -0.474,-0.702c-0.175,-0.22 -0.31,-0.5 -0.382,-0.772c-0.062,-0.229 -0.117,-0.46 -0.173,-0.691c0.126,-0.04 0.251,-0.083 0.375,-0.129c0.373,-0.141 0.739,-0.317 1.071,-0.539c0.114,-0.076 0.225,-0.157 0.332,-0.242c0.001,0.125 -0.045,0.243 -0.105,0.351c-0.122,0.218 -0.341,0.365 -0.542,0.501c0.082,0.034 0.168,0.079 0.255,0.1c0.048,0.012 0.097,0.021 0.146,0.025c0.121,0.15 0.278,0.218 0.474,0.214c0.14,-0.002 0.277,-0.034 0.411,-0.073c-0.075,0.094 -0.154,0.184 -0.248,0.261c-0.071,0.06 -0.143,0.118 -0.214,0.177c0.097,0.015 0.197,0.027 0.295,0.026c0.144,0.155 0.332,0.187 0.525,0.158c0.171,0.062 0.344,0.098 0.531,0.094c0.125,-0.003 0.244,-0.026 0.361,-0.061c-0.073,0.06 -0.153,0.112 -0.242,0.151c-0.164,0.073 -0.336,0.117 -0.508,0.164c0.153,0.099 0.3,0.196 0.482,0.229c0.028,0.005 0.056,0.007 0.084,0.008c0.162,0.098 0.348,0.149 0.539,0.149c0.098,0 0.197,-0.013 0.292,-0.036c-0.073,0.121 -0.137,0.249 -0.181,0.384c-0.032,0.098 -0.085,0.246 -0.042,0.347c0.067,0.141 0.2,0.016 0.258,-0.058c0.083,-0.106 0.17,-0.192 0.278,-0.275c0.204,-0.155 0.426,-0.278 0.678,-0.327c0.141,-0.012 0.258,0.037 0.391,0.071c0.159,0.04 0.318,0.023 0.474,-0.021c0.069,-0.019 0.135,-0.04 0.2,-0.071c0.052,-0.025 0.101,-0.056 0.143,-0.097c0.142,0.061 0.287,0.106 0.433,0.158c0.001,0.001 0.006,0.003 0.007,0.004c0.029,0.014 0.055,0.031 0.083,0.046c0.079,0.045 0.161,0.078 0.251,0.09c0.055,0.008 0.116,0.006 0.166,0.033c0.035,0.018 0.063,0.047 0.091,0.074c0.084,0.077 0.211,0.13 0.236,0.251c0.034,0.179 -0.045,0.362 -0.078,0.537c-0.016,0.088 -0.015,0.182 0.012,0.268c0.017,0.068 0.019,0.121 -0.002,0.19c-0.056,0.183 -0.162,0.347 -0.255,0.512c-0.055,0.097 -0.132,0.156 -0.065,0.276c0.032,0.055 0.081,0.1 0.134,0.139c-0.01,0.121 -0.01,0.242 0.039,0.357c0.069,0.161 0.179,0.285 0.338,0.366c0.206,0.106 0.533,0.116 0.714,-0.051c0.076,-0.068 0.15,-0.137 0.225,-0.206c-0.15,0.042 -0.304,0.1 -0.461,0.076c-0.14,-0.022 -0.236,-0.136 -0.277,-0.264c-0.005,-0.016 -0.013,-0.088 -0.019,-0.141c0.014,-0.006 0.027,-0.011 0.04,-0.018c0.093,-0.052 0.145,-0.162 0.181,-0.256c0.072,-0.189 0.106,-0.394 0.126,-0.594c0.006,-0.054 0.009,-0.108 0.011,-0.162c0.001,-0.029 0,-0.081 0.018,-0.105c0.018,-0.037 0.04,-0.068 0.065,-0.102c-0.01,0.013 0.015,-0.02 0.018,-0.023c0.037,-0.046 0.061,-0.104 0.076,-0.161c0.012,-0.045 0.017,-0.09 0.016,-0.136c0,-0.014 -0.008,-0.04 -0.009,-0.058c0.044,-0.008 0.094,0.013 0.136,0.022c0.089,0.018 0.172,0.002 0.25,-0.042c0.119,-0.065 0.227,-0.166 0.354,-0.217c0.294,0.185 0.656,0.23 0.982,0.107c0.055,-0.022 0.108,-0.078 0.168,-0.05c0.055,0.026 0.107,0.057 0.162,0.081c0.149,0.067 0.298,0.069 0.45,0.025c0.086,0.108 0.179,0.204 0.288,0.277c0.042,0.227 -0.005,0.563 -0.268,0.76c0.394,-0.097 0.586,-0.374 0.638,-0.611c0.185,0.15 0.285,0.384 0.172,0.62c-0.051,0.102 -0.165,0.236 -0.324,0.33c0.142,-0.022 0.292,-0.048 0.438,-0.134c0.384,-0.227 0.428,-0.755 0.22,-1.12c0.018,-0.03 0.033,-0.061 0.044,-0.094c0.042,-0.135 -0.024,-0.241 -0.141,-0.305c-0.056,-0.029 -0.117,-0.053 -0.178,-0.076c0.007,-0.009 0.014,-0.018 0.019,-0.024c0.063,-0.077 0.109,-0.197 0.101,-0.299c-0.008,-0.095 -0.087,-0.127 -0.172,-0.13c-0.08,-0.003 -0.144,-0.004 -0.204,-0.064c-0.104,-0.106 -0.195,-0.212 -0.355,-0.222c-0.013,-0.001 -0.026,0 -0.038,0c-0.046,-0.105 -0.12,-0.196 -0.205,-0.273c-0.078,-0.07 -0.177,-0.145 -0.281,-0.171c-0.073,-0.018 -0.138,-0.002 -0.208,0.03c-0.119,0.054 -0.23,0.122 -0.353,0.167c-0.199,0.072 -0.413,0.116 -0.62,0.16c-0.218,0.047 -0.451,0.107 -0.676,0.1c-0.278,-0.008 -0.501,-0.143 -0.753,-0.245c-0.188,-0.076 -0.371,-0.158 -0.546,-0.263c-0.042,-0.025 -0.083,-0.051 -0.123,-0.079c-0.007,-0.225 -0.104,-0.415 -0.244,-0.59c-0.165,-0.208 -0.357,-0.391 -0.528,-0.594c-0.171,-0.204 -0.303,-0.434 -0.465,-0.645c-0.164,-0.215 -0.37,-0.382 -0.586,-0.542c-0.615,-0.457 -1.369,-0.973 -1.391,-1.82c-0.01,-0.384 0.185,-0.755 0.36,-1.085c0.131,-0.247 0.272,-0.488 0.403,-0.734c0.191,-0.219 0.394,-0.422 0.62,-0.61c0.437,-0.365 0.923,-0.671 1.441,-0.908c0.377,-0.173 0.771,-0.312 1.177,-0.399c0.406,-0.087 0.846,-0.134 1.255,-0.035c0.195,0.047 0.364,0.133 0.513,0.267c0.149,0.135 0.28,0.289 0.417,0.436c0.135,0.144 0.276,0.283 0.437,0.399c0.081,0.058 0.166,0.111 0.246,0.171c0.154,0.115 0.287,0.262 0.398,0.418c0.058,0.082 0.104,0.174 0.156,0.261c0.114,0.191 0.305,0.311 0.59,0.258c0.079,-0.315 -0.005,-0.753 -0.096,-0.929c-0.092,-0.178 -0.193,-0.346 -0.254,-0.539c-0.063,-0.197 -0.088,-0.402 -0.086,-0.608c0,-0.045 0.002,-0.09 0.005,-0.135c0.292,0.14 0.587,0.269 0.882,0.404c0.144,0.066 0.291,0.134 0.423,0.223c0.012,0.008 0.024,0.016 0.035,0.024c0.087,0.135 0.186,0.299 0.131,0.438c-0.04,0.099 -0.18,0.387 -0.224,0.496c-0.033,0.082 -0.052,0.166 0.034,0.18c0.059,0.003 0.12,-0.022 0.172,-0.048c0.655,-0.341 1,-1.087 0.961,-1.81m-13.357,9.38c0.008,0.079 -0.008,-0.078 0,0" style="fill-rule:nonzero;"/></g></g></g></svg>