<?xml version="1.0" encoding="UTF-8" standalone="no"?><!DOCTYPE svg PUBLIC "-//W3C//DTD SVG 1.1//EN" "http://www.w3.org/Graphics/SVG/1.1/DTD/svg11.dtd"><svg width="100%" height="100%" viewBox="0 0 64 64" version="1.1" xmlns="http://www.w3.org/2000/svg" xmlns:xlink="http://www.w3.org/1999/xlink" xml:space="preserve" xmlns:serif="http://www.serif.com/" style="fill-rule:evenodd;clip-rule:evenodd;stroke-miterlimit:10;"><g id="Species"><g id="reptile"><path id="Outline" d="M61.409,32.062c0,-16.178 -13.135,-29.313 -29.313,-29.313c-16.179,0 -29.314,13.135 -29.314,29.313c0,16.179 13.135,29.314 29.314,29.314c16.178,0 29.313,-13.135 29.313,-29.314Z" style="fill:none;stroke:#000;stroke-width:3px;"/><path d="M14.435,21.771c0.01,0.111 0.023,0.217 0.039,0.322c0.009,0.063 0.022,0.124 0.033,0.186c0.007,0.036 0.013,0.073 0.021,0.109c0.02,0.091 0.042,0.179 0.067,0.266c0,0.001 0,0.001 0,0.002c0.381,1.352 1.332,2.244 2.489,3.191c1.006,0.822 1.406,1.495 1.406,1.495c1.644,3.334 -2.64,6.444 -3.999,9.8c-1.624,4.01 -2.139,8.24 1.087,10.818c3.39,2.71 7.937,3.998 11.874,0.793c2.513,-2.046 3.609,-5.218 4.051,-8.556l0,0.001c0.001,-0.005 0.001,-0.009 0.002,-0.014c0.019,-0.143 0.037,-0.286 0.053,-0.43l0.002,-0.014c0.016,-0.142 0.031,-0.285 0.046,-0.428c0.001,-0.015 0.002,-0.029 0.004,-0.044c0.014,-0.144 0.027,-0.287 0.039,-0.431c0,-0.003 0,-0.005 0,-0.008c0.025,-0.296 0.045,-0.593 0.062,-0.89c0.001,-0.011 0.001,-0.021 0.002,-0.032c0.008,-0.146 0.015,-0.292 0.021,-0.437c0,-0.003 0,-0.005 0.001,-0.007c0.012,-0.297 0.022,-0.592 0.028,-0.887l0.001,-0.028c0.002,-0.145 0.005,-0.289 0.006,-0.432c0.001,-0.005 0.001,-0.01 0.001,-0.015c0.003,-0.29 0.004,-0.577 0.002,-0.863c0,-0.012 0,-0.023 0,-0.034c-0.001,-0.139 -0.002,-0.277 -0.004,-0.414c0,-0.011 0,-0.021 0,-0.031c-0.004,-0.276 -0.009,-0.549 -0.015,-0.819c-0.001,-0.017 -0.001,-0.034 -0.002,-0.051c-0.003,-0.128 -0.006,-0.256 -0.01,-0.382c-0.001,-0.02 -0.001,-0.039 -0.002,-0.059c-0.004,-0.128 -0.008,-0.255 -0.012,-0.382c-0.154,-4.65 0.492,-8.012 3.598,-10.604c1.989,-1.66 6.81,-2.275 9.276,2.002c2.21,3.834 -1.592,8.563 -3.444,10.795c-0.1,0.121 -0.2,0.244 -0.298,0.368c-0.027,0.034 -0.054,0.069 -0.081,0.103c-0.079,0.101 -0.157,0.203 -0.235,0.306c-0.021,0.028 -0.043,0.057 -0.064,0.085c-0.098,0.131 -0.195,0.264 -0.29,0.398c-0.014,0.02 -0.028,0.039 -0.041,0.059c-0.083,0.117 -0.164,0.236 -0.245,0.355c-0.022,0.033 -0.044,0.066 -0.066,0.098c-0.087,0.133 -0.174,0.266 -0.258,0.401c-0.005,0.006 -0.009,0.013 -0.013,0.02c-0.091,0.146 -0.181,0.293 -0.268,0.442c-0.016,0.026 -0.031,0.053 -0.047,0.08c-0.072,0.126 -0.144,0.252 -0.214,0.38c-0.015,0.028 -0.031,0.056 -0.046,0.084c-1.421,2.628 -2.165,5.672 -1.096,8.611c1.672,4.593 10.52,4.283 13.608,1.107c6.137,-6.314 0.069,-13.634 -1.038,-13.991c0,0 2.637,2.844 2.66,6.644c0.001,0.108 0,0.217 -0.004,0.327c0,0.009 -0.001,0.018 -0.001,0.027c-0.004,0.107 -0.01,0.214 -0.018,0.321c0,0.003 0,0.005 -0.001,0.007c-0.008,0.107 -0.019,0.216 -0.032,0.325c-0.002,0.016 -0.004,0.032 -0.006,0.048c-0.013,0.104 -0.027,0.208 -0.044,0.313c-0.001,0.004 -0.002,0.009 -0.003,0.013c-0.017,0.107 -0.038,0.215 -0.061,0.322c-0.004,0.022 -0.009,0.044 -0.014,0.066c-0.022,0.103 -0.046,0.207 -0.073,0.311c-0.002,0.005 -0.003,0.01 -0.004,0.015c-0.028,0.106 -0.059,0.213 -0.092,0.321c-0.007,0.025 -0.015,0.051 -0.023,0.076c-0.034,0.109 -0.07,0.217 -0.11,0.326c-1.974,5.462 -7.516,5.698 -10.496,4.02c-0.087,-0.049 -0.171,-0.1 -0.251,-0.152c-0.027,-0.017 -0.051,-0.035 -0.077,-0.052c-0.053,-0.036 -0.106,-0.073 -0.156,-0.11c-0.028,-0.021 -0.056,-0.043 -0.083,-0.065c-0.045,-0.035 -0.089,-0.071 -0.131,-0.107c-0.027,-0.023 -0.054,-0.047 -0.08,-0.071c-0.04,-0.037 -0.078,-0.074 -0.116,-0.112c-0.025,-0.024 -0.05,-0.048 -0.073,-0.073c-0.038,-0.04 -0.073,-0.081 -0.109,-0.122c-0.02,-0.024 -0.041,-0.047 -0.06,-0.071c-0.043,-0.053 -0.084,-0.108 -0.123,-0.163c-0.011,-0.016 -0.024,-0.032 -0.035,-0.049c-0.043,-0.062 -0.083,-0.127 -0.121,-0.192c-0.017,-0.029 -0.031,-0.058 -0.047,-0.087c-0.023,-0.043 -0.046,-0.085 -0.067,-0.129c-0.016,-0.033 -0.031,-0.068 -0.046,-0.102c-0.017,-0.04 -0.034,-0.08 -0.05,-0.12c-0.015,-0.037 -0.028,-0.074 -0.041,-0.112c-0.014,-0.039 -0.027,-0.079 -0.039,-0.118c-0.012,-0.04 -0.024,-0.079 -0.035,-0.119c-0.01,-0.039 -0.019,-0.078 -0.028,-0.118c-0.01,-0.041 -0.019,-0.083 -0.028,-0.125c-0.007,-0.036 -0.012,-0.074 -0.018,-0.111c-0.016,-0.099 -0.028,-0.199 -0.036,-0.301c-0.002,-0.023 -0.005,-0.046 -0.007,-0.069c-0.003,-0.053 -0.004,-0.109 -0.005,-0.163c-0.001,-0.032 -0.003,-0.063 -0.003,-0.095c0,-0.055 0.001,-0.111 0.003,-0.167c0.001,-0.032 0.002,-0.064 0.004,-0.096c0.002,-0.057 0.006,-0.115 0.012,-0.174c0.002,-0.03 0.005,-0.06 0.008,-0.09c0.006,-0.062 0.013,-0.124 0.022,-0.186c0.003,-0.024 0.007,-0.049 0.011,-0.074c0.01,-0.069 0.021,-0.138 0.034,-0.209c0,-0.001 0,-0.003 0.001,-0.004c0.048,-0.261 0.114,-0.529 0.197,-0.803c0.001,-0.003 0.002,-0.006 0.003,-0.008c0.026,-0.084 0.053,-0.169 0.082,-0.254c0.004,-0.013 0.008,-0.026 0.013,-0.039c0.029,-0.084 0.059,-0.168 0.091,-0.253l0.013,-0.036c0.034,-0.088 0.069,-0.177 0.105,-0.267c0.001,-0.002 0.002,-0.004 0.003,-0.006c0.237,-0.579 0.541,-1.18 0.902,-1.797c0,0 0,0 -0.001,0c0.318,-0.543 0.679,-1.098 1.082,-1.663c3.232,-4.531 4.868,-7.066 4.868,-7.066c1.569,-2.844 3.959,-12.076 -7.493,-13.952c-11.451,-1.875 -12.471,9.483 -12.471,9.483c-0.012,0.379 -0.024,0.748 -0.037,1.111c-0.007,0.2 -0.015,0.397 -0.023,0.593c0,0.02 -0.001,0.041 -0.002,0.061c-0.008,0.195 -0.016,0.387 -0.024,0.576c0,0.02 -0.001,0.039 -0.002,0.059c-0.008,0.19 -0.017,0.377 -0.026,0.562c0,0.019 -0.001,0.038 -0.002,0.056c-0.009,0.185 -0.018,0.367 -0.027,0.547c-0.001,0.019 -0.002,0.039 -0.003,0.058c-0.009,0.179 -0.019,0.357 -0.028,0.532c-0.001,0.017 -0.002,0.035 -0.003,0.053c-0.01,0.175 -0.02,0.348 -0.03,0.519c-0.001,0.017 -0.003,0.035 -0.004,0.052c-0.01,0.171 -0.021,0.34 -0.031,0.507c-0.001,0.015 -0.002,0.03 -0.003,0.045c-0.011,0.168 -0.023,0.334 -0.034,0.498c-0.001,0.013 -0.002,0.027 -0.003,0.04c-0.012,0.165 -0.024,0.327 -0.036,0.487l-0.003,0.035c-0.012,0.162 -0.025,0.322 -0.038,0.479c0,0.009 -0.001,0.017 -0.002,0.026c-0.013,0.16 -0.027,0.318 -0.04,0.473c-0.001,0.006 -0.001,0.011 -0.002,0.016c-0.014,0.158 -0.028,0.315 -0.043,0.468c0,0.002 0,0.004 0,0.006c-0.286,2.997 -0.689,5.141 -1.233,6.677l-0.001,0.002c-0.027,0.076 -0.055,0.151 -0.083,0.224c-0.001,0.005 -0.003,0.011 -0.005,0.016c-0.027,0.07 -0.054,0.138 -0.081,0.205c-0.003,0.008 -0.007,0.017 -0.01,0.025c-0.026,0.064 -0.053,0.126 -0.079,0.188c-0.005,0.011 -0.01,0.021 -0.014,0.032c-0.026,0.059 -0.052,0.117 -0.079,0.174c-0.006,0.012 -0.011,0.024 -0.017,0.037c-0.026,0.054 -0.052,0.108 -0.078,0.16c-0.007,0.014 -0.014,0.027 -0.02,0.041c-0.026,0.05 -0.052,0.1 -0.079,0.149c-0.007,0.014 -0.015,0.028 -0.022,0.042c-0.026,0.047 -0.052,0.094 -0.078,0.139l-0.025,0.044c-0.026,0.044 -0.052,0.087 -0.079,0.129c-0.009,0.015 -0.018,0.03 -0.027,0.045c-0.026,0.041 -0.053,0.081 -0.079,0.12c-0.01,0.015 -0.02,0.03 -0.03,0.045c-0.026,0.038 -0.053,0.076 -0.079,0.113c-0.011,0.014 -0.022,0.029 -0.032,0.044c-0.026,0.035 -0.053,0.07 -0.08,0.104c-0.011,0.015 -0.023,0.03 -0.034,0.044c-0.027,0.034 -0.053,0.066 -0.08,0.098c-0.012,0.014 -0.024,0.029 -0.037,0.043c-0.027,0.031 -0.053,0.061 -0.081,0.091c-0.012,0.014 -0.025,0.028 -0.038,0.042c-0.027,0.028 -0.054,0.057 -0.082,0.085c-0.013,0.013 -0.026,0.027 -0.04,0.04c-0.027,0.027 -0.055,0.053 -0.082,0.079c-0.014,0.014 -0.029,0.026 -0.043,0.039c-0.027,0.025 -0.055,0.05 -0.083,0.074c-0.015,0.013 -0.03,0.025 -0.045,0.037c-0.027,0.024 -0.055,0.046 -0.083,0.068c-0.016,0.013 -0.031,0.025 -0.047,0.037c-0.028,0.021 -0.056,0.042 -0.084,0.063c-0.017,0.011 -0.033,0.023 -0.049,0.034c-0.029,0.02 -0.057,0.04 -0.085,0.058c-0.017,0.012 -0.035,0.023 -0.052,0.033c-0.028,0.019 -0.057,0.037 -0.085,0.054c-0.018,0.011 -0.036,0.021 -0.054,0.031c-0.028,0.017 -0.057,0.034 -0.086,0.05c-0.019,0.01 -0.038,0.02 -0.056,0.03c-0.029,0.015 -0.058,0.03 -0.087,0.044c-0.019,0.01 -0.039,0.02 -0.059,0.029c-0.028,0.014 -0.057,0.028 -0.086,0.041c-0.021,0.009 -0.041,0.018 -0.062,0.026c-0.029,0.013 -0.058,0.026 -0.087,0.038c-0.021,0.008 -0.043,0.017 -0.064,0.025c-0.029,0.011 -0.058,0.023 -0.088,0.034c-0.022,0.008 -0.045,0.016 -0.068,0.024c-0.029,0.01 -0.057,0.02 -0.086,0.03c-0.024,0.007 -0.047,0.015 -0.071,0.022c-0.029,0.009 -0.058,0.019 -0.087,0.027c-0.025,0.008 -0.05,0.014 -0.075,0.021c-0.029,0.008 -0.057,0.017 -0.086,0.024c-0.026,0.007 -0.053,0.013 -0.08,0.02c-0.028,0.007 -0.055,0.014 -0.084,0.021c-0.028,0.006 -0.057,0.012 -0.085,0.019c-0.027,0.005 -0.054,0.012 -0.082,0.017c-0.03,0.006 -0.061,0.012 -0.092,0.018c-0.026,0.005 -0.052,0.01 -0.078,0.015c-0.035,0.006 -0.072,0.012 -0.108,0.018c-0.022,0.004 -0.043,0.008 -0.065,0.011c-0.058,0.009 -0.117,0.018 -0.177,0.026c-3.852,0.521 -5.845,-3.888 -2.947,-8.833c0.088,-0.15 0.173,-0.3 0.256,-0.449c0.027,-0.049 0.053,-0.097 0.079,-0.145c0.056,-0.102 0.111,-0.204 0.164,-0.306c0.029,-0.055 0.057,-0.109 0.085,-0.163c0.051,-0.098 0.1,-0.195 0.148,-0.292c0.026,-0.052 0.052,-0.104 0.078,-0.155c0.054,-0.111 0.106,-0.221 0.158,-0.331c0.016,-0.035 0.034,-0.07 0.05,-0.106c0.066,-0.143 0.131,-0.285 0.193,-0.426c0.017,-0.038 0.033,-0.077 0.05,-0.116c0.045,-0.103 0.089,-0.206 0.132,-0.308c0.021,-0.05 0.041,-0.1 0.062,-0.15c0.037,-0.092 0.074,-0.182 0.11,-0.273c0.019,-0.049 0.039,-0.098 0.058,-0.147c0.037,-0.096 0.073,-0.191 0.109,-0.286c0.014,-0.038 0.029,-0.077 0.043,-0.115c0.099,-0.267 0.189,-0.527 0.273,-0.779c0.01,-0.032 0.02,-0.063 0.031,-0.095c0.031,-0.095 0.061,-0.19 0.091,-0.283c0.01,-0.032 0.02,-0.065 0.03,-0.097c0.03,-0.097 0.058,-0.191 0.086,-0.285c0.007,-0.022 0.014,-0.045 0.02,-0.067c0.106,-0.363 0.196,-0.7 0.271,-1.007l0.001,-0.006c0.074,-0.3 0.135,-0.573 0.184,-0.81c0.202,-0.574 0.286,-1.111 0.272,-1.608c0.055,-0.875 -0.347,-1.711 -0.971,-2.406c-0.541,-0.623 -1.25,-1.101 -1.979,-1.423c-1.907,-0.843 -1.922,-3.197 -1.738,-3.7c0,0 0.835,-1.223 -0.015,-3.235c0,0 -0.096,-0.546 -0.195,-1.198c0.031,-0.085 0.041,-0.204 0.021,-0.334c-0.019,-0.123 -0.061,-0.23 -0.113,-0.302c-0.057,-0.421 -0.105,-0.828 -0.12,-1.114c0,0 -0.047,-0.754 -0.718,-0.762l-0.219,-0.002c-0.671,-0.008 -0.735,0.745 -0.735,0.745c-0.073,0.261 -0.174,0.587 -0.282,0.923c-0.091,0.041 -0.184,0.177 -0.232,0.355c-0.039,0.142 -0.039,0.277 -0.008,0.367c-0.139,0.411 -0.264,0.769 -0.328,0.953c-0.015,0.04 -0.026,0.072 -0.034,0.095c-0.002,0.004 -0.004,0.01 -0.005,0.014c0,0.001 -0.001,0.002 -0.001,0.002c-0.002,0.005 -0.003,0.009 -0.004,0.012c-0.001,0.004 -0.003,0.008 -0.003,0.008c-1.101,2.092 -0.363,3.226 -0.049,3.802c0.233,0.782 0.247,1.437 0.247,1.437" style="fill:#1b1b1b;fill-rule:nonzero;"/></g></g></svg>