<?xml version="1.0" encoding="UTF-8" standalone="no"?><!DOCTYPE svg PUBLIC "-//W3C//DTD SVG 1.1//EN" "http://www.w3.org/Graphics/SVG/1.1/DTD/svg11.dtd"><svg width="100%" height="100%" viewBox="0 0 64 64" version="1.1" xmlns="http://www.w3.org/2000/svg" xmlns:xlink="http://www.w3.org/1999/xlink" xml:space="preserve" xmlns:serif="http://www.serif.com/" style="fill-rule:evenodd;clip-rule:evenodd;stroke-miterlimit:10;"><g id="Species"><g id="Reptiles"><g id="snake"><path id="Outline" d="M61.126,31.687c0,-16.179 -13.135,-29.313 -29.313,-29.313c-16.178,0 -29.313,13.134 -29.313,29.313c0,16.178 13.135,29.313 29.313,29.313c16.178,0 29.313,-13.135 29.313,-29.313Z" style="fill:none;stroke:#000;stroke-width:3px;"/><path d="M14.153,21.396c0.009,0.11 0.022,0.217 0.038,0.321c0.01,0.064 0.022,0.125 0.034,0.186c0.007,0.037 0.013,0.074 0.021,0.11c0.019,0.09 0.042,0.179 0.066,0.266c0.001,0 0.001,0.001 0.001,0.001c0.381,1.353 1.332,2.245 2.489,3.191c1.005,0.823 1.405,1.496 1.405,1.496c1.645,3.334 -2.639,6.444 -3.998,9.8c-1.625,4.01 -2.139,8.24 1.086,10.818c3.39,2.71 7.937,3.997 11.875,0.792c2.513,-2.045 3.608,-5.217 4.051,-8.555l0,0c0.001,-0.004 0.001,-0.009 0.001,-0.013c0.019,-0.143 0.037,-0.287 0.054,-0.43l0.001,-0.014c0.017,-0.143 0.032,-0.286 0.046,-0.429c0.001,-0.014 0.003,-0.029 0.004,-0.043c0.014,-0.144 0.027,-0.288 0.039,-0.432c0.001,-0.002 0.001,-0.005 0.001,-0.007c0.025,-0.297 0.045,-0.594 0.061,-0.891c0.001,-0.01 0.002,-0.02 0.002,-0.031c0.008,-0.146 0.016,-0.292 0.022,-0.438c0,-0.002 0,-0.004 0,-0.007c0.013,-0.296 0.022,-0.592 0.028,-0.886l0.001,-0.029c0.003,-0.144 0.005,-0.288 0.007,-0.432c0,-0.005 0,-0.009 0,-0.014c0.004,-0.29 0.004,-0.578 0.003,-0.863c0,-0.012 0,-0.023 0,-0.035c-0.001,-0.139 -0.003,-0.276 -0.004,-0.414c0,-0.01 -0.001,-0.02 -0.001,-0.031c-0.003,-0.276 -0.008,-0.549 -0.015,-0.819c0,-0.017 -0.001,-0.033 -0.001,-0.051c-0.003,-0.128 -0.007,-0.255 -0.01,-0.382c-0.001,-0.019 -0.002,-0.039 -0.002,-0.058c-0.004,-0.128 -0.008,-0.256 -0.012,-0.382c-0.155,-4.65 0.491,-8.012 3.598,-10.604c1.988,-1.66 6.81,-2.275 9.275,2.002c2.211,3.834 -1.591,8.562 -3.444,10.795c-0.1,0.12 -0.199,0.243 -0.298,0.368c-0.027,0.034 -0.053,0.068 -0.08,0.103c-0.079,0.1 -0.158,0.202 -0.235,0.306c-0.022,0.028 -0.044,0.056 -0.065,0.085c-0.097,0.131 -0.194,0.263 -0.29,0.398c-0.013,0.019 -0.027,0.039 -0.041,0.058c-0.082,0.117 -0.164,0.236 -0.244,0.356c-0.022,0.032 -0.044,0.065 -0.066,0.098c-0.088,0.132 -0.174,0.265 -0.259,0.4c-0.004,0.007 -0.009,0.014 -0.013,0.021c-0.091,0.145 -0.18,0.292 -0.267,0.441c-0.016,0.027 -0.031,0.054 -0.047,0.081c-0.073,0.125 -0.144,0.252 -0.214,0.379c-0.015,0.028 -0.031,0.056 -0.046,0.085c-1.421,2.628 -2.166,5.671 -1.096,8.61c1.672,4.593 10.52,4.284 13.607,1.108c6.138,-6.315 0.069,-13.634 -1.038,-13.991c0,0 2.638,2.844 2.661,6.644c0.001,0.108 -0.001,0.217 -0.004,0.327c-0.001,0.009 -0.001,0.018 -0.002,0.027c-0.004,0.106 -0.009,0.213 -0.018,0.321c0,0.002 0,0.004 0,0.006c-0.008,0.108 -0.019,0.216 -0.032,0.326c-0.002,0.016 -0.004,0.031 -0.006,0.048c-0.013,0.103 -0.028,0.207 -0.045,0.312c-0.001,0.005 -0.001,0.009 -0.002,0.014c-0.018,0.107 -0.039,0.214 -0.061,0.322c-0.005,0.022 -0.009,0.044 -0.014,0.065c-0.022,0.103 -0.047,0.207 -0.074,0.311c-0.001,0.005 -0.002,0.01 -0.003,0.015c-0.028,0.107 -0.059,0.214 -0.092,0.321c-0.008,0.026 -0.016,0.051 -0.024,0.077c-0.034,0.108 -0.07,0.217 -0.109,0.325c-1.975,5.463 -7.516,5.699 -10.497,4.021c-0.087,-0.049 -0.17,-0.1 -0.251,-0.153c-0.026,-0.017 -0.051,-0.034 -0.076,-0.052c-0.053,-0.036 -0.106,-0.072 -0.156,-0.11c-0.029,-0.021 -0.056,-0.043 -0.084,-0.064c-0.044,-0.036 -0.088,-0.071 -0.13,-0.108c-0.027,-0.023 -0.054,-0.047 -0.08,-0.071c-0.04,-0.036 -0.079,-0.073 -0.116,-0.111c-0.025,-0.024 -0.05,-0.049 -0.073,-0.074c-0.038,-0.04 -0.074,-0.081 -0.109,-0.122c-0.02,-0.023 -0.041,-0.047 -0.061,-0.07c-0.043,-0.054 -0.083,-0.108 -0.123,-0.163c-0.011,-0.017 -0.023,-0.033 -0.034,-0.049c-0.043,-0.063 -0.084,-0.127 -0.122,-0.192c-0.016,-0.029 -0.031,-0.059 -0.047,-0.088c-0.023,-0.042 -0.045,-0.085 -0.066,-0.128c-0.017,-0.034 -0.031,-0.068 -0.046,-0.102c-0.018,-0.04 -0.035,-0.08 -0.051,-0.121c-0.014,-0.037 -0.028,-0.074 -0.041,-0.111c-0.013,-0.039 -0.026,-0.079 -0.038,-0.119c-0.012,-0.039 -0.024,-0.078 -0.035,-0.118c-0.01,-0.039 -0.019,-0.079 -0.028,-0.118c-0.01,-0.042 -0.02,-0.083 -0.028,-0.125c-0.007,-0.037 -0.012,-0.074 -0.018,-0.112c-0.016,-0.098 -0.028,-0.199 -0.037,-0.3c-0.002,-0.023 -0.005,-0.046 -0.006,-0.069c-0.004,-0.054 -0.005,-0.109 -0.006,-0.164c-0.001,-0.031 -0.002,-0.063 -0.002,-0.094c-0.001,-0.055 0.001,-0.111 0.003,-0.167c0,-0.032 0.001,-0.064 0.003,-0.096c0.003,-0.058 0.007,-0.116 0.012,-0.174c0.003,-0.03 0.005,-0.06 0.009,-0.09c0.006,-0.062 0.013,-0.124 0.021,-0.186c0.004,-0.025 0.008,-0.05 0.011,-0.074c0.011,-0.069 0.021,-0.139 0.034,-0.209c0.001,-0.002 0.001,-0.003 0.001,-0.004c0.048,-0.261 0.115,-0.529 0.198,-0.804c0.001,-0.002 0.002,-0.005 0.003,-0.008c0.025,-0.084 0.053,-0.168 0.081,-0.253c0.005,-0.013 0.009,-0.026 0.014,-0.039c0.028,-0.084 0.059,-0.168 0.09,-0.253l0.014,-0.037c0.033,-0.088 0.068,-0.177 0.105,-0.266c0.001,-0.002 0.002,-0.005 0.002,-0.007c0.238,-0.578 0.541,-1.179 0.902,-1.797c0,0 0,0.001 0,0.001c0.318,-0.543 0.679,-1.099 1.082,-1.664c3.232,-4.531 4.867,-7.066 4.867,-7.066c1.569,-2.844 3.96,-12.076 -7.492,-13.951c-11.452,-1.875 -12.472,9.483 -12.472,9.483c-0.011,0.379 -0.024,0.748 -0.037,1.111c-0.007,0.2 -0.014,0.397 -0.022,0.592c-0.001,0.021 -0.002,0.041 -0.002,0.062c-0.008,0.194 -0.016,0.386 -0.024,0.576c-0.001,0.019 -0.002,0.039 -0.002,0.059c-0.009,0.189 -0.017,0.377 -0.026,0.562c-0.001,0.019 -0.002,0.037 -0.002,0.056c-0.009,0.184 -0.018,0.366 -0.027,0.546c-0.001,0.02 -0.002,0.039 -0.003,0.058c-0.01,0.18 -0.019,0.357 -0.029,0.532c-0.001,0.018 -0.002,0.036 -0.003,0.053c-0.01,0.175 -0.02,0.349 -0.03,0.519c-0.001,0.018 -0.002,0.035 -0.003,0.053c-0.01,0.171 -0.021,0.34 -0.032,0.507c-0.001,0.015 -0.002,0.03 -0.003,0.044c-0.011,0.169 -0.022,0.335 -0.034,0.498c-0.001,0.014 -0.002,0.027 -0.002,0.041c-0.012,0.164 -0.024,0.327 -0.036,0.487l-0.003,0.035c-0.012,0.161 -0.025,0.321 -0.038,0.479c-0.001,0.008 -0.002,0.017 -0.002,0.025c-0.013,0.16 -0.027,0.318 -0.041,0.474c0,0.005 -0.001,0.01 -0.001,0.015c-0.014,0.159 -0.029,0.315 -0.043,0.469c0,0.002 0,0.003 -0.001,0.005c-0.286,2.997 -0.688,5.142 -1.233,6.677l0,0.002c-0.028,0.077 -0.055,0.151 -0.083,0.225c-0.002,0.005 -0.004,0.01 -0.006,0.015c-0.026,0.07 -0.053,0.138 -0.081,0.205c-0.003,0.009 -0.006,0.017 -0.01,0.025c-0.026,0.064 -0.052,0.127 -0.079,0.189c-0.005,0.01 -0.009,0.021 -0.014,0.032c-0.026,0.059 -0.052,0.116 -0.078,0.173c-0.006,0.012 -0.012,0.025 -0.018,0.037c-0.025,0.055 -0.051,0.108 -0.078,0.161c-0.007,0.013 -0.013,0.027 -0.02,0.04c-0.026,0.051 -0.052,0.101 -0.078,0.15c-0.007,0.014 -0.015,0.028 -0.023,0.041c-0.025,0.048 -0.052,0.094 -0.078,0.14l-0.025,0.043c-0.026,0.044 -0.052,0.087 -0.078,0.13c-0.009,0.015 -0.019,0.029 -0.028,0.044c-0.026,0.041 -0.052,0.081 -0.079,0.121c-0.01,0.015 -0.019,0.03 -0.029,0.044c-0.027,0.039 -0.053,0.076 -0.08,0.113c-0.01,0.015 -0.021,0.03 -0.032,0.044c-0.026,0.036 -0.053,0.071 -0.079,0.105c-0.012,0.015 -0.023,0.029 -0.035,0.044c-0.026,0.033 -0.053,0.066 -0.08,0.098c-0.012,0.014 -0.024,0.028 -0.036,0.042c-0.027,0.031 -0.054,0.062 -0.081,0.092c-0.013,0.014 -0.026,0.028 -0.038,0.041c-0.027,0.029 -0.055,0.057 -0.082,0.085c-0.013,0.014 -0.027,0.027 -0.04,0.041c-0.028,0.027 -0.055,0.053 -0.083,0.079c-0.014,0.013 -0.028,0.026 -0.042,0.039c-0.028,0.025 -0.055,0.049 -0.083,0.073c-0.015,0.013 -0.03,0.025 -0.045,0.038c-0.028,0.023 -0.055,0.046 -0.084,0.068c-0.015,0.012 -0.031,0.024 -0.047,0.036c-0.028,0.021 -0.056,0.043 -0.084,0.063c-0.016,0.012 -0.032,0.023 -0.049,0.035c-0.028,0.02 -0.056,0.039 -0.085,0.058c-0.017,0.011 -0.034,0.022 -0.051,0.033c-0.029,0.018 -0.057,0.036 -0.086,0.054c-0.017,0.01 -0.035,0.021 -0.053,0.031c-0.029,0.017 -0.058,0.033 -0.086,0.049c-0.019,0.01 -0.038,0.02 -0.057,0.03c-0.028,0.015 -0.057,0.03 -0.086,0.045c-0.02,0.01 -0.039,0.019 -0.059,0.029c-0.029,0.013 -0.058,0.027 -0.087,0.04c-0.02,0.009 -0.041,0.018 -0.061,0.027c-0.029,0.013 -0.058,0.026 -0.088,0.037c-0.021,0.009 -0.042,0.017 -0.064,0.026c-0.029,0.011 -0.058,0.023 -0.087,0.033c-0.023,0.009 -0.045,0.016 -0.068,0.024c-0.029,0.01 -0.058,0.021 -0.087,0.03c-0.023,0.008 -0.047,0.016 -0.071,0.023c-0.029,0.009 -0.057,0.018 -0.087,0.027c-0.024,0.007 -0.05,0.014 -0.074,0.021c-0.029,0.008 -0.057,0.016 -0.086,0.024c-0.027,0.007 -0.054,0.013 -0.08,0.02c-0.028,0.007 -0.056,0.014 -0.084,0.02c-0.028,0.007 -0.057,0.013 -0.086,0.019c-0.027,0.006 -0.054,0.012 -0.081,0.018c-0.031,0.006 -0.062,0.012 -0.092,0.018c-0.026,0.005 -0.052,0.01 -0.078,0.014c-0.036,0.007 -0.072,0.013 -0.109,0.019c-0.021,0.003 -0.043,0.007 -0.065,0.011c-0.058,0.009 -0.117,0.017 -0.176,0.025c-3.852,0.522 -5.845,-3.887 -2.947,-8.832c0.088,-0.151 0.173,-0.3 0.256,-0.45c0.026,-0.048 0.052,-0.096 0.078,-0.144c0.056,-0.103 0.111,-0.205 0.165,-0.307c0.029,-0.054 0.057,-0.108 0.085,-0.162c0.05,-0.098 0.1,-0.195 0.148,-0.292c0.026,-0.052 0.052,-0.104 0.077,-0.156c0.054,-0.11 0.107,-0.22 0.158,-0.33c0.017,-0.035 0.034,-0.071 0.051,-0.106c0.066,-0.143 0.13,-0.285 0.192,-0.426c0.018,-0.039 0.034,-0.077 0.05,-0.116c0.045,-0.104 0.09,-0.206 0.132,-0.308c0.021,-0.051 0.042,-0.1 0.062,-0.15c0.038,-0.092 0.074,-0.183 0.11,-0.273c0.02,-0.049 0.039,-0.098 0.058,-0.147c0.038,-0.097 0.074,-0.192 0.11,-0.287c0.014,-0.038 0.029,-0.077 0.043,-0.114c0.098,-0.268 0.189,-0.528 0.272,-0.779c0.011,-0.032 0.021,-0.063 0.031,-0.095c0.032,-0.096 0.062,-0.19 0.091,-0.283c0.01,-0.033 0.021,-0.065 0.03,-0.097c0.03,-0.097 0.059,-0.192 0.087,-0.285c0.006,-0.023 0.013,-0.045 0.02,-0.068c0.106,-0.362 0.195,-0.699 0.271,-1.006l0.001,-0.006c0.074,-0.301 0.134,-0.573 0.183,-0.811c0.203,-0.574 0.287,-1.111 0.273,-1.607c0.055,-0.875 -0.348,-1.712 -0.971,-2.406c-0.541,-0.623 -1.251,-1.102 -1.979,-1.424c-1.908,-0.842 -1.922,-3.197 -1.738,-3.699c0,0 0.835,-1.223 -0.015,-3.235c0,0 -0.096,-0.547 -0.195,-1.199c0.031,-0.085 0.041,-0.204 0.02,-0.333c-0.019,-0.124 -0.061,-0.23 -0.112,-0.302c-0.058,-0.421 -0.105,-0.828 -0.12,-1.115c0,0 -0.047,-0.753 -0.718,-0.761l-0.22,-0.002c-0.671,-0.008 -0.735,0.744 -0.735,0.744c-0.072,0.261 -0.173,0.588 -0.282,0.924c-0.09,0.04 -0.184,0.177 -0.232,0.354c-0.038,0.143 -0.039,0.278 -0.007,0.367c-0.139,0.412 -0.264,0.77 -0.329,0.953c-0.014,0.041 -0.025,0.073 -0.033,0.095c-0.002,0.005 -0.004,0.01 -0.005,0.014c-0.001,0.001 -0.001,0.002 -0.001,0.003c-0.002,0.005 -0.003,0.009 -0.004,0.012c-0.002,0.004 -0.003,0.007 -0.003,0.007c-1.102,2.093 -0.363,3.226 -0.049,3.802c0.233,0.782 0.247,1.438 0.247,1.438" style="fill:#1b1b1b;fill-rule:nonzero;"/></g></g></g></svg>