<?xml version="1.0" encoding="UTF-8" standalone="no"?><!DOCTYPE svg PUBLIC "-//W3C//DTD SVG 1.1//EN" "http://www.w3.org/Graphics/SVG/1.1/DTD/svg11.dtd"><svg width="100%" height="100%" viewBox="0 0 64 64" version="1.1" xmlns="http://www.w3.org/2000/svg" xmlns:xlink="http://www.w3.org/1999/xlink" xml:space="preserve" xmlns:serif="http://www.serif.com/" style="fill-rule:evenodd;clip-rule:evenodd;stroke-miterlimit:10;"><g id="Other-Resources" serif:id="Other Resources"><path id="Outline" d="M61.5,32.174c0,-16.178 -13.135,-29.313 -29.313,-29.313c-16.178,0 -29.313,13.135 -29.313,29.313c0,16.178 13.135,29.313 29.313,29.313c16.178,0 29.313,-13.135 29.313,-29.313Z" style="fill:none;stroke:#1b1b1a;stroke-width:3px;"/><path d="M27.571,52.103l-12.395,-4.875c-0.837,-0.366 -1.392,-1.176 -1.426,-2.094l0,-27.97c0.042,-1.121 0.302,-1.208 0.601,-1.531c0.616,-0.663 1.371,-0.949 2.473,-0.563l14.208,5.589c0.647,-0.007 1.295,-0.008 1.942,-0.002l14.202,-5.587c0.244,-0.085 0.339,-0.174 0.991,-0.15c0.514,0.058 0.595,0.114 0.808,0.217c0.761,0.365 1.243,1.165 1.275,2.027l0,27.97c-0.034,0.913 -0.584,1.726 -1.426,2.094l-12.128,4.77c-0.263,1.578 -1.669,2.875 -3.302,2.937c-1.255,0.015 -2.55,0.188 -3.631,-0.208c-1.127,-0.413 -1.965,-1.444 -2.192,-2.624Zm-0.06,-27.993l-9.261,-3.643c0,7.711 0,15.423 0,23.134l9.215,3.625c-0.068,-7.705 -0.053,-15.412 0.046,-23.116Zm9.227,-0.098c0.094,7.705 0.109,15.411 0.045,23.116l8.967,-3.527l0,-23.134l-9.012,3.545Zm-15.898,11.725c0.043,0.004 0.084,0.011 0.125,0.024c1.772,0.642 3.523,1.341 5.25,2.095c0.448,0.231 0.198,1.092 -0.37,0.927c-1.771,-0.642 -3.523,-1.341 -5.25,-2.096c-0.424,-0.218 -0.289,-0.965 0.245,-0.95Zm23.194,0c0.45,0.046 0.598,0.735 0.181,0.95c-1.727,0.755 -3.478,1.454 -5.25,2.096c-0.492,0.143 -0.868,-0.67 -0.37,-0.927c1.727,-0.754 3.479,-1.453 5.25,-2.095c0.055,-0.017 0.057,-0.029 0.189,-0.024Zm-23.194,-3c0.043,0.004 0.084,0.011 0.125,0.024c1.772,0.642 3.523,1.341 5.25,2.095c0.455,0.235 0.168,1.084 -0.37,0.927c-1.771,-0.642 -3.523,-1.341 -5.25,-2.096c-0.417,-0.215 -0.307,-0.965 0.245,-0.95Zm23.194,0c0.442,0.045 0.627,0.72 0.181,0.95c-1.727,0.755 -3.478,1.454 -5.25,2.096c-0.47,0.137 -0.955,-0.625 -0.37,-0.927c1.727,-0.754 3.479,-1.453 5.25,-2.095c0.055,-0.017 0.06,-0.029 0.189,-0.024Zm-23.194,-3c0.043,0.004 0.084,0.011 0.125,0.024c1.772,0.642 3.523,1.341 5.25,2.095c0.455,0.235 0.168,1.084 -0.37,0.927c-1.771,-0.642 -3.523,-1.341 -5.25,-2.096c-0.424,-0.218 -0.289,-0.965 0.245,-0.95Zm23.194,0c0.45,0.046 0.598,0.735 0.181,0.95c-1.727,0.755 -3.478,1.454 -5.25,2.096c-0.492,0.143 -0.868,-0.67 -0.37,-0.927c1.727,-0.754 3.479,-1.453 5.25,-2.095c0.055,-0.017 0.06,-0.029 0.189,-0.024Zm-23.194,-3c0.043,0.004 0.084,0.011 0.125,0.024c1.772,0.642 3.523,1.341 5.25,2.095c0.448,0.231 0.198,1.092 -0.37,0.927c-1.771,-0.642 -3.523,-1.341 -5.25,-2.096c-0.424,-0.218 -0.289,-0.965 0.245,-0.95Zm23.194,0c0.45,0.046 0.598,0.735 0.181,0.95c-1.727,0.755 -3.478,1.454 -5.25,2.096c-0.486,0.142 -0.913,-0.647 -0.37,-0.927c1.727,-0.754 3.479,-1.453 5.25,-2.095c0.055,-0.017 0.057,-0.029 0.189,-0.024Z" style="fill:#1b1b1a;fill-rule:nonzero;"/></g></svg>