<?xml version="1.0" encoding="UTF-8" standalone="no"?><!DOCTYPE svg PUBLIC "-//W3C//DTD SVG 1.1//EN" "http://www.w3.org/Graphics/SVG/1.1/DTD/svg11.dtd"><svg width="100%" height="100%" viewBox="0 0 64 64" version="1.1" xmlns="http://www.w3.org/2000/svg" xmlns:xlink="http://www.w3.org/1999/xlink" xml:space="preserve" xmlns:serif="http://www.serif.com/" style="fill-rule:evenodd;clip-rule:evenodd;stroke-miterlimit:10;"><g id="Habitats"><g id="Freshwater"><g id="rivers"><path d="M11.972,11.967c0.058,-0.002 6.814,-3.317 6.814,-3.317l11.701,-3.181l14.064,3.181l3.494,2.418l4.707,4.232c0,0 2.677,-0.355 1.575,5.83c-0.02,0.112 -0.263,3.509 0.47,6.688c0.715,3.103 1.076,5.013 2.094,5.085c0.444,0.032 1.09,-0.357 1.773,-0.491c0.897,-0.176 1.466,0.327 1.795,0.341c0.31,0.014 0.079,-0.378 0.535,-0.393c0.396,-0.014 -0.375,-0.066 -0.008,-0.205c0.63,-0.238 -0.355,6.266 -1.102,8.912l0.008,0l-0.025,0.06c-0.16,0.555 -0.308,0.929 -0.426,1.016l-1.197,2.858l-1.781,3.039l-3.711,4.596l-2.511,2.28l-4.088,2.736l-6.46,2.532l-2.674,0.676l-6.823,0.392l-0.045,-0.01l-8.057,-1.75l-0.069,-0.068c-0.343,-0.338 -0.782,-0.725 -0.984,-0.851l-0.271,0.132c-0.001,-0.002 -0.002,-0.004 -0.003,-0.005c-0.017,-0.036 -0.038,-0.081 -0.059,-0.131c-0.013,-0.03 -0.025,-0.061 -0.037,-0.091l-9.012,-6.586l-4.69,-6.207l-2.969,-9.685l21.66,0c0.145,-0.741 0.032,-5.178 0.014,-5.402c-0.019,-0.227 0.048,-0.647 0.299,-0.641c0.251,0.005 0.356,0.544 0.305,0.812c-0.051,0.267 0.056,1.466 0.165,1.495c0.11,0.03 -0.019,-1.236 0.262,-1.212c0.119,0.01 0.137,1.067 0.232,1.242c0.118,0.215 0.129,0.713 0.233,0.697c0.087,-0.014 0.192,-0.738 0.16,-0.898c-0.032,-0.16 0.176,-0.408 0.288,-0.336c0.112,0.072 0,0.328 0.032,0.432c0.032,0.105 0.072,0.04 0.145,0.161c0.072,0.12 -0.081,1.081 -0.016,1.169c0.064,0.089 0.096,-0.12 0.192,-0.112c0.096,0.008 -0.056,0.561 0.016,0.593c0.072,0.032 0.112,-0.056 0.176,-0.064c0.064,-0.008 -0.048,0.136 0.096,0.112c0.145,-0.024 0.369,-0.256 0.465,-0.641c0.096,-0.384 0.08,-0.953 0.128,-1.266c0.048,-0.312 0.2,-0.4 0.305,-0.4c0.104,0 0.168,0.2 0.144,0.336c-0.024,0.136 -0.016,0.305 0.064,0.321c0.08,0.016 0.176,-0.529 0.16,-0.866c-0.016,-0.336 -0.064,-0.649 0.065,-0.657c0.128,-0.008 0.04,0.104 0.144,0.289c0.104,0.184 0.048,0.889 0.112,0.897c0.064,0.008 0.23,-0.977 0.23,-0.977c0,0 0.136,-0.49 0.122,-0.801c-0.014,-0.313 -0.027,-0.794 0.117,-0.802c0.145,-0.008 0.165,0.203 0.213,0.371c0.048,0.168 -0.032,1.12 -0.041,1.264c-0.01,0.144 -0.056,0.681 0.032,0.689c0.088,0.008 0.145,-0.353 0.176,-0.721c0.031,-0.368 0.021,-0.737 0.101,-0.753c0.08,-0.016 0.116,0.12 0.204,0.32c0.088,0.2 0.088,0.657 0.112,0.721c0.024,0.064 0.136,0.04 0.192,0.128c0.056,0.089 -0.08,0.513 -0.08,0.769c0,0.257 0.128,0.786 0.208,0.786c0.08,0 0.112,-0.16 0.112,-0.16c0,0 -0.024,-0.217 0,-0.481c0.024,-0.265 0.032,-0.337 0.145,-0.385c0.112,-0.048 0.075,-0.048 0.171,-0.016c0.096,0.032 0.04,0.152 0.096,0.321c0.056,0.168 0.005,0.52 0.053,0.609c0.048,0.088 0.096,-0.016 0.16,0.032c0.065,0.048 0.121,0.504 0.193,0.496c0.072,-0.008 0.208,-0.576 0.128,-0.656c-0.08,-0.081 0.184,-0.385 0.256,-0.401c0.072,-0.016 0.024,0.505 0.08,0.529c0.057,0.024 0.072,-0.136 0.177,-0.128c0.104,0.007 0.096,0.384 0.096,0.384c0,0 -0.056,0.425 0.032,0.449c0.088,0.024 0.23,-0.25 0.256,-0.577c0.026,-0.327 0.032,-0.858 0.081,-1.01c0.047,-0.152 0.168,-0.136 0.24,-0.208c0.072,-0.072 -0.112,-0.377 -0.08,-0.561c0.032,-0.184 0.248,-0.24 0.272,-0.417c0.024,-0.176 -0.141,-0.708 -0.096,-0.817c0.045,-0.109 0.083,-0.148 0.179,-0.148c0.096,0 0.198,0.132 0.27,0.292c0.072,0.161 0,0.529 -0.016,0.625c-0.017,0.096 0.104,0.08 0.128,0.225c0.024,0.144 -0.104,0.496 -0.128,0.641c-0.024,0.144 0.088,1.145 0.16,1.137c0.072,-0.008 0.148,-0.781 0.208,-0.961c0.06,-0.18 0.161,-0.481 0.153,-0.625c-0.008,-0.144 -0.116,-0.361 -0.036,-0.401c0.08,-0.04 0.18,-0.072 0.268,0c0.088,0.072 0.048,0.353 0.048,0.353c0,0 -0.04,0.945 0.016,0.977c0.056,0.032 0.164,0.039 0.208,-0.144c0.045,-0.183 0.152,-0.481 0.144,-0.593c-0.008,-0.112 0.081,-0.224 0.161,-0.208c0.08,0.016 0.072,0.056 0.128,0.208c0.056,0.153 -0.032,0.793 0,1.026c0.032,0.232 -0.111,1.174 -0.011,1.994c0.011,0.096 0.257,0.073 0.329,0.161c0.072,0.088 -0.006,0.178 0.058,0.194c0.064,0.016 0.754,-0.594 1.515,-0.651c0.192,-0.014 0.545,0.193 0.625,0.353c0.08,0.16 0.313,0.146 0.689,0.176c0.184,0.015 0.526,-0.202 0.801,-0.272c0.313,-0.08 0.689,-0.04 0.785,-0.01c0.096,0.029 0.427,0.262 0.609,0.186c0.183,-0.076 1.145,-0.304 1.459,-0.609c0.057,-0.056 -0.033,-0.287 0.203,-0.586c0.115,-0.146 0.309,-0.015 0.277,-0.375c-0.032,-0.361 0.019,-0.681 0.08,-0.754c0.062,-0.072 0.325,-0.144 0.355,-0.003c0.093,0.419 0.363,0.046 0.437,0.247c0.075,0.201 0.04,0.448 0.298,0.205c0.028,-0.027 0.062,-0.054 0.097,-0.087c0.491,-0.457 1.454,-1.568 1.746,-2.092c0.313,-0.561 0.566,-1.268 0.801,-1.891c0.273,-0.721 0.44,-1.551 0.593,-2.099c0.469,-1.683 0.956,-3.638 0.604,-6.122c-0.136,-0.956 -0.307,-1.612 -0.699,-2.513c-0.058,-0.005 -0.117,-0.009 -0.177,-0.014c-0.924,-0.072 -1.972,-0.155 -2.618,-0.446c-0.686,-0.311 -0.752,-1.043 -0.806,-1.631c-0.036,-0.412 -0.069,-0.767 -0.279,-0.911c-0.165,-0.113 -0.277,-0.307 -0.395,-0.513c-0.133,-0.23 -0.27,-0.469 -0.495,-0.626c-0.453,-0.318 -0.871,-0.506 -1.239,-0.672c-0.264,-0.12 -0.514,-0.232 -0.746,-0.377c-0.224,-0.139 -0.361,-0.303 -0.506,-0.476c-0.079,-0.095 -0.162,-0.194 -0.265,-0.293c-0.003,0.002 -0.006,0.004 -0.009,0.006c-0.142,0.078 -0.389,0.094 -0.558,0.055c0.001,0.002 0.002,0.004 0.003,0.006c0.035,0.03 0.069,0.06 0.103,0.09c0.148,0.101 0.248,0.218 0.339,0.383c0.035,0.065 0.082,0.16 0.055,0.25c-0.008,0.003 -0.016,0.006 -0.024,0.009c0.08,0.074 0.249,0.259 0.297,0.33c0.07,0.103 0.124,0.21 0.161,0.346c0.012,0.043 0.033,0.121 0.003,0.163c-0.032,0.045 -0.137,0.032 -0.197,0.034c-0.128,0.005 -0.288,-0.048 -0.393,-0.107c-0.035,-0.019 -0.18,-0.116 -0.308,-0.223c0.019,0.044 0.036,0.089 0.034,0.136l0.019,0.114c0.029,0.151 -0.016,0.347 -0.095,0.432c-0.121,0.008 -0.202,-0.062 -0.279,-0.114c-0.241,-0.159 -0.325,-0.439 -0.457,-0.714c-0.01,-0.042 -0.02,-0.085 -0.03,-0.127c-0.001,0.059 -0.032,0.088 -0.049,0.131c-0.036,0.095 -0.091,0.26 -0.098,0.258c-0.002,0.002 -0.004,0.004 -0.006,0.006c0,0.002 0,0.003 0,0.004c0.122,0.031 0.231,0.154 0.299,0.25c0.02,0.029 0.071,0.09 0.039,0.133c-0.029,0.066 -0.159,0.08 -0.241,0.101c-0.272,0.07 -0.477,-0.072 -0.689,-0.125c0.034,0.059 0.033,0.153 0.039,0.237c0.314,-0.009 0.719,0.152 0.876,0.316c0.036,0.038 0.185,0.16 0.157,0.241c-0.062,0.123 -0.405,0.152 -0.565,0.115c0.001,0.002 0.002,0.004 0.004,0.006c0.027,0.024 0.055,0.048 0.082,0.072c0.129,0.09 0.22,0.189 0.3,0.335c0.031,0.057 0.074,0.144 0.047,0.221c-0.373,0.147 -0.602,-0.084 -0.832,-0.22l0.171,0.195c0.187,0.262 0.352,0.556 0.288,0.987c0.055,0.013 0.159,0.064 0.164,0.132c-0.065,0.06 -0.131,0.114 -0.222,0.153l-0.172,0.038c0.127,0.013 0.299,0.119 0.369,0.201c0.017,0.021 0.078,0.068 0.058,0.112c-0.012,0.025 -0.056,0.038 -0.083,0.05c-0.115,0.051 -0.281,0.067 -0.408,0.034c-0.047,-0.012 -0.1,-0.036 -0.154,-0.044c0.002,0.002 0.003,0.004 0.004,0.006c0.041,0.008 0.075,0.041 0.108,0.06c0.166,0.098 0.275,0.213 0.378,0.381c0.036,0.059 0.078,0.267 0.009,0.302c-0.064,0.034 -0.17,-0.008 -0.222,-0.025c-0.199,-0.066 -0.273,-0.233 -0.406,-0.37c0.012,0.157 -0.053,0.312 -0.12,0.41c-0.028,0.042 -0.054,0.104 -0.122,0.109c-0.15,-0.073 -0.212,-0.227 -0.194,-0.447c0.006,-0.071 -0.012,-0.142 0.009,-0.2c-0.05,0.054 -0.213,0.318 -0.317,0.279c-0.068,-0.026 -0.116,-0.223 -0.098,-0.317c0.01,-0.058 0.04,-0.108 0.057,-0.157c0.069,-0.2 0.143,-0.373 0.293,-0.498c-0.014,-0.024 -0.026,-0.056 -0.056,-0.063c-0.004,0.147 -0.191,0.375 -0.285,0.452c-0.041,0.033 -0.089,0.085 -0.157,0.074c-0.039,-0.047 -0.073,-0.099 -0.079,-0.184c-0.001,0.001 -0.002,0.001 -0.003,0.001c-0.072,0.041 -0.116,-0.033 -0.148,-0.078c-0.089,-0.125 -0.162,-0.308 -0.161,-0.504c-0.002,0.001 -0.005,0.003 -0.006,0.004c-0.017,0.063 -0.073,0.093 -0.111,0.137c-0.102,0.117 -0.184,0.227 -0.35,0.287c-0.063,0.023 -0.237,0.062 -0.279,0.005c-0.049,-0.068 0.009,-0.25 0.031,-0.3c0.089,-0.212 0.343,-0.462 0.576,-0.539c0,-0.001 0,-0.002 -0.001,-0.003c-0.073,0.011 -0.138,0.04 -0.203,0.056c-0.146,0.037 -0.303,0.007 -0.409,-0.031c-0.046,-0.017 -0.103,-0.03 -0.128,-0.069c-0.029,-0.056 0.042,-0.114 0.071,-0.142c0.111,-0.102 0.243,-0.166 0.412,-0.221c0,-0.001 0,-0.002 0,-0.003c-0.152,-0.004 -0.28,-0.075 -0.375,-0.145c-0.025,-0.018 -0.096,-0.059 -0.068,-0.108c0.049,-0.089 0.259,-0.144 0.385,-0.171c0.047,-0.001 0.094,-0.003 0.141,-0.004c0.043,-0.005 0.087,-0.009 0.13,-0.014c0.111,0.019 0.221,0.037 0.331,0.056c0.016,-0.062 0.045,-0.118 0.077,-0.165c-0.273,0.015 -0.492,-0.004 -0.662,-0.104c-0.043,-0.025 -0.111,-0.051 -0.13,-0.101c-0.03,0.06 -0.035,0.125 -0.066,0.184c-0.07,0.135 -0.156,0.258 -0.27,0.355c-0.034,0.029 -0.114,0.127 -0.189,0.098c-0.094,-0.038 -0.128,-0.234 -0.159,-0.352c-0.051,-0.194 0.033,-0.419 0.089,-0.553c0.009,-0.035 0.017,-0.07 0.025,-0.105l0.002,-0.007c0.008,-0.034 0.016,-0.069 0.025,-0.104c0.022,-0.044 0.045,-0.088 0.068,-0.132c-0.176,0.123 -0.352,0.212 -0.589,0.284c-0.086,0.026 -0.301,0.023 -0.33,-0.029c-0.043,-0.081 0.048,-0.287 0.075,-0.339c0.104,-0.204 0.223,-0.272 0.402,-0.405c0.063,-0.05 0.126,-0.101 0.189,-0.151l0.112,-0.055c0,-0.001 0,-0.002 0,-0.003c-0.166,0.058 -0.606,0.034 -0.667,-0.084c-0.012,-0.022 -0.004,-0.051 0.007,-0.076c-0.138,-0.014 -0.273,-0.061 -0.43,-0.122c-0.1,-0.032 -0.199,-0.064 -0.298,-0.096c0.02,0.068 0.038,0.172 0.005,0.22c0.067,0.144 0.123,0.302 0.113,0.428c-0.006,0.084 0.034,0.205 -0.013,0.287c0.16,0.108 0.261,0.213 0.36,0.366c0.011,0.018 0.042,0.057 0.043,0.06c0.012,0.054 0.064,0.13 0.016,0.186c-0.057,0.066 -0.179,0.062 -0.272,0.083c-0.058,0.013 -0.12,0.018 -0.183,0.018l0,0c-0.28,0 -0.596,-0.112 -0.796,-0.217c-0.001,0 -0.003,0 -0.004,0l0,0c-0.01,0.085 0.031,0.1 0.034,0.164c0.034,0.014 0.076,0.018 0.122,0.018l0,0c0.058,0 0.123,-0.006 0.188,-0.006l0,0c0.052,0 0.105,0.004 0.154,0.02c0.09,0.022 0.18,0.043 0.269,0.065c0.111,0.052 0.222,0.104 0.332,0.155c0.109,0.051 0.21,0.076 0.304,0.133c0.16,0.097 0.273,0.264 0.352,0.427c0.014,0.031 0.069,0.116 0.041,0.17c-0.041,0.078 -0.179,0.102 -0.332,0.102l0,0c-0.164,0 -0.347,-0.028 -0.448,-0.049l0,0c0.043,0.029 0.086,0.058 0.129,0.087c0.206,0.201 0.467,0.356 0.602,0.612c0.027,0.051 0.034,0.105 0.054,0.162c0.033,0.094 0.058,0.201 0.029,0.325c-0.058,0.025 -0.121,0.035 -0.185,0.035l0,0c-0.302,0.001 -0.647,-0.24 -0.825,-0.379c0.066,0.072 0.133,0.149 0.16,0.189c0.07,0.103 0.123,0.211 0.161,0.346c0.012,0.043 0.033,0.121 0.002,0.163c-0.03,0.043 -0.128,0.033 -0.189,0.034c0.011,0.142 -0.001,0.288 -0.057,0.435c-0.038,0.101 -0.087,0.244 -0.179,0.274c-0.009,0.002 -0.018,0.003 -0.026,0.003l-0.001,0c-0.083,0 -0.151,-0.1 -0.187,-0.136c-0.167,-0.166 -0.293,-0.386 -0.34,-0.645c-0.003,-0.003 -0.007,-0.006 -0.01,-0.009l0,0c-0.161,0.134 -0.358,0.187 -0.605,0.187l-0.001,0c-0.105,0 -0.219,-0.01 -0.345,-0.026c0.042,0.056 0.043,0.13 0.078,0.193c0.002,0.003 0.009,0.004 0.019,0.004l0,0c0.059,0 0.223,-0.034 0.257,-0.027l0,0c0.058,-0.001 0.115,-0.001 0.172,-0.002c0.224,0.008 0.656,0.133 0.706,0.289c0.014,0.056 -0.061,0.092 -0.092,0.109c-0.121,0.069 -0.258,0.139 -0.432,0.139l0,0c-0.005,0 -0.01,0 -0.016,0l0,0c0.044,0.049 0.136,0.053 0.2,0.088c0.108,0.058 0.21,0.141 0.275,0.234c0.027,0.039 0.087,0.08 0.059,0.148c-0.031,0.047 -0.104,0.059 -0.161,0.073c-0.073,0.019 -0.156,0.029 -0.241,0.029l0,0c-0.161,0 -0.33,-0.035 -0.464,-0.11c-0.004,-0.001 -0.008,-0.001 -0.012,-0.002c0,0.002 0,0.003 0,0.004c0.061,0.025 0.11,0.071 0.158,0.106c0.219,0.159 0.36,0.317 0.464,0.563c0.041,0.097 0.08,0.291 -0.007,0.394c-0.027,0.003 -0.052,0.005 -0.077,0.005l0,0c-0.294,0 -0.451,-0.217 -0.579,-0.378c-0.051,-0.064 -0.139,-0.13 -0.155,-0.219l-0.008,-0.004c-0.008,0.24 -0.124,0.449 -0.234,0.579c-0.031,0.038 -0.073,0.098 -0.128,0.098l0,0c-0.016,0 -0.034,-0.006 -0.053,-0.019c-0.001,0 -0.001,0 -0.002,-0.001l0,0c-0.001,0 -0.001,0 -0.002,0c-0.012,0.099 -0.059,0.189 -0.129,0.214l0,0c-0.18,-0.027 -0.33,-0.319 -0.387,-0.459c-0.026,-0.063 -0.075,-0.113 -0.068,-0.204c-0.001,0 -0.002,0 -0.004,0l0,0c-0.034,0.013 -0.041,0.043 -0.067,0.065c0,0.002 0,0.003 0,0.004c0.091,0.088 0.223,0.284 0.256,0.412c0.013,0.06 0.026,0.12 0.04,0.18c0.022,0.063 0.05,0.131 0.06,0.203c0.019,0.132 -0.055,0.337 -0.14,0.366c-0.009,0.005 -0.018,0.008 -0.027,0.008l0,0c-0.037,0 -0.072,-0.039 -0.096,-0.059c-0.104,-0.088 -0.156,-0.183 -0.228,-0.295l0,0c0.012,0.076 -0.009,0.146 -0.009,0.23c-0.002,0.26 -0.072,0.437 -0.269,0.512l0,0c-0.153,-0.022 -0.282,-0.456 -0.24,-0.628l0,0c-0.022,0.027 -0.044,0.054 -0.065,0.082c-0.146,0.135 -0.258,0.262 -0.467,0.319c-0.036,0.01 -0.097,0.026 -0.154,0.026l0,0c-0.034,0 -0.067,-0.006 -0.092,-0.022c-0.076,-0.057 -0.009,-0.258 0.03,-0.332c0.101,-0.191 0.266,-0.323 0.44,-0.421c0.06,-0.028 0.12,-0.056 0.18,-0.084l0.003,-0.002c-0.111,0.018 -0.218,0.043 -0.333,0.043l0,0c-0.087,0 -0.179,-0.015 -0.278,-0.058c-0.059,-0.025 -0.113,-0.044 -0.141,-0.092c-0.006,-0.159 0.382,-0.318 0.526,-0.328c-0.065,-0.02 -0.13,-0.04 -0.196,-0.06c-0.109,-0.054 -0.166,-0.13 -0.248,-0.195c0.009,-0.084 0.138,-0.14 0.206,-0.146c-0.065,-0.476 0.193,-0.871 0.421,-1.134c0.032,-0.031 0.063,-0.062 0.094,-0.093l0.027,-0.026c0.03,-0.03 0.06,-0.059 0.09,-0.089l0.004,-0.003c-0.191,0.093 -0.342,0.226 -0.587,0.253l0,0c-0.04,-0.001 -0.081,-0.003 -0.121,-0.004l-0.008,0c-0.005,0 -0.01,0 -0.016,0l0,0c-0.095,0 -0.199,-0.031 -0.263,-0.075c-0.027,-0.195 0.228,-0.484 0.348,-0.557c0.075,-0.047 0.155,-0.087 0.218,-0.148l0,0c-0.044,0.012 -0.091,0.018 -0.138,0.018l0,0c-0.201,0 -0.419,-0.102 -0.519,-0.2c0.012,-0.132 0.12,-0.2 0.198,-0.264c0.2,-0.164 0.583,-0.312 0.938,-0.313l0.031,0.001l0.046,-0.056c0.001,0 0.002,0 0.003,0.001c-0.001,0.02 0.001,0.039 0.005,0.057c0,0 0,0.001 0.001,0.001c0.004,-0.01 0.008,-0.02 0.011,-0.027c0.013,-0.028 0.022,-0.074 0.052,-0.097c0.002,-0.014 0.004,-0.027 0.008,-0.041l0.041,-0.108c-0.079,0.018 -0.158,0.035 -0.237,0.052c-0.121,0.035 -0.245,0.068 -0.376,0.068l0,0c-0.092,0 -0.187,-0.016 -0.289,-0.059c-0.097,-0.04 -0.167,-0.057 -0.204,-0.143c0.028,-0.145 0.308,-0.377 0.436,-0.39c0.003,-0.003 0.006,-0.007 0.009,-0.01c-0.003,-0.002 -0.063,-0.213 -0.103,-0.326c-0.017,-0.047 -0.041,-0.081 -0.045,-0.142c-0.024,0.037 -0.018,0.086 -0.04,0.131c-0.056,0.093 -0.112,0.187 -0.168,0.28l-0.067,0.159c-0.109,0.166 -0.214,0.272 -0.372,0.371c-0.08,0.051 -0.175,0.113 -0.292,0.113l0,0c-0.015,0 -0.03,-0.001 -0.046,-0.004c-0.09,-0.102 -0.09,-0.257 -0.088,-0.417c0.01,-0.056 0.02,-0.112 0.03,-0.168c0.006,-0.116 0.071,-0.221 0.113,-0.306c0.036,-0.073 0.044,-0.15 0.081,-0.213c0.141,-0.236 0.354,-0.407 0.526,-0.601c-0.154,0.05 -0.282,0.172 -0.432,0.238c-0.087,0.038 -0.178,0.048 -0.28,0.048l0,0c-0.072,0 -0.149,-0.005 -0.234,-0.007c-0.075,-0.003 -0.146,-0.046 -0.201,-0.073c-0.031,-0.121 0.052,-0.231 0.102,-0.315c0.072,-0.121 0.175,-0.243 0.283,-0.32c0.087,-0.061 0.183,-0.105 0.261,-0.178l0.008,0.002l0,0c0,-0.002 0,-0.003 0,-0.004l0,0c-0.046,0.009 -0.098,0.013 -0.152,0.013l0,0c-0.094,0 -0.195,-0.013 -0.288,-0.038c-0.246,0.159 -0.583,0.445 -0.904,0.728c0.051,0.033 0.099,0.073 0.154,0.128c0.05,0.05 0.225,0.263 0.218,0.337c-0.004,0.043 0.043,0.086 0.017,0.127c-0.024,0.06 -0.093,0.062 -0.164,0.081c-0.201,0.054 -0.453,0.008 -0.623,-0.047l0.004,0.007c0.121,0.037 0.224,0.168 0.306,0.253c0.043,0.046 0.099,0.082 0.153,0.117c0.073,0.047 0.234,0.255 0.275,0.37c0.034,0.091 0.119,0.364 0.05,0.45c-0.039,0.055 -0.175,0.036 -0.245,0.023c-0.191,-0.036 -0.371,-0.112 -0.513,-0.213c0.049,0.121 -0.027,0.382 -0.084,0.48c-0.004,0.004 -0.008,0.008 -0.012,0.012l-0.003,0.004c-0.005,0.004 -0.009,0.008 -0.013,0.012c-0.006,0.019 0.008,0.131 0.005,0.16c0.068,-0.016 0.135,-0.05 0.207,-0.069c0.176,-0.049 0.569,-0.036 0.667,0.083c0.009,0.128 -0.059,0.215 -0.116,0.298c-0.069,0.101 -0.145,0.187 -0.242,0.262c-0.044,0.023 -0.087,0.047 -0.131,0.069c-0.019,0.014 -0.165,0.079 -0.183,0.072c-0.056,0.025 -0.11,0.06 -0.174,0.078c0,0.001 0.001,0.002 0.001,0.004c0.205,-0.031 0.436,-0.086 0.646,-0.06c0.052,-0.001 0.103,-0.001 0.155,-0.002c0.076,0.011 0.141,0.037 0.206,0.055c0.081,0.023 0.196,0.024 0.273,0.065c0.06,0.032 0.129,0.073 0.189,0.102c0.109,0.053 0.26,0.161 0.306,0.269c0.045,0.107 -0.199,0.217 -0.273,0.247c-0.269,0.114 -0.46,0.076 -0.744,0.026c-0.161,-0.028 -0.281,-0.028 -0.411,-0.084c0.001,0.002 0.002,0.005 0.003,0.007c0.067,0.03 0.084,0.109 0.127,0.161c0.032,0.038 0.076,0.071 0.107,0.109c0.08,0.095 0.252,0.472 0.222,0.655c0.134,0.006 0.374,0.218 0.446,0.311c0.03,0.04 0.112,0.121 0.072,0.187c-0.04,0.066 -0.148,0.096 -0.227,0.127c-0.123,0.047 -0.265,0.07 -0.411,0.075c0,0.006 0,0.012 0,0.018c0.075,-0.002 0.15,0.002 0.22,0.015c0.12,0.03 0.239,0.06 0.359,0.09c0.053,0.007 0.106,0.014 0.159,0.021c0.092,0.027 0.174,0.068 0.248,0.112c0.034,0.019 0.068,0.038 0.102,0.057c0.054,0.049 0.282,0.255 0.261,0.357c-0.011,0.058 -0.081,0.081 -0.132,0.106c-0.16,0.076 -0.398,0.121 -0.615,0.097l0,0.004c0.164,0.031 0.284,0.137 0.411,0.211c0.071,0.041 0.144,0.064 0.206,0.111c0.007,0.005 0.052,0.029 0.054,0.023c0.154,0.173 0.345,0.317 0.348,0.629c-0.023,0.015 -0.045,0.031 -0.067,0.046c-0.194,0.072 -0.519,0.002 -0.669,-0.047c-0.059,-0.031 -0.119,-0.062 -0.179,-0.092c-0.059,-0.026 -0.113,-0.038 -0.164,-0.068l0.092,0.134c0.015,0.023 0.015,0.062 0.024,0.084c0.038,0.087 0.065,0.146 0.102,0.237c0.015,0.04 0.041,0.074 0.061,0.105c0.069,0.108 0.109,0.42 0.071,0.545c-0.034,0.109 -0.027,0.263 -0.122,0.311c-0.092,0.032 -0.17,-0.048 -0.221,-0.08c-0.193,-0.121 -0.321,-0.298 -0.419,-0.487c-0.015,-0.03 -0.038,-0.049 -0.044,-0.083c-0.104,0.12 -0.231,0.224 -0.405,0.28c-0.127,0.041 -0.358,0.014 -0.469,0.067c0.048,0.019 0.095,0.122 0.11,0.175c0.124,-0.036 0.241,-0.079 0.362,-0.11c0.062,-0.017 0.099,-0.006 0.164,-0.009c0.242,-0.013 0.532,0.001 0.628,0.151c-0.008,0.126 -0.268,0.258 -0.381,0.306c-0.009,0.002 -0.018,0.004 -0.026,0.007l-0.052,0.014c-0.008,0.002 -0.017,0.005 -0.026,0.007c0.036,-0.002 0.059,0.014 0.087,0.022c0.044,0.006 0.088,0.013 0.132,0.019c0.112,0.031 0.216,0.083 0.297,0.155c0.039,0.035 0.108,0.068 0.096,0.146c-0.069,0.108 -0.373,0.214 -0.551,0.196l-0.291,-0.04c0,0.001 0,0.002 0,0.003c0.121,0.014 0.412,0.178 0.499,0.247c0.049,0.039 0.08,0.1 0.125,0.144c0.048,0.046 0.114,0.108 0.131,0.174c-0.003,0.006 0.102,0.23 0.058,0.305c-0.043,0.076 -0.242,0.051 -0.329,0.034c-0.181,-0.036 -0.268,-0.139 -0.387,-0.239c-0.045,-0.038 -0.099,-0.066 -0.143,-0.105c-0.018,-0.025 -0.036,-0.05 -0.053,-0.076c0.008,0.045 0,0.091 -0.003,0.135c0.003,0.024 0.007,0.048 0.01,0.072c-0.012,-0.003 0.001,0.065 -0.008,0.092c-0.037,0.104 -0.059,0.203 -0.11,0.298c-0.031,0.059 -0.075,0.149 -0.161,0.11c0.004,0.035 -0.006,0.079 -0.014,0.109c-0.013,0.043 -0.016,0.084 -0.044,0.107c-0.064,0.053 -0.256,-0.091 -0.295,-0.119c-0.029,-0.02 -0.049,-0.063 -0.083,-0.078c0.086,0.171 0.303,0.417 0.232,0.671c-0.014,0.051 -0.02,0.101 -0.052,0.134c-0.041,0.043 -0.114,-0.006 -0.142,-0.022c-0.116,-0.065 -0.189,-0.141 -0.272,-0.239c0.025,0.066 0.037,0.154 0.037,0.212c0.01,0.047 0.02,0.095 0.03,0.143c0.023,0.117 -0.039,0.242 -0.095,0.316c-0.024,0.033 -0.053,0.089 -0.113,0.098c-0.009,-0.011 -0.025,-0.012 -0.046,-0.01c0.002,-0.029 -0.098,-0.094 -0.122,-0.126c-0.047,-0.063 -0.085,-0.136 -0.116,-0.217c-0.004,-0.018 -0.007,-0.037 -0.011,-0.056l-0.001,-0.008c-0.004,-0.018 -0.007,-0.037 -0.011,-0.056c-0.009,-0.029 -0.024,-0.052 -0.024,-0.087c-0.012,0.026 -0.024,0.053 -0.035,0.08c-0.026,0.039 -0.063,0.077 -0.093,0.113c-0.025,0.031 -0.036,0.068 -0.057,0.102c-0.052,0.084 -0.141,0.145 -0.236,0.189c-0.072,0.034 -0.196,0.082 -0.271,0.031c-0.089,-0.338 0.133,-0.596 0.324,-0.779c0.056,-0.041 0.112,-0.082 0.167,-0.123c-0.237,0.106 -0.491,0.178 -0.739,0.045c0.003,-0.187 0.211,-0.304 0.374,-0.381c0.024,-0.011 0.039,-0.031 0.07,-0.036c-0.001,-0.002 -0.002,-0.004 -0.003,-0.007c-0.126,0.044 -0.436,-0.088 -0.471,-0.156c-0.019,-0.066 0.12,-0.15 0.168,-0.176c-0.067,-0.112 -0.053,-0.25 -0.06,-0.394c-0.003,-0.076 0.026,-0.165 0.043,-0.245c0.007,-0.047 0.013,-0.095 0.019,-0.142c0.076,-0.236 0.226,-0.438 0.355,-0.629c-0.075,0.057 -0.137,0.131 -0.207,0.191c-0.182,0.155 -0.428,0.233 -0.716,0.182c-0.054,-0.204 0.099,-0.457 0.209,-0.589c0.06,-0.072 0.143,-0.124 0.2,-0.2c-0.147,0.082 -0.396,0.06 -0.544,0.018c-0.045,-0.013 -0.13,-0.032 -0.13,-0.092c0.001,-0.121 0.122,-0.232 0.191,-0.308c0.128,-0.144 0.315,-0.231 0.485,-0.338c0.04,-0.025 0.149,-0.035 0.207,-0.053c0.071,-0.022 0.134,-0.047 0.224,-0.054c-0.007,-0.111 -0.012,-0.183 0.008,-0.28c-0.066,0.03 -0.132,0.06 -0.199,0.089c-0.067,0.036 -0.134,0.071 -0.201,0.106c-0.092,0.034 -0.203,0.052 -0.311,0.053c-0.034,0.024 -0.075,0.046 -0.11,0.039c-0.024,-0.005 -0.043,-0.027 -0.059,-0.054c-0.069,-0.014 -0.132,-0.037 -0.181,-0.069c-0.015,-0.079 0.022,-0.163 0.074,-0.238c-0.01,-0.07 -0.012,-0.142 -0.007,-0.202c-0.031,0.023 -0.064,0.044 -0.098,0.063c-0.002,0.014 -0.004,0.028 -0.006,0.041c-0.04,0.175 -0.161,0.336 -0.283,0.441c-0.05,0.043 -0.222,0.2 -0.313,0.17c-0.126,-0.058 -0.19,-0.441 -0.164,-0.628c0.047,-0.328 0.124,-0.558 0.27,-0.815c0.05,-0.087 0.11,-0.165 0.161,-0.254c0.007,-0.013 0.039,-0.035 0.049,-0.059c-0.179,0.144 -0.29,0.285 -0.522,0.382c-0.051,0.022 -0.136,0.063 -0.203,0.06c-0.097,-0.005 -0.274,0.048 -0.333,-0.016c-0.06,-0.066 -0.003,-0.197 0.019,-0.273c0.043,-0.148 0.134,-0.309 0.225,-0.406c0.06,-0.063 0.147,-0.111 0.187,-0.19c-0.003,0.003 -0.006,0.007 -0.009,0.01c-0.002,-0.001 -0.005,-0.002 -0.007,-0.003c-0.002,-0.002 -0.004,-0.004 -0.007,-0.006c0.001,-0.001 0.001,-0.002 0.002,-0.003l0.003,-0.005c0,0 0.001,-0.001 0.001,-0.002c0.033,0 0.042,-0.008 0.058,-0.029c-0.116,0.061 -0.323,0.071 -0.479,0.064c-0.06,-0.003 -0.128,0.01 -0.165,-0.018c-0.005,-0.011 -0.01,-0.021 -0.015,-0.032c-0.039,-0.033 -0.134,-0.025 -0.114,-0.112c-0.014,-0.063 0.063,-0.148 0.091,-0.192c0.088,-0.134 0.204,-0.228 0.325,-0.332c0.054,-0.046 0.149,-0.049 0.201,-0.109c-0.154,0.01 -0.267,-0.003 -0.373,-0.043c-0.036,-0.013 -0.123,-0.075 -0.148,-0.064c-0.003,-0.024 -0.044,-0.04 -0.034,-0.081c0.013,-0.048 0.075,-0.074 0.099,-0.113c-0.125,-0.024 -0.127,-0.11 -0.091,-0.197c-0.1,-0.02 -0.187,-0.048 -0.264,-0.102c-0.134,-0.095 -0.236,-0.24 -0.377,-0.319l0,0c0.131,0.224 0.306,0.434 0.396,0.693c0.024,0.069 0.017,0.145 0.038,0.225c0.024,0.091 0.066,0.207 0.05,0.322c-0.002,0.057 -0.003,0.114 -0.005,0.17c-0.029,0.158 -0.06,0.31 -0.169,0.392l0,0c-0.139,-0.009 -0.232,-0.1 -0.309,-0.174c-0.135,-0.129 -0.217,-0.254 -0.291,-0.437c-0.011,-0.057 -0.022,-0.114 -0.034,-0.17c-0.036,-0.103 -0.073,-0.205 -0.109,-0.307c-0.012,-0.049 0.003,-0.096 -0.013,-0.137l0,0c-0.016,0.059 -0.046,0.088 -0.072,0.13c-0.062,0.103 -0.163,0.298 -0.166,0.299c0.002,0.004 0.005,0.008 0.007,0.012c0.123,0.038 0.351,0.321 0.35,0.469c-0.054,0.076 -0.126,0.079 -0.229,0.1c-0.052,0.01 -0.101,0.015 -0.149,0.015l0,0c-0.191,0 -0.348,-0.076 -0.501,-0.156l-0.222,-0.098c0.006,0.038 0.012,0.076 0.019,0.114c0.005,0.06 -0.02,0.115 -0.009,0.17c0.388,0.033 0.804,0.286 0.988,0.512c0.064,0.078 0.156,0.166 0.141,0.298c-0.091,0.059 -0.25,0.106 -0.409,0.106l0,0c-0.096,0 -0.191,-0.017 -0.27,-0.059l0,0c0.049,0.073 0.12,0.128 0.184,0.189c0.102,0.096 0.296,0.429 0.23,0.615c-0.046,0.02 -0.109,0.031 -0.172,0.031l0,0c-0.04,0 -0.08,-0.005 -0.116,-0.014c-0.021,-0.003 -0.041,-0.006 -0.062,-0.01l-0.004,0c-0.02,-0.004 -0.041,-0.007 -0.061,-0.01c-0.235,-0.076 -0.357,-0.236 -0.525,-0.366c0.056,0.084 0.112,0.167 0.168,0.25c0.172,0.303 0.346,0.742 0.188,1.195c0.066,0.019 0.18,0.101 0.173,0.184c-0.094,0.048 -0.165,0.111 -0.283,0.142c-0.068,0.007 -0.135,0.013 -0.203,0.02c0.139,0.039 0.487,0.271 0.45,0.426c-0.037,0.042 -0.094,0.049 -0.156,0.062c-0.051,0.011 -0.1,0.016 -0.145,0.016l0,0c-0.173,0 -0.311,-0.068 -0.457,-0.123l0,0c0.054,0.041 0.108,0.081 0.162,0.121c0.151,0.13 0.287,0.293 0.348,0.5c0.023,0.081 0.049,0.291 -0.037,0.332c-0.015,0.005 -0.031,0.008 -0.048,0.008l0,0c-0.069,0 -0.15,-0.039 -0.192,-0.061c-0.194,-0.098 -0.279,-0.245 -0.394,-0.406c-0.008,-0.015 -0.015,-0.03 -0.023,-0.045l-0.002,-0.003c-0.007,-0.015 -0.015,-0.03 -0.023,-0.045c0.007,0.175 -0.201,0.568 -0.355,0.568l0,0c-0.002,0 -0.003,0 -0.005,0c-0.178,-0.113 -0.211,-0.301 -0.161,-0.556c0.016,-0.082 0.009,-0.155 0.036,-0.227c-0.093,0.095 -0.162,0.178 -0.282,0.244c-0.025,0.013 -0.061,0.04 -0.094,0.04l0,0c-0.013,0 -0.025,-0.004 -0.036,-0.015c-0.079,-0.044 -0.11,-0.261 -0.065,-0.386c0.024,-0.068 0.065,-0.129 0.099,-0.187c0.025,-0.056 0.05,-0.112 0.075,-0.169c0.058,-0.118 0.226,-0.284 0.333,-0.352c0,-0.001 0,-0.003 0,-0.004c-0.021,-0.027 -0.022,-0.058 -0.053,-0.078l-0.003,0c-0.012,0.091 -0.069,0.13 -0.107,0.186c-0.083,0.124 -0.282,0.374 -0.462,0.374l0,0c-0.003,0 -0.006,0 -0.009,0c-0.063,-0.039 -0.092,-0.137 -0.084,-0.236l-0.003,0c-0.016,0.007 -0.029,0.01 -0.042,0.01l0,0c-0.063,0 -0.095,-0.076 -0.121,-0.123c-0.081,-0.149 -0.153,-0.377 -0.114,-0.615c-0.003,0.001 -0.005,0.002 -0.008,0.003c-0.033,0.085 -0.133,0.131 -0.196,0.184c-0.137,0.115 -0.303,0.266 -0.532,0.266l0,0c-0.058,0 -0.119,-0.009 -0.185,-0.031c-0.065,-0.118 0.012,-0.301 0.071,-0.387c0.152,-0.221 0.321,-0.348 0.567,-0.46c0.054,-0.025 0.111,-0.06 0.176,-0.072c0,-0.002 0,-0.003 0,-0.004c-0.004,0 -0.008,-0.001 -0.012,-0.001l0,0c-0.08,0.026 -0.169,0.038 -0.259,0.038l0,0c-0.16,0 -0.322,-0.037 -0.447,-0.098c-0.054,-0.026 -0.123,-0.051 -0.144,-0.104c-0.013,-0.073 0.053,-0.101 0.088,-0.133c0.082,-0.079 0.198,-0.14 0.316,-0.175c0.069,-0.021 0.16,-0.007 0.213,-0.047c-0.179,-0.031 -0.303,-0.13 -0.411,-0.224c-0.027,-0.024 -0.094,-0.073 -0.069,-0.126c0.081,-0.143 0.528,-0.179 0.749,-0.143c0.056,0.012 0.113,0.024 0.169,0.036c0.037,0.001 0.219,0.079 0.26,0.079l0,0c0.003,0 0.005,0 0.006,-0.001c0.046,-0.055 0.062,-0.127 0.114,-0.174c-0.422,-0.029 -0.713,-0.113 -0.899,-0.347l0,0c-0.004,0.003 -0.009,0.005 -0.013,0.008c-0.097,0.244 -0.263,0.434 -0.461,0.564c-0.039,0.025 -0.114,0.098 -0.189,0.098l0,0c-0.016,0 -0.031,-0.003 -0.047,-0.011c-0.084,-0.047 -0.104,-0.197 -0.121,-0.304c-0.047,-0.289 0.051,-0.547 0.173,-0.768c0.018,-0.046 0.036,-0.092 0.054,-0.138l0.003,-0.008c0.018,-0.046 0.036,-0.092 0.053,-0.138c0.019,-0.032 0.056,-0.062 0.074,-0.099c-0.001,0 -0.003,0 -0.004,0c-0.107,0.055 -0.294,0.145 -0.494,0.199c0.004,0.013 0.008,0.027 0.014,0.04c0.03,0.074 0.077,0.168 0.076,0.265c0.004,0.048 0.009,0.096 0.014,0.144c-0.008,0.135 -0.018,0.266 -0.1,0.347c-0.118,0.007 -0.206,-0.06 -0.279,-0.114c-0.126,-0.094 -0.209,-0.19 -0.29,-0.336c-0.007,-0.022 -0.015,-0.045 -0.022,-0.067l-0.002,-0.005c-0.007,-0.022 -0.015,-0.045 -0.022,-0.067l-0.125,-0.246c-0.015,-0.039 -0.007,-0.081 -0.025,-0.114c-0.007,0.052 -0.029,0.079 -0.047,0.118c-0.041,0.092 -0.105,0.267 -0.107,0.268c0.002,0.003 0.005,0.006 0.007,0.009c0.107,0.019 0.329,0.232 0.343,0.357c-0.037,0.069 -0.097,0.079 -0.181,0.108c-0.215,0.071 -0.39,0.013 -0.561,-0.05c-0.065,-0.02 -0.131,-0.039 -0.197,-0.059c0.01,0.032 0.019,0.063 0.028,0.094c0.012,0.05 -0.004,0.099 0.011,0.144c0.329,-0.013 0.705,0.155 0.883,0.325c0.062,0.059 0.149,0.123 0.151,0.235c-0.112,0.094 -0.376,0.182 -0.566,0.111c0.049,0.056 0.115,0.095 0.175,0.139c0.096,0.07 0.294,0.329 0.258,0.492c-0.06,0.035 -0.157,0.055 -0.24,0.046c-0.036,-0.002 -0.073,-0.003 -0.109,-0.005c-0.205,-0.038 -0.324,-0.159 -0.479,-0.251c0.056,0.064 0.112,0.128 0.168,0.192c0.176,0.236 0.368,0.586 0.284,0.983c0.057,0.009 0.162,0.065 0.164,0.136c-0.073,0.05 -0.126,0.11 -0.222,0.149c-0.056,0.013 -0.112,0.026 -0.168,0.039c0.12,0.017 0.438,0.175 0.423,0.309c-0.027,0.039 -0.074,0.051 -0.125,0.069c-0.2,0.07 -0.354,0.013 -0.516,-0.026c0.049,0.028 0.099,0.056 0.148,0.085c0.141,0.093 0.272,0.215 0.345,0.382c0.029,0.065 0.073,0.239 0.005,0.282c-0.06,0.032 -0.16,-0.001 -0.208,-0.019c-0.172,-0.062 -0.259,-0.176 -0.373,-0.299c-0.017,-0.024 -0.033,-0.048 -0.05,-0.072c0.025,0.148 -0.111,0.505 -0.242,0.514c-0.161,-0.075 -0.209,-0.23 -0.194,-0.449c0.005,-0.071 -0.009,-0.131 0.006,-0.194c-0.068,0.089 -0.117,0.167 -0.211,0.234c-0.026,0.019 -0.07,0.062 -0.106,0.035c-0.071,-0.029 -0.12,-0.207 -0.096,-0.317c0.014,-0.06 0.041,-0.115 0.064,-0.167c0.015,-0.05 0.03,-0.1 0.044,-0.15c0.037,-0.106 0.16,-0.263 0.243,-0.331c0,-0.001 -0.001,-0.002 -0.001,-0.003c-0.02,-0.021 -0.024,-0.046 -0.052,-0.06c-0.001,0 -0.002,0 -0.003,0c0,0.078 -0.044,0.116 -0.07,0.168c-0.057,0.114 -0.201,0.351 -0.356,0.363c-0.057,-0.026 -0.091,-0.105 -0.095,-0.189c-0.001,0 -0.002,0 -0.003,0c-0.072,0.044 -0.117,-0.033 -0.149,-0.077c-0.083,-0.117 -0.168,-0.3 -0.16,-0.504c-0.002,0.001 -0.004,0.002 -0.007,0.003c-0.019,0.075 -0.097,0.124 -0.145,0.176c-0.128,0.138 -0.289,0.33 -0.576,0.272c-0.067,-0.092 -0.022,-0.253 0.018,-0.332c0.104,-0.202 0.233,-0.326 0.427,-0.446c0.043,-0.026 0.087,-0.062 0.14,-0.079c0,-0.001 0,-0.003 0,-0.003c-0.003,0 -0.006,0 -0.01,0c-0.18,0.085 -0.425,0.084 -0.599,0.024c-0.048,-0.016 -0.108,-0.03 -0.132,-0.071c-0.019,-0.06 0.034,-0.091 0.06,-0.122c0.06,-0.074 0.151,-0.138 0.246,-0.18c0.056,-0.025 0.134,-0.022 0.174,-0.061c-0.153,-0.008 -0.268,-0.078 -0.368,-0.146c-0.025,-0.016 -0.087,-0.051 -0.071,-0.098c0.052,-0.128 0.424,-0.206 0.613,-0.199l0.145,0.012c0.034,-0.003 0.218,0.051 0.232,0.038c0.033,-0.052 0.039,-0.114 0.077,-0.159c-0.357,0.021 -0.61,-0.019 -0.791,-0.195c-0.002,0.001 -0.003,0.002 -0.005,0.004l0,0c-0.002,0.001 -0.003,0.002 -0.005,0.003c-0.055,0.216 -0.175,0.393 -0.327,0.523c-0.036,0.03 -0.11,0.125 -0.189,0.098c-0.076,-0.031 -0.108,-0.155 -0.134,-0.243c-0.07,-0.237 -0.014,-0.464 0.064,-0.663c0.021,-0.083 0.042,-0.166 0.063,-0.249c0.012,-0.029 0.04,-0.058 0.051,-0.091c-0.001,0 -0.002,0 -0.003,0c-0.174,0.12 -0.62,0.401 -0.91,0.251c-0.016,-0.106 0.012,-0.195 0.045,-0.272c0.021,-0.047 0.03,-0.093 0.056,-0.134c0.102,-0.163 0.267,-0.269 0.423,-0.383c-0.05,-0.033 -0.132,-0.09 -0.213,-0.154c-0.099,-0.015 -0.18,-0.044 -0.204,-0.1c-0.01,-0.024 -0.003,-0.052 0.009,-0.078c-0.009,-0.01 -0.017,-0.02 -0.024,-0.029c-0.034,-0.043 -0.068,-0.085 -0.102,-0.127c-0.058,-0.064 -0.114,-0.138 -0.158,-0.214c-0.022,-0.039 -0.151,-0.296 -0.183,-0.398c-0.01,-0.033 -0.038,-0.077 -0.023,-0.118c0.003,-0.001 0.006,-0.002 0.008,-0.003c0.051,0.003 0.096,0.018 0.138,0.031c0.124,0.036 0.231,0.073 0.338,0.122c0.187,0.084 0.366,0.166 0.523,0.277c0.034,-0.01 0.07,-0.021 0.107,-0.034c0.097,-0.037 0.194,-0.074 0.29,-0.111c0.038,-0.006 0.075,-0.012 0.112,-0.018l0.007,-0.001c0.038,-0.007 0.075,-0.013 0.112,-0.019c0.136,-0.032 0.295,0.035 0.394,0.003c0.007,-0.054 0.042,-0.064 0.039,-0.137c-0.001,0 -0.002,0 -0.003,0c-0.215,0.093 -0.579,0.185 -0.838,0.106c-0.078,-0.024 -0.181,-0.028 -0.225,-0.087c-0.037,-0.05 0.012,-0.111 0.025,-0.155c0.001,-0.003 0.03,-0.034 0.04,-0.048c0.093,-0.123 0.185,-0.205 0.327,-0.287c-0.034,-0.071 0.007,-0.171 0.007,-0.243c0,-0.197 0.194,-0.474 0.284,-0.605c-0.042,0.02 -0.084,0.041 -0.125,0.062c-0.092,0.022 -0.184,0.044 -0.276,0.067c-0.251,0.075 -0.437,0.12 -0.679,0.009c-0.076,-0.035 -0.124,-0.052 -0.173,-0.116c0.009,-0.101 0.094,-0.178 0.161,-0.238c0.169,-0.151 0.342,-0.22 0.581,-0.316c0.044,-0.009 0.087,-0.018 0.13,-0.026c0.04,-0.004 0.079,-0.007 0.118,-0.01c0.093,-0.02 0.227,-0.033 0.321,-0.02c0.029,0.004 0.121,0.019 0.157,0.002c-0.042,-0.013 -0.084,-0.026 -0.126,-0.039c-0.045,-0.009 -0.089,-0.018 -0.133,-0.026c-0.185,-0.059 -0.303,-0.159 -0.422,-0.29c-0.027,-0.03 -0.142,-0.174 -0.107,-0.228c0.022,-0.056 0.108,-0.079 0.162,-0.09c0.129,-0.028 0.289,-0.069 0.451,-0.043c0.09,0.014 0.175,0.044 0.276,0.054c-0.001,-0.001 -0.001,-0.002 -0.001,-0.003c-0.141,-0.067 -0.338,-0.392 -0.303,-0.592c0.075,-0.032 0.181,-0.055 0.277,-0.04c-0.06,-0.186 -0.089,-0.42 -0.011,-0.594c0.043,-0.096 0.123,-0.198 0.142,-0.309c-0.018,-0.02 -0.037,-0.047 -0.044,-0.076c-0.069,0.02 -0.137,-0.013 -0.206,0.01c0.003,0.081 -0.025,0.141 -0.042,0.209c-0.076,0.308 -0.204,0.581 -0.416,0.763c-0.057,0.049 -0.221,0.206 -0.318,0.148c-0.111,-0.212 -0.128,-0.407 -0.063,-0.65c-0.071,0.06 -0.122,0.144 -0.193,0.201c-0.097,0.078 -0.195,0.144 -0.321,0.197c-0.082,0.034 -0.188,0.075 -0.277,0.041c-0.107,-0.257 0.029,-0.562 0.153,-0.721c0.058,-0.075 0.134,-0.137 0.189,-0.216c-0.193,0.119 -0.372,0.273 -0.598,0.366c-0.059,0.024 -0.131,0.021 -0.198,0.043c-0.138,0.044 -0.309,0.065 -0.434,0.049c-0.132,-0.018 -0.27,-0.03 -0.335,-0.121c-0.006,-0.11 0.07,-0.183 0.122,-0.249c0.092,-0.118 0.208,-0.208 0.36,-0.272c0.05,-0.012 0.099,-0.025 0.149,-0.037c0.082,-0.027 0.177,-0.065 0.254,-0.099c0.05,-0.021 0.114,-0.002 0.166,-0.028l-0.007,0c-0.052,-0.025 -0.185,-0.098 -0.234,-0.089c0.004,-0.01 0.005,-0.002 0.003,-0.013c-0.137,-0.021 -0.333,-0.213 -0.414,-0.317c-0.04,-0.051 -0.09,-0.101 -0.082,-0.186c0.071,-0.04 0.14,-0.101 0.237,-0.124c0.25,-0.06 0.438,0.006 0.621,0.076c0.086,0.033 0.177,0.043 0.26,0.075c0.036,0.021 0.072,0.042 0.108,0.064c-0.002,-0.004 -0.005,-0.007 -0.007,-0.01c-0.082,-0.032 -0.244,-0.296 -0.28,-0.396c-0.018,-0.049 -0.054,-0.136 -0.026,-0.189c0.035,-0.066 0.259,-0.063 0.329,-0.053c-0.052,-0.103 -0.051,-0.263 -0.059,-0.364c-0.091,0.048 -0.17,0.083 -0.3,0.091c-0.068,0.158 -0.213,0.272 -0.349,0.372c-0.029,0.022 -0.131,0.095 -0.177,0.055c-0.134,-0.075 0.084,-0.524 0.15,-0.656c-0.071,0.05 -0.347,0.124 -0.404,0.187c-0.086,0.094 -0.096,-0.603 -0.043,-0.691Zm21.418,46.448l9.451,-2.415l8.489,-5.063l4.645,-8.397c0,0 -11.074,-0.545 -14.02,-0.969c-1.312,-0.188 -2.339,-1.404 -3.654,-1.571c-2.993,-0.38 -12.265,0.688 -14.301,-0.709c-0.359,-0.246 0,-1.305 0,-1.305l-16,0c0,0 3.809,2.717 5.958,3.585c3.631,1.469 13,3.82 15.83,5.224c1.015,0.503 1.51,2.126 1.148,3.2c-0.418,1.238 -2.934,2.824 -3.656,4.228c-0.649,1.259 -0.68,4.192 -0.68,4.192l6.79,0Zm-21.418,-46.448c0,0 0,0 0.001,-0.001l-0.001,0.001Z" style="fill:#1b1b1a;fill-rule:nonzero;"/><path id="Inner-Outline" serif:id="Inner Outline" d="M59,32c0,-14.902 -12.098,-27 -27,-27c-14.902,0 -27,12.098 -27,27c0,14.902 12.098,27 27,27c14.902,0 27,-12.098 27,-27Z" style="fill:none;stroke:#fff;stroke-width:3px;"/><path id="Outline" d="M61.409,31.99c0,-16.178 -13.135,-29.313 -29.313,-29.313c-16.179,0 -29.314,13.135 -29.314,29.313c0,16.179 13.135,29.313 29.314,29.313c16.178,0 29.313,-13.134 29.313,-29.313Z" style="fill:none;stroke:#000;stroke-width:3px;"/></g></g></g></svg>