<?xml version="1.0" encoding="UTF-8" standalone="no"?><!DOCTYPE svg PUBLIC "-//W3C//DTD SVG 1.1//EN" "http://www.w3.org/Graphics/SVG/1.1/DTD/svg11.dtd"><svg width="100%" height="100%" viewBox="0 0 64 64" version="1.1" xmlns="http://www.w3.org/2000/svg" xmlns:xlink="http://www.w3.org/1999/xlink" xml:space="preserve" xmlns:serif="http://www.serif.com/" style="fill-rule:evenodd;clip-rule:evenodd;stroke-miterlimit:10;"><g id="Species"><g id="Mammals"><g id="small-mammal-raccoon" serif:id="small mammal raccoon"><path id="Outline" d="M138.626,31.687c0,-16.179 -13.135,-29.313 -29.313,-29.313c-16.178,0 -29.313,13.134 -29.313,29.313c0,16.178 13.135,29.313 29.313,29.313c16.178,0 29.313,-13.135 29.313,-29.313Z" style="fill:none;stroke:#000;stroke-width:3px;"/></g><g id="mouse"><path id="Outline1" serif:id="Outline" d="M58.626,31.687c0,-16.179 -13.135,-29.313 -29.313,-29.313c-16.178,0 -29.313,13.134 -29.313,29.313c0,16.178 13.135,29.313 29.313,29.313c16.178,0 29.313,-13.135 29.313,-29.313Z" style="fill:none;stroke:#000;stroke-width:3px;"/><path d="M9.363,47.56c1.881,0.216 4.757,-0.188 3.998,-0.4c0,0 -2.725,-0.088 -4.32,-0.532c-2.155,-0.601 -4.795,-1.527 -5.9,-2.165c0.145,0.308 0.284,0.594 0.417,0.857c1.906,1.08 4.46,2.085 5.805,2.24Zm42.506,-24.861c-1.67,-1.596 -6.243,-2.973 -7.113,-3.338c-1.488,-0.624 -1.666,-0.956 -1.68,-1.903c-0.007,-0.514 -0.639,-1.119 -1.603,-0.999c-1.064,0.133 -1.673,0.931 -1.58,1.417c0.109,0.566 0.715,0.882 0.366,1.089c-0.163,0.097 -0.682,0.516 -1.08,-0.756c-0.159,-0.506 -1.131,-0.923 -2.145,-0.457c-0.66,0.303 -0.971,1.285 -0.836,1.578c0.5,1.096 0.712,1.032 0.432,1.179c-2.516,-0.595 -4.861,-0.762 -7.926,-0.683c-3.382,0.088 -7.618,2.953 -9.131,5.908c-1.686,3.291 -0.635,7.64 -2.948,10.632c-0.595,0.77 -1.35,1.379 -2.203,1.863c-2.301,1.307 -4.395,1.985 -6.77,2.584c-2.461,0.62 -3.656,1.194 -5.375,1.649c0.147,0.376 0.314,0.779 0.501,1.204c0.655,-0.62 3.136,-1.04 4.963,-1.317c2.303,-0.349 3.124,-0.261 5.032,-0.391c4.519,-0.31 7.098,-1.873 11.374,0.408c1.089,0.581 0.508,0.726 2.177,0.653c1.67,-0.072 5.443,-0.29 6.096,0.073c0.653,0.362 1.451,0.145 2.685,-0.073c1.234,-0.217 2.54,0.073 3.193,0.145c0.654,0.073 0.436,-0.145 -0.145,-1.088c-0.581,-0.944 -2.032,-1.016 -3.548,-0.798c-1.516,0.217 -2.983,-0.581 -3.347,-1.089c-0.363,-0.508 1.089,0 1.96,-0.726c0.871,-0.726 3.121,-1.451 3.992,-0.58c0.871,0.871 2.612,4.063 2.612,4.426c0,0.363 0.798,0.581 0.798,0.581l1.524,0.78c0,0 0.508,-0.562 0.944,-0.344c0.435,0.217 0.798,0.653 1.016,0c0.217,-0.654 -0.581,-1.524 -1.161,-1.524c-0.581,0 -0.799,-0.073 -1.234,-0.581c-0.436,-0.508 -0.944,-3.411 -1.089,-4.499c-0.146,-1.089 0.073,-2.323 0.653,-3.048c0.581,-0.726 2.25,-0.508 2.613,-0.146c0.362,0.364 0.944,0.581 1.088,0.291c0.145,-0.291 1.162,0.725 1.598,1.306c0.435,0.58 0.361,0.145 0.579,-0.581c0.218,-0.725 -0.362,-1.596 -1.088,-2.104c-0.727,-0.508 -1.887,-1.452 -1.814,-2.032c0.072,-0.58 2.395,-2.758 3.555,-2.83c1.161,-0.073 2.105,-0.145 2.686,-0.508c0.581,-0.364 0.362,-0.145 1.016,-0.218c0.653,-0.073 1.886,-0.581 2.975,-1.596c1.089,-1.016 -0.943,-1.96 -2.612,-3.557Z" style="fill-rule:nonzero;"/></g></g></g></svg>