<?xml version="1.0" encoding="UTF-8" standalone="no"?><!DOCTYPE svg PUBLIC "-//W3C//DTD SVG 1.1//EN" "http://www.w3.org/Graphics/SVG/1.1/DTD/svg11.dtd"><svg width="100%" height="100%" viewBox="0 0 64 64" version="1.1" xmlns="http://www.w3.org/2000/svg" xmlns:xlink="http://www.w3.org/1999/xlink" xml:space="preserve" xmlns:serif="http://www.serif.com/" style="fill-rule:evenodd;clip-rule:evenodd;stroke-miterlimit:10;"><g id="Species"><g id="Mammals"><g id="mouse"><path id="Outline" d="M61.409,32.047c0,-16.178 -13.135,-29.313 -29.313,-29.313c-16.179,0 -29.314,13.135 -29.314,29.313c0,16.178 13.135,29.313 29.314,29.313c16.178,0 29.313,-13.135 29.313,-29.313Z" style="fill:none;stroke:#000;stroke-width:3px;"/><path d="M12.145,47.92c1.882,0.216 4.757,-0.187 3.999,-0.4c0,0 -2.725,-0.087 -4.321,-0.532c-2.155,-0.6 -4.794,-1.527 -5.9,-2.165c0.145,0.309 0.284,0.594 0.417,0.858c1.906,1.079 4.46,2.084 5.805,2.239Zm42.506,-24.86c-1.669,-1.597 -6.242,-2.974 -7.112,-3.339c-1.489,-0.623 -1.667,-0.956 -1.68,-1.902c-0.008,-0.515 -0.64,-1.12 -1.604,-1c-1.064,0.133 -1.672,0.932 -1.579,1.418c0.108,0.565 0.715,0.881 0.365,1.089c-0.163,0.096 -0.681,0.515 -1.08,-0.757c-0.159,-0.505 -1.13,-0.922 -2.144,-0.457c-0.66,0.303 -0.971,1.285 -0.837,1.578c0.501,1.096 0.712,1.032 0.432,1.18c-2.516,-0.596 -4.86,-0.763 -7.925,-0.683c-3.382,0.087 -7.619,2.953 -9.132,5.907c-1.685,3.291 -0.635,7.64 -2.947,10.632c-0.595,0.77 -1.351,1.379 -2.203,1.863c-2.302,1.307 -4.396,1.985 -6.771,2.584c-2.46,0.621 -3.656,1.195 -5.375,1.649c0.147,0.376 0.314,0.78 0.502,1.205c0.654,-0.621 3.136,-1.041 4.962,-1.317c2.303,-0.35 3.124,-0.262 5.032,-0.392c4.519,-0.31 7.098,-1.873 11.374,0.408c1.089,0.581 0.508,0.726 2.178,0.653c1.669,-0.072 5.442,-0.29 6.095,0.073c0.654,0.362 1.451,0.145 2.685,-0.073c1.234,-0.217 2.54,0.073 3.194,0.145c0.653,0.073 0.435,-0.145 -0.146,-1.088c-0.581,-0.944 -2.032,-1.016 -3.548,-0.798c-1.516,0.217 -2.983,-0.581 -3.346,-1.089c-0.363,-0.508 1.088,0 1.959,-0.726c0.871,-0.725 3.121,-1.451 3.992,-0.58c0.871,0.871 2.612,4.064 2.612,4.426c0,0.363 0.798,0.581 0.798,0.581l1.524,0.78c0,0 0.509,-0.562 0.944,-0.344c0.436,0.218 0.798,0.653 1.016,0c0.217,-0.654 -0.58,-1.524 -1.161,-1.524c-0.581,0 -0.799,-0.073 -1.234,-0.581c-0.436,-0.508 -0.943,-3.411 -1.089,-4.499c-0.145,-1.089 0.073,-2.322 0.653,-3.048c0.581,-0.726 2.251,-0.508 2.613,-0.145c0.363,0.363 0.944,0.58 1.089,0.29c0.144,-0.291 1.161,0.726 1.597,1.306c0.435,0.58 0.362,0.145 0.579,-0.58c0.218,-0.726 -0.362,-1.597 -1.088,-2.105c-0.726,-0.507 -1.886,-1.451 -1.814,-2.032c0.072,-0.58 2.395,-2.757 3.556,-2.83c1.161,-0.073 2.105,-0.145 2.685,-0.508c0.581,-0.363 0.363,-0.145 1.016,-0.218c0.653,-0.073 1.887,-0.58 2.975,-1.596c1.089,-1.016 -0.942,-1.96 -2.612,-3.556Z" style="fill-rule:nonzero;"/></g></g></g></svg>