<?xml version="1.0" encoding="UTF-8" standalone="no"?><!DOCTYPE svg PUBLIC "-//W3C//DTD SVG 1.1//EN" "http://www.w3.org/Graphics/SVG/1.1/DTD/svg11.dtd"><svg width="100%" height="100%" viewBox="0 0 64 64" version="1.1" xmlns="http://www.w3.org/2000/svg" xmlns:xlink="http://www.w3.org/1999/xlink" xml:space="preserve" xmlns:serif="http://www.serif.com/" style="fill-rule:evenodd;clip-rule:evenodd;stroke-miterlimit:10;"><g id="Species"><g id="Amphibians"><g id="amphibian-toad"><path id="Outline" d="M138.626,31.687c0,-16.179 -13.135,-29.313 -29.313,-29.313c-16.178,0 -29.313,13.134 -29.313,29.313c0,16.178 13.135,29.313 29.313,29.313c16.178,0 29.313,-13.135 29.313,-29.313Z" style="fill:none;stroke:#000;stroke-width:3px;"/></g><g id="salamander"><path id="Outline1" serif:id="Outline" d="M58.626,31.687c0,-16.179 -13.135,-29.313 -29.313,-29.313c-16.178,0 -29.313,13.134 -29.313,29.313c0,16.178 13.135,29.313 29.313,29.313c16.178,0 29.313,-13.135 29.313,-29.313Z" style="fill:none;stroke:#000;stroke-width:3px;"/><path d="M40.239,24.413c0.048,0.095 0.465,0.172 0.462,0.252c-0.003,0.063 -0.12,0.02 -0.163,0.047c-0.039,0.025 -0.065,0.085 -0.102,0.109c-0.041,0.027 -0.15,0.06 -0.224,0.054c-0.099,-0.008 -0.14,-0.105 -0.203,-0.176c-0.076,-0.084 -0.157,-0.107 -0.102,-0.237c0.048,-0.114 0.156,-0.118 0.264,-0.076m-0.733,0.861c-0.07,0.015 -0.145,-0.015 -0.209,0.008c-0.058,0.021 -0.084,0.076 -0.137,0.105c-0.109,0.06 -0.128,0.005 -0.214,-0.002c-0.027,-0.002 -0.202,0.048 -0.214,0.052c-0.114,0.04 -0.111,0.153 -0.264,0.075c-0.082,-0.041 -0.165,-0.128 -0.258,-0.163c-0.039,-0.015 -0.09,-0.009 -0.126,-0.025c-0.072,-0.033 -0.012,-0.008 -0.084,-0.066c-0.066,-0.053 -0.094,-0.094 -0.15,-0.146c-0.046,-0.043 -0.081,-0.075 -0.163,-0.096c-0.119,-0.029 -0.248,-0.123 -0.346,-0.217c-0.093,-0.088 -0.122,-0.129 -0.211,-0.163c-0.03,-0.011 -0.104,-0.057 -0.135,-0.078c-0.021,-0.014 -0.054,-0.062 -0.068,-0.078c-0.018,-0.02 -0.065,-0.033 -0.082,-0.048c-0.044,-0.037 -0.047,-0.089 -0.102,-0.132c-0.024,-0.019 -0.113,-0.022 -0.102,-0.078c0.01,-0.045 0.164,-0.07 0.204,-0.074c0.29,-0.037 0.641,0.019 0.903,0.054c0.155,0.02 0.31,0 0.475,-0.007c0.095,-0.004 0.227,-0.031 0.319,-0.007c0.03,0.008 0.086,0.058 0.109,0.068c0.238,0.101 0.35,0.142 0.502,0.34c0.063,0.081 0.118,0.173 0.19,0.257c0.029,0.033 0.052,0.105 0.082,0.136c0.103,0.111 0.151,0.128 0.081,0.285m-27.09,17.224c-0.036,0 -0.072,-0.12 -0.095,-0.163c-0.024,-0.043 -0.07,-0.08 -0.096,-0.108c-0.074,-0.082 -0.132,-0.181 -0.205,-0.271c-0.11,-0.136 -0.241,-0.287 -0.324,-0.435c-0.144,-0.258 -0.323,-0.577 -0.435,-0.829c-0.055,-0.126 -0.096,-0.237 -0.122,-0.38c-0.011,-0.065 -0.041,-0.14 -0.054,-0.217c-0.02,-0.122 -0.016,-0.274 -0.026,-0.414c-0.018,-0.259 0.013,-0.575 0.07,-0.781c0.058,-0.207 0.088,-0.356 0.16,-0.556c0.089,-0.248 0.253,-0.523 0.448,-0.774c0.252,-0.327 0.566,-0.662 0.882,-0.897c0.12,-0.088 0.304,-0.193 0.435,-0.257c0.061,-0.031 0.149,-0.09 0.206,-0.118c0.088,-0.044 0.185,-0.04 0.296,-0.059c0.177,-0.03 0.39,-0.07 0.605,-0.063c0.102,0.004 0.293,0.043 0.427,0.07c0.316,0.063 0.569,0.191 0.828,0.292c0.314,0.122 0.647,0.329 0.903,0.587c0.043,0.044 0.08,0.084 0.125,0.137c0.04,0.048 0.079,0.12 0.113,0.158c0.043,0.05 0.056,0.099 0.095,0.15c0.126,0.164 0.26,0.324 0.359,0.488c0.099,0.162 0.162,0.411 0.225,0.584c0.042,0.119 0.111,0.29 0.149,0.428c0.045,0.165 0.017,0.366 0.027,0.523c0.004,0.067 0.03,0.133 0.02,0.197c-0.005,0.037 -0.03,0.046 -0.033,0.074c-0.006,0.046 0.021,0.079 0.027,0.136c0.005,0.058 -0.018,0.108 -0.027,0.163c-0.005,0.027 -0.002,0.084 0,0.109c0.007,0.144 -0.038,0.273 -0.068,0.393c-0.019,0.072 -0.052,0.165 -0.082,0.231c-0.056,0.124 -0.108,0.276 -0.181,0.402c-0.059,0.101 -0.092,0.195 -0.158,0.291c-0.049,0.07 -0.046,0.146 -0.095,0.23c-0.008,0.013 -0.063,0.023 -0.072,0.035c-0.016,0.021 -0.011,0.044 -0.023,0.06c-0.014,0.019 -0.026,0.05 -0.041,0.075c-0.04,0.064 -0.073,0.093 -0.122,0.143c-0.037,0.037 -0.052,0.102 -0.082,0.135c-0.023,0.025 -0.079,0.045 -0.108,0.068c-0.068,0.052 -0.106,0.158 -0.187,0.22c-0.15,0.116 -0.261,0.216 -0.411,0.33c-0.025,0.019 -0.061,0.048 -0.088,0.061c-0.02,0.01 -0.075,0.016 -0.092,0.027c-0.02,0.014 -0.063,0.06 -0.078,0.068c-0.065,0.037 -0.094,0.05 -0.163,0.082c-0.123,0.057 -0.266,0.087 -0.38,0.135c-0.147,0.064 -0.244,0.119 -0.394,0.17c-0.12,0.041 -0.315,0.073 -0.42,0.102c-0.079,0.022 -0.177,-0.009 -0.265,0.014c-0.068,0.017 -0.142,0.044 -0.244,0.056c-0.159,0.019 -0.38,0.037 -0.537,0.018c-0.145,-0.017 -0.149,0.022 -0.278,0.027c-0.216,0.01 -0.147,-0.13 -0.161,-0.327c-0.029,-0.396 -0.085,-0.509 -0.253,-0.82m41.478,-18.492c-0.017,-0.168 -0.07,-0.31 -0.129,-0.448c-0.093,-0.219 -0.169,-0.544 -0.237,-0.747c-0.046,-0.135 -0.09,-0.301 -0.15,-0.421c-0.071,-0.143 -0.163,-0.203 -0.292,-0.278c-0.233,-0.137 -0.479,-0.265 -0.753,-0.319c-0.094,-0.019 -0.165,-0.025 -0.276,-0.05c-0.099,-0.023 -0.167,-0.086 -0.254,-0.127c-0.142,-0.066 -0.27,-0.083 -0.434,-0.136c-0.178,-0.056 -0.546,-0.184 -0.761,-0.217c-0.336,-0.05 -0.748,-0.122 -1.126,-0.122c0.015,0.025 0.024,0.052 0.027,0.082c-0.118,-0.009 -0.199,-0.214 -0.285,-0.286c-0.054,-0.044 -0.108,-0.067 -0.163,-0.095c-0.183,-0.091 -0.372,-0.195 -0.607,-0.179c-0.187,0.012 -0.299,0.075 -0.425,0.125c-0.06,0.024 -0.138,0.05 -0.204,0.095c-0.084,0.058 -0.177,0.217 -0.299,0.217c0.025,-0.119 -0.169,-0.071 -0.267,-0.065c-0.073,0.004 -0.14,0.03 -0.18,0.038c-0.118,0.023 -0.295,0.004 -0.397,0.015c-0.06,0.006 -0.113,0.054 -0.16,0.067c-0.077,0.019 -0.156,-0.014 -0.245,0c0.007,-0.001 -0.081,0.047 -0.081,0.047c-0.002,0.001 -0.091,0.002 -0.109,0.007c-0.079,0.019 -0.108,0.066 -0.226,0.073c-0.147,0.009 -0.223,0.076 -0.337,0.144c-0.133,0.08 -0.174,0.124 -0.333,0.142c-0.072,0.009 -0.087,0.017 -0.136,0.048c-0.024,0.016 -0.039,0.03 -0.067,0.041c-0.02,0.008 -0.102,0.003 -0.123,0.014c-0.054,0.026 -0.1,0.124 -0.171,0.161c-0.082,0.043 -0.157,0.057 -0.227,0.093c-0.056,0.029 -0.074,0.039 -0.131,0.058c-0.024,0.008 -0.105,0.029 -0.149,0.054c-0.103,0.058 -0.044,0.115 -0.082,0.19c-0.043,0.084 -0.186,0.15 -0.244,0.177c-0.051,0.023 -0.112,0.078 -0.163,0.095c-0.09,0.028 -0.204,0.003 -0.272,0.054c-0.045,0.034 -0.056,0.102 -0.068,0.136c-0.032,0.09 -0.046,0.111 -0.122,0.149c-0.054,0.028 -0.127,0.017 -0.176,0.054c-0.09,0.068 -0.019,0.183 -0.123,0.218c0.026,-0.009 -0.078,-0.015 -0.081,-0.014c0.011,-0.003 -0.068,0.054 -0.068,0.054c-0.037,0.013 -0.086,-0.006 -0.122,0.007c-0.041,0.015 -0.077,0.053 -0.122,0.075c-0.082,0.039 -0.178,0.056 -0.258,0.095c-0.099,0.049 -0.171,0.167 -0.272,0.217c-0.032,0.016 -0.086,0.06 -0.109,0.068c-0.108,0.04 -0.084,0.007 -0.133,0.108c-0.02,0.041 0.004,0.096 -0.032,0.151c-0.017,0.026 -0.056,0.044 -0.078,0.064c-0.085,0.077 -0.109,0.105 -0.224,0.078c-0.135,-0.032 -0.232,-0.08 -0.34,-0.116c-0.112,-0.037 -0.308,-0.145 -0.387,-0.231c-0.106,-0.114 -0.17,-0.236 -0.299,-0.339c-0.115,-0.092 -0.369,-0.285 -0.136,-0.421c0.126,-0.073 0.418,-0.128 0.571,-0.149c0.427,-0.059 0.862,-0.057 1.33,-0.055c0.208,0.002 0.612,0.043 0.699,-0.186c0.14,-0.368 -0.595,-0.42 -0.807,-0.424c-0.139,-0.004 -0.264,-0.008 -0.367,-0.028c-0.182,-0.034 -0.381,0.007 -0.584,0.014c-0.166,0.006 -0.306,-0.034 -0.448,-0.041c-0.162,-0.008 -0.286,0.009 -0.489,-0.011c-0.115,-0.011 -0.448,-0.114 -0.394,-0.288c0.02,-0.062 0.109,-0.122 0.15,-0.176c0.036,-0.048 0.082,-0.132 0.122,-0.177c0.117,-0.129 0.268,-0.285 0.401,-0.38c0.149,-0.107 0.312,-0.171 0.468,-0.231c0.088,-0.033 0.22,-0.082 0.229,-0.206c0.018,-0.253 -0.293,-0.256 -0.446,-0.245c-0.24,0.017 -0.389,0.112 -0.584,0.234c-0.318,0.2 -0.626,0.391 -0.923,0.557c-0.217,0.12 -0.44,0.207 -0.652,0.312c-0.154,0.076 -0.417,0.088 -0.611,0.109c-0.194,0.021 -0.314,0.095 -0.502,0.149c-0.086,0.025 -0.09,0.047 -0.204,0.041c-0.074,-0.004 -0.157,0.025 -0.19,0.027c-0.173,0.011 -0.348,-0.012 -0.489,0.014c-0.011,0.002 -0.08,0.04 -0.095,0.04c-0.091,0 -0.15,-0.052 -0.244,-0.04c0.006,-0.001 -0.068,0.038 -0.082,0.04c-0.015,0.002 -0.07,-0.002 -0.103,-0.004c-0.089,-0.006 -0.097,-0.006 -0.168,0.018c-0.244,0.08 -0.657,0.076 -0.958,0.081c-0.055,0.001 -0.16,-0.005 -0.21,0c-0.085,0.01 -0.2,-0.015 -0.299,0c-0.012,0.002 -0.067,0.036 -0.081,0.041c-0.077,0.03 -0.129,0.011 -0.222,0.018c-0.171,0.014 -0.38,0.078 -0.525,0.159c-0.083,0.046 -0.209,0.182 -0.244,0.258c-0.016,0.034 -0.019,0.07 -0.028,0.101c-0.015,0.056 -0.046,0.088 -0.068,0.143c-0.03,0.08 -0.048,0.199 -0.081,0.299c-0.052,0.159 -0.016,0.227 0.014,0.339c0.053,0.201 0.262,0.423 0.434,0.557c0.223,0.173 0.462,0.335 0.679,0.489c0.266,0.188 0.536,0.481 0.801,0.651c0.104,0.067 0.235,0.179 0.346,0.272c0.102,0.085 0.169,0.111 0.251,0.149c0.098,0.046 0.237,0.164 0.34,0.245c0.062,0.048 0.112,0.118 0.054,0.203c-0.015,0.023 -0.054,0.034 -0.054,0.068c-0.068,-0.041 -0.084,-0.077 -0.17,-0.068c-0.074,0.008 -0.054,0.044 -0.112,0.071c-0.052,0.026 -0.082,0.007 -0.14,0.021c-0.107,0.027 -0.216,0.172 -0.216,0.261c-0.083,0 -0.17,-0.183 -0.244,-0.213c-0.122,-0.047 -0.121,0.069 -0.204,0.105c-0.055,0.023 -0.112,0.006 -0.15,0.027c-0.022,0.012 -0.06,0.041 -0.081,0.05l-0.013,0.045c-0.028,-0.005 -0.055,-0.009 -0.082,-0.014c-0.005,0.001 -0.109,-0.021 -0.15,-0.013c0.009,-0.002 -0.035,0.028 -0.027,0.027c-0.047,0.008 -0.03,-0.013 -0.088,0c-0.095,0.021 -0.069,0.082 -0.143,0.136c0.005,-0.004 -0.119,0.029 -0.108,0.027c-0.013,0.002 -0.029,0.014 -0.027,0.013c-0.057,0.015 -0.105,0.008 -0.163,0.028c-0.046,0.015 -0.162,-0.01 -0.231,0.013c-0.015,0.005 -0.127,0.085 -0.14,0.095c-0.05,0.041 -0.114,0.106 -0.186,0.095c-0.05,-0.007 -0.138,-0.112 -0.21,-0.125c-0.136,-0.026 -0.197,-0.001 -0.304,0.057c-0.065,0.035 -0.036,0.071 -0.11,0.073c-0.017,0 -0.094,-0.051 -0.119,-0.062c-0.092,-0.041 -0.175,-0.095 -0.262,0.016c-0.08,0.104 -0.046,0.253 -0.285,0.19c-0.054,-0.014 -0.073,-0.077 -0.135,-0.081c-0.059,-0.003 -0.144,0.044 -0.221,0.046c-0.05,0.001 -0.105,-0.025 -0.146,-0.019c-0.108,0.016 -0.183,0.096 -0.271,0.136c-0.05,0.022 -0.066,0.019 -0.116,0.034c-0.031,0.009 -0.147,0.046 -0.17,0.047c-0.026,0.002 -0.083,-0.029 -0.098,-0.027c-0.03,0.005 -0.065,0.036 -0.083,0.036c-0.068,-0.004 -0.124,-0.035 -0.199,-0.049c-0.113,-0.021 -0.27,-0.035 -0.353,0.013c-0.029,0.017 -0.08,0.113 -0.109,0.122c-0.032,0.011 -0.063,-0.026 -0.067,-0.027c-0.047,-0.003 -0.103,-0.035 -0.136,-0.04c-0.02,-0.004 -0.037,-0.012 -0.041,-0.014l-0.095,0c-0.008,-0.032 -0.031,-0.048 -0.067,-0.049c-0.135,-0.005 -0.143,0.12 -0.232,0.158c-0.053,0.022 -0.082,-0.006 -0.145,-0.006c-0.012,0 -0.074,0.021 -0.085,0.019c-0.03,-0.004 -0.044,-0.014 -0.068,-0.027c-0.083,-0.045 -0.122,-0.081 -0.204,-0.068c-0.074,0.012 -0.183,0.08 -0.231,0.109c-0.062,0.038 0.034,0.078 -0.078,0.059c-0.031,-0.006 -0.036,-0.068 -0.044,-0.073c-0.083,-0.048 -0.131,-0.004 -0.203,-0.013c0,-0.049 -0.363,-0.114 -0.412,-0.098c-0.031,0.01 -0.065,0.051 -0.091,0.07c-0.033,0.025 -0.074,0.063 -0.117,0.086c-0.018,0.01 -0.013,0.052 -0.032,0.057c-0.033,0.008 -0.046,-0.029 -0.075,-0.034c-0.007,-0.001 -0.119,-0.005 -0.102,0c-0.057,-0.016 -0.068,-0.048 -0.102,-0.061c-0.029,-0.011 -0.079,-0.002 -0.101,-0.014c-0.053,-0.028 -0.071,-0.082 -0.123,-0.095c-0.157,-0.037 -0.159,0.119 -0.271,0.184c-0.042,0.024 -0.155,0.035 -0.209,0.011c-0.065,-0.029 -0.075,-0.095 -0.137,-0.12c-0.024,-0.009 -0.116,-0.026 -0.129,-0.027c-0.043,-0.004 -0.104,-0.036 -0.163,-0.014c-0.082,0.031 -0.116,0.164 -0.189,0.181c-0.074,0.017 -0.125,-0.108 -0.194,-0.125c-0.055,-0.014 -0.073,0.043 -0.133,0.026c-0.02,-0.006 -0.066,-0.095 -0.109,-0.109c-0.051,-0.016 -0.131,-0.004 -0.174,0.027c-0.03,0.022 -0.032,0.107 -0.057,0.123c-0.028,0.017 -0.098,-0.013 -0.138,0.007c-0.024,0.011 -0.058,0.083 -0.079,0.087c-0.052,0.012 -0.104,-0.056 -0.149,-0.067c-0.011,-0.003 -0.108,-0.008 -0.122,-0.014c-0.086,-0.033 -0.132,-0.121 -0.232,-0.135c-0.118,-0.016 -0.169,0.076 -0.216,0.149c-0.053,0.08 -0.042,0.089 -0.131,0.126c-0.077,0.032 -0.149,0.035 -0.221,0.02c0.017,0.003 -0.084,-0.05 -0.076,-0.045c-0.028,-0.017 -0.053,-0.033 -0.075,-0.047c-0.023,-0.015 -0.046,-0.04 -0.071,-0.051c-0.034,-0.015 -0.067,0.005 -0.095,-0.007c-0.029,-0.012 -0.056,-0.049 -0.092,-0.064c-0.143,-0.06 -0.179,0.051 -0.271,0.129c-0.042,0.035 0.01,0.02 -0.05,0.047c-0.019,0.009 -0.081,0 -0.103,-0.003c-0.08,-0.009 -0.113,-0.042 -0.177,-0.072c-0.09,-0.043 -0.162,-0.061 -0.27,-0.04c-0.098,0.018 -0.123,0.102 -0.183,0.138c-0.029,0.017 -0.063,-0.003 -0.092,0.019c-0.029,0.023 -0.004,0.037 -0.021,0.053c-0.024,0.022 -0.028,0.054 -0.062,0.068c-0.079,0.035 -0.176,-0.035 -0.244,-0.081c-0.047,-0.032 -0.1,-0.075 -0.156,-0.082c-0.071,-0.007 -0.142,0.012 -0.199,0.051c-0.03,0.021 -0.05,0.098 -0.086,0.112c-0.055,0.021 -0.127,-0.02 -0.177,-0.007c-0.022,0.006 -0.04,0.025 -0.068,0.034c-0.008,0.003 -0.037,0.041 -0.04,0.041c-0.058,0.009 -0.151,-0.049 -0.19,-0.041c-0.114,0.024 -0.162,0.159 -0.295,0.162c-0.091,0.001 -0.119,-0.035 -0.187,-0.067c-0.13,-0.06 -0.136,-0.002 -0.252,0.028c-0.038,0.01 -0.084,-0.024 -0.134,-0.016c-0.067,0.011 -0.099,0.079 -0.153,0.096c-0.071,0.023 -0.105,-0.045 -0.163,-0.052c-0.086,-0.01 -0.164,0.043 -0.228,0.08c-0.079,0.045 -0.132,0.087 -0.218,0.109c-0.037,0.009 -0.126,0.06 -0.19,0.081c0,-0.195 -0.001,-0.495 0.048,-0.665c0.043,-0.154 0.096,-0.307 0.129,-0.455c0.029,-0.132 0.166,-0.294 0.219,-0.436c0.042,-0.112 0.106,-0.161 0.174,-0.263c0.043,-0.065 0.075,-0.165 0.109,-0.217c0.076,-0.116 0.218,-0.21 0.307,-0.338c0.064,-0.093 0.132,-0.206 0.243,-0.287c0.035,-0.026 0.096,-0.053 0.129,-0.068c0.052,-0.022 0.117,-0.099 0.176,-0.122c0.099,-0.039 0.307,-0.006 0.38,0.027c0.261,0.117 0.59,0.216 0.72,0.462c0.112,0.21 0.088,0.525 0.122,0.774c0.019,0.138 0.067,0.27 0.122,0.407c0.057,0.139 0.206,0.324 0.394,0.238c0.141,-0.065 0.16,-0.203 0.177,-0.333c0.027,-0.214 -0.047,-0.505 0.041,-0.706c0.071,-0.164 0.312,-0.199 0.5,-0.19c0.342,0.016 0.521,0.192 0.803,0.38c0.062,0.042 0.122,0.066 0.177,0.095c0.136,0.073 0.255,0.169 0.386,0.258c0.089,0.06 0.168,0.095 0.258,0.149c0.13,0.078 0.36,0.282 0.537,0.2c0.369,-0.173 -0.111,-0.646 -0.251,-0.77c-0.116,-0.102 -0.239,-0.163 -0.36,-0.244c-0.201,-0.134 -0.392,-0.318 -0.584,-0.503c-0.083,-0.079 -0.35,-0.162 -0.281,-0.304c0.089,-0.183 0.441,-0.057 0.58,-0.042c0.5,0.056 0.845,0.221 1.371,0.319c0.306,0.058 0.625,0.136 0.934,0.171c0.098,0.011 0.265,0.049 0.351,-0.014c0.092,-0.067 0.108,-0.212 0.045,-0.305c-0.066,-0.1 -0.241,-0.182 -0.325,-0.232c-0.095,-0.056 -0.21,-0.12 -0.299,-0.149c-0.261,-0.087 -0.462,-0.161 -0.706,-0.265c-0.2,-0.085 -0.536,-0.187 -0.747,-0.251c-0.177,-0.054 -0.271,-0.094 -0.4,-0.143c-0.153,-0.057 -0.24,-0.074 -0.401,-0.129c-0.033,-0.011 -0.095,-0.041 -0.149,-0.068c-0.026,-0.012 -0.13,-0.108 -0.177,-0.108c0,-0.264 0.346,-0.335 0.557,-0.394c0.114,-0.032 0.204,-0.062 0.326,-0.081c0.185,-0.03 0.475,-0.044 0.692,-0.096c0.077,-0.018 0.181,-0.073 0.258,-0.094c0.147,-0.041 0.355,-0.059 0.475,-0.082c0.14,-0.026 0.271,-0.063 0.408,-0.122c0.088,-0.038 0.22,-0.047 0.279,-0.15c0.238,-0.414 -0.507,-0.366 -0.687,-0.366c-0.45,0 -0.89,0.034 -1.313,0.081c-0.34,0.038 -0.739,0.075 -1.09,0.082c-0.117,0.002 -0.257,0.011 -0.371,-0.014c-0.062,-0.013 -0.224,-0.088 -0.274,-0.149c-0.158,-0.195 0.062,-0.632 0.156,-0.794c0.095,-0.164 0.187,-0.251 0.32,-0.36c0.116,-0.096 0.265,-0.272 0.175,-0.426c-0.101,-0.172 -0.433,-0.13 -0.549,-0.063c-0.104,0.06 -0.196,0.182 -0.285,0.267c-0.086,0.082 -0.163,0.141 -0.258,0.233c-0.062,0.06 -0.125,0.09 -0.177,0.152c-0.061,0.074 -0.118,0.118 -0.19,0.176c-0.156,0.127 -0.28,0.337 -0.461,0.448c-0.128,0.079 -0.308,0.252 -0.475,0.245c-0.084,-0.004 -0.114,-0.015 -0.177,-0.028c-0.075,-0.014 -0.119,0.009 -0.19,0.028c-0.067,0.017 -0.182,0.005 -0.244,0.013c-0.085,0.011 -0.124,0.035 -0.222,0.041c-0.121,0.007 -0.179,0.014 -0.267,0.054c-0.066,0.03 -0.141,0.036 -0.224,0.048c-0.083,0.012 -0.136,0.057 -0.211,0.088c-0.092,0.038 -0.166,0.029 -0.258,0.068c-0.08,0.034 -0.211,0.115 -0.271,0.163c-0.1,0.08 -0.16,0.18 -0.231,0.299c-0.036,0.06 -0.091,0.124 -0.122,0.19c-0.038,0.081 -0.048,0.176 -0.095,0.271c-0.047,0.094 -0.094,0.115 -0.102,0.251c-0.007,0.118 -0.047,0.121 -0.075,0.197c-0.012,0.033 0.002,0.068 -0.013,0.109c-0.012,0.03 -0.059,0.062 -0.07,0.102c-0.021,0.068 -0.005,0.129 -0.036,0.19c-0.014,0.028 -0.072,0.074 -0.084,0.088c-0.03,0.033 -0.068,0.074 -0.096,0.122c-0.028,0.05 -0.036,0.111 -0.067,0.15c-0.016,0.019 -0.072,0.041 -0.082,0.054c-0.02,0.025 -0.031,0.057 -0.047,0.078c-0.017,0.024 0.007,0.065 -0.007,0.085c-0.013,0.018 -0.053,0.005 -0.067,0.029c-0.051,0.093 -0.07,0.136 -0.148,0.206c-0.053,0.047 -0.146,0.128 -0.199,0.159c-0.035,0.019 -0.084,0.016 -0.116,0.04c-0.051,0.039 -0.086,0.107 -0.138,0.149c-0.041,0.034 -0.063,0.052 -0.112,0.083c-0.071,0.045 -0.12,0.052 -0.184,0.087c-0.097,0.053 -0.107,0.163 -0.197,0.224c-0.017,0.012 -0.038,0.021 -0.061,0.034c-0.088,0.05 -0.072,0.074 -0.129,0.138c-0.102,0.115 -0.264,0.227 -0.403,0.336c-0.053,0.042 -0.12,0.102 -0.161,0.13c-0.099,0.071 -0.114,0.131 -0.183,0.204c-0.084,0.089 -0.195,0.194 -0.292,0.258c-0.07,0.047 -0.148,0.101 -0.21,0.177c-0.073,0.088 -0.101,0.16 -0.247,0.164c-0.076,0.001 -0.082,-0.035 -0.14,-0.056c-0.074,-0.027 -0.214,0.018 -0.299,0.021c-0.2,0.005 -0.374,0.028 -0.589,0.04c-0.143,0.008 -0.135,0.01 -0.236,0.082c-0.083,0.06 -0.184,0.055 -0.284,0.108c-0.065,0.036 -0.086,0.128 -0.153,0.17c-0.006,0.004 -0.1,0.033 -0.102,0.034c-0.02,0.007 -0.044,0.027 -0.074,0.037c-0.059,0.02 -0.139,0.008 -0.199,0.001c-0.06,-0.008 -0.101,-0.05 -0.172,-0.031c-0.064,0.017 -0.067,0.066 -0.105,0.122c-0.04,0.059 -0.104,0.142 -0.175,0.168c-0.116,0.042 -0.247,0.042 -0.355,0.083c-0.123,0.048 -0.315,0.061 -0.461,0.082c-0.198,0.028 -0.334,0.071 -0.509,0.142c-0.038,0.016 -0.095,0.053 -0.102,0.055c-0.039,0.01 -0.067,-0.001 -0.109,0.006c-0.07,0.012 -0.096,0.019 -0.149,0.041c-0.088,0.036 -0.183,0.077 -0.285,0.102c-0.074,0.018 -0.243,-0.004 -0.313,0.027c-0.087,0.039 -0.121,0.118 -0.19,0.177c-0.071,0.061 -0.19,0.071 -0.285,0.095c-0.02,0.005 -0.092,0.038 -0.122,0.04c-0.183,0.016 -0.248,-0.046 -0.407,0.095c-0.123,0.11 -0.197,0.157 -0.34,0.19c-0.107,0.025 -0.128,0.044 -0.203,0.123c-0.066,0.068 -0.18,0.181 -0.245,0.203c-0.084,0.03 -0.138,0.026 -0.204,0.055c-0.082,0.036 -0.164,0.063 -0.276,0.104c-0.107,0.038 -0.15,0.099 -0.212,0.188c-0.06,0.084 -0.093,0.126 -0.15,0.183c-0.062,0.062 -0.071,0.142 -0.135,0.19c-0.048,0.035 -0.142,0.04 -0.19,0.068c-0.054,0.03 -0.11,0.105 -0.177,0.136c-0.125,0.058 -0.139,0.09 -0.204,0.163c-0.075,0.084 -0.127,0.163 -0.235,0.208c-0.131,0.054 -0.176,0.055 -0.254,0.185c-0.017,0.029 -0.038,0.056 -0.067,0.095c-0.02,0.027 -0.047,0.09 -0.078,0.133c-0.059,0.082 -0.158,0.098 -0.221,0.152c-0.136,0.118 -0.174,0.334 -0.285,0.476c-0.085,0.108 -0.173,0.191 -0.231,0.298c-0.045,0.084 -0.076,0.136 -0.149,0.197c-0.065,0.054 -0.062,0.062 -0.123,0.143c-0.051,0.068 -0.14,0.109 -0.19,0.178c-0.04,0.057 -0.049,0.116 -0.072,0.184c-0.022,0.065 -0.059,0.101 -0.09,0.181c-0.058,0.147 -0.094,0.291 -0.184,0.407c-0.07,0.09 -0.173,0.23 -0.21,0.326c-0.03,0.075 0.013,0.18 -0.009,0.271c-0.008,0.03 -0.028,0.061 -0.046,0.089c-0.013,0.021 -0.057,0.047 -0.067,0.068c-0.01,0.02 -0.011,0.067 -0.024,0.088c-0.093,0.152 -0.215,0.239 -0.228,0.428c-0.006,0.101 -0.022,0.169 -0.047,0.264c-0.02,0.074 -0.011,0.13 -0.015,0.23c-0.002,0.044 -0.032,0.084 -0.037,0.13c-0.013,0.116 -0.006,0.18 -0.036,0.265c-0.033,0.091 -0.075,0.222 -0.123,0.326c-0.025,0.054 -0.068,0.107 -0.074,0.163c-0.012,0.096 0.043,0.181 0.053,0.269c0.016,0.15 -0.056,0.302 -0.081,0.44c-0.024,0.135 -0.063,0.239 -0.037,0.397c0.021,0.128 0.005,0.185 -0.003,0.301c-0.008,0.118 -0.055,0.237 -0.056,0.351c0,0.036 0.033,0.119 0.042,0.156c0.024,0.098 0.015,0.185 0.007,0.272c-0.007,0.08 0.027,0.154 0.034,0.217c0.006,0.058 0.006,0.151 0.02,0.217c0.029,0.134 0.044,0.321 0.068,0.489c0.024,0.161 0.072,0.379 0.116,0.516c0.039,0.124 0.066,0.224 0.122,0.353c0.101,0.233 0.199,0.479 0.258,0.719c0.051,0.21 0.149,0.424 0.305,0.611c0.066,0.079 0.097,0.148 0.129,0.218c0.053,0.114 0.147,0.199 0.231,0.326c0.063,0.093 0.103,0.198 0.176,0.298c0.093,0.126 0.236,0.277 0.354,0.408c0.115,0.128 0.185,0.26 0.308,0.384c0.084,0.084 0.163,0.15 0.253,0.242c0.055,0.057 0.082,0.108 0.131,0.161c0.051,0.055 0.133,0.087 0.19,0.129c0.051,0.037 0.091,0.087 0.14,0.131c0.055,0.05 0.117,0.085 0.172,0.12c0.13,0.084 0.246,0.187 0.381,0.285c0.114,0.084 0.258,0.161 0.366,0.231c0.116,0.075 0.204,0.157 0.339,0.231c0.085,0.046 0.208,0.083 0.313,0.115c0.184,0.057 0.351,0.158 0.529,0.245c0.198,0.096 0.403,0.16 0.638,0.231c0.126,0.037 0.21,0.072 0.34,0.115c0.189,0.063 0.505,0.099 0.74,0.136c0.508,0.08 1.127,0.103 1.679,0.088c0.237,-0.006 0.494,-0.083 0.704,-0.095c0.136,-0.008 0.231,-0.031 0.353,-0.054c0.133,-0.026 0.245,-0.056 0.366,-0.082c0.151,-0.032 0.312,-0.065 0.448,-0.108c0.237,-0.076 0.424,-0.222 0.652,-0.306c0.196,-0.072 0.46,-0.171 0.638,-0.285c0.096,-0.061 0.174,-0.111 0.272,-0.176c0.154,-0.104 0.285,-0.202 0.434,-0.326c0.083,-0.069 0.216,-0.168 0.299,-0.245c0.147,-0.135 0.261,-0.292 0.394,-0.434c0.117,-0.127 0.25,-0.284 0.339,-0.435c0.077,-0.131 0.196,-0.29 0.258,-0.434c0.08,-0.185 0.16,-0.385 0.258,-0.598c0.14,-0.302 0.254,-0.651 0.299,-0.977c0.068,-0.494 0.134,-0.987 0.041,-1.48c-0.06,-0.32 -0.123,-0.521 -0.204,-0.835c-0.042,-0.164 -0.098,-0.364 -0.177,-0.509c-0.056,-0.103 -0.114,-0.206 -0.156,-0.292c-0.122,-0.247 -0.287,-0.457 -0.434,-0.693c-0.181,-0.288 -0.455,-0.546 -0.727,-0.719c-0.155,-0.099 -0.322,-0.269 -0.482,-0.373c-0.125,-0.083 -0.242,-0.141 -0.373,-0.197c-0.256,-0.11 -0.49,-0.165 -0.754,-0.252c-0.252,-0.082 -0.515,-0.139 -0.794,-0.165c-0.12,-0.011 -0.212,0.01 -0.299,0.016c-0.18,0.012 -0.364,-0.023 -0.546,-0.01c-0.223,0.016 -0.446,0.036 -0.608,0.092c-0.191,0.065 -0.36,0.15 -0.556,0.217c-0.213,0.073 -0.474,0.254 -0.666,0.407c-0.108,0.086 -0.229,0.239 -0.339,0.34c-0.13,0.118 -0.265,0.216 -0.367,0.339c-0.161,0.196 -0.291,0.405 -0.459,0.654c-0.117,0.174 -0.19,0.408 -0.26,0.622c-0.064,0.197 -0.149,0.377 -0.19,0.611c-0.034,0.193 -0.085,0.41 -0.075,0.638c0.01,0.235 0.037,0.451 0.07,0.661c0.051,0.323 0.152,0.67 0.283,0.941c0.166,0.344 0.351,0.721 0.618,1.059c0.233,0.296 0.5,0.587 0.767,0.887c0.111,0.124 0.171,0.232 0.265,0.362c0.062,0.088 0.271,0.267 0.271,0.394c-0.213,-0.03 -0.358,-0.022 -0.57,-0.054c-0.082,-0.013 -0.212,-0.024 -0.299,-0.041c-0.008,-0.001 -0.046,-0.026 -0.068,-0.027c-0.014,0 -0.107,0.018 -0.129,0.014c-0.077,-0.014 -0.147,-0.131 -0.224,-0.163c-0.068,-0.029 -0.182,-0.02 -0.237,-0.048c-0.088,-0.044 -0.085,-0.118 -0.177,-0.141c-0.083,-0.021 -0.094,0.003 -0.183,-0.035c-0.052,-0.023 -0.164,-0.014 -0.217,-0.048c-0.08,-0.05 -0.076,-0.107 -0.186,-0.134c-0.066,-0.015 -0.169,-0.007 -0.212,-0.047c-0.026,-0.024 -0.011,-0.07 -0.042,-0.1c-0.038,-0.036 -0.095,-0.045 -0.134,-0.06c-0.077,-0.03 -0.086,-0.062 -0.132,-0.12c-0.015,-0.019 -0.037,-0.068 -0.055,-0.095c-0.003,-0.006 -0.033,-0.031 -0.04,-0.041l-0.041,0c-0.004,-0.024 -0.007,-0.048 -0.01,-0.071c-0.134,-0.181 -0.396,-0.216 -0.547,-0.405c-0.02,-0.024 -0.026,-0.045 -0.054,-0.067c-0.055,-0.044 -0.119,-0.059 -0.165,-0.107c-0.071,-0.072 -0.013,-0.037 -0.046,-0.141c-0.014,-0.044 -0.051,-0.058 -0.071,-0.102c-0.026,-0.058 -0.036,-0.097 -0.071,-0.146c-0.036,-0.049 -0.078,-0.085 -0.109,-0.129c-0.045,-0.064 -0.036,-0.108 -0.067,-0.181c-0.019,-0.046 -0.114,-0.133 -0.15,-0.172c0.011,0.012 -0.053,-0.053 -0.054,-0.054c-0.02,-0.019 -0.042,-0.03 -0.068,-0.034c-0.043,-0.003 -0.057,-0.032 -0.041,-0.088c-0.054,-0.063 -0.141,-0.116 -0.153,-0.188c-0.007,-0.045 0.054,-0.119 0.045,-0.165c0.001,0.008 -0.025,-0.059 -0.028,-0.068c-0.001,-0.003 -0.048,-0.109 -0.054,-0.122c-0.018,-0.04 -0.069,-0.164 -0.109,-0.19c0.018,-0.128 0.102,-0.184 -0.023,-0.337c-0.028,-0.035 -0.054,-0.039 -0.072,-0.071c-0.011,-0.02 -0.016,-0.088 -0.025,-0.115c-0.012,-0.038 -0.044,-0.046 -0.049,-0.082c-0.002,-0.013 0.029,-0.056 0.034,-0.074c0.022,-0.094 -0.033,-0.171 -0.027,-0.231c0.016,-0.172 -0.012,-0.307 0.02,-0.445c0.029,-0.128 -0.023,-0.199 -0.061,-0.288c-0.031,-0.075 -0.041,-0.111 -0.048,-0.204c-0.002,-0.039 -0.035,-0.109 -0.029,-0.159c0.009,-0.081 0.079,-0.129 0.104,-0.208c0.018,-0.057 -0.01,-0.134 0.014,-0.19c0.016,-0.037 0.092,-0.07 0.108,-0.108c0.026,-0.062 0.01,-0.165 0.02,-0.231c0.009,-0.053 0.019,-0.143 0.034,-0.197c0.016,-0.051 0.054,-0.079 0.075,-0.149c0.04,-0.136 -0.02,-0.281 0.034,-0.401c0.029,-0.065 0.126,-0.134 0.177,-0.197c0.09,-0.111 0.107,-0.268 0.162,-0.38c0.019,-0.037 0.064,-0.09 0.075,-0.129c0.025,-0.087 -0.023,-0.19 0.048,-0.272c0.039,-0.044 0.088,-0.041 0.122,-0.108c0.044,-0.088 0.031,-0.178 0.151,-0.216c0.041,-0.013 0.046,0.019 0.086,-0.001c0.068,-0.034 0.124,-0.116 0.157,-0.184c0.028,-0.059 -0.017,-0.133 0.02,-0.196c0.029,-0.049 0.097,-0.069 0.143,-0.123c0.03,-0.035 0.056,-0.089 0.095,-0.136c0.007,-0.008 0.047,-0.026 0.054,-0.04c0.021,-0.042 0.004,-0.105 0.024,-0.16c0.035,-0.099 0.102,-0.101 0.153,-0.166c0.023,-0.03 0.043,-0.075 0.054,-0.095c0.045,-0.083 0.042,-0.133 0.166,-0.139c0.084,-0.005 0.15,0.039 0.228,-0.051c0.068,-0.08 0,-0.068 0.081,-0.109c0.041,-0.02 0.116,-0.012 0.173,-0.058c0.029,-0.022 0.041,-0.069 0.071,-0.091c0.033,-0.024 0.088,-0.019 0.123,-0.041c0.047,-0.03 0.046,-0.04 0.067,-0.074c0.022,-0.036 0.025,-0.123 0.055,-0.157c0.074,-0.082 0.277,-0.068 0.366,-0.122c0.027,-0.016 0.054,-0.048 0.089,-0.067c0.1,-0.052 0.05,-0.001 0.158,-0.014c0.081,-0.01 0.135,-0.059 0.229,-0.082c0.116,-0.028 0.323,-0.001 0.416,-0.052c0.059,-0.031 0.052,-0.087 0.086,-0.124c0.072,-0.079 0.103,-0.06 0.231,-0.068c0.167,-0.011 0.245,-0.06 0.424,-0.014c0.123,0.032 0.214,0.046 0.309,0.095c0.13,0.068 0.178,0.184 0.353,0.082c0.167,-0.098 0.222,-0.126 0.448,-0.075c0.057,0.013 0.108,0.048 0.163,0.095c0.096,0.081 0.123,0.073 0.231,0.116c0.077,0.03 0.197,0.12 0.271,0.163c0.068,0.038 0.1,0.103 0.177,0.149c0.071,0.042 0.176,0.015 0.27,0.011c0.173,-0.006 0.285,-0.034 0.476,-0.005c0.301,0.044 0.489,0.166 0.713,0.32c0.081,0.055 0.145,0.153 0.236,0.224c0.094,0.073 0.258,0.106 0.355,0.156c0.181,0.093 0.31,0.265 0.441,0.421c0.127,0.151 0.319,0.27 0.435,0.421c0.084,0.11 0.146,0.233 0.21,0.353c0.027,0.049 -0.001,0.058 0.054,0.108c0.022,0.02 0.071,-0.003 0.095,0.014c0.06,0.041 0.098,0.098 0.15,0.142c0.039,0.034 0.049,0.083 0.088,0.123c0.038,0.037 0.094,0.058 0.129,0.101c0.059,0.074 0.114,0.148 0.17,0.218c0.026,0.033 0.083,0.11 0.115,0.163c0.032,0.051 0.046,0.091 0.082,0.149c0.018,0.03 0.051,0.077 0.068,0.136c0.001,0.007 0.04,0.038 0.04,0.04c0.006,0.038 -0.026,0.079 -0.015,0.119c0.011,0.045 0.081,0.106 0.11,0.139c0.083,0.097 0.057,0.17 0.099,0.306c0.037,0.119 0.14,0.127 0.186,0.238c0.019,0.045 0.013,0.129 0.028,0.162c0.015,0.036 0.053,0.061 0.067,0.095c0.023,0.056 0.017,0.117 0.041,0.163c0.038,0.072 0.069,0.092 0.082,0.172c0.02,0.126 0.015,0.121 0.068,0.215c0.072,0.13 0.069,0.281 0.095,0.401c0.049,0.232 0.304,0.504 0.441,0.686c0.039,0.051 0.091,0.095 0.129,0.149c0.059,0.086 0.117,0.211 0.19,0.278c0.073,0.067 0.187,0.1 0.271,0.17c0.144,0.119 0.203,0.252 0.39,0.292c0.164,0.035 0.188,0.059 0.323,0.122c0.063,0.029 0.121,0.056 0.183,0.068c0.061,0.011 0.123,0.014 0.184,0.027c0.088,0.019 0.175,0.08 0.251,0.116c0.048,0.022 0.119,0.015 0.17,0.047c0.067,0.042 0.131,0.167 0.183,0.231c0.155,0.191 0.307,0.434 0.434,0.652c0.085,0.144 0.13,0.262 0.19,0.407c0.048,0.113 0.124,0.194 0.157,0.312c0.036,0.132 0.005,0.274 0.143,0.362c0.15,0.096 0.293,0.051 0.425,-0.059c0.17,-0.142 0.11,-0.339 0.056,-0.48c-0.052,-0.136 -0.09,-0.313 -0.135,-0.51c-0.086,-0.366 0.034,-0.665 0.386,-0.63c0.156,0.016 0.373,0.055 0.53,0.109c0.126,0.043 0.343,0.063 0.462,0.135c0.455,0.279 0.842,0.419 1.29,0.632c0.172,0.082 0.599,0.395 0.766,0.149c0.159,-0.232 -0.255,-0.572 -0.414,-0.685c-0.223,-0.16 -0.428,-0.315 -0.665,-0.489c-0.189,-0.139 -0.447,-0.173 -0.638,-0.333c-0.118,-0.1 -0.215,-0.209 -0.326,-0.305c-0.138,-0.12 -0.363,-0.269 -0.176,-0.442c0.179,-0.165 0.623,-0.139 0.896,-0.169c0.057,-0.007 0.131,-0.035 0.203,-0.041c0.12,-0.01 0.281,-0.003 0.408,-0.007c0.192,-0.006 0.339,-0.038 0.547,-0.059c0.361,-0.036 0.871,-0.036 1.265,-0.165c0.15,-0.049 0.195,-0.266 0.03,-0.38c-0.169,-0.116 -0.453,-0.123 -0.62,-0.149c-0.224,-0.036 -0.502,-0.012 -0.716,-0.028c-0.29,-0.021 -0.617,-0.007 -0.924,-0.033c-0.234,-0.019 -0.463,-0.052 -0.682,-0.068c-0.045,-0.004 -0.253,-0.002 -0.231,-0.116c0.006,-0.031 0.145,-0.094 0.17,-0.108c0.178,-0.104 0.335,-0.205 0.509,-0.279c0.213,-0.091 0.407,-0.17 0.625,-0.278c0.182,-0.091 0.693,-0.392 0.529,-0.652c-0.12,-0.191 -0.348,-0.075 -0.489,-0.041c-0.165,0.042 -0.33,0.08 -0.455,0.136c-0.252,0.114 -0.458,0.18 -0.726,0.224c-0.234,0.039 -0.939,0.323 -0.915,-0.107c0.01,-0.168 0.122,-0.302 0.162,-0.415c0.037,-0.107 0.125,-0.364 -0.017,-0.486c-0.236,-0.202 -0.579,0.237 -0.69,0.418c-0.17,0.278 -0.407,0.648 -0.719,0.746c-0.167,0.053 -0.398,-0.082 -0.55,-0.135c-0.04,-0.015 -0.124,-0.049 -0.176,-0.055c-0.077,-0.008 -0.157,0.014 -0.228,-0.04c-0.031,-0.024 -0.039,-0.088 -0.071,-0.109c-0.026,-0.017 -0.06,-0.003 -0.091,-0.018c-0.103,-0.052 -0.143,-0.133 -0.228,-0.206c-0.165,-0.141 -0.331,-0.269 -0.482,-0.414c-0.015,-0.014 -0.038,-0.053 -0.061,-0.076c-0.066,-0.067 -0.065,-0.039 -0.102,-0.135c-0.038,-0.097 -0.048,-0.095 -0.122,-0.169c-0.04,-0.04 -0.048,-0.064 -0.068,-0.095c-0.034,-0.052 -0.06,-0.135 -0.088,-0.204c-0.041,-0.098 -0.114,-0.192 -0.17,-0.272c-0.042,-0.058 -0.084,-0.089 -0.116,-0.149c-0.036,-0.067 -0.06,-0.142 -0.101,-0.203c-0.064,-0.096 -0.087,-0.174 -0.143,-0.258c-0.077,-0.118 -0.077,-0.218 -0.115,-0.34c-0.036,-0.114 -0.096,-0.187 -0.128,-0.334c-0.006,-0.03 -0.077,-0.132 -0.022,-0.168c0.028,-0.019 0.106,0.048 0.136,0.054c0.047,0.009 0.172,-0.018 0.224,-0.014c0.028,0.003 0.107,0.008 0.143,0.024c0.065,0.029 0.061,0.1 0.123,0.13c0.121,0.057 0.22,-0.07 0.325,-0.004c0.056,0.035 0.053,0.085 0.108,0.122c0.056,0.037 0.143,0.04 0.204,0.068c0.069,0.031 0.121,0.075 0.204,0.088c0.056,0.009 0.088,-0.02 0.135,-0.007c0.015,0.004 0.04,0.049 0.055,0.055c0.083,0.029 0.193,-0.045 0.284,-0.007c0.073,0.03 0.095,0.121 0.15,0.163c0.052,0.04 0.036,0.034 0.088,0.045c0.032,0.007 0.07,-0.012 0.102,-0.007c0.062,0.01 0.049,0.014 0.095,0.036c0.067,0.032 0.062,0.061 0.143,0.068c0.076,0.007 0.145,-0.04 0.21,-0.068c0.166,-0.07 0.256,0.043 0.38,0.075c0.106,0.027 0.186,0.08 0.272,0.102c0.16,0.041 0.315,-0.055 0.489,-0.068c0.062,-0.005 0.145,-0.011 0.21,0.041c0.043,0.034 0.043,0.097 0.102,0.136c0.119,0.077 0.243,0.059 0.38,0.027c0.124,-0.03 0.215,-0.08 0.36,-0.041c0.074,0.02 0.115,0.036 0.212,0.002c0.107,-0.036 0.16,-0.087 0.247,0.02c0.044,0.054 0.057,0.168 0.132,0.195c0.042,0.015 0.089,-0.012 0.127,-0.013c0.059,-0.002 0.091,0.015 0.139,0.013c0.073,-0.002 0.106,-0.047 0.154,-0.068c0.084,-0.035 0.147,-0.041 0.242,-0.044c0.126,-0.003 0.29,-0.032 0.451,-0.01c0.069,0.009 0.169,0.068 0.231,0.082c0.085,0.018 0.221,-0.041 0.298,-0.014c0.081,0.028 0.06,0.091 0.165,0.063c0.106,-0.029 0.176,-0.129 0.263,-0.172c0.046,-0.022 0.074,-0.027 0.147,-0.024c0.087,0.003 0.146,0.057 0.199,0.065c0.079,0.012 0.18,-0.039 0.231,-0.041c0.101,-0.003 0.199,0.03 0.318,0.015c0.191,-0.023 0.281,0.219 0.47,0.06c0.079,-0.067 0.097,-0.114 0.186,-0.146c0.051,-0.018 0.098,-0.014 0.139,-0.031c0.03,-0.011 0.043,-0.036 0.068,-0.047c0.065,-0.026 0.095,-0.001 0.177,-0.014c0.032,-0.005 0.069,-0.044 0.109,-0.047c0.078,-0.007 0.164,0.062 0.25,0.052c0.041,-0.005 0.02,-0.05 0.048,-0.059c0.024,-0.007 0.059,0.01 0.082,0c0.016,-0.007 0.072,-0.038 0.081,-0.041c0.077,-0.019 0.104,0.004 0.163,-0.04c0.086,-0.064 0.122,-0.163 0.26,-0.156c0.067,0.004 0.134,0.057 0.214,0.063c0.108,0.007 0.158,-0.08 0.259,-0.09c0.098,-0.009 0.145,0.059 0.243,-0.007c0.082,-0.055 0.055,-0.088 0.165,-0.123c0.062,-0.019 0.105,-0.007 0.188,-0.005c0.047,0.001 0.14,-0.046 0.178,-0.036c0.044,0.013 0.032,0.053 0.065,0.072c0.122,0.072 0.198,0.07 0.306,-0.037c0.019,-0.019 0.056,-0.094 0.077,-0.102c0.082,-0.031 0.102,0.043 0.143,0.067c0.146,0.09 0.265,0.113 0.4,-0.054c0.062,-0.076 0.082,-0.103 0.17,-0.129c0.052,-0.015 0.159,-0.066 0.206,-0.058c0.082,0.014 0.096,0.061 0.16,0.085c0.096,0.037 0.186,-0.01 0.252,-0.061c0.1,-0.078 0.124,-0.14 0.277,-0.129c0.084,0.006 0.128,0.041 0.201,0.007c0.043,-0.019 0.09,-0.085 0.106,-0.108c0.03,-0.045 0.009,-0.087 0.068,-0.123c0.04,-0.024 0.091,-0.001 0.135,-0.013c0.026,-0.007 0.115,-0.043 0.154,-0.064c0.076,-0.039 0.124,-0.13 0.208,-0.191c0.089,-0.064 0.159,-0.072 0.249,-0.093c0.119,-0.027 0.137,-0.007 0.231,0.035c0.091,0.042 0.221,0.072 0.299,-0.04c0.03,-0.044 0.01,-0.096 0.061,-0.15c0.126,-0.132 0.311,-0.03 0.455,-0.088c0.064,-0.025 0.055,-0.07 0.088,-0.116c0.02,-0.027 0.111,-0.156 0.156,-0.162c0.1,-0.014 0.116,0.113 0.258,0.081c0.024,-0.005 0.08,-0.047 0.095,-0.061c0.029,-0.028 0.015,-0.082 0.041,-0.115c0.037,-0.048 0.072,-0.067 0.102,-0.116c0.02,-0.032 0.028,-0.081 0.054,-0.107c0.101,-0.101 0.299,-0.009 0.444,-0.05c0.145,-0.041 0.254,-0.368 0.391,-0.338c0.093,0.02 0.099,0.182 0.19,0.23c0.06,0.032 0.133,0.013 0.217,-0.04c0.053,-0.034 0.099,-0.094 0.156,-0.122c0.094,-0.046 0.23,-0.091 0.32,-0.116c0.05,-0.014 0.178,-0.036 0.21,0.014c0.033,0.051 -0.061,0.149 0.02,0.17c-0.012,0.081 -0.097,0.093 -0.122,0.149c-0.02,0.045 -0.019,0.148 -0.027,0.19c0,0.001 -0.013,0.093 -0.013,0.095c-0.023,0.051 -0.083,0.085 -0.097,0.126c-0.01,0.031 0.008,0.063 0.001,0.078c-0.013,0.03 -0.061,0.071 -0.073,0.108c-0.024,0.078 0.034,0.142 -0.089,0.177c-0.032,-0.143 -0.108,-0.274 -0.17,-0.38c-0.057,-0.098 -0.098,-0.258 -0.219,-0.325c-0.183,-0.101 -0.315,0.027 -0.332,0.208c-0.018,0.2 0.029,0.321 0.069,0.483c0.017,0.071 0.047,0.155 0.068,0.231c0.057,0.214 0.058,0.409 0.027,0.611c-0.017,0.108 -0.032,0.139 -0.095,0.231c-0.043,0.062 -0.086,0.108 -0.122,0.183c-0.013,0.026 -0.046,0.044 -0.055,0.068c-0.011,0.032 0.008,0.075 0,0.115c-0.003,0.018 -0.054,0.116 -0.054,0.123c-0.003,0.04 0.022,0.033 0.016,0.076c-0.006,0.039 -0.044,0.113 -0.043,0.141c0.001,0.066 0.084,0.148 0.108,0.204c0.034,0.074 0.079,0.175 0.109,0.257c0.024,0.067 0.053,0.109 0.1,0.172c0.026,0.035 0.051,0.058 0.082,0.105c0.024,0.037 0.014,0.06 0.035,0.104c0.054,0.109 0.226,0.252 0.34,0.326c0.106,0.069 0.214,0.11 0.353,0.126c0.177,0.021 0.298,0.002 0.434,-0.031c0.101,-0.025 0.207,-0.065 0.299,-0.089c0.161,-0.04 0.39,-0.079 0.556,-0.102c0.278,-0.037 0.554,-0.075 0.836,-0.108c0.192,-0.023 0.419,-0.049 0.634,-0.04c0.18,0.008 0.558,0.097 0.662,-0.096c0.156,-0.288 -0.396,-0.396 -0.529,-0.421c-0.242,-0.045 -0.601,-0.041 -0.842,-0.095c-0.153,-0.034 -0.549,-0.052 -0.538,-0.285c0.006,-0.131 0.157,-0.309 0.256,-0.394c0.125,-0.106 0.287,-0.253 0.377,-0.387c0.141,-0.212 0.351,-0.318 0.529,-0.427c0.244,-0.15 0.482,-0.379 0.72,-0.557c0.117,-0.088 0.283,-0.269 0.323,-0.382c0.102,-0.293 -0.181,-0.258 -0.371,-0.227c-0.309,0.05 -0.498,0.263 -0.739,0.419c-0.095,0.061 -0.22,0.108 -0.333,0.204c-0.101,0.084 -0.202,0.142 -0.292,0.217c-0.098,0.082 -0.204,0.136 -0.312,0.19c-0.097,0.048 -0.286,0.134 -0.435,0.136c0.002,-0.158 0.133,-0.229 0.163,-0.326c0.036,-0.119 0.04,-0.203 0.068,-0.299c0.03,-0.099 0.141,-0.198 0.19,-0.312c0.028,-0.066 0.054,-0.127 0.088,-0.204c0.011,-0.023 0.054,-0.071 0.061,-0.095c0.034,-0.11 0.011,-0.224 0.068,-0.312c0.032,-0.049 0.092,-0.109 0.123,-0.15c0.032,-0.042 0.036,-0.089 0.081,-0.122c0.027,-0.019 0.076,-0.019 0.109,-0.04c0.056,-0.038 0.088,-0.118 0.163,-0.163c0.101,-0.062 0.25,-0.05 0.339,-0.163c0.033,-0.042 0.048,-0.111 0.112,-0.15c0.084,-0.05 0.178,-0.093 0.261,-0.129c0.064,-0.027 0.108,-0.05 0.184,-0.074c0.069,-0.023 0.112,0.022 0.196,0.03c0.132,0.013 0.143,-0.059 0.184,-0.152c0.069,-0.159 0.146,-0.032 0.258,-0.055c0.099,-0.02 0.163,-0.161 0.258,-0.224c0.04,-0.026 0.059,-0.032 0.095,-0.047c0.002,-0.001 0.037,-0.026 0.041,-0.028c0.065,-0.034 0.075,-0.062 0.135,-0.108c0.066,-0.051 0.206,-0.025 0.296,-0.064c0.083,-0.036 0.073,-0.048 0.125,-0.113c0.08,-0.098 0.188,-0.171 0.278,-0.203c0.068,-0.024 0.156,-0.031 0.211,-0.068c0.065,-0.044 0.117,-0.144 0.189,-0.178c0.076,-0.037 0.214,-0.04 0.293,-0.06c0.173,-0.043 0.283,-0.1 0.441,-0.17c0.056,-0.024 0.15,-0.034 0.204,-0.067c0.055,-0.034 0.078,-0.074 0.122,-0.095c0.04,-0.02 0.14,-0.03 0.194,-0.063c0.06,-0.037 0.064,-0.062 0.108,-0.097c0.083,-0.066 0.148,-0.06 0.255,-0.098c0.031,-0.012 0.061,-0.066 0.095,-0.075c0.033,-0.009 0.097,-0.007 0.122,-0.007c0.13,-0.001 0.211,-0.013 0.312,-0.068c0.152,-0.081 0.251,-0.018 0.421,-0.007c0.063,0.005 0.13,-0.024 0.19,-0.006c0.016,0.004 0.068,0.049 0.082,0.054c0.089,0.036 0.265,0.026 0.339,0.014c0.051,-0.009 0.125,-0.062 0.185,-0.063c0.112,-0.001 0.2,0.071 0.317,0.049c0.078,-0.014 0.212,-0.125 0.299,-0.149c0.298,-0.085 0.503,-0.056 0.815,-0.143c0.155,-0.043 0.394,-0.105 0.556,-0.163c0.247,-0.088 0.449,-0.178 0.639,-0.244c0.185,-0.065 0.368,-0.152 0.543,-0.238c0.056,-0.027 0.135,-0.074 0.19,-0.108c0.056,-0.035 0.255,-0.231 0.326,-0.231c0,-0.053 -0.046,-0.025 0.047,-0.082c0.027,-0.016 0.086,-0.046 0.102,-0.054c0.09,-0.048 0.168,-0.085 0.244,-0.149c0.064,-0.054 0.104,-0.156 0.163,-0.218c0.008,-0.008 0.058,0.01 0.055,0.014c0.014,-0.016 0.014,-0.056 0.027,-0.068c0.037,-0.033 0.07,-0.057 0.106,-0.095c0.43,-0.449 0.964,-0.844 1.347,-1.344c0.21,-0.275 0.345,-0.541 0.543,-0.828c0.15,-0.219 0.213,-0.405 0.353,-0.666c0.054,-0.102 0.165,-0.28 0.23,-0.407c0.029,-0.055 0.04,-0.093 0.068,-0.163c0.01,-0.024 0.072,-0.219 0.068,-0.217" style="fill-rule:nonzero;"/></g></g></g></svg>