<?xml version="1.0" encoding="UTF-8" standalone="no"?><!DOCTYPE svg PUBLIC "-//W3C//DTD SVG 1.1//EN" "http://www.w3.org/Graphics/SVG/1.1/DTD/svg11.dtd"><svg width="100%" height="100%" viewBox="0 0 64 64" version="1.1" xmlns="http://www.w3.org/2000/svg" xmlns:xlink="http://www.w3.org/1999/xlink" xml:space="preserve" xmlns:serif="http://www.serif.com/" style="fill-rule:evenodd;clip-rule:evenodd;stroke-miterlimit:10;"><g id="Species"><g id="Amphibians"><g id="salamander"><path id="Outline" d="M61.409,32.047c0,-16.178 -13.135,-29.313 -29.313,-29.313c-16.179,0 -29.314,13.135 -29.314,29.313c0,16.178 13.135,29.313 29.314,29.313c16.178,0 29.313,-13.135 29.313,-29.313Z" style="fill:none;stroke:#000;stroke-width:3px;"/><path d="M43.022,24.774c0.047,0.094 0.465,0.171 0.461,0.251c-0.002,0.064 -0.12,0.02 -0.162,0.047c-0.039,0.025 -0.066,0.086 -0.102,0.109c-0.042,0.027 -0.15,0.06 -0.224,0.054c-0.099,-0.008 -0.14,-0.105 -0.204,-0.176c-0.075,-0.084 -0.157,-0.106 -0.101,-0.237c0.048,-0.113 0.156,-0.118 0.264,-0.075m-0.733,0.86c-0.071,0.016 -0.146,-0.014 -0.21,0.009c-0.058,0.021 -0.084,0.076 -0.136,0.105c-0.11,0.06 -0.128,0.004 -0.214,-0.003c-0.027,-0.002 -0.202,0.048 -0.214,0.053c-0.115,0.039 -0.112,0.152 -0.265,0.074c-0.081,-0.041 -0.165,-0.127 -0.258,-0.163c-0.038,-0.014 -0.09,-0.009 -0.126,-0.025c-0.072,-0.033 -0.011,-0.008 -0.083,-0.066c-0.067,-0.053 -0.095,-0.094 -0.151,-0.146c-0.045,-0.043 -0.081,-0.075 -0.163,-0.095c-0.118,-0.03 -0.248,-0.124 -0.346,-0.218c-0.092,-0.088 -0.122,-0.129 -0.21,-0.163c-0.031,-0.011 -0.105,-0.056 -0.136,-0.078c-0.02,-0.013 -0.054,-0.062 -0.068,-0.078c-0.018,-0.019 -0.065,-0.033 -0.081,-0.047c-0.044,-0.038 -0.047,-0.09 -0.102,-0.133c-0.024,-0.018 -0.113,-0.022 -0.102,-0.078c0.009,-0.045 0.164,-0.069 0.204,-0.074c0.29,-0.037 0.641,0.019 0.902,0.054c0.156,0.021 0.311,0 0.476,-0.007c0.094,-0.004 0.227,-0.03 0.319,-0.007c0.029,0.008 0.086,0.059 0.108,0.068c0.239,0.101 0.351,0.142 0.503,0.34c0.062,0.081 0.117,0.173 0.19,0.258c0.028,0.033 0.052,0.104 0.081,0.136c0.104,0.11 0.151,0.128 0.082,0.284m-27.091,17.224c-0.036,0 -0.071,-0.12 -0.095,-0.162c-0.023,-0.043 -0.069,-0.081 -0.095,-0.109c-0.074,-0.081 -0.132,-0.181 -0.205,-0.27c-0.11,-0.137 -0.242,-0.288 -0.324,-0.436c-0.145,-0.258 -0.324,-0.577 -0.435,-0.829c-0.056,-0.126 -0.097,-0.236 -0.122,-0.38c-0.012,-0.065 -0.042,-0.139 -0.054,-0.217c-0.021,-0.122 -0.017,-0.274 -0.027,-0.414c-0.018,-0.259 0.013,-0.575 0.071,-0.781c0.057,-0.207 0.087,-0.356 0.159,-0.556c0.089,-0.248 0.253,-0.522 0.448,-0.774c0.253,-0.327 0.566,-0.662 0.883,-0.896c0.119,-0.089 0.303,-0.193 0.434,-0.258c0.062,-0.031 0.15,-0.09 0.206,-0.118c0.089,-0.044 0.186,-0.04 0.297,-0.059c0.176,-0.03 0.389,-0.07 0.605,-0.063c0.101,0.004 0.292,0.043 0.427,0.07c0.316,0.063 0.569,0.191 0.828,0.292c0.314,0.122 0.646,0.329 0.902,0.587c0.044,0.044 0.081,0.084 0.125,0.137c0.041,0.048 0.079,0.12 0.113,0.158c0.044,0.05 0.056,0.099 0.095,0.15c0.126,0.164 0.261,0.325 0.36,0.489c0.098,0.161 0.162,0.41 0.224,0.583c0.043,0.12 0.112,0.29 0.149,0.428c0.045,0.165 0.018,0.366 0.028,0.523c0.004,0.067 0.03,0.133 0.02,0.197c-0.006,0.038 -0.03,0.047 -0.034,0.074c-0.006,0.047 0.022,0.079 0.027,0.136c0.005,0.058 -0.018,0.108 -0.027,0.163c-0.005,0.027 -0.001,0.084 0,0.109c0.008,0.144 -0.037,0.273 -0.068,0.393c-0.018,0.073 -0.051,0.165 -0.081,0.231c-0.056,0.124 -0.108,0.276 -0.182,0.402c-0.058,0.101 -0.092,0.196 -0.158,0.291c-0.049,0.07 -0.046,0.146 -0.095,0.231c-0.008,0.013 -0.062,0.022 -0.071,0.034c-0.016,0.021 -0.012,0.044 -0.024,0.06c-0.013,0.019 -0.025,0.051 -0.041,0.075c-0.039,0.064 -0.072,0.093 -0.122,0.143c-0.037,0.037 -0.051,0.102 -0.081,0.136c-0.023,0.025 -0.079,0.044 -0.109,0.068c-0.067,0.051 -0.106,0.157 -0.186,0.219c-0.151,0.117 -0.262,0.217 -0.411,0.33c-0.025,0.019 -0.061,0.049 -0.089,0.061c-0.02,0.01 -0.074,0.016 -0.091,0.028c-0.021,0.013 -0.063,0.059 -0.078,0.068c-0.065,0.036 -0.094,0.049 -0.163,0.081c-0.124,0.057 -0.266,0.087 -0.38,0.136c-0.148,0.063 -0.244,0.118 -0.394,0.169c-0.12,0.042 -0.316,0.073 -0.421,0.102c-0.078,0.022 -0.177,-0.009 -0.265,0.014c-0.068,0.018 -0.141,0.044 -0.244,0.056c-0.158,0.02 -0.379,0.037 -0.536,0.018c-0.146,-0.017 -0.149,0.022 -0.279,0.028c-0.215,0.009 -0.147,-0.131 -0.161,-0.327c-0.028,-0.397 -0.085,-0.509 -0.253,-0.821m41.479,-18.492c-0.017,-0.168 -0.07,-0.31 -0.129,-0.448c-0.094,-0.219 -0.169,-0.544 -0.238,-0.747c-0.046,-0.135 -0.09,-0.301 -0.149,-0.421c-0.071,-0.143 -0.163,-0.202 -0.292,-0.278c-0.234,-0.136 -0.479,-0.265 -0.754,-0.319c-0.094,-0.019 -0.165,-0.025 -0.276,-0.05c-0.099,-0.022 -0.166,-0.086 -0.253,-0.127c-0.142,-0.065 -0.271,-0.083 -0.435,-0.135c-0.178,-0.057 -0.545,-0.185 -0.76,-0.217c-0.336,-0.051 -0.748,-0.123 -1.127,-0.123c0.016,0.025 0.025,0.052 0.027,0.082c-0.117,-0.009 -0.198,-0.214 -0.285,-0.285c-0.054,-0.045 -0.107,-0.068 -0.163,-0.095c-0.183,-0.092 -0.371,-0.195 -0.607,-0.18c-0.186,0.012 -0.299,0.075 -0.425,0.125c-0.059,0.024 -0.138,0.05 -0.203,0.095c-0.085,0.059 -0.178,0.218 -0.299,0.218c0.024,-0.12 -0.169,-0.071 -0.268,-0.066c-0.073,0.004 -0.14,0.031 -0.18,0.038c-0.117,0.023 -0.294,0.004 -0.397,0.015c-0.06,0.007 -0.112,0.055 -0.16,0.067c-0.076,0.02 -0.156,-0.013 -0.244,0c0.006,-0.001 -0.082,0.047 -0.082,0.047c-0.002,0.001 -0.09,0.003 -0.108,0.007c-0.079,0.019 -0.108,0.067 -0.226,0.073c-0.147,0.009 -0.224,0.076 -0.338,0.144c-0.132,0.08 -0.173,0.124 -0.333,0.143c-0.071,0.008 -0.087,0.016 -0.135,0.047c-0.025,0.016 -0.039,0.03 -0.068,0.041c-0.02,0.008 -0.102,0.004 -0.122,0.014c-0.055,0.027 -0.1,0.124 -0.171,0.161c-0.082,0.043 -0.158,0.057 -0.227,0.093c-0.057,0.029 -0.074,0.039 -0.132,0.058c-0.024,0.008 -0.104,0.029 -0.149,0.054c-0.102,0.058 -0.044,0.116 -0.082,0.191c-0.042,0.084 -0.186,0.149 -0.244,0.176c-0.051,0.024 -0.111,0.079 -0.163,0.095c-0.089,0.029 -0.204,0.003 -0.271,0.054c-0.045,0.034 -0.056,0.102 -0.068,0.136c-0.032,0.091 -0.046,0.111 -0.122,0.149c-0.055,0.028 -0.128,0.017 -0.177,0.055c-0.089,0.067 -0.019,0.182 -0.122,0.217c0.025,-0.008 -0.079,-0.014 -0.082,-0.014c0.011,-0.003 -0.067,0.055 -0.067,0.055c-0.038,0.013 -0.087,-0.007 -0.123,0.007c-0.04,0.014 -0.076,0.052 -0.122,0.074c-0.081,0.04 -0.178,0.056 -0.258,0.095c-0.098,0.049 -0.171,0.167 -0.271,0.217c-0.033,0.016 -0.087,0.06 -0.109,0.068c-0.108,0.041 -0.085,0.007 -0.134,0.108c-0.02,0.041 0.004,0.096 -0.032,0.151c-0.017,0.026 -0.056,0.045 -0.077,0.064c-0.086,0.077 -0.11,0.105 -0.224,0.078c-0.136,-0.031 -0.232,-0.08 -0.341,-0.115c-0.111,-0.037 -0.308,-0.146 -0.387,-0.231c-0.106,-0.115 -0.17,-0.237 -0.298,-0.34c-0.116,-0.092 -0.37,-0.285 -0.136,-0.421c0.126,-0.073 0.418,-0.128 0.57,-0.149c0.427,-0.058 0.862,-0.057 1.33,-0.054c0.208,0.001 0.612,0.042 0.7,-0.187c0.14,-0.368 -0.595,-0.419 -0.808,-0.424c-0.138,-0.004 -0.263,-0.008 -0.367,-0.027c-0.181,-0.034 -0.38,0.006 -0.584,0.013c-0.166,0.006 -0.305,-0.034 -0.447,-0.041c-0.162,-0.007 -0.286,0.009 -0.489,-0.011c-0.115,-0.01 -0.449,-0.114 -0.394,-0.287c0.02,-0.063 0.108,-0.123 0.149,-0.177c0.036,-0.047 0.082,-0.132 0.122,-0.176c0.117,-0.129 0.269,-0.286 0.401,-0.38c0.149,-0.108 0.313,-0.172 0.468,-0.231c0.089,-0.034 0.22,-0.082 0.229,-0.207c0.019,-0.253 -0.293,-0.256 -0.446,-0.245c-0.239,0.017 -0.389,0.112 -0.584,0.234c-0.318,0.201 -0.625,0.391 -0.923,0.557c-0.216,0.121 -0.439,0.208 -0.651,0.312c-0.155,0.076 -0.418,0.088 -0.612,0.109c-0.193,0.021 -0.314,0.095 -0.502,0.149c-0.085,0.025 -0.09,0.047 -0.204,0.041c-0.073,-0.004 -0.157,0.025 -0.19,0.027c-0.173,0.012 -0.347,-0.012 -0.488,0.014c-0.012,0.002 -0.08,0.041 -0.096,0.04c-0.09,0 -0.15,-0.052 -0.244,-0.04c0.006,-0.001 -0.068,0.039 -0.081,0.04c-0.016,0.003 -0.071,-0.002 -0.103,-0.004c-0.089,-0.006 -0.098,-0.005 -0.169,0.018c-0.243,0.08 -0.656,0.076 -0.957,0.082c-0.056,0.001 -0.16,-0.006 -0.211,0c-0.084,0.009 -0.199,-0.016 -0.298,0c-0.013,0.002 -0.067,0.035 -0.082,0.04c-0.076,0.03 -0.129,0.011 -0.221,0.018c-0.172,0.014 -0.381,0.078 -0.526,0.159c-0.082,0.046 -0.209,0.182 -0.244,0.258c-0.016,0.034 -0.018,0.07 -0.027,0.102c-0.015,0.055 -0.047,0.087 -0.068,0.142c-0.031,0.08 -0.049,0.199 -0.081,0.299c-0.053,0.16 -0.016,0.227 0.013,0.339c0.053,0.201 0.262,0.423 0.435,0.557c0.222,0.173 0.462,0.335 0.678,0.489c0.266,0.188 0.536,0.482 0.802,0.651c0.104,0.067 0.235,0.18 0.346,0.272c0.102,0.085 0.169,0.111 0.251,0.149c0.097,0.046 0.236,0.165 0.339,0.245c0.063,0.048 0.112,0.119 0.055,0.203c-0.015,0.023 -0.055,0.034 -0.055,0.068c-0.068,-0.041 -0.084,-0.077 -0.169,-0.068c-0.074,0.008 -0.055,0.044 -0.112,0.072c-0.052,0.025 -0.083,0.007 -0.14,0.021c-0.108,0.026 -0.217,0.171 -0.217,0.26c-0.083,0 -0.169,-0.183 -0.244,-0.212c-0.122,-0.048 -0.12,0.068 -0.204,0.104c-0.055,0.023 -0.112,0.006 -0.149,0.027c-0.023,0.012 -0.061,0.041 -0.081,0.051l-0.014,0.044c-0.027,-0.004 -0.055,-0.009 -0.082,-0.014c-0.005,0.001 -0.109,-0.021 -0.149,-0.013c0.009,-0.002 -0.036,0.029 -0.027,0.027c-0.048,0.008 -0.03,-0.013 -0.088,0c-0.095,0.022 -0.069,0.082 -0.143,0.136c0.004,-0.003 -0.12,0.029 -0.109,0.027c-0.012,0.003 -0.029,0.014 -0.027,0.013c-0.057,0.016 -0.105,0.008 -0.163,0.028c-0.045,0.015 -0.162,-0.01 -0.231,0.013c-0.014,0.005 -0.126,0.085 -0.139,0.096c-0.05,0.04 -0.115,0.105 -0.186,0.094c-0.05,-0.007 -0.138,-0.111 -0.211,-0.125c-0.135,-0.026 -0.197,0 -0.303,0.057c-0.065,0.036 -0.037,0.071 -0.11,0.073c-0.018,0 -0.094,-0.051 -0.12,-0.062c-0.092,-0.041 -0.175,-0.094 -0.261,0.017c-0.08,0.103 -0.047,0.253 -0.285,0.19c-0.054,-0.015 -0.073,-0.078 -0.136,-0.082c-0.059,-0.003 -0.144,0.045 -0.22,0.046c-0.051,0.001 -0.105,-0.025 -0.147,-0.019c-0.107,0.016 -0.183,0.096 -0.271,0.136c-0.05,0.023 -0.066,0.019 -0.116,0.034c-0.03,0.009 -0.147,0.046 -0.169,0.048c-0.027,0.001 -0.083,-0.03 -0.098,-0.028c-0.03,0.005 -0.066,0.037 -0.084,0.036c-0.067,-0.004 -0.124,-0.035 -0.199,-0.049c-0.113,-0.021 -0.269,-0.034 -0.352,0.013c-0.029,0.017 -0.081,0.113 -0.109,0.123c-0.032,0.01 -0.063,-0.027 -0.068,-0.027c-0.047,-0.004 -0.103,-0.036 -0.136,-0.041c-0.02,-0.004 -0.036,-0.012 -0.04,-0.014l-0.095,0c-0.009,-0.031 -0.031,-0.048 -0.068,-0.048c-0.134,-0.006 -0.142,0.12 -0.231,0.157c-0.053,0.022 -0.082,-0.005 -0.146,-0.005c-0.011,0 -0.073,0.02 -0.085,0.018c-0.029,-0.004 -0.043,-0.014 -0.068,-0.027c-0.083,-0.045 -0.121,-0.081 -0.204,-0.068c-0.073,0.012 -0.183,0.08 -0.23,0.109c-0.063,0.038 0.034,0.078 -0.078,0.059c-0.031,-0.006 -0.036,-0.068 -0.044,-0.073c-0.084,-0.047 -0.132,-0.004 -0.204,-0.013c0,-0.049 -0.363,-0.114 -0.411,-0.098c-0.031,0.01 -0.065,0.051 -0.091,0.071c-0.034,0.025 -0.075,0.062 -0.117,0.085c-0.019,0.01 -0.014,0.052 -0.033,0.057c-0.033,0.009 -0.045,-0.028 -0.074,-0.034c-0.008,-0.001 -0.12,-0.004 -0.102,0c-0.058,-0.015 -0.069,-0.048 -0.102,-0.061c-0.029,-0.011 -0.08,-0.001 -0.102,-0.013c-0.053,-0.029 -0.071,-0.083 -0.122,-0.095c-0.158,-0.038 -0.159,0.118 -0.272,0.183c-0.042,0.024 -0.154,0.035 -0.208,0.011c-0.065,-0.029 -0.076,-0.095 -0.138,-0.12c-0.023,-0.009 -0.116,-0.026 -0.129,-0.027c-0.043,-0.004 -0.104,-0.035 -0.163,-0.013c-0.082,0.03 -0.116,0.163 -0.188,0.18c-0.075,0.017 -0.126,-0.108 -0.195,-0.125c-0.055,-0.014 -0.073,0.043 -0.133,0.026c-0.02,-0.006 -0.066,-0.095 -0.108,-0.109c-0.052,-0.016 -0.132,-0.004 -0.174,0.027c-0.03,0.023 -0.032,0.107 -0.057,0.123c-0.029,0.017 -0.098,-0.013 -0.139,0.007c-0.023,0.012 -0.057,0.083 -0.078,0.088c-0.053,0.011 -0.104,-0.057 -0.15,-0.068c-0.011,-0.003 -0.107,-0.008 -0.122,-0.014c-0.086,-0.033 -0.132,-0.121 -0.232,-0.135c-0.118,-0.016 -0.168,0.076 -0.216,0.149c-0.053,0.08 -0.042,0.089 -0.131,0.127c-0.076,0.031 -0.149,0.034 -0.221,0.019c0.017,0.003 -0.084,-0.049 -0.076,-0.044c-0.028,-0.018 -0.053,-0.034 -0.074,-0.048c-0.024,-0.015 -0.046,-0.039 -0.072,-0.051c-0.033,-0.015 -0.066,0.005 -0.095,-0.006c-0.029,-0.012 -0.055,-0.05 -0.091,-0.065c-0.144,-0.06 -0.18,0.051 -0.272,0.129c-0.042,0.035 0.01,0.02 -0.049,0.047c-0.02,0.009 -0.082,0 -0.103,-0.003c-0.08,-0.009 -0.114,-0.041 -0.178,-0.072c-0.09,-0.043 -0.162,-0.061 -0.269,-0.04c-0.098,0.019 -0.124,0.102 -0.184,0.138c-0.029,0.017 -0.062,-0.003 -0.092,0.019c-0.029,0.023 -0.004,0.037 -0.021,0.053c-0.023,0.022 -0.028,0.054 -0.061,0.068c-0.08,0.035 -0.176,-0.035 -0.245,-0.081c-0.047,-0.032 -0.099,-0.075 -0.156,-0.082c-0.07,-0.007 -0.142,0.013 -0.198,0.051c-0.031,0.021 -0.051,0.098 -0.087,0.112c-0.054,0.022 -0.127,-0.02 -0.176,-0.006c-0.022,0.006 -0.041,0.025 -0.068,0.034c-0.008,0.002 -0.037,0.04 -0.041,0.04c-0.057,0.01 -0.151,-0.048 -0.19,-0.04c-0.114,0.023 -0.161,0.159 -0.295,0.161c-0.09,0.001 -0.119,-0.035 -0.187,-0.066c-0.13,-0.061 -0.136,-0.003 -0.251,0.027c-0.039,0.01 -0.084,-0.024 -0.134,-0.016c-0.068,0.011 -0.1,0.079 -0.153,0.096c-0.072,0.023 -0.106,-0.044 -0.163,-0.051c-0.087,-0.011 -0.164,0.043 -0.229,0.079c-0.078,0.045 -0.132,0.087 -0.217,0.109c-0.037,0.009 -0.126,0.06 -0.19,0.081c0,-0.195 -0.001,-0.494 0.047,-0.665c0.044,-0.153 0.096,-0.307 0.129,-0.455c0.03,-0.132 0.167,-0.293 0.22,-0.436c0.042,-0.112 0.106,-0.16 0.174,-0.263c0.043,-0.064 0.074,-0.165 0.109,-0.217c0.076,-0.116 0.217,-0.21 0.306,-0.338c0.065,-0.093 0.132,-0.206 0.243,-0.287c0.036,-0.025 0.096,-0.053 0.129,-0.068c0.052,-0.022 0.118,-0.099 0.177,-0.122c0.098,-0.038 0.306,-0.006 0.38,0.027c0.26,0.117 0.589,0.216 0.72,0.462c0.111,0.21 0.088,0.525 0.122,0.774c0.019,0.138 0.067,0.27 0.122,0.407c0.056,0.139 0.205,0.324 0.394,0.238c0.14,-0.064 0.16,-0.203 0.176,-0.333c0.027,-0.214 -0.047,-0.505 0.041,-0.706c0.072,-0.164 0.312,-0.199 0.5,-0.19c0.342,0.016 0.522,0.193 0.804,0.38c0.062,0.042 0.121,0.066 0.176,0.095c0.137,0.074 0.256,0.169 0.387,0.258c0.088,0.061 0.167,0.095 0.258,0.15c0.129,0.077 0.359,0.281 0.536,0.199c0.37,-0.173 -0.111,-0.646 -0.251,-0.77c-0.115,-0.102 -0.238,-0.163 -0.36,-0.244c-0.201,-0.134 -0.391,-0.318 -0.584,-0.502c-0.082,-0.079 -0.349,-0.163 -0.281,-0.305c0.089,-0.183 0.441,-0.057 0.58,-0.042c0.5,0.056 0.846,0.221 1.371,0.319c0.307,0.058 0.626,0.136 0.934,0.171c0.099,0.011 0.265,0.049 0.352,-0.014c0.091,-0.067 0.107,-0.212 0.045,-0.305c-0.067,-0.1 -0.242,-0.182 -0.326,-0.232c-0.095,-0.056 -0.21,-0.12 -0.299,-0.149c-0.261,-0.087 -0.461,-0.161 -0.706,-0.265c-0.2,-0.084 -0.536,-0.187 -0.746,-0.251c-0.177,-0.054 -0.271,-0.094 -0.401,-0.143c-0.153,-0.056 -0.24,-0.074 -0.401,-0.128c-0.033,-0.012 -0.094,-0.042 -0.149,-0.068c-0.025,-0.013 -0.13,-0.109 -0.176,-0.109c0,-0.264 0.345,-0.335 0.556,-0.394c0.114,-0.031 0.205,-0.062 0.326,-0.081c0.185,-0.03 0.475,-0.043 0.693,-0.095c0.077,-0.019 0.18,-0.074 0.258,-0.095c0.146,-0.04 0.354,-0.059 0.475,-0.082c0.14,-0.026 0.27,-0.063 0.407,-0.122c0.089,-0.038 0.221,-0.047 0.28,-0.15c0.238,-0.413 -0.508,-0.366 -0.687,-0.366c-0.45,0 -0.89,0.034 -1.314,0.082c-0.34,0.037 -0.739,0.074 -1.089,0.081c-0.118,0.002 -0.258,0.011 -0.372,-0.013c-0.061,-0.014 -0.223,-0.088 -0.273,-0.15c-0.159,-0.195 0.061,-0.632 0.156,-0.794c0.095,-0.164 0.186,-0.251 0.319,-0.36c0.116,-0.095 0.266,-0.272 0.176,-0.426c-0.102,-0.172 -0.434,-0.13 -0.55,-0.063c-0.103,0.06 -0.195,0.182 -0.285,0.267c-0.086,0.082 -0.162,0.141 -0.257,0.233c-0.062,0.06 -0.126,0.09 -0.177,0.152c-0.062,0.074 -0.119,0.119 -0.19,0.177c-0.157,0.126 -0.28,0.336 -0.462,0.448c-0.127,0.078 -0.308,0.251 -0.475,0.244c-0.084,-0.004 -0.113,-0.014 -0.176,-0.027c-0.075,-0.015 -0.119,0.009 -0.191,0.027c-0.066,0.017 -0.182,0.005 -0.244,0.014c-0.085,0.011 -0.123,0.035 -0.222,0.04c-0.121,0.007 -0.179,0.015 -0.267,0.054c-0.065,0.03 -0.141,0.036 -0.224,0.048c-0.083,0.012 -0.136,0.057 -0.21,0.088c-0.092,0.039 -0.166,0.029 -0.258,0.068c-0.08,0.034 -0.212,0.115 -0.272,0.163c-0.1,0.08 -0.16,0.18 -0.23,0.299c-0.036,0.06 -0.092,0.124 -0.123,0.19c-0.038,0.081 -0.048,0.176 -0.095,0.272c-0.046,0.094 -0.094,0.115 -0.102,0.251c-0.006,0.117 -0.046,0.12 -0.074,0.197c-0.012,0.033 0.001,0.067 -0.014,0.108c-0.011,0.03 -0.058,0.062 -0.07,0.102c-0.02,0.069 -0.004,0.129 -0.035,0.19c-0.014,0.028 -0.072,0.074 -0.085,0.088c-0.03,0.034 -0.068,0.074 -0.095,0.122c-0.029,0.051 -0.037,0.111 -0.068,0.15c-0.016,0.019 -0.071,0.042 -0.081,0.054c-0.02,0.025 -0.032,0.057 -0.047,0.079c-0.017,0.023 0.007,0.065 -0.008,0.084c-0.013,0.018 -0.053,0.005 -0.066,0.029c-0.052,0.093 -0.071,0.136 -0.149,0.206c-0.052,0.048 -0.146,0.128 -0.199,0.159c-0.034,0.02 -0.083,0.017 -0.115,0.041c-0.052,0.038 -0.087,0.106 -0.138,0.149c-0.042,0.034 -0.064,0.051 -0.113,0.082c-0.071,0.045 -0.12,0.053 -0.184,0.088c-0.096,0.052 -0.106,0.162 -0.197,0.224c-0.016,0.011 -0.038,0.02 -0.061,0.033c-0.087,0.051 -0.071,0.074 -0.129,0.139c-0.102,0.114 -0.263,0.226 -0.402,0.335c-0.054,0.042 -0.121,0.102 -0.161,0.131c-0.099,0.07 -0.114,0.131 -0.183,0.203c-0.085,0.089 -0.196,0.194 -0.292,0.258c-0.07,0.047 -0.148,0.102 -0.211,0.177c-0.072,0.088 -0.101,0.161 -0.246,0.164c-0.077,0.002 -0.083,-0.034 -0.141,-0.056c-0.074,-0.026 -0.214,0.019 -0.298,0.021c-0.201,0.006 -0.374,0.028 -0.59,0.04c-0.142,0.008 -0.134,0.01 -0.235,0.082c-0.084,0.06 -0.185,0.055 -0.284,0.109c-0.065,0.035 -0.087,0.127 -0.154,0.169c-0.006,0.004 -0.099,0.033 -0.102,0.034c-0.02,0.008 -0.044,0.028 -0.074,0.038c-0.059,0.019 -0.139,0.007 -0.198,0c-0.06,-0.008 -0.102,-0.05 -0.173,-0.031c-0.064,0.017 -0.066,0.066 -0.105,0.122c-0.04,0.059 -0.103,0.143 -0.175,0.168c-0.116,0.042 -0.247,0.042 -0.354,0.083c-0.123,0.048 -0.315,0.061 -0.462,0.082c-0.198,0.028 -0.334,0.072 -0.509,0.143c-0.038,0.015 -0.095,0.052 -0.102,0.054c-0.038,0.01 -0.066,-0.001 -0.109,0.007c-0.07,0.011 -0.095,0.018 -0.149,0.04c-0.087,0.037 -0.183,0.078 -0.285,0.102c-0.074,0.018 -0.242,-0.004 -0.312,0.027c-0.088,0.039 -0.122,0.118 -0.19,0.177c-0.072,0.061 -0.191,0.071 -0.285,0.095c-0.021,0.005 -0.093,0.038 -0.123,0.041c-0.182,0.015 -0.247,-0.047 -0.407,0.095c-0.123,0.109 -0.197,0.157 -0.339,0.19c-0.108,0.025 -0.128,0.043 -0.204,0.122c-0.066,0.069 -0.18,0.181 -0.244,0.203c-0.084,0.03 -0.139,0.026 -0.204,0.055c-0.082,0.036 -0.164,0.064 -0.276,0.104c-0.107,0.039 -0.15,0.1 -0.213,0.188c-0.059,0.084 -0.093,0.127 -0.149,0.183c-0.062,0.062 -0.072,0.142 -0.136,0.19c-0.048,0.036 -0.142,0.04 -0.19,0.068c-0.054,0.031 -0.11,0.105 -0.176,0.136c-0.126,0.058 -0.139,0.09 -0.204,0.163c-0.075,0.084 -0.128,0.163 -0.236,0.208c-0.13,0.054 -0.176,0.055 -0.253,0.185c-0.017,0.029 -0.039,0.057 -0.068,0.096c-0.02,0.026 -0.047,0.089 -0.078,0.132c-0.059,0.082 -0.157,0.098 -0.221,0.153c-0.136,0.117 -0.174,0.333 -0.285,0.475c-0.085,0.108 -0.173,0.191 -0.231,0.299c-0.044,0.083 -0.076,0.135 -0.149,0.197c-0.065,0.054 -0.061,0.061 -0.122,0.142c-0.051,0.068 -0.141,0.109 -0.19,0.178c-0.041,0.057 -0.049,0.116 -0.073,0.184c-0.022,0.065 -0.059,0.101 -0.09,0.181c-0.057,0.147 -0.093,0.291 -0.183,0.407c-0.071,0.091 -0.173,0.23 -0.211,0.326c-0.029,0.075 0.013,0.181 -0.009,0.271c-0.007,0.031 -0.028,0.061 -0.045,0.089c-0.013,0.021 -0.058,0.047 -0.068,0.068c-0.01,0.02 -0.011,0.067 -0.024,0.088c-0.093,0.153 -0.215,0.239 -0.227,0.428c-0.007,0.102 -0.023,0.169 -0.048,0.265c-0.019,0.073 -0.011,0.129 -0.015,0.229c-0.001,0.044 -0.032,0.084 -0.037,0.13c-0.012,0.116 -0.005,0.18 -0.036,0.265c-0.033,0.091 -0.074,0.223 -0.122,0.326c-0.025,0.054 -0.068,0.107 -0.075,0.163c-0.011,0.096 0.044,0.181 0.053,0.269c0.016,0.15 -0.055,0.302 -0.08,0.44c-0.024,0.135 -0.063,0.239 -0.037,0.398c0.02,0.127 0.004,0.185 -0.004,0.301c-0.008,0.118 -0.054,0.236 -0.055,0.35c-0.001,0.036 0.033,0.12 0.042,0.156c0.024,0.099 0.014,0.185 0.007,0.272c-0.008,0.081 0.027,0.154 0.033,0.217c0.006,0.058 0.007,0.151 0.021,0.217c0.029,0.135 0.043,0.321 0.068,0.489c0.023,0.161 0.071,0.379 0.115,0.516c0.04,0.124 0.066,0.224 0.122,0.353c0.101,0.233 0.199,0.48 0.258,0.72c0.052,0.209 0.15,0.423 0.306,0.611c0.065,0.079 0.097,0.147 0.129,0.217c0.052,0.114 0.146,0.199 0.23,0.326c0.063,0.094 0.103,0.198 0.177,0.298c0.092,0.126 0.235,0.277 0.353,0.408c0.116,0.128 0.186,0.26 0.308,0.384c0.084,0.084 0.163,0.15 0.253,0.243c0.055,0.056 0.083,0.107 0.131,0.16c0.052,0.055 0.134,0.088 0.19,0.129c0.051,0.038 0.091,0.087 0.141,0.132c0.055,0.049 0.117,0.084 0.172,0.119c0.129,0.084 0.246,0.187 0.38,0.286c0.114,0.083 0.259,0.161 0.367,0.231c0.116,0.075 0.204,0.156 0.339,0.23c0.084,0.046 0.207,0.084 0.312,0.116c0.185,0.056 0.352,0.157 0.53,0.244c0.198,0.096 0.402,0.161 0.638,0.231c0.125,0.037 0.209,0.072 0.339,0.115c0.19,0.063 0.506,0.099 0.74,0.136c0.508,0.08 1.127,0.103 1.679,0.088c0.237,-0.006 0.494,-0.082 0.704,-0.095c0.136,-0.008 0.232,-0.031 0.353,-0.054c0.133,-0.026 0.246,-0.055 0.367,-0.082c0.15,-0.032 0.311,-0.064 0.448,-0.108c0.237,-0.076 0.423,-0.222 0.651,-0.306c0.197,-0.072 0.46,-0.171 0.639,-0.285c0.095,-0.061 0.173,-0.111 0.271,-0.176c0.155,-0.104 0.285,-0.202 0.435,-0.326c0.083,-0.069 0.215,-0.168 0.298,-0.245c0.148,-0.135 0.261,-0.291 0.394,-0.434c0.118,-0.127 0.25,-0.283 0.34,-0.435c0.077,-0.13 0.195,-0.29 0.257,-0.434c0.08,-0.184 0.16,-0.385 0.258,-0.597c0.14,-0.303 0.254,-0.652 0.299,-0.978c0.068,-0.493 0.134,-0.987 0.041,-1.48c-0.06,-0.32 -0.123,-0.521 -0.204,-0.835c-0.042,-0.164 -0.097,-0.364 -0.176,-0.509c-0.056,-0.103 -0.114,-0.206 -0.156,-0.292c-0.122,-0.247 -0.287,-0.457 -0.435,-0.692c-0.181,-0.289 -0.455,-0.547 -0.726,-0.72c-0.155,-0.099 -0.323,-0.269 -0.482,-0.373c-0.126,-0.083 -0.242,-0.141 -0.374,-0.197c-0.256,-0.11 -0.489,-0.165 -0.753,-0.251c-0.253,-0.083 -0.515,-0.14 -0.794,-0.166c-0.12,-0.011 -0.213,0.011 -0.299,0.016c-0.181,0.012 -0.365,-0.023 -0.547,-0.01c-0.222,0.016 -0.446,0.037 -0.607,0.092c-0.191,0.065 -0.36,0.15 -0.557,0.217c-0.213,0.073 -0.474,0.255 -0.665,0.407c-0.108,0.086 -0.23,0.24 -0.339,0.34c-0.131,0.118 -0.266,0.216 -0.367,0.339c-0.161,0.197 -0.292,0.405 -0.46,0.655c-0.117,0.173 -0.19,0.407 -0.26,0.622c-0.064,0.196 -0.149,0.377 -0.19,0.61c-0.034,0.194 -0.084,0.411 -0.075,0.639c0.01,0.234 0.038,0.45 0.071,0.66c0.05,0.324 0.151,0.671 0.283,0.942c0.165,0.343 0.35,0.72 0.617,1.059c0.234,0.296 0.5,0.586 0.767,0.886c0.111,0.124 0.171,0.232 0.265,0.363c0.063,0.087 0.272,0.267 0.272,0.393c-0.213,-0.03 -0.359,-0.021 -0.571,-0.054c-0.081,-0.012 -0.211,-0.023 -0.298,-0.04c-0.008,-0.002 -0.046,-0.027 -0.068,-0.028c-0.015,0 -0.108,0.018 -0.129,0.014c-0.078,-0.014 -0.148,-0.131 -0.224,-0.163c-0.069,-0.029 -0.183,-0.02 -0.238,-0.048c-0.088,-0.043 -0.084,-0.117 -0.176,-0.141c-0.083,-0.021 -0.095,0.003 -0.184,-0.035c-0.051,-0.022 -0.164,-0.014 -0.217,-0.047c-0.079,-0.051 -0.076,-0.108 -0.186,-0.135c-0.065,-0.015 -0.169,-0.007 -0.212,-0.047c-0.026,-0.024 -0.011,-0.07 -0.042,-0.1c-0.038,-0.036 -0.094,-0.045 -0.134,-0.06c-0.077,-0.03 -0.086,-0.062 -0.132,-0.12c-0.015,-0.019 -0.036,-0.068 -0.054,-0.095c-0.004,-0.006 -0.034,-0.031 -0.041,-0.041l-0.041,0c-0.003,-0.024 -0.006,-0.048 -0.01,-0.071c-0.134,-0.181 -0.396,-0.215 -0.546,-0.404c-0.02,-0.025 -0.026,-0.046 -0.054,-0.068c-0.056,-0.044 -0.12,-0.059 -0.166,-0.106c-0.071,-0.073 -0.012,-0.038 -0.045,-0.141c-0.014,-0.044 -0.052,-0.059 -0.071,-0.103c-0.026,-0.057 -0.036,-0.097 -0.072,-0.146c-0.035,-0.049 -0.077,-0.085 -0.108,-0.129c-0.045,-0.064 -0.037,-0.108 -0.067,-0.18c-0.02,-0.047 -0.115,-0.134 -0.151,-0.173c0.011,0.012 -0.053,-0.053 -0.054,-0.054c-0.019,-0.019 -0.042,-0.03 -0.068,-0.033c-0.043,-0.003 -0.056,-0.033 -0.04,-0.089c-0.054,-0.063 -0.142,-0.116 -0.154,-0.188c-0.007,-0.044 0.054,-0.118 0.045,-0.165c0.002,0.008 -0.024,-0.059 -0.027,-0.068c-0.001,-0.003 -0.048,-0.109 -0.054,-0.122c-0.019,-0.04 -0.07,-0.164 -0.109,-0.19c0.017,-0.128 0.101,-0.184 -0.023,-0.337c-0.029,-0.035 -0.055,-0.039 -0.072,-0.071c-0.011,-0.02 -0.017,-0.088 -0.025,-0.115c-0.012,-0.038 -0.044,-0.045 -0.05,-0.081c-0.002,-0.014 0.03,-0.057 0.034,-0.075c0.022,-0.094 -0.033,-0.17 -0.027,-0.231c0.017,-0.172 -0.011,-0.307 0.02,-0.445c0.03,-0.128 -0.023,-0.199 -0.061,-0.288c-0.031,-0.074 -0.041,-0.111 -0.047,-0.204c-0.003,-0.039 -0.035,-0.108 -0.03,-0.158c0.01,-0.082 0.08,-0.13 0.104,-0.208c0.018,-0.058 -0.009,-0.135 0.014,-0.191c0.016,-0.037 0.092,-0.07 0.109,-0.108c0.026,-0.062 0.009,-0.165 0.02,-0.231c0.009,-0.053 0.018,-0.143 0.034,-0.197c0.015,-0.05 0.054,-0.078 0.075,-0.149c0.04,-0.136 -0.02,-0.281 0.034,-0.401c0.029,-0.065 0.125,-0.134 0.176,-0.196c0.09,-0.112 0.108,-0.269 0.163,-0.381c0.018,-0.037 0.064,-0.09 0.075,-0.129c0.025,-0.087 -0.024,-0.19 0.047,-0.271c0.039,-0.045 0.089,-0.042 0.122,-0.109c0.044,-0.088 0.031,-0.178 0.151,-0.216c0.042,-0.013 0.047,0.019 0.087,-0.001c0.067,-0.033 0.123,-0.115 0.156,-0.183c0.029,-0.06 -0.016,-0.134 0.021,-0.197c0.029,-0.049 0.096,-0.069 0.142,-0.123c0.03,-0.035 0.057,-0.088 0.095,-0.135c0.007,-0.009 0.047,-0.026 0.054,-0.041c0.021,-0.041 0.005,-0.105 0.024,-0.159c0.035,-0.099 0.102,-0.102 0.153,-0.167c0.023,-0.03 0.043,-0.075 0.054,-0.095c0.046,-0.083 0.042,-0.132 0.166,-0.139c0.084,-0.004 0.15,0.04 0.228,-0.051c0.069,-0.08 0,-0.068 0.081,-0.109c0.041,-0.02 0.117,-0.012 0.173,-0.057c0.03,-0.023 0.042,-0.07 0.072,-0.092c0.033,-0.024 0.087,-0.019 0.122,-0.041c0.047,-0.03 0.047,-0.04 0.068,-0.074c0.022,-0.036 0.024,-0.123 0.054,-0.156c0.074,-0.082 0.277,-0.069 0.367,-0.123c0.027,-0.016 0.054,-0.048 0.088,-0.066c0.101,-0.053 0.05,-0.001 0.159,-0.015c0.081,-0.01 0.134,-0.059 0.228,-0.081c0.116,-0.029 0.323,-0.002 0.417,-0.052c0.059,-0.032 0.052,-0.088 0.085,-0.125c0.072,-0.079 0.104,-0.06 0.231,-0.068c0.168,-0.011 0.245,-0.06 0.424,-0.014c0.124,0.033 0.215,0.046 0.309,0.096c0.13,0.067 0.179,0.183 0.353,0.081c0.168,-0.098 0.222,-0.126 0.448,-0.075c0.058,0.013 0.108,0.049 0.164,0.095c0.095,0.081 0.122,0.074 0.23,0.116c0.078,0.03 0.197,0.12 0.272,0.163c0.067,0.038 0.099,0.103 0.176,0.149c0.071,0.042 0.177,0.015 0.271,0.011c0.172,-0.006 0.284,-0.033 0.476,-0.005c0.301,0.044 0.488,0.167 0.713,0.32c0.081,0.055 0.145,0.154 0.235,0.224c0.095,0.073 0.259,0.106 0.355,0.156c0.181,0.094 0.311,0.265 0.442,0.421c0.127,0.151 0.318,0.27 0.434,0.421c0.085,0.11 0.146,0.233 0.211,0.353c0.026,0.049 -0.002,0.058 0.054,0.108c0.021,0.02 0.07,-0.003 0.095,0.014c0.059,0.041 0.097,0.098 0.149,0.143c0.039,0.033 0.049,0.083 0.088,0.122c0.038,0.038 0.094,0.058 0.129,0.102c0.06,0.073 0.115,0.147 0.17,0.217c0.027,0.033 0.083,0.11 0.116,0.163c0.031,0.051 0.045,0.092 0.081,0.149c0.019,0.03 0.051,0.077 0.068,0.136c0.002,0.007 0.04,0.038 0.041,0.041c0.006,0.038 -0.026,0.078 -0.016,0.118c0.012,0.046 0.082,0.106 0.111,0.14c0.083,0.096 0.056,0.169 0.098,0.305c0.037,0.119 0.141,0.127 0.187,0.238c0.019,0.045 0.013,0.13 0.027,0.162c0.015,0.036 0.054,0.061 0.068,0.096c0.022,0.056 0.016,0.116 0.041,0.163c0.037,0.072 0.068,0.091 0.081,0.172c0.02,0.125 0.015,0.121 0.068,0.215c0.072,0.129 0.069,0.28 0.095,0.4c0.05,0.232 0.304,0.504 0.441,0.686c0.039,0.052 0.091,0.095 0.129,0.149c0.06,0.086 0.117,0.212 0.19,0.278c0.073,0.067 0.187,0.101 0.272,0.17c0.144,0.119 0.203,0.252 0.389,0.292c0.165,0.035 0.188,0.059 0.324,0.122c0.062,0.029 0.12,0.056 0.183,0.068c0.06,0.012 0.122,0.014 0.183,0.027c0.089,0.019 0.176,0.081 0.251,0.116c0.048,0.022 0.12,0.016 0.17,0.047c0.067,0.042 0.132,0.167 0.183,0.231c0.155,0.191 0.307,0.434 0.435,0.652c0.085,0.144 0.13,0.263 0.19,0.407c0.047,0.114 0.123,0.195 0.156,0.312c0.037,0.133 0.006,0.274 0.143,0.362c0.15,0.096 0.294,0.051 0.425,-0.058c0.171,-0.143 0.11,-0.34 0.057,-0.48c-0.052,-0.137 -0.091,-0.314 -0.136,-0.51c-0.085,-0.367 0.034,-0.666 0.387,-0.631c0.155,0.016 0.373,0.055 0.529,0.109c0.126,0.043 0.344,0.063 0.462,0.136c0.456,0.279 0.842,0.419 1.29,0.631c0.172,0.082 0.599,0.395 0.767,0.15c0.159,-0.233 -0.256,-0.573 -0.414,-0.686c-0.223,-0.16 -0.428,-0.314 -0.665,-0.489c-0.189,-0.139 -0.448,-0.172 -0.638,-0.333c-0.119,-0.099 -0.215,-0.208 -0.326,-0.305c-0.138,-0.12 -0.364,-0.269 -0.177,-0.441c0.179,-0.166 0.623,-0.14 0.896,-0.17c0.058,-0.007 0.131,-0.035 0.204,-0.041c0.119,-0.01 0.28,-0.003 0.407,-0.007c0.192,-0.006 0.34,-0.038 0.548,-0.058c0.36,-0.037 0.87,-0.037 1.265,-0.166c0.149,-0.049 0.194,-0.265 0.029,-0.379c-0.168,-0.117 -0.453,-0.124 -0.62,-0.15c-0.224,-0.036 -0.502,-0.012 -0.716,-0.027c-0.289,-0.022 -0.617,-0.008 -0.924,-0.033c-0.233,-0.02 -0.463,-0.053 -0.682,-0.069c-0.045,-0.004 -0.253,-0.002 -0.23,-0.116c0.006,-0.031 0.144,-0.094 0.169,-0.108c0.178,-0.103 0.336,-0.204 0.509,-0.279c0.213,-0.091 0.408,-0.17 0.625,-0.278c0.183,-0.09 0.694,-0.391 0.529,-0.651c-0.12,-0.191 -0.347,-0.076 -0.488,-0.041c-0.166,0.041 -0.331,0.079 -0.455,0.136c-0.252,0.113 -0.458,0.179 -0.727,0.223c-0.233,0.04 -0.938,0.323 -0.914,-0.106c0.009,-0.169 0.121,-0.303 0.161,-0.416c0.037,-0.106 0.125,-0.364 -0.017,-0.486c-0.236,-0.202 -0.578,0.238 -0.689,0.418c-0.171,0.279 -0.408,0.649 -0.72,0.746c-0.167,0.053 -0.397,-0.081 -0.549,-0.135c-0.041,-0.014 -0.124,-0.049 -0.177,-0.054c-0.077,-0.008 -0.157,0.013 -0.228,-0.041c-0.03,-0.023 -0.039,-0.088 -0.071,-0.109c-0.026,-0.017 -0.059,-0.003 -0.09,-0.018c-0.104,-0.052 -0.144,-0.133 -0.229,-0.206c-0.164,-0.14 -0.33,-0.269 -0.482,-0.414c-0.014,-0.013 -0.038,-0.053 -0.061,-0.076c-0.065,-0.067 -0.065,-0.039 -0.102,-0.134c-0.038,-0.098 -0.048,-0.096 -0.122,-0.17c-0.04,-0.04 -0.048,-0.064 -0.068,-0.095c-0.033,-0.052 -0.06,-0.134 -0.088,-0.204c-0.041,-0.098 -0.114,-0.192 -0.17,-0.271c-0.041,-0.059 -0.083,-0.09 -0.115,-0.15c-0.036,-0.067 -0.061,-0.142 -0.102,-0.203c-0.064,-0.096 -0.087,-0.174 -0.143,-0.258c-0.076,-0.118 -0.077,-0.218 -0.115,-0.34c-0.035,-0.113 -0.096,-0.187 -0.127,-0.334c-0.007,-0.03 -0.077,-0.132 -0.022,-0.168c0.028,-0.019 0.106,0.048 0.136,0.054c0.046,0.01 0.172,-0.018 0.224,-0.013c0.027,0.002 0.107,0.008 0.142,0.023c0.065,0.029 0.061,0.1 0.123,0.13c0.121,0.057 0.22,-0.069 0.325,-0.004c0.057,0.035 0.053,0.085 0.109,0.122c0.055,0.038 0.142,0.04 0.203,0.068c0.069,0.031 0.122,0.075 0.204,0.088c0.057,0.009 0.088,-0.02 0.136,-0.006c0.015,0.004 0.039,0.048 0.054,0.054c0.083,0.03 0.193,-0.045 0.285,-0.007c0.073,0.03 0.095,0.121 0.149,0.163c0.052,0.04 0.036,0.034 0.089,0.045c0.032,0.007 0.069,-0.012 0.102,-0.007c0.062,0.01 0.049,0.015 0.095,0.037c0.067,0.031 0.061,0.06 0.142,0.068c0.076,0.006 0.145,-0.041 0.211,-0.068c0.166,-0.071 0.255,0.043 0.38,0.074c0.105,0.027 0.185,0.08 0.271,0.102c0.16,0.041 0.316,-0.055 0.489,-0.068c0.063,-0.004 0.145,-0.011 0.211,0.041c0.042,0.034 0.043,0.098 0.102,0.136c0.118,0.078 0.242,0.06 0.38,0.027c0.124,-0.029 0.214,-0.08 0.36,-0.041c0.074,0.02 0.114,0.036 0.212,0.002c0.107,-0.036 0.159,-0.086 0.247,0.02c0.044,0.054 0.057,0.168 0.131,0.195c0.042,0.016 0.089,-0.012 0.128,-0.013c0.058,-0.002 0.09,0.015 0.139,0.013c0.072,-0.002 0.106,-0.047 0.154,-0.067c0.083,-0.036 0.147,-0.042 0.241,-0.045c0.127,-0.003 0.29,-0.032 0.451,-0.01c0.07,0.01 0.169,0.068 0.231,0.082c0.085,0.019 0.222,-0.041 0.299,-0.014c0.081,0.028 0.059,0.091 0.165,0.063c0.106,-0.029 0.176,-0.129 0.263,-0.171c0.045,-0.023 0.073,-0.028 0.147,-0.025c0.086,0.003 0.146,0.057 0.199,0.065c0.079,0.013 0.18,-0.039 0.231,-0.04c0.1,-0.004 0.198,0.029 0.318,0.014c0.19,-0.023 0.28,0.219 0.469,0.06c0.079,-0.067 0.097,-0.114 0.187,-0.146c0.05,-0.018 0.097,-0.014 0.139,-0.03c0.03,-0.012 0.042,-0.037 0.068,-0.048c0.064,-0.026 0.095,-0.001 0.176,-0.013c0.032,-0.005 0.07,-0.045 0.109,-0.048c0.078,-0.007 0.164,0.062 0.251,0.052c0.041,-0.005 0.02,-0.05 0.048,-0.059c0.023,-0.007 0.059,0.01 0.081,0c0.016,-0.007 0.072,-0.038 0.082,-0.04c0.077,-0.02 0.103,0.003 0.162,-0.041c0.086,-0.064 0.123,-0.163 0.26,-0.155c0.067,0.003 0.134,0.057 0.215,0.062c0.108,0.008 0.157,-0.08 0.258,-0.089c0.099,-0.01 0.145,0.058 0.244,-0.008c0.081,-0.055 0.055,-0.088 0.164,-0.122c0.063,-0.02 0.105,-0.008 0.189,-0.006c0.046,0.001 0.139,-0.046 0.178,-0.035c0.044,0.013 0.031,0.052 0.064,0.071c0.122,0.072 0.199,0.07 0.307,-0.037c0.019,-0.018 0.056,-0.094 0.077,-0.102c0.082,-0.031 0.102,0.043 0.142,0.068c0.147,0.089 0.266,0.113 0.401,-0.055c0.061,-0.075 0.081,-0.102 0.169,-0.128c0.053,-0.016 0.159,-0.067 0.207,-0.059c0.081,0.014 0.095,0.061 0.16,0.086c0.096,0.036 0.186,-0.011 0.251,-0.061c0.1,-0.079 0.124,-0.141 0.277,-0.13c0.084,0.006 0.128,0.042 0.202,0.007c0.042,-0.019 0.089,-0.085 0.105,-0.108c0.031,-0.045 0.01,-0.087 0.068,-0.122c0.04,-0.025 0.092,-0.002 0.136,-0.014c0.026,-0.007 0.114,-0.043 0.154,-0.063c0.075,-0.04 0.124,-0.131 0.207,-0.192c0.089,-0.064 0.159,-0.072 0.25,-0.093c0.119,-0.027 0.137,-0.007 0.23,0.036c0.091,0.041 0.221,0.072 0.299,-0.041c0.031,-0.044 0.01,-0.096 0.061,-0.15c0.126,-0.131 0.311,-0.03 0.455,-0.088c0.064,-0.025 0.055,-0.07 0.089,-0.116c0.02,-0.026 0.11,-0.156 0.155,-0.162c0.1,-0.014 0.117,0.114 0.258,0.081c0.025,-0.005 0.081,-0.047 0.096,-0.061c0.029,-0.028 0.014,-0.082 0.04,-0.115c0.038,-0.048 0.072,-0.066 0.102,-0.115c0.02,-0.033 0.028,-0.082 0.054,-0.108c0.102,-0.101 0.299,-0.009 0.444,-0.05c0.145,-0.041 0.254,-0.368 0.391,-0.338c0.093,0.02 0.099,0.182 0.191,0.231c0.059,0.032 0.133,0.012 0.217,-0.041c0.053,-0.034 0.099,-0.094 0.156,-0.122c0.093,-0.046 0.23,-0.091 0.319,-0.116c0.051,-0.014 0.178,-0.036 0.21,0.014c0.033,0.051 -0.06,0.149 0.021,0.17c-0.012,0.081 -0.098,0.094 -0.123,0.149c-0.019,0.045 -0.019,0.149 -0.027,0.19c0,0.001 -0.012,0.093 -0.013,0.095c-0.023,0.051 -0.083,0.085 -0.097,0.127c-0.009,0.03 0.008,0.063 0.002,0.077c-0.014,0.03 -0.062,0.072 -0.073,0.109c-0.025,0.077 0.034,0.141 -0.09,0.176c-0.032,-0.143 -0.108,-0.274 -0.17,-0.38c-0.057,-0.098 -0.098,-0.258 -0.219,-0.325c-0.183,-0.101 -0.315,0.027 -0.331,0.208c-0.018,0.2 0.029,0.321 0.068,0.483c0.017,0.072 0.048,0.155 0.068,0.231c0.057,0.214 0.059,0.409 0.027,0.611c-0.017,0.108 -0.032,0.139 -0.095,0.231c-0.043,0.062 -0.085,0.109 -0.122,0.183c-0.012,0.026 -0.046,0.044 -0.054,0.068c-0.012,0.032 0.007,0.076 0,0.116c-0.004,0.017 -0.054,0.115 -0.055,0.122c-0.002,0.041 0.022,0.033 0.016,0.077c-0.005,0.038 -0.043,0.112 -0.043,0.14c0.001,0.066 0.084,0.148 0.109,0.204c0.033,0.075 0.079,0.175 0.108,0.258c0.024,0.066 0.053,0.108 0.1,0.171c0.026,0.035 0.052,0.058 0.082,0.105c0.024,0.037 0.014,0.06 0.036,0.104c0.054,0.109 0.226,0.252 0.339,0.326c0.107,0.069 0.215,0.11 0.353,0.126c0.177,0.022 0.298,0.002 0.435,-0.031c0.1,-0.025 0.207,-0.065 0.298,-0.089c0.161,-0.04 0.39,-0.079 0.557,-0.101c0.277,-0.038 0.553,-0.076 0.835,-0.109c0.193,-0.022 0.42,-0.049 0.634,-0.04c0.181,0.008 0.559,0.098 0.663,-0.096c0.155,-0.288 -0.397,-0.395 -0.53,-0.421c-0.241,-0.045 -0.601,-0.041 -0.842,-0.095c-0.153,-0.034 -0.549,-0.052 -0.538,-0.285c0.006,-0.131 0.158,-0.309 0.257,-0.393c0.124,-0.106 0.287,-0.253 0.376,-0.387c0.142,-0.213 0.351,-0.318 0.53,-0.428c0.243,-0.15 0.482,-0.378 0.72,-0.557c0.117,-0.088 0.282,-0.269 0.322,-0.382c0.102,-0.293 -0.181,-0.258 -0.371,-0.227c-0.308,0.05 -0.498,0.263 -0.739,0.419c-0.095,0.061 -0.22,0.109 -0.333,0.204c-0.101,0.084 -0.201,0.142 -0.292,0.217c-0.098,0.082 -0.203,0.136 -0.312,0.19c-0.097,0.048 -0.286,0.135 -0.434,0.136c0.002,-0.158 0.133,-0.228 0.163,-0.326c0.036,-0.119 0.039,-0.203 0.068,-0.299c0.029,-0.099 0.141,-0.198 0.19,-0.312c0.028,-0.065 0.054,-0.126 0.088,-0.204c0.01,-0.023 0.054,-0.071 0.061,-0.095c0.034,-0.11 0.011,-0.224 0.068,-0.312c0.031,-0.049 0.091,-0.109 0.122,-0.149c0.033,-0.043 0.037,-0.089 0.081,-0.123c0.027,-0.019 0.077,-0.019 0.109,-0.04c0.056,-0.037 0.088,-0.118 0.163,-0.163c0.102,-0.061 0.25,-0.05 0.34,-0.163c0.032,-0.042 0.048,-0.111 0.112,-0.149c0.084,-0.051 0.177,-0.093 0.261,-0.129c0.063,-0.028 0.107,-0.051 0.183,-0.075c0.07,-0.022 0.112,0.022 0.196,0.03c0.133,0.013 0.143,-0.058 0.184,-0.152c0.069,-0.159 0.147,-0.032 0.258,-0.055c0.1,-0.02 0.163,-0.161 0.258,-0.224c0.04,-0.026 0.06,-0.031 0.095,-0.047c0.003,-0.001 0.038,-0.026 0.041,-0.027c0.065,-0.035 0.076,-0.062 0.136,-0.109c0.066,-0.051 0.205,-0.024 0.296,-0.064c0.082,-0.036 0.072,-0.048 0.125,-0.112c0.079,-0.099 0.187,-0.171 0.278,-0.204c0.067,-0.024 0.155,-0.031 0.21,-0.068c0.065,-0.044 0.117,-0.143 0.189,-0.178c0.077,-0.036 0.214,-0.04 0.293,-0.06c0.174,-0.043 0.284,-0.1 0.442,-0.169c0.056,-0.025 0.149,-0.035 0.203,-0.068c0.055,-0.034 0.079,-0.074 0.122,-0.095c0.04,-0.02 0.14,-0.03 0.194,-0.063c0.061,-0.037 0.064,-0.061 0.108,-0.096c0.084,-0.067 0.148,-0.061 0.255,-0.099c0.031,-0.011 0.062,-0.066 0.095,-0.075c0.034,-0.009 0.097,-0.007 0.122,-0.007c0.13,0 0.211,-0.013 0.313,-0.068c0.151,-0.081 0.251,-0.018 0.421,-0.006c0.062,0.004 0.129,-0.025 0.19,-0.007c0.016,0.005 0.068,0.049 0.081,0.054c0.09,0.037 0.265,0.026 0.34,0.014c0.05,-0.009 0.125,-0.062 0.184,-0.063c0.113,-0.001 0.2,0.071 0.318,0.049c0.078,-0.014 0.212,-0.125 0.299,-0.149c0.297,-0.085 0.503,-0.056 0.814,-0.143c0.156,-0.043 0.394,-0.105 0.557,-0.163c0.247,-0.088 0.449,-0.178 0.638,-0.244c0.185,-0.065 0.368,-0.152 0.543,-0.238c0.056,-0.027 0.136,-0.074 0.19,-0.108c0.056,-0.035 0.256,-0.231 0.326,-0.231c0,-0.053 -0.045,-0.024 0.048,-0.081c0.027,-0.017 0.086,-0.046 0.102,-0.055c0.089,-0.048 0.167,-0.084 0.244,-0.149c0.063,-0.054 0.104,-0.156 0.163,-0.217c0.007,-0.008 0.057,0.009 0.054,0.013c0.014,-0.016 0.014,-0.056 0.027,-0.068c0.037,-0.032 0.071,-0.057 0.107,-0.095c0.43,-0.449 0.964,-0.843 1.346,-1.344c0.21,-0.275 0.346,-0.541 0.543,-0.828c0.15,-0.219 0.213,-0.405 0.353,-0.665c0.055,-0.102 0.165,-0.281 0.231,-0.408c0.028,-0.055 0.04,-0.093 0.068,-0.163c0.009,-0.024 0.071,-0.219 0.068,-0.217" style="fill-rule:nonzero;"/></g></g></g></svg>