<?xml version="1.0" encoding="UTF-8" standalone="no"?><!DOCTYPE svg PUBLIC "-//W3C//DTD SVG 1.1//EN" "http://www.w3.org/Graphics/SVG/1.1/DTD/svg11.dtd"><svg width="100%" height="100%" viewBox="0 0 64 64" version="1.1" xmlns="http://www.w3.org/2000/svg" xmlns:xlink="http://www.w3.org/1999/xlink" xml:space="preserve" xmlns:serif="http://www.serif.com/" style="fill-rule:evenodd;clip-rule:evenodd;stroke-miterlimit:10;"><g id="Habitats"><g id="Coastal"><g id="salt-marsh" serif:id="salt marsh"><path d="M29.223,36.54c-0.121,-1.299 -0.261,-2.731 -0.459,-4.233c-0.238,-1.889 -0.57,-3.892 -1.094,-5.884c-1.003,-3.986 -2.796,-7.913 -4.312,-10.823c-0.385,-0.727 -0.738,-1.392 -1.051,-1.982c-0.329,-0.588 -0.614,-1.1 -0.85,-1.522c-0.474,-0.842 -0.744,-1.323 -0.744,-1.323c0,0 0.296,0.477 0.816,1.312c0.258,0.418 0.571,0.926 0.931,1.51c0.346,0.585 0.735,1.247 1.161,1.969c1.674,2.89 3.689,6.809 4.923,10.826c0.638,2.006 1.084,4.028 1.427,5.93c0.354,1.903 0.609,3.687 0.836,5.235l0.174,1.223c0.171,0.001 0.342,0.002 0.513,0.003c0.015,-0.177 0.031,-0.359 0.048,-0.546c0.175,-2.586 0.227,-5.978 -0.635,-9.329c-0.818,-3.352 -2.435,-6.627 -3.795,-9.042c-0.694,-1.206 -1.278,-2.209 -1.719,-2.904c-0.429,-0.698 -0.674,-1.095 -0.674,-1.095c0,0 0.272,0.392 0.749,1.079c0.488,0.686 1.14,1.676 1.918,2.869c1.527,2.387 3.38,5.642 4.444,9.029c1.108,3.386 1.293,6.847 1.291,9.47c-0.003,0.164 -0.006,0.326 -0.01,0.484c0.209,0.002 0.418,0.005 0.626,0.008c-0.016,-0.539 -0.033,-1.126 -0.092,-1.753c-0.205,-3.02 -0.813,-6.97 -1.998,-10.861c-1.12,-3.895 -2.841,-7.713 -4.327,-10.534c-0.353,-0.709 -0.739,-1.347 -1.055,-1.918c-0.314,-0.571 -0.613,-1.063 -0.865,-1.467c-0.497,-0.811 -0.781,-1.273 -0.781,-1.273c0,0 0.31,0.457 0.852,1.258c0.275,0.4 0.602,0.888 0.948,1.453c0.348,0.565 0.77,1.198 1.164,1.902c1.646,2.799 3.589,6.601 4.936,10.505c1.411,3.897 2.249,7.878 2.623,10.933c0.095,0.638 0.144,1.236 0.191,1.785c0.09,0.002 0.18,0.004 0.269,0.006c0.039,-0.6 0.071,-1.288 0.08,-2.044c0.033,-2.589 -0.271,-5.985 -1.082,-9.346c-0.784,-3.361 -1.894,-6.69 -2.797,-9.164c-0.473,-1.234 -1.115,-2.226 -1.629,-2.903c-0.254,-0.339 -0.471,-0.601 -0.622,-0.779c-0.151,-0.178 -0.232,-0.272 -0.232,-0.272c0,0 0.087,0.092 0.25,0.267c0.162,0.174 0.396,0.432 0.673,0.766c0.558,0.667 1.27,1.653 1.828,2.888c1.069,2.466 2.396,5.77 3.406,9.142c1.037,3.369 1.571,6.807 1.705,9.44c0.038,0.759 0.051,1.451 0.05,2.056c0.112,0.004 0.223,0.009 0.333,0.013c0.018,-1.255 0.012,-2.707 -0.054,-4.15c-0.076,-1.88 -0.257,-3.742 -0.47,-5.13c-0.108,-0.694 -0.21,-1.27 -0.304,-1.671c-0.085,-0.402 -0.133,-0.631 -0.133,-0.631c0,0 0.075,0.226 0.208,0.622c0.141,0.395 0.311,0.964 0.502,1.651c0.377,1.374 0.779,3.225 1.076,5.1c0.244,1.489 0.423,2.992 0.55,4.277c0.297,0.018 0.587,0.037 0.868,0.057c0,-1.802 -0.066,-3.961 -0.288,-6.111c-0.252,-2.552 -0.743,-5.086 -1.4,-6.961c-0.157,-0.468 -0.349,-0.893 -0.494,-1.272c-0.135,-0.381 -0.318,-0.703 -0.462,-0.97c-0.285,-0.534 -0.448,-0.839 -0.448,-0.839c0,0 0.188,0.3 0.519,0.826c0.167,0.264 0.379,0.583 0.546,0.961c0.179,0.376 0.409,0.798 0.607,1.266c0.822,1.867 1.535,4.408 2.008,6.973c0.417,2.199 0.671,4.415 0.823,6.253c0.209,0.023 0.411,0.046 0.605,0.072c-0.048,-0.448 -0.103,-0.935 -0.166,-1.455c-0.31,-2.504 -0.839,-5.773 -1.775,-8.993c-0.913,-3.22 -2.284,-6.387 -3.793,-8.668c-0.747,-1.141 -1.488,-2.064 -2.062,-2.693c-0.275,-0.318 -0.535,-0.554 -0.692,-0.722c-0.163,-0.165 -0.25,-0.253 -0.25,-0.253c0,0 0.092,0.086 0.265,0.248c0.167,0.164 0.443,0.395 0.738,0.707c0.614,0.618 1.415,1.529 2.237,2.661c1.66,2.262 3.24,5.425 4.363,8.653c1.145,3.227 1.883,6.512 2.348,9.029c0.111,0.608 0.208,1.171 0.292,1.678c0.228,0.02 0.461,0.036 0.697,0.049c-0.033,-0.385 -0.068,-0.794 -0.107,-1.224c-0.248,-2.657 -0.646,-6.123 -1.418,-9.549c-0.782,-3.422 -1.835,-6.824 -3.296,-9.266c-0.712,-1.224 -1.518,-2.198 -2.138,-2.86c-0.317,-0.328 -0.573,-0.585 -0.763,-0.754c-0.185,-0.171 -0.284,-0.262 -0.284,-0.262c0,0 0.104,0.089 0.299,0.256c0.201,0.165 0.472,0.416 0.81,0.739c0.661,0.651 1.531,1.614 2.323,2.832c1.622,2.435 2.889,5.836 3.886,9.265c0.986,3.436 1.598,6.918 2.005,9.584c0.068,0.449 0.13,0.875 0.187,1.274c0.128,0 0.257,-0.001 0.386,-0.003c-0.006,-0.046 -0.013,-0.092 -0.019,-0.138c-0.301,-2.117 -0.453,-4.864 -0.811,-7.578c-0.171,-1.358 -0.429,-2.707 -0.771,-3.964c-0.091,-0.314 -0.181,-0.622 -0.268,-0.924c-0.089,-0.301 -0.214,-0.592 -0.315,-0.878c-0.191,-0.573 -0.448,-1.104 -0.681,-1.596c-0.209,-0.496 -0.496,-0.933 -0.717,-1.327c-0.116,-0.196 -0.217,-0.381 -0.324,-0.55c-0.117,-0.166 -0.226,-0.318 -0.324,-0.456c-0.391,-0.551 -0.615,-0.865 -0.615,-0.865c0,0 0.248,0.308 0.682,0.849c0.108,0.136 0.229,0.286 0.36,0.449c0.119,0.166 0.235,0.349 0.366,0.543c0.252,0.39 0.576,0.824 0.824,1.317c0.272,0.488 0.572,1.018 0.81,1.591c0.124,0.285 0.272,0.577 0.386,0.879c0.112,0.302 0.226,0.611 0.342,0.926c0.443,1.26 0.809,2.618 1.087,3.982c0.572,2.728 0.934,5.474 1.39,7.561c0.009,0.044 0.018,0.087 0.028,0.131c0.328,-0.017 0.656,-0.037 0.984,-0.06c-0.042,-0.257 -0.091,-0.529 -0.147,-0.812c-0.452,-2.186 -1.044,-5.039 -1.631,-7.872c-0.629,-3.038 -1.254,-6.052 -1.699,-8.194c-0.104,-0.162 -0.207,-0.32 -0.307,-0.474c-1.412,-2.169 -2.348,-3.608 -2.348,-3.608l2.528,3.466l-0.506,-2.439l0.807,2.854c0.722,0.993 1.538,2.128 2.326,3.36c0.875,1.368 1.686,2.863 2.319,4.387c0.639,1.523 1.113,3.07 1.487,4.529c0.386,1.457 0.662,2.842 0.765,4.054c0.014,0.14 0.025,0.278 0.033,0.413l0.034,-0.004l0.099,-0.011c0.019,-2.114 -0.187,-4.809 -0.696,-7.487c-0.256,-1.401 -0.59,-2.796 -0.924,-4.099c-0.344,-1.304 -0.67,-2.516 -1.093,-3.539c-0.413,-1.023 -0.905,-1.856 -1.328,-2.42c-0.205,-0.284 -0.389,-0.501 -0.517,-0.648c-0.13,-0.147 -0.2,-0.225 -0.2,-0.225c0,0 0.075,0.077 0.216,0.22c0.14,0.144 0.339,0.357 0.567,0.636c0.465,0.555 1.024,1.382 1.518,2.404c0.503,1.021 0.921,2.234 1.364,3.532c0.433,1.3 0.873,2.694 1.236,4.099c0.693,2.608 1.102,5.257 1.252,7.375c0.315,-0.034 0.615,-0.066 0.898,-0.094c0.107,-0.849 0.2,-1.788 0.198,-2.777c0,-1.241 -0.079,-2.562 -0.338,-3.877c-0.493,-2.632 -1.522,-5.229 -2.404,-7.152c-0.45,-0.961 -0.827,-1.761 -1.114,-2.317c-0.279,-0.557 -0.438,-0.875 -0.438,-0.875c0,0 0.188,0.313 0.519,0.861c0.338,0.548 0.79,1.336 1.329,2.286c1.06,1.901 2.339,4.479 3.09,7.146c0.387,1.332 0.595,2.683 0.712,3.955c0.087,0.931 0.09,1.819 0.067,2.633c0.166,-0.004 0.315,-0.003 0.444,0.003c0.06,-0.369 0.113,-0.759 0.154,-1.17c0.307,-2.876 -0.123,-6.697 -1.274,-10.452c-0.27,-0.94 -0.597,-1.871 -0.958,-2.782c-0.375,-0.909 -0.81,-1.794 -1.303,-2.637c-0.995,-1.684 -2.263,-3.185 -3.345,-4.469c-2.196,-2.562 -3.522,-4.297 -3.522,-4.297c0,0 1.42,1.709 3.754,4.228c1.151,1.263 2.51,2.748 3.613,4.44c0.547,0.845 1.038,1.735 1.468,2.65c0.416,0.916 0.799,1.854 1.123,2.797c1.368,3.764 2.025,7.643 1.871,10.608c-0.018,0.413 -0.049,0.807 -0.089,1.181l0.061,0.004l0.163,0.011c0.031,-0.377 0.061,-0.777 0.089,-1.199c0.151,-2.638 0.101,-6.097 -0.661,-9.508c-0.701,-3.414 -2.066,-6.759 -3.218,-9.235c-0.592,-1.236 -1.097,-2.263 -1.481,-2.976c-0.374,-0.715 -0.588,-1.123 -0.588,-1.123c0,0 0.239,0.403 0.657,1.11c0.428,0.705 0.996,1.721 1.665,2.947c1.306,2.455 2.883,5.783 3.803,9.217c0.98,3.429 1.246,6.934 1.252,9.607c-0.003,0.446 -0.009,0.868 -0.018,1.265l0.17,0.012l0.139,0.01c0.279,-2.263 0.485,-5.381 0.047,-8.499c-0.37,-2.881 -1.271,-5.732 -2.048,-7.851c-0.401,-1.059 -0.742,-1.939 -1.005,-2.552c-0.256,-0.614 -0.401,-0.964 -0.401,-0.964c0,0 0.171,0.347 0.471,0.955c0.307,0.607 0.712,1.48 1.192,2.531c0.932,2.105 2.046,4.949 2.633,7.858c0.247,1.138 0.405,2.282 0.501,3.387l-0.12,0.026c0.003,0.013 0.219,1.293 -0.623,4.952c-0.016,0.068 -0.031,0.134 -0.047,0.2l0.01,0.001c0,0 -0.011,0.031 -0.032,0.09c-0.387,1.611 -0.815,2.832 -1.118,3.599c-0.002,-0.029 -0.002,-0.059 -0.002,-0.088c-0.117,0.597 -0.421,1.068 -0.763,1.203c-0.627,1.406 -1.351,2.87 -2.085,4.012c-1.732,2.697 -3.062,4.219 -3.062,4.219c0,0 -6.086,1.707 -11.684,0.883c-5.598,-0.825 -6.647,0.237 -13.134,0.612c-6.488,0.374 -5.704,-0.991 -10.1,-1.2c-5.475,-0.261 -6.573,0.934 -6.573,0.934c0,0 -3.08,-3.416 -5.187,-6.87c-2.107,-3.455 -2.876,-7.031 -2.876,-7.031c0,0 0.829,-0.049 2.153,-0.12c-0.102,-1.08 -0.309,-2.421 -0.712,-3.992c-0.466,-1.818 -1.233,-3.517 -1.974,-5.245c-0.222,-0.518 -0.049,-2.734 0.229,-2.327c1.298,1.901 2.518,4.341 3.176,6.454c0.378,1.21 0.71,2.67 0.978,4.018c-0.041,-0.824 -0.13,-1.758 -0.291,-2.795c-0.687,-4.443 -3.221,-9.651 -3.49,-10.811c0.198,-0.32 0.395,-0.641 0.58,-0.946c0.457,1.44 3.593,6.686 4.444,10.783c0.295,1.421 0.5,3.162 0.637,4.681l0.122,-0.006c0.027,-0.751 -0.004,-1.629 -0.148,-2.607c-0.195,-1.541 -0.628,-3.321 -1.149,-5.207c-0.527,-1.886 -1.19,-3.875 -1.966,-5.841c-0.471,-1.205 -0.989,-2.401 -1.53,-3.56l0.285,-0.915c0.763,1.392 1.501,2.851 2.172,4.327c0.896,1.96 1.682,3.948 2.324,5.837c0.635,1.889 1.177,3.674 1.47,5.256c0.062,0.321 0.114,0.633 0.156,0.935c-0.117,-2.012 -0.446,-4.45 -1.025,-6.858c-0.323,-1.385 -0.723,-2.758 -1.119,-4.04c-0.407,-1.283 -0.79,-2.474 -1.26,-3.471c-0.462,-0.998 -0.994,-1.802 -1.442,-2.34c-0.22,-0.272 -0.413,-0.478 -0.548,-0.617c-0.137,-0.139 -0.21,-0.213 -0.21,-0.213c0,0 0.078,0.071 0.226,0.206c0.146,0.136 0.356,0.337 0.596,0.603c0.492,0.528 1.089,1.321 1.631,2.313c0.551,0.991 1.027,2.178 1.531,3.448c0.494,1.274 1.001,2.64 1.431,4.023c0.879,2.763 1.433,5.594 1.655,7.773c0.029,0.281 0.056,0.552 0.079,0.81c0.147,-0.006 0.295,-0.012 0.444,-0.017c0.006,-0.145 0.012,-0.293 0.017,-0.443c0.008,-0.305 0.016,-0.621 0.025,-0.947c-0.008,-0.326 -0.015,-0.663 -0.022,-1.008c0.002,-0.691 -0.079,-1.414 -0.124,-2.161c-0.162,-1.491 -0.37,-3.074 -0.749,-4.639c-0.694,-3.136 -1.901,-6.202 -2.977,-8.464c-0.547,-1.129 -1.028,-2.065 -1.403,-2.712c-0.364,-0.648 -0.572,-1.018 -0.572,-1.018c0,0 0.237,0.363 0.653,1c0.426,0.636 0.98,1.558 1.618,2.673c1.257,2.233 2.713,5.276 3.661,8.42c0.506,1.568 0.841,3.161 1.122,4.667c0.104,0.756 0.242,1.487 0.294,2.188c0.034,0.35 0.068,0.692 0.1,1.023c0.017,0.332 0.033,0.653 0.049,0.963c0.006,0.134 0.01,0.266 0.015,0.396c0.179,-0.006 0.358,-0.012 0.536,-0.018c0.104,-0.764 0.172,-1.591 0.171,-2.439c0.004,-1.643 -0.221,-3.538 -0.676,-5.541c-0.469,-2.002 -1.167,-4.11 -2.029,-6.186c-1.289,-3.171 -2.99,-6.256 -4.656,-8.836l0.196,-0.318c1.849,2.602 3.78,5.756 5.279,9.019c0.971,2.073 1.78,4.187 2.355,6.208c0.561,2.022 0.884,3.949 0.961,5.632c0.043,0.882 0.023,1.694 -0.033,2.416c0.155,-0.004 0.309,-0.007 0.461,-0.011c0.018,-0.594 0.046,-1.249 0.024,-1.954c-0.015,-3.053 -0.372,-7.041 -1.311,-10.959c-0.874,-3.924 -2.353,-7.76 -3.662,-10.592c-0.309,-0.712 -0.654,-1.353 -0.935,-1.925c-0.278,-0.573 -0.138,-0.322 -0.365,-0.727c-0.447,-0.812 -0.701,-1.276 -0.701,-1.276c0,0 0.279,0.458 0.77,1.261c0.249,0.401 0.136,0.145 0.445,0.712c0.312,0.567 0.692,1.202 1.04,1.908c1.464,2.809 3.155,6.627 4.245,10.555c1.154,3.921 1.728,7.934 1.903,11.017c0.058,0.703 0.065,1.358 0.077,1.953c0.218,-0.003 0.432,-0.005 0.641,-0.007c0.007,-0.249 0.012,-0.508 0.016,-0.775c0.032,-2.628 -0.188,-6.062 -0.86,-9.446c-0.621,-3.388 -1.713,-6.714 -2.69,-9.176c-0.229,-0.618 -0.488,-1.177 -0.698,-1.675c-0.208,-0.499 -0.409,-0.929 -0.58,-1.283c-0.335,-0.709 -0.526,-1.113 -0.526,-1.113c0,0 0.216,0.399 0.596,1.1c0.193,0.349 0.421,0.776 0.66,1.269c0.241,0.494 0.536,1.047 0.805,1.66c1.132,2.442 2.437,5.752 3.273,9.145c0.887,3.387 1.322,6.844 1.449,9.5c0.013,0.274 0.024,0.54 0.032,0.796c0.176,0.002 0.346,0.005 0.509,0.008c-0.035,-1.791 -0.138,-4.799 -0.5,-7.77c-0.257,-2.262 -0.689,-4.498 -1.113,-6.162c-0.212,-0.833 -0.408,-1.523 -0.567,-2.004c-0.154,-0.481 -0.242,-0.756 -0.242,-0.756c0,0 0.115,0.271 0.317,0.746c0.206,0.474 0.47,1.157 0.765,1.982c0.59,1.649 1.245,3.875 1.725,6.135c0.665,3.016 1.064,6.08 1.263,7.865c0.237,0.004 0.48,0.007 0.73,0.009l-0.002,-0.034c-0.09,-2.214 -0.29,-5.1 -0.863,-7.944c-0.542,-2.845 -1.455,-5.642 -2.231,-7.721c-0.397,-1.038 -0.734,-1.901 -0.991,-2.501c-0.25,-0.602 -0.392,-0.945 -0.392,-0.945c0,0 0.169,0.338 0.466,0.932c0.303,0.592 0.708,1.445 1.187,2.472c0.938,2.056 2.074,4.834 2.842,7.683c0.799,2.846 1.224,5.75 1.482,7.974l0.01,0.095l0.135,0.001l0.159,0.001c-0.058,-1.786 -0.214,-3.952 -0.532,-6.098c-0.343,-2.471 -0.902,-4.911 -1.403,-6.729c-0.251,-0.909 -0.476,-1.664 -0.649,-2.19c-0.17,-0.527 -0.267,-0.827 -0.267,-0.827c0,0 0.128,0.296 0.352,0.815c0.228,0.518 0.531,1.263 0.876,2.163c0.688,1.798 1.502,4.222 2.1,6.69c0.548,2.169 0.929,4.37 1.167,6.18l0.614,0.002c-0.341,-2.143 -0.804,-4.841 -1.36,-7.518c-1.136,-5.697 -2.675,-11.292 -2.675,-11.292c0,0 1.975,5.559 3.554,11.244c0.523,1.828 1.003,3.669 1.415,5.336Zm30.325,5.15l-0.03,0.074c-0.005,0.063 -0.01,0.122 -0.014,0.176c0.012,-0.074 0.027,-0.157 0.044,-0.25Zm-14.283,-18.537c0.586,2.071 1.353,4.78 2.124,7.508c0.795,2.825 1.596,5.669 2.21,7.849c0.071,0.264 0.135,0.519 0.193,0.764c0.238,-0.021 0.474,-0.044 0.707,-0.067c0.004,-0.189 0.003,-0.384 -0.003,-0.585c-0.021,-1.169 -0.199,-2.528 -0.484,-3.978c-0.273,-1.45 -0.637,-2.983 -1.164,-4.496c-0.523,-1.514 -1.221,-3.004 -1.998,-4.38c-0.523,-0.929 -1.069,-1.808 -1.585,-2.615Z" style="fill:#1b1b1a;fill-rule:nonzero;"/><path id="Inner-Outline" serif:id="Inner Outline" d="M59,32c0,-14.902 -12.098,-27 -27,-27c-14.902,0 -27,12.098 -27,27c0,14.902 12.098,27 27,27c14.902,0 27,-12.098 27,-27Z" style="fill:none;stroke:#fff;stroke-width:3px;"/><path id="Outline" d="M61.409,31.99c0,-16.178 -13.135,-29.313 -29.313,-29.313c-16.179,0 -29.314,13.135 -29.314,29.313c0,16.179 13.135,29.313 29.314,29.313c16.178,0 29.313,-13.134 29.313,-29.313Z" style="fill:none;stroke:#000;stroke-width:3px;"/></g></g></g></svg>