<?xml version="1.0" encoding="UTF-8" standalone="no"?><!DOCTYPE svg PUBLIC "-//W3C//DTD SVG 1.1//EN" "http://www.w3.org/Graphics/SVG/1.1/DTD/svg11.dtd"><svg width="100%" height="100%" viewBox="0 0 64 64" version="1.1" xmlns="http://www.w3.org/2000/svg" xmlns:xlink="http://www.w3.org/1999/xlink" xml:space="preserve" xmlns:serif="http://www.serif.com/" style="fill-rule:evenodd;clip-rule:evenodd;stroke-miterlimit:10;"><g id="Species"><g id="Reptiles"><g id="sea-turtle" serif:id="sea turtle"><path id="Outline" d="M61.126,31.687c0,-16.179 -13.135,-29.313 -29.313,-29.313c-16.178,0 -29.313,13.134 -29.313,29.313c0,16.178 13.135,29.313 29.313,29.313c16.178,0 29.313,-13.135 29.313,-29.313Z" style="fill:none;stroke:#000;stroke-width:3px;"/><path d="M20.349,26.008c-0.543,-0.749 -0.613,-1.41 -2.901,-3.494c-2.926,-2.667 -3.55,-4.331 -3.654,-4.903c-0.104,-0.573 -0.351,-1.314 -0.182,-1.587c0.169,-0.273 0.039,-0.663 0.117,-1.366c0.078,-0.702 0.091,-1.157 0.871,-1.261c0.781,-0.104 2.042,0.273 2.432,0.117c0.39,-0.156 0.612,-0.143 1.145,0.442c0.533,0.585 1.417,2.484 2.744,4.253c1.049,1.399 1.578,1.919 2.784,2.32c1.055,-0.773 2.176,-0.958 3.107,-1.189c1.314,-0.325 2.055,-1.768 4.123,-2.276c0.454,-0.111 0.91,-0.195 1.389,-0.225c0.898,-1.335 2.058,-2.664 5.166,-2.87c3.538,-0.234 5.293,0.143 5.683,0.585c0.391,0.442 1.613,0.52 2.459,1.08c0.845,0.559 1.781,1.573 0.91,2.445c-0.871,0.871 -2.666,0.819 -3.967,0.689c-1.407,-0.141 -2.398,-0.08 -4.149,0.386c0.292,0.206 0.596,0.428 0.911,0.668c4.14,3.146 8.466,9.523 10.036,13.327c1.748,-2.157 4.61,-1.75 5.532,-1.661c0.949,0.091 1.404,0.364 2.107,1.014c0.702,0.65 0.6,1.135 0.338,1.639c-0.364,0.702 -0.533,1.521 -1.535,2.575c-1.786,1.879 -3.436,1.527 -5.165,0.702c0.472,2.415 0.418,4.469 -0.427,4.942c-0.734,0.411 -2.461,1.186 -4.523,1.789c0.349,0.652 0.79,1.01 1.141,1.671c0.443,0.832 0.793,1.99 0.611,3.368c-0.182,1.379 -0.715,1.288 -1.131,2.172c-0.416,0.884 -0.832,0.703 -1.443,1.444c-0.612,0.741 -0.807,0.364 -1.327,0.806c-0.521,0.442 -1.08,0.117 -1.301,-0.104c-0.221,-0.221 -0.65,0.026 -0.988,-0.806c-0.338,-0.833 -1.106,-2.302 -1.054,-4.357c0.038,-1.473 0.255,-2.444 0.309,-3.355c-3.944,0.001 -13.418,-1.351 -18.933,-6.66c-0.108,-0.104 -0.215,-0.207 -0.32,-0.31c-0.15,0.616 -0.127,1.118 -0.2,1.793c-0.104,0.963 -0.26,2.419 0.039,3.135c0.299,0.715 0.312,1.768 0.325,2.64c0.013,0.871 0.039,1.886 0.325,2.432c0.287,0.546 -0.078,2.002 -0.884,2.002c-0.806,0 -1.899,-0.259 -3.134,-1.807c-1.236,-1.548 -0.989,-1.795 -1.639,-2.315c-0.65,-0.52 -0.69,-0.95 -1.171,-2.419c-0.481,-1.47 -0.78,-4.058 0.482,-5.814c1.166,-1.623 2.599,-2.268 3.21,-3.703c-0.07,-0.483 -0.05,-0.992 0.08,-1.538c0.559,-2.354 0.962,-2.601 1.262,-4.669c0.085,-0.592 0.216,-1.174 0.39,-1.747Z" style="fill:#1b1b1a;fill-rule:nonzero;"/></g></g></g></svg>