<?xml version="1.0" encoding="UTF-8" standalone="no"?><!DOCTYPE svg PUBLIC "-//W3C//DTD SVG 1.1//EN" "http://www.w3.org/Graphics/SVG/1.1/DTD/svg11.dtd"><svg width="100%" height="100%" viewBox="0 0 64 64" version="1.1" xmlns="http://www.w3.org/2000/svg" xmlns:xlink="http://www.w3.org/1999/xlink" xml:space="preserve" xmlns:serif="http://www.serif.com/" style="fill-rule:evenodd;clip-rule:evenodd;stroke-miterlimit:10;"><g id="Sea-level-rise" serif:id="Sea level rise"><path d="M58.976,32.174c-0.003,14.9 -12.1,26.996 -27,26.996c-14.901,0 -26.998,-12.096 -27,-26.996l1.864,0c1.288,3.339 4.512,5.709 8.281,5.709c3.769,0 6.347,-3.039 8.452,-5.709c2.067,-2.625 4.539,-6.057 8.465,-6.057c3.658,0 6.806,2.201 8.19,5.351c-1.227,-0.856 -2.676,-1.351 -4.228,-1.351c-4.415,0 -6.22,4.656 -8,8.941c-1.893,4.558 3.585,8.942 8,8.942c4.415,0 8,-4.007 8,-8.942c0,-2.768 -1.824,-6.49 2.212,-6.421l12.764,-0.463Zm-20.08,-14.981l-4.365,0l0,6.807l-4.701,0l0,-6.807l-4.366,0l6.716,-10.786l6.716,10.786Z"/><path id="Inner-Outline" serif:id="Inner Outline" d="M58.976,32.17c0,-14.902 -12.099,-27 -27,-27c-14.902,0 -27,12.098 -27,27c0,14.902 12.098,27 27,27c14.901,0 27,-12.098 27,-27Z" style="fill:none;stroke:#fff;stroke-width:3px;"/><path id="Outline" d="M61.5,32.174c0,-16.178 -13.135,-29.313 -29.313,-29.313c-16.178,0 -29.313,13.135 -29.313,29.313c0,16.178 13.135,29.313 29.313,29.313c16.178,0 29.313,-13.135 29.313,-29.313Z" style="fill:none;stroke:#1b1b1a;stroke-width:3px;"/></g></svg>