<?xml version="1.0" encoding="UTF-8" standalone="no"?><!DOCTYPE svg PUBLIC "-//W3C//DTD SVG 1.1//EN" "http://www.w3.org/Graphics/SVG/1.1/DTD/svg11.dtd"><svg width="100%" height="100%" viewBox="0 0 64 64" version="1.1" xmlns="http://www.w3.org/2000/svg" xmlns:xlink="http://www.w3.org/1999/xlink" xml:space="preserve" xmlns:serif="http://www.serif.com/" style="fill-rule:evenodd;clip-rule:evenodd;stroke-miterlimit:10;"><g id="Habitats"><g id="Marine"><g id="seagrass-johnsons"><path d="M36.24,46.541c0.181,-0.874 0.351,-1.768 0.483,-2.473c0.369,-1.964 1.368,-6.952 -0.512,-13.868c-1.954,-7.181 -7.948,-15.326 -8.293,-16.132c-0.423,-0.99 -0.419,-1.66 -0.155,-1.846c0.498,-0.351 1.157,0.269 1.827,1.026c0.428,0.482 7.648,7.929 9.564,16.94c1.208,5.681 0.985,10.347 0.504,12.89c0.378,-0.663 0.682,-1.2 0.852,-1.507c2.309,-4.169 0.761,-6.914 1.5,-12.547c0.898,-6.831 2.93,-9.607 3.289,-10.399c0.634,-1.4 1.747,-2.033 2.008,-1.898c0.518,0.266 0.3,0.945 0.228,1.729c-0.055,0.601 -1.332,4.208 -2.502,10.907c-1.038,5.938 1.461,7.846 -1.912,13.475c-1.074,1.793 -2.21,3.201 -3.243,4.3c0.988,0.156 1.98,0.299 2.978,0.395c1.401,0.135 2.734,0.072 4.09,-0.305c2.103,-0.586 4.153,-1.622 5.882,-2.856c-0.051,0.037 -0.096,0.149 -0.133,0.201c-0.111,0.16 -0.224,0.319 -0.338,0.476c-0.139,0.194 -0.293,0.52 -0.495,0.664c-0.694,0.496 -1.448,0.933 -2.209,1.339c-1.502,0.8 -3.134,1.494 -4.858,1.783c-1.257,0.211 -2.521,0.097 -3.778,-0.058c-0.816,-0.1 -1.629,-0.222 -2.441,-0.351c-1.243,1.148 -2.16,1.784 -2.331,2.101c-0.352,0.653 -0.903,2.05 -1.126,2.029c-0.029,-0.003 -0.06,-0.009 -0.09,-0.016c-0.015,0.01 -0.029,0.015 -0.042,0.015c-0.141,-0.004 -0.302,-0.065 -0.424,-0.153c-0.002,0.091 -0.016,0.15 -0.048,0.167c-0.198,0.109 -0.526,0.116 -0.672,-0.007c-0.145,-0.124 -0.332,-1.817 -0.399,-2.448c-0.061,-0.582 -0.534,-1.596 -1.018,-2.677c-1.871,-0.267 -3.754,-0.462 -5.641,-0.462c-1.718,-0.001 -3.448,0.231 -5.133,0.521c-1.366,0.235 -2.722,0.544 -4.026,0.985c-0.595,0.202 -1.853,0.734 -1.853,0.734l-0.217,-0.128c0,0 -0.096,-0.09 -0.065,-0.138c0.119,-0.184 0.243,-0.392 0.401,-0.525c0.23,-0.194 0.515,-0.344 0.784,-0.485c0.856,-0.448 1.788,-0.779 2.727,-1.054c1.446,-0.424 2.94,-0.711 4.44,-0.921c1.677,-0.234 3.346,-0.38 5.043,-0.304c0.966,0.044 1.929,0.126 2.888,0.235c-0.678,-1.786 -1.997,-6.032 -7.126,-10.344c-5.274,-4.434 -10.927,-7.08 -11.597,-7.542c-0.824,-0.567 -1.148,-1.088 -1.026,-1.355c0.23,-0.505 1.062,-0.334 1.971,-0.063c0.579,0.173 8.183,2.783 13.013,7.57c4.189,4.152 6.265,8.272 6.922,10.347c-0.144,-1.859 -0.282,-3.627 -0.347,-4.326c-0.439,-4.745 -1.388,-8.133 -4.486,-11.965c-4.333,-5.357 -7.133,-6.442 -7.769,-7.036c-0.73,-0.683 -1.006,-1.249 -0.885,-1.517c0.23,-0.504 1.062,-0.333 1.971,-0.062c0.579,0.173 5.56,1.475 9.371,7.107c3.406,5.034 4.289,6.499 4.669,13.05c0.16,2.765 -0.149,5.032 -0.512,6.733l0.148,0.024l0.149,0.025Zm-2.037,1.479c-0.03,0.847 -0.073,1.607 -0.037,1.956c0.045,0.426 0.22,1.189 0.322,1.779c0.006,-0.018 0.013,-0.036 0.02,-0.055c-0.055,-0.497 -0.09,-1.186 -0.131,-1.576c-0.026,-0.242 -0.091,-1.046 -0.174,-2.104Zm1.391,-0.084c-0.287,1.075 -0.524,1.77 -0.495,2.05c0.009,0.083 0.021,0.175 0.035,0.273c0.112,-0.243 0.215,-0.46 0.288,-0.614c0.149,-0.312 0.321,-0.921 0.497,-1.655c-0.108,-0.018 -0.217,-0.036 -0.325,-0.054Z" style="fill:#1b1b1a;fill-rule:nonzero;"/><path id="Outline" d="M61.409,31.99c0,-16.178 -13.135,-29.313 -29.313,-29.313c-16.179,0 -29.314,13.135 -29.314,29.313c0,16.179 13.135,29.313 29.314,29.313c16.178,0 29.313,-13.134 29.313,-29.313Z" style="fill:none;stroke:#000;stroke-width:3px;"/></g></g></g></svg>