<?xml version="1.0" encoding="UTF-8" standalone="no"?><!DOCTYPE svg PUBLIC "-//W3C//DTD SVG 1.1//EN" "http://www.w3.org/Graphics/SVG/1.1/DTD/svg11.dtd"><svg width="100%" height="100%" viewBox="0 0 64 64" version="1.1" xmlns="http://www.w3.org/2000/svg" xmlns:xlink="http://www.w3.org/1999/xlink" xml:space="preserve" xmlns:serif="http://www.serif.com/" style="fill-rule:evenodd;clip-rule:evenodd;stroke-miterlimit:10;"><g id="Species"><g id="Birds"><g id="shorebird-tern"><path id="Outline" d="M61.126,31.687c0,-16.179 -13.135,-29.313 -29.313,-29.313c-16.178,0 -29.313,13.134 -29.313,29.313c0,16.178 13.135,29.313 29.313,29.313c16.178,0 29.313,-13.135 29.313,-29.313Z" style="fill:none;stroke:#000;stroke-width:3px;"/><path d="M49.956,12.589c0,0.1 -0.251,0.219 -0.321,0.31c-0.16,0.206 -0.051,0.219 -0.091,0.444c-0.047,0.26 -0.094,0.302 -0.257,0.484c-0.264,0.298 -0.754,0.642 -0.979,0.901c-0.233,0.268 -0.229,0.605 -0.351,0.877c-0.111,0.251 -0.333,0.396 -0.533,0.594c-0.43,0.427 -0.703,0.639 -0.974,1.124c-0.504,0.901 -1.095,1.54 -1.999,2.279c-0.293,0.24 -0.382,0.62 -0.616,0.958c-0.228,0.329 -0.639,0.611 -0.997,0.901c-0.285,0.23 -0.429,0.349 -0.596,0.631c-0.117,0.198 -0.274,0.435 -0.451,0.603c-0.416,0.394 -1.016,0.657 -1.337,1.115c-0.199,0.283 -0.398,0.526 -0.667,0.806c-0.249,0.26 -0.692,0.553 -0.859,0.842c-0.172,0.3 -0.292,0.484 -0.648,0.736c-0.341,0.242 -0.778,0.548 -1.017,0.912c-0.182,0.278 -0.207,0.391 -0.421,0.543c-0.184,0.132 -0.517,0.348 -0.701,0.544c-0.119,0.126 -0.262,0.364 -0.316,0.491c-0.113,0.266 -0.16,0.308 -0.403,0.561c-0.337,0.35 -0.328,0.563 -0.485,1.064c-0.104,0.332 -0.253,0.532 -0.374,0.794c-0.108,0.234 -0.154,0.312 -0.176,0.491c0.004,-0.033 0.083,0.215 0.071,0.246c-0.022,0.052 -0.223,0.091 -0.284,0.167c-0.323,0.405 -0.267,0.905 -0.313,1.358c-0.054,0.545 -0.166,1.191 -0.385,1.771c-0.045,0.119 -0.206,0.265 -0.228,0.421c-0.025,0.174 0.171,0.37 0.114,0.578c-0.043,0.157 -0.24,0.202 -0.307,0.403c-0.052,0.157 0.082,0.479 0.105,0.632c0.014,0.088 0.075,0.184 0.035,0.35c-0.016,0.067 -0.082,0.152 -0.105,0.281c-0.034,0.196 0.065,0.37 0.07,0.596c0.012,0.463 -0.204,0.648 -0.28,0.982c-0.085,0.37 0.095,0.562 0.14,0.876c0.027,0.193 -0.01,0.38 -0.083,0.566c-0.124,0.311 -0.129,0.293 -0.11,0.556c0.022,0.3 0.056,0.646 0.246,0.877c0.202,0.247 0.566,0.402 0.859,0.561c0.381,0.207 0.839,0.487 1.227,0.806c1.305,1.075 2.789,1.538 4.172,2.35c1.489,0.873 2.931,0.968 4.891,1.358c1.428,0.284 2.845,0.634 4.261,0.956c0.324,0.074 0.859,0.215 1.193,0.351c0.179,0.073 0.813,0.197 0.281,0.309c-0.403,0.084 -1.163,-0.218 -1.609,-0.312c-1.103,-0.232 -2.367,-0.502 -3.406,-0.681c-0.556,-0.096 -2.004,-0.24 -2.004,-0.24c0,0 -0.183,-0.006 0.011,0.086c0.425,0.202 2.692,0.69 2.986,0.751c0.776,0.161 1.757,0.355 2.338,0.542c0.289,0.094 1.016,0.162 1.122,0.597c-2.003,-0.376 -4.354,-1.007 -6.557,-1.368c-1.326,-0.217 -2.998,-0.743 -4.488,-0.912c-0.45,-0.051 -0.828,0.004 -1.157,0.035c-0.513,0.05 -1.172,0.222 -1.613,0.246c-0.77,0.042 -1.44,-0.081 -2.175,-0.088c-0.914,-0.008 -1.739,-0.095 -2.758,-0.105c-2.499,-0.024 -5.024,-0.477 -7.165,-1.175c-1.888,-0.615 -3.59,-1.804 -5.347,-2.524c-0.354,-0.146 -0.572,-0.363 -0.929,-0.456c-0.26,-0.068 -0.707,-0.151 -0.947,-0.21c-0.575,-0.144 -1.711,-0.109 -2.279,0.21c-0.676,0.38 -1.336,0.783 -1.999,1.262c-0.295,0.214 -0.583,0.344 -0.876,0.561c-0.228,0.169 -0.692,0.488 -0.982,0.526c0,-0.257 0.464,-0.72 0.631,-0.929c0.264,-0.33 0.537,-0.68 0.814,-0.967c0.523,-0.541 1.179,-1.216 1.816,-1.786c0.602,-0.538 0.608,-1.251 0.806,-1.963c0.231,-0.827 1.138,-1.651 1.964,-1.911c0.315,-0.099 0.704,-0.21 1.052,-0.281c0.264,-0.053 2.523,-0.161 2.735,-0.122c-0.304,-2.43 -2.251,-4.308 -3.927,-6.207c-0.682,-0.772 -1.168,-1.538 -1.543,-2.384c-0.486,-1.094 -1.071,-2.306 -1.21,-3.507c-0.117,-1.017 0.092,-1.937 0.088,-2.805c-0.006,-1.107 0.058,-2.124 0.21,-3.226c0.224,-1.618 0.816,-3.386 1.578,-4.909c0.518,-1.036 1.363,-2.234 2.49,-3.103c0.121,-0.094 0.756,-0.716 0.911,-0.473c0.109,0.17 -0.488,0.876 -0.578,0.981c-0.129,0.149 -0.291,0.275 -0.369,0.421c-0.019,0.037 -0.123,0.25 -0.119,0.302c0.034,0.426 0.233,0.057 0.505,0.049c0.148,0.392 -0.175,0.781 0.035,1.157c0.18,0.321 0.349,0.452 0.386,0.806c0.017,0.159 -0.018,0.506 -0.017,0.702c0,0.246 0.084,0.522 0.192,0.911c0.084,0.301 0.13,0.684 0.141,0.947c0.017,0.445 0.129,0.698 0.315,1.07c0.27,0.539 0.251,1.257 0.526,1.946c0.158,0.394 0.387,0.759 0.456,1.087c0.077,0.363 -0.009,0.794 0.14,1.192c0.11,0.293 0.279,0.409 0.377,0.789c0.152,0.589 0.346,1.074 0.482,1.543c0.126,0.429 0.163,0.998 0.333,1.35c0.181,0.372 0.271,0.723 0.386,1.203c0.105,0.438 0.402,0.701 0.491,1.076c0.081,0.342 0.166,0.655 0.351,0.946c0.31,0.49 0.791,0.89 1.016,1.473c0.133,0.343 0.287,0.631 0.421,0.947c0.05,0.118 0.601,1.192 0.737,1.192c0,-0.628 0.033,-1.332 0.125,-2.005c0.082,-0.607 -0.031,-1.446 0.155,-2.062c0.154,-0.512 0.476,-0.873 0.842,-1.333c0.415,-0.522 1.017,-1.34 1.543,-1.788c1.136,-0.968 2.194,-2.056 3.401,-2.91c1.071,-0.758 2.215,-1.278 3.331,-1.964c0.972,-0.598 1.897,-1.348 2.875,-1.999c1.056,-0.701 2.189,-1.408 3.191,-2.103c1.977,-1.372 3.959,-2.678 6.031,-3.788c0.969,-0.518 1.941,-1.204 2.946,-1.648c0.553,-0.244 1.194,-0.564 1.683,-0.806c0.296,-0.147 1.071,-0.612 1.193,-0.158c-0.145,0 -0.272,0.215 -0.422,0.298c-0.173,0.096 -0.344,0.23 -0.543,0.351c-0.317,0.193 -0.17,0.264 -0.336,0.637c-0.098,0.22 -0.577,0.602 -0.804,0.66" style="fill:#1b1b1a;"/></g></g></g></svg>