<?xml version="1.0" encoding="UTF-8" standalone="no"?><!DOCTYPE svg PUBLIC "-//W3C//DTD SVG 1.1//EN" "http://www.w3.org/Graphics/SVG/1.1/DTD/svg11.dtd"><svg width="100%" height="100%" viewBox="0 0 64 64" version="1.1" xmlns="http://www.w3.org/2000/svg" xmlns:xlink="http://www.w3.org/1999/xlink" xml:space="preserve" xmlns:serif="http://www.serif.com/" style="fill-rule:evenodd;clip-rule:evenodd;stroke-miterlimit:10;"><g id="Species"><g id="Mammals"><g id="small-mammal-raccoon" serif:id="small mammal raccoon"><path id="Outline" d="M61.409,32.047c0,-16.178 -13.135,-29.313 -29.313,-29.313c-16.179,0 -29.314,13.135 -29.314,29.313c0,16.178 13.135,29.313 29.314,29.313c16.178,0 29.313,-13.135 29.313,-29.313Z" style="fill:none;stroke:#000;stroke-width:3px;"/><path d="M56.471,38.116c-0.746,-1.404 -9.385,-11.424 -12.927,-13.493c-1.169,-0.683 -1.595,-0.524 -3.7,-2.596c-2.105,-2.073 -5.114,-3.553 -9.143,-3.653c-4.029,-0.1 -8.371,2.534 -8.371,2.534c-0.796,-0.012 -2.006,0.461 -2.006,0.461c-3.914,-0.954 -5.764,-0.623 -6.304,-0.675c-1.818,-0.172 -3.02,-3.063 -3.257,-2.138c-0.181,0.708 0.22,2.336 -0.339,3.191c-0.262,0.399 -0.19,1.069 -0.584,1.595c-0.395,0.526 -1.16,2.33 -1.609,4.007c-0.45,1.678 -1.952,1.908 -1.974,2.774c-0.022,0.866 1.206,0.746 1.206,0.746c0.757,-0.044 2.333,-0.029 3.322,-0.554c1.793,-0.952 1.727,-2.401 8.585,4.621c-0.228,0.258 -1.787,5.076 -1.557,6.567c0.039,0.259 -0.416,1.546 -1.792,1.738c-1.377,0.192 -1.776,1.053 -1.776,1.053c4.254,0 4.27,-0.412 5.022,-2.072c0.191,-0.421 0.363,-0.889 1.12,-1.327c0.095,-0.055 0.617,-0.585 1.297,-1.308c0.062,0.689 0.255,1.717 0.355,1.898c0.143,0.257 0.165,1.546 -1.14,1.738c-1.305,0.192 -1.381,1.052 -1.381,1.052c4.254,0 3.862,0 4.1,-1.272c0.075,-0.402 0.11,-1.425 0.702,-1.863c0.497,-0.368 1.046,-4.622 1.209,-5.978c0.022,-0.035 0.041,-0.066 0.057,-0.094c0,0 5.217,0.026 6.216,1.129c0.527,0.581 0.82,3.229 2.994,4.035c0,0 0.449,-0.121 0.372,0.636c-0.076,0.756 -2.192,2.137 -4.188,2.126c-1.995,-0.011 -2.349,1.272 -2.349,1.272l5.013,0c1.415,0 4.2,-3.07 4.616,-3.607c0.417,-0.537 -0.329,-1.293 -0.438,-2.291c-0.106,-0.958 1.502,-1.832 1.688,-1.436c0.64,1.358 4.747,2.346 4.747,2.346c0.735,3.037 -0.091,3.651 -1.373,3.651c-1.283,0 -1.919,1.337 -1.919,1.337c1.924,0 4.224,0.168 5.021,-1.107c0.651,-1.041 -0.05,-6.259 -0.399,-6.722c-0.285,-0.378 -2.075,-0.646 -1.779,-1.484c0.224,-0.637 -0.757,-3.527 -1.243,-4.883c0.372,0.865 1.227,2.486 3.074,4.647c2.828,3.311 8.091,5.306 10.108,5.591c2.017,0.285 1.469,-0.789 0.724,-2.192" style="fill-rule:nonzero;"/></g></g></g></svg>