<?xml version="1.0" encoding="UTF-8" standalone="no"?><!DOCTYPE svg PUBLIC "-//W3C//DTD SVG 1.1//EN" "http://www.w3.org/Graphics/SVG/1.1/DTD/svg11.dtd"><svg width="100%" height="100%" viewBox="0 0 64 64" version="1.1" xmlns="http://www.w3.org/2000/svg" xmlns:xlink="http://www.w3.org/1999/xlink" xml:space="preserve" xmlns:serif="http://www.serif.com/" style="fill-rule:evenodd;clip-rule:evenodd;stroke-miterlimit:10;"><g id="Species"><g id="Mammals"><g id="small-mammal-raccoon" serif:id="small mammal raccoon"><path id="Outline" d="M58.626,31.687c0,-16.179 -13.135,-29.313 -29.313,-29.313c-16.178,0 -29.313,13.134 -29.313,29.313c0,16.178 13.135,29.313 29.313,29.313c16.178,0 29.313,-13.135 29.313,-29.313Z" style="fill:none;stroke:#000;stroke-width:3px;"/><path d="M53.688,37.756c-0.745,-1.404 -9.385,-11.425 -12.926,-13.493c-1.169,-0.683 -1.595,-0.525 -3.7,-2.597c-2.105,-2.072 -5.115,-3.552 -9.144,-3.652c-4.029,-0.1 -8.37,2.534 -8.37,2.534c-0.796,-0.012 -2.007,0.46 -2.007,0.46c-3.914,-0.953 -5.763,-0.622 -6.304,-0.674c-1.817,-0.172 -3.019,-3.063 -3.256,-2.138c-0.181,0.708 0.219,2.336 -0.34,3.191c-0.261,0.399 -0.189,1.069 -0.584,1.595c-0.394,0.526 -1.159,2.33 -1.609,4.007c-0.449,1.678 -1.951,1.908 -1.973,2.774c-0.022,0.866 1.206,0.745 1.206,0.745c0.756,-0.043 2.333,-0.028 3.322,-0.553c1.792,-0.952 1.727,-2.401 8.584,4.621c-0.228,0.258 -1.787,5.076 -1.557,6.567c0.04,0.259 -0.415,1.546 -1.791,1.738c-1.377,0.192 -1.777,1.052 -1.777,1.052c4.254,0 4.27,-0.411 5.023,-2.071c0.19,-0.421 0.363,-0.889 1.12,-1.328c0.094,-0.054 0.616,-0.584 1.297,-1.307c0.062,0.689 0.255,1.717 0.355,1.898c0.142,0.257 0.164,1.546 -1.14,1.737c-1.305,0.192 -1.382,1.053 -1.382,1.053c4.254,0 3.862,0 4.101,-1.272c0.075,-0.402 0.109,-1.425 0.701,-1.864c0.497,-0.368 1.046,-4.621 1.21,-5.978c0.022,-0.034 0.041,-0.065 0.057,-0.093c0,0 5.217,0.025 6.216,1.129c0.526,0.581 0.82,3.229 2.993,4.034c0,0 0.45,-0.12 0.373,0.636c-0.077,0.757 -2.193,2.138 -4.188,2.127c-1.995,-0.011 -2.349,1.272 -2.349,1.272l5.013,0c1.414,0 4.199,-3.07 4.616,-3.607c0.416,-0.537 -0.329,-1.294 -0.439,-2.291c-0.105,-0.958 1.502,-1.832 1.689,-1.437c0.64,1.359 4.747,2.347 4.747,2.347c0.734,3.037 -0.091,3.65 -1.374,3.65c-1.282,0 -1.918,1.338 -1.918,1.338c1.924,0 4.224,0.167 5.021,-1.107c0.651,-1.041 -0.05,-6.259 -0.399,-6.722c-0.285,-0.378 -2.076,-0.646 -1.78,-1.485c0.225,-0.636 -0.756,-3.526 -1.243,-4.882c0.372,0.865 1.228,2.486 3.074,4.647c2.829,3.311 8.091,5.306 10.109,5.591c2.017,0.285 1.469,-0.789 0.723,-2.192" style="fill-rule:nonzero;"/></g><g id="bat"><path id="Outline1" serif:id="Outline" d="M138.626,31.687c0,-16.179 -13.135,-29.313 -29.313,-29.313c-16.178,0 -29.313,13.134 -29.313,29.313c0,16.178 13.135,29.313 29.313,29.313c16.178,0 29.313,-13.135 29.313,-29.313Z" style="fill:none;stroke:#000;stroke-width:3px;"/></g></g></g></svg>