<?xml version="1.0" encoding="UTF-8" standalone="no"?><!DOCTYPE svg PUBLIC "-//W3C//DTD SVG 1.1//EN" "http://www.w3.org/Graphics/SVG/1.1/DTD/svg11.dtd"><svg width="100%" height="100%" viewBox="0 0 64 64" version="1.1" xmlns="http://www.w3.org/2000/svg" xmlns:xlink="http://www.w3.org/1999/xlink" xml:space="preserve" xmlns:serif="http://www.serif.com/" style="fill-rule:evenodd;clip-rule:evenodd;stroke-miterlimit:10;"><g id="Social-impacts" serif:id="Social impacts"><path d="M38.187,30.605c0.866,-0.691 1.478,-1.593 1.71,-2.605l0.206,0c0.522,2.276 2.966,4 5.897,4c2.931,0 5.375,-1.724 5.897,-4l0.206,0c0.477,2.078 2.556,3.696 5.145,3.962c0.134,3.766 -0.547,7.538 -2.155,10.978c-5.512,11.797 -20.773,17.742 -32.751,12.845c-9.652,-3.946 -16.09,-14.361 -15.814,-24.691c0.98,0.57 2.179,0.906 3.472,0.906c1.002,0 1.947,-0.202 2.778,-0.558l0,11.862c0.034,0.551 0.462,0.968 1,1l23.411,0c0.672,-0.04 0.903,-0.39 0.993,-0.879l0.005,-12.82Zm-0.998,12.699l-23.411,0l0,-17.739l-7.359,0l9.361,-5.122l0,-5.16l3.761,0l0,3.101l5.669,-3.101l18.79,10.282l-6.811,0l0,17.739Zm-7.928,-16l-8.803,0l0,5.502l8.803,0l0,-5.502Zm-1,4.502l-4.587,0c2.03,-0.482 3.617,-1.819 4.141,-3.502l0.37,0c0.024,0.074 0.049,0.148 0.076,0.221l0,3.281Z" style="fill:#1b1b1a;"/><path id="Outline" d="M61.5,32.174c0,-16.178 -13.135,-29.313 -29.313,-29.313c-16.178,0 -29.313,13.135 -29.313,29.313c0,16.178 13.135,29.313 29.313,29.313c16.178,0 29.313,-13.135 29.313,-29.313Z" style="fill:none;stroke:#1b1b1a;stroke-width:3px;"/></g></svg>