<?xml version="1.0" encoding="UTF-8" standalone="no"?><!DOCTYPE svg PUBLIC "-//W3C//DTD SVG 1.1//EN" "http://www.w3.org/Graphics/SVG/1.1/DTD/svg11.dtd"><svg width="100%" height="100%" viewBox="0 0 64 64" version="1.1" xmlns="http://www.w3.org/2000/svg" xmlns:xlink="http://www.w3.org/1999/xlink" xml:space="preserve" xmlns:serif="http://www.serif.com/" style="fill-rule:evenodd;clip-rule:evenodd;stroke-miterlimit:10;"><g id="Habitats"><g id="Freshwater"><g id="springs"><path d="M35.171,46.799c14.5,-3.992 25.651,-4.256 22.388,0c-3.048,3.974 -3.292,7.425 -18.055,11.064c-14.602,3.6 -22.253,0.84 -23.677,-4.33c-1.424,-5.17 4.845,-2.742 19.344,-6.734Zm6.033,-7.799c-1.294,0.665 -1.032,1.72 0,2.064c1.032,0.344 5.01,0.239 6.19,0c1.049,-0.213 1.102,-0.726 0.889,-1.435c0.017,0.056 1.451,0.382 0.825,0.951c-1.628,0.996 -4.533,1.045 -6.447,1.046c-1.094,0 -2.254,-0.518 -2.968,-0.964c-0.903,-0.564 0.866,-1.672 1.511,-1.662Zm12.527,-0.905c0.626,-0.159 1.037,0.309 0.933,0.756c-0.104,0.446 -1.153,1.645 -1.559,1.924c-0.36,0.249 -0.605,0.077 -0.872,-0.249c0.021,0.026 -0.193,0.591 0.222,0.605c0.861,-0.141 1.614,-1.027 2.097,-1.622c0.275,-0.339 0.333,-0.89 0.311,-1.275c-0.028,-0.488 -0.975,-0.344 -1.132,-0.139Zm-37.143,-5.037c-0.035,-0.458 -0.054,-0.873 0.017,-1.08c0.067,-0.2 0.158,-0.948 0.233,-1.822c-3.988,0.534 -7.954,1.36 -11.918,2.145c0,0 -1.774,0.389 -2.425,-0.708c-0.569,-0.958 0.029,-2.313 1.159,-2.608c3.324,-0.67 6.679,-1.488 10.026,-2.054c-0.047,-0.083 -0.08,-0.175 -0.096,-0.275c-0.318,0.078 -0.634,-0.001 -0.834,-0.212c-0.127,-0.134 -0.2,-0.334 -0.197,-0.536c0.002,-0.123 0.031,-0.235 0.085,-0.327c-0.227,-0.005 -0.454,-0.113 -0.638,-0.306c-0.192,-0.202 -0.303,-0.462 -0.312,-0.726c-0.298,0.125 -0.659,0.066 -0.962,-0.163c-0.304,-0.23 -0.486,-0.585 -0.486,-0.94c-0.244,0.037 -0.453,-0.015 -0.623,-0.155c-0.28,-0.231 -0.364,-0.631 -0.385,-0.766c-0.174,-0.025 -0.841,-0.166 -0.941,-0.857c-0.04,-0.269 0.046,-0.589 0.213,-0.795c0.099,-0.124 0.217,-0.195 0.342,-0.209c-0.051,-0.273 0.134,-0.554 0.364,-0.662c0.149,-0.07 0.312,-0.085 0.468,-0.079c-0.322,-0.173 -0.594,-0.37 -0.763,-0.685c-0.136,-0.253 -0.149,-0.577 -0.031,-0.804c0.091,-0.174 0.248,-0.279 0.451,-0.301c-0.065,-0.1 -0.132,-0.235 -0.113,-0.367c0.011,-0.084 0.055,-0.155 0.129,-0.211c0.618,-0.464 1.333,-0.133 1.89,0.169c-0.106,-0.135 -0.192,-0.294 -0.253,-0.469c-0.132,-0.378 -0.128,-0.786 0.008,-1.124c-0.123,-0.264 -0.246,-0.601 -0.162,-0.922c0.05,-0.187 0.203,-0.351 0.381,-0.407c0.115,-0.036 0.223,-0.023 0.31,0.037c0.135,-0.283 0.485,-0.373 0.756,-0.274c0.154,0.056 0.288,0.158 0.406,0.274c-0.108,-0.277 -0.162,-0.579 -0.154,-0.882c0,-0.034 0.002,-0.068 0.003,-0.102c0.007,-0.141 0.013,-0.273 -0.029,-0.393c-0.027,-0.076 -0.073,-0.143 -0.121,-0.214c-0.032,-0.046 -0.066,-0.095 -0.094,-0.147c-0.14,-0.26 -0.122,-0.596 0.043,-0.798c0.093,-0.113 0.236,-0.175 0.383,-0.167c0.087,0.006 0.166,0.036 0.23,0.087c0.031,-0.215 0.141,-0.417 0.312,-0.569c0.178,-0.158 0.399,-0.233 0.604,-0.21c-0.034,-0.185 -0.004,-0.388 0.088,-0.57c0.108,-0.213 0.282,-0.362 0.478,-0.408c0.196,-0.046 0.41,0.012 0.586,0.159c0.138,0.114 0.235,0.269 0.278,0.437c0.128,-0.164 0.32,-0.277 0.533,-0.31c0.165,-0.025 0.329,0 0.47,0.068c-0.03,-0.088 -0.044,-0.185 -0.041,-0.286c0.006,-0.208 0.087,-0.395 0.222,-0.512c0.134,-0.117 0.317,-0.159 0.502,-0.116c0.156,0.037 0.289,0.129 0.375,0.259c0.051,-0.044 0.146,-0.094 0.325,-0.134c0.154,-0.034 0.313,0.014 0.447,0.134c0.083,0.074 0.149,0.17 0.194,0.277c0.06,-0.201 0.186,-0.378 0.354,-0.478c0.244,-0.146 0.561,-0.122 0.787,0.056c0.272,-0.249 0.517,-0.398 1.042,-0.178c0.192,0.08 0.353,0.286 0.411,0.524c0.034,0.143 0.027,0.278 -0.019,0.392c0.248,-0.028 0.517,-0.044 0.765,0.065c0.257,0.112 0.482,0.401 0.456,0.715c0.193,-0.045 0.701,-0.099 0.747,-0.094c-0.034,-0.185 -0.004,-0.388 0.088,-0.57c0.108,-0.213 0.282,-0.362 0.478,-0.408c0.196,-0.046 0.41,0.012 0.586,0.159c0.138,0.114 0.235,0.269 0.278,0.437c0.128,-0.164 0.32,-0.277 0.533,-0.31c0.165,-0.025 0.329,0 0.47,0.068c-0.03,-0.088 -0.044,-0.185 -0.041,-0.286c0.006,-0.208 0.087,-0.395 0.222,-0.512c0.134,-0.117 0.317,-0.159 0.502,-0.116c0.156,0.037 0.289,0.129 0.375,0.259c0.051,-0.044 0.146,-0.094 0.325,-0.134c0.154,-0.034 0.313,0.014 0.447,0.134c0.083,0.074 0.149,0.17 0.194,0.277c0.06,-0.201 0.186,-0.378 0.354,-0.478c0.244,-0.146 0.561,-0.122 0.787,0.056c0.272,-0.249 0.517,-0.398 1.042,-0.178c0.192,0.08 0.353,0.286 0.411,0.524c0.034,0.143 0.027,0.278 -0.019,0.392c0.248,-0.028 0.517,-0.044 0.765,0.065c0.257,0.112 0.482,0.401 0.456,0.715c0.297,-0.07 0.626,-0.137 0.944,-0.062c0.303,0.071 0.643,0.321 0.709,0.711c0.03,-0.008 0.06,-0.016 0.09,-0.024c0.015,-0.099 0.045,-0.197 0.092,-0.289c0.108,-0.213 0.282,-0.362 0.478,-0.408c0.196,-0.046 0.41,0.012 0.586,0.159c0.138,0.114 0.235,0.269 0.278,0.437c0.128,-0.164 0.32,-0.277 0.533,-0.31c0.165,-0.025 0.329,0 0.47,0.068c-0.03,-0.088 -0.044,-0.185 -0.041,-0.286c0.006,-0.208 0.087,-0.395 0.222,-0.512c0.134,-0.117 0.317,-0.159 0.502,-0.116c0.156,0.037 0.289,0.129 0.375,0.259c0.051,-0.044 0.146,-0.094 0.325,-0.134c0.154,-0.034 0.313,0.014 0.447,0.134c0.083,0.074 0.149,0.17 0.194,0.277c0.06,-0.201 0.186,-0.378 0.354,-0.478c0.244,-0.146 0.561,-0.122 0.787,0.056c0.272,-0.249 0.517,-0.398 1.042,-0.178c0.192,0.08 0.353,0.286 0.411,0.524c0.034,0.143 0.027,0.278 -0.019,0.392c0.248,-0.028 0.517,-0.044 0.765,0.065c0.257,0.112 0.482,0.401 0.456,0.715c0.297,-0.07 0.626,-0.137 0.944,-0.062c0.303,0.071 0.643,0.321 0.709,0.711c0.317,-0.087 0.67,-0.174 1.014,-0.088c0.329,0.082 0.668,0.381 0.692,0.786c0.236,-0.071 0.497,-0.139 0.756,-0.078c0.105,0.024 0.209,0.078 0.297,0.153c0.247,-0.211 0.493,-0.32 0.975,-0.118c0.192,0.08 0.353,0.286 0.411,0.524c0.034,0.143 0.027,0.278 -0.019,0.392c0.248,-0.028 0.517,-0.044 0.765,0.065c0.257,0.112 0.482,0.401 0.456,0.715c0.297,-0.07 0.626,-0.137 0.944,-0.062c0.303,0.071 0.643,0.321 0.709,0.711c0.317,-0.087 0.67,-0.174 1.014,-0.088c0.329,0.082 0.668,0.381 0.692,0.786c0.236,-0.071 0.497,-0.139 0.756,-0.078c0.279,0.066 0.554,0.336 0.532,0.673c-0.035,0.522 -0.64,0.64 -0.955,0.666c0.013,0.129 -0.01,0.241 -0.068,0.332c-0.092,0.144 -0.251,0.21 -0.387,0.243c0.171,0.046 0.376,0.126 0.448,0.298c0.104,0.25 0.041,0.57 -0.137,0.759c0.212,0.112 0.367,0.351 0.415,0.648c0.045,0.283 -0.018,0.555 -0.166,0.741c0.234,0.051 0.44,0.267 0.487,0.528c0.036,0.205 -0.028,0.425 -0.153,0.581c0.144,0 0.292,0.047 0.424,0.143c0.218,0.159 0.346,0.414 0.335,0.666c-0.011,0.253 -0.161,0.493 -0.391,0.627c-0.209,0.122 -0.444,0.134 -0.63,0.037c-0.081,0.346 -0.318,0.649 -0.645,0.821c-0.335,0.175 -0.704,0.183 -1,0.024c-0.143,0.335 -0.616,0.407 -0.972,0.429c0.331,0.045 0.765,0.122 0.952,0.368c0.044,0.057 0.06,0.124 0.074,0.184c0.017,0.072 0.029,0.117 0.07,0.145c0.068,0.047 0.148,0.067 0.233,0.089c0.045,0.011 0.09,0.023 0.134,0.039c0.333,0.117 0.576,0.475 0.593,0.86c0.782,0.209 1.19,0.569 1.215,1.069c0.018,0.36 -0.212,0.721 -0.546,0.859c-0.25,0.103 -0.545,0.089 -0.827,-0.036c0.021,0.081 0.023,0.17 0.005,0.261c-0.007,0.037 -0.017,0.073 -0.03,0.108c1.075,-0.062 2.144,-0.099 3.203,-0.098c1.986,0.001 3.972,0.03 5.957,0.072c0,0 2.411,0.455 1.973,2.186c-0.319,1.265 -2.012,1.312 -3.502,1.285c-2.859,-0.047 -5.714,0.166 -8.585,0.441c0.054,0.096 0.112,0.184 0.177,0.263c0.228,0.28 0.541,0.539 0.693,0.883c0.131,0.296 0.145,0.772 -0.19,0.918c-0.037,0.017 -0.068,0.023 -0.095,0.023l-0.004,0c-0.048,0.001 -0.09,-0.014 -0.151,-0.015c-0.062,-0.002 -0.103,-0.009 -0.138,-0.01l-0.004,0c-0.049,0 -0.089,0.014 -0.166,0.08c-0.024,0.021 -0.034,0.066 -0.062,0.085c-0.086,0.059 -0.156,0.122 -0.246,0.123l-0.003,0c-0.034,0 -0.072,-0.009 -0.114,-0.031c-0.072,-0.038 -0.16,-0.128 -0.172,-0.214l0,-0.001c0.02,-0.057 0.038,-0.108 0.059,-0.124l0.001,-0.001l-0.001,0.001l0,0c-0.05,0.035 -0.065,0.079 -0.059,0.124l0,0l-0.005,0.016c-0.023,0.066 -0.049,0.136 -0.083,0.167c-0.068,0.062 -0.137,0.085 -0.213,0.086l-0.005,0c-0.038,0 -0.078,-0.005 -0.121,-0.014c-0.198,-0.042 -0.364,-0.252 -0.545,-0.254l-0.003,0c-0.029,0 -0.06,0.006 -0.09,0.019c-0.137,0.058 -0.182,0.22 -0.368,0.252c-0.026,0.005 -0.049,0.007 -0.071,0.007l-0.006,0c-0.102,0.001 -0.164,-0.041 -0.27,-0.1c-0.1,-0.056 -0.057,-0.173 -0.164,-0.175l-0.003,0c-0.03,0 -0.071,0.008 -0.129,0.029c-0.039,0.013 -0.069,0.12 -0.116,0.143c-0.102,0.048 -0.168,0.072 -0.215,0.073l-0.003,0c-0.094,-0.001 -0.114,-0.093 -0.216,-0.262c0.016,-0.107 -0.004,-0.161 -0.06,-0.162l-0.001,0c-0.027,0 -0.062,0.012 -0.106,0.036c-0.033,0.024 -0.065,0.048 -0.098,0.072c-0.048,0.016 -0.098,0.069 -0.153,0.072l-0.003,0c-0.002,0 -0.005,0 -0.008,0c-0.095,-0.008 -0.122,0.013 -0.168,-0.081c-0.091,-0.188 0.165,-0.632 0.225,-0.776c0.132,-0.314 0.266,-0.626 0.391,-0.943c-0.759,0.077 -1.52,0.154 -2.283,0.226c0.027,0.574 0.073,1.158 0.171,1.725c0.36,-0.165 0.839,-0.29 1.105,-0.287c-1.159,0.358 -0.924,0.927 0,1.112c0.924,0.185 4.487,0.129 5.543,0c0.94,-0.115 0.987,-0.391 0.797,-0.773c0.015,0.03 1.299,0.205 0.738,0.512c-1.458,0.537 -4.059,0.564 -5.774,0.564c-0.789,0 -1.618,-0.181 -2.244,-0.378c0.011,0.038 0.021,0.075 0.032,0.113c0.21,0.709 0.513,1.349 0.963,1.902c0.228,0.279 0.541,0.539 0.694,0.883c0.131,0.296 0.144,0.771 -0.191,0.918c-0.037,0.016 -0.067,0.022 -0.095,0.023l-0.004,0c-0.048,0 -0.09,-0.014 -0.151,-0.016c-0.062,-0.001 -0.102,-0.009 -0.138,-0.009l-0.004,-0.001c-0.049,0 -0.089,0.014 -0.166,0.081c-0.024,0.02 -0.034,0.065 -0.062,0.084c-0.086,0.059 -0.155,0.123 -0.246,0.124l-0.003,0c-0.034,0 -0.072,-0.01 -0.114,-0.032c-0.072,-0.037 -0.16,-0.127 -0.172,-0.213l0,-0.001c0.02,-0.057 0.038,-0.109 0.059,-0.124l0.001,-0.001l-0.001,0.001l0,0c-0.05,0.034 -0.065,0.078 -0.059,0.123l0,0.001l-0.005,0.016c-0.023,0.066 -0.049,0.136 -0.083,0.166c-0.068,0.063 -0.137,0.086 -0.213,0.087l-0.005,0c-0.038,0 -0.078,-0.006 -0.121,-0.015c-0.198,-0.041 -0.364,-0.252 -0.545,-0.253l-0.003,0c-0.029,0 -0.059,0.005 -0.09,0.018c-0.137,0.059 -0.182,0.221 -0.368,0.253c-0.026,0.004 -0.049,0.006 -0.071,0.007l-0.006,0c-0.102,0 -0.164,-0.041 -0.27,-0.1c-0.1,-0.056 -0.056,-0.173 -0.164,-0.176l-0.003,0c-0.03,0 -0.071,0.009 -0.129,0.029c-0.038,0.014 -0.068,0.121 -0.116,0.143c-0.102,0.048 -0.168,0.072 -0.215,0.073l-0.003,0c-0.094,0 -0.114,-0.093 -0.216,-0.261c0.016,-0.107 -0.004,-0.162 -0.059,-0.163l-0.002,0c-0.027,0 -0.062,0.012 -0.106,0.037c-0.032,0.024 -0.065,0.048 -0.098,0.072c-0.048,0.016 -0.098,0.069 -0.153,0.072l-0.003,0c-0.002,0 -0.005,0 -0.008,-0.001c-0.095,-0.008 -0.122,0.014 -0.168,-0.081c-0.091,-0.187 0.165,-0.632 0.226,-0.775c0.212,-0.508 0.432,-1.012 0.609,-1.536c0.193,-0.569 0.284,-1.165 0.437,-1.747c0.147,-0.559 0.27,-1.089 0.306,-1.673c0.009,-0.145 0.017,-0.29 0.024,-0.436c-1.27,0.114 -2.545,0.211 -3.827,0.276c-0.43,0.454 -0.238,1.03 0.192,1.168c0.437,0.139 2.004,-0.147 2.452,-0.352c0.397,-0.182 0.376,-0.48 0.233,-0.877c0.011,0.031 0.606,0.138 0.405,0.501c-0.562,0.667 -1.709,0.86 -2.467,0.969c-0.433,0.062 -0.935,-0.17 -1.255,-0.387c-0.368,-0.249 0.104,-0.885 0.385,-1.019c-0.498,0.025 -0.998,0.045 -1.498,0.059c0.174,0.383 0.388,0.739 0.653,1.065c0.228,0.279 0.541,0.539 0.694,0.883c0.131,0.296 0.144,0.771 -0.191,0.918c-0.037,0.016 -0.067,0.022 -0.095,0.023l-0.004,0c-0.048,0 -0.09,-0.014 -0.151,-0.016c-0.062,-0.001 -0.102,-0.009 -0.138,-0.009l-0.004,-0.001c-0.049,0 -0.089,0.014 -0.166,0.081c-0.024,0.02 -0.034,0.065 -0.062,0.084c-0.086,0.059 -0.155,0.123 -0.246,0.124l-0.003,0c-0.034,0 -0.072,-0.01 -0.114,-0.032c-0.072,-0.037 -0.16,-0.127 -0.172,-0.213l0,-0.001c0.02,-0.057 0.038,-0.109 0.059,-0.124l0.001,-0.001l-0.001,0.001l0,0c-0.05,0.034 -0.065,0.078 -0.059,0.123l0,0.001l-0.005,0.016c-0.023,0.066 -0.049,0.136 -0.083,0.166c-0.068,0.063 -0.137,0.086 -0.213,0.087l-0.005,0c-0.038,0 -0.078,-0.006 -0.121,-0.015c-0.198,-0.041 -0.364,-0.252 -0.545,-0.253l-0.003,0c-0.029,0 -0.059,0.005 -0.09,0.018c-0.137,0.059 -0.182,0.221 -0.368,0.253c-0.026,0.004 -0.049,0.006 -0.071,0.007l-0.006,0c-0.102,0 -0.164,-0.041 -0.27,-0.1c-0.1,-0.056 -0.056,-0.173 -0.164,-0.176l-0.003,0c-0.03,0 -0.071,0.009 -0.129,0.029c-0.038,0.014 -0.068,0.121 -0.116,0.143c-0.102,0.048 -0.168,0.072 -0.215,0.073l-0.003,0c-0.094,0 -0.114,-0.093 -0.216,-0.261c0.016,-0.107 -0.004,-0.162 -0.059,-0.163l-0.002,0c-0.027,0 -0.062,0.012 -0.106,0.037c-0.032,0.024 -0.065,0.048 -0.098,0.072c-0.048,0.016 -0.098,0.069 -0.153,0.072l-0.003,0c-0.002,0 -0.005,0 -0.008,-0.001c-0.095,-0.008 -0.122,0.014 -0.168,-0.081c-0.091,-0.187 0.165,-0.632 0.226,-0.775c0.212,-0.508 0.432,-1.012 0.609,-1.536c0.056,-0.164 0.103,-0.33 0.145,-0.498c-0.976,-0.011 -1.957,-0.049 -2.942,-0.123c0.014,0.066 -0.036,0.139 -0.182,0.219c-0.898,0.329 -2.129,0.51 -3.413,0.609c0.048,0.071 0.091,0.145 0.126,0.223c0.131,0.296 0.144,0.771 -0.191,0.918c-0.037,0.016 -0.067,0.022 -0.095,0.023l-0.004,0c-0.048,0 -0.09,-0.014 -0.151,-0.016c-0.062,-0.001 -0.102,-0.009 -0.138,-0.009l-0.004,-0.001c-0.049,0 -0.089,0.014 -0.166,0.081c-0.024,0.02 -0.034,0.065 -0.062,0.084c-0.086,0.059 -0.155,0.123 -0.246,0.124l-0.003,0c-0.034,0 -0.072,-0.01 -0.114,-0.032c-0.072,-0.037 -0.16,-0.127 -0.172,-0.213l0,-0.001c0.02,-0.057 0.038,-0.109 0.059,-0.124l0.001,-0.001l-0.001,0.001l0,0c-0.05,0.034 -0.065,0.078 -0.059,0.123l0,0.001l-0.005,0.016c-0.023,0.066 -0.049,0.136 -0.083,0.166c-0.068,0.063 -0.137,0.086 -0.213,0.087l-0.005,0c-0.038,0 -0.078,-0.006 -0.121,-0.015c-0.198,-0.041 -0.364,-0.252 -0.545,-0.253l-0.003,0c-0.029,0 -0.059,0.005 -0.09,0.018c-0.137,0.059 -0.182,0.221 -0.368,0.253c-0.026,0.004 -0.049,0.006 -0.071,0.007l-0.006,0c-0.102,0 -0.164,-0.041 -0.27,-0.1c-0.1,-0.056 -0.056,-0.173 -0.164,-0.176l-0.003,0c-0.03,0 -0.071,0.009 -0.129,0.029c-0.038,0.014 -0.068,0.121 -0.116,0.143c-0.102,0.048 -0.168,0.072 -0.215,0.073l-0.003,0c-0.094,0 -0.114,-0.093 -0.216,-0.261c0.016,-0.107 -0.004,-0.162 -0.059,-0.163l-0.002,0c-0.027,0 -0.062,0.012 -0.106,0.037c-0.032,0.024 -0.065,0.048 -0.098,0.072c-0.048,0.016 -0.098,0.069 -0.153,0.072l-0.003,0c-0.002,0 -0.005,0 -0.008,-0.001c-0.095,-0.008 -0.122,0.014 -0.168,-0.081c-0.016,-0.032 -0.021,-0.073 -0.019,-0.119c-2.508,0.808 -6.692,0.849 -9.484,0.85c-1.656,0 -3.414,-0.469 -4.495,-0.872c-1.368,-0.511 1.311,-1.512 2.289,-1.503c-1.96,0.601 -1.563,1.555 0,1.866c1.562,0.311 7.589,0.216 9.376,0c1.589,-0.192 1.668,-0.656 1.347,-1.297c0.015,0.029 0.766,0.143 1.196,0.335c0.006,-0.013 0.011,-0.025 0.016,-0.035c0.029,-0.07 0.058,-0.139 0.087,-0.208c-1.263,-0.006 -2.599,-0.364 -3.422,-0.673c-1.053,-0.394 1.007,-1.168 1.759,-1.16c-1.507,0.464 -1.202,1.2 0,1.44c0.352,0.071 0.998,0.114 1.771,0.136c0.147,-0.352 0.291,-0.707 0.414,-1.071c0.088,-0.259 0.155,-0.525 0.216,-0.792c-2.389,-0.695 -3.979,-2.798 -6.485,-2.727c0.091,0.509 0.184,0.947 0.254,1.186c0.098,0.331 0.235,1.1 0.368,1.859c0.961,-0.196 1.007,-0.656 0.808,-1.29c0.016,0.05 1.375,0.345 0.781,0.86c-0.439,0.256 -0.977,0.444 -1.563,0.58c0.143,0.812 0.278,1.581 0.355,1.754c0.131,0.296 0.144,0.771 -0.191,0.918c-0.037,0.016 -0.067,0.022 -0.095,0.023l-0.004,0c-0.048,0 -0.09,-0.014 -0.151,-0.016c-0.062,-0.001 -0.102,-0.009 -0.138,-0.009l-0.004,-0.001c-0.049,0 -0.089,0.014 -0.166,0.081c-0.024,0.02 -0.034,0.065 -0.062,0.084c-0.086,0.059 -0.155,0.123 -0.246,0.124l-0.003,0c-0.034,0 -0.072,-0.01 -0.114,-0.032c-0.072,-0.037 -0.16,-0.127 -0.172,-0.213l0,-0.001c0.02,-0.057 0.038,-0.109 0.059,-0.124l0.001,-0.001l-0.001,0.001l0,0c-0.05,0.034 -0.065,0.078 -0.059,0.123l0,0.001l-0.005,0.016c-0.023,0.066 -0.049,0.136 -0.083,0.166c-0.068,0.063 -0.137,0.086 -0.213,0.087l-0.005,0c-0.038,0 -0.078,-0.006 -0.121,-0.015c-0.198,-0.041 -0.364,-0.252 -0.545,-0.253l-0.003,0c-0.029,0 -0.059,0.005 -0.09,0.018c-0.137,0.059 -0.182,0.221 -0.368,0.253c-0.026,0.004 -0.049,0.006 -0.071,0.007l-0.006,0c-0.102,0 -0.164,-0.041 -0.27,-0.1c-0.1,-0.056 -0.056,-0.173 -0.164,-0.176l-0.003,0c-0.03,0 -0.071,0.009 -0.129,0.029c-0.038,0.014 -0.068,0.121 -0.116,0.143c-0.102,0.048 -0.168,0.072 -0.215,0.073l-0.003,0c-0.094,0 -0.114,-0.093 -0.216,-0.261c0.016,-0.107 -0.004,-0.162 -0.059,-0.163l-0.002,0c-0.027,0 -0.062,0.012 -0.106,0.037c-0.032,0.024 -0.065,0.048 -0.098,0.072c-0.048,0.016 -0.098,0.069 -0.153,0.072l-0.003,0c-0.002,0 -0.005,0 -0.008,-0.001c-0.095,-0.008 -0.122,0.014 -0.168,-0.081c-0.091,-0.187 0.165,-0.632 0.226,-0.775c0.109,-0.262 0.058,-0.884 0.008,-1.497c-0.196,0.002 -0.384,0.002 -0.564,0.003c-1.035,0 -2.135,-0.469 -2.81,-0.872c-0.856,-0.511 0.819,-1.512 1.43,-1.503c-1.225,0.601 -0.977,1.555 0,1.866c0.357,0.114 1.084,0.173 1.919,0.192Zm16.578,4.942c-1.011,0.412 -0.806,1.065 0,1.278c0.805,0.213 3.912,0.148 4.834,0c0.819,-0.132 0.86,-0.449 0.694,-0.889c0.013,0.035 1.133,0.237 0.644,0.589c-1.272,0.617 -3.54,0.648 -5.035,0.648c-0.854,0 -1.76,-0.321 -2.317,-0.597c-0.706,-0.349 0.676,-1.036 1.18,-1.029Zm17.009,-0.268c-0.457,0.456 -0.266,1.049 0.171,1.189c0.437,0.139 2.004,-0.147 2.452,-0.352c0.397,-0.182 0.376,-0.48 0.233,-0.877c0.011,0.031 0.606,0.138 0.405,0.501c-0.562,0.667 -1.709,0.86 -2.467,0.969c-0.433,0.062 -0.935,-0.17 -1.255,-0.387c-0.404,-0.274 0.205,-1.013 0.461,-1.043Zm-24.856,-1.483c-1.098,0.839 -0.705,1.862 0.297,2.07c1.001,0.209 4.655,-0.423 5.709,-0.819c0.937,-0.352 0.911,-0.873 0.613,-1.556c0.024,0.053 1.394,0.191 0.898,0.845c-1.359,1.214 -4.031,1.648 -5.796,1.902c-1.008,0.145 -2.153,-0.222 -2.876,-0.575c-0.914,-0.447 0.558,-1.792 1.155,-1.867Zm29.466,0.545c0.36,-0.321 0.977,-0.317 1.197,-0.106c0.219,0.211 0.237,1.098 0.121,1.371c-0.102,0.244 -0.399,0.282 -0.814,0.271c0.033,0.001 0.25,0.302 0.568,0.134c0.545,-0.412 0.517,-1.058 0.479,-1.483c-0.021,-0.242 -0.344,-0.472 -0.617,-0.608c-0.345,-0.171 -0.952,0.278 -0.934,0.421Zm-2.61,1.339c-0.457,-0.457 -0.266,-1.05 0.171,-1.189c0.437,-0.14 2.004,0.146 2.452,0.351c0.397,0.182 0.376,0.481 0.233,0.877c0.011,-0.031 0.606,-0.137 0.405,-0.501c-0.562,-0.666 -1.709,-0.859 -2.467,-0.969c-0.433,-0.062 -0.935,0.171 -1.255,0.387c-0.404,0.274 0.205,1.013 0.461,1.044Zm-17.009,-2.133c-1.011,0.412 -0.806,1.065 0,1.278c0.805,0.213 3.912,0.148 4.834,0c0.819,-0.132 0.86,-0.449 0.694,-0.889c0.013,0.035 1.133,0.237 0.644,0.589c-1.272,0.617 -3.54,0.648 -5.035,0.648c-0.854,0 -1.76,-0.321 -2.317,-0.597c-0.706,-0.349 0.676,-1.036 1.18,-1.029Zm-2.777,-2.377c-1.211,-0.12 -2.43,-0.296 -3.658,-0.541c0.148,0.282 0.32,0.549 0.523,0.798c0.134,0.164 0.297,0.321 0.44,0.493c0.65,-0.027 1.2,-0.063 1.545,-0.105c0.904,-0.11 1.172,-0.335 1.15,-0.645Zm-4.352,-8.01l-0.22,0c0.017,1.183 0.048,2.365 0.096,3.543c0.002,0.051 0.004,0.102 0.006,0.153c2.969,0.716 6.012,0.886 9.078,0.802c0.02,-0.519 0.029,-1.038 0.032,-1.559c-0.104,-0.038 -0.206,-0.093 -0.303,-0.166c-0.304,-0.23 -0.486,-0.585 -0.486,-0.94c-0.056,0.008 -0.109,0.012 -0.161,0.011c-0.08,0.082 -0.161,0.161 -0.244,0.237c-0.148,0.137 -0.311,0.26 -0.499,0.246c-0.068,-0.005 -0.132,-0.028 -0.193,-0.051c-0.064,-0.023 -0.124,-0.045 -0.186,-0.046l0,0c-0.107,0.001 -0.209,0.07 -0.307,0.137c-0.326,0.22 -0.709,0.441 -1.121,0.441c-0.015,0 -0.029,0 -0.043,0c-0.389,-0.015 -0.83,-0.309 -0.902,-0.765c-0.318,0.078 -0.634,-0.001 -0.834,-0.212c-0.127,-0.134 -0.2,-0.334 -0.197,-0.536c0,-0.022 0.001,-0.044 0.003,-0.065c-0.06,0.02 -0.122,0.037 -0.184,0.051c-0.304,0.073 -1.302,0.25 -1.662,-0.456c-0.288,0.243 -0.69,0.299 -1.023,0.137c-0.325,-0.159 -0.557,-0.515 -0.598,-0.905c-0.016,0.01 -0.033,0.019 -0.05,0.028l-0.002,-0.085Zm10.526,4.434c-0.008,-0.046 -0.011,-0.093 -0.01,-0.139c0.002,-0.123 0.031,-0.235 0.085,-0.327c-0.227,-0.005 -0.454,-0.113 -0.638,-0.306c-0.047,-0.049 -0.088,-0.101 -0.125,-0.156c0.01,0.32 0.022,0.64 0.034,0.96c0.218,-0.01 0.436,-0.02 0.654,-0.032Zm5.372,-0.434l-0.158,0l-0.011,0.017l0.069,-0.007l0.1,-0.01Zm-16.918,-4l-0.24,0c-0.277,0.397 -0.594,0.76 -0.942,1.081c-0.148,0.137 -0.311,0.26 -0.499,0.246c-0.068,-0.005 -0.132,-0.028 -0.193,-0.051c-0.064,-0.023 -0.124,-0.045 -0.186,-0.046l0,0c-0.107,0.001 -0.209,0.07 -0.307,0.137c-0.182,0.123 -0.382,0.246 -0.594,0.331c1.057,0.647 2.029,1.412 2.943,1.747c0.043,-1.145 0.034,-2.296 0.018,-3.445Z"/><path id="Inner-Outline" serif:id="Inner Outline" d="M59,32c0,-14.902 -12.098,-27 -27,-27c-14.902,0 -27,12.098 -27,27c0,14.902 12.098,27 27,27c14.902,0 27,-12.098 27,-27Z" style="fill:none;stroke:#fff;stroke-width:3px;"/><path id="Outline" d="M61.409,31.99c0,-16.178 -13.135,-29.313 -29.313,-29.313c-16.179,0 -29.314,13.135 -29.314,29.313c0,16.179 13.135,29.313 29.314,29.313c16.178,0 29.313,-13.134 29.313,-29.313Z" style="fill:none;stroke:#000;stroke-width:3px;"/></g></g></g></svg>