<?xml version="1.0" encoding="UTF-8" standalone="no"?><!DOCTYPE svg PUBLIC "-//W3C//DTD SVG 1.1//EN" "http://www.w3.org/Graphics/SVG/1.1/DTD/svg11.dtd"><svg width="100%" height="100%" viewBox="0 0 64 64" version="1.1" xmlns="http://www.w3.org/2000/svg" xmlns:xlink="http://www.w3.org/1999/xlink" xml:space="preserve" xmlns:serif="http://www.serif.com/" style="fill-rule:evenodd;clip-rule:evenodd;stroke-miterlimit:10;"><g id="Habitats"><g id="Freshwater"><g id="springs"><path d="M5.849,25.263l5.436,0c0.166,-1.955 1.503,-3.73 4.05,-3.895c0.089,-0.108 0.176,-0.218 0.262,-0.328c0.397,-0.517 0.384,-0.9 1.846,-2.132c2.445,-2.06 6.012,-2.804 9.129,-2.017c1.817,-1.314 4.054,-2.12 6.318,-2.194c0.218,-0.003 0.217,-0.003 0.434,-0.001c3.795,0.112 7.574,2.073 9.236,5.51c0.798,-0.3 1.163,-0.366 1.781,-0.429c1.34,-0.138 3.033,0.483 3.526,0.525c2.482,0.255 3.362,0.131 4.701,0.976c0,0 3.98,0.987 4.688,3.985l0.895,0c0.554,2.154 0.849,4.411 0.849,6.737c0,14.902 -12.098,27 -27,27c-4.792,0 -9.295,-1.251 -13.198,-3.445l0.151,0.085c1.703,-0.318 3.439,-0.688 5.197,-1.112c17.837,-4.296 31.196,-12.448 29.812,-18.193c-1.384,-5.745 -16.989,-6.922 -34.827,-2.626c-4.897,1.18 -9.457,2.65 -13.467,4.281l0.04,0.175c-0.463,-1.98 -0.708,-4.044 -0.708,-6.165c0,-2.326 0.295,-4.583 0.849,-6.737Zm12.801,30.206l0.142,0.08l-0.085,-0.047l-0.057,-0.033Zm-0.152,-0.087l0.137,0.079l-0.07,-0.04l-0.067,-0.039Zm-0.153,-0.089l0.137,0.08l-0.058,-0.034l-0.079,-0.046Zm-0.156,-0.093l0.142,0.084l-0.048,-0.028l-0.094,-0.056Zm-0.905,-0.565c0.295,0.193 0.594,0.379 0.898,0.561c-0.304,-0.181 -0.603,-0.368 -0.898,-0.561Zm-0.144,-0.094l0.137,0.09l-0.098,-0.064l-0.039,-0.026Zm-0.144,-0.096l0.127,0.084l-0.08,-0.052l-0.047,-0.032Zm-0.144,-0.097l0.122,0.082l-0.066,-0.044l-0.056,-0.038Zm-0.145,-0.099l0.121,0.083l-0.054,-0.037l-0.067,-0.046Zm-0.146,-0.102l0.124,0.086l-0.045,-0.03l-0.079,-0.056Zm-0.151,-0.106l0.133,0.093l-0.036,-0.024l-0.097,-0.069Zm-0.715,-0.525c0.232,0.177 0.468,0.35 0.707,0.519c-0.239,-0.169 -0.475,-0.342 -0.707,-0.519Zm-0.137,-0.104l0.124,0.095l-0.091,-0.07l-0.033,-0.025Zm-0.135,-0.105l0.113,0.088l-0.073,-0.057l-0.04,-0.031Zm-0.136,-0.107l0.109,0.086l-0.061,-0.048l-0.048,-0.038Zm-0.136,-0.108l0.107,0.085l-0.05,-0.039l-0.057,-0.046Zm-0.137,-0.11l0.108,0.087l-0.041,-0.033l-0.067,-0.054Zm-0.139,-0.114l0.113,0.093l-0.033,-0.027l-0.08,-0.066Zm-0.146,-0.12l0.126,0.104l-0.025,-0.021l-0.101,-0.083Zm-0.537,-0.46c0.175,0.154 0.352,0.306 0.531,0.455c-0.179,-0.149 -0.356,-0.301 -0.531,-0.455Zm-0.128,-0.113l0.112,0.099l-0.085,-0.075l-0.027,-0.024Zm-0.128,-0.114l0.102,0.091l-0.068,-0.061l-0.034,-0.03Zm-0.127,-0.116l0.097,0.088l-0.056,-0.051l-0.041,-0.037Zm-0.127,-0.116l0.095,0.087l-0.047,-0.043l-0.048,-0.044Zm-0.127,-0.119l0.095,0.089l-0.039,-0.036l-0.056,-0.053Zm-0.129,-0.122l0.098,0.093l-0.031,-0.029l-0.067,-0.064Zm-0.133,-0.126l0.107,0.102l-0.025,-0.023l-0.082,-0.079Zm-0.512,-0.505c0.163,0.165 0.328,0.328 0.495,0.488c-0.167,-0.16 -0.332,-0.323 -0.495,-0.488Zm-0.119,-0.122l0.101,0.103l-0.079,-0.08l-0.022,-0.023Zm-0.119,-0.123l0.092,0.095l-0.064,-0.066l-0.028,-0.029Zm-0.118,-0.124l0.087,0.091l-0.053,-0.054l-0.034,-0.037Zm-0.118,-0.125l0.084,0.09l-0.043,-0.046l-0.041,-0.044Zm-0.118,-0.127l0.084,0.091l-0.036,-0.038l-0.048,-0.053Zm-0.119,-0.129l0.086,0.094l-0.029,-0.031l-0.057,-0.063Zm-0.121,-0.133l0.091,0.101l-0.022,-0.025l-0.069,-0.076Zm-0.128,-0.143l0.105,0.118l-0.017,-0.019l-0.088,-0.099Zm-0.352,-0.404c0.113,0.133 0.227,0.264 0.343,0.394c-0.116,-0.13 -0.23,-0.261 -0.343,-0.394Zm-0.111,-0.13l0.094,0.11l-0.075,-0.088l-0.019,-0.022Zm-0.109,-0.13l0.083,0.099l-0.06,-0.071l-0.023,-0.028Zm-0.11,-0.132l0.079,0.095l-0.049,-0.06l-0.03,-0.035Zm-0.108,-0.133l0.076,0.093l-0.041,-0.05l-0.035,-0.043Zm-0.109,-0.135l0.076,0.094l-0.034,-0.042l-0.042,-0.052Zm-0.109,-0.137l0.077,0.097l-0.028,-0.035l-0.049,-0.062Zm-0.11,-0.14l0.081,0.103l-0.022,-0.028l-0.059,-0.075Zm-0.114,-0.147l0.089,0.115l-0.016,-0.021l-0.073,-0.094Zm-0.329,-0.437c0.103,0.14 0.208,0.279 0.314,0.417c-0.106,-0.138 -0.211,-0.277 -0.314,-0.417Zm-0.101,-0.138l0.087,0.12l-0.072,-0.099l-0.015,-0.021Zm-0.1,-0.138l0.076,0.106l-0.056,-0.078l-0.02,-0.028Zm-0.1,-0.14l0.072,0.101l-0.047,-0.065l-0.025,-0.036Zm-0.099,-0.141l0.069,0.099l-0.039,-0.055l-0.03,-0.044Zm-0.099,-0.142l0.069,0.099l-0.033,-0.046l-0.036,-0.053Zm-0.098,-0.144l0.069,0.102l-0.027,-0.039l-0.042,-0.063Zm-0.1,-0.147l0.072,0.107l-0.021,-0.031l-0.051,-0.076Zm-0.102,-0.154l0.078,0.119l-0.016,-0.024l-0.062,-0.095Zm-0.301,-0.464c0.094,0.147 0.188,0.294 0.285,0.44c-0.096,-0.146 -0.191,-0.292 -0.285,-0.44Zm-0.091,-0.145l0.085,0.135l-0.072,-0.115l-0.013,-0.02Zm-0.09,-0.146l0.072,0.117l-0.055,-0.089l-0.017,-0.028Zm-0.09,-0.147l0.067,0.109l-0.045,-0.073l-0.022,-0.036Zm-0.089,-0.148l0.064,0.106l-0.037,-0.061l-0.027,-0.045Zm-0.088,-0.149l0.063,0.106l-0.031,-0.052l-0.032,-0.054Zm-0.088,-0.152l0.063,0.109l-0.026,-0.044l-0.037,-0.065Zm-0.089,-0.154l0.065,0.114l-0.021,-0.036l-0.044,-0.078Zm-0.091,-0.16l0.071,0.125l-0.017,-0.029l-0.054,-0.096Zm-0.348,-0.641c0.108,0.207 0.22,0.413 0.334,0.616c-0.114,-0.204 -0.226,-0.409 -0.334,-0.616Zm-0.08,-0.152l0.069,0.132l-0.054,-0.103l-0.015,-0.029Zm-0.079,-0.154l0.062,0.122l-0.043,-0.085l-0.019,-0.037Zm-0.079,-0.155l0.06,0.118l-0.037,-0.071l-0.023,-0.047Zm-0.078,-0.156l0.058,0.116l-0.03,-0.06l-0.028,-0.056Zm-0.077,-0.159l0.058,0.119l-0.025,-0.05l-0.033,-0.069Zm-0.078,-0.161l0.06,0.124l-0.021,-0.042l-0.039,-0.082Zm-0.08,-0.167l0.065,0.135l-0.017,-0.034l-0.048,-0.101Zm-0.301,-0.667c0.094,0.217 0.192,0.432 0.292,0.646c-0.1,-0.214 -0.198,-0.429 -0.292,-0.646Zm-0.069,-0.159l0.067,0.156l-0.054,-0.125l-0.013,-0.031Zm-0.068,-0.16l0.059,0.139l-0.043,-0.1l-0.016,-0.039Zm-0.068,-0.162l0.055,0.133l-0.034,-0.083l-0.021,-0.05Zm-0.067,-0.163l0.054,0.131l-0.029,-0.07l-0.025,-0.061Zm-0.066,-0.165l0.053,0.132l-0.024,-0.059l-0.029,-0.073Zm-0.066,-0.168l0.054,0.138l-0.02,-0.05l-0.034,-0.088Zm-0.068,-0.175l0.058,0.15l-0.016,-0.04l-0.042,-0.11Zm-0.31,-0.854c0.097,0.283 0.199,0.563 0.305,0.842c-0.106,-0.279 -0.208,-0.559 -0.305,-0.842Zm-0.057,-0.166l0.056,0.163l-0.041,-0.12l-0.015,-0.043Zm-0.056,-0.168l0.051,0.152l-0.033,-0.098l-0.018,-0.054Zm-0.055,-0.169l0.049,0.148l-0.028,-0.083l-0.021,-0.065Zm-0.054,-0.171l0.047,0.149l-0.022,-0.07l-0.025,-0.079Zm-0.055,-0.175l0.048,0.154l-0.018,-0.059l-0.03,-0.095Zm-0.055,-0.182l0.051,0.168l-0.015,-0.049l-0.036,-0.119Zm-0.335,-1.224c0.102,0.412 0.214,0.82 0.335,1.223c-0.121,-0.404 -0.233,-0.811 -0.335,-1.223Zm-0.043,-0.175l0.042,0.17l-0.025,-0.099l-0.017,-0.071Zm-0.042,-0.177l0.04,0.169l-0.02,-0.083l-0.02,-0.086Z" style="fill:#1b1b1a;"/><path d="M24.615,35.833c-0.089,0.2 -1.04,1.452 -1.532,2.155c-2.31,3.381 1.43,8.538 6.438,9.709c1.058,0.248 2.616,0.191 3.236,0.331c0.228,0.051 0.487,0.342 0.484,0.509c-0.003,0.167 -0.273,0.447 -0.504,0.49c-0.324,0.061 -1,-0.066 -1.441,-0.126c-4.063,-0.554 -8.424,-2.921 -9.421,-6.96c-0.492,-1.995 0.593,-3.502 1.737,-5.153c0.236,-0.33 1.091,-1.155 1.003,-0.955Zm7.628,-0.786c-0.428,0.479 -2.592,1.839 -3.517,3.46c-0.778,1.362 -1.037,2.044 0,2.981c2.061,1.785 6.975,2.23 8.465,2.78c0.219,0.081 0.479,0.352 0.473,0.518c-0.006,0.167 -0.28,0.442 -0.511,0.481c-0.33,0.057 -1.036,-0.084 -1.47,-0.143c-1.833,-0.251 -3.592,-0.936 -5.304,-1.646c-1.395,-0.604 -2.843,-1.794 -2.689,-3.095c0.287,-2.433 2.718,-3.993 3.606,-4.753c0.277,-0.237 1.194,-0.86 0.947,-0.583Zm5.975,0.384c-0.22,0.204 -2.088,0.866 -2.831,1.625c-0.989,1.01 -0.667,2.892 0.832,3.812c1.598,0.98 3.691,1.093 5.441,0.385l0.634,0.305c0,0 0.004,0.551 -0.533,0.708c-2.649,0.717 -6.27,0.164 -7.241,-2.269c-0.972,-2.437 1.129,-3.713 2.19,-4.164c0.086,-0.037 1.729,-0.606 1.508,-0.402Zm0.289,2.849c0.009,0.122 0.063,0.099 0.132,0.169c1.106,1.047 3.392,1.139 4.026,0.058c0.292,-0.498 -0.434,-1.196 -0.434,-1.196l-0.116,-0.255l0.255,-0.117c0.968,0.358 1.012,1.875 -0.025,2.566c-1.533,1.022 -4.325,0.499 -4.57,-1.066c-0.172,-1.105 2.007,-1.735 2.452,-2.043c0.08,-0.056 0.282,0.124 0.217,0.196c-0.287,0.314 -2.022,0.41 -1.937,1.688Zm6.276,-3.187c-0.078,-0.011 -0.786,0.151 -0.704,0c0.451,-0.833 2.505,0.194 2.683,1.695c0.11,0.925 -0.348,1.529 -0.526,1.904c-0.092,0.195 -0.444,0.414 -0.542,0.352c-0.097,-0.063 -0.252,-0.605 -0.042,-0.724c0.413,-0.235 1.257,-2.922 -0.869,-3.227Z" style="fill:#1b1b1a;fill-rule:nonzero;"/><path id="Inner-Outline" serif:id="Inner Outline" d="M59,32c0,-14.902 -12.098,-27 -27,-27c-14.902,0 -27,12.098 -27,27c0,14.902 12.098,27 27,27c14.902,0 27,-12.098 27,-27Z" style="fill:none;stroke:#fff;stroke-width:3px;"/><path id="Outline" d="M61.409,31.99c0,-16.178 -13.135,-29.313 -29.313,-29.313c-16.179,0 -29.314,13.135 -29.314,29.313c0,16.179 13.135,29.313 29.314,29.313c16.178,0 29.313,-13.134 29.313,-29.313Z" style="fill:none;stroke:#000;stroke-width:3px;"/></g></g></g></svg>