<?xml version="1.0" encoding="UTF-8" standalone="no"?><!DOCTYPE svg PUBLIC "-//W3C//DTD SVG 1.1//EN" "http://www.w3.org/Graphics/SVG/1.1/DTD/svg11.dtd"><svg width="100%" height="100%" viewBox="0 0 64 64" version="1.1" xmlns="http://www.w3.org/2000/svg" xmlns:xlink="http://www.w3.org/1999/xlink" xml:space="preserve" xmlns:serif="http://www.serif.com/" style="fill-rule:evenodd;clip-rule:evenodd;stroke-miterlimit:10;"><g id="Temperature-change" serif:id="Temperature change"><path d="M31.689,9.4c3.123,0.059 5.903,2.846 5.923,5.996l0,19.122c1.297,0.779 1.436,0.982 2.005,1.529c5.477,5.27 3.236,16.491 -4.876,18.581c-5.659,1.457 -12.143,-2.447 -13.466,-8.171c-0.971,-4.202 0.783,-8.887 4.337,-11.441c0,-6.59 -0.123,-13.182 0.002,-19.771c0.099,-3.124 2.986,-5.865 6.075,-5.845Zm-0.129,2c-2.089,0.04 -3.935,1.897 -3.948,4.003l0,20.143c-0.052,0.835 -0.249,0.675 -0.92,1.157c-4.996,3.709 -4.33,12.707 1.5,15.431c4.633,2.164 10.904,-0.47 12.429,-5.59c1.178,-3.957 -0.705,-8.546 -4.479,-10.557c0,0 -0.493,-0.261 -0.53,-0.883c0,-6.602 0.124,-13.206 -0.001,-19.808c-0.067,-2.088 -1.958,-3.909 -4.051,-3.896Zm-1.232,27.833l0,-20.918c0,-0.859 0.697,-1.557 1.556,-1.557c0.86,0 1.557,0.698 1.557,1.557l0,20.933c2.065,0.667 3.56,2.606 3.56,4.891c0,2.837 -2.303,5.14 -5.139,5.14c-2.837,0 -5.139,-2.303 -5.139,-5.14c0,-2.302 1.517,-4.252 3.605,-4.906Zm-8.328,-18.233l-3.25,0l0,15l-3.5,0l0,-15l-3.25,0l5,-5l5,5Zm26.75,10l3.25,0l-5,5l-5,-5l3.25,0l0,-15l3.5,0l0,15Z" style="fill:#1b1b1a;fill-rule:nonzero;"/><path id="Outline" d="M61.5,32.174c0,-16.178 -13.135,-29.313 -29.313,-29.313c-16.178,0 -29.313,13.135 -29.313,29.313c0,16.178 13.135,29.313 29.313,29.313c16.178,0 29.313,-13.135 29.313,-29.313Z" style="fill:none;stroke:#1b1b1a;stroke-width:3px;"/></g></svg>