<?xml version="1.0" encoding="UTF-8" standalone="no"?><!DOCTYPE svg PUBLIC "-//W3C//DTD SVG 1.1//EN" "http://www.w3.org/Graphics/SVG/1.1/DTD/svg11.dtd"><svg width="100%" height="100%" viewBox="0 0 64 64" version="1.1" xmlns="http://www.w3.org/2000/svg" xmlns:xlink="http://www.w3.org/1999/xlink" xml:space="preserve" xmlns:serif="http://www.serif.com/" style="fill-rule:evenodd;clip-rule:evenodd;stroke-miterlimit:10;"><g id="Species"><g id="Invertebrates"><g id="snail"><path id="Outline" d="M59.626,31.687c0,-16.179 -13.135,-29.313 -29.313,-29.313c-16.178,0 -29.313,13.134 -29.313,29.313c0,16.178 13.135,29.313 29.313,29.313c16.178,0 29.313,-13.135 29.313,-29.313Z" style="fill:none;stroke:#000;stroke-width:3px;"/><path d="M54.275,25.201c-0.483,0.23 -1.765,0.208 -3.535,0.07c-1.77,-0.138 -3.798,0.39 -4.855,0.574c-1.057,0.184 -1.586,0 -1.954,-0.276c-0.367,-0.276 0.553,-3.164 2.087,-4.626c1.655,-1.58 1.902,-2.55 2.689,-2.822c0.787,-0.272 0.579,-0.657 0.504,-1.028c-0.075,-0.372 -0.834,-0.47 -1.249,0.262c-0.416,0.732 -4.185,4.009 -5.831,6.48c-1.233,1.851 -0.636,4.17 -1.855,5.044c-1.218,0.874 -4.16,2.344 -5.447,2.988c-1.287,0.644 -3.241,2.092 -3.908,2.505c-0.666,0.414 -0.386,-0.486 -0.515,-1.471c-0.24,-1.843 -0.831,-2.513 -1.852,-3.889c-0.907,-1.223 -2.29,-2.357 -3.907,-3.352c-1.57,-0.967 -5.563,-0.735 -7.172,-0.206c-1.609,0.529 -3.678,2.299 -4.161,3.379c-0.482,1.08 -0.781,0.391 -1.402,0.368c-0.62,-0.023 -2.022,1.379 -2.045,1.884c-0.023,0.506 -0.138,0.598 -0.621,0.782c-0.483,0.184 -0.736,1.126 -0.736,1.356c0,0.23 -0.023,0.391 -0.322,0.736c-0.298,0.344 -0.344,0.988 0,1.379c0.345,0.391 0.23,0.138 0.253,0.414c0.023,0.275 1.081,1.471 1.449,1.747c0.367,0.276 0.321,0.551 0.643,1.631c0.322,1.081 0.897,1.954 1.471,2.598c0.575,0.643 0.483,0.621 0.322,0.85c-0.161,0.23 -2.971,0.537 -2.23,0.437c0.148,-0.02 -1.19,0.161 -1.287,0.161c0,0 -0.299,0.069 -0.689,0.207c-0.391,0.138 -0.506,0.184 -0.713,0.62c-0.207,0.437 0.368,0.506 1.172,0.598c0.805,0.092 1.967,0.127 2.892,0.124c1.174,-0.004 1.912,-0.055 2.878,0.29c0.965,0.345 1.747,0.414 2.597,0.436c0.85,0.024 1.653,0.008 2.62,0.117c0.932,0.106 2.69,0.23 4.575,0.207c1.884,-0.023 2.636,0.135 3.497,0.089c1.555,-0.084 1.919,-0.191 3.055,-0.223c0.92,-0.025 3.447,-0.396 4.642,-0.994c1.195,-0.598 4.137,-4.252 4.712,-4.988c0.574,-0.736 1.379,-2.069 1.747,-3.287c0.367,-1.218 0.551,-1.448 1.333,-2.207c0.781,-0.758 2.689,-0.275 3.953,-0.229c1.264,0.046 1.172,-0.253 1.517,-0.552c0.345,-0.299 1.104,-0.253 1.655,-0.345c0.552,-0.092 -0.069,-0.574 -0.551,-0.643c-0.483,-0.069 -0.483,-0.368 -0.529,-0.897c-0.046,-0.528 -0.896,-1.149 -1.609,-1.379c-0.713,-0.229 -1.31,-1.149 -1.563,-1.908c-0.253,-0.758 3.246,-1.525 4.166,-1.663c0.919,-0.138 3.695,-0.382 4.178,-0.29c0.482,0.092 1.333,-0.092 1.333,-0.736c0,-0.644 -0.919,-0.552 -1.402,-0.322" style="fill-rule:nonzero;"/></g></g></g></svg>