<?xml version="1.0" encoding="UTF-8" standalone="no"?><!DOCTYPE svg PUBLIC "-//W3C//DTD SVG 1.1//EN" "http://www.w3.org/Graphics/SVG/1.1/DTD/svg11.dtd"><svg width="100%" height="100%" viewBox="0 0 64 64" version="1.1" xmlns="http://www.w3.org/2000/svg" xmlns:xlink="http://www.w3.org/1999/xlink" xml:space="preserve" xmlns:serif="http://www.serif.com/" style="fill-rule:evenodd;clip-rule:evenodd;stroke-miterlimit:10;"><g id="Species"><g id="Invertebrates"><g id="snail"><path id="Outline" d="M62.409,32.047c0,-16.178 -13.135,-29.313 -29.313,-29.313c-16.179,0 -29.314,13.135 -29.314,29.313c0,16.178 13.135,29.313 29.314,29.313c16.178,0 29.313,-13.135 29.313,-29.313Z" style="fill:none;stroke:#000;stroke-width:3px;"/><path d="M57.057,25.561c-0.483,0.23 -1.765,0.208 -3.535,0.07c-1.77,-0.138 -3.797,0.39 -4.855,0.574c-1.057,0.184 -1.586,0 -1.953,-0.276c-0.368,-0.276 0.552,-3.164 2.086,-4.626c1.656,-1.58 1.902,-2.55 2.69,-2.822c0.786,-0.272 0.578,-0.656 0.504,-1.028c-0.075,-0.372 -0.834,-0.469 -1.25,0.262c-0.416,0.732 -4.185,4.009 -5.83,6.481c-1.233,1.851 -0.637,4.17 -1.855,5.043c-1.218,0.874 -4.161,2.345 -5.448,2.988c-1.287,0.644 -3.241,2.092 -3.907,2.506c-0.667,0.413 -0.387,-0.487 -0.515,-1.472c-0.24,-1.843 -0.832,-2.513 -1.852,-3.889c-0.907,-1.223 -2.291,-2.357 -3.907,-3.352c-1.57,-0.966 -5.564,-0.735 -7.173,-0.206c-1.609,0.529 -3.677,2.299 -4.16,3.379c-0.483,1.08 -0.782,0.391 -1.402,0.368c-0.621,-0.023 -2.023,1.379 -2.046,1.885c-0.023,0.505 -0.138,0.597 -0.621,0.781c-0.482,0.184 -0.735,1.127 -0.735,1.356c0,0.23 -0.023,0.391 -0.322,0.736c-0.299,0.345 -0.345,0.988 0,1.379c0.345,0.391 0.23,0.138 0.253,0.414c0.023,0.276 1.08,1.471 1.448,1.747c0.368,0.276 0.322,0.552 0.644,1.632c0.321,1.08 0.896,1.954 1.471,2.597c0.574,0.644 0.482,0.621 0.321,0.851c-0.161,0.229 -2.971,0.536 -2.229,0.436c0.148,-0.02 -1.191,0.161 -1.287,0.161c0,0 -0.299,0.069 -0.69,0.207c-0.391,0.138 -0.506,0.184 -0.712,0.621c-0.207,0.437 0.367,0.505 1.172,0.597c0.804,0.092 1.966,0.127 2.892,0.124c1.173,-0.004 1.912,-0.055 2.877,0.29c0.966,0.345 1.747,0.414 2.597,0.437c0.851,0.023 1.653,0.007 2.621,0.117c0.931,0.105 2.689,0.229 4.574,0.206c1.885,-0.023 2.637,0.135 3.497,0.089c1.556,-0.083 1.919,-0.191 3.056,-0.222c0.92,-0.026 3.446,-0.397 4.641,-0.995c1.195,-0.597 4.138,-4.252 4.712,-4.988c0.575,-0.735 1.379,-2.068 1.747,-3.286c0.368,-1.219 0.552,-1.449 1.333,-2.207c0.782,-0.759 2.69,-0.276 3.954,-0.23c1.264,0.046 1.172,-0.253 1.517,-0.552c0.344,-0.299 1.103,-0.253 1.655,-0.345c0.551,-0.092 -0.069,-0.574 -0.552,-0.643c-0.483,-0.069 -0.483,-0.368 -0.529,-0.897c-0.046,-0.528 -0.896,-1.149 -1.609,-1.379c-0.712,-0.229 -1.31,-1.149 -1.563,-1.907c-0.252,-0.759 3.246,-1.526 4.166,-1.664c0.92,-0.138 3.696,-0.382 4.178,-0.29c0.483,0.092 1.334,-0.092 1.334,-0.736c0,-0.644 -0.92,-0.552 -1.403,-0.322" style="fill-rule:nonzero;"/></g></g></g></svg>