<?xml version="1.0" encoding="UTF-8" standalone="no"?><!DOCTYPE svg PUBLIC "-//W3C//DTD SVG 1.1//EN" "http://www.w3.org/Graphics/SVG/1.1/DTD/svg11.dtd"><svg width="100%" height="100%" viewBox="0 0 64 64" version="1.1" xmlns="http://www.w3.org/2000/svg" xmlns:xlink="http://www.w3.org/1999/xlink" xml:space="preserve" xmlns:serif="http://www.serif.com/" style="fill-rule:evenodd;clip-rule:evenodd;stroke-miterlimit:10;"><g id="Species"><g id="Invertebrates"><g id="crab"><path id="Outline" d="M138.626,31.687c0,-16.179 -13.135,-29.313 -29.313,-29.313c-16.178,0 -29.313,13.134 -29.313,29.313c0,16.178 13.135,29.313 29.313,29.313c16.178,0 29.313,-13.135 29.313,-29.313Z" style="fill:none;stroke:#000;stroke-width:3px;"/></g><g id="dragonfly"><path id="Outline1" serif:id="Outline" d="M58.626,31.687c0,-16.179 -13.135,-29.313 -29.313,-29.313c-16.178,0 -29.313,13.134 -29.313,29.313c0,16.178 13.135,29.313 29.313,29.313c16.178,0 29.313,-13.135 29.313,-29.313Z" style="fill:none;stroke:#000;stroke-width:3px;"/><path d="M29.545,26.717l-0.124,-0.681c0,0 0.062,-0.01 0.237,0.096c0.175,0.106 0.239,0.231 0.239,0.231l-0.352,0.354Zm-3.457,1.673c0,0 -0.064,-0.125 -0.049,-0.328c0.016,-0.204 0.06,-0.249 0.06,-0.249l0.482,0.497l-0.493,0.08Zm21.141,-13.596c-0.272,-0.185 -0.689,-0.187 -0.967,-0.153c-0.766,0.094 -1.48,0.526 -2.135,0.893c-0.277,0.155 -0.534,0.314 -0.797,0.523c-0.351,0.278 -0.717,0.545 -1.073,0.821c-0.604,0.468 -1.2,0.946 -1.8,1.431c-0.574,0.464 -1.189,0.903 -1.739,1.378c-0.458,0.396 -0.903,0.843 -1.363,1.14c-0.5,0.322 -1.059,0.652 -1.637,0.989c-0.535,0.311 -0.987,0.602 -1.461,0.908c-0.393,0.253 -0.823,0.506 -1.197,0.767c-0.276,0.194 -0.587,0.434 -0.865,0.669c-0.142,0.12 -0.299,0.261 -0.433,0.367c-0.058,0.047 -0.101,0.117 -0.187,0.162c-0.016,-0.097 0.029,-0.2 0.018,-0.291c-0.014,-0.108 0.001,-0.242 0.073,-0.32c0.119,-0.126 0.218,-0.328 0.278,-0.503c0.085,-0.247 0.27,-0.562 0.203,-0.805c-0.006,-0.022 0.006,-0.056 -0.03,-0.069c-0.088,-0.032 -0.07,0.045 -0.051,0.107c0.025,0.081 0.018,0.243 -0.066,0.286c-0.004,-0.086 -0.002,-0.12 -0.017,-0.191c-0.007,-0.029 -0.006,-0.068 -0.039,-0.089c-0.092,-0.057 -0.06,0.101 -0.058,0.144c0.005,0.088 -0.008,0.173 -0.01,0.254c0,0.054 0.018,0.041 0.006,0.095c-0.007,0.028 -0.023,0.051 -0.03,0.069c-0.014,0.039 -0.035,0.08 -0.05,0.113c-0.023,0.05 -0.035,0.143 -0.067,0.207c-0.066,0.135 -0.169,0.236 -0.245,0.376c-0.083,0.152 -0.087,0.274 -0.077,0.408c0.006,0.084 -0.023,0.164 -0.023,0.25c-0.001,0.029 0.026,0.09 0.018,0.12c-0.003,0.013 -0.069,0.061 -0.074,0.066c-0.042,0.039 -0.098,0.091 -0.145,0.139c-0.13,0.133 -0.326,0.344 -0.491,0.505c-0.227,0.221 -0.437,0.439 -0.691,0.672c-0.082,-0.151 -0.221,-0.238 -0.335,-0.315c-0.061,-0.04 -0.122,-0.089 -0.194,-0.123c-0.044,-0.021 -0.076,-0.04 -0.115,-0.076c-0.066,-0.062 -0.117,-0.21 -0.175,-0.278c-0.036,-0.042 -0.056,-0.071 -0.092,-0.115c-0.037,-0.045 -0.125,-0.108 -0.174,-0.17c0.163,-0.05 0.322,-0.08 0.474,-0.157c0.131,-0.066 0.27,-0.144 0.387,-0.232c0.072,-0.054 0.209,-0.156 0.234,-0.251c0.022,-0.081 -0.03,-0.08 -0.044,-0.139c-0.004,-0.017 0.007,-0.08 0.007,-0.112c0,-0.053 -0.003,-0.082 -0.015,-0.134c-0.06,-0.265 -0.185,-0.545 -0.332,-0.79c-0.134,-0.222 -0.27,-0.405 -0.422,-0.615c-0.077,-0.105 -0.159,-0.214 -0.226,-0.311c-0.041,-0.059 -0.107,-0.131 -0.133,-0.212c-0.07,-0.227 -0.094,-0.509 -0.138,-0.716c-0.015,-0.068 -0.018,-0.156 -0.031,-0.228c-0.016,-0.093 -0.026,-0.209 -0.003,-0.279c0.011,-0.035 0.067,-0.11 -0.027,-0.135c-0.053,-0.014 -0.106,0.065 -0.155,0.055c-0.033,-0.007 -0.069,-0.087 -0.113,-0.072c-0.091,0.03 0.063,0.169 0.081,0.214c0.017,0.043 0.011,0.099 0.018,0.136c0.032,0.178 0.077,0.389 0.107,0.535c0.023,0.11 0.032,0.238 0.077,0.391c0.019,0.063 0.061,0.136 0.072,0.193c0.005,0.024 -0.003,0.048 0.001,0.076c0.01,0.065 0.057,0.139 0.099,0.203c0.104,0.155 0.295,0.345 0.397,0.519c0.113,0.191 0.207,0.398 0.273,0.593c0.039,0.115 0.08,0.252 0.116,0.352c0.012,0.034 0.078,0.153 0.046,0.18c-0.019,0.016 -0.043,-0.013 -0.072,-0.009c-0.058,0.007 -0.079,0.029 -0.12,0.068c-0.095,0.089 -0.162,0.129 -0.283,0.187c-0.21,0.1 -0.498,0.166 -0.734,0.156c-0.053,-0.002 -0.3,0.028 -0.323,-0.018c0.527,-0.159 0.592,-0.865 0.425,-1.277c-0.094,-0.234 -0.247,-0.371 -0.372,-0.494c-0.196,-0.192 -0.672,-0.449 -0.978,-0.281c-0.085,0.046 -0.091,0.109 -0.157,0.027c-0.041,-0.051 -0.059,-0.099 -0.098,-0.141c-0.034,-0.037 -0.105,-0.092 -0.152,-0.127c-0.166,-0.126 -0.415,-0.117 -0.578,-0.114c-0.181,0.002 -0.369,0.022 -0.542,0.083c-0.231,0.083 -0.417,0.208 -0.604,0.365c-0.099,0.084 -0.178,0.196 -0.246,0.322c-0.058,0.107 -0.063,0.23 -0.052,0.319c0.006,0.047 0.005,0.115 0.03,0.17c0.025,0.056 0.065,0.077 0.094,0.135c-0.161,0.079 -0.297,0.146 -0.424,0.25c-0.042,0.035 -0.077,0.103 -0.114,0.156c-0.21,0.303 -0.242,0.806 -0.127,1.143c0.179,0.523 0.703,0.673 1.245,0.589c-0.015,0.047 -0.128,0.124 -0.153,0.144c-0.074,0.061 -0.166,0.128 -0.251,0.194c-0.154,0.12 -0.301,0.248 -0.432,0.331c-0.163,0.103 -0.305,0.178 -0.481,0.258c-0.072,0.033 -0.389,0.116 -0.301,0.285c-0.064,0.033 -0.387,-0.407 -0.426,-0.458c-0.15,-0.191 -0.226,-0.408 -0.319,-0.61c-0.135,-0.294 -0.184,-0.531 -0.203,-0.795c-0.002,-0.026 0.002,-0.054 -0.001,-0.086c-0.005,-0.057 -0.021,-0.177 -0.072,-0.245c-0.032,-0.043 -0.097,-0.083 -0.135,-0.125c-0.027,-0.031 -0.06,-0.068 -0.091,-0.094c-0.104,-0.087 -0.245,-0.249 -0.392,-0.329c-0.104,-0.058 -0.221,-0.105 -0.312,-0.165c-0.111,-0.073 -0.078,-0.208 -0.108,-0.34c-0.02,-0.086 -0.121,-0.129 -0.154,-0.014c-0.018,0.064 0.026,0.211 0.054,0.266c-0.06,0.01 -0.077,-0.018 -0.138,0.006c-0.09,0.036 -0.04,0.066 0.036,0.09c0.071,0.023 0.139,0.03 0.205,0.073c0.064,0.041 0.117,0.077 0.176,0.121c0.116,0.085 0.204,0.16 0.335,0.25c0.076,0.053 0.309,0.189 0.313,0.314c0.002,0.064 -0.021,0.111 -0.014,0.182c0.002,0.028 -0.001,0.079 0.007,0.121c0.018,0.088 0.02,0.15 0.044,0.243c0.066,0.252 0.169,0.613 0.338,0.877c0.131,0.207 0.25,0.392 0.411,0.547c0.103,0.099 0.197,0.215 0.331,0.33c0.033,0.028 0.065,0.047 0.113,0.048c0.016,0 0.037,-0.011 0.061,-0.015c0.083,-0.014 -0.016,-0.024 0.078,-0.015c0.043,0.005 0.086,0.041 0.145,0.035c0.038,-0.003 0.018,-0.01 0.056,-0.017c0.063,-0.013 0.158,-0.045 0.229,-0.077c0.206,-0.094 0.41,-0.214 0.585,-0.342c0.071,-0.052 0.141,-0.11 0.217,-0.166c0.102,-0.075 0.225,-0.162 0.334,-0.237c0.141,-0.098 0.328,-0.198 0.479,-0.311c0.017,0.056 0.07,0.162 0.067,0.214c-0.005,0.079 -0.102,0.147 -0.129,0.215c-0.057,0.143 -0.076,0.283 -0.114,0.43c-0.045,0.173 -0.009,0.325 0.029,0.52c0.022,0.111 -0.003,0.234 -0.019,0.342c-0.018,0.126 -0.031,0.277 -0.034,0.396c-0.001,0.032 0.029,0.245 0.007,0.267c-0.017,0.017 -0.121,0.027 -0.146,0.032c-0.065,0.013 -0.167,0.021 -0.224,0.029c-0.154,0.021 -0.316,0.08 -0.489,0.1c-0.076,0.009 -0.14,0.019 -0.241,0.037c-0.216,0.04 -0.439,0.063 -0.656,0.099c-0.314,0.053 -0.627,0.122 -0.949,0.205c-0.153,0.039 -0.185,-0.011 -0.301,-0.071c-0.097,-0.048 -0.226,-0.087 -0.321,-0.138c-0.161,-0.086 -0.338,-0.149 -0.515,-0.244c-0.084,-0.045 -0.18,-0.088 -0.264,-0.135c-0.033,-0.018 -0.115,-0.068 -0.132,-0.008c-0.019,0.064 0.057,0.074 0.077,0.112c-0.052,0.002 -0.277,0.02 -0.206,0.106c0.028,0.033 0.145,0.015 0.181,0.015c0.117,-0.001 0.243,0.009 0.359,0.045c0.143,0.044 0.249,0.12 0.355,0.184c0.047,0.028 0.105,0.053 0.16,0.08c0.08,0.039 0.216,0.055 0.286,0.134c-0.393,0.113 -0.783,0.226 -1.168,0.365c-0.494,0.178 -0.969,0.377 -1.423,0.579c-0.46,0.203 -0.96,0.365 -1.437,0.598c-0.312,0.152 -0.621,0.268 -0.944,0.417c-0.282,0.13 -0.522,0.239 -0.783,0.331c-0.315,0.11 -0.645,0.198 -0.956,0.271c-0.336,0.078 -0.716,0.124 -1.033,0.221c-0.701,0.215 -1.441,0.44 -2.165,0.637c-0.799,0.218 -1.587,0.457 -2.379,0.693c-0.344,0.103 -0.706,0.193 -1.042,0.32c-0.273,0.103 -0.543,0.234 -0.832,0.363c-0.311,0.138 -0.594,0.318 -0.887,0.466c-0.231,0.118 -0.432,0.251 -0.594,0.382c-0.195,0.159 -0.334,0.346 -0.499,0.577c-0.082,0.114 -0.158,0.276 -0.195,0.452c-0.055,0.256 -0.001,0.612 0.19,0.845c0.129,0.156 0.276,0.209 0.46,0.283c0.26,0.104 0.532,0.166 0.77,0.222c0.129,0.03 0.284,0.038 0.414,0.046c0.142,0.01 0.278,0.047 0.423,0.065c0.588,0.072 1.192,0.1 1.819,0.147c0.262,0.019 0.541,0.061 0.828,0.072c0.223,0.008 0.491,0.004 0.668,0.014c0.215,0.011 0.468,0.003 0.668,-0.03c0.053,-0.008 0.103,-0.015 0.155,-0.025c0.158,-0.031 0.328,-0.052 0.486,-0.077c0.13,-0.02 0.324,0.045 0.461,0.055c0.101,0.009 0.219,-0.008 0.314,-0.02c0.109,-0.015 0.235,0 0.349,-0.017c0.066,-0.011 0.131,-0.038 0.222,-0.033c0.041,-0.02 0.07,-0.012 0.088,0.025c0.013,-0.011 0.027,-0.021 0.04,-0.032c-0.099,0.02 0.055,-0.026 0.024,-0.012c0.048,-0.022 0.105,-0.021 0.138,-0.027c0.117,-0.022 0.883,-0.263 0.92,-0.192c0.096,-0.077 0.242,-0.098 0.372,-0.139c0.134,-0.042 0.266,-0.091 0.399,-0.136c0.206,-0.069 0.375,-0.146 0.593,-0.21c0.26,-0.078 0.637,-0.212 0.884,-0.303c0.294,-0.109 0.59,-0.227 0.922,-0.377c0.469,-0.212 0.951,-0.465 1.389,-0.732c0.171,-0.105 0.36,-0.2 0.538,-0.292c0.191,-0.098 0.371,-0.214 0.567,-0.326c0.298,-0.17 0.606,-0.404 0.894,-0.588c0.328,-0.21 0.672,-0.401 1.007,-0.626c0.341,-0.229 0.645,-0.447 0.972,-0.676c0.625,-0.44 1.294,-0.755 1.915,-1.2c0.023,0.047 -0.303,0.314 -0.347,0.354c-0.124,0.117 -0.238,0.234 -0.36,0.357c-0.056,0.056 -0.125,0.14 -0.179,0.189c-0.086,0.078 -0.193,0.198 -0.309,0.316c-0.565,0.579 -1.123,1.093 -1.712,1.668c-0.511,0.498 -0.971,0.957 -1.553,1.442c-0.28,0.234 -0.457,0.367 -0.724,0.599c-0.382,0.332 -0.788,0.617 -1.192,0.919c-0.345,0.258 -0.725,0.604 -1.022,0.833c-0.304,0.234 -0.507,0.413 -0.813,0.659c-0.392,0.315 -0.774,0.64 -1.175,0.941c-0.205,0.154 -0.406,0.31 -0.606,0.471c-0.138,0.111 -0.274,0.231 -0.382,0.315c-0.101,0.08 -0.193,0.17 -0.3,0.258c-0.068,0.055 -0.096,0.093 -0.165,0.144c-0.015,0.011 -0.072,0.04 -0.095,0.06c-0.027,0.024 -0.011,0.044 -0.02,0.054c-0.195,0.221 -0.428,0.415 -0.633,0.628c-0.101,0.104 -0.202,0.227 -0.269,0.291c-0.309,0.294 -0.618,0.683 -0.864,0.996c-0.068,0.088 -0.158,0.196 -0.224,0.311c-0.124,0.214 -0.233,0.36 -0.317,0.575c-0.063,0.163 -0.13,0.352 -0.145,0.507c-0.009,0.107 -0.018,0.234 -0.03,0.33c-0.032,0.25 0.072,0.475 0.223,0.709c-0.051,0.026 -0.043,-0.078 -0.056,0.017c-0.004,0.037 0.007,0.07 0.024,0.102c0.031,0.058 0.07,0.07 0.112,0.099c0.195,0.137 0.46,0.169 0.678,0.161c0.158,-0.007 0.319,-0.034 0.478,-0.062c0.616,-0.11 1.381,-0.391 1.994,-0.625c0.753,-0.288 1.602,-0.528 2.343,-0.815c0.823,-0.32 1.724,-0.849 2.539,-1.177c0.223,-0.089 0.46,-0.162 0.689,-0.237c0.197,-0.065 0.435,-0.126 0.611,-0.204c0.197,-0.087 0.413,-0.183 0.622,-0.275c0.186,-0.08 0.387,-0.224 0.565,-0.325c0.384,-0.218 0.759,-0.567 1.141,-0.792c0.357,-0.211 0.741,-0.536 1.094,-0.842c0.513,-0.445 0.984,-0.907 1.466,-1.397c0.117,-0.12 0.248,-0.265 0.339,-0.347c0.055,-0.05 0.11,-0.121 0.162,-0.17c0.121,-0.115 0.231,-0.26 0.334,-0.373c0.468,-0.512 0.851,-1.213 1.205,-1.849c0.043,0.032 -0.001,0.25 -0.003,0.311c-0.003,0.06 -0.008,0.128 -0.013,0.185c-0.013,0.133 -0.021,0.269 -0.013,0.396c0.004,0.054 0.036,0.168 0.024,0.216c-0.012,0.048 -0.063,0.101 -0.076,0.147c-0.012,0.043 -0.02,0.092 -0.02,0.129c0.001,0.055 0.003,0.128 0.011,0.168c0.007,0.038 0.025,0.107 0.068,0.136c0.081,0.053 0.037,-0.006 0.084,-0.03c0.043,0.085 0.072,-0.049 0.05,-0.091c0.031,-0.016 0.059,0.092 0.112,0.06c0.066,-0.039 -0.022,-0.152 -0.04,-0.208c-0.042,-0.136 -0.079,-0.32 -0.068,-0.444c0.009,-0.091 -0.021,-0.17 -0.02,-0.261c0.001,-0.077 0.016,-0.155 0.023,-0.228c0.017,-0.174 0.02,-0.366 0.035,-0.543c0.006,-0.076 0.024,-0.155 0.032,-0.234c0.01,-0.098 0.049,-0.15 0.083,-0.237c0.1,-0.256 0.183,-0.578 0.258,-0.848c0.047,-0.172 0.077,-0.328 0.028,-0.513c-0.095,-0.363 -0.385,-0.559 -0.591,-0.811c-0.059,-0.074 -0.128,-0.152 -0.193,-0.253c-0.1,-0.157 -0.2,-0.359 -0.289,-0.539c-0.119,-0.243 -0.251,-0.56 -0.264,-0.785c-0.005,-0.088 0.015,-0.196 0.012,-0.306c-0.001,-0.033 -0.009,-0.086 0.004,-0.12c-0.015,-0.035 -0.002,-0.053 0.041,-0.053c0.007,-0.003 0.015,-0.006 0.022,-0.009c0.019,-0.023 0.034,-0.067 0.065,-0.095c0.037,0.129 0.059,0.076 0.138,0.141c0.058,0.049 0.095,0.157 0.11,0.213c0.032,0.128 0.049,0.246 0.089,0.398c0.021,0.083 0.008,0.17 0.024,0.264c0.006,0.036 0.005,0.073 0.018,0.121c0.04,0.141 0.151,0.334 0.241,0.468c0.021,0.032 0.036,0.042 0.058,0.071c0.028,0.036 0.068,0.116 0.106,0.163c0.036,0.044 0.103,0.1 0.165,0.166c0.048,0.052 0.095,0.134 0.149,0.192c0.093,0.099 0.162,0.18 0.213,0.351c0.052,0.171 0.191,0.243 0.261,0.385c0.136,0.28 0.281,0.591 0.395,0.848c0.097,0.22 0.207,0.438 0.291,0.671c0.074,0.204 0.189,0.456 0.316,0.571c0.077,0.07 0.179,0.155 0.252,0.239c0.081,0.091 0.14,0.257 0.188,0.364c0.066,0.149 0.148,0.287 0.206,0.44c0.076,0.202 0.134,0.393 0.212,0.563c0.043,0.092 0.105,0.179 0.141,0.274c0.021,0.055 0.026,0.117 0.045,0.172c0.03,0.083 0.083,0.164 0.141,0.231c0.097,0.11 0.236,0.254 0.325,0.358c0.046,0.054 0.087,0.081 0.127,0.141c0.063,0.096 0.102,0.198 0.159,0.309c0.15,0.293 0.27,0.582 0.408,0.856c0.114,0.228 0.205,0.464 0.27,0.673c0.031,0.1 0.099,0.235 0.167,0.348c0.054,0.09 0.155,0.18 0.228,0.272c0.099,0.126 0.186,0.176 0.27,0.295c0.063,0.087 0.153,0.192 0.213,0.297c0.058,0.1 0.099,0.231 0.139,0.323c0.165,0.375 0.296,0.786 0.49,1.162c0.113,0.22 0.258,0.431 0.401,0.639c0.166,0.241 0.303,0.526 0.457,0.756c0.107,0.16 0.231,0.32 0.337,0.52c0.13,0.243 0.288,0.536 0.363,0.756c0.037,0.111 0.107,0.232 0.176,0.342c0.078,0.126 0.184,0.257 0.246,0.391c0.129,0.275 0.248,0.538 0.39,0.825c0.092,0.188 0.171,0.387 0.274,0.57c0.047,0.084 0.118,0.141 0.164,0.207c0.141,0.202 0.239,0.457 0.348,0.688c0.104,0.218 0.142,0.499 0.297,0.681c0.08,0.095 0.212,0.244 0.29,0.354c0.135,0.191 0.224,0.365 0.298,0.611c0.061,0.2 0.111,0.37 0.183,0.534c0.1,0.228 0.188,0.472 0.299,0.712c0.103,0.22 0.251,0.515 0.419,0.652c0.13,0.106 0.223,0.042 0.24,-0.113c0.006,-0.056 -0.001,-0.074 -0.015,-0.133c-0.042,-0.186 -0.149,-0.354 -0.236,-0.522c-0.069,-0.135 -0.138,-0.27 -0.216,-0.4c-0.108,-0.178 -0.212,-0.396 -0.263,-0.573c-0.015,-0.054 -0.041,-0.143 -0.049,-0.202c-0.005,-0.035 0.014,-0.141 -0.011,-0.189c0.057,-0.03 0.248,0.333 0.28,0.375c0.032,0.042 0.087,0.1 0.131,0.128c0.092,0.06 0.235,0.066 0.302,-0.051c0.067,-0.12 0.026,-0.304 -0.036,-0.422c0.07,0.026 0.121,0.157 0.161,0.21c0.047,0.061 0.103,0.132 0.166,0.214c0.242,0.32 0.409,0.766 0.663,1.017c0.071,0.07 0.176,0.11 0.214,-0.023c0.027,-0.094 -0.024,-0.205 -0.056,-0.29c-0.074,-0.198 -0.217,-0.375 -0.332,-0.53c-0.075,-0.1 -0.179,-0.22 -0.271,-0.337c-0.14,-0.178 -0.269,-0.46 -0.391,-0.697c-0.074,-0.144 -0.169,-0.291 -0.221,-0.444c-0.043,-0.127 -0.075,-0.255 -0.128,-0.379c-0.123,-0.285 -0.263,-0.582 -0.443,-0.835c-0.078,-0.108 -0.171,-0.227 -0.239,-0.325c-0.049,-0.072 -0.138,-0.156 -0.173,-0.246c-0.023,-0.06 -0.008,-0.135 -0.009,-0.192c-0.001,-0.123 -0.015,-0.214 -0.065,-0.345c-0.086,-0.23 -0.239,-0.475 -0.36,-0.671c-0.078,-0.126 -0.159,-0.247 -0.241,-0.353c-0.064,-0.081 -0.146,-0.148 -0.184,-0.23c-0.064,-0.139 -0.012,-0.242 -0.066,-0.399c-0.073,-0.214 -0.242,-0.399 -0.376,-0.598c-0.146,-0.216 -0.254,-0.448 -0.391,-0.654c-0.102,-0.155 -0.247,-0.331 -0.359,-0.509c-0.114,-0.179 -0.293,-0.44 -0.318,-0.659c-0.015,-0.138 -0.077,-0.36 -0.137,-0.535c-0.102,-0.298 -0.26,-0.579 -0.408,-0.856c-0.134,-0.247 -0.273,-0.432 -0.402,-0.682c-0.131,-0.252 -0.222,-0.519 -0.344,-0.769c-0.042,-0.087 -0.059,-0.217 -0.107,-0.318c-0.047,-0.097 -0.1,-0.196 -0.158,-0.286c-0.156,-0.245 -0.358,-0.48 -0.499,-0.718c-0.148,-0.25 -0.296,-0.517 -0.406,-0.786c-0.098,-0.238 -0.123,-0.534 -0.22,-0.788c-0.089,-0.232 -0.259,-0.445 -0.416,-0.655c-0.158,-0.212 -0.322,-0.463 -0.457,-0.695c-0.115,-0.198 -0.19,-0.429 -0.256,-0.629c-0.025,-0.077 -0.037,-0.144 -0.066,-0.228c-0.043,-0.125 -0.092,-0.248 -0.136,-0.372c-0.08,-0.227 -0.157,-0.417 -0.276,-0.64c-0.114,-0.216 -0.244,-0.365 -0.37,-0.566c-0.136,-0.219 -0.279,-0.495 -0.363,-0.722c-0.078,-0.213 -0.141,-0.522 -0.233,-0.773c-0.077,-0.211 -0.114,-0.387 -0.225,-0.59c-0.101,-0.187 -0.23,-0.378 -0.355,-0.574c-0.124,-0.194 -0.267,-0.291 -0.401,-0.461c-0.052,-0.066 -0.226,-0.38 -0.132,-0.428c0.077,0.148 0.146,0.251 0.241,0.331c0.051,0.042 0.135,0.104 0.187,0.142c0.059,0.043 0.124,0.091 0.208,0.131c0.033,0.016 0.091,0.026 0.117,0.04c0.05,0.028 0.081,0.11 0.115,0.172c0.065,0.117 0.132,0.233 0.194,0.352c0.101,0.192 0.164,0.396 0.212,0.592c0.023,0.093 0.038,0.171 0.055,0.275c0.031,0.185 0.064,0.384 0.196,0.581c0.105,0.157 0.277,0.266 0.474,0.342c0.121,0.047 0.239,0.106 0.37,0.151c0.108,0.037 0.223,0.073 0.326,0.097c0.061,0.015 0.141,0.013 0.188,0.06c0.052,0.052 0.079,0.109 0.129,0.146c0.042,0.03 0.087,0.056 0.139,0.08c0.118,0.055 0.211,0.182 0.311,0.246c0.199,0.128 0.429,0.406 0.577,0.597c0.05,0.064 0.129,0.154 0.184,0.219c0.03,0.036 0.056,0.076 0.112,0.089c0.07,0.016 0.131,-0.007 0.197,0.018c0.038,0.014 0.22,0.157 0.222,0.01c0.001,-0.056 -0.093,-0.095 -0.126,-0.108c-0.073,-0.03 -0.273,-0.016 -0.302,-0.072c0.056,-0.018 0.245,-0.039 0.227,-0.128c-0.032,-0.15 -0.255,0.014 -0.293,0.042c-0.136,-0.251 -0.36,-0.409 -0.503,-0.588c-0.082,-0.102 -0.177,-0.161 -0.271,-0.243c-0.046,-0.039 -0.091,-0.114 -0.142,-0.17c-0.036,-0.039 -0.101,-0.053 -0.148,-0.098c0.088,-0.018 0.202,0.027 0.285,0.038c0.414,0.051 0.84,0.084 1.298,0.112c0.316,0.019 0.617,0.004 0.926,-0.032c0.181,-0.022 0.42,-0.037 0.637,-0.068c0.122,-0.018 0.186,-0.035 0.325,-0.058c0.185,-0.031 0.432,-0.056 0.578,-0.082c0.442,-0.079 0.943,-0.178 1.427,-0.291c0.275,-0.065 0.553,-0.113 0.825,-0.19c0.298,-0.084 0.588,-0.216 0.878,-0.326c0.452,-0.172 0.907,-0.302 1.338,-0.495c0.408,-0.182 0.804,-0.42 1.186,-0.684c0.373,-0.258 0.758,-0.559 1.125,-0.776c0.405,-0.238 0.855,-0.486 1.286,-0.718c0.386,-0.208 0.765,-0.435 1.081,-0.64c0.135,-0.088 0.246,-0.168 0.391,-0.282c0.2,-0.155 0.408,-0.297 0.617,-0.438c0.31,-0.21 0.651,-0.459 0.947,-0.654c0.36,-0.238 0.749,-0.523 1.12,-0.807c0.193,-0.148 0.359,-0.286 0.503,-0.445c0.145,-0.16 0.337,-0.339 0.448,-0.583c0.055,-0.121 0.091,-0.281 0.086,-0.391c-0.002,-0.037 -0.004,-0.095 -0.032,-0.135c-0.011,-0.015 -0.073,-0.083 -0.093,-0.079c-0.031,0.006 0.02,0.041 -0.015,0.059c-0.036,-0.118 -0.089,-0.244 -0.172,-0.356c-0.141,-0.189 -0.467,-0.366 -0.682,-0.461c-0.255,-0.114 -0.533,-0.172 -0.786,-0.181c-0.349,-0.012 -0.696,-0.043 -0.999,0.005c-0.344,0.054 -0.674,0.061 -1.055,0.109c-0.242,0.031 -0.447,0.075 -0.653,0.098c-0.148,0.016 -0.297,0.058 -0.421,0.087c-0.004,0.001 -0.056,0.013 -0.069,0.014c-0.017,-0.036 -0.037,-0.044 -0.061,-0.023c-0.007,0.003 -0.014,0.007 -0.021,0.011c-0.03,0.006 -0.057,0.034 -0.086,0.044c-0.033,0.011 -0.1,0.021 -0.146,0.031c-0.091,0.022 -0.204,0.041 -0.301,0.068c-0.235,0.067 -0.51,0.119 -0.756,0.194c-0.502,0.156 -1.007,0.306 -1.516,0.443c-0.389,0.105 -0.818,0.242 -1.262,0.348c-0.508,0.121 -1.02,0.268 -1.52,0.414c-0.966,0.28 -1.886,0.607 -2.83,0.805c-0.113,0.024 -0.225,0.049 -0.327,0.071c-0.248,0.054 -0.539,0.098 -0.804,0.143c-0.226,0.038 -0.472,0.097 -0.698,0.137c-0.1,0.018 -0.199,0.041 -0.323,0.063c-0.284,0.052 -0.571,0.1 -0.853,0.157c-0.244,0.05 -0.477,0.098 -0.716,0.125c-0.092,0.01 -0.192,0.024 -0.301,0.046c-0.117,0.025 -0.224,0.039 -0.384,0.06c-0.271,0.034 -0.563,0.081 -0.818,0.131c-0.053,0.011 -0.429,0.113 -0.451,0.07c0.803,-0.274 1.515,-0.648 2.326,-0.953c0.401,-0.15 0.855,-0.274 1.199,-0.428c0.341,-0.152 0.701,-0.316 1.031,-0.433c0.836,-0.295 1.594,-0.683 2.414,-1.084c0.422,-0.206 0.862,-0.445 1.241,-0.666c0.219,-0.128 0.411,-0.274 0.6,-0.406c0.341,-0.238 0.647,-0.435 0.967,-0.667c0.173,-0.126 0.378,-0.279 0.525,-0.393c0.094,-0.074 0.21,-0.18 0.333,-0.215c-0.031,-0.06 0.417,-0.385 0.486,-0.445c0.06,-0.052 0.126,-0.126 0.179,-0.179c0.047,-0.046 0.092,-0.086 0.141,-0.124c0.009,-0.007 0.012,0.022 0.039,-0.001c0.033,-0.028 -0.005,-0.035 0.016,-0.062c0.048,-0.062 0.113,-0.123 0.166,-0.183c0.07,-0.079 0.143,-0.172 0.211,-0.244c0.081,-0.087 0.158,-0.182 0.214,-0.278c0.05,-0.086 0.085,-0.153 0.128,-0.255c0.04,-0.095 0.086,-0.119 0.138,-0.175c0.165,-0.173 0.371,-0.408 0.541,-0.581c0.162,-0.165 0.269,-0.354 0.408,-0.524c0.082,-0.101 0.153,-0.241 0.224,-0.343c0.091,-0.13 0.188,-0.291 0.258,-0.425c0.151,-0.291 0.377,-0.561 0.511,-0.837c0.132,-0.271 0.325,-0.532 0.469,-0.794c0.127,-0.229 0.254,-0.472 0.38,-0.715c0.068,-0.132 0.144,-0.256 0.209,-0.395c0.099,-0.212 0.184,-0.498 0.265,-0.748c0.049,-0.156 0.063,-0.367 0.015,-0.517c-0.082,-0.261 -0.285,-0.432 -0.471,-0.559" style="fill-rule:nonzero;"/></g></g></g></svg>