<?xml version="1.0" encoding="UTF-8" standalone="no"?><!DOCTYPE svg PUBLIC "-//W3C//DTD SVG 1.1//EN" "http://www.w3.org/Graphics/SVG/1.1/DTD/svg11.dtd"><svg width="100%" height="100%" viewBox="0 0 64 64" version="1.1" xmlns="http://www.w3.org/2000/svg" xmlns:xlink="http://www.w3.org/1999/xlink" xml:space="preserve" xmlns:serif="http://www.serif.com/" style="fill-rule:evenodd;clip-rule:evenodd;stroke-miterlimit:10;"><g id="Species"><g id="Invertebrates"><g id="dragonfly"><path id="Outline" d="M61.409,32.047c0,-16.178 -13.135,-29.313 -29.313,-29.313c-16.179,0 -29.314,13.135 -29.314,29.313c0,16.178 13.135,29.313 29.314,29.313c16.178,0 29.313,-13.135 29.313,-29.313Z" style="fill:none;stroke:#000;stroke-width:3px;"/><path d="M32.328,27.077l-0.125,-0.681c0,0 0.063,-0.009 0.237,0.096c0.175,0.106 0.24,0.231 0.24,0.231l-0.352,0.354Zm-3.458,1.673c0,0 -0.064,-0.125 -0.048,-0.328c0.015,-0.204 0.06,-0.249 0.06,-0.249l0.481,0.497l-0.493,0.08Zm21.141,-13.596c-0.271,-0.184 -0.689,-0.186 -0.967,-0.152c-0.765,0.093 -1.479,0.525 -2.135,0.892c-0.277,0.155 -0.533,0.314 -0.796,0.523c-0.352,0.279 -0.718,0.545 -1.074,0.821c-0.603,0.468 -1.2,0.946 -1.8,1.431c-0.573,0.464 -1.189,0.903 -1.738,1.378c-0.459,0.396 -0.904,0.844 -1.364,1.14c-0.5,0.322 -1.059,0.652 -1.637,0.989c-0.535,0.312 -0.986,0.603 -1.46,0.908c-0.394,0.253 -0.824,0.506 -1.198,0.768c-0.275,0.193 -0.587,0.433 -0.865,0.668c-0.141,0.12 -0.299,0.261 -0.432,0.368c-0.059,0.046 -0.102,0.117 -0.188,0.161c-0.015,-0.096 0.03,-0.199 0.018,-0.291c-0.013,-0.107 0.001,-0.241 0.074,-0.319c0.118,-0.127 0.217,-0.329 0.277,-0.503c0.086,-0.248 0.27,-0.562 0.203,-0.806c-0.006,-0.022 0.006,-0.056 -0.029,-0.069c-0.089,-0.032 -0.071,0.046 -0.052,0.107c0.025,0.081 0.018,0.244 -0.066,0.286c-0.004,-0.086 -0.002,-0.119 -0.017,-0.191c-0.006,-0.029 -0.006,-0.068 -0.039,-0.089c-0.091,-0.057 -0.06,0.101 -0.057,0.144c0.005,0.088 -0.009,0.173 -0.01,0.254c-0.001,0.054 0.017,0.041 0.005,0.095c-0.006,0.028 -0.023,0.051 -0.029,0.069c-0.015,0.039 -0.036,0.081 -0.051,0.113c-0.023,0.051 -0.035,0.144 -0.066,0.207c-0.066,0.135 -0.17,0.237 -0.246,0.376c-0.083,0.152 -0.086,0.274 -0.077,0.408c0.006,0.085 -0.022,0.165 -0.023,0.25c0,0.029 0.027,0.09 0.019,0.12c-0.004,0.013 -0.07,0.061 -0.075,0.066c-0.042,0.039 -0.097,0.091 -0.145,0.139c-0.129,0.133 -0.326,0.344 -0.491,0.505c-0.226,0.221 -0.436,0.44 -0.691,0.672c-0.081,-0.151 -0.22,-0.238 -0.335,-0.315c-0.06,-0.04 -0.121,-0.088 -0.193,-0.122c-0.044,-0.021 -0.077,-0.041 -0.115,-0.077c-0.067,-0.062 -0.117,-0.209 -0.176,-0.278c-0.036,-0.042 -0.056,-0.071 -0.092,-0.115c-0.036,-0.045 -0.125,-0.108 -0.174,-0.17c0.163,-0.05 0.323,-0.08 0.475,-0.157c0.131,-0.066 0.269,-0.144 0.387,-0.232c0.071,-0.054 0.208,-0.156 0.234,-0.251c0.021,-0.081 -0.031,-0.08 -0.045,-0.139c-0.004,-0.016 0.007,-0.08 0.007,-0.112c0,-0.053 -0.002,-0.082 -0.014,-0.134c-0.061,-0.264 -0.185,-0.545 -0.333,-0.79c-0.133,-0.221 -0.27,-0.405 -0.422,-0.614c-0.077,-0.106 -0.159,-0.215 -0.226,-0.312c-0.04,-0.059 -0.107,-0.131 -0.132,-0.212c-0.071,-0.227 -0.094,-0.509 -0.139,-0.715c-0.015,-0.069 -0.018,-0.156 -0.031,-0.228c-0.016,-0.094 -0.026,-0.21 -0.003,-0.28c0.012,-0.035 0.068,-0.11 -0.027,-0.135c-0.052,-0.014 -0.106,0.065 -0.155,0.055c-0.033,-0.007 -0.068,-0.087 -0.112,-0.072c-0.091,0.03 0.063,0.169 0.081,0.214c0.017,0.043 0.011,0.099 0.017,0.136c0.033,0.179 0.077,0.389 0.108,0.535c0.023,0.11 0.031,0.238 0.076,0.391c0.019,0.064 0.062,0.136 0.073,0.193c0.004,0.024 -0.004,0.048 0,0.076c0.011,0.066 0.057,0.139 0.1,0.203c0.103,0.155 0.294,0.346 0.397,0.519c0.113,0.191 0.206,0.398 0.272,0.594c0.04,0.114 0.08,0.251 0.117,0.351c0.012,0.034 0.077,0.154 0.046,0.18c-0.019,0.016 -0.044,-0.012 -0.073,-0.009c-0.057,0.007 -0.079,0.03 -0.12,0.068c-0.095,0.089 -0.161,0.129 -0.282,0.187c-0.21,0.1 -0.499,0.166 -0.734,0.157c-0.054,-0.003 -0.3,0.028 -0.324,-0.018c0.527,-0.16 0.592,-0.866 0.426,-1.278c-0.094,-0.233 -0.247,-0.37 -0.373,-0.493c-0.196,-0.193 -0.672,-0.45 -0.978,-0.282c-0.085,0.046 -0.091,0.109 -0.156,0.028c-0.041,-0.051 -0.06,-0.1 -0.098,-0.142c-0.035,-0.037 -0.105,-0.091 -0.152,-0.127c-0.166,-0.126 -0.416,-0.117 -0.579,-0.114c-0.181,0.003 -0.369,0.022 -0.542,0.084c-0.231,0.082 -0.417,0.207 -0.603,0.364c-0.1,0.084 -0.179,0.196 -0.246,0.322c-0.058,0.108 -0.064,0.23 -0.053,0.319c0.006,0.047 0.006,0.115 0.03,0.17c0.025,0.056 0.065,0.078 0.094,0.135c-0.16,0.079 -0.297,0.146 -0.423,0.25c-0.043,0.035 -0.078,0.103 -0.115,0.157c-0.21,0.302 -0.242,0.805 -0.127,1.143c0.179,0.522 0.704,0.672 1.246,0.589c-0.016,0.047 -0.129,0.123 -0.154,0.143c-0.074,0.061 -0.165,0.128 -0.251,0.194c-0.154,0.121 -0.301,0.248 -0.432,0.331c-0.163,0.104 -0.305,0.178 -0.481,0.259c-0.072,0.032 -0.388,0.115 -0.301,0.284c-0.064,0.033 -0.386,-0.407 -0.426,-0.457c-0.15,-0.192 -0.225,-0.408 -0.319,-0.611c-0.135,-0.293 -0.184,-0.531 -0.203,-0.795c-0.002,-0.026 0.002,-0.054 -0.001,-0.086c-0.005,-0.057 -0.021,-0.177 -0.071,-0.245c-0.033,-0.043 -0.098,-0.082 -0.136,-0.125c-0.027,-0.031 -0.06,-0.068 -0.091,-0.094c-0.104,-0.087 -0.245,-0.249 -0.391,-0.329c-0.105,-0.057 -0.222,-0.105 -0.313,-0.165c-0.11,-0.073 -0.078,-0.208 -0.108,-0.339c-0.019,-0.087 -0.12,-0.13 -0.153,-0.014c-0.018,0.063 0.025,0.21 0.054,0.265c-0.061,0.01 -0.077,-0.018 -0.138,0.006c-0.09,0.036 -0.04,0.066 0.035,0.09c0.071,0.023 0.14,0.03 0.206,0.073c0.063,0.042 0.116,0.077 0.176,0.121c0.115,0.085 0.203,0.16 0.334,0.25c0.077,0.053 0.31,0.189 0.313,0.315c0.002,0.064 -0.021,0.111 -0.014,0.182c0.002,0.027 -0.001,0.078 0.008,0.12c0.017,0.088 0.019,0.15 0.044,0.243c0.066,0.252 0.169,0.613 0.337,0.877c0.132,0.207 0.25,0.392 0.411,0.547c0.103,0.099 0.198,0.215 0.331,0.33c0.033,0.029 0.065,0.047 0.113,0.048c0.017,0.001 0.037,-0.01 0.061,-0.014c0.083,-0.015 -0.015,-0.025 0.078,-0.016c0.043,0.005 0.087,0.041 0.146,0.036c0.038,-0.004 0.018,-0.011 0.055,-0.018c0.063,-0.013 0.158,-0.044 0.23,-0.077c0.206,-0.093 0.41,-0.214 0.584,-0.342c0.071,-0.052 0.142,-0.11 0.218,-0.166c0.101,-0.075 0.224,-0.161 0.333,-0.237c0.142,-0.098 0.329,-0.198 0.479,-0.311c0.018,0.056 0.071,0.162 0.067,0.215c-0.005,0.078 -0.101,0.146 -0.128,0.214c-0.057,0.143 -0.076,0.283 -0.114,0.43c-0.045,0.174 -0.01,0.325 0.028,0.52c0.023,0.112 -0.003,0.234 -0.019,0.342c-0.018,0.126 -0.031,0.277 -0.034,0.397c0,0.031 0.03,0.245 0.008,0.267c-0.017,0.017 -0.121,0.027 -0.146,0.031c-0.066,0.013 -0.168,0.021 -0.224,0.029c-0.155,0.021 -0.317,0.08 -0.49,0.1c-0.076,0.009 -0.139,0.019 -0.241,0.037c-0.216,0.04 -0.438,0.064 -0.656,0.1c-0.314,0.052 -0.627,0.121 -0.949,0.204c-0.152,0.04 -0.184,-0.011 -0.301,-0.07c-0.096,-0.049 -0.226,-0.088 -0.32,-0.139c-0.161,-0.086 -0.339,-0.149 -0.516,-0.244c-0.084,-0.045 -0.179,-0.088 -0.264,-0.135c-0.033,-0.018 -0.115,-0.067 -0.132,-0.008c-0.019,0.064 0.058,0.075 0.077,0.112c-0.051,0.002 -0.276,0.02 -0.205,0.106c0.027,0.034 0.145,0.016 0.181,0.015c0.116,-0.001 0.243,0.009 0.359,0.045c0.143,0.044 0.248,0.12 0.354,0.184c0.048,0.029 0.105,0.053 0.161,0.08c0.08,0.039 0.216,0.056 0.285,0.134c-0.393,0.114 -0.783,0.226 -1.167,0.365c-0.494,0.178 -0.97,0.378 -1.424,0.579c-0.46,0.204 -0.959,0.365 -1.436,0.598c-0.313,0.152 -0.622,0.268 -0.945,0.417c-0.281,0.13 -0.522,0.239 -0.783,0.331c-0.314,0.111 -0.645,0.199 -0.956,0.271c-0.336,0.078 -0.715,0.124 -1.033,0.221c-0.701,0.215 -1.44,0.44 -2.165,0.637c-0.799,0.218 -1.587,0.457 -2.378,0.693c-0.345,0.103 -0.706,0.193 -1.043,0.32c-0.273,0.103 -0.542,0.234 -0.831,0.363c-0.311,0.139 -0.595,0.318 -0.888,0.467c-0.231,0.117 -0.432,0.25 -0.593,0.381c-0.195,0.159 -0.335,0.346 -0.5,0.577c-0.081,0.114 -0.157,0.276 -0.195,0.452c-0.054,0.256 -0.001,0.613 0.19,0.845c0.129,0.156 0.277,0.209 0.461,0.283c0.26,0.104 0.531,0.167 0.769,0.222c0.13,0.03 0.284,0.038 0.414,0.047c0.142,0.009 0.279,0.046 0.423,0.064c0.589,0.072 1.192,0.1 1.82,0.147c0.261,0.019 0.54,0.061 0.828,0.072c0.223,0.008 0.491,0.005 0.668,0.014c0.215,0.011 0.467,0.003 0.667,-0.029c0.053,-0.009 0.104,-0.015 0.155,-0.026c0.158,-0.031 0.328,-0.051 0.486,-0.076c0.13,-0.021 0.325,0.044 0.462,0.055c0.1,0.008 0.218,-0.009 0.314,-0.021c0.108,-0.015 0.235,0 0.349,-0.017c0.065,-0.01 0.13,-0.038 0.221,-0.033c0.041,-0.02 0.071,-0.012 0.089,0.025c0.013,-0.011 0.026,-0.021 0.039,-0.031c-0.099,0.02 0.056,-0.027 0.025,-0.013c0.047,-0.022 0.105,-0.021 0.137,-0.027c0.117,-0.022 0.884,-0.263 0.92,-0.192c0.096,-0.076 0.243,-0.098 0.373,-0.139c0.133,-0.042 0.265,-0.09 0.399,-0.135c0.206,-0.07 0.375,-0.146 0.592,-0.211c0.261,-0.078 0.637,-0.212 0.885,-0.303c0.293,-0.108 0.59,-0.227 0.921,-0.377c0.469,-0.212 0.951,-0.464 1.39,-0.732c0.171,-0.105 0.359,-0.2 0.537,-0.292c0.191,-0.098 0.371,-0.214 0.567,-0.325c0.298,-0.171 0.606,-0.405 0.894,-0.589c0.328,-0.209 0.672,-0.401 1.007,-0.626c0.342,-0.229 0.645,-0.447 0.972,-0.676c0.626,-0.439 1.295,-0.754 1.915,-1.199c0.024,0.046 -0.303,0.313 -0.346,0.354c-0.124,0.116 -0.238,0.233 -0.361,0.356c-0.056,0.056 -0.125,0.14 -0.179,0.189c-0.085,0.078 -0.193,0.198 -0.308,0.316c-0.565,0.58 -1.124,1.093 -1.713,1.669c-0.51,0.498 -0.97,0.956 -1.552,1.442c-0.281,0.233 -0.457,0.366 -0.725,0.598c-0.382,0.333 -0.788,0.617 -1.191,0.919c-0.345,0.258 -0.726,0.604 -1.023,0.833c-0.303,0.234 -0.506,0.413 -0.813,0.66c-0.392,0.314 -0.774,0.639 -1.175,0.941c-0.205,0.153 -0.406,0.309 -0.606,0.471c-0.138,0.11 -0.274,0.231 -0.381,0.315c-0.101,0.079 -0.194,0.17 -0.301,0.257c-0.067,0.056 -0.095,0.093 -0.164,0.144c-0.015,0.011 -0.072,0.04 -0.096,0.06c-0.027,0.024 -0.01,0.044 -0.019,0.054c-0.195,0.221 -0.429,0.415 -0.634,0.628c-0.1,0.104 -0.202,0.227 -0.269,0.291c-0.308,0.294 -0.618,0.683 -0.863,0.996c-0.068,0.088 -0.158,0.196 -0.225,0.311c-0.124,0.214 -0.233,0.36 -0.316,0.575c-0.064,0.163 -0.131,0.352 -0.145,0.508c-0.01,0.106 -0.019,0.233 -0.031,0.33c-0.032,0.249 0.072,0.474 0.224,0.708c-0.051,0.026 -0.044,-0.077 -0.056,0.018c-0.005,0.036 0.007,0.069 0.024,0.101c0.03,0.059 0.07,0.07 0.112,0.1c0.194,0.136 0.459,0.169 0.678,0.16c0.157,-0.007 0.318,-0.034 0.477,-0.062c0.617,-0.11 1.382,-0.39 1.994,-0.625c0.753,-0.288 1.603,-0.527 2.343,-0.815c0.823,-0.32 1.724,-0.849 2.539,-1.176c0.224,-0.09 0.46,-0.163 0.689,-0.238c0.197,-0.064 0.436,-0.126 0.611,-0.204c0.198,-0.087 0.414,-0.183 0.623,-0.274c0.185,-0.081 0.387,-0.224 0.564,-0.325c0.384,-0.219 0.759,-0.568 1.141,-0.793c0.358,-0.211 0.742,-0.536 1.094,-0.842c0.513,-0.444 0.985,-0.907 1.466,-1.397c0.118,-0.12 0.249,-0.265 0.34,-0.347c0.055,-0.05 0.11,-0.121 0.162,-0.17c0.121,-0.115 0.231,-0.259 0.334,-0.372c0.467,-0.513 0.85,-1.213 1.204,-1.849c0.043,0.031 0,0.25 -0.003,0.31c-0.003,0.061 -0.007,0.128 -0.013,0.185c-0.013,0.133 -0.021,0.269 -0.013,0.397c0.004,0.054 0.036,0.168 0.024,0.215c-0.011,0.048 -0.063,0.102 -0.075,0.147c-0.012,0.043 -0.021,0.092 -0.02,0.13c0,0.054 0.002,0.128 0.01,0.167c0.008,0.038 0.025,0.108 0.068,0.136c0.081,0.053 0.037,-0.005 0.084,-0.029c0.044,0.084 0.073,-0.049 0.051,-0.092c0.03,-0.015 0.059,0.092 0.111,0.06c0.066,-0.039 -0.022,-0.152 -0.039,-0.208c-0.042,-0.136 -0.08,-0.32 -0.068,-0.444c0.008,-0.091 -0.022,-0.17 -0.021,-0.26c0.002,-0.078 0.017,-0.156 0.024,-0.229c0.016,-0.174 0.02,-0.366 0.034,-0.543c0.007,-0.076 0.024,-0.154 0.032,-0.233c0.01,-0.098 0.049,-0.15 0.084,-0.238c0.1,-0.256 0.183,-0.577 0.257,-0.847c0.047,-0.172 0.077,-0.329 0.029,-0.513c-0.096,-0.364 -0.386,-0.559 -0.591,-0.812c-0.06,-0.073 -0.129,-0.151 -0.194,-0.253c-0.1,-0.157 -0.2,-0.359 -0.288,-0.539c-0.12,-0.242 -0.252,-0.559 -0.265,-0.785c-0.005,-0.088 0.016,-0.195 0.013,-0.306c-0.001,-0.033 -0.01,-0.086 0.003,-0.12c-0.015,-0.035 -0.001,-0.053 0.041,-0.053c0.008,-0.003 0.015,-0.006 0.023,-0.009c0.019,-0.023 0.034,-0.067 0.064,-0.095c0.037,0.129 0.06,0.076 0.139,0.142c0.058,0.048 0.095,0.157 0.109,0.212c0.032,0.128 0.05,0.247 0.089,0.399c0.022,0.082 0.008,0.169 0.024,0.264c0.006,0.035 0.005,0.072 0.019,0.12c0.04,0.142 0.151,0.334 0.24,0.469c0.021,0.031 0.036,0.041 0.059,0.07c0.028,0.037 0.067,0.116 0.105,0.163c0.036,0.044 0.104,0.1 0.165,0.166c0.049,0.052 0.095,0.135 0.149,0.192c0.094,0.099 0.162,0.18 0.213,0.351c0.052,0.171 0.191,0.243 0.261,0.386c0.137,0.279 0.282,0.59 0.396,0.847c0.097,0.22 0.206,0.439 0.291,0.671c0.074,0.204 0.189,0.456 0.315,0.572c0.077,0.069 0.179,0.155 0.253,0.238c0.08,0.091 0.139,0.257 0.187,0.364c0.067,0.149 0.149,0.287 0.207,0.44c0.076,0.202 0.133,0.393 0.212,0.563c0.042,0.093 0.105,0.179 0.141,0.274c0.021,0.055 0.025,0.117 0.045,0.172c0.03,0.084 0.082,0.165 0.14,0.231c0.098,0.111 0.237,0.254 0.325,0.358c0.047,0.055 0.087,0.081 0.127,0.141c0.064,0.096 0.102,0.199 0.159,0.31c0.151,0.292 0.27,0.582 0.408,0.855c0.115,0.228 0.206,0.464 0.271,0.673c0.031,0.1 0.099,0.235 0.167,0.348c0.054,0.09 0.154,0.18 0.227,0.273c0.1,0.125 0.186,0.175 0.271,0.294c0.062,0.087 0.152,0.192 0.212,0.297c0.058,0.101 0.099,0.231 0.14,0.323c0.165,0.375 0.295,0.786 0.489,1.162c0.113,0.22 0.258,0.431 0.402,0.639c0.166,0.241 0.302,0.526 0.456,0.756c0.108,0.16 0.231,0.321 0.338,0.52c0.13,0.243 0.288,0.536 0.362,0.756c0.038,0.111 0.108,0.232 0.176,0.342c0.079,0.126 0.184,0.257 0.247,0.391c0.129,0.275 0.247,0.538 0.389,0.825c0.092,0.189 0.172,0.387 0.274,0.57c0.048,0.085 0.119,0.142 0.164,0.207c0.141,0.202 0.239,0.457 0.349,0.688c0.103,0.218 0.141,0.499 0.296,0.681c0.081,0.095 0.213,0.244 0.291,0.355c0.134,0.19 0.223,0.364 0.298,0.61c0.06,0.2 0.11,0.371 0.182,0.534c0.101,0.228 0.188,0.472 0.3,0.712c0.103,0.221 0.25,0.516 0.418,0.652c0.131,0.106 0.223,0.042 0.24,-0.112c0.007,-0.057 -0.001,-0.075 -0.014,-0.134c-0.043,-0.185 -0.15,-0.354 -0.236,-0.522c-0.07,-0.135 -0.138,-0.27 -0.217,-0.4c-0.107,-0.178 -0.212,-0.396 -0.263,-0.573c-0.015,-0.053 -0.041,-0.142 -0.049,-0.202c-0.005,-0.035 0.014,-0.141 -0.011,-0.189c0.058,-0.03 0.248,0.334 0.28,0.375c0.032,0.042 0.087,0.1 0.131,0.128c0.092,0.06 0.236,0.067 0.302,-0.051c0.068,-0.12 0.027,-0.304 -0.036,-0.421c0.07,0.025 0.122,0.156 0.162,0.209c0.046,0.061 0.103,0.132 0.165,0.214c0.243,0.32 0.409,0.767 0.663,1.017c0.071,0.07 0.176,0.111 0.214,-0.023c0.027,-0.094 -0.023,-0.205 -0.055,-0.29c-0.074,-0.198 -0.217,-0.375 -0.332,-0.529c-0.075,-0.101 -0.179,-0.22 -0.271,-0.338c-0.14,-0.178 -0.27,-0.46 -0.392,-0.697c-0.074,-0.144 -0.169,-0.291 -0.221,-0.444c-0.043,-0.127 -0.074,-0.254 -0.128,-0.379c-0.123,-0.284 -0.262,-0.582 -0.443,-0.834c-0.077,-0.109 -0.171,-0.227 -0.239,-0.326c-0.049,-0.072 -0.137,-0.155 -0.173,-0.246c-0.023,-0.059 -0.008,-0.135 -0.008,-0.192c-0.002,-0.123 -0.015,-0.213 -0.065,-0.345c-0.087,-0.23 -0.239,-0.474 -0.361,-0.671c-0.078,-0.125 -0.159,-0.247 -0.241,-0.352c-0.063,-0.082 -0.145,-0.149 -0.183,-0.231c-0.064,-0.138 -0.013,-0.241 -0.067,-0.399c-0.073,-0.214 -0.241,-0.398 -0.375,-0.597c-0.146,-0.217 -0.255,-0.449 -0.391,-0.655c-0.103,-0.155 -0.247,-0.331 -0.36,-0.509c-0.113,-0.179 -0.293,-0.44 -0.317,-0.659c-0.016,-0.138 -0.078,-0.36 -0.138,-0.535c-0.102,-0.298 -0.259,-0.578 -0.408,-0.855c-0.133,-0.248 -0.272,-0.433 -0.402,-0.683c-0.13,-0.252 -0.221,-0.519 -0.344,-0.769c-0.042,-0.086 -0.058,-0.216 -0.107,-0.318c-0.046,-0.097 -0.1,-0.196 -0.157,-0.286c-0.157,-0.245 -0.358,-0.479 -0.5,-0.718c-0.148,-0.25 -0.295,-0.517 -0.406,-0.786c-0.098,-0.238 -0.122,-0.534 -0.219,-0.788c-0.089,-0.232 -0.26,-0.445 -0.416,-0.655c-0.159,-0.212 -0.323,-0.463 -0.457,-0.694c-0.116,-0.199 -0.19,-0.43 -0.256,-0.63c-0.026,-0.077 -0.037,-0.143 -0.066,-0.228c-0.043,-0.125 -0.093,-0.247 -0.136,-0.372c-0.08,-0.227 -0.158,-0.417 -0.276,-0.64c-0.115,-0.216 -0.245,-0.364 -0.371,-0.566c-0.136,-0.219 -0.279,-0.494 -0.363,-0.722c-0.078,-0.212 -0.141,-0.522 -0.233,-0.773c-0.077,-0.211 -0.113,-0.387 -0.224,-0.59c-0.102,-0.186 -0.23,-0.378 -0.356,-0.574c-0.124,-0.194 -0.267,-0.291 -0.401,-0.461c-0.052,-0.066 -0.225,-0.38 -0.131,-0.428c0.076,0.149 0.145,0.252 0.241,0.331c0.051,0.043 0.134,0.104 0.186,0.142c0.06,0.043 0.125,0.091 0.209,0.131c0.032,0.016 0.091,0.026 0.116,0.04c0.05,0.029 0.081,0.11 0.115,0.172c0.065,0.117 0.133,0.233 0.195,0.353c0.1,0.191 0.163,0.395 0.212,0.591c0.023,0.093 0.037,0.172 0.054,0.275c0.031,0.186 0.064,0.384 0.197,0.582c0.105,0.156 0.276,0.265 0.473,0.341c0.121,0.047 0.24,0.106 0.37,0.151c0.108,0.037 0.223,0.073 0.327,0.097c0.061,0.015 0.14,0.013 0.188,0.06c0.052,0.052 0.078,0.11 0.128,0.146c0.043,0.03 0.087,0.056 0.139,0.08c0.119,0.055 0.211,0.182 0.311,0.246c0.199,0.128 0.43,0.406 0.578,0.597c0.05,0.064 0.128,0.154 0.183,0.22c0.03,0.035 0.056,0.075 0.112,0.088c0.07,0.016 0.132,-0.006 0.198,0.018c0.038,0.014 0.219,0.157 0.222,0.01c0,-0.055 -0.093,-0.095 -0.127,-0.108c-0.072,-0.03 -0.273,-0.015 -0.302,-0.072c0.056,-0.018 0.245,-0.038 0.227,-0.128c-0.031,-0.149 -0.255,0.015 -0.293,0.042c-0.135,-0.251 -0.359,-0.409 -0.503,-0.588c-0.081,-0.102 -0.177,-0.161 -0.271,-0.243c-0.045,-0.039 -0.09,-0.114 -0.142,-0.17c-0.035,-0.039 -0.101,-0.052 -0.147,-0.098c0.088,-0.018 0.202,0.028 0.284,0.038c0.415,0.052 0.841,0.084 1.298,0.112c0.317,0.02 0.617,0.005 0.926,-0.032c0.182,-0.022 0.42,-0.037 0.637,-0.068c0.123,-0.018 0.186,-0.035 0.325,-0.058c0.185,-0.031 0.432,-0.055 0.578,-0.082c0.443,-0.078 0.943,-0.178 1.427,-0.291c0.275,-0.064 0.553,-0.112 0.826,-0.19c0.298,-0.084 0.587,-0.216 0.877,-0.326c0.453,-0.172 0.908,-0.302 1.339,-0.495c0.408,-0.182 0.804,-0.42 1.186,-0.684c0.372,-0.258 0.757,-0.559 1.125,-0.775c0.404,-0.239 0.854,-0.486 1.285,-0.719c0.386,-0.208 0.766,-0.435 1.081,-0.64c0.136,-0.088 0.246,-0.168 0.392,-0.282c0.199,-0.155 0.408,-0.297 0.616,-0.438c0.31,-0.21 0.652,-0.459 0.948,-0.654c0.359,-0.237 0.748,-0.523 1.119,-0.807c0.193,-0.147 0.359,-0.286 0.503,-0.445c0.145,-0.16 0.337,-0.339 0.448,-0.582c0.055,-0.122 0.092,-0.281 0.086,-0.391c-0.002,-0.038 -0.004,-0.096 -0.032,-0.136c-0.011,-0.015 -0.072,-0.083 -0.092,-0.079c-0.032,0.007 0.02,0.041 -0.016,0.059c-0.036,-0.118 -0.089,-0.244 -0.172,-0.355c-0.14,-0.19 -0.467,-0.367 -0.681,-0.462c-0.256,-0.114 -0.534,-0.172 -0.786,-0.181c-0.35,-0.012 -0.696,-0.043 -1,0.005c-0.344,0.054 -0.674,0.061 -1.054,0.109c-0.242,0.031 -0.448,0.076 -0.654,0.098c-0.148,0.017 -0.296,0.058 -0.421,0.087c-0.003,0.001 -0.055,0.013 -0.069,0.014c-0.017,-0.036 -0.037,-0.044 -0.06,-0.023c-0.008,0.003 -0.015,0.007 -0.022,0.011c-0.03,0.006 -0.056,0.034 -0.086,0.044c-0.033,0.011 -0.1,0.021 -0.146,0.032c-0.091,0.022 -0.203,0.04 -0.3,0.068c-0.235,0.066 -0.511,0.118 -0.757,0.194c-0.502,0.155 -1.007,0.306 -1.515,0.442c-0.389,0.105 -0.819,0.242 -1.263,0.348c-0.507,0.121 -1.019,0.268 -1.52,0.414c-0.966,0.28 -1.885,0.608 -2.83,0.806c-0.113,0.023 -0.225,0.048 -0.326,0.07c-0.249,0.054 -0.54,0.098 -0.805,0.143c-0.225,0.038 -0.472,0.097 -0.698,0.137c-0.099,0.018 -0.198,0.041 -0.323,0.064c-0.284,0.051 -0.571,0.099 -0.853,0.157c-0.244,0.049 -0.477,0.097 -0.716,0.124c-0.091,0.011 -0.191,0.024 -0.301,0.047c-0.117,0.024 -0.224,0.039 -0.384,0.059c-0.27,0.034 -0.562,0.081 -0.818,0.131c-0.053,0.011 -0.429,0.113 -0.451,0.07c0.803,-0.273 1.516,-0.648 2.327,-0.952c0.4,-0.151 0.854,-0.275 1.198,-0.429c0.341,-0.151 0.702,-0.316 1.031,-0.432c0.836,-0.296 1.594,-0.683 2.415,-1.085c0.421,-0.206 0.862,-0.445 1.24,-0.666c0.219,-0.127 0.411,-0.273 0.601,-0.406c0.34,-0.238 0.646,-0.435 0.966,-0.667c0.173,-0.126 0.378,-0.279 0.525,-0.393c0.095,-0.074 0.211,-0.18 0.334,-0.215c-0.031,-0.06 0.416,-0.385 0.486,-0.445c0.059,-0.052 0.126,-0.126 0.179,-0.178c0.046,-0.047 0.091,-0.087 0.141,-0.125c0.009,-0.006 0.012,0.022 0.038,0c0.033,-0.029 -0.005,-0.036 0.017,-0.063c0.047,-0.062 0.112,-0.123 0.166,-0.183c0.07,-0.079 0.143,-0.171 0.21,-0.244c0.081,-0.087 0.158,-0.181 0.214,-0.278c0.051,-0.086 0.086,-0.152 0.128,-0.255c0.04,-0.095 0.086,-0.119 0.139,-0.174c0.164,-0.174 0.371,-0.409 0.54,-0.582c0.162,-0.164 0.27,-0.354 0.408,-0.524c0.082,-0.101 0.154,-0.241 0.224,-0.342c0.091,-0.131 0.189,-0.291 0.258,-0.426c0.151,-0.291 0.378,-0.561 0.512,-0.837c0.131,-0.271 0.325,-0.532 0.469,-0.794c0.126,-0.229 0.254,-0.471 0.379,-0.715c0.068,-0.131 0.144,-0.256 0.209,-0.394c0.099,-0.212 0.185,-0.498 0.265,-0.749c0.05,-0.155 0.063,-0.367 0.016,-0.517c-0.082,-0.26 -0.286,-0.432 -0.472,-0.559" style="fill-rule:nonzero;"/></g></g></g></svg>