<?xml version="1.0" encoding="UTF-8" standalone="no"?><!DOCTYPE svg PUBLIC "-//W3C//DTD SVG 1.1//EN" "http://www.w3.org/Graphics/SVG/1.1/DTD/svg11.dtd"><svg width="100%" height="100%" viewBox="0 0 64 64" version="1.1" xmlns="http://www.w3.org/2000/svg" xmlns:xlink="http://www.w3.org/1999/xlink" xml:space="preserve" xmlns:serif="http://www.serif.com/" style="fill-rule:evenodd;clip-rule:evenodd;stroke-miterlimit:10;"><g id="Tools"><path d="M35.221,33.376l11.778,11.777l-4.349,4.349l-11.391,-11.391c1.322,-1.577 2.642,-3.156 3.962,-4.735Zm-0.241,-11.718l-18.57,22.05c-0.569,0.676 -0.543,1.638 0.06,2.146l2.185,1.839c0.603,0.508 1.555,0.371 2.125,-0.306l18.569,-22.049l-4.369,-3.68Zm6.488,25.901l3.532,-3.533l-1.414,-1.414l-3.533,3.532l1.415,1.415Zm-3.536,-3.536l3.533,-3.532l-1.415,-1.415l-3.532,3.533l1.414,1.414Zm-3.535,-3.535l3.532,-3.533l-1.414,-1.414l-3.533,3.532l1.415,1.415Zm-6.083,-14.02l-3.977,4.722l-10.987,-10.987l4.349,-4.349l10.615,10.614Zm-4.524,3.413l3.533,-3.533l-1.415,-1.414l-3.532,3.533l1.414,1.414Zm21.573,-9.921c0,0 -10.215,-9.562 -13.579,-10.149c-1.468,-0.256 -3.608,1.967 -3.608,1.967c0,0 3.192,-0.163 4.435,0.603c1.302,0.802 3.046,3.062 3.376,4.211c0.263,0.916 -1.397,2.685 -1.397,2.685l6.856,5.774c0.764,-0.206 1.607,-0.05 2.251,0.492c0.645,0.543 0.941,1.347 0.869,2.136l1.817,1.53c0.62,0.522 1.587,0.397 2.158,-0.28l2.067,-2.455c0.57,-0.677 0.529,-1.651 -0.091,-2.174l-1.601,-1.348c-0.885,0.483 -2.003,0.41 -2.81,-0.269c-0.806,-0.679 -1.068,-1.769 -0.743,-2.723Zm-25.109,6.385l3.533,-3.532l-1.414,-1.414l-3.533,3.532l1.414,1.414Zm-3.535,-3.535l3.533,-3.533l-1.415,-1.414l-3.532,3.533l1.414,1.414Z" style="fill:#1b1b1a;"/><path id="Outline" d="M61.5,32.174c0,-16.178 -13.135,-29.313 -29.313,-29.313c-16.178,0 -29.313,13.135 -29.313,29.313c0,16.178 13.135,29.313 29.313,29.313c16.178,0 29.313,-13.135 29.313,-29.313Z" style="fill:none;stroke:#1b1b1a;stroke-width:3px;"/></g></svg>