<?xml version="1.0" encoding="UTF-8" standalone="no"?><!DOCTYPE svg PUBLIC "-//W3C//DTD SVG 1.1//EN" "http://www.w3.org/Graphics/SVG/1.1/DTD/svg11.dtd"><svg width="100%" height="100%" viewBox="0 0 64 64" version="1.1" xmlns="http://www.w3.org/2000/svg" xmlns:xlink="http://www.w3.org/1999/xlink" xml:space="preserve" xmlns:serif="http://www.serif.com/" style="fill-rule:evenodd;clip-rule:evenodd;stroke-miterlimit:10;"><g id="Species"><g id="Reptiles"><g id="tortoise"><path id="Outline" d="M61.126,31.687c0,-16.179 -13.135,-29.313 -29.313,-29.313c-16.178,0 -29.313,13.134 -29.313,29.313c0,16.178 13.135,29.313 29.313,29.313c16.178,0 29.313,-13.135 29.313,-29.313Z" style="fill:none;stroke:#000;stroke-width:3px;"/><path d="M20.308,36.599c-0.182,-0.057 -0.332,-0.053 -0.47,0.016c-0.188,0.094 -0.371,0.115 -0.541,-0.007c-0.133,0.056 -0.151,0.177 -0.164,0.266c-0.07,0.487 -0.304,0.96 -0.128,1.469c0.068,0.197 0.049,0.387 -0.072,0.559c-0.09,0.128 -0.128,0.272 -0.119,0.422c0.015,0.239 -0.076,0.425 -0.249,0.578c-0.113,0.101 -0.211,0.215 -0.265,0.357c-0.139,0.366 -0.443,0.454 -0.789,0.516c-0.54,0.098 -1.073,0.016 -1.619,-0.03c-0.203,0.118 -0.321,0.363 -0.572,0.421c-0.057,0.012 -0.114,0.015 -0.18,-0.052c-0.051,-0.217 0.179,-0.37 0.19,-0.605c-0.09,-0.103 -0.252,-0.121 -0.343,-0.254c-0.278,0.243 -0.518,0.485 -0.703,0.78c-0.105,0.166 -0.232,0.313 -0.445,0.324c-0.172,-0.125 -0.084,-0.267 -0.03,-0.379c0.154,-0.321 0.329,-0.631 0.496,-0.946c0.026,-0.05 0.07,-0.092 0.062,-0.179c-0.126,-0.083 -0.21,-0.014 -0.296,0.091c-0.183,0.223 -0.355,0.452 -0.511,0.693c-0.087,0.134 -0.176,0.264 -0.318,0.37c-0.1,-0.112 -0.083,-0.231 -0.044,-0.332c0.211,-0.544 0.314,-1.13 0.653,-1.624c0.206,-0.301 0.438,-0.553 0.8,-0.659c0.054,-0.015 0.114,-0.036 0.153,-0.075c0.161,-0.16 0.351,-0.206 0.563,-0.15c0.163,-0.179 0.205,-0.33 0.086,-0.564c-0.159,-0.314 -0.08,-0.678 -0.049,-1.017c0.02,-0.216 0.045,-0.432 0.049,-0.651c0.002,-0.102 -0.01,-0.217 0.032,-0.305c0.095,-0.2 0.094,-0.391 0.044,-0.601c-0.047,-0.2 0.03,-0.387 0.14,-0.554c0.079,-0.12 0.114,-0.231 0.089,-0.384c-0.042,-0.249 0.123,-0.429 0.297,-0.597c-0.114,-0.282 -0.264,-0.496 -0.506,-0.681c-0.66,-0.5 -1.369,-0.922 -2.065,-1.365c-0.106,-0.068 -0.204,-0.149 -0.301,-0.23c-0.072,-0.061 -0.148,-0.11 -0.245,-0.109c-0.339,0.005 -0.59,-0.182 -0.81,-0.401c-0.349,-0.348 -0.71,-0.681 -0.997,-1.093c-0.172,-0.247 -0.435,-0.434 -0.652,-0.653c-0.451,-0.455 -0.962,-0.848 -1.461,-1.253c-0.381,-0.311 -0.719,-0.673 -1.003,-1.076c-0.144,-0.207 -0.252,-0.44 -0.224,-0.71c0.023,-0.219 -0.087,-0.342 -0.291,-0.403c-0.186,-0.056 -0.375,-0.104 -0.569,-0.208c0.074,-0.558 0.316,-1.052 0.69,-1.485c0.113,-0.131 0.224,-0.263 0.286,-0.427c0.126,-0.336 0.39,-0.498 0.72,-0.575c0.68,-0.157 1.348,-0.063 2.01,0.109c0.277,0.073 0.549,0.168 0.825,0.248c0.346,0.1 0.669,0.237 0.945,0.478c0.122,0.104 0.27,0.18 0.436,0.193c0.424,0.032 0.785,0.231 1.16,0.407c0.488,0.229 0.974,0.46 1.479,0.652c0.787,0.299 1.502,0.74 2.215,1.182c0.772,0.478 1.498,1.008 2.096,1.704c0.154,0.179 0.356,0.324 0.565,0.445c0.189,0.109 0.376,0.223 0.525,0.387c0.113,0.125 0.264,0.184 0.421,0.224c0.222,0.056 0.443,0.114 0.668,0.248c0.344,-0.465 0.75,-0.844 1.231,-1.099c0.022,-0.119 -0.098,-0.068 -0.096,-0.154c0.526,-0.6 1.016,-1.247 1.492,-1.907c0.026,-0.037 0.055,-0.075 0.09,-0.104c0.706,-0.6 1.324,-1.303 2.141,-1.775c1.759,-1.016 3.599,-1.837 5.573,-2.337c0.78,-0.197 1.581,-0.282 2.373,-0.413c0.114,-0.019 0.229,-0.005 0.342,0.026c0.181,0.049 0.364,0.051 0.545,0.001c0.126,-0.034 0.249,-0.034 0.373,0.004c0.102,0.032 0.204,0.03 0.306,-0.001c0.63,-0.187 1.288,-0.214 1.934,-0.306c0.543,-0.077 1.094,-0.11 1.643,-0.143c0.47,-0.027 0.936,0.081 1.409,0.078c0.176,-0.001 0.357,0.052 0.512,0.176c0.18,0.142 0.419,0.134 0.627,0.143c0.479,0.022 0.936,0.144 1.377,0.295c0.448,0.153 0.917,0.196 1.365,0.34c1.008,0.326 2.016,0.668 2.894,1.268c0.545,0.371 1.045,0.815 1.48,1.329c0.363,0.429 0.762,0.827 1.104,1.274c0.574,0.748 1.163,1.493 1.48,2.388c0.124,0.347 0.308,0.685 0.325,1.074c0.007,0.178 0.097,0.352 0.192,0.503c-0.017,0.076 -0.119,0.095 -0.094,0.178c0.002,0.139 0.306,0.103 0.148,0.336c-0.008,0.007 -0.045,-0.088 -0.088,-0.008c0.005,0.044 -0.006,0.11 0.019,0.155c0.292,0.52 0.278,1.152 0.615,1.655c0.309,0.46 0.732,0.722 1.287,0.748c0.31,0.014 0.621,0.003 0.931,0.003c0.195,0.001 0.392,-0.027 0.493,0.214c0.104,0.248 -0.074,0.352 -0.213,0.468c-0.016,0.173 0.073,0.267 0.187,0.358c0.314,0.252 0.331,0.385 0.105,0.724c-0.101,0.152 -0.257,0.265 -0.323,0.448c0.34,0.059 0.685,0.081 0.967,0.327c0.126,0.11 0.292,0.193 0.466,0.213c0.321,0.036 0.564,0.213 0.752,0.445c0.303,0.374 0.581,0.765 0.984,1.044c0.079,0.056 0.16,0.13 0.189,0.275c-0.218,0.005 -0.402,-0.065 -0.562,-0.156c-0.356,-0.201 -0.626,-0.053 -0.911,0.163c0.099,0.248 0.299,0.391 0.481,0.54c0.319,0.262 0.655,0.503 0.982,0.756c0.087,0.068 0.198,0.122 0.199,0.277c-0.187,0.108 -0.356,0.002 -0.514,-0.065c-0.456,-0.195 -0.879,-0.451 -1.26,-0.77c-0.096,-0.08 -0.179,-0.182 -0.354,-0.186c-0.24,0.359 -0.607,0.578 -1.075,0.684c0.256,0.384 0.498,0.689 0.881,0.858c0.154,0.068 0.32,0.135 0.386,0.332c-0.172,0.162 -0.358,0.18 -0.561,0.066c-0.167,-0.094 -0.337,-0.138 -0.528,-0.07c-0.165,0.059 -0.317,0 -0.461,-0.08c-0.65,-0.361 -1.248,-0.782 -1.603,-1.463c-0.088,-0.169 -0.218,-0.277 -0.388,-0.314c-0.357,-0.078 -0.711,-0.163 -1.08,-0.2c-0.396,-0.039 -0.713,0.057 -1.056,0.244c-0.816,0.444 -1.714,0.653 -2.624,0.804c-0.883,0.146 -1.766,0.279 -2.658,0.365c-0.798,0.076 -1.585,0.258 -2.382,0.356c-1.035,0.126 -2.054,0.384 -3.104,0.392c-0.213,0.002 -0.403,0.086 -0.586,0.184c-0.924,0.49 -1.916,0.688 -2.953,0.708c-0.562,0.011 -1.127,-0.045 -1.684,0.073c-0.225,0.047 -0.449,0.097 -0.675,0.134c-0.664,0.108 -1.323,-0.026 -1.985,-0.049c-0.691,-0.024 -1.37,-0.129 -2.051,-0.23c-0.372,-0.056 -0.74,-0.147 -1.152,-0.231c-0.041,0.333 -0.046,0.649 0.007,0.963c0.06,0.347 0.066,0.681 -0.091,1.009c-0.098,0.207 -0.17,0.426 -0.25,0.64c-0.051,0.133 -0.051,0.276 -0.02,0.409c0.118,0.498 -0.152,0.873 -0.422,1.221c-0.186,0.239 -0.453,0.421 -0.698,0.609c-0.441,0.34 -0.938,0.526 -1.506,0.493c-0.09,-0.005 -0.182,0.008 -0.258,0.012c-0.23,0.173 -0.123,0.534 -0.423,0.671c-0.274,-0.271 -0.237,-0.664 -0.404,-0.982c-0.159,-0.074 -0.343,-0.096 -0.509,-0.18c-0.268,-0.133 -0.514,-0.057 -0.689,0.194c-0.225,0.322 -0.407,0.666 -0.526,1.042c-0.026,0.084 -0.025,0.184 -0.142,0.261c-0.171,-0.225 -0.136,-0.488 -0.179,-0.734c-0.044,-0.249 -0.065,-0.498 -0.07,-0.748c-0.125,-0.041 -0.149,0.053 -0.187,0.114c-0.14,0.224 -0.258,0.46 -0.347,0.711c-0.038,0.106 -0.068,0.219 -0.19,0.291c-0.184,-0.091 -0.172,-0.263 -0.155,-0.413c0.064,-0.556 0.244,-1.074 0.562,-1.539c0.136,-0.199 0.267,-0.408 0.422,-0.585c0.273,-0.309 0.597,-0.537 1.061,-0.542c0.448,-0.006 0.899,-0.033 1.336,-0.001c0.019,-0.07 0.037,-0.099 0.03,-0.113c-0.401,-0.66 -0.537,-1.402 -0.65,-2.149c-0.029,-0.19 -0.019,-0.389 0.03,-0.583c0.024,-0.099 0.029,-0.204 0.03,-0.307c0.007,-0.415 -0.036,-0.47 -0.431,-0.571c-1.109,-0.283 -2.15,-0.729 -3.145,-1.296c-0.409,-0.233 -0.83,-0.441 -1.169,-0.781c-0.225,-0.226 -0.404,-0.468 -0.459,-0.79c-0.011,-0.065 -0.051,-0.126 -0.081,-0.196"/></g></g></g></svg>