<?xml version="1.0" encoding="UTF-8" standalone="no"?><!DOCTYPE svg PUBLIC "-//W3C//DTD SVG 1.1//EN" "http://www.w3.org/Graphics/SVG/1.1/DTD/svg11.dtd"><svg width="100%" height="100%" viewBox="0 0 64 64" version="1.1" xmlns="http://www.w3.org/2000/svg" xmlns:xlink="http://www.w3.org/1999/xlink" xml:space="preserve" xmlns:serif="http://www.serif.com/" style="fill-rule:evenodd;clip-rule:evenodd;stroke-miterlimit:10;"><g id="Species"><g id="Reptiles"><g id="tortoise"><path id="Outline" d="M61.409,32.047c0,-16.178 -13.135,-29.313 -29.313,-29.313c-16.179,0 -29.314,13.135 -29.314,29.313c0,16.178 13.135,29.313 29.314,29.313c16.178,0 29.313,-13.135 29.313,-29.313Z" style="fill:none;stroke:#000;stroke-width:3px;"/><path d="M20.591,36.959c-0.183,-0.057 -0.333,-0.053 -0.471,0.016c-0.188,0.094 -0.37,0.116 -0.54,-0.006c-0.133,0.056 -0.152,0.176 -0.164,0.265c-0.07,0.487 -0.304,0.96 -0.129,1.469c0.068,0.197 0.049,0.387 -0.071,0.559c-0.091,0.128 -0.129,0.272 -0.12,0.423c0.016,0.238 -0.075,0.424 -0.249,0.577c-0.113,0.101 -0.211,0.215 -0.265,0.358c-0.138,0.365 -0.443,0.453 -0.788,0.515c-0.541,0.098 -1.074,0.016 -1.619,-0.03c-0.204,0.118 -0.322,0.363 -0.573,0.421c-0.056,0.013 -0.114,0.016 -0.18,-0.052c-0.051,-0.217 0.179,-0.37 0.19,-0.605c-0.09,-0.103 -0.252,-0.121 -0.342,-0.254c-0.279,0.244 -0.518,0.486 -0.704,0.781c-0.105,0.166 -0.232,0.312 -0.445,0.323c-0.171,-0.125 -0.083,-0.267 -0.03,-0.379c0.154,-0.32 0.329,-0.631 0.496,-0.946c0.027,-0.05 0.07,-0.092 0.063,-0.179c-0.127,-0.082 -0.21,-0.013 -0.297,0.092c-0.183,0.222 -0.355,0.451 -0.511,0.693c-0.086,0.133 -0.176,0.263 -0.318,0.369c-0.1,-0.112 -0.083,-0.23 -0.044,-0.332c0.211,-0.544 0.314,-1.129 0.653,-1.624c0.206,-0.301 0.438,-0.553 0.8,-0.658c0.054,-0.016 0.115,-0.037 0.153,-0.076c0.161,-0.16 0.351,-0.206 0.563,-0.15c0.164,-0.179 0.205,-0.33 0.087,-0.563c-0.16,-0.315 -0.08,-0.679 -0.049,-1.017c0.019,-0.217 0.045,-0.433 0.048,-0.651c0.002,-0.103 -0.009,-0.218 0.032,-0.306c0.095,-0.2 0.094,-0.39 0.045,-0.601c-0.048,-0.2 0.029,-0.387 0.14,-0.553c0.078,-0.121 0.114,-0.232 0.088,-0.385c-0.042,-0.249 0.123,-0.429 0.298,-0.597c-0.114,-0.281 -0.265,-0.496 -0.507,-0.68c-0.659,-0.501 -1.369,-0.922 -2.065,-1.366c-0.106,-0.067 -0.204,-0.149 -0.3,-0.229c-0.073,-0.062 -0.149,-0.111 -0.246,-0.11c-0.339,0.005 -0.589,-0.182 -0.81,-0.401c-0.348,-0.348 -0.71,-0.681 -0.996,-1.093c-0.172,-0.247 -0.435,-0.434 -0.652,-0.653c-0.452,-0.455 -0.963,-0.847 -1.461,-1.253c-0.382,-0.31 -0.72,-0.672 -1.003,-1.076c-0.145,-0.207 -0.253,-0.44 -0.225,-0.709c0.023,-0.22 -0.087,-0.342 -0.291,-0.404c-0.186,-0.055 -0.375,-0.103 -0.569,-0.208c0.075,-0.558 0.316,-1.052 0.69,-1.485c0.114,-0.131 0.225,-0.263 0.286,-0.427c0.126,-0.336 0.39,-0.498 0.72,-0.575c0.68,-0.157 1.348,-0.063 2.01,0.11c0.278,0.072 0.549,0.167 0.825,0.247c0.346,0.1 0.669,0.238 0.946,0.478c0.121,0.105 0.27,0.18 0.435,0.193c0.425,0.032 0.785,0.231 1.161,0.407c0.487,0.229 0.973,0.46 1.478,0.652c0.788,0.299 1.502,0.74 2.215,1.182c0.772,0.478 1.499,1.008 2.096,1.704c0.154,0.179 0.356,0.324 0.566,0.445c0.189,0.11 0.375,0.223 0.524,0.387c0.113,0.125 0.264,0.184 0.421,0.224c0.222,0.056 0.443,0.114 0.668,0.248c0.344,-0.465 0.751,-0.844 1.231,-1.099c0.023,-0.119 -0.097,-0.068 -0.096,-0.154c0.526,-0.599 1.017,-1.247 1.492,-1.907c0.026,-0.036 0.055,-0.074 0.09,-0.104c0.707,-0.6 1.324,-1.303 2.141,-1.774c1.76,-1.017 3.6,-1.838 5.574,-2.337c0.779,-0.198 1.58,-0.283 2.373,-0.414c0.114,-0.018 0.228,-0.004 0.341,0.026c0.181,0.049 0.364,0.052 0.546,0.002c0.126,-0.035 0.248,-0.035 0.373,0.004c0.101,0.031 0.203,0.029 0.305,-0.001c0.631,-0.188 1.288,-0.215 1.934,-0.306c0.544,-0.078 1.095,-0.111 1.643,-0.143c0.471,-0.028 0.936,0.081 1.409,0.077c0.176,-0.001 0.358,0.053 0.513,0.176c0.179,0.142 0.418,0.134 0.627,0.144c0.478,0.021 0.935,0.143 1.376,0.294c0.449,0.153 0.918,0.196 1.365,0.341c1.008,0.325 2.016,0.668 2.895,1.267c0.544,0.371 1.044,0.816 1.479,1.33c0.363,0.428 0.762,0.826 1.105,1.273c0.573,0.748 1.162,1.493 1.48,2.389c0.124,0.346 0.307,0.685 0.324,1.074c0.008,0.177 0.097,0.352 0.193,0.502c-0.017,0.076 -0.119,0.096 -0.095,0.179c0.002,0.138 0.306,0.103 0.148,0.336c-0.008,0.006 -0.045,-0.089 -0.088,-0.009c0.005,0.044 -0.006,0.11 0.02,0.156c0.292,0.519 0.277,1.151 0.614,1.655c0.309,0.46 0.732,0.721 1.287,0.747c0.31,0.014 0.621,0.003 0.931,0.003c0.195,0.001 0.393,-0.027 0.493,0.214c0.105,0.248 -0.074,0.352 -0.213,0.469c-0.015,0.172 0.074,0.266 0.187,0.357c0.315,0.253 0.331,0.385 0.105,0.724c-0.101,0.152 -0.257,0.265 -0.323,0.449c0.34,0.058 0.685,0.08 0.967,0.326c0.126,0.11 0.292,0.193 0.466,0.213c0.321,0.036 0.564,0.213 0.752,0.445c0.303,0.374 0.581,0.765 0.984,1.045c0.08,0.055 0.16,0.129 0.19,0.275c-0.218,0.004 -0.402,-0.066 -0.563,-0.156c-0.356,-0.202 -0.626,-0.053 -0.911,0.163c0.099,0.247 0.3,0.39 0.481,0.539c0.319,0.263 0.655,0.504 0.983,0.757c0.086,0.067 0.198,0.121 0.198,0.276c-0.187,0.108 -0.356,0.002 -0.514,-0.065c-0.456,-0.195 -0.878,-0.451 -1.26,-0.77c-0.096,-0.08 -0.179,-0.182 -0.354,-0.186c-0.24,0.359 -0.607,0.578 -1.074,0.684c0.255,0.384 0.498,0.689 0.88,0.858c0.155,0.068 0.321,0.135 0.387,0.332c-0.173,0.163 -0.359,0.18 -0.561,0.066c-0.168,-0.094 -0.338,-0.138 -0.528,-0.069c-0.166,0.058 -0.318,0 -0.461,-0.08c-0.65,-0.362 -1.248,-0.783 -1.604,-1.464c-0.087,-0.169 -0.218,-0.277 -0.387,-0.313c-0.358,-0.078 -0.712,-0.164 -1.081,-0.201c-0.396,-0.039 -0.712,0.057 -1.056,0.244c-0.815,0.444 -1.713,0.653 -2.624,0.804c-0.882,0.146 -1.765,0.279 -2.658,0.365c-0.798,0.076 -1.585,0.259 -2.381,0.356c-1.036,0.126 -2.054,0.384 -3.105,0.392c-0.213,0.002 -0.403,0.086 -0.586,0.184c-0.923,0.49 -1.915,0.688 -2.953,0.708c-0.562,0.011 -1.127,-0.045 -1.684,0.073c-0.224,0.047 -0.448,0.097 -0.674,0.134c-0.665,0.109 -1.324,-0.025 -1.986,-0.049c-0.69,-0.024 -1.37,-0.129 -2.05,-0.23c-0.373,-0.056 -0.741,-0.147 -1.152,-0.23c-0.041,0.333 -0.047,0.648 0.006,0.962c0.06,0.347 0.066,0.681 -0.09,1.01c-0.099,0.206 -0.17,0.425 -0.251,0.639c-0.051,0.133 -0.05,0.277 -0.019,0.409c0.117,0.498 -0.153,0.873 -0.423,1.221c-0.186,0.24 -0.452,0.421 -0.697,0.609c-0.442,0.34 -0.939,0.526 -1.506,0.493c-0.091,-0.005 -0.182,0.008 -0.258,0.012c-0.231,0.173 -0.123,0.534 -0.423,0.671c-0.274,-0.271 -0.238,-0.664 -0.404,-0.982c-0.16,-0.074 -0.344,-0.096 -0.51,-0.179c-0.268,-0.134 -0.514,-0.057 -0.689,0.193c-0.225,0.322 -0.406,0.666 -0.525,1.042c-0.027,0.084 -0.026,0.184 -0.143,0.262c-0.171,-0.226 -0.135,-0.489 -0.179,-0.735c-0.044,-0.248 -0.065,-0.498 -0.07,-0.748c-0.125,-0.041 -0.149,0.053 -0.187,0.114c-0.14,0.225 -0.258,0.461 -0.346,0.711c-0.038,0.106 -0.069,0.219 -0.191,0.291c-0.184,-0.091 -0.172,-0.263 -0.154,-0.413c0.064,-0.556 0.243,-1.074 0.561,-1.539c0.136,-0.198 0.267,-0.408 0.422,-0.585c0.274,-0.308 0.598,-0.536 1.061,-0.542c0.449,-0.006 0.899,-0.032 1.337,-0.001c0.019,-0.07 0.037,-0.099 0.029,-0.113c-0.401,-0.66 -0.537,-1.402 -0.65,-2.149c-0.029,-0.19 -0.019,-0.389 0.03,-0.583c0.025,-0.098 0.029,-0.204 0.031,-0.307c0.006,-0.415 -0.037,-0.47 -0.431,-0.57c-1.11,-0.284 -2.151,-0.73 -3.145,-1.296c-0.41,-0.234 -0.83,-0.442 -1.17,-0.782c-0.225,-0.226 -0.404,-0.468 -0.459,-0.789c-0.011,-0.066 -0.051,-0.126 -0.08,-0.197"/></g></g></g></svg>