<?xml version="1.0" encoding="UTF-8" standalone="no"?><!DOCTYPE svg PUBLIC "-//W3C//DTD SVG 1.1//EN" "http://www.w3.org/Graphics/SVG/1.1/DTD/svg11.dtd"><svg width="100%" height="100%" viewBox="0 0 64 64" version="1.1" xmlns="http://www.w3.org/2000/svg" xmlns:xlink="http://www.w3.org/1999/xlink" xml:space="preserve" xmlns:serif="http://www.serif.com/" style="fill-rule:evenodd;clip-rule:evenodd;stroke-miterlimit:10;"><g id="Species"><g id="Birds"><g id="heron"><path id="Outline" d="M61.409,32.047c0,-16.178 -13.135,-29.313 -29.313,-29.313c-16.179,0 -29.314,13.135 -29.314,29.313c0,16.178 13.135,29.313 29.314,29.313c16.178,0 29.313,-13.135 29.313,-29.313Z" style="fill:none;stroke:#000;stroke-width:3px;"/><path d="M39.738,53.242c0,0 0.01,0.067 0.02,0.141c0,-0.082 -0.02,-0.141 -0.02,-0.141m-3.13,-3.076c0.019,0.805 0.039,1.581 0.02,1.62c-0.007,0.045 -0.004,0.179 0,0.345c-0.052,-0.071 -0.142,-0.145 -0.142,-0.227c0,-0.133 -0.029,-0.605 -0.029,-0.605c0,0 -0.118,-0.631 0.118,-1.073c0.011,-0.021 0.021,-0.04 0.033,-0.06m-0.089,-18.149c0.092,0 0.148,0.056 0.406,0.185c0,0 0.109,0.147 0.109,0.221c0,0.074 0.13,0.517 0.444,1.015c0.314,0.498 0.776,0.98 1.053,1.035c0.148,0.055 0.349,0.499 0.7,0.923c0.351,0.425 2.159,2.601 2.159,2.601c0.111,0.314 1.865,2.326 1.865,2.326c0,0 0.056,0.148 0.167,0.333c0.111,0.184 -0.131,0.461 -0.149,0.794c-0.019,0.332 -0.35,0.332 -0.498,0.609c-0.147,0.276 -3.432,4.188 -3.561,4.262c-0.089,0.105 -1.543,1.61 -1.814,2.061c-0.08,0.091 -0.187,0.204 -0.301,0.294c0.007,-0.401 0.021,-0.836 0.047,-1.211c0.055,-0.812 0.185,-2.418 0.185,-2.418c0.074,-0.221 0.11,-0.646 0.147,-0.941c0.037,-0.295 0.055,-0.146 0.221,-0.312c0.166,-0.166 0.149,-0.738 0.149,-0.738c0.055,-0.296 -0.057,-0.685 -0.296,-0.962c-0.24,-0.276 -0.239,-0.516 -0.295,-0.812c-0.055,-0.295 -0.517,-3.597 -0.517,-3.597c-0.055,-0.24 -0.553,-4.097 -0.553,-4.097c0,-0.222 -0.019,-0.462 0.203,-0.812c0.221,-0.351 0.037,-0.759 0.129,-0.759m-7.65,-24.798c0,0 -0.641,0.091 -0.837,0.143c-0.196,0.052 -0.586,0.184 -0.99,0.497c-0.405,0.314 -0.837,0.719 -0.837,0.719c0.17,-0.274 0.17,-0.549 0.17,-0.549c-0.434,0.31 -0.732,0.645 -1.071,1.135c-0.338,0.49 -0.604,1.229 -0.604,1.229c-2.815,1.585 -7.269,4.65 -11.141,7.577c0,0 2.022,-0.844 3.928,-1.758c1.905,-0.913 6.185,-3.167 6.185,-3.167c0.092,0 0.776,0.037 1.237,-0.056c0.462,-0.092 1.18,-0.37 1.18,-0.37c0,0 0.112,0.074 0.462,0.074c0.351,0 0.553,-0.203 0.553,-0.203c0,0 0.056,0.073 0.388,0.073c0.333,0 0.574,-0.368 0.574,-0.368c0,0 0.036,0.018 0.276,0.221c0.24,0.203 0.553,-0.073 0.756,0.185c0.203,0.259 -0.054,0.72 -0.221,1.015c-0.166,0.295 -1.088,0.35 -1.088,0.35c-0.332,0.148 -0.739,0.352 -0.85,0.444c-0.11,0.093 0.406,0.092 0.406,0.092c0,0 -0.609,0.203 -0.794,0.332c-0.184,0.129 -0.848,0.517 -0.885,0.665c-0.037,0.147 0.332,0.094 0.332,0.094c0,0 -1.053,0.737 -1.053,0.885c0,0.148 0.444,0.203 0.444,0.203c0,0 -0.258,0.183 -0.35,0.368c-0.092,0.184 -0.518,0.665 -0.518,0.794c0,0.129 0.518,-0.221 0.518,-0.221c0,0 -0.166,0.203 -0.332,0.48c-0.167,0.276 -0.149,0.847 -0.186,1.106c-0.036,0.258 0.186,0 0.186,0c0,0 -0.075,0.74 -0.056,0.961c0.018,0.222 0.258,-0.241 0.258,-0.241l-0.037,0.277c-0.037,0.277 0.147,0.682 0.147,0.682c0.129,0.388 0.482,1.183 0.482,1.183l0.165,-0.518c0,0 0.055,0.371 0.258,0.629c0.203,0.258 0.609,0.756 0.609,0.756c0.296,0.277 1.07,1.274 1.31,1.532c0.24,0.259 -0.074,-0.222 -0.074,-0.388c0,-0.166 -0.386,-1.126 -0.386,-1.126c0.074,0.018 0.626,1.072 0.848,1.57c0.221,0.499 0.46,0.499 0.553,0.333c0.092,-0.167 -0.092,-1.053 -0.092,-1.053c0,0 0.425,0.96 0.609,1.274c0.185,0.313 0.574,0.57 0.574,0.57l0,-0.515c0,-0.221 -0.148,-0.812 -0.148,-0.812c0,0 0.387,1.015 0.554,1.274c0.165,0.258 0.441,0.515 0.441,0.515c0.203,0.24 0.629,0.777 1.22,1.497c0.591,0.719 2.491,2.25 2.491,2.25c0,0 0.017,0.314 0.183,0.868c0.167,0.553 0.201,0.781 0.649,1.725c0.15,0.415 0.184,0.71 0.184,0.71c0.036,0.259 0.127,0.499 0.164,0.942c0.038,0.442 0.462,3.765 0.462,3.765c0.037,0.295 0.055,1.144 0.147,2.011c0.093,0.868 0.259,2.494 0.259,2.494c0.056,0.222 -0.128,0.498 -0.036,0.83c0.093,0.332 0.313,0.461 0.239,0.941c-0.074,0.48 -0.091,2.712 -0.091,2.712c0,0 0.037,1.109 0,1.571c-0.01,0.118 -0.01,0.397 -0.005,0.742c-0.136,0.147 -0.254,0.281 -0.294,0.321c-0.089,0.089 -0.089,-0.06 -0.295,0.382c-0.206,0.441 -0.219,1.488 -0.263,1.679c0,0 -0.031,0.088 -0.031,0.529c0,0.441 0.001,0.221 0.015,0.457c0.015,0.236 0.147,0.19 0.353,0.558c0.123,0.22 0.4,0.52 0.633,0.756c0.024,0.427 0.045,0.812 0.051,0.979c0.019,0.498 -0.182,1.624 -0.182,1.624c-0.092,0.295 -0.168,0.518 -0.279,0.831c-0.111,0.315 -0.313,0.443 -0.609,0.61c-0.295,0.166 -0.424,0.164 -0.738,0.238c-0.314,0.074 -0.498,0.037 -0.627,0.204c-0.129,0.165 -0.37,-0.019 -0.37,-0.019c0,0 -0.203,0.02 -0.221,0.112c-0.019,0.092 -0.296,0 -0.461,0c-0.167,0 -0.387,0.185 -0.443,0.185c-0.055,0 -0.315,-0.056 -0.628,-0.056c-0.314,0 -0.867,0.313 -1.033,0.424c-0.166,0.111 -0.315,0.444 -0.167,0.37c0.147,-0.074 0.535,-0.332 0.794,-0.332c0.258,0 0.184,0.313 0.461,0.294c0.277,-0.018 0.517,-0.202 0.721,-0.35c0.203,-0.147 0.83,-0.073 1.162,-0.073c0.332,0 1.07,-0.112 1.07,-0.112c0.24,0 0.684,-0.074 0.85,-0.129c0.166,-0.056 0.239,-0.092 0.497,0.111c0.259,0.203 0.24,0.184 0.609,0.239c0.37,0.055 0.684,0.203 0.979,0.203c0.296,0 0.627,-0.035 0.701,-0.054c0.074,-0.018 0.13,-0.258 0.315,-0.258c0.184,0 0.294,0.111 0.497,0.202c0.203,0.093 0.038,-0.167 0.038,-0.167c0,0 0.314,0.297 0.462,0.297c0.147,0 -0.204,-0.26 -0.259,-0.37c-0.056,-0.111 -0.573,-0.296 -0.794,-0.389c-0.222,-0.092 -0.553,0.149 -0.645,0.168c-0.092,0.018 -0.186,-0.147 -0.426,-0.221c-0.24,-0.074 -0.535,0.073 -0.683,0.018c-0.147,-0.055 -0.203,-0.389 -0.185,-0.832c0.019,-0.443 0.021,-1.918 0.021,-1.918c0,-0.145 -0.016,-0.785 -0.029,-1.397c0.127,0.106 0.263,0.204 0.346,0.416c0.102,0.264 0.31,0.398 0.501,0.383c0.192,-0.015 0.486,0.075 0.618,-0.058c0.132,-0.132 0.455,-0.236 0.455,-0.31c0,-0.074 0.147,-0.265 0,-0.147c-0.147,0.117 -0.073,0.22 -0.426,0.25c-0.353,0.029 -0.603,-0.074 -0.692,-0.147c-0.088,-0.074 -0.118,-0.103 -0.338,-0.279c-0.221,-0.177 -0.324,-0.323 -0.368,-0.426c-0.045,-0.104 -0.088,-0.163 -0.088,-0.163c0,0 0.485,0.25 0.75,0.294c0.265,0.044 0.619,0.161 0.899,0.234c0.28,0.074 0.572,-0.014 0.66,-0.102c0.088,-0.088 0.31,-0.352 0.31,-0.529c0,-0.098 -0.012,-0.216 -0.024,-0.312c-0.002,0.136 -0.063,0.334 -0.373,0.444c-0.5,0.176 -0.588,0.075 -0.868,-0.014c-0.279,-0.088 -0.414,-0.191 -0.62,-0.294c-0.206,-0.103 -0.16,-0.412 -0.381,-0.442c0.117,-0.014 0.471,0.353 0.883,0.279c0.412,-0.073 0.69,-0.014 0.852,-0.205c0.162,-0.191 0.413,-0.192 0.56,-0.457c0.147,-0.265 0.103,-0.589 0.045,-0.736c-0.059,-0.147 0.058,0.206 -0.148,0.441c-0.206,0.236 -0.516,0.443 -0.751,0.355c-0.236,-0.088 -0.368,0.19 -0.765,0.087c-0.398,-0.103 -0.426,-0.074 -0.705,-0.192c-0.111,-0.046 -0.242,-0.101 -0.366,-0.158c-0.008,-0.827 -0.031,-2.721 -0.031,-2.721l0,-0.063c0.1,-0.069 0.19,-0.138 0.25,-0.236c0.085,-0.14 0.194,-0.279 0.279,-0.395c0.423,-0.414 0.829,-0.88 1.148,-1.389c0.092,-0.074 0.963,-1.24 1.314,-1.591c0.35,-0.351 3.138,-3.618 3.138,-3.618c0.129,-0.111 0.626,-0.589 0.921,-0.903c0.296,-0.314 0.26,0 0.371,-0.185c0.11,-0.185 0.018,-0.683 0.018,-0.683c-0.019,-0.11 -0.332,-0.572 -0.554,-0.59c-0.221,-0.019 -0.24,-0.166 -0.664,-0.757c-0.425,-0.59 -1.569,-1.92 -1.569,-1.92c-0.184,-0.203 -1.57,-1.734 -1.975,-2.454c-0.407,-0.719 -1.273,-2.216 -1.439,-2.29c0,0 0.552,0.13 0.903,0.241c0.351,0.11 0.315,0.294 0.315,0.294c0.129,0 0.462,0.406 0.923,0.738c0.461,0.332 1.254,0.998 1.568,1.368c0.314,0.369 0.627,0.959 0.627,0.959c0,0 0.111,-0.554 0.055,-0.683c-0.055,-0.129 0.222,0.552 0.518,1.18c0.295,0.627 0.757,2.64 0.794,2.806c0,0.129 0.554,-0.294 0.812,-0.571c0.258,-0.277 0.203,-0.48 0.203,-0.48c0,0 0.369,0.737 0.812,0.977c0.443,0.24 0.644,-0.091 0.644,-0.091c-0.111,-0.129 0.001,-0.314 -0.017,-0.535c-0.009,-0.101 -0.039,-0.189 -0.065,-0.246c0.09,0.082 0.323,0.098 0.323,0.098c0,0 -0.204,-0.48 -0.314,-0.664c-0.111,-0.185 0.314,0.109 0.314,0.109c0,0 -0.074,-0.091 -0.185,-0.295c-0.111,-0.203 -0.091,-0.7 -0.091,-0.7l0.258,0.092c0,0 -0.24,-0.408 -0.388,-0.906c-0.148,-0.498 -0.61,-2.472 -0.646,-2.656c0,-0.13 -0.202,-0.518 -0.369,-1.312c-0.166,-0.794 -0.996,-3.247 -0.996,-3.247c0,0 0.185,0.128 0.37,0.35c0.184,0.221 0.553,0.535 0.553,0.535c0,0 0.073,-0.24 0.018,-0.517c-0.056,-0.277 -0.406,-0.959 -0.406,-0.959c0,0 -0.536,-1.033 -0.979,-1.918c-0.443,-0.886 -2.16,-2.788 -2.16,-2.788c0,0 -0.054,-0.186 -1.567,-2.05c-1.514,-1.864 -3.208,-3.217 -3.208,-3.217c-0.026,-0.052 -0.561,-0.468 -1.148,-0.925c-0.588,-0.457 -1.566,-0.941 -2.18,-1.006c-0.613,-0.065 -0.888,0.352 -0.888,0.352c-0.678,0.248 -1.043,0.966 -1.043,0.966c0,0 -0.039,-0.143 -0.092,-0.065c-0.052,0.079 -0.171,0.665 -0.419,1.187c-0.248,0.522 -1.082,0.718 -1.082,0.718c-0.496,0.052 -1.018,0.015 -1.396,-0.821c-0.378,-0.835 0.129,-1.763 0.286,-1.998c0.156,-0.235 0.236,0.143 0.236,0.352c0,0.209 0.103,-0.233 0.221,-0.468c0.117,-0.235 0.196,-0.235 0.21,-0.17c0.012,0.066 0.051,0.377 0.051,0.377c0,0 0.274,-0.194 0.508,-0.312c0.235,-0.117 0.197,-0.104 0.197,0.013c0,0.118 -0.079,0.299 -0.079,0.299l0.157,-0.091c0.157,-0.091 0.287,-0.234 0.287,-0.234c0.079,-0.065 0.313,-0.313 0.313,-0.313c0,0 -0.117,0.6 -0.038,0.509c0.078,-0.091 0.403,-0.379 0.403,-0.379l-0.038,0.247c0,0 0.105,-0.077 0.275,-0.312c0.507,-0.693 1.183,-1.687 1.318,-2.911c0.135,-1.224 -0.053,-1.958 -0.053,-1.958c0,0 0.26,0.562 0.599,0.915c0.34,0.352 0.523,0.47 0.523,0.47c0.052,-0.039 -0.051,-0.574 -0.116,-0.874c-0.066,-0.3 -0.6,-0.979 -0.6,-0.979c0,0 0.442,0.496 0.664,0.809c0.222,0.313 1.006,0.886 1.006,0.886c0,0 -0.157,-0.325 -0.301,-0.573c-0.143,-0.248 -0.665,-0.993 -0.665,-0.993c0,0 0.064,0.04 0.286,0.196c0.222,0.157 0.405,0.208 0.47,0.235c0.066,0.026 -0.299,-0.352 -0.339,-0.404c-0.039,-0.052 -0.353,-0.64 -0.457,-0.888c-0.104,-0.248 -0.834,-0.718 -0.834,-0.718l0.143,0.013c0.143,0.013 0.325,-0.065 0.325,-0.065c0,0 -0.053,-0.105 -0.287,-0.3c-0.235,-0.196 -0.639,-0.418 -0.639,-0.418c0,0 -0.012,0.002 0.275,0.04c0.287,0.04 0.417,0.079 0.417,0.079c0,0 -0.456,-0.509 -1.396,-1.136c-0.94,-0.626 -1.84,-0.392 -1.84,-0.392l0.366,-0.234c0,0 -0.614,-0.078 -1.149,0.013c-0.535,0.091 -1.019,0.39 -1.019,0.39c0,0 0.248,-0.182 0.365,-0.325c0.118,-0.144 0.119,-0.197 0.119,-0.197" style="fill-rule:nonzero;"/></g></g></g></svg>