<?xml version="1.0" encoding="UTF-8" standalone="no"?><!DOCTYPE svg PUBLIC "-//W3C//DTD SVG 1.1//EN" "http://www.w3.org/Graphics/SVG/1.1/DTD/svg11.dtd"><svg width="100%" height="100%" viewBox="0 0 64 64" version="1.1" xmlns="http://www.w3.org/2000/svg" xmlns:xlink="http://www.w3.org/1999/xlink" xml:space="preserve" xmlns:serif="http://www.serif.com/" style="fill-rule:evenodd;clip-rule:evenodd;stroke-miterlimit:10;"><g id="Species"><g id="Birds"><g id="wild-turkey-copy" serif:id="wild turkey copy"><path id="Outline" d="M138.626,31.687c0,-16.179 -13.135,-29.313 -29.313,-29.313c-16.178,0 -29.313,13.134 -29.313,29.313c0,16.178 13.135,29.313 29.313,29.313c16.178,0 29.313,-13.135 29.313,-29.313Z" style="fill:none;stroke:#000;stroke-width:3px;"/></g><g id="heron"><path id="Outline1" serif:id="Outline" d="M58.626,31.687c0,-16.179 -13.135,-29.313 -29.313,-29.313c-16.178,0 -29.313,13.134 -29.313,29.313c0,16.178 13.135,29.313 29.313,29.313c16.178,0 29.313,-13.135 29.313,-29.313Z" style="fill:none;stroke:#000;stroke-width:3px;"/><path d="M36.955,52.882c0,0 0.011,0.067 0.02,0.14c0.001,-0.081 -0.02,-0.14 -0.02,-0.14m-3.129,-3.076c0.019,0.805 0.039,1.581 0.02,1.619c-0.007,0.045 -0.005,0.179 0,0.346c-0.053,-0.071 -0.142,-0.145 -0.142,-0.227c0,-0.133 -0.029,-0.605 -0.029,-0.605c0,0 -0.118,-0.632 0.117,-1.073c0.012,-0.021 0.022,-0.041 0.034,-0.06m-0.089,-18.149c0.092,0 0.147,0.056 0.405,0.185c0,0 0.11,0.147 0.11,0.221c0,0.074 0.13,0.516 0.444,1.015c0.313,0.498 0.775,0.979 1.052,1.035c0.148,0.055 0.35,0.499 0.701,0.923c0.35,0.425 2.159,2.601 2.159,2.601c0.111,0.314 1.864,2.326 1.864,2.326c0,0 0.057,0.148 0.168,0.332c0.11,0.185 -0.131,0.462 -0.15,0.795c-0.018,0.332 -0.349,0.331 -0.497,0.609c-0.148,0.276 -3.433,4.188 -3.562,4.262c-0.088,0.105 -1.542,1.61 -1.814,2.061c-0.079,0.091 -0.186,0.204 -0.301,0.294c0.008,-0.401 0.022,-0.837 0.047,-1.211c0.056,-0.812 0.186,-2.418 0.186,-2.418c0.073,-0.221 0.11,-0.646 0.147,-0.941c0.036,-0.295 0.054,-0.146 0.221,-0.313c0.165,-0.166 0.149,-0.738 0.149,-0.738c0.055,-0.295 -0.057,-0.684 -0.297,-0.961c-0.24,-0.277 -0.239,-0.516 -0.294,-0.812c-0.056,-0.295 -0.518,-3.597 -0.518,-3.597c-0.055,-0.24 -0.553,-4.098 -0.553,-4.098c0,-0.221 -0.018,-0.461 0.203,-0.812c0.222,-0.35 0.037,-0.758 0.13,-0.758m-7.651,-24.798c0,0 -0.64,0.091 -0.836,0.143c-0.196,0.052 -0.586,0.184 -0.991,0.497c-0.404,0.314 -0.836,0.718 -0.836,0.718c0.17,-0.274 0.17,-0.548 0.17,-0.548c-0.434,0.31 -0.732,0.645 -1.071,1.135c-0.339,0.49 -0.604,1.229 -0.604,1.229c-2.815,1.585 -7.269,4.65 -11.141,7.577c0,0 2.022,-0.844 3.927,-1.758c1.906,-0.913 6.185,-3.167 6.185,-3.167c0.093,0 0.777,0.037 1.238,-0.056c0.462,-0.092 1.18,-0.37 1.18,-0.37c0,0 0.111,0.074 0.462,0.074c0.35,0 0.553,-0.203 0.553,-0.203c0,0 0.056,0.073 0.388,0.073c0.332,0 0.573,-0.368 0.573,-0.368c0,0 0.037,0.018 0.277,0.221c0.24,0.203 0.553,-0.073 0.756,0.185c0.203,0.258 -0.055,0.72 -0.221,1.015c-0.166,0.295 -1.088,0.35 -1.088,0.35c-0.332,0.148 -0.74,0.352 -0.85,0.444c-0.111,0.092 0.406,0.091 0.406,0.091c0,0 -0.61,0.204 -0.794,0.333c-0.185,0.129 -0.849,0.517 -0.886,0.665c-0.037,0.147 0.333,0.093 0.333,0.093c0,0 -1.053,0.738 -1.053,0.886c0,0.147 0.444,0.203 0.444,0.203c0,0 -0.258,0.183 -0.35,0.368c-0.093,0.184 -0.518,0.664 -0.518,0.794c0,0.129 0.518,-0.221 0.518,-0.221c0,0 -0.167,0.203 -0.333,0.48c-0.166,0.276 -0.148,0.847 -0.185,1.106c-0.037,0.258 0.185,0 0.185,0c0,0 -0.074,0.739 -0.056,0.961c0.019,0.221 0.259,-0.241 0.259,-0.241l-0.038,0.277c-0.037,0.277 0.148,0.682 0.148,0.682c0.129,0.388 0.481,1.182 0.481,1.182l0.165,-0.517c0,0 0.056,0.37 0.259,0.629c0.203,0.258 0.609,0.756 0.609,0.756c0.295,0.277 1.069,1.274 1.309,1.532c0.24,0.259 -0.073,-0.222 -0.073,-0.388c0,-0.166 -0.386,-1.126 -0.386,-1.126c0.074,0.018 0.626,1.072 0.847,1.57c0.222,0.498 0.461,0.498 0.553,0.332c0.093,-0.166 -0.091,-1.053 -0.091,-1.053c0,0 0.424,0.96 0.609,1.274c0.184,0.314 0.573,0.571 0.573,0.571l0,-0.515c0,-0.221 -0.147,-0.812 -0.147,-0.812c0,0 0.387,1.015 0.553,1.273c0.166,0.259 0.442,0.516 0.442,0.516c0.203,0.24 0.629,0.777 1.22,1.496c0.591,0.72 2.491,2.251 2.491,2.251c0,0 0.017,0.314 0.183,0.868c0.166,0.553 0.2,0.781 0.649,1.725c0.15,0.415 0.183,0.71 0.183,0.71c0.037,0.259 0.128,0.499 0.165,0.942c0.037,0.442 0.462,3.764 0.462,3.764c0.036,0.296 0.055,1.145 0.147,2.012c0.092,0.867 0.259,2.494 0.259,2.494c0.055,0.221 -0.128,0.497 -0.036,0.83c0.092,0.332 0.312,0.461 0.239,0.941c-0.074,0.48 -0.092,2.712 -0.092,2.712c0,0 0.037,1.109 0,1.57c-0.009,0.119 -0.009,0.398 -0.005,0.743c-0.135,0.147 -0.254,0.281 -0.294,0.321c-0.088,0.089 -0.088,-0.06 -0.294,0.381c-0.206,0.442 -0.219,1.489 -0.263,1.68c0,0 -0.031,0.087 -0.031,0.529c0,0.441 0,0.221 0.015,0.457c0.015,0.235 0.146,0.19 0.353,0.558c0.123,0.22 0.399,0.519 0.633,0.756c0.023,0.426 0.045,0.812 0.051,0.979c0.018,0.498 -0.183,1.623 -0.183,1.623c-0.092,0.296 -0.168,0.519 -0.278,0.832c-0.111,0.314 -0.314,0.443 -0.61,0.609c-0.295,0.167 -0.424,0.165 -0.738,0.239c-0.314,0.074 -0.497,0.037 -0.626,0.203c-0.13,0.166 -0.371,-0.018 -0.371,-0.018c0,0 -0.202,0.02 -0.22,0.112c-0.019,0.092 -0.296,0 -0.462,0c-0.166,0 -0.386,0.185 -0.442,0.185c-0.055,0 -0.315,-0.056 -0.629,-0.056c-0.313,0 -0.866,0.313 -1.033,0.424c-0.166,0.11 -0.314,0.444 -0.167,0.37c0.148,-0.074 0.536,-0.332 0.794,-0.332c0.259,0 0.185,0.313 0.462,0.294c0.277,-0.018 0.517,-0.202 0.72,-0.35c0.203,-0.148 0.83,-0.074 1.162,-0.074c0.333,0 1.071,-0.111 1.071,-0.111c0.24,0 0.684,-0.074 0.85,-0.129c0.166,-0.056 0.239,-0.092 0.497,0.111c0.259,0.203 0.24,0.183 0.609,0.239c0.369,0.055 0.684,0.203 0.979,0.203c0.296,0 0.627,-0.035 0.701,-0.054c0.074,-0.018 0.13,-0.259 0.314,-0.259c0.185,0 0.294,0.111 0.497,0.203c0.203,0.093 0.038,-0.167 0.038,-0.167c0,0 0.314,0.297 0.462,0.297c0.148,0 -0.203,-0.26 -0.259,-0.37c-0.055,-0.111 -0.572,-0.296 -0.794,-0.389c-0.221,-0.092 -0.552,0.149 -0.644,0.168c-0.092,0.018 -0.187,-0.147 -0.426,-0.221c-0.24,-0.074 -0.535,0.073 -0.683,0.018c-0.147,-0.055 -0.203,-0.389 -0.185,-0.832c0.018,-0.443 0.02,-1.918 0.02,-1.918c0,-0.145 -0.015,-0.785 -0.029,-1.397c0.127,0.106 0.264,0.204 0.346,0.415c0.103,0.265 0.31,0.399 0.502,0.384c0.191,-0.015 0.485,0.074 0.618,-0.058c0.132,-0.133 0.455,-0.237 0.455,-0.31c0,-0.074 0.147,-0.265 0,-0.147c-0.148,0.117 -0.074,0.22 -0.426,0.25c-0.354,0.029 -0.603,-0.074 -0.692,-0.148c-0.088,-0.073 -0.118,-0.102 -0.339,-0.278c-0.221,-0.177 -0.324,-0.324 -0.368,-0.427c-0.044,-0.103 -0.087,-0.162 -0.087,-0.162c0,0 0.485,0.25 0.75,0.294c0.264,0.044 0.619,0.161 0.898,0.234c0.28,0.074 0.572,-0.014 0.661,-0.102c0.088,-0.089 0.309,-0.352 0.309,-0.529c0,-0.098 -0.012,-0.216 -0.024,-0.312c-0.002,0.136 -0.063,0.334 -0.372,0.444c-0.501,0.176 -0.588,0.074 -0.868,-0.014c-0.28,-0.088 -0.414,-0.191 -0.62,-0.294c-0.206,-0.103 -0.161,-0.412 -0.381,-0.442c0.117,-0.014 0.471,0.352 0.883,0.279c0.412,-0.074 0.69,-0.014 0.852,-0.205c0.161,-0.192 0.413,-0.193 0.56,-0.457c0.147,-0.266 0.103,-0.589 0.044,-0.737c-0.058,-0.147 0.059,0.207 -0.147,0.442c-0.206,0.236 -0.516,0.443 -0.752,0.355c-0.235,-0.089 -0.367,0.19 -0.765,0.087c-0.397,-0.103 -0.425,-0.074 -0.704,-0.192c-0.112,-0.047 -0.243,-0.101 -0.366,-0.158c-0.009,-0.828 -0.032,-2.721 -0.032,-2.721l0,-0.063c0.1,-0.069 0.19,-0.138 0.25,-0.236c0.086,-0.14 0.194,-0.279 0.279,-0.395c0.423,-0.414 0.83,-0.881 1.148,-1.389c0.092,-0.074 0.964,-1.24 1.315,-1.591c0.35,-0.351 3.138,-3.618 3.138,-3.618c0.129,-0.111 0.625,-0.589 0.921,-0.903c0.295,-0.314 0.259,-0.001 0.37,-0.185c0.111,-0.185 0.018,-0.683 0.018,-0.683c-0.019,-0.111 -0.332,-0.572 -0.553,-0.591c-0.222,-0.018 -0.24,-0.165 -0.665,-0.756c-0.424,-0.591 -1.568,-1.92 -1.568,-1.92c-0.184,-0.203 -1.57,-1.734 -1.976,-2.454c-0.406,-0.719 -1.273,-2.216 -1.439,-2.29c0,0 0.553,0.13 0.904,0.24c0.35,0.111 0.314,0.295 0.314,0.295c0.13,0 0.462,0.406 0.924,0.738c0.461,0.332 1.254,0.998 1.567,1.367c0.314,0.369 0.627,0.96 0.627,0.96c0,0 0.111,-0.554 0.056,-0.683c-0.055,-0.129 0.222,0.552 0.518,1.18c0.295,0.627 0.756,2.64 0.793,2.806c0,0.129 0.554,-0.294 0.813,-0.571c0.258,-0.277 0.203,-0.48 0.203,-0.48c0,0 0.368,0.737 0.811,0.977c0.443,0.24 0.645,-0.091 0.645,-0.091c-0.111,-0.13 0.001,-0.314 -0.018,-0.536c-0.008,-0.1 -0.038,-0.188 -0.065,-0.245c0.09,0.082 0.324,0.098 0.324,0.098c0,0 -0.204,-0.48 -0.315,-0.664c-0.111,-0.185 0.315,0.109 0.315,0.109c0,0 -0.075,-0.092 -0.185,-0.295c-0.111,-0.203 -0.092,-0.7 -0.092,-0.7l0.259,0.091c0,0 -0.24,-0.407 -0.388,-0.905c-0.148,-0.498 -0.61,-2.472 -0.647,-2.657c0,-0.129 -0.202,-0.517 -0.368,-1.311c-0.166,-0.794 -0.997,-3.248 -0.997,-3.248c0,0 0.186,0.129 0.37,0.351c0.185,0.221 0.553,0.535 0.553,0.535c0,0 0.073,-0.241 0.018,-0.518c-0.055,-0.276 -0.405,-0.959 -0.405,-0.959c0,0 -0.537,-1.032 -0.98,-1.918c-0.443,-0.886 -2.159,-2.788 -2.159,-2.788c0,0 -0.054,-0.185 -1.568,-2.049c-1.513,-1.865 -3.207,-3.217 -3.207,-3.217c-0.026,-0.052 -0.562,-0.469 -1.149,-0.926c-0.587,-0.456 -1.566,-0.94 -2.179,-1.005c-0.614,-0.066 -0.888,0.352 -0.888,0.352c-0.678,0.248 -1.044,0.966 -1.044,0.966c0,0 -0.039,-0.143 -0.091,-0.065c-0.052,0.078 -0.171,0.665 -0.42,1.187c-0.247,0.522 -1.081,0.718 -1.081,0.718c-0.496,0.052 -1.018,0.014 -1.396,-0.821c-0.379,-0.835 0.129,-1.763 0.285,-1.998c0.157,-0.235 0.237,0.143 0.237,0.352c0,0.209 0.103,-0.233 0.221,-0.468c0.117,-0.235 0.196,-0.235 0.209,-0.17c0.013,0.065 0.051,0.377 0.051,0.377c0,0 0.274,-0.195 0.509,-0.312c0.235,-0.118 0.196,-0.104 0.196,0.013c0,0.118 -0.078,0.299 -0.078,0.299l0.156,-0.091c0.157,-0.092 0.288,-0.235 0.288,-0.235c0.078,-0.065 0.312,-0.312 0.312,-0.312c0,0 -0.116,0.6 -0.038,0.509c0.079,-0.092 0.404,-0.379 0.404,-0.379l-0.038,0.247c0,0 0.105,-0.077 0.274,-0.312c0.508,-0.693 1.184,-1.687 1.318,-2.911c0.136,-1.224 -0.053,-1.958 -0.053,-1.958c0,0 0.261,0.562 0.6,0.914c0.339,0.353 0.522,0.471 0.522,0.471c0.052,-0.039 -0.051,-0.574 -0.116,-0.875c-0.065,-0.299 -0.6,-0.978 -0.6,-0.978c0,0 0.443,0.496 0.665,0.809c0.222,0.313 1.006,0.886 1.006,0.886c0,0 -0.158,-0.326 -0.301,-0.574c-0.144,-0.248 -0.665,-0.992 -0.665,-0.992c0,0 0.064,0.039 0.286,0.196c0.221,0.157 0.404,0.208 0.47,0.234c0.065,0.027 -0.3,-0.351 -0.339,-0.403c-0.039,-0.052 -0.353,-0.64 -0.457,-0.888c-0.105,-0.248 -0.835,-0.718 -0.835,-0.718l0.143,0.013c0.144,0.013 0.326,-0.065 0.326,-0.065c0,0 -0.053,-0.105 -0.288,-0.301c-0.235,-0.195 -0.638,-0.417 -0.638,-0.417c0,0 -0.012,0.001 0.274,0.04c0.288,0.04 0.418,0.078 0.418,0.078c0,0 -0.457,-0.509 -1.397,-1.135c-0.939,-0.626 -1.84,-0.393 -1.84,-0.393l0.366,-0.234c0,0 -0.613,-0.078 -1.149,0.014c-0.535,0.091 -1.019,0.39 -1.019,0.39c0,0 0.249,-0.182 0.366,-0.326c0.117,-0.143 0.118,-0.196 0.118,-0.196" style="fill-rule:nonzero;"/></g></g></g></svg>