<?xml version="1.0" encoding="UTF-8" standalone="no"?><!DOCTYPE svg PUBLIC "-//W3C//DTD SVG 1.1//EN" "http://www.w3.org/Graphics/SVG/1.1/DTD/svg11.dtd"><svg width="100%" height="100%" viewBox="0 0 64 64" version="1.1" xmlns="http://www.w3.org/2000/svg" xmlns:xlink="http://www.w3.org/1999/xlink" xml:space="preserve" xmlns:serif="http://www.serif.com/" style="fill-rule:evenodd;clip-rule:evenodd;stroke-miterlimit:10;"><g id="Changes-in-water-chemistry" serif:id="Changes in water chemistry"><path d="M43.81,52l-23.606,0c-3.04,-0.057 -5.231,-2.884 -3.707,-5.173l6.847,-9.734c-0.035,-0.176 -0.055,-0.357 -0.06,-0.544l0,-13.6l-0.87,0c-0.773,0 -1.4,-0.508 -1.4,-1.135l0,-2.269c0,-0.626 0.627,-1.134 1.4,-1.134l18.814,0c0.773,0 1.4,0.508 1.4,1.134l0,2.269c0,0.626 -0.627,1.135 -1.4,1.135l-0.875,0l0,13.6c-0.001,0.03 -0.002,0.059 -0.004,0.088l7.167,10.19c1.426,2.14 -0.445,5.111 -3.706,5.173Zm-8.078,-14.943l-7.45,0l-8.078,11.483l23.606,0l-8.078,-11.483Zm-1.198,9.167c0.5,0 0.906,0.398 0.906,0.888c0,0.49 -0.406,0.888 -0.906,0.888c-0.5,0 -0.906,-0.398 -0.906,-0.888c0,-0.49 0.406,-0.888 0.906,-0.888Zm-5.104,-0.666c0.79,0 1.43,0.547 1.43,1.221c0,0.674 -0.64,1.221 -1.43,1.221c-0.789,0 -1.43,-0.547 -1.43,-1.221c0,-0.674 0.641,-1.221 1.43,-1.221Zm8.437,-0.84c0.983,0 1.782,0.647 1.782,1.444c0,0.798 -0.799,1.445 -1.782,1.445c-0.983,0 -1.782,-0.647 -1.782,-1.445c0,-0.797 0.799,-1.444 1.782,-1.444Zm-12.097,-0.441c0.983,0 1.781,0.647 1.781,1.444c0,0.798 -0.798,1.445 -1.781,1.445c-0.984,0 -1.782,-0.647 -1.782,-1.445c0,-0.797 0.798,-1.444 1.782,-1.444Zm7.126,-1.003c0.983,0 1.782,0.647 1.782,1.444c0,0.797 -0.799,1.444 -1.782,1.444c-0.983,0 -1.782,-0.647 -1.782,-1.444c0,-0.797 0.799,-1.444 1.782,-1.444Zm-3.362,-0.05c0.5,0 0.906,0.398 0.906,0.888c0,0.49 -0.406,0.888 -0.906,0.888c-0.5,0 -0.906,-0.398 -0.906,-0.888c0,-0.49 0.406,-0.888 0.906,-0.888Zm6.232,-1.845c0.789,0 1.43,0.547 1.43,1.221c0,0.673 -0.641,1.221 -1.43,1.221c-0.79,0 -1.431,-0.548 -1.431,-1.221c0,-0.674 0.641,-1.221 1.431,-1.221Zm-6.433,-1.409c0.983,0 1.781,0.648 1.781,1.445c0,0.797 -0.798,1.444 -1.781,1.444c-0.983,0 -1.782,-0.647 -1.782,-1.444c0,-0.797 0.799,-1.445 1.782,-1.445Zm3.056,1.096c0.5,0 0.906,0.397 0.906,0.888c0,0.49 -0.406,0.888 -0.906,0.888c-0.5,0 -0.906,-0.398 -0.906,-0.888c0,-0.491 0.406,-0.888 0.906,-0.888Zm1.537,-2.932c0.984,0 1.782,0.648 1.782,1.445c0,0.797 -0.798,1.444 -1.782,1.444c-0.983,0 -1.781,-0.647 -1.781,-1.444c0,-0.797 0.798,-1.445 1.781,-1.445Zm-4.16,-0.755c0.789,0 1.43,0.547 1.43,1.221c0,0.673 -0.641,1.221 -1.43,1.221c-0.79,0 -1.431,-0.548 -1.431,-1.221c0,-0.674 0.641,-1.221 1.431,-1.221Zm6.319,-14.43l-8.534,0l0,11.569l1.247,0c0.507,0.825 1.695,1.404 3.078,1.404c1.384,0 2.572,-0.579 3.079,-1.404l1.13,0l0,-11.569Z" style="fill:#1b1b1a;fill-rule:nonzero;"/><path id="Outline" d="M61.5,32.174c0,-16.178 -13.135,-29.313 -29.313,-29.313c-16.178,0 -29.313,13.135 -29.313,29.313c0,16.178 13.135,29.313 29.313,29.313c16.178,0 29.313,-13.135 29.313,-29.313Z" style="fill:none;stroke:#1b1b1a;stroke-width:3px;"/></g></svg>