<?xml version="1.0" encoding="UTF-8" standalone="no"?><!DOCTYPE svg PUBLIC "-//W3C//DTD SVG 1.1//EN" "http://www.w3.org/Graphics/SVG/1.1/DTD/svg11.dtd"><svg width="100%" height="100%" viewBox="0 0 64 64" version="1.1" xmlns="http://www.w3.org/2000/svg" xmlns:xlink="http://www.w3.org/1999/xlink" xml:space="preserve" xmlns:serif="http://www.serif.com/" style="fill-rule:evenodd;clip-rule:evenodd;stroke-miterlimit:10;"><g id="Habitats"><g id="Terrestrial"><g id="working-cow"><path d="M47.758,20.296c-0.118,-0.451 0.213,-0.976 0.491,-1.218c0.453,-0.394 0.824,-0.802 0.872,-1.148c0.049,-0.348 0.211,-0.427 0.518,0c0.307,0.423 -0.307,1.038 -0.728,1.636c-0.197,0.281 0,0.45 0.264,0.55c0.267,-0.144 0.533,-0.283 0.683,-0.345c0.266,-0.111 1.071,-0.019 1.633,0.237c0.579,-0.062 1.594,-0.24 1.639,-0.756c0.065,-0.725 -0.242,-1.024 0,-0.962c0.243,0.063 0.695,0.678 0.578,1.381c-0.046,0.277 -0.144,0.512 -0.296,0.708c0.081,-0.016 0.162,-0.028 0.243,-0.029c0.873,-0.017 1.923,0.566 2.199,0.722c0.274,0.159 -0.049,0.894 -1.084,1.166c-0.349,0.092 -0.737,0.082 -1.102,0.032c0.191,0.147 0.322,0.294 0.351,0.507c0.049,0.363 0,0.74 0.097,0.929c0.097,0.189 0.97,1.039 1.213,1.495c0.243,0.457 0.679,1.387 1.163,1.81c0.485,0.426 1.213,0.914 1.084,1.339c-0.13,0.425 -0.566,0.724 -0.825,0.835c-0.259,0.11 -0.404,0.439 -0.663,0.582c-0.258,0.142 -0.792,0.157 -1.18,-0.111c-0.388,-0.267 -0.468,-0.173 -0.695,-0.236c-0.226,-0.063 -3.039,-0.377 -3.652,-0.377c-0.615,0 -1.843,0.063 -2.102,0.015c-0.259,-0.046 -0.453,0.851 -1.891,1.936c-1.439,1.087 -1.908,1.418 -2.215,2.141c-0.307,0.724 -0.307,1.165 -1.245,1.763c-0.937,0.598 -0.904,1.591 -1.309,2.424c-0.395,0.819 -0.269,1.108 -1.894,1.534c-0.078,0.788 -0.055,1.846 0.181,2.602c0.354,1.137 0.729,2.396 0.646,2.862c-0.084,0.467 -0.18,1.84 0.011,2.375c0.106,0.299 0.704,1.666 0.871,2.058c0.102,0.238 0.26,0.618 0.409,0.918c0.201,0.081 0.457,0.205 0.728,0.389c0.092,-0.429 0.163,-0.692 0.163,-0.692c0,0 -0.034,0.311 -0.048,0.774c0.198,0.146 0.4,0.324 0.59,0.54c0.55,-0.729 1.138,-1.04 1.138,-1.04c0,0 -0.162,0.239 -0.334,0.791c0.066,0.232 0.153,0.593 0.227,1.085c0.008,-0.036 0.017,-0.07 0.024,-0.103c0.09,-0.415 -0.055,-0.966 -0.055,-0.966c0,0 0.167,0.315 0.638,0.879c0.072,0.087 0.135,0.189 0.19,0.3c0.141,-1.004 0.344,-1.506 0.344,-1.506c0,0 0.127,0.314 0.249,0.94c0.261,-0.304 0.292,-0.316 0.292,-0.316c0,0 -0.025,0.254 0.066,0.669c0.002,0.012 0.005,0.024 0.008,0.035c0.018,-0.016 0.037,-0.031 0.056,-0.047c0.312,-1.223 0.815,-2.311 0.815,-2.311c0,0 -0.087,0.86 -0.128,1.867c0.077,-0.039 0.151,-0.072 0.218,-0.101c0.106,-0.5 0.076,-0.803 0.076,-0.803c0,0 0.04,0.016 0.384,0.417c0.153,-0.793 0.313,-1.19 0.313,-1.19c0,0 0.188,0.464 0.351,1.392c0.346,-0.456 0.705,-0.747 0.924,-0.9c0.002,-0.005 0.004,-0.008 0.004,-0.008c0,0 0.001,0.001 0.001,0.004c0.125,-0.087 0.203,-0.128 0.203,-0.128c0,0 -0.061,0.09 -0.147,0.287c0.073,0.227 0.203,0.695 0.308,1.402c0.077,-1.038 -0.025,-1.963 -0.025,-1.963c0,0 0.271,1.006 0.448,2.297c0.059,-0.125 0.128,-0.24 0.208,-0.337c0.471,-0.564 0.639,-0.879 0.639,-0.879c0,0 -0.146,0.551 -0.056,0.966c0.008,0.033 0.016,0.067 0.024,0.103c0.14,-0.93 0.328,-1.396 0.328,-1.396c0,0 0.184,0.456 0.324,1.369c0.199,-1.15 0.497,-1.725 0.497,-1.725c0,0 0.053,0.13 0.124,0.389c0.085,-0.233 0.165,-0.439 0.233,-0.607c-0.009,-0.114 -0.016,-0.18 -0.016,-0.18c0,0 0.013,0.048 0.034,0.135c0.106,-0.257 0.177,-0.411 0.177,-0.411c0,0 -0.035,0.348 -0.071,0.86c0.051,0.233 0.112,0.525 0.171,0.857c0.094,-0.471 0.066,-0.754 0.066,-0.754c0,0 0.04,0.016 0.384,0.417c0.153,-0.793 0.313,-1.19 0.313,-1.19c0,0 0.326,0.727 0.498,2.178c-0.031,0.017 -1.88,1.88 -2.153,2.156l0.094,-0.001l-7.935,5.101l-7.33,2.212l-3.874,0.34l-3.97,-0.171l-7.308,-2.041l-4.814,-2.356l-3.693,-3.051l-0.552,0l-0.689,-0.927c-0.116,-0.007 -0.237,-0.019 -0.361,-0.037c-0.552,-0.551 -1.206,-1.253 -1.916,-2.118c-0.143,-0.174 -0.278,-0.341 -0.406,-0.503c0.118,-0.105 0.091,-1.148 0.065,-1.906c-0.027,-0.764 -0.027,-2.752 -0.19,-3.701c-0.162,-0.948 -0.419,-1.765 -0.446,-2.476c-0.027,-0.711 0.028,-0.737 0.419,-1.245c0.393,-0.507 0.987,-1.863 1.109,-2.837c0.121,-0.976 -0.049,-1.881 -0.349,-4.398l0,-0.003c-0.206,-1.515 -0.177,-1.64 -0.422,-2.527c-0.296,-1.08 -0.513,-2.594 -0.594,-3.002c-0.082,-0.409 -0.068,-0.737 -0.19,-0.646c-0.122,0.093 -0.04,1.686 0,2.661c0.041,0.975 0.108,4.057 0.067,5.123c-0.04,1.066 0.231,3.279 -0.337,4.187c-0.557,0.89 -2.137,1.712 -3.166,0.434c0.073,0.033 0.23,0.041 0.569,-0.077c0.637,-0.225 0.446,-0.172 1.001,-0.554c0.555,-0.381 0.378,-0.685 0.608,-1.449c0.231,-0.764 0.366,-1.238 0.501,-1.594c0.135,-0.355 0.257,-1.646 0.257,-3.015c0,-1.369 -0.163,-2.726 -0.271,-3.635c-0.107,-0.908 -0.378,-2.831 -0.134,-4.108c0.243,-1.278 0.932,-2.66 2.879,-3.136c1.948,-0.474 3.138,-0.039 3.922,-0.276c0.784,-0.237 1.204,-0.328 2.989,-0.105c1.785,0.224 3.772,0.066 5.666,-0.329c1.893,-0.395 3.678,-0.132 6.152,0c1.735,0.092 3.239,0.239 4.872,0.525c0.671,-0.045 1.35,-0.15 1.682,-0.378c0.776,-0.535 1.827,-0.473 3.815,0.127c1.988,0.597 5.657,0.093 6.66,-0.033c0.189,-0.023 0.347,-0.041 0.487,-0.06c-0.149,-0.309 -0.156,-0.698 -0.165,-1.152c-0.016,-0.913 0.388,-0.315 1.286,-0.183l0.002,0Zm-0.709,31.202c-0.028,0.118 -0.056,0.247 -0.084,0.387c0,-0.061 0.001,-0.122 0.001,-0.183c0.027,-0.073 0.055,-0.14 0.083,-0.204Zm-14.433,-1.239c-0.011,-0.016 -0.023,-0.034 -0.035,-0.056c-0.145,-0.252 0.145,-0.627 0,-0.706c-0.145,-0.078 -0.258,-0.047 -0.275,-0.141c-0.015,-0.094 0.033,-0.298 0.113,-0.425c0.081,-0.124 0.129,-0.359 0.162,-0.516c0.031,-0.158 0.241,-0.581 0.257,-1.005c0.016,-0.423 0.29,-1.867 0.193,-2.651c-0.096,-0.784 -0.096,-0.925 -0.145,-1.725c-0.048,-0.8 0.016,-1.866 -0.128,-2.573c-0.118,-0.57 -0.108,-1.449 -0.101,-1.789c-0.437,-0.061 -0.889,-0.101 -1.131,-0.061c-0.405,0.065 -0.973,0.472 -3.272,0.947c-2.298,0.474 -4.882,0.54 -6.478,0.052c-1.595,-0.487 -1.825,-0.618 -2.19,-0.618c-0.364,0 -0.581,0.394 -1.23,0.513c-0.393,0.072 -0.774,0.1 -1.07,0.146c-0.23,0.662 -0.601,1.992 -0.447,3.349c0.219,1.912 0.581,2.577 1.076,3.441c0.495,0.863 0.916,1.416 1.178,1.728c0.261,0.31 0.291,0.523 0.393,0.735c0.068,0.143 0.261,0.298 0.428,0.462c-0.015,-0.173 -0.025,-0.274 -0.025,-0.274c0,0 0.082,0.177 0.2,0.468l0.001,0.001c0.185,0.053 0.594,0.194 1.043,0.499c0.092,-0.429 0.163,-0.692 0.163,-0.692c0,0 -0.034,0.311 -0.048,0.774c0.198,0.146 0.4,0.324 0.59,0.54c0.55,-0.729 1.138,-1.04 1.138,-1.04c0,0 -0.162,0.239 -0.334,0.791c0.043,0.152 0.096,0.359 0.147,0.622l0.132,-0.035c-0.012,-0.303 -0.083,-0.571 -0.083,-0.571c0,0 0.094,0.177 0.339,0.503l0.643,-0.169c0.101,-0.44 0.19,-0.661 0.19,-0.661c0,0 0.076,0.189 0.168,0.567l0.776,-0.205c0.269,-0.801 0.542,-1.392 0.542,-1.392c0,0 -0.071,0.707 -0.115,1.59l0.179,0.188c0.171,-0.075 0.307,-0.12 0.382,-0.142c0.074,-0.422 0.05,-0.673 0.05,-0.673c0,0 0.016,0.006 0.117,0.115c0.131,-0.591 0.25,-0.888 0.25,-0.888c0,0 0.188,0.464 0.352,1.392c0.345,-0.456 0.704,-0.747 0.923,-0.9c0.002,-0.005 0.004,-0.008 0.004,-0.008c0,0 0.001,0.001 0.002,0.004c0.124,-0.087 0.202,-0.128 0.202,-0.128c0,0 -0.061,0.09 -0.147,0.287c0.073,0.227 0.203,0.695 0.308,1.402c0.077,-1.038 -0.025,-1.963 -0.025,-1.963c0,0 0.271,1.006 0.448,2.297c0.059,-0.125 0.128,-0.24 0.209,-0.337c0.47,-0.564 0.638,-0.879 0.638,-0.879c0,0 -0.146,0.551 -0.055,0.966c0.007,0.033 0.015,0.067 0.023,0.103c0.14,-0.93 0.328,-1.396 0.328,-1.396c0,0 0.184,0.456 0.324,1.369c0.199,-1.15 0.497,-1.725 0.497,-1.725c0,0 0.211,0.522 0.365,1.565c0.078,-1.038 -0.024,-1.963 -0.024,-1.963c0,0 0.258,0.959 0.435,2.205c0.307,-1.291 0.857,-2.481 0.857,-2.481c0,0 -0.145,1.431 -0.149,2.765c0.1,-0.558 0.204,-0.946 0.204,-0.946c0,0 -0.006,0.059 -0.014,0.157c0.017,-0.065 0.031,-0.127 0.044,-0.185c0.112,-0.515 0.081,-0.828 0.081,-0.828c0,0 0.04,0.016 0.384,0.417c0.014,-0.075 0.029,-0.146 0.043,-0.213Zm-12.616,1.442c0.006,0.027 0.012,0.055 0.018,0.084l0.019,-0.006l0,-0.02l0,-0.056c-0.012,0 -0.025,-0.001 -0.037,-0.002Zm19.874,-2.137c-0.055,-0.156 -0.117,-0.393 -0.15,-0.729c-0.07,-0.705 -0.348,-1.597 -0.528,-2.112c-0.18,-0.514 -0.306,-1.353 -0.57,-1.61c-0.264,-0.257 -0.444,-0.385 -0.5,-0.593c-0.056,-0.207 -0.126,-0.761 -0.334,-1.248c-0.208,-0.488 -0.556,-0.934 -0.847,-1.611c-0.285,-0.661 -0.583,-1.396 -0.778,-1.682c-0.166,0.477 -0.356,1.143 -0.365,1.721c-0.016,1.035 -0.258,2.353 -0.708,2.982c-0.452,0.627 -0.564,1.52 -0.5,2.572c0.065,1.051 0.032,1.835 0.113,2.086c0.08,0.252 0.209,0.094 0.322,0.33c0.113,0.235 0.113,0.392 0.257,0.548c0.051,0.055 0.218,0.162 0.412,0.287c0.069,-0.255 0.121,-0.383 0.121,-0.383c0,0 0.077,0.191 0.169,0.573c0.159,0.108 0.309,0.217 0.408,0.312c0.118,-0.193 0.202,-0.297 0.202,-0.297c0,0 0.126,0.157 0.287,0.44c0.36,-0.451 0.492,-0.701 0.492,-0.701c0,0 -0.145,0.551 -0.055,0.966c0.008,0.033 0.016,0.067 0.024,0.103c0.14,-0.93 0.328,-1.396 0.328,-1.396c0,0 0.115,0.284 0.231,0.852c0.295,-0.414 0.638,-0.714 0.96,-0.929c0.091,-0.42 0.16,-0.677 0.16,-0.677c0,0 -0.026,0.235 -0.042,0.6c0.094,-0.058 0.186,-0.109 0.272,-0.154c-0.057,-0.117 -0.094,-0.172 -0.094,-0.172c0,0 0.074,0.039 0.195,0.123c0.222,-0.106 0.407,-0.168 0.518,-0.201Zm-22.595,0.333c-0.033,-0.039 -0.05,-0.09 -0.033,-0.157c0.058,-0.227 0.117,-0.312 0.117,-0.312c0,0 -0.277,-0.652 -0.684,-1.358c-0.407,-0.709 -1.22,-2.252 -1.933,-3.285c-0.712,-1.034 -1.643,-1.912 -1.745,-2.536c-0.091,-0.562 0.303,-1.037 0.455,-2.795c-0.332,0.965 -0.796,2.196 -1.159,2.685c-0.635,0.857 -0.77,1.423 -0.892,1.95c-0.122,0.526 -0.406,0.947 -0.474,1.277c-0.067,0.328 -0.189,2.014 -0.121,2.594c0.067,0.579 0.297,1.264 0.283,1.528c-0.004,0.086 0.005,0.184 0.022,0.283c0.088,-0.326 0.154,-0.489 0.154,-0.489c0,0 0.187,0.464 0.35,1.392c0.346,-0.456 0.705,-0.747 0.924,-0.9c0.002,-0.005 0.004,-0.008 0.004,-0.008c0,0 0.001,0.001 0.002,0.004c0.124,-0.087 0.202,-0.128 0.202,-0.128c0,0 -0.061,0.09 -0.147,0.287c0.059,0.185 0.157,0.53 0.248,1.035c0.026,0.013 0.052,0.027 0.079,0.041c0.038,-0.898 -0.044,-1.637 -0.044,-1.637c0,0 0.21,0.776 0.38,1.839c0.106,0.072 0.213,0.153 0.319,0.243c0.003,-0.011 0.005,-0.023 0.008,-0.035c0.09,-0.415 0.065,-0.669 0.065,-0.669c0,0 0.031,0.012 0.293,0.316c0.122,-0.626 0.249,-0.94 0.249,-0.94c0,0 0.183,0.453 0.322,1.358c0.231,-0.49 0.457,-0.77 0.457,-0.77c0,0 0.126,0.157 0.287,0.44c0.36,-0.451 0.493,-0.701 0.493,-0.701c0,0 -0.146,0.551 -0.055,0.966c0.007,0.033 0.015,0.067 0.024,0.103c0.139,-0.93 0.327,-1.396 0.327,-1.396c0,0 0.115,0.284 0.231,0.852c0.295,-0.414 0.638,-0.714 0.96,-0.929c0.011,-0.052 0.022,-0.102 0.032,-0.148Zm36.642,1.563c0.001,0 0.001,0 0,0l0,0Zm-28.078,-0.293c0.026,-0.103 0.05,-0.198 0.068,-0.284c0.009,-0.041 0.017,-0.081 0.024,-0.12c-0.055,0.048 -0.138,0.13 -0.232,0.258l0.14,0.146Zm7.304,-0.955c0.002,-0.044 0.007,-0.084 0.013,-0.119c0.016,-0.086 -0.008,-0.09 -0.054,-0.059c0.014,0.056 0.027,0.115 0.041,0.178Zm6.758,-0.567c-0.057,0.08 -0.142,0.202 -0.24,0.36c0.054,0.046 0.11,0.097 0.168,0.153c0.023,-0.109 0.071,-0.226 0.155,-0.35c0,0 -0.036,-0.05 -0.083,-0.163Zm-22.54,0.323l0.008,-0.004l-0.003,-0.002l-0.004,-0.002l-0.001,0.008Z" style="fill:#1b1b1a;fill-rule:nonzero;"/><path id="Inner-Outline" serif:id="Inner Outline" d="M59,32c0,-14.902 -12.098,-27 -27,-27c-14.902,0 -27,12.098 -27,27c0,14.902 12.098,27 27,27c14.902,0 27,-12.098 27,-27Z" style="fill:none;stroke:#fff;stroke-width:3px;"/><path id="Outline" d="M61.409,31.99c0,-16.178 -13.135,-29.313 -29.313,-29.313c-16.179,0 -29.314,13.135 -29.314,29.313c0,16.179 13.135,29.313 29.314,29.313c16.178,0 29.313,-13.134 29.313,-29.313Z" style="fill:none;stroke:#000;stroke-width:3px;"/></g></g></g></svg>