<svg viewBox="0 0 64 64" xmlns="http://www.w3.org/2000/svg" xmlns:serif="http://www.serif.com/" fill-rule="evenodd" clip-rule="evenodd" stroke-linejoin="round" stroke-miterlimit="1.414"><g serif:id="Main icon"><circle cx="32" cy="31.875" r="28.125" fill="#fff"/><path d="M60.125 32C60.057 16.535 47.481 4 32 4S3.943 16.535 3.875 32h56.25z" fill="url(#_Linear1)"/><path serif:id="Water" d="M4.337 29a3.503 3.503 0 0 0 5.663.948A3.488 3.488 0 0 0 12.5 31c.979 0 1.865-.403 2.5-1.052A3.488 3.488 0 0 0 17.5 31c.979 0 1.865-.403 2.5-1.052A3.488 3.488 0 0 0 22.5 31c.979 0 1.865-.403 2.5-1.052A3.488 3.488 0 0 0 27.5 31c.979 0 1.865-.403 2.5-1.052A3.488 3.488 0 0 0 32.5 31c.979 0 1.865-.403 2.5-1.052A3.488 3.488 0 0 0 37.5 31c.979 0 1.865-.403 2.5-1.052A3.488 3.488 0 0 0 42.5 31c.979 0 1.865-.403 2.5-1.052A3.488 3.488 0 0 0 47.5 31c.979 0 1.865-.403 2.5-1.052A3.488 3.488 0 0 0 52.5 31c.979 0 1.865-.403 2.5-1.052A3.488 3.488 0 0 0 57.5 31c.979 0 1.865-.403 2.5-1.052.035.036.07.07.106.104C59.555 47.239 47.173 61 32 61 16.519 61 3.943 46.675 3.875 29h.462z" fill="url(#_Radial2)"/><path d="M17.47 18.172l1.396.007 1.289-.004 1.6-.014 1.701-.024 1.263.001-.011.143.124.059-.017.139.215.246.082.22-.052.146.134.352.07-.002.173.209 2.04.098.52.016 2.087.101 2.487.129 2.273.134 2.481.146 1.965.123-.134.161.204.276-.049.31.095.245.117.104.34-.052.207.056.148-.071-.034-.225.14-.315-.009-.282.067-.19-.232-.571.075-.165-.021-.215.148-.076.048-.146.156.051.045-.199.381-.022.048.117.46.066.277.116.119.106.305-.034.457.154.431-.023.135.08.612-.008-.138.26-.039.185.031.494.105.21.007.241.15.114.017.242-.072.09.025.323.394 1.564.24.654.022.276.098.326.348.854.181.355.446 1.003.486 1.005.168.202.799 1.208.451.652.589.742.101.355.134.251.045.205-.062.145-.2.18-.128.627.231 1.013.37.71.155.261.373.738.165.507.079.168.106.377.166.332.007.118.528 1.169.165.307.076.29.219.499.332 1.2.004.481-.031.59-.041.356-.092.494-.043.369-.013.545-.126.865-.059.614-.081.38.061.338-.057.423-.127.182-.028.362.19.143.087.143-.068.224-.121.071-.188.001-.056.349-.08.209.157.177-.005.133-.195.319-.202.121-.153-.021-.132.208.072.156-.107.241-.278.181-.286.376-.171.082-.099.233-.156.077-.074.179-.319.121-.124.145-.248.123-.18.181-.654.344-.2.144-.36.065-.215.17-.134.017-.423.231-.119.019-.131.131-.403.019-.12-.065-.296.093-.352.179-.114.001-.481.141-.184-.004-.283.09-.208-.059-.069.06.046.188-.109.163-.368.166-.531.128-.267-.104-.265.168-.279.073-.416.022-.174-.169.028-.206-.256-.035-.145-.099-.084-.141-.173.124-.391.002-.159-.101-.07-.122.045-.254.238-.202.142-.048.292.016.288.146.203-.141.267-.114.368-.036.314-.173.433-.152.631-.387.318-.114.072-.074.362-.167.295-.075.174.055.395.017.213-.068.265.066.225.17.14.157.187-.018.168.095.524-.15.136-.122-.182-.121-.109-.231-.32-.318-.106-.323-.121-.174-.113-.037-.153-.177-.183-.092-.057-.229-.105-.108-.097-.236.198-.64-.05-.281-.084-.161-.195-.201-.089-.288-.247-.303-.125-.228-.272-.118-.24-.41-.222-.077-.217-.164-.308-.137-.212.202-.308.002-.16-.115-.126-.266-.173-.194-.162-.38.028-.106-.258-.465-.047-.237-.045-.555-.087-.327-.113-.285-.187-.23-.189-.127-.157.023-.318.125-.226-.033-.17-.118-.149-.195-.225-.099-.106-.109-.112-.358-.095-.154-.03-.182-.209-.287.02-.363-.106-.36-.295-.377-.549-.881-.34-.845-.304-.288-.046-.18-.243-.256-.142-.238-.156-.137-.157-.322-.262-.306-.043-.205.065-.32.028-.382-.362-.444-.137-.234-.04-.266.108-.385.053-.414-.097-.196-.061-.66.085-.202.286-.093.22-.192-.026-.287.283-.495-.014-.432.112-.333-.198-.318-.119-.276.002-.179-.133-.25.096-.347-.071-.17-.129-.048-.13-.223.068-.157-.034-.237-.08-.147-.111-.003-.325-.156-.26.132-.399.047-.183-.042-.173-.12-.118-.274-.026-.318-.325-.26-.025-.381-.309-.196-.056-.193-.227-.131-.043-.12-.341-.129-.126-.145-.099-.451.02-.228-.252-.111-.165-.193-.34-.141-.155-.217-.043-.299-.259-.322-.253-.183-.331-.055-.284-.136-.112-.132-.152-.017-.324-.253-.217-.048-.139-.122-.345.061-.167.181-.226.054-.349-.067-.073.088.044.189-.219.396-.21.105-.236.011-.328-.072-.197.132-.148.008-.051.197-.103.128-.229.113-.278.068-.504.412-.47.171-.533.282-.542.16-.244-.012-.164-.146-.335-.113-.321-.178-.299-.038-.181.138-.288-.037-.253-.298-.143-.341-.092-.504.027-.192.123-.171-.307-.056-.432-.265-.234-.271-.404-.151-.304-.174-.305-.255-.632-.346-.276-.113-.966-.34-.496-.137-.617-.11-.658-.026-.64-.083-.353.014-1.022.122-.814.133-.388.085-.622.075-.202-.045-.515.118-.645.108v-.285l.096-.235.257-.094.053-.233.373-.212-.008-.077-.229-.055-.109-.121-.05-.253.194-.287.077-.227-.069-.247-.497-.244-.176-.148-.05-.152-.426-.357.031-.213.164-.409-.052-.166 2.395-.011 2.181.016 1.063.017.688-.005zm17.78 33.295l.051-.163.234-.147.173-.173.179-.045h.342l.176.128-.001.177-.197.333-.233.144-.268-.034-.146.027-.244-.06-.066-.187z" fill="#ffd460" fill-rule="nonzero" stroke="#fff" stroke-width=".95"/><path d="M24.75 28c.609 0 1.103.494 1.103 1.103v15.441c0 .073-.007.143-.02.212a4.412 4.412 0 1 1-4.371 0 1.059 1.059 0 0 1-.021-.212V29.103c0-.609.494-1.103 1.103-1.103h2.206z" fill="#fffefe"/><path d="M24.842 27.304l.091.007.09.011.089.016.088.02.085.024.084.029.082.032.08.036.078.04.076.044.073.047.07.05.068.053.065.057.063.059.059.063.057.065.053.068.05.07.047.073.044.076.04.078.036.08.032.082.028.083.025.086.02.088.016.088.011.091.007.091.002.083v15.29l.048.033.067.049.066.049.066.05.064.052.064.052.063.054.062.055.061.055.06.056.059.058.059.058.057.06.057.06.055.061.055.062.053.063.053.064.051.064.051.066.049.066.048.067.048.068.046.069.045.069.044.071.043.071.042.072.041.072.039.073.039.074.037.075.036.076.035.076.033.077.033.077.031.078.03.079.028.079.028.08.026.08.024.082.024.081.022.082.021.083.019.083.018.084.017.084.015.085.014.085.013.086.011.086.009.086.009.087.006.088.006.087.003.088.003.089v.09l-.001.13-.005.131-.008.13-.012.129-.015.128-.018.127-.02.127-.025.125-.027.124-.03.123-.033.122-.036.121-.038.12-.042.118-.045.117-.047.115-.05.114-.052.113-.055.111-.058.109-.06.108-.063.106-.066.105-.067.102-.07.101-.073.1-.074.097-.077.096-.08.093-.081.092-.083.09-.086.087-.088.086-.089.083-.092.082-.094.079-.095.077-.098.074-.099.073-.101.07-.103.068-.104.065-.106.063-.108.06-.11.058-.111.055-.112.052-.114.05-.116.048-.116.044-.119.042-.119.039-.121.035-.122.034-.123.03-.124.027-.125.024-.127.021-.127.018-.128.014-.13.012-.13.008-.13.005-.132.002-.131-.002-.131-.005-.13-.008-.129-.012-.129-.014-.127-.018-.126-.021-.126-.024-.124-.027-.123-.03-.122-.034-.121-.035-.119-.039-.119-.042-.116-.044-.116-.048-.114-.049-.112-.053-.111-.055-.11-.058-.108-.06-.106-.063-.104-.065-.103-.068-.101-.07-.099-.073-.098-.074-.095-.077-.094-.079-.092-.082-.089-.083-.088-.086-.085-.087-.084-.09-.081-.092-.079-.093-.077-.096-.075-.097-.073-.1-.07-.101-.067-.102-.066-.105-.062-.106-.061-.108-.057-.109-.056-.111-.052-.113-.05-.114-.047-.115-.045-.117-.041-.118-.039-.12-.036-.121-.033-.122-.03-.123-.027-.124-.024-.125-.021-.127-.018-.127-.015-.128-.011-.129-.009-.13-.005-.131-.001-.13.001-.09.002-.089.004-.088.005-.087.006-.088.009-.087.009-.086.011-.086.013-.086.014-.085.015-.085.017-.084.018-.084.019-.083.021-.083.022-.082.024-.081.024-.082.026-.08.028-.08.029-.079.029-.079.032-.078.032-.077.034-.077.034-.076.036-.076.038-.075.038-.073.04-.074.04-.072.042-.072.043-.071.044-.071.045-.069.046-.069.048-.068.048-.067.05-.066.05-.066.052-.064.052-.064.054-.063.054-.062.056-.061.056-.06.057-.06.059-.058.059-.058.06-.056.061-.055.062-.055.063-.054.064-.052.065-.052.065-.05.066-.049.067-.049.048-.033v-15.29l.002-.083.007-.091.011-.091.016-.088.02-.088.025-.086.028-.083.032-.082.037-.08.039-.078.044-.076.047-.073.05-.07.053-.068.057-.065.059-.063.063-.059.065-.057.068-.053.07-.05.073-.047.076-.044.078-.04.08-.036.082-.032.084-.029.085-.024.088-.02.089-.016.09-.011.091-.007.083-.003h2.224l.083.003zM22.544 28l-.057.001-.056.005-.055.007-.054.009-.053.013-.053.015-.051.017-.05.02-.049.022-.047.024-.047.027-.044.028-.044.031-.041.033-.04.035-.039.036-.036.039-.035.04-.033.041-.03.043-.029.045-.027.046-.024.048-.022.049-.02.05-.017.051-.015.052-.012.054-.01.054-.007.055-.004.056-.002.057v15.441l.001.054.004.053.007.053.009.052-.062.036-.062.037-.061.038-.06.039-.059.04-.059.041-.058.042-.057.042-.056.044-.056.045-.055.045-.055.046-.053.047-.053.048-.052.049-.051.05-.051.05-.049.051-.049.052-.048.053-.047.054-.046.054-.046.055-.044.056-.044.057-.042.057-.042.058-.041.059-.04.059-.039.06-.038.061-.037.061-.036.062-.035.063-.035.063-.033.064-.032.064-.031.066-.03.065-.029.066-.028.067-.027.068-.025.067-.025.069-.024.069-.022.069-.022.07-.02.07-.019.071-.018.072-.017.071-.015.073-.015.072-.013.073-.012.074-.011.074-.009.074-.008.075-.008.075-.005.075-.005.076-.003.076-.002.077-.001.076.002.114.004.113.007.112.01.112.013.111.015.11.018.109.021.108.023.107.026.106.029.105.031.105.033.103.036.101.039.101.04.1.043.098.046.097.047.096.05.094.052.093.054.092.057.09.058.089.061.087.062.086.065.084.066.083.069.081.07.079.072.077.074.076.076.074.077.072.08.071.08.068.083.067.084.064.086.063.087.06.089.059.09.056.092.054.093.052.094.05.096.048.097.045.098.043.1.041.101.038.102.036.103.034.104.031.105.028.106.026.107.023.109.021.109.018.109.016.111.012.112.01.112.007.113.005.114.001.114-.001.113-.005.112-.007.112-.01.111-.012.11-.016.109-.018.108-.021.107-.023.106-.026.105-.028.104-.031.103-.034.102-.036.101-.038.1-.041.098-.043.097-.045.096-.048.094-.05.093-.052.092-.054.09-.056.089-.059.087-.06.086-.063.084-.064.083-.067.081-.068.079-.071.077-.072.076-.074.074-.076.072-.077.07-.079.069-.081.066-.083.065-.084.062-.086.061-.087.058-.089.057-.09.054-.092.052-.093.05-.094.047-.096.046-.097.043-.098.041-.1.038-.101.036-.101.033-.103.031-.105.029-.105.026-.106.023-.107.021-.108.018-.109.015-.11.013-.111.01-.112.007-.112.004-.113.002-.114-.001-.076-.002-.077-.003-.076-.005-.076-.005-.075-.007-.075-.009-.075-.009-.074-.011-.074-.012-.074-.013-.073-.015-.072-.015-.073-.017-.071-.018-.072-.019-.071-.02-.07-.022-.07-.022-.069-.024-.069-.024-.069-.026-.067-.027-.068-.028-.067-.029-.066-.03-.065-.031-.066-.032-.064-.033-.064-.035-.063-.035-.063-.036-.062-.037-.061-.038-.061-.039-.06-.04-.059-.041-.059-.041-.058-.043-.057-.044-.057-.044-.056-.046-.055-.046-.054-.047-.054-.048-.053-.049-.052-.049-.051-.051-.05-.051-.05-.052-.049-.053-.048-.053-.047-.055-.046-.055-.045-.055-.045-.057-.044-.057-.042-.058-.042-.059-.041-.059-.04-.06-.039-.061-.038-.061-.037-.062-.036.008-.052.007-.053.004-.053.001-.054V29.103l-.001-.057-.005-.056-.007-.055-.009-.054-.013-.054-.015-.052-.017-.051-.02-.05-.022-.049-.024-.048-.027-.046-.029-.045-.03-.043-.033-.041-.035-.04-.036-.039-.039-.036-.04-.035-.041-.033-.044-.031-.044-.028-.046-.027-.048-.024-.049-.022-.05-.02-.051-.017-.052-.015-.054-.013-.054-.009-.055-.007-.056-.005L24.75 28h-2.206z" fill="#fff"/><path d="M24.382 34.863c.406 0 .736.329.736.735v10.294a.725.725 0 0 1-.014.141 2.942 2.942 0 0 1-1.457 5.496 2.942 2.942 0 0 1-1.457-5.496.725.725 0 0 1-.014-.141V35.598c0-.406.33-.735.736-.735h1.47z" fill="#d21e30"/><path d="M32 4c15.454 0 28 12.546 28 28S47.454 60 32 60 4 47.454 4 32 16.546 4 32 4zm0 0c15.454 0 28 12.546 28 28S47.454 60 32 60 4 47.454 4 32 16.546 4 32 4z" fill="#ea5455" stroke="#ea5455" stroke-width="3" stroke-linecap="round" stroke-miterlimit="1.5"/></g><defs><linearGradient id="_Linear1" x2="1" gradientUnits="userSpaceOnUse" gradientTransform="matrix(-5 -19 19 -5 37 25)"><stop offset="0" stop-color="#e86c35"/><stop offset="1" stop-color="#ffdc9c"/></linearGradient><radialGradient id="_Radial2" cx="0" cy="0" r="1" gradientUnits="userSpaceOnUse" gradientTransform="matrix(-1.99933 -11.4286 16.1667 -3.69649 41 52)"><stop offset="0" stop-color="#1dbfdd"/><stop offset="1" stop-color="#004aaa"/></radialGradient></defs></svg>