<svg viewBox="0 0 64 64" xmlns="http://www.w3.org/2000/svg" xmlns:serif="http://www.serif.com/" fill-rule="evenodd" clip-rule="evenodd" stroke-linejoin="round" stroke-miterlimit="1.41"><g serif:id="Main icon"><circle cx="32" cy="31.88" r="28.13" fill="#fff"/><path d="M60.13 32a28.14 28.14 0 0 0-56.25 0h56.25z" fill="url(#_Linear1)"/><path serif:id="Water" d="M4.34 29a3.5 3.5 0 0 0 5.66.95A3.49 3.49 0 0 0 12.5 31c.98 0 1.86-.4 2.5-1.05A3.49 3.49 0 0 0 17.5 31c.98 0 1.86-.4 2.5-1.05A3.49 3.49 0 0 0 22.5 31c.98 0 1.86-.4 2.5-1.05A3.49 3.49 0 0 0 27.5 31c.98 0 1.86-.4 2.5-1.05A3.49 3.49 0 0 0 32.5 31c.98 0 1.86-.4 2.5-1.05A3.49 3.49 0 0 0 37.5 31c.98 0 1.86-.4 2.5-1.05A3.49 3.49 0 0 0 42.5 31c.98 0 1.86-.4 2.5-1.05A3.49 3.49 0 0 0 47.5 31c.98 0 1.86-.4 2.5-1.05A3.49 3.49 0 0 0 52.5 31c.98 0 1.86-.4 2.5-1.05A3.49 3.49 0 0 0 57.5 31c.98 0 1.86-.4 2.5-1.05l.1.1C59.56 47.24 47.18 61 32 61 16.52 61 3.94 46.67 3.87 29h.47z" fill="url(#_Radial2)"/><path d="M17.47 18.17H21.75l1.7-.03h1.27l-.01.14.12.06-.01.14.21.25.08.22-.05.14.13.35h.07l.18.21 2.04.1.52.01 2.08.1 2.5.13 2.26.14 2.48.14 1.97.13-.13.16.2.27-.05.31.1.25.11.1.34-.05.21.06.15-.07-.04-.23.14-.31v-.29l.06-.19-.23-.57.08-.16-.03-.22.15-.07.05-.15.16.05.04-.2.38-.02.05.12.46.06.28.12.12.1.3-.03.46.16.43-.03.13.08h.62l-.14.25-.04.19.03.5.1.2.01.24.15.12.02.24-.07.1.02.31.4 1.57.24.65.02.28.1.32.34.86.19.35.44 1 .49 1.01.16.2.8 1.21.45.65.6.75.1.35.13.25.04.2-.06.15-.2.18-.13.63.23 1.01.38.71.15.26.37.74.17.5.08.17.1.38.17.33v.12l.53 1.17.17.3.07.3.22.5.34 1.2v.48l-.03.59-.04.35-.1.5-.04.37-.01.54-.13.87-.05.61-.09.38.07.34-.06.42-.13.18-.03.37.2.14.08.14-.07.23-.12.07h-.19l-.05.35-.08.2.15.18v.14l-.2.32-.2.12-.15-.02-.13.2.07.16-.1.24-.29.18-.28.38-.17.08-.1.23-.16.08-.07.18-.32.12-.12.14-.25.13-.18.18-.66.34-.2.15-.36.06-.21.17-.14.02-.42.23-.12.02-.13.13-.4.02-.12-.07-.3.1-.35.18h-.11l-.48.14h-.19l-.28.08-.21-.06-.07.06.05.2-.11.16-.37.16-.53.13-.27-.1-.26.16-.28.08-.42.02-.17-.17.03-.2-.26-.04-.14-.1-.09-.14-.17.12h-.4l-.15-.1-.07-.12.04-.25.24-.2.14-.05.3.01.28.15.2-.14.27-.12.37-.03.32-.17.43-.16.63-.38.32-.12.07-.07.36-.17.3-.07.17.05.4.02.2-.07.27.07.23.17.14.15.19-.01.16.09.53-.15.13-.12-.18-.12-.1-.23-.33-.32-.1-.32-.12-.18-.12-.04-.15-.17-.18-.1-.06-.22-.1-.11-.1-.24.2-.64-.05-.28-.09-.16-.2-.2-.08-.29-.25-.3-.12-.23-.28-.12-.24-.4-.22-.08-.22-.17-.3-.14-.22.2h-.3l-.16-.1-.13-.27-.17-.2-.16-.38.02-.1-.25-.47-.05-.23-.05-.56-.08-.33-.12-.28-.18-.23-.2-.13-.15.02-.32.13-.22-.03-.17-.12-.15-.2-.23-.1-.1-.1-.12-.36-.1-.16-.02-.18-.21-.29.02-.36-.1-.36-.3-.38-.55-.88-.34-.84-.3-.29-.05-.18-.24-.26-.15-.23-.15-.14-.16-.32-.26-.3-.04-.21.06-.32.03-.39-.36-.44-.14-.23-.04-.27.1-.38.06-.42-.1-.2-.06-.65.09-.2.28-.1.22-.2-.02-.28.28-.5-.01-.43.11-.33-.2-.32-.12-.27v-.18l-.13-.25.1-.35-.07-.17-.13-.05-.13-.22.07-.16-.04-.23-.08-.15h-.1l-.33-.16-.26.13-.4.05-.19-.04-.17-.12-.12-.28-.02-.31-.33-.26-.02-.39-.31-.2-.06-.18-.23-.14-.04-.12-.34-.12-.13-.15-.1-.45.03-.23-.26-.11-.16-.2-.34-.13-.16-.22-.04-.3-.26-.32-.25-.18-.33-.06-.29-.14-.1-.13-.16-.01-.32-.26-.22-.05-.14-.12-.35.06-.16.18-.23.06-.35-.07-.07.09.04.19-.22.4-.2.1-.24.01-.33-.07-.2.13h-.14l-.06.2-.1.13-.23.12-.28.06-.5.42-.47.17-.53.28-.54.16-.25-.01-.16-.15-.34-.11-.32-.18-.3-.04-.18.14-.29-.04-.25-.3-.14-.34-.1-.5.03-.2.13-.16-.31-.06-.43-.26-.24-.27-.4-.16-.3-.17-.31-.25-.63-.35-.28-.11-.96-.34-.5-.14-.62-.11-.66-.03-.64-.08-.35.01-1.02.13-.81.13-.4.08-.61.08-.2-.05-.52.12-.65.11v-.28l.1-.24.26-.1.05-.23.37-.2v-.09l-.23-.05-.11-.12-.05-.25.2-.3.07-.22-.07-.25-.5-.24-.17-.15-.05-.15-.43-.36.03-.21.16-.4-.05-.17 2.4-.02 2.18.02 1.06.02h.69zm17.78 33.3l.05-.17.24-.14.17-.18.18-.04h.34l.18.13v.17l-.2.34-.24.14-.26-.03-.15.02-.24-.06-.07-.18z" fill="#ffd460" fill-rule="nonzero" stroke="#fff" stroke-width=".95"/><path d="M24.75 28c.6 0 1.1.5 1.1 1.1v15.44c0 .08 0 .15-.02.22a4.41 4.41 0 1 1-4.37 0 1.06 1.06 0 0 1-.02-.22V29.1c0-.6.5-1.1 1.1-1.1h2.21z" fill="#fffefe"/><path d="M24.84 27.3l.1.01.08.01.1.02.08.02.09.02.08.03.08.03.08.04.08.04.07.04.08.05.07.05.07.05.06.06.06.06.06.06.06.07.05.06.05.08.05.07.04.07.04.08.04.08.03.08.03.09.03.08.02.1.01.08.01.09v.1l.01.07v15.3l.05.03.07.05.06.05.07.04.06.06.07.05.06.05.06.06.06.05.06.06.06.06.06.05.06.06.05.06.06.07.05.06.06.06.05.06.05.07.05.07.05.06.05.07.05.07.04.07.05.06.04.08.04.07.05.07.04.07.04.07.04.08.03.07.04.08.03.07.04.08.03.08.03.08.03.08.03.07.03.08.02.08.03.09.02.08.02.08.02.08.02.09.02.08.02.08.01.09.02.08.01.09.01.09.01.08v.09l.01.09.01.08v.66l-.02.13-.01.13-.02.13-.02.12-.03.13-.02.12-.03.12-.04.13-.03.12-.04.12-.04.12-.05.11-.05.12-.05.11-.05.11-.05.12-.06.1-.06.11-.06.1-.07.11-.07.1-.07.1-.07.1-.07.1-.08.1-.08.1-.08.08-.08.1-.09.08-.09.09-.09.08-.09.08-.1.08-.09.08-.1.07-.1.08-.1.07-.1.06-.1.07-.1.06-.12.06-.1.06-.12.05-.11.06-.11.05-.12.04-.12.05-.12.04-.11.04-.13.03-.12.04-.12.03-.12.03-.13.02-.13.02-.12.02-.13.01-.13.01-.13.01h-.66l-.12-.02-.13-.01-.13-.02-.13-.02-.12-.02-.13-.03-.12-.03-.12-.04-.12-.03-.12-.04-.12-.04-.12-.05-.11-.04-.12-.05-.1-.06-.12-.05-.1-.06-.12-.06-.1-.06-.1-.07-.11-.06-.1-.07-.1-.08-.1-.07-.1-.08-.09-.08-.09-.08-.09-.08-.09-.09-.08-.09-.09-.09-.08-.09-.08-.1-.07-.09-.08-.1-.07-.1-.07-.1-.07-.1-.06-.1-.07-.1-.06-.12-.05-.1-.06-.12-.05-.1-.05-.12-.05-.12-.04-.11-.04-.12-.04-.12-.04-.12-.03-.13-.03-.12-.03-.12-.02-.13-.02-.12-.02-.13-.02-.13v-.13l-.02-.13V48.24l.01-.1.01-.08.01-.08.01-.1.02-.08.01-.08.02-.09.01-.08.02-.08.02-.09.02-.08.02-.08.03-.08.02-.09.03-.08.02-.08.03-.07.03-.08.03-.08.04-.08.03-.08.03-.07.04-.08.04-.07.04-.08.04-.07.04-.07.04-.07.04-.07.05-.08.04-.06.05-.07.04-.07.05-.07.05-.06.05-.07.05-.06.06-.07.05-.06.05-.06.06-.06.06-.07L20 45l.06-.05.06-.06.06-.06.06-.05.06-.06.07-.05.06-.05.07-.06.06-.05.07-.04.06-.05.05-.04V29.01l.01-.09.01-.1.02-.08.02-.09.02-.08.03-.09.03-.08.04-.08.04-.08.04-.07.05-.07.05-.07.05-.07.06-.07.06-.06.06-.06.07-.06.07-.05.07-.05.07-.05.07-.04.08-.04.08-.04.08-.03.09-.03.08-.02.1-.02.08-.02h.1l.08-.02h2.39zm-2.3.7h-.11l-.05.01-.06.01-.05.02-.05.01-.05.02-.05.02-.05.02-.05.02-.05.03-.04.03-.05.03-.04.03-.04.04-.04.03-.03.04-.04.04-.03.04-.03.05-.03.04-.03.05-.02.05-.02.04-.02.05-.02.06-.01.05-.02.05v.06l-.01.05V44.7l.01.06-.06.03-.06.04-.06.04-.06.04-.06.04-.06.04-.06.04-.06.04-.05.04-.06.05-.05.04-.06.05-.05.05-.05.05-.06.04-.05.05-.05.05-.05.06-.05.05-.04.05-.05.05-.05.06-.04.05-.05.06-.04.06-.04.05-.05.06-.04.06-.04.06-.04.06-.03.06-.04.06-.04.06-.03.07-.04.06-.03.06-.03.07-.03.06-.03.07-.03.06-.03.07-.03.07-.02.07-.03.07-.02.06-.02.07-.02.07-.02.07-.02.07-.02.08-.02.07-.01.07-.02.07-.01.08-.01.07-.01.07-.01.08-.01.07v.08l-.01.07v.08l-.01.08v.49l.02.1.01.12.02.11.01.1.03.12.02.1.02.11.03.1.03.11.04.1.03.1.04.1.04.1.05.1.04.1.05.1.05.09.05.1.05.08.06.1.06.08.06.1.06.08.07.08.06.08.07.08.07.08.07.08.08.08.07.07.08.07.08.07.08.07.08.07.09.06.08.07.1.06.08.06.09.05.1.05.08.06.1.05.1.04.1.05.09.04.1.04.1.04.1.04.1.03.11.03.1.03.11.03.1.02.12.02.1.02.12.01.1.02h.12l.11.01h.11l.12.01h.22l.12-.01.1-.01.12-.02.1-.01.12-.02.1-.02.11-.02.1-.03.11-.03.1-.03.11-.03.1-.04.1-.04.1-.04.1-.04.1-.04.1-.05.09-.05.1-.06.08-.05.1-.06.08-.05.09-.06.09-.07.08-.06.08-.07.08-.07.08-.07.08-.07.08-.07.07-.08.07-.08.07-.07.07-.09.07-.08.06-.08.06-.09.07-.09.05-.09.06-.09.05-.09.06-.09.05-.1.04-.09.05-.1.04-.1.04-.1.04-.1.04-.1.03-.1.03-.1.03-.11.03-.1.02-.11.02-.11.02-.11.01-.11.02-.11v-.11l.01-.12V48.21l-.01-.08-.01-.07-.01-.08-.01-.07-.01-.07-.02-.08-.01-.07-.02-.07-.01-.07-.02-.08-.02-.07-.02-.07-.02-.07-.03-.07-.02-.06-.02-.07-.03-.07-.03-.07-.02-.07-.03-.06-.03-.07-.03-.06-.04-.07-.03-.06-.03-.06-.04-.07-.04-.06-.03-.06-.04-.06-.04-.06-.04-.06-.04-.06-.04-.06-.04-.05-.05-.06-.04-.06-.05-.05-.04-.06-.05-.05-.05-.05-.05-.05-.05-.06-.05-.05-.05-.05-.05-.04-.05-.05-.06-.05-.05-.05-.06-.04-.05-.05-.06-.04-.06-.04-.05-.04-.06-.04-.06-.04-.06-.04-.06-.04-.06-.04-.07-.03.01-.06v-.05l.01-.05V28.99l-.01-.05v-.06l-.02-.05-.02-.05-.01-.06-.02-.05-.03-.04-.02-.05-.03-.05-.03-.04-.03-.05-.03-.04-.03-.04-.04-.04-.04-.03-.04-.04-.04-.03-.04-.03-.05-.03-.04-.03-.05-.02-.05-.02-.05-.02-.05-.02-.05-.01-.06-.02h-.05l-.06-.01h-.05l-.06-.01h-2.2z" fill="#fff"/><path d="M24.38 34.86c.4 0 .74.33.74.74v10.3a.72.72 0 0 1-.02.13 2.94 2.94 0 0 1-1.45 5.5 2.94 2.94 0 0 1-1.46-5.5.72.72 0 0 1-.01-.14V35.6c0-.4.33-.73.73-.73h1.47z" fill="#d21e30"/><path d="M32 4c15.45 0 28 12.55 28 28S47.45 60 32 60 4 47.45 4 32 16.55 4 32 4zm0 0c15.45 0 28 12.55 28 28S47.45 60 32 60 4 47.45 4 32 16.55 4 32 4z" fill="#ea5455" stroke="#ea5455" stroke-width="3" stroke-linecap="round" stroke-miterlimit="1.5"/></g><defs><linearGradient id="_Linear1" x2="1" gradientUnits="userSpaceOnUse" gradientTransform="matrix(-5 -19 19 -5 37 25)"><stop offset="0" stop-color="#e86c35"/><stop offset="1" stop-color="#ffdc9c"/></linearGradient><radialGradient id="_Radial2" cx="0" cy="0" r="1" gradientUnits="userSpaceOnUse" gradientTransform="matrix(-1.99933 -11.4286 16.1667 -3.69649 41 52)"><stop offset="0" stop-color="#1dbfdd"/><stop offset="1" stop-color="#004aaa"/></radialGradient></defs></svg>